<svg width="80" height="107" viewBox="0 0 80 107" fill="none" xmlns="http://www.w3.org/2000/svg">
<rect x="24.2695" y="83.5955" width="31.4607" height="22.4719" rx="5" fill="#1E88E5"/>
<path d="M26.0674 91.6853C27.2284 93.6329 30.2472 96.3595 33.0337 91.6853" stroke="white" stroke-linecap="round" stroke-dasharray="2 2"/>
<path d="M33.0337 91.6853C34.1947 93.6329 37.2135 96.3595 40 91.6853" stroke="white" stroke-linecap="round" stroke-dasharray="2 2"/>
<path d="M40 91.6853C41.161 93.6329 44.1798 96.3595 46.9663 91.6853" stroke="white" stroke-linecap="round" stroke-dasharray="2 2"/>
<path d="M46.9663 91.6853C48.1274 93.6329 51.1461 96.3595 53.9326 91.6853" stroke="white" stroke-linecap="round" stroke-dasharray="2 2"/>
<rect x="37.7529" y="71.0115" width="4.49438" height="16.1798" rx="2.24719" fill="#FFC107"/>
<rect x="25.1689" y="71.7917" width="4.49438" height="16.1798" rx="2.24719" transform="rotate(-10 25.1689 71.7917)" fill="#FFC107"/>
<rect width="4.49438" height="16.1798" rx="2.24719" transform="matrix(0.984808 0.173648 0.173648 -0.984808 48.5391 86.9453)" fill="#FFC107"/>
<circle cx="40" cy="40" r="40" fill="#F44336"/>
<path d="M42.8002 74.3999C51.063 63.0141 61.1793 31.8201 41.3486 4.49428" stroke="white" stroke-miterlimit="16" stroke-linecap="round" stroke-dasharray="2 2"/>
<path d="M36.8003 74.3999C28.6667 63.0141 19.1313 31.8201 38.6519 4.49428" stroke="white" stroke-miterlimit="16" stroke-linecap="round" stroke-dasharray="2 2"/>
<path d="M32.8002 4C17.1759 4.97343 -11.9999 45.6 27.2002 74.8" stroke="white" stroke-linecap="round" stroke-dasharray="2 2"/>
<path d="M46.3999 4C62.0243 4.97343 91.2001 45.6 52 74.8" stroke="white" stroke-linecap="round" stroke-dasharray="2 2"/>
<rect width="52" height="21" transform="translate(15 29)" fill="#F44336"/>
<path d="M20.47 52.5C19.53 52.5 19.06 52.02 19.06 51.06V34.08H13.9C12.94 34.08 12.46 33.65 12.46 32.79C12.46 31.93 12.94 31.5 13.9 31.5H26.98C27.92 31.5 28.39 31.93 28.39 32.79C28.39 33.65 27.92 34.08 26.98 34.08H21.82V51.06C21.82 52.02 21.37 52.5 20.47 52.5ZM40.0281 52.95C38.1281 52.95 36.4481 52.5 34.9881 51.6C33.5281 50.7 32.3781 49.43 31.5381 47.79C30.7181 46.15 30.3081 44.22 30.3081 42C30.3081 39.78 30.7181 37.85 31.5381 36.21C32.3781 34.55 33.5281 33.27 34.9881 32.37C36.4481 31.45 38.1281 30.99 40.0281 30.99C41.9281 30.99 43.5981 31.45 45.0381 32.37C46.4981 33.27 47.6381 34.55 48.4581 36.21C49.2981 37.85 49.7181 39.78 49.7181 42C49.7181 44.22 49.2981 46.15 48.4581 47.79C47.6381 49.43 46.4981 50.7 45.0381 51.6C43.5981 52.5 41.9281 52.95 40.0281 52.95ZM40.0281 50.25C41.3881 50.25 42.5781 49.91 43.5981 49.23C44.6381 48.55 45.4381 47.6 45.9981 46.38C46.5781 45.14 46.8681 43.68 46.8681 42C46.8681 40.3 46.5781 38.84 45.9981 37.62C45.4381 36.38 44.6381 35.42 43.5981 34.74C42.5781 34.06 41.3881 33.72 40.0281 33.72C38.6681 33.72 37.4681 34.06 36.4281 34.74C35.4081 35.42 34.6081 36.38 34.0281 37.62C33.4481 38.84 33.1581 40.3 33.1581 42C33.1581 43.68 33.4481 45.14 34.0281 46.38C34.6081 47.6 35.4081 48.55 36.4281 49.23C37.4681 49.91 38.6681 50.25 40.0281 50.25ZM54.6522 52.5C53.7522 52.5 53.3022 52.02 53.3022 51.06V32.91C53.3022 31.97 53.7722 31.5 54.7122 31.5H62.6922C64.6722 31.5 66.2022 31.96 67.2822 32.88C68.3822 33.8 68.9322 35.26 68.9322 37.26C68.9322 39.28 68.3822 40.76 67.2822 41.7C66.2022 42.64 64.6722 43.11 62.6922 43.11H56.0322V51.06C56.0322 52.02 55.5722 52.5 54.6522 52.5ZM56.0322 40.5H62.3622C63.5622 40.5 64.4722 40.25 65.0922 39.75C65.7322 39.23 66.0522 38.4 66.0522 37.26C66.0522 36.14 65.7322 35.33 65.0922 34.83C64.4722 34.33 63.5622 34.08 62.3622 34.08H56.0322V40.5Z" fill="white"/>
</svg>
