<svg width="636" height="605" viewBox="0 0 636 605" fill="none" xmlns="http://www.w3.org/2000/svg">
<path fill-rule="evenodd" clip-rule="evenodd" d="M420.838 11.4751C481.503 16.0373 524.562 65.5454 580.396 89.3682C659.346 123.054 770.851 106.8 814.927 179.621C858.25 251.196 828.672 352.243 781.288 421.272C738.086 484.209 652.357 495.483 580.037 521.81C528.042 540.738 440.299 542.142 386.623 555.766C306.31 576.151 195.3 615.715 129.598 565.833C63.0682 515.324 117.558 466.534 89.4552 388.533C59.8488 306.358 15.857 266.676 29.5865 180.53C42.5037 99.48 166.319 96.9004 242.552 63.9608C300.782 38.8006 357.444 6.70752 420.838 11.4751Z" fill="#4CAF50"/>
<path fill-rule="evenodd" clip-rule="evenodd" d="M406.404 15.4718C466.694 20.0025 509.487 69.1686 564.976 92.8268C643.438 126.28 754.254 110.138 798.058 182.456C841.112 253.536 811.717 353.885 764.626 422.437C721.691 484.94 636.492 496.136 564.619 522.281C512.946 541.079 425.745 542.473 372.401 556.002C292.584 576.246 182.26 615.538 116.964 566C50.8453 515.84 104.998 467.387 77.0692 389.925C47.6458 308.317 3.92588 268.91 17.5705 183.359C30.4079 102.869 153.458 100.307 229.22 67.5949C287.09 42.6086 343.402 10.7372 406.404 15.4718Z" fill="#4CAF50" stroke="#4CAF50" stroke-width="30"/>
</svg>
