<svg width="248" height="211" viewBox="0 0 248 211" fill="none" xmlns="http://www.w3.org/2000/svg">
<path fill-rule="evenodd" clip-rule="evenodd" d="M28.4746 80.9499C33.2415 70.8292 33.9856 59.0022 42.1295 51.0507C50.2145 43.1568 61.9679 40.4007 73.2081 37.2734C85.0008 33.9922 96.8062 33.5353 109.099 32.4177C130.943 30.4316 154.776 16.8678 173.485 28.1563C191.03 38.7432 193.108 63.3358 192.408 82.6866C191.754 100.736 182.559 117.649 169.766 130.871C158.697 142.312 140.495 143.186 126.286 151.03C112.013 158.909 102.969 176.537 86.2614 176.968C69.5475 177.4 57.0336 162.73 43.5147 153.167C30.461 143.933 11.7878 137.042 8.67228 122.083C5.49133 106.809 21.8581 94.9972 28.4746 80.9499Z" fill="#FFC107"/>
<g style="mix-blend-mode:multiply">
<path fill-rule="evenodd" clip-rule="evenodd" d="M143.396 121.724C147.856 115.805 150.431 108.319 156.338 104.187C162.201 100.085 169.126 99.7054 175.839 99.0273C182.881 98.3159 189.413 99.4145 196.332 100.147C208.627 101.45 224.132 95.5728 232.28 105.006C239.921 113.852 236.546 129.845 232.615 142.154C228.948 153.634 220.824 163.38 211.412 170.34C203.268 176.361 193.166 174.776 183.967 178.125C174.726 181.488 166.554 191.71 157.349 190.017C148.141 188.324 143.997 177.456 138.367 169.739C132.931 162.288 123.995 155.676 125.037 145.729C126.101 135.574 137.206 129.939 143.396 121.724Z" fill="#8FC4F2"/>
</g>
</svg>
