<svg width="2560" height="60" viewBox="0 0 2560 60" fill="none" xmlns="http://www.w3.org/2000/svg">
<rect width="53.3333" height="60" fill="#F44336"/>
<rect x="53.3335" width="53.3333" height="60" fill="#FFC107"/>
<rect x="106.667" width="53.3333" height="60" fill="#4CAF50"/>
<rect x="160" width="53.3333" height="60" fill="#1E88E5"/>
<rect x="853.333" width="53.3333" height="60" fill="#F44336"/>
<rect x="906.667" width="53.3333" height="60" fill="#FFC107"/>
<rect x="960" width="53.3333" height="60" fill="#4CAF50"/>
<rect x="1013.33" width="53.3333" height="60" fill="#1E88E5"/>
<rect x="426.667" width="53.3333" height="60" fill="#F44336"/>
<rect x="480" width="53.3333" height="60" fill="#FFC107"/>
<rect x="533.333" width="53.3333" height="60" fill="#4CAF50"/>
<rect x="586.667" width="53.3333" height="60" fill="#1E88E5"/>
<rect x="213.333" width="53.3333" height="60" fill="#F44336"/>
<rect x="266.667" width="53.3333" height="60" fill="#FFC107"/>
<rect x="320" width="53.3333" height="60" fill="#4CAF50"/>
<rect x="373.333" width="53.3333" height="60" fill="#1E88E5"/>
<rect x="1066.67" width="53.3333" height="60" fill="#F44336"/>
<rect x="1120" width="53.3333" height="60" fill="#FFC107"/>
<rect x="1173.33" width="53.3333" height="60" fill="#4CAF50"/>
<rect x="1226.67" width="53.3333" height="60" fill="#1E88E5"/>
<rect x="640" width="53.3333" height="60" fill="#F44336"/>
<rect x="693.333" width="53.3333" height="60" fill="#FFC107"/>
<rect x="746.667" width="53.3333" height="60" fill="#4CAF50"/>
<rect x="800" width="53.3333" height="60" fill="#1E88E5"/>
<rect x="1280" width="53.3333" height="60" fill="#F44336"/>
<rect x="1333.33" width="53.3333" height="60" fill="#FFC107"/>
<rect x="1386.67" width="53.3333" height="60" fill="#4CAF50"/>
<rect x="1440" width="53.3333" height="60" fill="#1E88E5"/>
<rect x="2133.33" width="53.3333" height="60" fill="#F44336"/>
<rect x="2186.67" width="53.3333" height="60" fill="#FFC107"/>
<rect x="2240" width="53.3333" height="60" fill="#4CAF50"/>
<rect x="2293.33" width="53.3333" height="60" fill="#1E88E5"/>
<rect x="1706.67" width="53.3333" height="60" fill="#F44336"/>
<rect x="1760" width="53.3333" height="60" fill="#FFC107"/>
<rect x="1813.33" width="53.3333" height="60" fill="#4CAF50"/>
<rect x="1866.67" width="53.3333" height="60" fill="#1E88E5"/>
<rect x="1493.33" width="53.3333" height="60" fill="#F44336"/>
<rect x="1546.67" width="53.3333" height="60" fill="#FFC107"/>
<rect x="1600" width="53.3333" height="60" fill="#4CAF50"/>
<rect x="1653.33" width="53.3333" height="60" fill="#1E88E5"/>
<rect x="2346.67" width="53.3333" height="60" fill="#F44336"/>
<rect x="2400" width="53.3333" height="60" fill="#FFC107"/>
<rect x="2453.33" width="53.3333" height="60" fill="#4CAF50"/>
<rect x="2506.67" width="53.3333" height="60" fill="#1E88E5"/>
<rect x="1920" width="53.3333" height="60" fill="#F44336"/>
<rect x="1973.33" width="53.3333" height="60" fill="#FFC107"/>
<rect x="2026.67" width="53.3333" height="60" fill="#4CAF50"/>
<rect x="2080" width="53.3333" height="60" fill="#1E88E5"/>
</svg>
