<svg width="264" height="110" viewBox="0 0 264 110" fill="none" xmlns="http://www.w3.org/2000/svg">
<path d="M127.576 99.7598C126.958 99.7598 126.421 99.5482 125.965 99.125C125.509 98.6693 125.281 98.1322 125.281 97.5137V85.0625L113.611 68.7539C113.351 68.2331 113.221 67.7773 113.221 67.3867C113.221 66.7682 113.432 66.2311 113.855 65.7754C114.279 65.3197 114.799 65.0918 115.418 65.0918C116.264 65.0918 116.932 65.4661 117.42 66.2148L127.576 81.0098L137.732 66.2148C138.221 65.4661 138.888 65.0918 139.734 65.0918C140.32 65.0918 140.825 65.3197 141.248 65.7754C141.704 66.1986 141.932 66.7031 141.932 67.2891C141.932 67.6797 141.801 68.168 141.541 68.7539L129.822 85.0625V97.5137C129.822 98.1322 129.594 98.6693 129.139 99.125C128.715 99.5482 128.195 99.7598 127.576 99.7598ZM231.092 100.004C229.692 100.004 228.374 99.7109 227.137 99.125C225.867 98.5391 224.874 97.6764 224.158 96.5371C223.442 95.3978 223.084 94.0957 223.084 92.6309C223.084 90.0918 224.061 88.1387 226.014 86.7715C227.999 85.3717 230.783 84.6719 234.363 84.6719H240.223V84.3301C240.223 82.2467 239.702 80.7331 238.66 79.7891C237.651 78.8125 236.007 78.3242 233.729 78.3242C232.557 78.3242 231.499 78.4219 230.555 78.6172C229.611 78.7799 228.504 79.0729 227.234 79.4961L226.6 79.5938C226.111 79.5938 225.672 79.4147 225.281 79.0566C224.923 78.666 224.744 78.2103 224.744 77.6895C224.744 76.778 225.184 76.1432 226.062 75.7852C228.797 74.6133 231.613 74.0273 234.51 74.0273C236.756 74.0273 238.676 74.4831 240.271 75.3945C241.769 76.2734 242.892 77.4453 243.641 78.9102C244.389 80.3424 244.764 81.9375 244.764 83.6953V97.5137C244.764 98.1322 244.536 98.6693 244.08 99.125C243.624 99.5482 243.087 99.7598 242.469 99.7598C241.85 99.7598 241.313 99.5482 240.857 99.125C240.434 98.6693 240.223 98.1322 240.223 97.5137V96.3418C237.879 98.7832 234.835 100.004 231.092 100.004ZM227.625 92.1426C227.625 94.7142 229.334 96 232.752 96C234.152 96 235.503 95.6745 236.805 95.0234C238.139 94.3398 239.279 93.4609 240.223 92.3867V88.334H234.949C230.066 88.334 227.625 89.6035 227.625 92.1426Z" fill="#4086F4"/>
<path d="M157.996 100.004C155.522 100.004 153.325 99.4668 151.404 98.3926C149.516 97.2858 148.051 95.7396 147.01 93.7539C145.968 91.7682 145.447 89.5221 145.447 87.0156C145.447 84.4766 145.968 82.2142 147.01 80.2285C148.051 78.2428 149.516 76.7129 151.404 75.6387C153.325 74.5645 155.522 74.0273 157.996 74.0273C160.47 74.0273 162.651 74.5645 164.539 75.6387C166.46 76.7454 167.941 78.2917 168.982 80.2773C170.024 82.2305 170.545 84.4766 170.545 87.0156C170.545 89.5547 170.024 91.8008 168.982 93.7539C167.908 95.7721 166.411 97.3184 164.49 98.3926C162.602 99.4668 160.438 100.004 157.996 100.004ZM149.988 86.9668C149.988 89.0501 150.379 90.7266 151.16 91.9961C151.876 93.2656 152.82 94.2259 153.992 94.877C155.197 95.528 156.531 95.8535 157.996 95.8535C159.331 95.8535 160.617 95.5443 161.854 94.9258C163.123 94.2747 164.132 93.2819 164.881 91.9473C165.63 90.5801 166.004 88.9199 166.004 86.9668C166.004 84.916 165.613 83.2559 164.832 81.9863C164.116 80.7493 163.156 79.8053 161.951 79.1543C160.779 78.5033 159.461 78.1777 157.996 78.1777C156.661 78.1777 155.376 78.4707 154.139 79.0566C152.869 79.7077 151.86 80.7005 151.111 82.0352C150.363 83.3698 149.988 85.0137 149.988 86.9668ZM255.213 90.0918C254.725 90.0918 254.318 89.9616 253.992 89.7012C253.699 89.4408 253.536 89.0827 253.504 88.627L252.625 72.5137V67.6797C252.625 66.9635 252.869 66.3613 253.357 65.873C253.878 65.3522 254.497 65.0918 255.213 65.0918C255.929 65.0918 256.531 65.3522 257.02 65.873C257.508 66.3613 257.752 66.9635 257.752 67.6797V72.5137L256.873 88.627C256.84 89.0827 256.678 89.4408 256.385 89.7012C256.092 89.9616 255.701 90.0918 255.213 90.0918ZM252.283 96.7324C252.283 95.9512 252.576 95.2676 253.162 94.6816C253.748 94.0957 254.432 93.8027 255.213 93.8027C256.027 93.8027 256.727 94.0957 257.312 94.6816C257.898 95.2676 258.191 95.9512 258.191 96.7324C258.191 97.5462 257.898 98.2461 257.312 98.832C256.727 99.418 256.027 99.7109 255.213 99.7109C254.432 99.7109 253.748 99.418 253.162 98.832C252.576 98.2461 252.283 97.5462 252.283 96.7324Z" fill="#EB4132"/>
<path d="M178.162 87.7969C177.609 87.7969 177.137 87.6016 176.746 87.2109C176.355 86.8203 176.16 86.3483 176.16 85.7949C176.16 85.209 176.339 84.7207 176.697 84.3301C177.088 83.9395 177.576 83.7441 178.162 83.7441H187.391C187.944 83.7441 188.416 83.9557 188.807 84.3789C189.23 84.7695 189.441 85.2415 189.441 85.7949C189.441 86.3809 189.246 86.8691 188.855 87.2598C188.465 87.6178 187.977 87.7969 187.391 87.7969H178.162Z" fill="#FBBD01"/>
<path d="M200.574 99.5156C199.728 99.5156 198.995 99.2064 198.377 98.5879C197.758 97.9694 197.449 97.237 197.449 96.3906V67.3867C197.449 66.7682 197.661 66.2311 198.084 65.7754C198.54 65.3197 199.077 65.0918 199.695 65.0918C200.314 65.0918 200.851 65.3197 201.307 65.7754C201.762 66.2311 201.99 66.7682 201.99 67.3867V94.3887C201.99 94.7793 202.186 94.9746 202.576 94.9746H217.908C218.527 94.9746 219.064 95.2025 219.52 95.6582C219.975 96.1139 220.203 96.651 220.203 97.2695C220.203 97.888 219.975 98.4251 219.52 98.8809C219.064 99.304 218.527 99.5156 217.908 99.5156H200.574Z" fill="#31AA52"/>
<path d="M132.921 54.1992C131.619 54.1992 130.968 53.5319 130.968 52.1973C130.968 51.5462 131.587 50.765 132.824 49.8535C135.851 47.5749 138.016 44.6777 139.318 41.1621C140.522 38.0046 141.271 33.1543 141.564 26.6113L141.613 25.293H136.974C136.16 25.293 135.558 25.1465 135.167 24.8535C134.809 24.528 134.63 24.0397 134.63 23.3887C134.63 22.7376 134.809 22.2656 135.167 21.9727C135.558 21.6471 136.16 21.4844 136.974 21.4844H141.759L141.857 17.1387L141.906 15.1367C141.971 12.7279 142.052 11.4095 142.15 11.1816C142.41 10.6934 142.931 10.4492 143.712 10.4492C145.014 10.4492 145.665 11.1979 145.665 12.6953L145.568 21.4844H152.648C155.512 21.4844 156.945 22.7865 156.945 25.3906L156.261 38.1348C156.066 41.4876 155.805 44.2871 155.48 46.5332C155.154 48.7793 154.796 50.3581 154.406 51.2695C154.015 52.181 153.201 52.8809 151.964 53.3691C150.727 53.8574 149.1 54.1016 147.081 54.1016C146.17 54.1016 145.503 53.9225 145.079 53.5645C144.656 53.2064 144.445 52.653 144.445 51.9043C144.445 51.0579 144.689 50.472 145.177 50.1465C145.242 50.0814 145.503 50.0163 145.958 49.9512C146.414 49.8535 147.016 49.7884 147.765 49.7559C148.872 49.6908 149.816 49.528 150.597 49.2676C151.346 48.9746 151.932 45.6217 152.355 39.209L152.941 27.2461C153.006 25.944 152.355 25.293 150.988 25.293H145.421C145.161 31.5755 144.526 36.5397 143.517 40.1855C142.443 43.9941 140.75 47.2819 138.439 50.0488C136.128 52.8158 134.288 54.1992 132.921 54.1992ZM114.367 24.9512C114.367 24.2676 114.513 23.763 114.806 23.4375C115.132 23.112 115.636 22.9492 116.32 22.9492C116.84 22.9492 117.638 23.4375 118.712 24.4141C120.503 20.2148 121.788 16.6341 122.57 13.6719C122.993 12.0443 123.742 11.2305 124.816 11.2305C126.215 11.2305 126.915 11.7839 126.915 12.8906C126.915 14.4531 125.06 18.9779 121.349 26.4648L121.202 26.7578L125.353 31.1035L129.161 22.6562C129.617 21.6146 130.285 21.0938 131.163 21.0938C132.596 21.0938 133.312 21.6797 133.312 22.8516C133.312 23.4375 132.124 26.0579 129.747 30.7129C127.273 35.5306 125.027 39.5345 123.009 42.7246L122.326 43.9453L123.937 43.6523C124.165 43.5872 124.572 43.5221 125.158 43.457C128.413 42.806 130.366 42.3991 131.017 42.2363L129.406 38.4277L129.21 37.6465C129.21 36.6374 129.829 36.1328 131.066 36.1328C131.652 36.1328 132.156 36.4746 132.579 37.1582C133.133 38.1022 134.126 40.0716 135.558 43.0664C136.014 44.0755 136.242 44.7428 136.242 45.0684C136.242 46.2402 135.493 46.8262 133.995 46.8262C133.312 46.8262 132.71 46.2402 132.189 45.0684L126.427 46.582C123.53 47.3307 121.186 47.9004 119.396 48.291C117.638 48.6816 116.564 48.877 116.173 48.877C115.034 48.877 114.464 48.1771 114.464 46.7773C114.464 45.6055 115.262 44.9544 116.857 44.8242L118.273 44.5801H118.322C119.168 43.3105 120.893 40.0716 123.497 34.8633C120.665 31.6081 118.077 28.9714 115.734 26.9531C114.822 26.1393 114.367 25.472 114.367 24.9512ZM186.437 54.7852C185.135 54.7852 184.484 53.9876 184.484 52.3926V43.3594C181.229 46.1589 177.697 48.4701 173.888 50.293C170.112 52.1159 167.557 53.0273 166.222 53.0273C164.952 53.0273 164.318 52.3763 164.318 51.0742C164.318 50.0977 164.985 49.4141 166.32 49.0234C172.732 47.168 178.217 44.401 182.775 40.7227H167.394C165.896 40.7227 165.148 40.1204 165.148 38.916C165.148 37.7116 165.896 37.1094 167.394 37.1094H184.484V34.375H182.482C181.31 34.375 180.464 33.9193 179.943 33.0078C179.78 33.8542 179.227 34.2773 178.283 34.2773C177.469 34.2773 176.883 33.6914 176.525 32.5195L167.638 34.2773L166.71 34.375C166.157 34.4401 165.734 34.3099 165.441 33.9844C165.148 33.6263 165.001 33.138 165.001 32.5195C165.001 31.4128 165.88 30.8105 167.638 30.7129L171.007 25.4883L165.734 21.4844C165.278 21.1589 165.05 20.6706 165.05 20.0195C165.05 18.8151 165.636 18.2129 166.808 18.2129C167.133 18.2129 167.589 18.3919 168.175 18.75C169.217 16.5365 170.063 14.502 170.714 12.6465C171.137 11.5072 171.805 10.9375 172.716 10.9375C173.302 10.9375 173.758 11.084 174.083 11.377C174.409 11.6699 174.572 12.0931 174.572 12.6465C174.572 13.4928 173.27 16.097 170.665 20.459L172.863 22.2656L174.62 18.8965C175.109 17.9525 175.548 17.2689 175.939 16.8457C176.329 16.4225 176.72 16.2109 177.111 16.2109C178.315 16.2109 178.917 16.7969 178.917 17.9688C178.917 18.457 178.396 19.515 177.355 21.1426C177.192 21.403 177.046 21.6309 176.915 21.8262C176.785 22.0215 176.671 22.2005 176.574 22.3633C174.327 26.0091 172.586 28.6784 171.349 30.3711L173.595 30.127L175.695 29.834L175.06 28.0762C174.93 27.6855 174.865 27.4089 174.865 27.2461C174.865 26.3672 175.369 25.9277 176.378 25.9277C177.094 25.9277 177.745 26.6276 178.331 28.0273L178.868 29.2969C179.129 29.8177 179.324 30.306 179.454 30.7617V17.6758C179.454 15.4297 180.464 14.2578 182.482 14.1602H183.556L183.751 12.8418C183.914 11.8978 184.158 11.1979 184.484 10.7422C184.842 10.2539 185.33 10.0098 185.949 10.0098C187.251 10.0098 187.902 10.5632 187.902 11.6699C187.902 12.0605 187.706 12.8906 187.316 14.1602H190.392C191.401 14.1602 192.166 14.4694 192.687 15.0879C193.208 15.7064 193.468 16.6016 193.468 17.7734V18.8965C193.761 18.4408 194.217 18.2129 194.835 18.2129C195.226 18.2129 195.568 18.3105 195.861 18.5059C196.74 16.6178 197.553 14.6647 198.302 12.6465C198.497 12.0931 198.774 11.6699 199.132 11.377C199.49 11.084 199.881 10.9375 200.304 10.9375C200.857 10.9375 201.297 11.084 201.622 11.377C201.948 11.6699 202.111 12.0931 202.111 12.6465C202.111 13.5254 200.857 16.0482 198.351 20.2148L200.89 22.3145L202.599 19.043C203.152 18.0339 203.624 17.3014 204.015 16.8457C204.406 16.39 204.796 16.1621 205.187 16.1621C206.391 16.1621 206.993 16.748 206.993 17.9199C206.993 18.4082 206.082 20.1009 204.259 22.998C202.99 25.0488 202.046 26.5137 201.427 27.3926C200.841 28.2715 200.092 29.2969 199.181 30.4688C199.734 30.3711 200.532 30.2572 201.574 30.127C202.811 29.9967 203.738 29.8828 204.357 29.7852L203.771 28.0762L203.576 27.2949C203.576 26.3509 204.08 25.8789 205.089 25.8789C205.805 25.8789 206.456 26.5951 207.042 28.0273C208.117 30.5339 208.654 32.0801 208.654 32.666C208.654 33.7402 208.1 34.2773 206.993 34.2773C206.18 34.2773 205.594 33.6751 205.236 32.4707C199.474 33.7402 196.072 34.375 195.031 34.375C194.477 34.375 194.054 34.2122 193.761 33.8867C193.468 33.5612 193.322 33.1055 193.322 32.5195C193.322 31.9987 193.517 31.5918 193.908 31.2988C194.331 30.9733 194.9 30.778 195.617 30.7129L199.035 25.4883C198.611 25.0977 198.009 24.6257 197.228 24.0723C196.479 23.5189 195.926 23.0957 195.568 22.8027C195.079 22.5098 194.591 22.168 194.103 21.7773C193.842 21.6146 193.631 21.4193 193.468 21.1914V30.7617C193.468 31.9336 193.208 32.8288 192.687 33.4473C192.166 34.0658 191.401 34.375 190.392 34.375H188.39V37.1094H205.87C207.335 37.1094 208.068 37.7116 208.068 38.916C208.068 40.1204 207.335 40.7227 205.87 40.7227H190.001C193.68 44.1406 198.969 46.696 205.87 48.3887C207.921 48.877 208.947 49.6582 208.947 50.7324C208.947 52.1647 208.263 52.8809 206.896 52.8809C205.919 52.8809 203.641 52.1484 200.06 50.6836C194.949 48.5677 191.059 46.0775 188.39 43.2129V52.3926C188.39 53.9876 187.739 54.7852 186.437 54.7852ZM182.824 29.834C182.824 30.5501 183.214 30.9408 183.995 31.0059H188.829C189.611 31.0059 190.018 30.6152 190.05 29.834V25.6348H182.824V29.834ZM190.05 22.5098V18.6523C190.05 17.9362 189.643 17.5618 188.829 17.5293H183.995C183.279 17.5293 182.889 17.9036 182.824 18.6523V22.5098H190.05ZM221.398 54.248C219.575 54.248 218.257 53.8249 217.443 52.9785C216.629 52.1647 216.222 50.8301 216.222 48.9746V17.334C216.222 15.446 216.629 14.0951 217.443 13.2812C218.257 12.4349 219.575 12.0117 221.398 12.0117H251.964C253.787 12.0117 255.105 12.4349 255.919 13.2812C256.733 14.0951 257.14 15.446 257.14 17.334V48.9746C257.14 50.8301 256.733 52.1647 255.919 52.9785C255.105 53.8249 253.787 54.248 251.964 54.248H221.398ZM220.177 48.2422C220.177 49.8698 221.007 50.6836 222.667 50.6836H250.695C252.355 50.6836 253.185 49.8535 253.185 48.1934V17.9688C253.185 16.3411 252.355 15.5273 250.695 15.5273H222.667C221.007 15.5273 220.177 16.3411 220.177 17.9688V48.2422ZM221.642 43.2129C221.642 42.4967 222.065 42.0085 222.911 41.748C226.883 40.5111 229.845 39.3229 231.798 38.1836H228.234C227.192 38.1836 226.395 37.9069 225.841 37.3535C225.288 36.8001 225.011 36.0189 225.011 35.0098V32.7637C225.011 31.8197 225.255 31.1035 225.743 30.6152C226.264 30.0944 226.997 29.834 227.941 29.834H245.128C246.17 29.834 246.967 30.0944 247.521 30.6152C248.074 31.1361 248.351 31.9173 248.351 32.959V35.0098C248.351 37.1257 247.26 38.1836 245.079 38.1836H236.046C235.428 38.737 234.63 39.3555 233.654 40.0391V45.3613L237.413 44.6777C237.511 44.6452 237.658 44.6289 237.853 44.6289C238.309 44.6289 238.667 44.7591 238.927 45.0195C239.187 45.2799 239.318 45.638 239.318 46.0938C239.318 46.4518 239.187 46.7611 238.927 47.0215C238.699 47.2819 238.374 47.4772 237.951 47.6074C236.388 48.0632 234.63 48.4538 232.677 48.7793C230.724 49.0723 229.52 49.2513 229.064 49.3164C228.738 49.349 228.169 49.4303 227.355 49.5605C227.192 49.5931 226.98 49.6094 226.72 49.6094C225.548 49.6094 224.962 49.056 224.962 47.9492C224.962 47.0703 225.516 46.5658 226.622 46.4355C227.339 46.3379 228.592 46.1589 230.382 45.8984V41.9434C228.429 42.9525 226.346 43.8477 224.132 44.6289C223.839 44.7591 223.53 44.8242 223.204 44.8242C222.716 44.8242 222.326 44.6777 222.033 44.3848C221.772 44.0918 221.642 43.7012 221.642 43.2129ZM221.788 26.5137C221.788 25.5371 222.326 25.0488 223.4 25.0488H234.728V22.4121H225.646C224.572 22.4121 224.035 21.9238 224.035 20.9473C224.035 19.9707 224.572 19.4824 225.646 19.4824H234.728V18.0176C234.728 16.8783 235.363 16.3086 236.632 16.3086C237.251 16.3086 237.723 16.4551 238.048 16.748C238.406 17.041 238.585 17.4642 238.585 18.0176V19.4824H247.716C248.79 19.4824 249.327 19.9707 249.327 20.9473C249.327 21.9238 248.79 22.4121 247.716 22.4121H238.585V25.0488H249.913C251.053 25.0488 251.622 25.5371 251.622 26.5137C251.622 27.5228 251.053 28.0273 249.913 28.0273H223.4C222.326 28.0273 221.788 27.5228 221.788 26.5137ZM228.624 33.9844C228.624 34.8958 228.999 35.3516 229.747 35.3516H243.566C243.924 35.3516 244.201 35.2539 244.396 35.0586C244.591 34.8633 244.689 34.5052 244.689 33.9844C244.689 33.1055 244.314 32.666 243.566 32.666H229.747C228.999 32.666 228.624 33.1055 228.624 33.9844ZM236.632 40.625C236.86 40.1042 237.299 39.8438 237.951 39.8438C238.211 39.8438 238.455 39.8926 238.683 39.9902C239.985 40.4785 241.482 41.1296 243.175 41.9434C244.705 40.9017 245.991 39.9251 247.033 39.0137C247.358 38.7533 247.7 38.623 248.058 38.623C248.579 38.623 248.986 38.8346 249.279 39.2578C249.507 39.5833 249.62 39.9089 249.62 40.2344C249.62 40.7552 249.376 41.1947 248.888 41.5527C248.172 42.0736 247.212 42.6758 246.007 43.3594C246.951 43.8477 248.237 44.6452 249.865 45.752C250.581 46.2728 250.939 46.8262 250.939 47.4121C250.939 47.6725 250.857 47.9655 250.695 48.291C250.369 48.877 249.897 49.1699 249.279 49.1699C248.921 49.1699 248.53 49.0397 248.107 48.7793C244.233 46.2728 240.685 44.222 237.462 42.627C236.811 42.2689 236.486 41.8132 236.486 41.2598C236.486 41.0319 236.535 40.8203 236.632 40.625Z" fill="black" fill-opacity="0.8"/>
<rect x="15" y="94.2065" width="15" height="3.73837" rx="1.86918" fill="#FBBD01"/>
<rect x="15" y="100.936" width="15" height="3.73837" rx="1.86918" fill="#FBBD01"/>
<rect x="11" y="79.771" width="7.14286" height="29.1593" rx="3" fill="#F44336"/>
<rect x="26.231" y="79.771" width="7.61538" height="29.3893" rx="3" fill="#F44336"/>
<rect x="11" y="68.855" width="22.8462" height="21.8321" rx="3" fill="#4086F4"/>
<rect x="80.7144" y="94.2065" width="15" height="3.73837" rx="1.86918" fill="#4086F4"/>
<rect x="80.7144" y="100.936" width="15" height="3.73837" rx="1.86918" fill="#4086F4"/>
<rect x="76.1538" y="81.4504" width="6.76923" height="28.5496" rx="3" fill="#4086F4"/>
<rect x="92.231" y="81.4504" width="6.76923" height="28.5496" rx="3" fill="#4086F4"/>
<rect x="76.1538" y="68.855" width="22.8462" height="21.8321" rx="3" fill="#EB4132"/>
<rect x="43.5713" y="82.9917" width="24.2857" height="6.72906" rx="3" fill="#F44336"/>
<rect x="43.5713" y="94.9543" width="24.2857" height="5.98139" rx="2.9907" fill="#F44336"/>
<rect x="35.5386" y="59.6184" width="12.1429" height="50.0941" rx="3" fill="#31AA52"/>
<rect x="62.6152" y="59.6184" width="11.8462" height="50.3817" rx="3" fill="#FBBD01"/>
<path d="M66.2279 4.02374e-06C67.9155 2.41563e-06 68.8445 1.96139 67.7753 3.26711L67.2025 3.9666C66.599 4.70356 66.599 5.76386 67.2025 6.50082L67.7753 7.20031C68.8445 8.50603 67.9155 10.4674 66.2279 10.4674H56.7363C55.6318 10.4674 54.7363 9.572 54.7363 8.46743V2.00001C54.7363 0.895445 55.6318 1.41205e-05 56.7363 1.3068e-05L66.2279 4.02374e-06Z" fill="#F5A099"/>
<line x1="55.3076" y1="1.49512" x2="55.3076" y2="20.9346" stroke="#EB4132" stroke-width="4"/>
<path d="M64.2058 4.0946e-06C65.8724 2.43099e-06 66.8079 1.91867 65.7816 3.23168L65.1794 4.00204C64.6138 4.72573 64.6138 5.7417 65.1794 6.46539L65.7816 7.23575C66.8079 8.54876 65.8724 10.4674 64.2058 10.4674H55.3076C54.203 10.4674 53.3076 9.572 53.3076 8.46743V2.00001C53.3076 0.895445 54.203 1.40799e-05 55.3076 1.29773e-05L64.2058 4.0946e-06Z" fill="#EB4132"/>
<rect x="35.5386" y="41.145" width="38.9231" height="36.9466" rx="3" fill="#4086F4"/>
<path d="M45 52.3459C45 50.6891 46.3431 49.3459 48 49.3459H62C63.6569 49.3459 65 50.6891 65 52.3459V67.2808C65 68.9377 63.6569 70.2808 62 70.2808H48C46.3431 70.2808 45 68.9377 45 67.2808V52.3459Z" fill="white"/>
<path d="M95.0918 44.8601C96.1941 44.8601 96.718 46.2175 95.9016 46.9581V46.9581C95.3743 47.4364 95.3743 48.2652 95.9016 48.7435V48.7435C96.718 49.4841 96.1941 50.8415 95.0918 50.8415H89.5C88.3954 50.8415 87.5 49.9461 87.5 48.8415V46.8601C87.5 45.7555 88.3954 44.8601 89.5 44.8601L95.0918 44.8601Z" fill="#FDDE80"/>
<line x1="88.2856" y1="47.8511" x2="88.2856" y2="57.5708" stroke="#FBBD01" stroke-width="3"/>
<path d="M93.3205 44.8601C94.6131 44.8601 95.2688 46.4154 94.3663 47.3408V47.3408C94.0897 47.6245 94.0897 48.0771 94.3663 48.3608V48.3608C95.2688 49.2862 94.6131 50.8415 93.3205 50.8415H88.7856C87.6811 50.8415 86.7856 49.9461 86.7856 48.8415V46.8601C86.7856 45.7555 87.6811 44.8601 88.7856 44.8601L93.3205 44.8601Z" fill="#FBBD01"/>
<path d="M86.0446 56.2605C87.1691 55.2942 88.8309 55.2942 89.9554 56.2605L100.914 65.6789C103.025 67.493 101.742 70.9541 98.9591 70.9541H77.0409C74.2577 70.9541 72.9747 67.493 75.0856 65.6789L86.0446 56.2605Z" fill="#31AA52"/>
<path d="M82.1426 77.0195C82.1426 75.3627 83.4857 74.0195 85.1426 74.0195H90.5712C92.228 74.0195 93.5712 75.3627 93.5712 77.0195V82.9823C93.5712 84.6392 92.228 85.9823 90.5712 85.9823H85.1426C83.4857 85.9823 82.1426 84.6392 82.1426 82.9823V77.0195Z" fill="white"/>
<path d="M14.9082 45.6084C13.8059 45.6084 13.282 46.9658 14.0984 47.7064V47.7064C14.6257 48.1847 14.6257 49.0134 14.0984 49.4918V49.4918C13.282 50.2324 13.8059 51.5898 14.9082 51.5898H20.5C21.6046 51.5898 22.5 50.6944 22.5 49.5898V47.6084C22.5 46.5038 21.6046 45.6084 20.5 45.6084L14.9082 45.6084Z" fill="#A0C3FA"/>
<line y1="-1.5" x2="9.71975" y2="-1.5" transform="matrix(0 1 1 0 23.2144 48.5991)" stroke="#4086F4" stroke-width="3"/>
<path d="M16.6795 45.6084C15.3869 45.6084 14.7312 47.1637 15.6337 48.0891V48.0891C15.9103 48.3728 15.9103 48.8254 15.6337 49.1091V49.1091C14.7312 50.0345 15.3869 51.5898 16.6795 51.5898H21.2144C22.3189 51.5898 23.2144 50.6944 23.2144 49.5898V47.6084C23.2144 46.5038 22.3189 45.6084 21.2144 45.6084L16.6795 45.6084Z" fill="#4086F4"/>
<path d="M20.1645 55.5679C21.2965 54.5748 22.9893 54.5748 24.1213 55.5679L35.3287 65.3997C37.4096 67.2253 36.1185 70.6549 33.3503 70.6549H10.9354C8.16723 70.6549 6.87608 67.2253 8.95702 65.3997L20.1645 55.5679Z" fill="#FBBD01"/>
<path d="M16.4287 77.0195C16.4287 75.3627 17.7719 74.0195 19.4287 74.0195H24.8573C26.5141 74.0195 27.8573 75.3627 27.8573 77.0195V82.9823C27.8573 84.6392 26.5141 85.9823 24.8573 85.9823H19.4287C17.7719 85.9823 16.4287 84.6392 16.4287 82.9823V77.0195Z" fill="white"/>
<path d="M53.0732 17.3162C54.188 16.3819 55.8124 16.3819 56.9272 17.3162L81.4624 37.8789C83.6097 39.6785 82.3371 43.1782 79.5354 43.1782H30.465C27.6633 43.1782 26.3907 39.6785 28.538 37.8789L53.0732 17.3162Z" fill="#EB4132"/>
</svg>
