<svg xmlns="http://www.w3.org/2000/svg" xmlns:xlink="http://www.w3.org/1999/xlink" version="1.1" x="0px" y="0px" viewBox="0 0 32 40" enable-background="new 0 0 32 32" xml:space="preserve"><g><path d="M24.8982544,9.0747681C24.961792,8.7254639,25,8.3673706,25,8c0-3.3085938-2.6914063-6-6-6   c-1.7828979,0-3.381897,0.7859497-4.4817505,2.0244141c-3.3406982,0.229187-6.0408325,2.8076782-6.456543,6.0945435   C7.718811,10.0443726,7.3649292,10,7,10c-2.7568359,0-5,2.2431641-5,5v6c0,4.9628906,4.0371094,9,9,9h10   c4.9628906,0,9-4.0371094,9-9v-6C30,11.9974365,27.7811279,9.510498,24.8982544,9.0747681z M21,28H11c-3.859375,0-7-3.140625-7-7   v-6c0-1.6542969,1.3457031-3,3-3s3,1.3457031,3,3c0,0.5527344,0.4472656,1,1,1s1-0.4472656,1-1   c0-1.6289673-0.7948608-3.0646362-2.0043945-3.9780884C9.9957886,11.0141602,10,11.0077515,10,11   c0-2.1351929,1.3519287-3.9482422,3.239624-4.6636353C13.0865479,6.8653564,13,7.4223633,13,8c0,0.5527344,0.4472656,1,1,1   s1-0.4472656,1-1c0-2.2060547,1.7939453-4,4-4s4,1.7939453,4,4s-1.7939453,4-4,4c-0.5527344,0-1,0.4472656-1,1s0.4472656,1,1,1   c2.2077026,0,4.135437-1.2016602,5.1773071-2.9820557C26.2995605,11.1129761,28,12.8546753,28,15c0,2.2060547-1.7939453,4-4,4   c-0.5527344,0-1,0.4472656-1,1s0.4472656,1,1,1c1.5375366,0,2.9371948-0.5861816,4-1.5404663V21C28,24.859375,24.859375,28,21,28z"/></g><text x="0" y="47" fill="#000000" font-size="5px" font-weight="bold" font-family="'Helvetica Neue', Helvetica, Arial-Unicode, Arial, Sans-serif">Created by M. Oki Orlando</text><text x="0" y="52" fill="#000000" font-size="5px" font-weight="bold" font-family="'Helvetica Neue', Helvetica, Arial-Unicode, Arial, Sans-serif">from the Noun Project</text></svg>