<svg width="140" height="120" viewBox="0 0 140 120" fill="none" xmlns="http://www.w3.org/2000/svg">
<rect width="140" height="120" rx="10" fill="#F44336"/>
<path d="M47.5 30.8945C47.1745 30.8945 46.9336 30.8359 46.7773 30.7188C46.6341 30.6016 46.5625 30.4128 46.5625 30.1523C46.5625 29.6706 46.875 29.4297 47.5 29.4297H48.2812C48.763 29.4297 49.0169 29.1758 49.043 28.668V27.5938H42.0117C41.4909 27.5938 41.2305 27.3789 41.2305 26.9492C41.2305 26.5195 41.4909 26.3047 42.0117 26.3047H49.043V25.7578C49.043 25.4583 49.1536 25.2435 49.375 25.1133C49.5833 24.9831 50.1042 24.8203 50.9375 24.625L52.9688 24.0977V24.0586H44.3359C43.8281 24.0586 43.5742 23.8568 43.5742 23.4531C43.5742 23.2448 43.6328 23.0885 43.75 22.9844C43.8672 22.8802 44.0625 22.8281 44.3359 22.8281H54.7852C55.2799 22.8281 55.6576 22.8867 55.918 23.0039C56.1784 23.1081 56.3086 23.2708 56.3086 23.4922C56.3086 23.7005 55.8594 23.9935 54.9609 24.3711C54.0625 24.7487 52.806 25.1654 51.1914 25.6211C50.7747 25.7383 50.5664 25.9271 50.5664 26.1875V26.3047H57.9883C58.5221 26.3047 58.7891 26.5195 58.7891 26.9492C58.7891 27.3789 58.5221 27.5938 57.9883 27.5938H50.5664V28.9805C50.5664 29.6836 50.4167 30.1914 50.1172 30.5039C49.8177 30.8164 49.3424 30.9466 48.6914 30.8945H47.5ZM41.4648 22.1445C41.4648 21.6107 41.569 21.2201 41.7773 20.9727C41.9857 20.7253 42.3242 20.5951 42.793 20.582H43.0664L42.6562 14.9766C42.6432 14.651 42.7148 14.3841 42.8711 14.1758C43.0404 13.9544 43.2943 13.8047 43.6328 13.7266L45.6445 13.3945L46.2695 13.2383C46.3216 13.2253 46.3932 13.2057 46.4844 13.1797C46.5885 13.1536 46.6732 13.1406 46.7383 13.1406C47.1419 13.1406 47.3438 13.3685 47.3438 13.8242C47.3438 14.0326 47.1615 14.2083 46.7969 14.3516C46.4323 14.4818 45.8203 14.599 44.9609 14.7031C44.6745 14.7422 44.4661 14.8138 44.3359 14.918C44.2188 15.0091 44.1667 15.1458 44.1797 15.3281L44.1992 15.875H46.582C47.0638 15.875 47.3047 16.0768 47.3047 16.4805C47.3047 16.8841 47.0638 17.0859 46.582 17.0859H44.2969L44.375 18.1602H46.582C47.0638 18.1602 47.3047 18.3685 47.3047 18.7852C47.3047 19.1888 47.0638 19.3906 46.582 19.3906H44.4531L44.5312 20.582H55.5469L55.625 19.3906H53.2812C52.8385 19.3906 52.6172 19.1888 52.6172 18.7852C52.6172 18.3685 52.8385 18.1602 53.2812 18.1602H55.7227L55.7617 17.0859H53.2812C53.0469 17.0859 52.8776 17.0404 52.7734 16.9492C52.6693 16.8451 52.6172 16.6888 52.6172 16.4805C52.6172 16.0768 52.8385 15.875 53.2812 15.875H55.8984V15.4648C55.8984 15.2435 55.8594 15.0938 55.7812 15.0156C55.7031 14.9245 55.5599 14.8789 55.3516 14.8789H53.1055C52.6888 14.8789 52.4805 14.6901 52.4805 14.3125C52.4805 14.1042 52.526 13.9544 52.6172 13.8633C52.7214 13.7591 52.8841 13.707 53.1055 13.707H55.8789C56.8945 13.707 57.4023 14.0977 57.4023 14.8789L56.9922 20.582H57.207C58.1576 20.582 58.5938 21.1029 58.5156 22.1445V23.7266C58.5156 24.3385 58.2552 24.6445 57.7344 24.6445C57.474 24.6445 57.2786 24.5729 57.1484 24.4297C57.0182 24.2865 56.9531 24.0521 56.9531 23.7266V22.5156C56.9531 22.112 56.7383 21.8971 56.3086 21.8711H43.7109C43.2943 21.8711 43.0729 22.0859 43.0469 22.5156V23.668C43.0469 24.2799 42.7865 24.5859 42.2656 24.5859C41.7318 24.5859 41.4648 24.2734 41.4648 23.6484V22.1445ZM47.5391 16.2266C47.5391 16.0052 47.9232 15.6667 48.6914 15.2109L49.1211 14.9766C48.3008 14.4036 47.8906 14.0326 47.8906 13.8633C47.8906 13.707 47.9362 13.5833 48.0273 13.4922C48.1315 13.401 48.2747 13.3555 48.457 13.3555C48.6133 13.3555 49.1341 13.6615 50.0195 14.2734L50.5859 13.6875C50.8594 13.388 51.1068 13.2383 51.3281 13.2383C51.5234 13.2383 51.6667 13.2839 51.7578 13.375C51.862 13.4661 51.9141 13.5898 51.9141 13.7461C51.9141 13.9674 51.5885 14.3646 50.9375 14.9375L51.1523 15.0547C51.6992 15.4453 51.9727 15.7708 51.9727 16.0312C51.9727 16.2266 51.9206 16.3763 51.8164 16.4805C51.7122 16.5846 51.569 16.6367 51.3867 16.6367C51.2044 16.6367 50.9831 16.513 50.7227 16.2656L50.0391 15.6211C49.0495 16.4023 48.4049 16.793 48.1055 16.793C47.7279 16.793 47.5391 16.6042 47.5391 16.2266ZM47.5977 19.8594C47.5977 19.638 48.0078 19.2995 48.8281 18.8438L49.2188 18.6094L49.0039 18.4727C48.3398 18.043 48.0078 17.737 48.0078 17.5547C48.0078 17.2161 48.1966 17.0469 48.5742 17.0469C48.6914 17.0469 48.9062 17.1445 49.2188 17.3398L49.8242 17.6914L50.1367 17.9062L50.6641 17.3984C50.9766 17.112 51.2109 16.9688 51.3672 16.9688C51.7708 16.9688 51.9727 17.1445 51.9727 17.4961C51.9727 17.7305 51.6732 18.082 51.0742 18.5508C51.8424 19.0716 52.2266 19.4622 52.2266 19.7227C52.2266 20.1263 52.0312 20.3281 51.6406 20.3281C51.4844 20.3281 51.263 20.2044 50.9766 19.957L50.1367 19.2539C49.668 19.6185 49.2578 19.9049 48.9062 20.1133C48.5547 20.3086 48.3073 20.4062 48.1641 20.4062C47.7865 20.4062 47.5977 20.224 47.5977 19.8594ZM65 30.3477C64.3099 30.3477 63.8086 30.1979 63.4961 29.8984C63.1836 29.599 63.0534 29.1237 63.1055 28.4727V24.4688C63.1055 23.8177 63.2552 23.3424 63.5547 23.043C63.8542 22.7305 64.3359 22.5872 65 22.6133H68.457L68.8867 21.6562C69.069 21.2786 69.3685 21.0898 69.7852 21.0898C70.293 21.0898 70.5469 21.2982 70.5469 21.7148C70.5469 21.832 70.3971 22.1315 70.0977 22.6133H75.1562C75.8333 22.6133 76.3281 22.763 76.6406 23.0625C76.9661 23.362 77.1029 23.8307 77.0508 24.4688V28.4727C77.0508 29.1628 76.901 29.6576 76.6016 29.957C76.3021 30.2695 75.8203 30.3997 75.1562 30.3477H65ZM61.25 14.4297C61.25 13.987 61.5299 13.7656 62.0898 13.7656H67.5C68.112 13.7656 68.5547 13.8958 68.8281 14.1562C69.1016 14.4167 69.2188 14.8398 69.1797 15.4258V20.2305C69.1797 20.5039 69.1081 20.7188 68.9648 20.875C68.8216 21.0312 68.6263 21.1094 68.3789 21.1094C68.1315 21.1094 67.9427 21.0378 67.8125 20.8945C67.6823 20.7383 67.6172 20.5169 67.6172 20.2305V15.9531C67.6172 15.3932 67.3438 15.1133 66.7969 15.1133H62.0898C61.5299 15.1133 61.25 14.8854 61.25 14.4297ZM61.4258 21.1875C61.3737 21.0312 61.3477 20.9206 61.3477 20.8555C61.3477 20.556 61.5234 20.3411 61.875 20.2109C63.4896 19.625 64.8047 19.0977 65.8203 18.6289C65.9896 18.5638 66.1263 18.5312 66.2305 18.5312C66.5169 18.5312 66.7122 18.6745 66.8164 18.9609C66.8555 19.0521 66.875 19.1432 66.875 19.2344C66.875 19.5078 66.6927 19.7227 66.3281 19.8789C65.0521 20.4779 63.763 21.0378 62.4609 21.5586C62.3438 21.6107 62.2135 21.6367 62.0703 21.6367C61.7578 21.6367 61.543 21.487 61.4258 21.1875ZM62.3828 16.0898C62.487 15.8555 62.6823 15.7383 62.9688 15.7383C63.112 15.7383 63.2943 15.7839 63.5156 15.875C64.1406 16.1615 64.6289 16.4349 64.9805 16.6953C65.306 16.9427 65.4688 17.1901 65.4688 17.4375C65.4688 17.5417 65.4427 17.6458 65.3906 17.75C65.2474 18.0104 65.0456 18.1406 64.7852 18.1406C64.6159 18.1406 64.4401 18.082 64.2578 17.9648C63.7891 17.6654 63.3138 17.3984 62.832 17.1641C62.4674 16.9818 62.2852 16.7474 62.2852 16.4609C62.2852 16.3698 62.3177 16.2461 62.3828 16.0898ZM64.6094 28.2383C64.6094 28.694 64.8568 28.9349 65.3516 28.9609H74.8047C75.2734 28.9609 75.5208 28.7201 75.5469 28.2383V27.1055H64.6094V28.2383ZM75.5469 25.7773V24.7227C75.5469 24.4883 75.4818 24.3125 75.3516 24.1953C75.2214 24.0651 75.0391 23.9935 74.8047 23.9805H65.3516C65.1172 23.9805 64.9349 24.0456 64.8047 24.1758C64.6875 24.306 64.6224 24.4883 64.6094 24.7227V25.7773H75.5469ZM69.7656 14.4297C69.7656 13.987 70.0456 13.7656 70.6055 13.7656H76.4062C77.0052 13.7656 77.4414 13.9023 77.7148 14.1758C77.9883 14.4362 78.1055 14.8529 78.0664 15.4258V21.0898C78.0664 21.3763 77.9948 21.5977 77.8516 21.7539C77.7214 21.8971 77.5326 21.9688 77.2852 21.9688C77.0247 21.9688 76.8229 21.8971 76.6797 21.7539C76.5365 21.5977 76.4648 21.3763 76.4648 21.0898V15.9531C76.4648 15.6667 76.3932 15.4583 76.25 15.3281C76.1198 15.1849 75.9115 15.1133 75.625 15.1133H70.6055C70.0456 15.1133 69.7656 14.8854 69.7656 14.4297ZM70.6836 21.0703C70.6185 20.9141 70.5859 20.7904 70.5859 20.6992C70.5859 20.4258 70.7487 20.2174 71.0742 20.0742C72.5586 19.4492 73.737 18.9219 74.6094 18.4922C74.7656 18.4141 74.9154 18.375 75.0586 18.375C75.319 18.375 75.5078 18.5052 75.625 18.7656C75.6771 18.8698 75.7031 18.974 75.7031 19.0781C75.7031 19.3255 75.5339 19.5404 75.1953 19.7227C73.724 20.4648 72.5651 21.0182 71.7188 21.3828C71.5495 21.4479 71.4062 21.4805 71.2891 21.4805C71.0156 21.4805 70.8138 21.3438 70.6836 21.0703ZM71.1914 16.1484C71.3086 15.901 71.5039 15.7773 71.7773 15.7773C71.9206 15.7773 72.1029 15.8229 72.3242 15.9141C72.8841 16.1615 73.3789 16.4219 73.8086 16.6953C74.1471 16.9297 74.3164 17.1706 74.3164 17.418C74.3164 17.5091 74.2839 17.6198 74.2188 17.75C74.0755 18.0104 73.8672 18.1406 73.5938 18.1406C73.4375 18.1406 73.2682 18.0885 73.0859 17.9844C72.6953 17.737 72.2135 17.4831 71.6406 17.2227C71.276 17.0404 71.0938 16.806 71.0938 16.5195C71.0938 16.4284 71.1263 16.3047 71.1914 16.1484ZM83.9258 30.1523C83.2487 30.1523 82.7539 30.0026 82.4414 29.7031C82.1419 29.4036 82.0117 28.9284 82.0508 28.2773V15.7188C82.0508 15.0547 82.2005 14.5729 82.5 14.2734C82.7995 13.9609 83.2747 13.8242 83.9258 13.8633H97.6367C98.2357 13.8633 98.5352 14.1107 98.5352 14.6055C98.5352 15.0872 98.2357 15.3281 97.6367 15.3281H84.4727C84.0039 15.3281 83.7565 15.582 83.7305 16.0898V27.9258C83.7305 28.4076 83.9779 28.6615 84.4727 28.6875H98.0078C98.6198 28.6875 98.9258 28.9349 98.9258 29.4297C98.9258 29.9115 98.6198 30.1523 98.0078 30.1523H83.9258ZM84.7266 23.9023C84.7266 22.9128 85.2279 22.418 86.2305 22.418H89.2773C90.2669 22.418 90.7617 22.9128 90.7617 23.9023V26.1484C90.7617 27.138 90.2669 27.6328 89.2773 27.6328H86.2305C85.2279 27.6328 84.7266 27.138 84.7266 26.1484V23.9023ZM86.1328 25.7578C86.1328 26.1224 86.3151 26.3112 86.6797 26.3242H88.8281C89.1667 26.3242 89.349 26.1354 89.375 25.7578V24.293C89.375 23.9544 89.1927 23.7721 88.8281 23.7461H86.6797C86.3281 23.7461 86.1458 23.9284 86.1328 24.293V25.7578ZM86.1523 18.0039C86.1523 17.444 86.2695 17.0404 86.5039 16.793C86.7513 16.5456 87.1419 16.4349 87.6758 16.4609H94.6289C95.1888 16.4609 95.5924 16.5846 95.8398 16.832C96.0872 17.0794 96.1979 17.4766 96.1719 18.0234V19.8398C96.1719 20.3997 96.0482 20.8034 95.8008 21.0508C95.5534 21.2982 95.1628 21.4089 94.6289 21.3828H87.6758C87.1289 21.3828 86.7318 21.2656 86.4844 21.0312C86.237 20.7839 86.1263 20.3932 86.1523 19.8594V18.0039ZM87.6367 19.4883C87.6367 19.8398 87.8255 20.0286 88.2031 20.0547H94.043C94.4076 20.0547 94.6029 19.8594 94.6289 19.4688V18.375C94.6289 18.0104 94.4336 17.8151 94.043 17.7891H88.2031C87.8516 17.7891 87.6628 17.9779 87.6367 18.3555V19.4883ZM91.6406 23.9023C91.6406 22.9128 92.1354 22.418 93.125 22.418H96.3672C97.3438 22.418 97.832 22.9193 97.832 23.9219V26.1289C97.832 27.1315 97.3438 27.6328 96.3672 27.6328H93.125C92.1354 27.6328 91.6406 27.138 91.6406 26.1484V23.9023ZM93.0469 25.7578C93.0469 26.1094 93.2292 26.2982 93.5938 26.3242H95.8594C96.224 26.3242 96.4062 26.1354 96.4062 25.7578V24.293C96.4062 24.1107 96.3607 23.9805 96.2695 23.9023C96.1784 23.8112 96.0417 23.7591 95.8594 23.7461H93.5938C93.2292 23.7461 93.0469 23.9284 93.0469 24.293V25.7578Z" fill="white"/>
<circle cx="70" cy="74" r="25.2" fill="white"/>
<circle cx="70" cy="74" r="31.5" stroke="white" stroke-width="3"/>
<path d="M58.7808 72.1125L58.7822 72.1149L60.7589 75.537C60.7592 75.5375 60.7594 75.538 60.7597 75.5385C60.8833 75.7531 61.0262 75.9493 61.185 76.1263H57.6704C55.7479 76.1263 54.1924 77.6819 54.1924 79.6044V83.5604C54.1924 85.4829 55.7479 87.0384 57.6704 87.0384H61.6264C62.8827 87.0384 63.9822 86.3743 64.5935 85.3775C65.2047 86.3743 66.3043 87.0384 67.5605 87.0384H71.5166C72.7728 87.0384 73.8724 86.3743 74.4836 85.3775C75.0948 86.3743 76.1944 87.0384 77.4506 87.0384H81.4067C83.3292 87.0384 84.8847 85.4829 84.8847 83.5604V79.6044C84.8847 77.6819 83.3292 76.1263 81.4067 76.1263H79.9145C80.5414 75.4975 80.9286 74.6296 80.9286 73.6703V69.7143C80.9286 67.7917 79.3731 66.2362 77.4506 66.2362H75.9584C76.5853 65.6074 76.9726 64.7395 76.9726 63.7802V59.8242C76.9726 57.9016 75.4171 56.3461 73.4946 56.3461H69.5385C67.616 56.3461 66.0605 57.9016 66.0605 59.8242V63.7802C66.0605 64.2473 66.1524 64.6928 66.319 65.0996C65.4072 64.7966 64.3752 64.8708 63.4809 65.3851L63.4785 65.3865L60.0565 67.3632C60.0559 67.3635 60.0553 67.3638 60.0547 67.3642C58.386 68.3252 57.8278 70.4555 58.7808 72.1125ZM64.5935 77.7873C64.476 77.5958 64.3406 77.4165 64.1894 77.2519C64.6101 77.2013 65.0275 77.0728 65.4204 76.8615C65.0925 77.1176 64.8118 77.4312 64.5935 77.7873ZM67.5605 76.1263C67.1032 76.1263 66.6667 76.2143 66.267 76.3744L68.9327 74.8346C68.9333 74.8342 68.9339 74.8339 68.9345 74.8336C69.3775 74.5784 69.7422 74.2409 70.0212 73.8516C70.0666 74.7387 70.4436 75.5373 71.0307 76.1263H67.5605ZM70.0166 69.7143V69.7532L68.481 67.0949C68.8144 67.201 69.1697 67.2582 69.5385 67.2582H71.0307C70.4038 67.8871 70.0166 68.755 70.0166 69.7143ZM74.4836 77.7873C74.341 77.5548 74.1719 77.3404 73.9804 77.1483H74.9868C74.7953 77.3404 74.6262 77.5548 74.4836 77.7873Z" fill="white" stroke="#F44336" stroke-width="3"/>
<path d="M76.8396 78.993H78.8535V81.0069H76.8396V78.993Z" fill="#F44336"/>
<path d="M79.8604 79.9622C79.8604 79.427 80.3112 78.993 80.8674 78.993C81.4234 78.993 81.8743 79.427 81.8743 79.9622V82.014H79.8604V79.9622Z" fill="#4CAF50"/>
<path d="M77.8466 84.028C78.4027 84.028 78.8536 83.5772 78.8536 83.021C78.8536 82.4649 78.4027 82.014 77.8466 82.014C77.2904 82.014 76.8396 82.4649 76.8396 83.021C76.8396 83.5772 77.2904 84.028 77.8466 84.028Z" fill="#FFC107"/>
<path d="M80.8672 82.5173L81.7392 84.0277H79.9951L80.8672 82.5173Z" fill="#1E88E5"/>
</svg>
