<svg width="160" height="80" viewBox="0 0 160 80" fill="none" xmlns="http://www.w3.org/2000/svg">
<rect width="160" height="80" rx="10" fill="#F44336"/>
<path d="M29 46.5156C28.7396 46.5156 28.5469 46.4688 28.4219 46.375C28.3073 46.2812 28.25 46.1302 28.25 45.9219C28.25 45.5365 28.5 45.3438 29 45.3438H29.625C30.0104 45.3438 30.2135 45.1406 30.2344 44.7344V43.875H24.6094C24.1927 43.875 23.9844 43.7031 23.9844 43.3594C23.9844 43.0156 24.1927 42.8438 24.6094 42.8438H30.2344V42.4062C30.2344 42.1667 30.3229 41.9948 30.5 41.8906C30.6667 41.7865 31.0833 41.6562 31.75 41.5L33.375 41.0781V41.0469H26.4688C26.0625 41.0469 25.8594 40.8854 25.8594 40.5625C25.8594 40.3958 25.9062 40.2708 26 40.1875C26.0938 40.1042 26.25 40.0625 26.4688 40.0625H34.8281C35.224 40.0625 35.526 40.1094 35.7344 40.2031C35.9427 40.2865 36.0469 40.4167 36.0469 40.5938C36.0469 40.7604 35.6875 40.9948 34.9688 41.2969C34.25 41.599 33.2448 41.9323 31.9531 42.2969C31.6198 42.3906 31.4531 42.5417 31.4531 42.75V42.8438H37.3906C37.8177 42.8438 38.0312 43.0156 38.0312 43.3594C38.0312 43.7031 37.8177 43.875 37.3906 43.875H31.4531V44.9844C31.4531 45.5469 31.3333 45.9531 31.0938 46.2031C30.8542 46.4531 30.474 46.5573 29.9531 46.5156H29ZM24.1719 39.5156C24.1719 39.0885 24.2552 38.776 24.4219 38.5781C24.5885 38.3802 24.8594 38.276 25.2344 38.2656H25.4531L25.125 33.7812C25.1146 33.5208 25.1719 33.3073 25.2969 33.1406C25.4323 32.9635 25.6354 32.8438 25.9062 32.7812L27.5156 32.5156L28.0156 32.3906C28.0573 32.3802 28.1146 32.3646 28.1875 32.3438C28.2708 32.3229 28.3385 32.3125 28.3906 32.3125C28.7135 32.3125 28.875 32.4948 28.875 32.8594C28.875 33.026 28.7292 33.1667 28.4375 33.2812C28.1458 33.3854 27.6562 33.4792 26.9688 33.5625C26.7396 33.5938 26.5729 33.651 26.4688 33.7344C26.375 33.8073 26.3333 33.9167 26.3438 34.0625L26.3594 34.5H28.2656C28.651 34.5 28.8438 34.6615 28.8438 34.9844C28.8438 35.3073 28.651 35.4688 28.2656 35.4688H26.4375L26.5 36.3281H28.2656C28.651 36.3281 28.8438 36.4948 28.8438 36.8281C28.8438 37.151 28.651 37.3125 28.2656 37.3125H26.5625L26.625 38.2656H35.4375L35.5 37.3125H33.625C33.2708 37.3125 33.0938 37.151 33.0938 36.8281C33.0938 36.4948 33.2708 36.3281 33.625 36.3281H35.5781L35.6094 35.4688H33.625C33.4375 35.4688 33.3021 35.4323 33.2188 35.3594C33.1354 35.276 33.0938 35.151 33.0938 34.9844C33.0938 34.6615 33.2708 34.5 33.625 34.5H35.7188V34.1719C35.7188 33.9948 35.6875 33.875 35.625 33.8125C35.5625 33.7396 35.4479 33.7031 35.2812 33.7031H33.4844C33.151 33.7031 32.9844 33.5521 32.9844 33.25C32.9844 33.0833 33.0208 32.9635 33.0938 32.8906C33.1771 32.8073 33.3073 32.7656 33.4844 32.7656H35.7031C36.5156 32.7656 36.9219 33.0781 36.9219 33.7031L36.5938 38.2656H36.7656C37.526 38.2656 37.875 38.6823 37.8125 39.5156V40.7812C37.8125 41.2708 37.6042 41.5156 37.1875 41.5156C36.9792 41.5156 36.8229 41.4583 36.7188 41.3438C36.6146 41.2292 36.5625 41.0417 36.5625 40.7812V39.8125C36.5625 39.4896 36.3906 39.3177 36.0469 39.2969H25.9688C25.6354 39.2969 25.4583 39.4688 25.4375 39.8125V40.7344C25.4375 41.224 25.2292 41.4688 24.8125 41.4688C24.3854 41.4688 24.1719 41.2188 24.1719 40.7188V39.5156ZM29.0312 34.7812C29.0312 34.6042 29.3385 34.3333 29.9531 33.9688L30.2969 33.7812C29.6406 33.3229 29.3125 33.026 29.3125 32.8906C29.3125 32.7656 29.349 32.6667 29.4219 32.5938C29.5052 32.5208 29.6198 32.4844 29.7656 32.4844C29.8906 32.4844 30.3073 32.7292 31.0156 33.2188L31.4688 32.75C31.6875 32.5104 31.8854 32.3906 32.0625 32.3906C32.2188 32.3906 32.3333 32.4271 32.4062 32.5C32.4896 32.5729 32.5312 32.6719 32.5312 32.7969C32.5312 32.974 32.2708 33.2917 31.75 33.75L31.9219 33.8438C32.3594 34.1562 32.5781 34.4167 32.5781 34.625C32.5781 34.7812 32.5365 34.901 32.4531 34.9844C32.3698 35.0677 32.2552 35.1094 32.1094 35.1094C31.9635 35.1094 31.7865 35.0104 31.5781 34.8125L31.0312 34.2969C30.2396 34.9219 29.724 35.2344 29.4844 35.2344C29.1823 35.2344 29.0312 35.0833 29.0312 34.7812ZM29.0781 37.6875C29.0781 37.5104 29.4062 37.2396 30.0625 36.875L30.375 36.6875L30.2031 36.5781C29.6719 36.2344 29.4062 35.9896 29.4062 35.8438C29.4062 35.5729 29.5573 35.4375 29.8594 35.4375C29.9531 35.4375 30.125 35.5156 30.375 35.6719L30.8594 35.9531L31.1094 36.125L31.5312 35.7188C31.7812 35.4896 31.9688 35.375 32.0938 35.375C32.4167 35.375 32.5781 35.5156 32.5781 35.7969C32.5781 35.9844 32.3385 36.2656 31.8594 36.6406C32.474 37.0573 32.7812 37.3698 32.7812 37.5781C32.7812 37.901 32.625 38.0625 32.3125 38.0625C32.1875 38.0625 32.0104 37.9635 31.7812 37.7656L31.1094 37.2031C30.7344 37.4948 30.4062 37.724 30.125 37.8906C29.8438 38.0469 29.6458 38.125 29.5312 38.125C29.2292 38.125 29.0781 37.9792 29.0781 37.6875ZM43 46.0781C42.4479 46.0781 42.0469 45.9583 41.7969 45.7188C41.5469 45.4792 41.4427 45.099 41.4844 44.5781V41.375C41.4844 40.8542 41.6042 40.474 41.8438 40.2344C42.0833 39.9844 42.4688 39.8698 43 39.8906H45.7656L46.1094 39.125C46.2552 38.8229 46.4948 38.6719 46.8281 38.6719C47.2344 38.6719 47.4375 38.8385 47.4375 39.1719C47.4375 39.2656 47.3177 39.5052 47.0781 39.8906H51.125C51.6667 39.8906 52.0625 40.0104 52.3125 40.25C52.5729 40.4896 52.6823 40.8646 52.6406 41.375V44.5781C52.6406 45.1302 52.5208 45.526 52.2812 45.7656C52.0417 46.0156 51.6562 46.1198 51.125 46.0781H43ZM40 33.3438C40 32.9896 40.224 32.8125 40.6719 32.8125H45C45.4896 32.8125 45.8438 32.9167 46.0625 33.125C46.2812 33.3333 46.375 33.6719 46.3438 34.1406V37.9844C46.3438 38.2031 46.2865 38.375 46.1719 38.5C46.0573 38.625 45.901 38.6875 45.7031 38.6875C45.5052 38.6875 45.3542 38.6302 45.25 38.5156C45.1458 38.3906 45.0938 38.2135 45.0938 37.9844V34.5625C45.0938 34.1146 44.875 33.8906 44.4375 33.8906H40.6719C40.224 33.8906 40 33.7083 40 33.3438ZM40.1406 38.75C40.099 38.625 40.0781 38.5365 40.0781 38.4844C40.0781 38.2448 40.2188 38.0729 40.5 37.9688C41.7917 37.5 42.8438 37.0781 43.6562 36.7031C43.7917 36.651 43.901 36.625 43.9844 36.625C44.2135 36.625 44.3698 36.7396 44.4531 36.9688C44.4844 37.0417 44.5 37.1146 44.5 37.1875C44.5 37.4062 44.3542 37.5781 44.0625 37.7031C43.0417 38.1823 42.0104 38.6302 40.9688 39.0469C40.875 39.0885 40.7708 39.1094 40.6562 39.1094C40.4062 39.1094 40.2344 38.9896 40.1406 38.75ZM40.9062 34.6719C40.9896 34.4844 41.1458 34.3906 41.375 34.3906C41.4896 34.3906 41.6354 34.4271 41.8125 34.5C42.3125 34.7292 42.7031 34.9479 42.9844 35.1562C43.2448 35.3542 43.375 35.5521 43.375 35.75C43.375 35.8333 43.3542 35.9167 43.3125 36C43.1979 36.2083 43.0365 36.3125 42.8281 36.3125C42.6927 36.3125 42.5521 36.2656 42.4062 36.1719C42.0312 35.9323 41.651 35.7188 41.2656 35.5312C40.974 35.3854 40.8281 35.1979 40.8281 34.9688C40.8281 34.8958 40.8542 34.7969 40.9062 34.6719ZM42.6875 44.3906C42.6875 44.7552 42.8854 44.9479 43.2812 44.9688H50.8438C51.2188 44.9688 51.4167 44.776 51.4375 44.3906V43.4844H42.6875V44.3906ZM51.4375 42.4219V41.5781C51.4375 41.3906 51.3854 41.25 51.2812 41.1562C51.1771 41.0521 51.0312 40.9948 50.8438 40.9844H43.2812C43.0938 40.9844 42.9479 41.0365 42.8438 41.1406C42.75 41.2448 42.6979 41.3906 42.6875 41.5781V42.4219H51.4375ZM46.8125 33.3438C46.8125 32.9896 47.0365 32.8125 47.4844 32.8125H52.125C52.6042 32.8125 52.9531 32.9219 53.1719 33.1406C53.3906 33.349 53.4844 33.6823 53.4531 34.1406V38.6719C53.4531 38.901 53.3958 39.0781 53.2812 39.2031C53.1771 39.3177 53.026 39.375 52.8281 39.375C52.6198 39.375 52.4583 39.3177 52.3438 39.2031C52.2292 39.0781 52.1719 38.901 52.1719 38.6719V34.5625C52.1719 34.3333 52.1146 34.1667 52 34.0625C51.8958 33.9479 51.7292 33.8906 51.5 33.8906H47.4844C47.0365 33.8906 46.8125 33.7083 46.8125 33.3438ZM47.5469 38.6562C47.4948 38.5312 47.4688 38.4323 47.4688 38.3594C47.4688 38.1406 47.599 37.974 47.8594 37.8594C49.0469 37.3594 49.9896 36.9375 50.6875 36.5938C50.8125 36.5312 50.9323 36.5 51.0469 36.5C51.2552 36.5 51.4062 36.6042 51.5 36.8125C51.5417 36.8958 51.5625 36.9792 51.5625 37.0625C51.5625 37.2604 51.4271 37.4323 51.1562 37.5781C49.9792 38.1719 49.0521 38.6146 48.375 38.9062C48.2396 38.9583 48.125 38.9844 48.0312 38.9844C47.8125 38.9844 47.651 38.875 47.5469 38.6562ZM47.9531 34.7188C48.0469 34.5208 48.2031 34.4219 48.4219 34.4219C48.5365 34.4219 48.6823 34.4583 48.8594 34.5312C49.3073 34.7292 49.7031 34.9375 50.0469 35.1562C50.3177 35.3438 50.4531 35.5365 50.4531 35.7344C50.4531 35.8073 50.4271 35.8958 50.375 36C50.2604 36.2083 50.0938 36.3125 49.875 36.3125C49.75 36.3125 49.6146 36.2708 49.4688 36.1875C49.1562 35.9896 48.7708 35.7865 48.3125 35.5781C48.0208 35.4323 47.875 35.2448 47.875 35.0156C47.875 34.9427 47.901 34.8438 47.9531 34.7188ZM58.1406 45.9219C57.599 45.9219 57.2031 45.8021 56.9531 45.5625C56.7135 45.3229 56.6094 44.9427 56.6406 44.4219V34.375C56.6406 33.8438 56.7604 33.4583 57 33.2188C57.2396 32.9688 57.6198 32.8594 58.1406 32.8906H69.1094C69.5885 32.8906 69.8281 33.0885 69.8281 33.4844C69.8281 33.8698 69.5885 34.0625 69.1094 34.0625H58.5781C58.2031 34.0625 58.0052 34.2656 57.9844 34.6719V44.1406C57.9844 44.526 58.1823 44.7292 58.5781 44.75H69.4062C69.8958 44.75 70.1406 44.9479 70.1406 45.3438C70.1406 45.7292 69.8958 45.9219 69.4062 45.9219H58.1406ZM58.7812 40.9219C58.7812 40.1302 59.1823 39.7344 59.9844 39.7344H62.4219C63.2135 39.7344 63.6094 40.1302 63.6094 40.9219V42.7188C63.6094 43.5104 63.2135 43.9062 62.4219 43.9062H59.9844C59.1823 43.9062 58.7812 43.5104 58.7812 42.7188V40.9219ZM59.9062 42.4062C59.9062 42.6979 60.0521 42.849 60.3438 42.8594H62.0625C62.3333 42.8594 62.4792 42.7083 62.5 42.4062V41.2344C62.5 40.9635 62.3542 40.8177 62.0625 40.7969H60.3438C60.0625 40.7969 59.9167 40.9427 59.9062 41.2344V42.4062ZM59.9219 36.2031C59.9219 35.7552 60.0156 35.4323 60.2031 35.2344C60.401 35.0365 60.7135 34.9479 61.1406 34.9688H66.7031C67.151 34.9688 67.474 35.0677 67.6719 35.2656C67.8698 35.4635 67.9583 35.7812 67.9375 36.2188V37.6719C67.9375 38.1198 67.8385 38.4427 67.6406 38.6406C67.4427 38.8385 67.1302 38.9271 66.7031 38.9062H61.1406C60.7031 38.9062 60.3854 38.8125 60.1875 38.625C59.9896 38.4271 59.901 38.1146 59.9219 37.6875V36.2031ZM61.1094 37.3906C61.1094 37.6719 61.2604 37.8229 61.5625 37.8438H66.2344C66.526 37.8438 66.6823 37.6875 66.7031 37.375V36.5C66.7031 36.2083 66.5469 36.0521 66.2344 36.0312H61.5625C61.2812 36.0312 61.1302 36.1823 61.1094 36.4844V37.3906ZM64.3125 40.9219C64.3125 40.1302 64.7083 39.7344 65.5 39.7344H68.0938C68.875 39.7344 69.2656 40.1354 69.2656 40.9375V42.7031C69.2656 43.5052 68.875 43.9062 68.0938 43.9062H65.5C64.7083 43.9062 64.3125 43.5104 64.3125 42.7188V40.9219ZM65.4375 42.4062C65.4375 42.6875 65.5833 42.8385 65.875 42.8594H67.6875C67.9792 42.8594 68.125 42.7083 68.125 42.4062V41.2344C68.125 41.0885 68.0885 40.9844 68.0156 40.9219C67.9427 40.849 67.8333 40.8073 67.6875 40.7969H65.875C65.5833 40.7969 65.4375 40.9427 65.4375 41.2344V42.4062Z" fill="white"/>
<circle cx="121" cy="40" r="21" fill="white"/>
<circle cx="121" cy="40" r="26.5" stroke="white" stroke-width="3"/>
<path d="M111.434 38.5519L111.435 38.5543L113.082 41.4056C113.083 41.4062 113.083 41.4068 113.083 41.4074C113.106 41.4463 113.129 41.4845 113.153 41.5221H110.725C108.985 41.5221 107.577 42.9303 107.577 44.6704V47.9671C107.577 49.7073 108.985 51.1155 110.725 51.1155H114.022C115.025 51.1155 115.918 50.6474 116.494 49.9175C117.071 50.6474 117.964 51.1155 118.967 51.1155H122.264C123.267 51.1155 124.16 50.6474 124.736 49.9175C125.313 50.6474 126.205 51.1155 127.209 51.1155H130.505C132.246 51.1155 133.654 49.7073 133.654 47.9671V44.6704C133.654 42.9303 132.246 41.5221 130.505 41.5221H129.795C130.15 41.0127 130.357 40.3935 130.357 39.7254V36.4287C130.357 34.6885 128.949 33.2803 127.209 33.2803H126.499C126.853 32.771 127.06 32.1518 127.06 31.4836V28.1869C127.06 26.4468 125.652 25.0386 123.912 25.0386H120.615C118.875 25.0386 117.467 26.4468 117.467 28.1869V31.4836C117.467 31.7413 117.498 31.9917 117.556 32.2313C116.854 32.1088 116.106 32.2228 115.443 32.6044L115.44 32.6058L112.589 34.2527C112.589 34.253 112.588 34.2533 112.588 34.2536C111.076 35.1239 110.571 37.0524 111.434 38.5519ZM119.18 41.5221L120.235 40.9123C120.236 40.912 120.236 40.9117 120.237 40.9114C120.464 40.7808 120.668 40.6263 120.848 40.453C120.94 40.8424 121.104 41.2037 121.326 41.5221H119.18ZM121.326 34.632C121.108 34.9453 120.945 35.3001 120.853 35.6823L120.233 34.609C120.358 34.6242 120.486 34.632 120.615 34.632H121.326Z" fill="white" stroke="#F44336" stroke-width="3"/>
<path d="M126.699 44.1611H128.378V45.8394H126.699V44.1611Z" fill="#F44336"/>
<path d="M129.217 44.9688C129.217 44.5228 129.593 44.1611 130.056 44.1611C130.519 44.1611 130.895 44.5228 130.895 44.9688V46.6786H129.217V44.9688Z" fill="#4CAF50"/>
<path d="M127.539 48.357C128.002 48.357 128.378 47.9813 128.378 47.5179C128.378 47.0544 128.002 46.6787 127.539 46.6787C127.075 46.6787 126.699 47.0544 126.699 47.5179C126.699 47.9813 127.075 48.357 127.539 48.357Z" fill="#FFC107"/>
<path d="M130.056 47.0981L130.783 48.3569H129.329L130.056 47.0981Z" fill="#1E88E5"/>
</svg>
