<svg width="160" height="80" viewBox="0 0 160 80" fill="none" xmlns="http://www.w3.org/2000/svg">
<rect y="80" width="80" height="160" rx="10" transform="rotate(-90 0 80)" fill="#F44336"/>
<path d="M18.0938 46.4062C17.5938 46.4062 17.3438 46.1875 17.3438 45.75C17.3438 45.3021 17.5938 45.0781 18.0938 45.0781H18.8281C19.2031 45.0781 19.401 44.8802 19.4219 44.4844V41.7188C18.6615 41.9271 17.7188 42.1406 16.5938 42.3594C16.5521 42.3698 16.4948 42.375 16.4219 42.375C16.2448 42.375 16.1094 42.3177 16.0156 42.2031C15.9219 42.0781 15.875 41.9167 15.875 41.7188C15.875 41.5312 15.9375 41.3802 16.0625 41.2656C16.1875 41.151 16.3906 41.0677 16.6719 41.0156C17.7969 40.8073 18.7135 40.6302 19.4219 40.4844V37.8125H16.6719C16.1719 37.8125 15.9219 37.6042 15.9219 37.1875C15.9219 36.7812 16.1719 36.5781 16.6719 36.5781H19.4219V34.4062C19.2552 34.4271 18.9635 34.4688 18.5469 34.5312C17.9323 34.6146 17.4427 34.6719 17.0781 34.7031C16.6302 34.7344 16.4062 34.526 16.4062 34.0781C16.4062 33.8594 16.4896 33.7031 16.6562 33.6094C16.7812 33.526 17.1146 33.4635 17.6562 33.4219C19.3958 33.2969 20.7448 33.0521 21.7031 32.6875C21.974 32.5833 22.1719 32.5312 22.2969 32.5312C22.724 32.5312 22.9375 32.7448 22.9375 33.1719C22.9375 33.276 22.9115 33.3646 22.8594 33.4375C22.8073 33.5104 22.724 33.5833 22.6094 33.6562C22.4948 33.7292 22.2969 33.8021 22.0156 33.875C21.7448 33.9479 21.3021 34.0469 20.6875 34.1719V36.5781H24.0781C23.9844 35.1094 23.9375 33.9375 23.9375 33.0625C23.9375 32.5417 24.151 32.2812 24.5781 32.2812C24.8073 32.2812 24.974 32.349 25.0781 32.4844C25.1927 32.6198 25.25 32.8281 25.25 33.1094C25.25 34.1094 25.2812 35.2656 25.3438 36.5781H29.2031C29.7135 36.5781 29.9688 36.7865 29.9688 37.2031C29.9688 37.6094 29.7135 37.8125 29.2031 37.8125H25.4531C25.5677 38.9792 25.7865 40.0677 26.1094 41.0781C26.5573 40.5781 26.9427 40.0833 27.2656 39.5938C27.599 39.0938 27.8854 38.8438 28.125 38.8438C28.3542 38.8438 28.5208 38.8854 28.625 38.9688C28.7292 39.0521 28.7812 39.1823 28.7812 39.3594C28.7812 39.776 28.0573 40.7708 26.6094 42.3438C26.9635 43.1458 27.2812 43.7448 27.5625 44.1406C27.8542 44.526 28.1198 44.7188 28.3594 44.7188C28.5885 44.7188 28.776 44.2448 28.9219 43.2969C28.9531 43.099 29.0156 42.9583 29.1094 42.875C29.2031 42.7812 29.3333 42.7344 29.5 42.7344C29.9062 42.7344 30.1094 42.9531 30.1094 43.3906C30.1094 44.099 29.9531 44.7708 29.6406 45.4062C29.3385 46.0312 28.9635 46.3438 28.5156 46.3438C28.2969 46.3438 28.0625 46.2708 27.8125 46.125C27.5625 45.9896 27.3125 45.7812 27.0625 45.5C26.5417 44.9167 26.0625 44.1875 25.625 43.3125C25.3021 43.6354 25.0052 43.9062 24.7344 44.125C24.474 44.3438 24.1198 44.6042 23.6719 44.9062C23.2448 45.1979 22.9167 45.4062 22.6875 45.5312C22.4688 45.6667 22.3073 45.7344 22.2031 45.7344C21.7969 45.7344 21.5938 45.5156 21.5938 45.0781C21.5938 44.8073 21.8177 44.5521 22.2656 44.3125C23.0781 43.8854 24.0312 43.151 25.125 42.1094C24.6667 40.8698 24.349 39.4375 24.1719 37.8125H20.6875V40.1875C20.8333 40.1458 21.1771 40.0521 21.7188 39.9062C21.8229 39.875 21.9323 39.8438 22.0469 39.8125C22.1719 39.7708 22.3021 39.7344 22.4375 39.7031C22.5208 39.6823 22.5781 39.6719 22.6094 39.6719C22.7448 39.6719 22.8542 39.724 22.9375 39.8281C23.0208 39.9323 23.0625 40.0833 23.0625 40.2812C23.0625 40.5833 22.8229 40.7969 22.3438 40.9219L20.6875 41.375V44.8906C20.6875 45.4323 20.5521 45.8281 20.2812 46.0781C20.0208 46.3281 19.6042 46.4375 19.0312 46.4062H18.0938ZM26.4531 33.625C26.4531 33.4896 26.5052 33.375 26.6094 33.2812C26.724 33.1875 26.849 33.1406 26.9844 33.1406C27.2552 33.1406 27.6354 33.4167 28.125 33.9688C28.625 34.5312 28.875 34.9115 28.875 35.1094C28.875 35.5365 28.651 35.75 28.2031 35.75C28.1094 35.75 27.9844 35.6771 27.8281 35.5312C27.6719 35.3854 27.4688 35.1562 27.2188 34.8438C26.9271 34.4792 26.724 34.2135 26.6094 34.0469C26.5052 33.8802 26.4531 33.7396 26.4531 33.625ZM41.875 46.4375C41.5833 46.4271 41.375 46.3698 41.25 46.2656C41.125 46.1615 41.0625 46 41.0625 45.7812C41.0625 45.3542 41.3021 45.1406 41.7812 45.1406C42.4271 45.1406 42.8802 45.125 43.1406 45.0938C43.401 45.0729 43.599 45.0156 43.7344 44.9219C43.8698 44.8281 43.9792 44.6615 44.0625 44.4219C44.2083 43.9948 44.3229 42.9531 44.4062 41.2969C44.4896 39.6406 44.5312 38.0677 44.5312 36.5781C44.5312 36.1823 44.3021 35.9844 43.8438 35.9844H40.3594C40.1823 36.5365 39.8646 37.1719 39.4062 37.8906C39.2604 38.1302 39.0781 38.25 38.8594 38.25C38.7552 38.25 38.6458 38.2188 38.5312 38.1562C38.3229 38.0417 38.2188 37.8802 38.2188 37.6719C38.2188 37.5365 38.2604 37.3958 38.3438 37.25C38.7812 36.4271 39.1042 35.7344 39.3125 35.1719C39.5729 34.4844 39.8177 33.7135 40.0469 32.8594C40.099 32.6823 40.1771 32.5469 40.2812 32.4531C40.3958 32.349 40.5312 32.2969 40.6875 32.2969C40.7292 32.2969 40.8021 32.3073 40.9062 32.3281C41.2188 32.401 41.375 32.5885 41.375 32.8906C41.375 32.9948 41.3594 33.1094 41.3281 33.2344C41.2552 33.5365 41.1667 33.8385 41.0625 34.1406C40.9583 34.4323 40.8594 34.6615 40.7656 34.8281H44.5156C45.4323 34.8281 45.8906 35.2135 45.8906 35.9844C45.8906 37.9427 45.8385 39.8333 45.7344 41.6562C45.6302 43.4688 45.4531 44.6823 45.2031 45.2969C45.0156 45.7344 44.7292 46.0365 44.3438 46.2031C43.9583 46.3698 43.375 46.4531 42.5938 46.4531C42.2812 46.4531 42.0417 46.4479 41.875 46.4375ZM32.3125 36.0938C32.3125 35.6979 32.4115 35.3958 32.6094 35.1875C32.8073 34.9792 33.099 34.875 33.4844 34.875H34.2812C34.3646 34.4062 34.4635 33.7448 34.5781 32.8906C34.599 32.7031 34.6667 32.5625 34.7812 32.4688C34.8958 32.375 35.0469 32.3281 35.2344 32.3281C35.7552 32.3281 35.9792 32.5938 35.9062 33.125C35.8229 33.7083 35.6875 34.2917 35.5 34.875H36.6875C37.4792 34.875 37.875 35.2812 37.875 36.0938L37.8906 44.9844C37.8906 45.7865 37.4896 46.1875 36.6875 46.1875H33.5156C33.1198 46.1875 32.8177 46.0833 32.6094 45.875C32.4115 45.6771 32.3125 45.3802 32.3125 44.9844V36.0938ZM33.5938 44.4844C33.5938 44.8281 33.7656 45 34.1094 45H36.0938C36.4375 45 36.6094 44.8281 36.6094 44.4844V40.8594H33.5938V44.4844ZM36.6094 39.7031V36.5781C36.6094 36.2344 36.4375 36.0625 36.0938 36.0625H34.1094C33.7656 36.0625 33.5938 36.2344 33.5938 36.5781V39.7031H36.6094ZM39.6719 39.3125C39.6719 39.1354 39.724 39 39.8281 38.9062C39.9323 38.8021 40.0677 38.75 40.2344 38.75C40.401 38.75 40.5781 38.8438 40.7656 39.0312C40.9531 39.2188 41.1927 39.526 41.4844 39.9531C42.0885 40.8594 42.3906 41.4583 42.3906 41.75C42.3906 41.9271 42.3333 42.0677 42.2188 42.1719C42.1146 42.276 41.9635 42.3281 41.7656 42.3281C41.599 42.3281 41.4531 42.2708 41.3281 42.1562C41.2031 42.0312 41.0781 41.849 40.9531 41.6094C40.7552 41.2552 40.4635 40.7812 40.0781 40.1875L39.8594 39.8438C39.8073 39.7708 39.7604 39.6823 39.7188 39.5781C39.6875 39.474 39.6719 39.3854 39.6719 39.3125ZM54.9375 46.5312C54.5208 46.5312 54.3125 46.276 54.3125 45.7656V42.875C53.2708 43.7708 52.1406 44.5104 50.9219 45.0938C49.7135 45.6771 48.8958 45.9688 48.4688 45.9688C48.0625 45.9688 47.8594 45.7604 47.8594 45.3438C47.8594 45.0312 48.0729 44.8125 48.5 44.6875C50.5521 44.0938 52.3073 43.2083 53.7656 42.0312H48.8438C48.3646 42.0312 48.125 41.8385 48.125 41.4531C48.125 41.0677 48.3646 40.875 48.8438 40.875H54.3125V40H53.6719C53.2969 40 53.026 39.8542 52.8594 39.5625C52.8073 39.8333 52.6302 39.9688 52.3281 39.9688C52.0677 39.9688 51.8802 39.7812 51.7656 39.4062L48.9219 39.9688L48.625 40C48.4479 40.0208 48.3125 39.9792 48.2188 39.875C48.125 39.7604 48.0781 39.6042 48.0781 39.4062C48.0781 39.0521 48.3594 38.8594 48.9219 38.8281L50 37.1562L48.3125 35.875C48.1667 35.7708 48.0938 35.6146 48.0938 35.4062C48.0938 35.0208 48.2812 34.8281 48.6562 34.8281C48.7604 34.8281 48.9062 34.8854 49.0938 35C49.4271 34.2917 49.6979 33.6406 49.9062 33.0469C50.0417 32.6823 50.2552 32.5 50.5469 32.5C50.7344 32.5 50.8802 32.5469 50.9844 32.6406C51.0885 32.7344 51.1406 32.8698 51.1406 33.0469C51.1406 33.3177 50.724 34.151 49.8906 35.5469L50.5938 36.125L51.1562 35.0469C51.3125 34.7448 51.4531 34.526 51.5781 34.3906C51.7031 34.2552 51.8281 34.1875 51.9531 34.1875C52.3385 34.1875 52.5312 34.375 52.5312 34.75C52.5312 34.9062 52.3646 35.2448 52.0312 35.7656C51.9792 35.849 51.9323 35.9219 51.8906 35.9844C51.849 36.0469 51.8125 36.1042 51.7812 36.1562C51.0625 37.3229 50.5052 38.1771 50.1094 38.7188L50.8281 38.6406L51.5 38.5469L51.2969 37.9844C51.2552 37.8594 51.2344 37.7708 51.2344 37.7188C51.2344 37.4375 51.3958 37.2969 51.7188 37.2969C51.9479 37.2969 52.1562 37.5208 52.3438 37.9688L52.5156 38.375C52.599 38.5417 52.6615 38.6979 52.7031 38.8438V34.6562C52.7031 33.9375 53.026 33.5625 53.6719 33.5312H54.0156L54.0781 33.1094C54.1302 32.8073 54.2083 32.5833 54.3125 32.4375C54.4271 32.2812 54.5833 32.2031 54.7812 32.2031C55.1979 32.2031 55.4062 32.3802 55.4062 32.7344C55.4062 32.8594 55.3438 33.125 55.2188 33.5312H56.2031C56.526 33.5312 56.7708 33.6302 56.9375 33.8281C57.1042 34.026 57.1875 34.3125 57.1875 34.6875V35.0469C57.2812 34.901 57.4271 34.8281 57.625 34.8281C57.75 34.8281 57.8594 34.8594 57.9531 34.9219C58.2344 34.3177 58.4948 33.6927 58.7344 33.0469C58.7969 32.8698 58.8854 32.7344 59 32.6406C59.1146 32.5469 59.2396 32.5 59.375 32.5C59.5521 32.5 59.6927 32.5469 59.7969 32.6406C59.901 32.7344 59.9531 32.8698 59.9531 33.0469C59.9531 33.3281 59.5521 34.1354 58.75 35.4688L59.5625 36.1406L60.1094 35.0938C60.2865 34.7708 60.4375 34.5365 60.5625 34.3906C60.6875 34.2448 60.8125 34.1719 60.9375 34.1719C61.3229 34.1719 61.5156 34.3594 61.5156 34.7344C61.5156 34.8906 61.224 35.4323 60.6406 36.3594C60.2344 37.0156 59.9323 37.4844 59.7344 37.7656C59.5469 38.0469 59.3073 38.375 59.0156 38.75C59.1927 38.7188 59.4479 38.6823 59.7812 38.6406C60.1771 38.599 60.474 38.5625 60.6719 38.5312L60.4844 37.9844L60.4219 37.7344C60.4219 37.4323 60.5833 37.2812 60.9062 37.2812C61.1354 37.2812 61.3438 37.5104 61.5312 37.9688C61.875 38.7708 62.0469 39.2656 62.0469 39.4531C62.0469 39.7969 61.8698 39.9688 61.5156 39.9688C61.2552 39.9688 61.0677 39.776 60.9531 39.3906C59.1094 39.7969 58.0208 40 57.6875 40C57.5104 40 57.375 39.9479 57.2812 39.8438C57.1875 39.7396 57.1406 39.5938 57.1406 39.4062C57.1406 39.2396 57.2031 39.1094 57.3281 39.0156C57.4635 38.9115 57.6458 38.849 57.875 38.8281L58.9688 37.1562C58.8333 37.0312 58.6406 36.8802 58.3906 36.7031C58.151 36.526 57.974 36.3906 57.8594 36.2969C57.7031 36.2031 57.5469 36.0938 57.3906 35.9688C57.3073 35.9167 57.2396 35.8542 57.1875 35.7812V38.8438C57.1875 39.2188 57.1042 39.5052 56.9375 39.7031C56.7708 39.901 56.526 40 56.2031 40H55.5625V40.875H61.1562C61.625 40.875 61.8594 41.0677 61.8594 41.4531C61.8594 41.8385 61.625 42.0312 61.1562 42.0312H56.0781C57.2552 43.125 58.9479 43.9427 61.1562 44.4844C61.8125 44.6406 62.1406 44.8906 62.1406 45.2344C62.1406 45.6927 61.9219 45.9219 61.4844 45.9219C61.1719 45.9219 60.4427 45.6875 59.2969 45.2188C57.6615 44.5417 56.4167 43.7448 55.5625 42.8281V45.7656C55.5625 46.276 55.3542 46.5312 54.9375 46.5312ZM53.7812 38.5469C53.7812 38.776 53.9062 38.901 54.1562 38.9219H55.7031C55.9531 38.9219 56.0833 38.7969 56.0938 38.5469V37.2031H53.7812V38.5469ZM56.0938 36.2031V34.9688C56.0938 34.7396 55.9635 34.6198 55.7031 34.6094H54.1562C53.9271 34.6094 53.8021 34.7292 53.7812 34.9688V36.2031H56.0938ZM66.125 46.3594C65.5417 46.3594 65.1198 46.224 64.8594 45.9531C64.599 45.6927 64.4688 45.2656 64.4688 44.6719V34.5469C64.4688 33.9427 64.599 33.5104 64.8594 33.25C65.1198 32.9792 65.5417 32.8438 66.125 32.8438H75.9062C76.4896 32.8438 76.9115 32.9792 77.1719 33.25C77.4323 33.5104 77.5625 33.9427 77.5625 34.5469V44.6719C77.5625 45.2656 77.4323 45.6927 77.1719 45.9531C76.9115 46.224 76.4896 46.3594 75.9062 46.3594H66.125ZM65.7344 44.4375C65.7344 44.9583 66 45.2188 66.5312 45.2188H75.5C76.0312 45.2188 76.2969 44.9531 76.2969 44.4219V34.75C76.2969 34.2292 76.0312 33.9688 75.5 33.9688H66.5312C66 33.9688 65.7344 34.2292 65.7344 34.75V44.4375ZM66.2031 42.8281C66.2031 42.599 66.3385 42.4427 66.6094 42.3594C67.8802 41.9635 68.8281 41.5833 69.4531 41.2188H68.3125C67.9792 41.2188 67.724 41.1302 67.5469 40.9531C67.3698 40.776 67.2812 40.526 67.2812 40.2031V39.4844C67.2812 39.1823 67.3594 38.9531 67.5156 38.7969C67.6823 38.6302 67.9167 38.5469 68.2188 38.5469H73.7188C74.0521 38.5469 74.3073 38.6302 74.4844 38.7969C74.6615 38.9635 74.75 39.2135 74.75 39.5469V40.2031C74.75 40.8802 74.401 41.2188 73.7031 41.2188H70.8125C70.6146 41.3958 70.3594 41.5938 70.0469 41.8125V43.5156L71.25 43.2969C71.2812 43.2865 71.3281 43.2812 71.3906 43.2812C71.5365 43.2812 71.651 43.3229 71.7344 43.4062C71.8177 43.4896 71.8594 43.6042 71.8594 43.75C71.8594 43.8646 71.8177 43.9635 71.7344 44.0469C71.6615 44.1302 71.5573 44.1927 71.4219 44.2344C70.9219 44.3802 70.3594 44.5052 69.7344 44.6094C69.1094 44.7031 68.724 44.7604 68.5781 44.7812C68.474 44.7917 68.2917 44.8177 68.0312 44.8594C67.9792 44.8698 67.9115 44.875 67.8281 44.875C67.4531 44.875 67.2656 44.6979 67.2656 44.3438C67.2656 44.0625 67.4427 43.901 67.7969 43.8594C68.026 43.8281 68.4271 43.7708 69 43.6875V42.4219C68.375 42.7448 67.7083 43.0312 67 43.2812C66.9062 43.3229 66.8073 43.3438 66.7031 43.3438C66.5469 43.3438 66.4219 43.2969 66.3281 43.2031C66.2448 43.1094 66.2031 42.9844 66.2031 42.8281ZM66.25 37.4844C66.25 37.1719 66.4219 37.0156 66.7656 37.0156H70.3906V36.1719H67.4844C67.1406 36.1719 66.9688 36.0156 66.9688 35.7031C66.9688 35.3906 67.1406 35.2344 67.4844 35.2344H70.3906V34.7656C70.3906 34.401 70.5938 34.2188 71 34.2188C71.1979 34.2188 71.349 34.2656 71.4531 34.3594C71.5677 34.4531 71.625 34.5885 71.625 34.7656V35.2344H74.5469C74.8906 35.2344 75.0625 35.3906 75.0625 35.7031C75.0625 36.0156 74.8906 36.1719 74.5469 36.1719H71.625V37.0156H75.25C75.6146 37.0156 75.7969 37.1719 75.7969 37.4844C75.7969 37.8073 75.6146 37.9688 75.25 37.9688H66.7656C66.4219 37.9688 66.25 37.8073 66.25 37.4844ZM68.4375 39.875C68.4375 40.1667 68.5573 40.3125 68.7969 40.3125H73.2188C73.3333 40.3125 73.4219 40.2812 73.4844 40.2188C73.5469 40.1562 73.5781 40.0417 73.5781 39.875C73.5781 39.5938 73.4583 39.4531 73.2188 39.4531H68.7969C68.5573 39.4531 68.4375 39.5938 68.4375 39.875ZM71 42C71.0729 41.8333 71.2135 41.75 71.4219 41.75C71.5052 41.75 71.5833 41.7656 71.6562 41.7969C72.0729 41.9531 72.5521 42.1615 73.0938 42.4219C73.5833 42.0885 73.9948 41.776 74.3281 41.4844C74.4323 41.401 74.5417 41.3594 74.6562 41.3594C74.8229 41.3594 74.9531 41.4271 75.0469 41.5625C75.1198 41.6667 75.1562 41.7708 75.1562 41.875C75.1562 42.0417 75.0781 42.1823 74.9219 42.2969C74.6927 42.4635 74.3854 42.6562 74 42.875C74.3021 43.0312 74.7135 43.2865 75.2344 43.6406C75.4635 43.8073 75.5781 43.9844 75.5781 44.1719C75.5781 44.2552 75.5521 44.349 75.5 44.4531C75.3958 44.6406 75.2448 44.7344 75.0469 44.7344C74.9323 44.7344 74.8073 44.6927 74.6719 44.6094C73.4323 43.8073 72.2969 43.151 71.2656 42.6406C71.0573 42.526 70.9531 42.3802 70.9531 42.2031C70.9531 42.1302 70.9688 42.0625 71 42Z" fill="white"/>
<circle cx="119" cy="40" r="21" fill="white"/>
<circle cx="119" cy="40" r="26.5" stroke="white" stroke-width="3"/>
<path d="M132.598 39.8669H130.992C130.84 39.8669 130.723 39.9841 130.723 40.1365V42.0115H128.578V31.5642C128.578 31.4119 128.461 31.2947 128.309 31.2947H126.703C126.551 31.2947 126.434 31.4119 126.434 31.5642V33.4392H124.289V31.5642C124.289 31.4119 124.172 31.2947 124.02 31.2947H122.414C122.262 31.2947 122.145 31.4119 122.145 31.5642V33.4392H120V31.5642C120 31.2126 119.531 31.2947 119.314 31.2947V29.0681C119.801 28.9509 120.316 28.8689 120.82 28.8689C121.459 28.8689 122.045 29.1209 122.66 29.1209C122.93 29.1209 124.283 29.0564 124.283 28.6521V25.1365C124.283 24.9841 124.166 24.8669 124.014 24.8669C123.715 24.8669 123.129 25.1189 122.607 25.1189C122.039 25.1189 121.383 24.8669 120.697 24.8669C120.229 24.8669 119.76 24.9314 119.309 25.0369V24.7498C119.625 24.5974 119.842 24.2634 119.842 23.9119C119.842 22.699 118.002 22.6931 118.002 23.9119C118.002 24.2634 118.219 24.5974 118.535 24.7498V31.2947C118.318 31.2947 117.85 31.2126 117.85 31.5642V33.4392H115.705V31.5642C115.705 31.4119 115.588 31.2947 115.436 31.2947H113.83C113.678 31.2947 113.561 31.4119 113.561 31.5642V33.4392H111.434V31.5642C111.434 31.4119 111.316 31.2947 111.164 31.2947H109.559C109.406 31.2947 109.289 31.4119 109.289 31.5642V42.0115H107.145V40.1365C107.145 39.9841 107.027 39.8669 106.875 39.8669H105.27C105.117 39.8669 105 39.9841 105 40.1365V52.9978H115.717V47.3728C115.717 43.1189 122.145 43.1189 122.145 47.3728V52.9978H132.861V40.1365C132.867 39.9841 132.75 39.8669 132.598 39.8669ZM115.717 39.6033C115.717 39.7556 115.6 39.8728 115.447 39.8728H113.842C113.689 39.8728 113.572 39.7556 113.572 39.6033V35.8533C113.572 35.7009 113.689 35.5837 113.842 35.5837H115.447C115.6 35.5837 115.717 35.7009 115.717 35.8533V39.6033ZM124.295 39.6033C124.295 39.7556 124.178 39.8728 124.025 39.8728H122.42C122.268 39.8728 122.15 39.7556 122.15 39.6033V35.8533C122.15 35.7009 122.268 35.5837 122.42 35.5837H124.025C124.178 35.5837 124.295 35.7009 124.295 35.8533V39.6033Z" fill="#F44336"/>
<circle cx="121.889" cy="27" r="1.5" fill="white"/>
<path d="M120.989 26.1001H121.718V26.8297H120.989V26.1001Z" fill="#F44336"/>
<path d="M122.083 26.4512C122.083 26.2573 122.246 26.1001 122.448 26.1001C122.649 26.1001 122.813 26.2573 122.813 26.4512V27.1945H122.083V26.4512Z" fill="#4CAF50"/>
<path d="M121.354 27.9239C121.555 27.9239 121.719 27.7606 121.719 27.5591C121.719 27.3577 121.555 27.1943 121.354 27.1943C121.152 27.1943 120.989 27.3577 120.989 27.5591C120.989 27.7606 121.152 27.9239 121.354 27.9239Z" fill="#FFC107"/>
<path d="M122.448 27.377L122.764 27.9241H122.132L122.448 27.377Z" fill="#1E88E5"/>
</svg>
