<svg width="140" height="120" viewBox="0 0 140 120" fill="none" xmlns="http://www.w3.org/2000/svg">
<rect width="140" height="120" rx="10" fill="#F44336"/>
<path d="M33.8672 30.7578C33.2422 30.7578 32.9297 30.4844 32.9297 29.9375C32.9297 29.3776 33.2422 29.0977 33.8672 29.0977H34.7852C35.2539 29.0977 35.5013 28.8503 35.5273 28.3555V24.8984C34.5768 25.1589 33.3984 25.4258 31.9922 25.6992C31.9401 25.7122 31.8685 25.7188 31.7773 25.7188C31.556 25.7188 31.3867 25.6471 31.2695 25.5039C31.1523 25.3477 31.0938 25.1458 31.0938 24.8984C31.0938 24.6641 31.1719 24.4753 31.3281 24.332C31.4844 24.1888 31.7383 24.0846 32.0898 24.0195C33.4961 23.7591 34.6419 23.5378 35.5273 23.3555V20.0156H32.0898C31.4648 20.0156 31.1523 19.7552 31.1523 19.2344C31.1523 18.7266 31.4648 18.4727 32.0898 18.4727H35.5273V15.7578C35.319 15.7839 34.9544 15.8359 34.4336 15.9141C33.6654 16.0182 33.0534 16.0898 32.5977 16.1289C32.0378 16.168 31.7578 15.9076 31.7578 15.3477C31.7578 15.0742 31.862 14.8789 32.0703 14.7617C32.2266 14.6576 32.6432 14.5794 33.3203 14.5273C35.4948 14.3711 37.181 14.0651 38.3789 13.6094C38.7174 13.4792 38.9648 13.4141 39.1211 13.4141C39.6549 13.4141 39.9219 13.681 39.9219 14.2148C39.9219 14.3451 39.8893 14.4557 39.8242 14.5469C39.7591 14.638 39.6549 14.7292 39.5117 14.8203C39.3685 14.9115 39.1211 15.0026 38.7695 15.0938C38.431 15.1849 37.8776 15.3086 37.1094 15.4648V18.4727H41.3477C41.2305 16.6367 41.1719 15.1719 41.1719 14.0781C41.1719 13.4271 41.4388 13.1016 41.9727 13.1016C42.2591 13.1016 42.4674 13.1862 42.5977 13.3555C42.7409 13.5247 42.8125 13.7852 42.8125 14.1367C42.8125 15.3867 42.8516 16.832 42.9297 18.4727H47.7539C48.3919 18.4727 48.7109 18.7331 48.7109 19.2539C48.7109 19.7617 48.3919 20.0156 47.7539 20.0156H43.0664C43.2096 21.474 43.4831 22.8346 43.8867 24.0977C44.4466 23.4727 44.9284 22.8542 45.332 22.2422C45.7487 21.6172 46.1068 21.3047 46.4062 21.3047C46.6927 21.3047 46.901 21.3568 47.0312 21.4609C47.1615 21.5651 47.2266 21.7279 47.2266 21.9492C47.2266 22.4701 46.3216 23.7135 44.5117 25.6797C44.9544 26.6823 45.3516 27.431 45.7031 27.9258C46.0677 28.4076 46.3997 28.6484 46.6992 28.6484C46.9857 28.6484 47.2201 28.056 47.4023 26.8711C47.4414 26.6237 47.5195 26.4479 47.6367 26.3438C47.7539 26.2266 47.9167 26.168 48.125 26.168C48.6328 26.168 48.8867 26.4414 48.8867 26.9883C48.8867 27.8737 48.6914 28.7135 48.3008 29.5078C47.9232 30.2891 47.4544 30.6797 46.8945 30.6797C46.6211 30.6797 46.3281 30.5885 46.0156 30.4062C45.7031 30.237 45.3906 29.9766 45.0781 29.625C44.4271 28.8958 43.8281 27.9844 43.2812 26.8906C42.8776 27.2943 42.5065 27.6328 42.168 27.9062C41.8424 28.1797 41.3997 28.5052 40.8398 28.8828C40.306 29.2474 39.8958 29.5078 39.6094 29.6641C39.3359 29.8333 39.1341 29.918 39.0039 29.918C38.4961 29.918 38.2422 29.6445 38.2422 29.0977C38.2422 28.7591 38.5221 28.4401 39.082 28.1406C40.0977 27.6068 41.2891 26.6888 42.6562 25.3867C42.0833 23.8372 41.6862 22.0469 41.4648 20.0156H37.1094V22.9844C37.2917 22.9323 37.7214 22.8151 38.3984 22.6328C38.5286 22.5938 38.6654 22.5547 38.8086 22.5156C38.9648 22.4635 39.1276 22.418 39.2969 22.3789C39.401 22.3529 39.4727 22.3398 39.5117 22.3398C39.681 22.3398 39.8177 22.4049 39.9219 22.5352C40.026 22.6654 40.0781 22.8542 40.0781 23.1016C40.0781 23.4792 39.7786 23.7461 39.1797 23.9023L37.1094 24.4688V28.8633C37.1094 29.5404 36.9401 30.0352 36.6016 30.3477C36.276 30.6602 35.7552 30.7969 35.0391 30.7578H33.8672ZM44.3164 14.7812C44.3164 14.612 44.3815 14.4688 44.5117 14.3516C44.6549 14.2344 44.8112 14.1758 44.9805 14.1758C45.319 14.1758 45.7943 14.5208 46.4062 15.2109C47.0312 15.9141 47.3438 16.3893 47.3438 16.6367C47.3438 17.1706 47.0638 17.4375 46.5039 17.4375C46.3867 17.4375 46.2305 17.3464 46.0352 17.1641C45.8398 16.9818 45.5859 16.6953 45.2734 16.3047C44.9089 15.849 44.6549 15.5169 44.5117 15.3086C44.3815 15.1003 44.3164 14.9245 44.3164 14.7812ZM63.5938 30.7969C63.2292 30.7839 62.9688 30.7122 62.8125 30.582C62.6562 30.4518 62.5781 30.25 62.5781 29.9766C62.5781 29.4427 62.8776 29.1758 63.4766 29.1758C64.2839 29.1758 64.8503 29.1562 65.1758 29.1172C65.5013 29.0911 65.7487 29.0195 65.918 28.9023C66.0872 28.7852 66.224 28.5768 66.3281 28.2773C66.5104 27.7435 66.6536 26.4414 66.7578 24.3711C66.862 22.3008 66.9141 20.3346 66.9141 18.4727C66.9141 17.9779 66.6276 17.7305 66.0547 17.7305H61.6992C61.4779 18.4206 61.0807 19.2148 60.5078 20.1133C60.3255 20.4128 60.0977 20.5625 59.8242 20.5625C59.694 20.5625 59.5573 20.5234 59.4141 20.4453C59.1536 20.3021 59.0234 20.1003 59.0234 19.8398C59.0234 19.6706 59.0755 19.4948 59.1797 19.3125C59.7266 18.2839 60.1302 17.418 60.3906 16.7148C60.7161 15.8555 61.0221 14.8919 61.3086 13.8242C61.3737 13.6029 61.4714 13.4336 61.6016 13.3164C61.7448 13.1862 61.9141 13.1211 62.1094 13.1211C62.1615 13.1211 62.2526 13.1341 62.3828 13.1602C62.7734 13.2513 62.9688 13.4857 62.9688 13.8633C62.9688 13.9935 62.9492 14.1367 62.9102 14.293C62.819 14.6706 62.7083 15.0482 62.5781 15.4258C62.4479 15.7904 62.3242 16.0768 62.207 16.2852H66.8945C68.0404 16.2852 68.6133 16.7669 68.6133 17.7305C68.6133 20.1784 68.5482 22.5417 68.418 24.8203C68.2878 27.0859 68.0664 28.6029 67.7539 29.3711C67.5195 29.918 67.1615 30.2956 66.6797 30.5039C66.1979 30.7122 65.4688 30.8164 64.4922 30.8164C64.1016 30.8164 63.8021 30.8099 63.5938 30.7969ZM51.6406 17.8672C51.6406 17.3724 51.7643 16.9948 52.0117 16.7344C52.2591 16.474 52.6237 16.3438 53.1055 16.3438H54.1016C54.2057 15.7578 54.3294 14.931 54.4727 13.8633C54.4987 13.6289 54.5833 13.4531 54.7266 13.3359C54.8698 13.2188 55.0586 13.1602 55.293 13.1602C55.944 13.1602 56.224 13.4922 56.1328 14.1562C56.0286 14.8854 55.8594 15.6146 55.625 16.3438H57.1094C58.099 16.3438 58.5938 16.8516 58.5938 17.8672L58.6133 28.9805C58.6133 29.9831 58.112 30.4844 57.1094 30.4844H53.1445C52.6497 30.4844 52.2721 30.3542 52.0117 30.0938C51.7643 29.8464 51.6406 29.4753 51.6406 28.9805V17.8672ZM53.2422 28.3555C53.2422 28.7852 53.457 29 53.8867 29H56.3672C56.7969 29 57.0117 28.7852 57.0117 28.3555V23.8242H53.2422V28.3555ZM57.0117 22.3789V18.4727C57.0117 18.043 56.7969 17.8281 56.3672 17.8281H53.8867C53.457 17.8281 53.2422 18.043 53.2422 18.4727V22.3789H57.0117ZM60.8398 21.8906C60.8398 21.6693 60.9049 21.5 61.0352 21.3828C61.1654 21.2526 61.3346 21.1875 61.543 21.1875C61.7513 21.1875 61.9727 21.3047 62.207 21.5391C62.4414 21.7734 62.7409 22.1576 63.1055 22.6914C63.8607 23.8242 64.2383 24.5729 64.2383 24.9375C64.2383 25.1589 64.1667 25.3346 64.0234 25.4648C63.8932 25.5951 63.7044 25.6602 63.457 25.6602C63.2487 25.6602 63.0664 25.5885 62.9102 25.4453C62.7539 25.2891 62.5977 25.0612 62.4414 24.7617C62.194 24.319 61.8294 23.7266 61.3477 22.9844L61.0742 22.5547C61.0091 22.4635 60.9505 22.3529 60.8984 22.2227C60.8594 22.0924 60.8398 21.9818 60.8398 21.8906ZM79.9219 30.9141C79.401 30.9141 79.1406 30.5951 79.1406 29.957V26.3438C77.8385 27.4635 76.4258 28.388 74.9023 29.1172C73.3919 29.8464 72.3698 30.2109 71.8359 30.2109C71.3281 30.2109 71.0742 29.9505 71.0742 29.4297C71.0742 29.0391 71.3411 28.7656 71.875 28.6094C74.4401 27.8672 76.6341 26.7604 78.457 25.2891H72.3047C71.7057 25.2891 71.4062 25.0482 71.4062 24.5664C71.4062 24.0846 71.7057 23.8438 72.3047 23.8438H79.1406V22.75H78.3398C77.8711 22.75 77.5326 22.5677 77.3242 22.2031C77.2591 22.5417 77.0378 22.7109 76.6602 22.7109C76.3346 22.7109 76.1003 22.4766 75.957 22.0078L72.4023 22.7109L72.0312 22.75C71.8099 22.776 71.6406 22.724 71.5234 22.5938C71.4062 22.4505 71.3477 22.2552 71.3477 22.0078C71.3477 21.5651 71.6992 21.3242 72.4023 21.2852L73.75 19.1953L71.6406 17.5938C71.4583 17.4635 71.3672 17.2682 71.3672 17.0078C71.3672 16.526 71.6016 16.2852 72.0703 16.2852C72.2005 16.2852 72.3828 16.3568 72.6172 16.5C73.0339 15.6146 73.3724 14.8008 73.6328 14.0586C73.8021 13.6029 74.069 13.375 74.4336 13.375C74.668 13.375 74.8503 13.4336 74.9805 13.5508C75.1107 13.668 75.1758 13.8372 75.1758 14.0586C75.1758 14.3971 74.6549 15.4388 73.6133 17.1836L74.4922 17.9062L75.1953 16.5586C75.3906 16.181 75.5664 15.9076 75.7227 15.7383C75.8789 15.569 76.0352 15.4844 76.1914 15.4844C76.6732 15.4844 76.9141 15.7188 76.9141 16.1875C76.9141 16.3828 76.7057 16.806 76.2891 17.457C76.224 17.5612 76.1654 17.6523 76.1133 17.7305C76.0612 17.8086 76.0156 17.8802 75.9766 17.9453C75.0781 19.4036 74.3815 20.4714 73.8867 21.1484L74.7852 21.0508L75.625 20.9336L75.3711 20.2305C75.319 20.0742 75.293 19.9635 75.293 19.8984C75.293 19.5469 75.4948 19.3711 75.8984 19.3711C76.1849 19.3711 76.4453 19.651 76.6797 20.2109L76.8945 20.7188C76.9987 20.9271 77.0768 21.1224 77.1289 21.3047V16.0703C77.1289 15.1719 77.5326 14.7031 78.3398 14.6641H78.7695L78.8477 14.1367C78.9128 13.7591 79.0104 13.4792 79.1406 13.2969C79.2839 13.1016 79.4792 13.0039 79.7266 13.0039C80.2474 13.0039 80.5078 13.2253 80.5078 13.668C80.5078 13.8242 80.4297 14.1562 80.2734 14.6641H81.5039C81.9076 14.6641 82.2135 14.7878 82.4219 15.0352C82.6302 15.2826 82.7344 15.6406 82.7344 16.1094V16.5586C82.8516 16.3763 83.0339 16.2852 83.2812 16.2852C83.4375 16.2852 83.5742 16.3242 83.6914 16.4023C84.043 15.6471 84.3685 14.8659 84.668 14.0586C84.7461 13.8372 84.8568 13.668 85 13.5508C85.1432 13.4336 85.2995 13.375 85.4688 13.375C85.6901 13.375 85.8659 13.4336 85.9961 13.5508C86.1263 13.668 86.1914 13.8372 86.1914 14.0586C86.1914 14.4102 85.6901 15.4193 84.6875 17.0859L85.7031 17.9258L86.3867 16.6172C86.6081 16.2135 86.7969 15.9206 86.9531 15.7383C87.1094 15.556 87.2656 15.4648 87.4219 15.4648C87.9036 15.4648 88.1445 15.6992 88.1445 16.168C88.1445 16.3633 87.7799 17.0404 87.0508 18.1992C86.543 19.0195 86.1654 19.6055 85.918 19.957C85.6836 20.3086 85.3841 20.7188 85.0195 21.1875C85.2409 21.1484 85.5599 21.1029 85.9766 21.0508C86.4714 20.9987 86.8424 20.9531 87.0898 20.9141L86.8555 20.2305L86.7773 19.918C86.7773 19.5404 86.9792 19.3516 87.3828 19.3516C87.6693 19.3516 87.9297 19.638 88.1641 20.2109C88.5938 21.2135 88.8086 21.832 88.8086 22.0664C88.8086 22.4961 88.5872 22.7109 88.1445 22.7109C87.819 22.7109 87.5846 22.4701 87.4414 21.9883C85.1367 22.4961 83.776 22.75 83.3594 22.75C83.138 22.75 82.9688 22.6849 82.8516 22.5547C82.7344 22.4245 82.6758 22.2422 82.6758 22.0078C82.6758 21.7995 82.7539 21.6367 82.9102 21.5195C83.0794 21.3893 83.3073 21.3112 83.5938 21.2852L84.9609 19.1953C84.7917 19.0391 84.5508 18.8503 84.2383 18.6289C83.9388 18.4076 83.7174 18.2383 83.5742 18.1211C83.3789 18.0039 83.1836 17.8672 82.9883 17.7109C82.8841 17.6458 82.7995 17.5677 82.7344 17.4766V21.3047C82.7344 21.7734 82.6302 22.1315 82.4219 22.3789C82.2135 22.6263 81.9076 22.75 81.5039 22.75H80.7031V23.8438H87.6953C88.2812 23.8438 88.5742 24.0846 88.5742 24.5664C88.5742 25.0482 88.2812 25.2891 87.6953 25.2891H81.3477C82.819 26.6562 84.9349 27.6784 87.6953 28.3555C88.5156 28.5508 88.9258 28.8633 88.9258 29.293C88.9258 29.8659 88.6523 30.1523 88.1055 30.1523C87.7148 30.1523 86.8034 29.8594 85.3711 29.2734C83.3268 28.4271 81.7708 27.431 80.7031 26.2852V29.957C80.7031 30.5951 80.4427 30.9141 79.9219 30.9141ZM78.4766 20.9336C78.4766 21.2201 78.6328 21.3763 78.9453 21.4023H80.8789C81.1914 21.4023 81.3542 21.2461 81.3672 20.9336V19.2539H78.4766V20.9336ZM81.3672 18.0039V16.4609C81.3672 16.1745 81.2044 16.0247 80.8789 16.0117H78.9453C78.6589 16.0117 78.5026 16.1615 78.4766 16.4609V18.0039H81.3672ZM93.9062 30.6992C93.1771 30.6992 92.6497 30.5299 92.3242 30.1914C91.9987 29.8659 91.8359 29.332 91.8359 28.5898V15.9336C91.8359 15.1784 91.9987 14.638 92.3242 14.3125C92.6497 13.974 93.1771 13.8047 93.9062 13.8047H106.133C106.862 13.8047 107.389 13.974 107.715 14.3125C108.04 14.638 108.203 15.1784 108.203 15.9336V28.5898C108.203 29.332 108.04 29.8659 107.715 30.1914C107.389 30.5299 106.862 30.6992 106.133 30.6992H93.9062ZM93.418 28.2969C93.418 28.9479 93.75 29.2734 94.4141 29.2734H105.625C106.289 29.2734 106.621 28.9414 106.621 28.2773V16.1875C106.621 15.5365 106.289 15.2109 105.625 15.2109H94.4141C93.75 15.2109 93.418 15.5365 93.418 16.1875V28.2969ZM94.0039 26.2852C94.0039 25.9987 94.1732 25.8034 94.5117 25.6992C96.1003 25.2044 97.2852 24.7292 98.0664 24.2734H96.6406C96.224 24.2734 95.9049 24.1628 95.6836 23.9414C95.4622 23.7201 95.3516 23.4076 95.3516 23.0039V22.1055C95.3516 21.7279 95.4492 21.4414 95.6445 21.2461C95.8529 21.0378 96.1458 20.9336 96.5234 20.9336H103.398C103.815 20.9336 104.134 21.0378 104.355 21.2461C104.577 21.4544 104.688 21.7669 104.688 22.1836V23.0039C104.688 23.8503 104.251 24.2734 103.379 24.2734H99.7656C99.5182 24.4948 99.1992 24.7422 98.8086 25.0156V27.1445L100.312 26.8711C100.352 26.8581 100.41 26.8516 100.488 26.8516C100.671 26.8516 100.814 26.9036 100.918 27.0078C101.022 27.112 101.074 27.2552 101.074 27.4375C101.074 27.5807 101.022 27.7044 100.918 27.8086C100.827 27.9128 100.697 27.9909 100.527 28.043C99.9023 28.2253 99.1992 28.3815 98.418 28.5117C97.6367 28.6289 97.1549 28.7005 96.9727 28.7266C96.8424 28.7396 96.6146 28.7721 96.2891 28.8242C96.224 28.8372 96.1393 28.8438 96.0352 28.8438C95.5664 28.8438 95.332 28.6224 95.332 28.1797C95.332 27.8281 95.5534 27.6263 95.9961 27.5742C96.2826 27.5352 96.7839 27.4635 97.5 27.3594V25.7773C96.7188 26.181 95.8854 26.5391 95 26.8516C94.8828 26.9036 94.7591 26.9297 94.6289 26.9297C94.4336 26.9297 94.2773 26.8711 94.1602 26.7539C94.056 26.6367 94.0039 26.4805 94.0039 26.2852ZM94.0625 19.6055C94.0625 19.2148 94.2773 19.0195 94.707 19.0195H99.2383V17.9648H95.6055C95.1758 17.9648 94.9609 17.7695 94.9609 17.3789C94.9609 16.9883 95.1758 16.793 95.6055 16.793H99.2383V16.207C99.2383 15.7513 99.4922 15.5234 100 15.5234C100.247 15.5234 100.436 15.582 100.566 15.6992C100.71 15.8164 100.781 15.9857 100.781 16.207V16.793H104.434C104.863 16.793 105.078 16.9883 105.078 17.3789C105.078 17.7695 104.863 17.9648 104.434 17.9648H100.781V19.0195H105.312C105.768 19.0195 105.996 19.2148 105.996 19.6055C105.996 20.0091 105.768 20.2109 105.312 20.2109H94.707C94.2773 20.2109 94.0625 20.0091 94.0625 19.6055ZM96.7969 22.5938C96.7969 22.9583 96.9466 23.1406 97.2461 23.1406H102.773C102.917 23.1406 103.027 23.1016 103.105 23.0234C103.184 22.9453 103.223 22.8021 103.223 22.5938C103.223 22.2422 103.073 22.0664 102.773 22.0664H97.2461C96.9466 22.0664 96.7969 22.2422 96.7969 22.5938ZM100 25.25C100.091 25.0417 100.267 24.9375 100.527 24.9375C100.632 24.9375 100.729 24.957 100.82 24.9961C101.341 25.1914 101.94 25.4518 102.617 25.7773C103.229 25.3607 103.743 24.9701 104.16 24.6055C104.29 24.5013 104.427 24.4492 104.57 24.4492C104.779 24.4492 104.941 24.5339 105.059 24.7031C105.15 24.8333 105.195 24.9635 105.195 25.0938C105.195 25.3021 105.098 25.4779 104.902 25.6211C104.616 25.8294 104.232 26.0703 103.75 26.3438C104.128 26.5391 104.642 26.8581 105.293 27.3008C105.579 27.5091 105.723 27.7305 105.723 27.9648C105.723 28.069 105.69 28.1862 105.625 28.3164C105.495 28.5508 105.306 28.668 105.059 28.668C104.915 28.668 104.759 28.6159 104.59 28.5117C103.04 27.5091 101.621 26.6888 100.332 26.0508C100.072 25.9076 99.9414 25.7253 99.9414 25.5039C99.9414 25.4128 99.9609 25.3281 100 25.25Z" fill="white"/>
<circle cx="70" cy="74" r="25.2" fill="white"/>
<circle cx="70" cy="74" r="31.5" stroke="white" stroke-width="3"/>
<path d="M86.3171 73.8403H84.3906C84.2078 73.8403 84.0671 73.9809 84.0671 74.1637V76.4137H81.4937V63.877C81.4937 63.6942 81.3531 63.5536 81.1703 63.5536H79.2437C79.0609 63.5536 78.9203 63.6942 78.9203 63.877V66.127H76.3468V63.877C76.3468 63.6942 76.2062 63.5536 76.0234 63.5536H74.0968C73.914 63.5536 73.7734 63.6942 73.7734 63.877V66.127H71.2V63.877C71.2 63.4552 70.6375 63.5536 70.3773 63.5536V60.8817C70.9609 60.7411 71.5796 60.6427 72.1843 60.6427C72.9507 60.6427 73.6539 60.945 74.3921 60.945C74.7156 60.945 76.3398 60.8677 76.3398 60.3825V56.1637C76.3398 55.9809 76.1992 55.8403 76.0164 55.8403C75.6578 55.8403 74.9546 56.1427 74.3289 56.1427C73.6468 56.1427 72.8593 55.8403 72.0367 55.8403C71.4742 55.8403 70.9117 55.9177 70.3703 56.0442V55.6997C70.75 55.5169 71.0101 55.1161 71.0101 54.6942C71.0101 53.2387 68.8023 53.2317 68.8023 54.6942C68.8023 55.1161 69.0625 55.5169 69.4421 55.6997V63.5536C69.182 63.5536 68.6195 63.4552 68.6195 63.877V66.127H66.046V63.877C66.046 63.6942 65.9054 63.5536 65.7226 63.5536H63.796C63.6132 63.5536 63.4726 63.6942 63.4726 63.877V66.127H60.9203V63.877C60.9203 63.6942 60.7796 63.5536 60.5968 63.5536H58.6703C58.4875 63.5536 58.3468 63.6942 58.3468 63.877V76.4137H55.7734V74.1637C55.7734 73.9809 55.6328 73.8403 55.45 73.8403H53.5234C53.3406 73.8403 53.2 73.9809 53.2 74.1637V89.5973H66.0601V82.8473C66.0601 77.7427 73.7734 77.7427 73.7734 82.8473V89.5973H86.6335V74.1637C86.6406 73.9809 86.5 73.8403 86.3171 73.8403ZM66.0601 73.5239C66.0601 73.7067 65.9195 73.8473 65.7367 73.8473H63.8101C63.6273 73.8473 63.4867 73.7067 63.4867 73.5239V69.0239C63.4867 68.8411 63.6273 68.7005 63.8101 68.7005H65.7367C65.9195 68.7005 66.0601 68.8411 66.0601 69.0239V73.5239ZM76.3539 73.5239C76.3539 73.7067 76.2132 73.8473 76.0304 73.8473H74.1039C73.921 73.8473 73.7804 73.7067 73.7804 73.5239V69.0239C73.7804 68.8411 73.921 68.7005 74.1039 68.7005H76.0304C76.2132 68.7005 76.3539 68.8411 76.3539 69.0239V73.5239Z" fill="#F44336"/>
<circle cx="73" cy="58.4" r="1.8" fill="white"/>
<path d="M71.9202 57.3199H72.7957V58.1954H71.9202V57.3199Z" fill="#F44336"/>
<path d="M73.2332 57.7413C73.2332 57.5086 73.4291 57.3199 73.6709 57.3199C73.9127 57.3199 74.1087 57.5086 74.1087 57.7413V58.6332H73.2332V57.7413Z" fill="#4CAF50"/>
<path d="M72.3579 59.5086C72.5997 59.5086 72.7957 59.3126 72.7957 59.0708C72.7957 58.829 72.5997 58.6331 72.3579 58.6331C72.1162 58.6331 71.9202 58.829 71.9202 59.0708C71.9202 59.3126 72.1162 59.5086 72.3579 59.5086Z" fill="#FFC107"/>
<path d="M73.6709 58.8521L74.0499 59.5087H73.2917L73.6709 58.8521Z" fill="#1E88E5"/>
</svg>
