<svg width="160" height="80" viewBox="0 0 160 80" fill="none" xmlns="http://www.w3.org/2000/svg">
<rect y="80" width="80" height="160" rx="10" transform="rotate(-90 0 80)" fill="#1E88E5"/>
<path d="M34.8125 25.5625C33.8333 25.5625 33.3438 25.0729 33.3438 24.0938V19.4844C33.3438 19.1615 33.4167 18.901 33.5625 18.7031C33.7188 18.5052 33.974 18.3542 34.3281 18.25L37.6094 17.375C37.724 17.3438 37.8333 17.3281 37.9375 17.3281C38.2083 17.3281 38.3958 17.474 38.5 17.7656C38.5312 17.8385 38.5469 17.9115 38.5469 17.9844C38.5469 18.1302 38.5 18.2604 38.4062 18.375C38.3125 18.4792 38.1719 18.5521 37.9844 18.5938L36.2344 19C35.4427 19.1979 35.0052 19.3073 34.9219 19.3281C34.7865 19.3698 34.6979 19.4323 34.6562 19.5156C34.6146 19.5885 34.5885 19.6979 34.5781 19.8438V21.2031H37.6719C38.1302 21.2031 38.3594 21.3906 38.3594 21.7656C38.3594 22.1406 38.1302 22.3281 37.6719 22.3281H34.5781V23.7656C34.5781 24.2031 34.8073 24.4219 35.2656 24.4219H42.8438C43.3021 24.4219 43.5312 24.2031 43.5312 23.7656V22.3281H40.2031C39.7552 22.3281 39.5312 22.1406 39.5312 21.7656C39.5312 21.3906 39.7552 21.2031 40.2031 21.2031H43.5312V19.8125C43.5312 19.6042 43.4688 19.4427 43.3438 19.3281C43.2292 19.2031 43.0625 19.1406 42.8438 19.1406H40.2344C39.7656 19.1406 39.5312 18.9479 39.5312 18.5625C39.5312 18.1771 39.7656 17.9844 40.2344 17.9844H43.2188C43.7604 17.9844 44.151 18.1042 44.3906 18.3438C44.6406 18.5833 44.7656 18.9531 44.7656 19.4531V24.0312C44.7656 24.5521 44.6458 24.9375 44.4062 25.1875C44.1771 25.4375 43.8021 25.5625 43.2812 25.5625H41.3438V29.1719C41.3438 29.4219 41.3802 29.6042 41.4531 29.7188C41.5365 29.8229 41.6719 29.8906 41.8594 29.9219C42.0469 29.9531 42.3646 29.9688 42.8125 29.9688C43.6146 29.9688 44.1198 29.9271 44.3281 29.8438C44.474 29.7917 44.5729 29.6562 44.625 29.4375C44.6875 29.2083 44.7188 28.8177 44.7188 28.2656C44.7188 27.7969 44.9323 27.5625 45.3594 27.5625C45.776 27.5625 45.9844 27.7969 45.9844 28.2656C45.9948 29.1823 45.9323 29.8281 45.7969 30.2031C45.6615 30.5885 45.3802 30.8438 44.9531 30.9688C44.5365 31.0938 43.8125 31.1562 42.7812 31.1562C42.0625 31.1562 41.5208 31.1302 41.1562 31.0781C40.8021 31.026 40.526 30.901 40.3281 30.7031C40.1406 30.5052 40.0469 30.1875 40.0469 29.75V25.5625H37.8125C37.6771 26.9688 37.2292 28.1719 36.4688 29.1719C35.7083 30.1615 34.7292 30.8385 33.5312 31.2031C33.1146 31.3281 32.8073 31.3906 32.6094 31.3906C32.1927 31.3906 31.9844 31.1979 31.9844 30.8125C31.9844 30.625 32.0365 30.4896 32.1406 30.4062C32.2448 30.3229 32.4375 30.2448 32.7188 30.1719C33.8021 29.8906 34.6771 29.3385 35.3438 28.5156C36.0104 27.6927 36.4062 26.7083 36.5312 25.5625H34.8125ZM55.2344 31.4375C54.8177 31.4375 54.6094 31.2396 54.6094 30.8438C54.6094 30.625 54.7344 30.4219 54.9844 30.2344C55.9427 29.4844 56.6094 28.4375 56.9844 27.0938C57.349 25.8021 57.5312 24.2708 57.5312 22.5L57.5156 22.1562C57.5052 21.6979 57.6979 21.4688 58.0938 21.4688C58.5 21.4688 58.6927 21.6615 58.6719 22.0469L58.625 23.1562C58.6042 23.6562 58.5833 24.0312 58.5625 24.2812C59.0625 26.7812 60.0885 28.651 61.6406 29.8906C61.974 30.1406 62.1406 30.3906 62.1406 30.6406C62.1406 31.1302 61.9219 31.375 61.4844 31.375C61.099 31.375 60.5521 30.9115 59.8438 29.9844C59.1458 29.0885 58.6042 27.9948 58.2188 26.7031C57.9688 28.1302 57.5052 29.276 56.8281 30.1406C56.1615 31.0052 55.6302 31.4375 55.2344 31.4375ZM47.8281 24.8125C47.8281 24.4375 48.0469 24.25 48.4844 24.25H55.2969C55.7031 24.25 55.9062 24.4427 55.9062 24.8281C55.9062 25.1927 55.7031 25.375 55.2969 25.375H54.625V29.9062C54.625 30.4479 54.5 30.8438 54.25 31.0938C54.0104 31.3438 53.6302 31.4531 53.1094 31.4219H52.2969C51.9115 31.4219 51.7188 31.2188 51.7188 30.8125C51.7188 30.3958 51.9115 30.1875 52.2969 30.1875H52.9062C53.25 30.1875 53.4271 30.0156 53.4375 29.6719V25.375H48.4844C48.0469 25.375 47.8281 25.1875 47.8281 24.8125ZM47.8594 18.5C47.8594 18.125 48.0729 17.9375 48.5 17.9375H55.3125C55.7188 17.9375 55.9219 18.1302 55.9219 18.5156C55.9219 18.6927 55.8698 18.8333 55.7656 18.9375C55.6615 19.0312 55.5104 19.0781 55.3125 19.0781H54.625V22.5938C54.625 23.0729 54.5104 23.4323 54.2812 23.6719C54.0521 23.901 53.6875 24.0208 53.1875 24.0312H52.7969C52.401 24.0312 52.2031 23.8385 52.2031 23.4531C52.2031 23.0677 52.3802 22.875 52.7344 22.875H53.0625C53.3021 22.875 53.4271 22.75 53.4375 22.5V19.0781H48.5C48.0729 19.0781 47.8594 18.8854 47.8594 18.5ZM48.4844 27.2188C48.4844 26.8021 48.5677 26.5052 48.7344 26.3281C48.9115 26.1406 49.1927 26.0625 49.5781 26.0938H51.4844C51.8906 26.0938 52.1823 26.1823 52.3594 26.3594C52.5469 26.5365 52.625 26.8229 52.5938 27.2188V28.6094C52.5938 29.0156 52.5052 29.3125 52.3281 29.5C52.151 29.6875 51.8698 29.7656 51.4844 29.7344H49.5781C49.1927 29.7344 48.9062 29.6458 48.7188 29.4688C48.5417 29.2917 48.4635 29.0052 48.4844 28.6094V27.2188ZM48.4844 20.8125C48.4844 20.4062 48.5729 20.1146 48.75 19.9375C48.9271 19.75 49.2031 19.6719 49.5781 19.7031H51.4844C51.8906 19.7031 52.1823 19.7917 52.3594 19.9688C52.5469 20.1458 52.625 20.4271 52.5938 20.8125V21.8438C52.5938 22.2604 52.5052 22.5625 52.3281 22.75C52.1615 22.9271 51.8802 23 51.4844 22.9688H49.5781C49.1823 22.9688 48.8958 22.8802 48.7188 22.7031C48.5417 22.526 48.4635 22.2396 48.4844 21.8438V20.8125ZM49.5625 28.4062C49.5625 28.6354 49.6771 28.75 49.9062 28.75H51.2188C51.4375 28.75 51.5469 28.6354 51.5469 28.4062V27.4062C51.5469 27.1875 51.4375 27.0781 51.2188 27.0781H49.9062C49.6667 27.0781 49.5521 27.1875 49.5625 27.4062V28.4062ZM49.5625 21.6875C49.5625 21.8021 49.5885 21.8906 49.6406 21.9531C49.6927 22.0052 49.7812 22.0312 49.9062 22.0312H51.2188C51.4375 22.0312 51.5469 21.9167 51.5469 21.6875V20.9688C51.5469 20.75 51.4375 20.6406 51.2188 20.6406H49.9062C49.6667 20.6406 49.5521 20.75 49.5625 20.9688V21.6875ZM54.9062 22.9219C54.9062 22.7448 54.9688 22.5521 55.0938 22.3438C55.7812 21.2188 56.2969 19.776 56.6406 18.0156C56.7344 17.5156 56.9635 17.2656 57.3281 17.2656C57.7552 17.2656 57.9688 17.4375 57.9688 17.7812C57.9688 17.9375 57.7604 18.651 57.3438 19.9219H60.8125C61.6146 19.9219 62.0156 20.2083 62.0156 20.7812C62.0156 20.9583 61.9219 21.25 61.7344 21.6562L61.375 22.4844C61.0833 23.151 60.8333 23.6406 60.625 23.9531C60.4271 24.2656 60.25 24.4219 60.0938 24.4219C59.8854 24.4219 59.7344 24.3802 59.6406 24.2969C59.5469 24.2135 59.5 24.0833 59.5 23.9062C59.5 23.7917 59.5573 23.6094 59.6719 23.3594L60.3125 21.8438L60.5312 21.2656V21.2344C60.5312 21.1615 60.4323 21.125 60.2344 21.125H56.9219L56.2812 22.6094C56.0312 23.1823 55.7708 23.4688 55.5 23.4688C55.1042 23.4688 54.9062 23.2865 54.9062 22.9219ZM46.2188 46.1719C45.3542 46.1719 44.6302 46.0156 44.0469 45.7031C43.4844 45.4115 43.0625 45.026 42.7812 44.5469C42.5104 44.0573 42.375 43.5208 42.375 42.9375C42.375 42.2812 42.5417 41.6979 42.875 41.1875C43.2188 40.6771 43.6406 40.2604 44.1406 39.9375C43.8073 39.5417 43.5625 39.1719 43.4062 38.8281C43.2604 38.4844 43.1875 38.099 43.1875 37.6719C43.1875 37.1823 43.3073 36.724 43.5469 36.2969C43.7865 35.8698 44.1302 35.5365 44.5781 35.2969C45.026 35.0469 45.5417 34.9219 46.125 34.9219C46.8125 34.9219 47.5104 35.151 48.2188 35.6094C48.2917 35.651 48.3542 35.7188 48.4062 35.8125C48.4688 35.9062 48.5 36 48.5 36.0938C48.5 36.25 48.4427 36.3854 48.3281 36.5C48.224 36.6042 48.0938 36.6562 47.9375 36.6562C47.875 36.6562 47.7812 36.6302 47.6562 36.5781C47.1458 36.3073 46.6562 36.1719 46.1875 36.1719C45.6771 36.1719 45.2708 36.3125 44.9688 36.5938C44.6771 36.8646 44.5312 37.1979 44.5312 37.5938C44.5312 37.9062 44.5833 38.1719 44.6875 38.3906C44.7812 38.599 44.9219 38.8125 45.1094 39.0312C45.2969 39.2396 45.625 39.5625 46.0938 40L49.3438 43.0625C49.4375 42.9271 49.6042 42.6198 49.8438 42.1406C49.8958 42.0156 49.9792 41.9167 50.0938 41.8438C50.2083 41.7708 50.3333 41.7344 50.4688 41.7344C50.6562 41.7344 50.8125 41.7969 50.9375 41.9219C51.0729 42.0469 51.1406 42.2031 51.1406 42.3906C51.1406 42.474 51.1146 42.5781 51.0625 42.7031C50.8646 43.1406 50.6146 43.5677 50.3125 43.9844L51.3594 44.9688C51.4531 45.0521 51.5156 45.1302 51.5469 45.2031C51.5885 45.276 51.6094 45.3698 51.6094 45.4844C51.6094 45.6719 51.5469 45.8281 51.4219 45.9531C51.2969 46.0781 51.1406 46.1406 50.9531 46.1406C50.7656 46.1406 50.599 46.0781 50.4531 45.9531L49.4219 44.9531C48.9635 45.3385 48.4583 45.6406 47.9062 45.8594C47.3646 46.0677 46.8021 46.1719 46.2188 46.1719ZM43.75 42.9844C43.75 43.349 43.849 43.6823 44.0469 43.9844C44.2552 44.276 44.5365 44.5104 44.8906 44.6875C45.2552 44.8542 45.6562 44.9375 46.0938 44.9375C46.9688 44.9375 47.7604 44.651 48.4688 44.0781L45.0156 40.8281C44.6406 41.0677 44.3333 41.375 44.0938 41.75C43.8646 42.1146 43.75 42.526 43.75 42.9844ZM28.8594 63.4062C28.3177 63.4062 28.0469 63.1771 28.0469 62.7188C28.0469 62.2708 28.3177 62.0469 28.8594 62.0469H29.8281C30.0573 62.0469 30.2344 61.9844 30.3594 61.8594C30.4844 61.7344 30.5521 61.5521 30.5625 61.3125V58.3281H24.6562C24.1562 58.3281 23.9062 58.1198 23.9062 57.7031C23.9062 57.2865 24.1562 57.0781 24.6562 57.0781H30.5625V54.7188H25.9375C25.4479 54.7188 25.2031 54.5156 25.2031 54.1094C25.2031 53.7135 25.4479 53.5156 25.9375 53.5156H30.5625V51.2812L29.9062 51.2969C27.5312 51.4844 26.0729 51.5781 25.5312 51.5781C24.9583 51.5781 24.6719 51.3542 24.6719 50.9062C24.6719 50.7292 24.75 50.5729 24.9062 50.4375C24.9896 50.3542 25.3646 50.3125 26.0312 50.3125C26.8438 50.3125 27.7708 50.2708 28.8125 50.1875C30.125 50.0833 31.1927 49.9844 32.0156 49.8906C33.151 49.7656 34.0365 49.6406 34.6719 49.5156C35.4531 49.3594 35.8854 49.2812 35.9688 49.2812C36.4792 49.2812 36.7344 49.526 36.7344 50.0156C36.7344 50.1302 36.6771 50.2344 36.5625 50.3281C36.4583 50.4219 36.2865 50.5052 36.0469 50.5781C35.6198 50.724 34.2188 50.9167 31.8438 51.1562V53.5156H36.0938C36.3438 53.5156 36.526 53.5677 36.6406 53.6719C36.7656 53.7656 36.8281 53.9167 36.8281 54.125C36.8281 54.5208 36.5833 54.7188 36.0938 54.7188H31.8438V57.0781H37.3125C37.8333 57.0781 38.0938 57.2865 38.0938 57.7031C38.0938 58.1198 37.8333 58.3281 37.3125 58.3281H31.8438V61.5781C31.8854 62.2344 31.7552 62.7083 31.4531 63C31.151 63.3021 30.6771 63.4375 30.0312 63.4062H28.8594ZM41 63.375C40.5208 63.375 40.2812 63.1406 40.2812 62.6719C40.2812 62.2448 40.5208 62.0312 41 62.0312H41.4688C41.8542 62.0312 42.0469 61.8333 42.0469 61.4375V58.2344C41.1198 58.4948 40.6042 58.625 40.5 58.625C40.0729 58.625 39.8594 58.4062 39.8594 57.9688C39.8594 57.5938 40.1406 57.3542 40.7031 57.25L42.0469 56.9219V53.4844H40.6562C40.4062 53.4844 40.2188 53.4375 40.0938 53.3438C39.9792 53.2396 39.9219 53.0833 39.9219 52.875C39.9219 52.4688 40.1667 52.2656 40.6562 52.2656H42.0469V50.0156C42.0469 49.5156 42.2604 49.2656 42.6875 49.2656C43.1146 49.2656 43.3281 49.5156 43.3281 50.0156V52.2656H44.2188C44.7292 52.2656 44.9844 52.4688 44.9844 52.875C44.9844 53.2812 44.7292 53.4844 44.2188 53.4844H43.3281V56.5938L44.1562 56.3438L44.3594 56.3125C44.5573 56.2812 44.7083 56.3177 44.8125 56.4219C44.9167 56.526 44.9688 56.6771 44.9688 56.875C44.9688 57.125 44.8438 57.3073 44.5938 57.4219C44.3854 57.5156 43.9635 57.6615 43.3281 57.8594V61.8125C43.3698 62.3542 43.2604 62.75 43 63C42.7396 63.25 42.3229 63.375 41.75 63.375H41ZM45.5469 50.1094C45.5469 49.599 45.7552 49.3438 46.1719 49.3438C46.5885 49.3438 46.7969 49.599 46.7969 50.1094V51.3125C48.7865 50.9583 50.4792 50.526 51.875 50.0156C52.1667 49.901 52.375 49.8438 52.5 49.8438C52.6667 49.8438 52.8177 49.9167 52.9531 50.0625C53.0885 50.2292 53.1562 50.3958 53.1562 50.5625C53.1562 50.8229 53.0365 51 52.7969 51.0938C51.6302 51.5625 49.6302 52 46.7969 52.4062V53.75C46.7969 53.8854 46.8385 53.9948 46.9219 54.0781C47.0052 54.1615 47.1146 54.2083 47.25 54.2188C47.6354 54.2396 48.2135 54.25 48.9844 54.25L50.7031 54.2656C51.2135 54.2656 51.599 54.2604 51.8594 54.25C52.1302 54.2292 52.3125 54.1875 52.4062 54.125C52.625 53.9792 52.7448 53.6823 52.7656 53.2344C52.776 53.026 52.8333 52.8698 52.9375 52.7656C53.0521 52.651 53.2083 52.5938 53.4062 52.5938C53.875 52.5938 54.1094 52.8073 54.1094 53.2344C54.1094 54.1406 53.9219 54.7344 53.5469 55.0156C53.151 55.3177 52.4896 55.474 51.5625 55.4844C51.0312 55.4948 50.2135 55.5 49.1094 55.5C48.2344 55.5 47.5469 55.4948 47.0469 55.4844C46.5469 55.474 46.1719 55.3594 45.9219 55.1406C45.6719 54.9219 45.5469 54.6302 45.5469 54.2656V50.1094ZM45.625 57.8594C45.625 57.3594 45.7344 57 45.9531 56.7812C46.1719 56.5521 46.5208 56.4531 47 56.4844H51.8906C52.3906 56.4844 52.7552 56.5938 52.9844 56.8125C53.2135 57.0312 53.3125 57.3854 53.2812 57.875V61.7969C53.2812 62.2969 53.1719 62.6615 52.9531 62.8906C52.7344 63.1198 52.3802 63.2188 51.8906 63.1875H47C46.5104 63.1875 46.151 63.0781 45.9219 62.8594C45.6927 62.6406 45.5938 62.2917 45.625 61.8125V57.8594ZM46.9062 61.5C46.9062 61.8646 47.099 62.0469 47.4844 62.0469H51.4219C51.8177 62.0469 52.0156 61.8594 52.0156 61.4844V60.3594H46.9062V61.5ZM52.0156 59.25V58.2031C52.0156 58.0156 51.9635 57.875 51.8594 57.7812C51.7552 57.6771 51.6094 57.625 51.4219 57.625H47.4844C47.099 57.625 46.9062 57.8177 46.9062 58.2031V59.25H52.0156ZM62.8594 63.0469C62.3906 63.0469 62.0521 62.9427 61.8438 62.7344C61.6354 62.5365 61.5365 62.2135 61.5469 61.7656V60.5156C61.5469 60.1406 61.7396 59.9531 62.125 59.9531C62.5208 59.9531 62.7188 60.1406 62.7188 60.5156V61.4688C62.7188 61.7708 62.8802 61.9323 63.2031 61.9531H64.9688V59.4062H61.4844C61.0469 59.4062 60.8281 59.2292 60.8281 58.875C60.8281 58.5104 61.0469 58.3281 61.4844 58.3281H64.9688V56.7188H63.0938C62.6146 57.5 62.2604 57.8906 62.0312 57.8906C61.6771 57.8906 61.5 57.724 61.5 57.3906C61.5 57.276 61.6302 57.0573 61.8906 56.7344C62.2135 56.3385 62.4948 55.9427 62.7344 55.5469L61.1094 55.8906C60.7656 55.8906 60.5938 55.7135 60.5938 55.3594C60.5938 55.099 60.9115 54.9115 61.5469 54.7969C62.2552 54.6719 62.8125 54.5573 63.2188 54.4531L62.4531 53.9375C62.1094 53.7188 61.9375 53.5469 61.9375 53.4219C61.9375 53.1302 62.099 52.9844 62.4219 52.9844C62.6719 52.9844 63.2969 53.3542 64.2969 54.0938L65.4531 53.5938L64.1094 52.8438C63.8802 52.7083 63.7656 52.5781 63.7656 52.4531C63.7656 52.151 63.9271 52 64.25 52C64.5 52 65.2031 52.3542 66.3594 53.0625C67.3906 52.4062 67.9062 52 67.9062 51.8438C67.9062 51.7604 67.8438 51.7188 67.7188 51.7188H63.5156C62.5052 52.5 61.849 52.8906 61.5469 52.8906C61.2031 52.8906 61.0312 52.6979 61.0312 52.3125C61.0312 52.1042 61.2448 51.8802 61.6719 51.6406C62.6198 51.0781 63.4375 50.4375 64.125 49.7188C64.4583 49.3854 64.7083 49.2188 64.875 49.2188C65.3021 49.2188 65.5156 49.3802 65.5156 49.7031C65.5156 49.849 65.276 50.151 64.7969 50.6094L64.7656 50.6406H68.4531C69.276 50.6406 69.6875 50.8958 69.6875 51.4062C69.6875 51.7292 69.3333 52.1719 68.625 52.7344C67.875 53.3281 67.1562 53.8073 66.4688 54.1719C65.7188 54.5677 64.901 54.9062 64.0156 55.1875L63.7656 55.5781L63.75 55.625H68.7656C69.2031 55.625 69.4219 55.8073 69.4219 56.1719C69.4219 56.5365 69.2031 56.7188 68.7656 56.7188H66.125V58.3281H69.4844C69.9219 58.3281 70.1406 58.5104 70.1406 58.875C70.1406 59.2292 69.9219 59.4062 69.4844 59.4062H66.125V61.9531H67.9844C68.2969 61.9531 68.4635 61.7865 68.4844 61.4531V60.5156C68.4844 60.1198 68.6823 59.9219 69.0781 59.9219C69.4635 59.9219 69.6562 60.1198 69.6562 60.5156V61.7656C69.6562 62.224 69.5521 62.5573 69.3438 62.7656C69.1458 62.974 68.8281 63.0677 68.3906 63.0469H62.8594ZM55.8281 52.6094C55.8281 52.2135 56.0573 52.0156 56.5156 52.0156H60.25C60.7188 52.0156 60.9531 52.2135 60.9531 52.6094C60.9531 53.0052 60.7188 53.2031 60.25 53.2031H56.5156C56.0573 53.2031 55.8281 53.0052 55.8281 52.6094ZM56.2031 59.5312C56.1198 58.6146 56.5573 58.1875 57.5156 58.25H59.25C59.7292 58.25 60.0781 58.3542 60.2969 58.5625C60.5156 58.7604 60.6042 59.0833 60.5625 59.5312V61.625C60.5625 62.0833 60.4583 62.4167 60.25 62.625C60.0417 62.8438 59.7083 62.9427 59.25 62.9219H57.5156C57.0365 62.9219 56.6875 62.8177 56.4688 62.6094C56.25 62.401 56.1615 62.0729 56.2031 61.625V59.5312ZM56.25 56.75C56.25 56.375 56.4688 56.1875 56.9062 56.1875H59.8594C60.3073 56.1875 60.5312 56.3802 60.5312 56.7656C60.5312 56.9427 60.474 57.0833 60.3594 57.1875C60.2448 57.2812 60.0781 57.3281 59.8594 57.3281H56.9062C56.4688 57.3281 56.25 57.1354 56.25 56.75ZM56.25 54.6719C56.25 54.2969 56.4688 54.1094 56.9062 54.1094H59.8594C60.0781 54.1094 60.2448 54.1615 60.3594 54.2656C60.474 54.3594 60.5312 54.4948 60.5312 54.6719C60.5312 55.0573 60.3073 55.25 59.8594 55.25H56.9062C56.4688 55.25 56.25 55.0573 56.25 54.6719ZM56.2812 50.5C56.2812 50.1042 56.5156 49.9062 56.9844 49.9062H59.9375C60.3958 49.9062 60.625 50.1042 60.625 50.5C60.625 50.8958 60.3958 51.0938 59.9375 51.0938H56.9844C56.5156 51.0938 56.2812 50.8958 56.2812 50.5ZM57.3281 61.4844C57.3281 61.6094 57.349 61.7031 57.3906 61.7656C57.4427 61.8177 57.5312 61.8385 57.6562 61.8281H59.1094C59.2344 61.8281 59.3229 61.8021 59.375 61.75C59.4375 61.6979 59.4635 61.6094 59.4531 61.4844V59.6719C59.4531 59.5469 59.4271 59.4583 59.375 59.4062C59.3229 59.3542 59.2344 59.3333 59.1094 59.3438H57.6562C57.5312 59.3438 57.4427 59.3698 57.3906 59.4219C57.3385 59.4635 57.3177 59.5469 57.3281 59.6719V61.4844Z" fill="white"/>
<circle cx="119" cy="40" r="21" fill="white"/>
<circle cx="119" cy="40" r="26.5" stroke="white" stroke-width="3"/>
<path d="M119.85 50.8469V50.8554H119.625H119.1H117.6C115.612 50.8554 114 49.2357 114 47.2371V46.9742C114 46.4117 114.129 45.8576 114.38 45.3545L119.85 50.8469ZM119.85 50.8469H120.6V50.8554V51.474M119.85 50.8469L119.851 50.8554L119.908 51.5947C120.146 51.5764 120.377 51.5354 120.6 51.474M119.85 50.8469C120.84 50.7706 121.689 50.2024 122.159 49.3855C122.345 49.0611 122.309 48.6684 122.098 48.3873L119.85 50.8469ZM120.6 51.474C121.038 51.3535 121.442 51.1543 121.797 50.8928C121.8 51.0232 121.818 51.1553 121.854 51.2868C122.059 52.0554 122.77 52.5469 123.529 52.5085C123.026 53.111 123.013 54.0041 123.527 54.6265C124.111 55.333 125.155 55.4247 125.854 54.8402L125.855 54.8395L126.817 54.0341C126.941 54.4589 127.234 54.8332 127.661 55.0477C128.478 55.4585 129.47 55.1241 129.876 54.3076C129.876 54.3075 129.876 54.3075 129.876 54.3074L132.292 49.454L132.292 49.4538C132.594 48.8464 132.75 48.178 132.75 47.5028V47.2371C132.75 44.8279 130.806 42.8688 128.4 42.8688H126.375H126.15H125.4V43.0002C124.962 43.1207 124.558 43.32 124.203 43.5816C124.2 43.451 124.182 43.3189 124.146 43.1875L123.422 43.3814L124.146 43.1875C123.94 42.4178 123.228 41.9261 122.468 41.9658C122.971 41.3634 122.984 40.4702 122.47 39.8477C121.886 39.1412 120.843 39.0496 120.143 39.634L120.142 39.6347L119.182 40.4383C119.058 40.0142 118.765 39.6407 118.339 39.4265C117.522 39.0157 116.53 39.3501 116.124 40.1667C116.124 40.1667 116.124 40.1668 116.124 40.1668L113.708 45.0203L113.708 45.0204C113.406 45.6281 113.25 46.2966 113.25 46.9742V47.2371C113.25 49.6463 115.194 51.6054 117.6 51.6054H119.625H119.85H120.6V51.474ZM120.079 47.9155C120.238 48.1209 120.439 48.2799 120.662 48.3876C120.64 48.417 120.62 48.4481 120.601 48.4809M120.079 47.9155C120.238 47.7102 120.439 47.5512 120.662 47.4435C120.64 47.4141 120.62 47.3829 120.601 47.3502M120.079 47.9155C120.033 47.975 119.99 48.0384 119.952 48.1056M120.079 47.9155C120.033 47.856 119.99 47.7926 119.952 47.7254C119.951 47.7245 119.951 47.7236 119.95 47.7227L120.601 47.3502M120.601 47.3502C120.404 47.011 120.041 46.7848 119.625 46.7848C119.003 46.7848 118.5 47.2908 118.5 47.9155C118.5 48.5403 119.003 49.0463 119.625 49.0463C120.041 49.0463 120.404 48.8201 120.601 48.4809M120.601 47.3502L119.952 48.1056M120.601 48.4809L119.95 48.1084C119.951 48.1075 119.951 48.1065 119.952 48.1056M120.601 48.4809L119.952 48.1044C119.952 48.1048 119.952 48.1052 119.952 48.1056M126.048 46.3686C126.01 46.4359 125.967 46.4995 125.921 46.5591C125.967 46.6183 126.009 46.6813 126.048 46.748M126.048 46.3686C126.048 46.369 126.048 46.3694 126.048 46.3698L125.399 45.9933L126.05 46.3658C126.049 46.3667 126.049 46.3676 126.048 46.3686ZM126.048 46.3686C126.118 46.2497 126.24 46.178 126.375 46.178C126.579 46.178 126.75 46.3446 126.75 46.5587C126.75 46.7728 126.579 46.9394 126.375 46.9394C126.239 46.9394 126.117 46.8673 126.048 46.748M126.048 46.748C126.048 46.7478 126.048 46.7477 126.048 46.7476L125.399 47.124L126.048 46.7484C126.048 46.7482 126.048 46.7481 126.048 46.748ZM120.862 42.3665L122.118 42.022L122.121 42.0213C122.123 42.0208 122.125 42.0203 122.127 42.0198L121.777 41.6005M120.862 42.3665L122.128 42.0195L121.777 41.6005M120.862 42.3665L121.777 41.6005M120.862 42.3665L121.777 41.6005M123.011 49.259C123.006 49.2604 123.001 49.2618 122.996 49.2632C123.092 48.7902 122.977 48.2954 122.682 47.9155C123.083 47.3992 123.152 46.6707 122.81 46.0731L122.809 46.0711C122.669 45.8288 122.503 45.6037 122.313 45.4001L122.986 45.216L122.789 44.4923L122.987 45.2157L122.986 45.2159C122.992 45.2144 122.997 45.213 123.002 45.2115C122.906 45.6855 123.023 46.1798 123.318 46.5588C122.917 47.0751 122.848 47.8035 123.19 48.4011L123.191 48.4031C123.331 48.6454 123.497 48.8705 123.687 49.0741L123.013 49.2585L123.011 49.259ZM122.098 47.4438C122.309 47.1627 122.345 46.77 122.159 46.4456C121.979 46.1339 121.744 45.8581 121.466 45.6319L122.098 47.4438ZM123.74 52.2984L123.739 52.2988L123.87 52.4553C123.87 52.4552 123.871 52.4552 123.871 52.4551L123.74 52.2984ZM122.257 42.1761C122.258 42.176 122.258 42.1758 122.258 42.1756L121.218 43.0465L122.179 42.2421L122.18 42.2408L122.257 42.1761Z" stroke="#1E88E5" stroke-width="1.5"/>
<path d="M128.4 47.2002H129.142V47.9424H128.4V47.2002Z" fill="#F44336"/>
<path d="M129.513 47.5574C129.513 47.3601 129.679 47.2002 129.884 47.2002C130.089 47.2002 130.256 47.3601 130.256 47.5574V48.3136H129.513V47.5574Z" fill="#4CAF50"/>
<path d="M128.771 49.0557C128.976 49.0557 129.142 48.8896 129.142 48.6846C129.142 48.4796 128.976 48.3135 128.771 48.3135C128.566 48.3135 128.4 48.4796 128.4 48.6846C128.4 48.8896 128.566 49.0557 128.771 49.0557Z" fill="#FFC107"/>
<path d="M129.884 48.499L130.206 49.0557H129.563L129.884 48.499Z" fill="#1E88E5"/>
<path d="M108.613 26.7532L108.613 26.7532L108.611 26.754C107.954 26.9536 107.5 27.5614 107.5 28.251V30.079V33.1885C107.479 33.1881 107.458 33.1879 107.438 33.1879C105.812 33.1879 104.25 34.3101 104.25 35.969C104.25 37.6278 105.812 38.75 107.438 38.75C109.063 38.75 110.625 37.6278 110.625 35.969V31.2412L115.625 29.7414V31.5636C115.604 31.5633 115.583 31.5631 115.562 31.5631C113.937 31.5631 112.375 32.6853 112.375 34.3441C112.375 36.003 113.937 37.1252 115.562 37.1252C117.188 37.1252 118.75 36.003 118.75 34.3441V27.6417V25.8138C118.75 25.3228 118.518 24.8555 118.121 24.5604C117.722 24.2609 117.209 24.1755 116.739 24.3158L116.738 24.316L108.613 26.7532Z" fill="white" stroke="#1E88E5" stroke-width="1.5"/>
<path d="M106.3 34.9668H107.167V35.8334H106.3V34.9668Z" fill="#F44336"/>
<path d="M107.6 35.3839C107.6 35.1535 107.794 34.9668 108.033 34.9668C108.273 34.9668 108.467 35.1535 108.467 35.3839V36.2668H107.6V35.3839Z" fill="#4CAF50"/>
<path d="M106.733 37.1338C106.973 37.1338 107.167 36.9397 107.167 36.7004C107.167 36.4611 106.973 36.2671 106.733 36.2671C106.494 36.2671 106.3 36.4611 106.3 36.7004C106.3 36.9397 106.494 37.1338 106.733 37.1338Z" fill="#FFC107"/>
<path d="M108.033 36.4834L108.408 37.1334H107.658L108.033 36.4834Z" fill="#1E88E5"/>
</svg>
