<svg width="140" height="120" viewBox="0 0 140 120" fill="none" xmlns="http://www.w3.org/2000/svg">
<rect width="140" height="120" rx="10" fill="#1E88E5"/>
<path d="M18.1172 24.4531C16.8932 24.4531 16.2812 23.8411 16.2812 22.6172V16.8555C16.2812 16.4518 16.3724 16.1263 16.5547 15.8789C16.75 15.6315 17.069 15.4427 17.5117 15.3125L21.6133 14.2188C21.7565 14.1797 21.8932 14.1602 22.0234 14.1602C22.362 14.1602 22.5964 14.3424 22.7266 14.707C22.7656 14.7982 22.7852 14.8893 22.7852 14.9805C22.7852 15.1628 22.7266 15.3255 22.6094 15.4688C22.4922 15.599 22.3164 15.6901 22.082 15.7422L19.8945 16.25C18.9049 16.4974 18.3581 16.6341 18.2539 16.6602C18.0846 16.7122 17.974 16.7904 17.9219 16.8945C17.8698 16.9857 17.8372 17.1224 17.8242 17.3047V19.0039H21.6914C22.2643 19.0039 22.5508 19.2383 22.5508 19.707C22.5508 20.1758 22.2643 20.4102 21.6914 20.4102H17.8242V22.207C17.8242 22.7539 18.1107 23.0273 18.6836 23.0273H28.1562C28.7292 23.0273 29.0156 22.7539 29.0156 22.207V20.4102H24.8555C24.2956 20.4102 24.0156 20.1758 24.0156 19.707C24.0156 19.2383 24.2956 19.0039 24.8555 19.0039H29.0156V17.2656C29.0156 17.0052 28.9375 16.8034 28.7812 16.6602C28.638 16.5039 28.4297 16.4258 28.1562 16.4258H24.8945C24.3086 16.4258 24.0156 16.1849 24.0156 15.7031C24.0156 15.2214 24.3086 14.9805 24.8945 14.9805H28.625C29.3021 14.9805 29.7904 15.1302 30.0898 15.4297C30.4023 15.7292 30.5586 16.1914 30.5586 16.8164V22.5391C30.5586 23.1901 30.4089 23.6719 30.1094 23.9844C29.8229 24.2969 29.3542 24.4531 28.7031 24.4531H26.2812V28.9648C26.2812 29.2773 26.3268 29.5052 26.418 29.6484C26.5221 29.7786 26.6914 29.8633 26.9258 29.9023C27.1602 29.9414 27.5573 29.9609 28.1172 29.9609C29.1198 29.9609 29.7513 29.9089 30.0117 29.8047C30.194 29.7396 30.3177 29.5703 30.3828 29.2969C30.4609 29.0104 30.5 28.5221 30.5 27.832C30.5 27.2461 30.7669 26.9531 31.3008 26.9531C31.8216 26.9531 32.082 27.2461 32.082 27.832C32.0951 28.9779 32.0169 29.7852 31.8477 30.2539C31.6784 30.7357 31.3268 31.0547 30.793 31.2109C30.2721 31.3672 29.3672 31.4453 28.0781 31.4453C27.1797 31.4453 26.5026 31.4128 26.0469 31.3477C25.6042 31.2826 25.2591 31.1263 25.0117 30.8789C24.7773 30.6315 24.6602 30.2344 24.6602 29.6875V24.4531H21.8672C21.6979 26.2109 21.138 27.7148 20.1875 28.9648C19.237 30.2018 18.013 31.0482 16.5156 31.5039C15.9948 31.6602 15.6107 31.7383 15.3633 31.7383C14.8424 31.7383 14.582 31.4974 14.582 31.0156C14.582 30.7812 14.6471 30.612 14.7773 30.5078C14.9076 30.4036 15.1484 30.306 15.5 30.2148C16.8542 29.8633 17.9479 29.1732 18.7812 28.1445C19.6146 27.1159 20.1094 25.8854 20.2656 24.4531H18.1172ZM43.6445 31.7969C43.1237 31.7969 42.8633 31.5495 42.8633 31.0547C42.8633 30.7812 43.0195 30.5273 43.332 30.293C44.5299 29.3555 45.3633 28.0469 45.832 26.3672C46.2878 24.7526 46.5156 22.8385 46.5156 20.625L46.4961 20.1953C46.4831 19.6224 46.724 19.3359 47.2188 19.3359C47.7266 19.3359 47.9674 19.5768 47.9414 20.0586L47.8828 21.4453C47.8568 22.0703 47.8307 22.5391 47.8047 22.8516C48.4297 25.9766 49.7122 28.3138 51.6523 29.8633C52.069 30.1758 52.2773 30.4883 52.2773 30.8008C52.2773 31.4128 52.0039 31.7188 51.457 31.7188C50.9753 31.7188 50.2917 31.1393 49.4062 29.9805C48.5339 28.8607 47.8568 27.4935 47.375 25.8789C47.0625 27.6628 46.4831 29.0951 45.6367 30.1758C44.8034 31.2565 44.1393 31.7969 43.6445 31.7969ZM34.3867 23.5156C34.3867 23.0469 34.6602 22.8125 35.207 22.8125H43.7227C44.2305 22.8125 44.4844 23.0534 44.4844 23.5352C44.4844 23.9909 44.2305 24.2188 43.7227 24.2188H42.8828V29.8828C42.8828 30.5599 42.7266 31.0547 42.4141 31.3672C42.1146 31.6797 41.6393 31.8164 40.9883 31.7773H39.9727C39.4909 31.7773 39.25 31.5234 39.25 31.0156C39.25 30.4948 39.4909 30.2344 39.9727 30.2344H40.7344C41.1641 30.2344 41.3854 30.0195 41.3984 29.5898V24.2188H35.207C34.6602 24.2188 34.3867 23.9844 34.3867 23.5156ZM34.4258 15.625C34.4258 15.1562 34.6927 14.9219 35.2266 14.9219H43.7422C44.25 14.9219 44.5039 15.1628 44.5039 15.6445C44.5039 15.8659 44.4388 16.0417 44.3086 16.1719C44.1784 16.2891 43.9896 16.3477 43.7422 16.3477H42.8828V20.7422C42.8828 21.3411 42.7396 21.7904 42.4531 22.0898C42.1667 22.3763 41.7109 22.526 41.0859 22.5391H40.5977C40.1029 22.5391 39.8555 22.2982 39.8555 21.8164C39.8555 21.3346 40.0768 21.0938 40.5195 21.0938H40.9297C41.2292 21.0938 41.3854 20.9375 41.3984 20.625V16.3477H35.2266C34.6927 16.3477 34.4258 16.1068 34.4258 15.625ZM35.207 26.5234C35.207 26.0026 35.3112 25.6315 35.5195 25.4102C35.7409 25.1758 36.0924 25.0781 36.5742 25.1172H38.957C39.4648 25.1172 39.8294 25.2279 40.0508 25.4492C40.2852 25.6706 40.3828 26.0286 40.3438 26.5234V28.2617C40.3438 28.7695 40.2331 29.1406 40.0117 29.375C39.7904 29.6094 39.4388 29.707 38.957 29.668H36.5742C36.0924 29.668 35.7344 29.5573 35.5 29.3359C35.2786 29.1146 35.181 28.7565 35.207 28.2617V26.5234ZM35.207 18.5156C35.207 18.0078 35.3177 17.6432 35.5391 17.4219C35.7604 17.1875 36.1055 17.0898 36.5742 17.1289H38.957C39.4648 17.1289 39.8294 17.2396 40.0508 17.4609C40.2852 17.6823 40.3828 18.0339 40.3438 18.5156V19.8047C40.3438 20.3255 40.2331 20.7031 40.0117 20.9375C39.8034 21.1589 39.4518 21.25 38.957 21.2109H36.5742C36.0794 21.2109 35.7214 21.1003 35.5 20.8789C35.2786 20.6576 35.181 20.2995 35.207 19.8047V18.5156ZM36.5547 28.0078C36.5547 28.2943 36.6979 28.4375 36.9844 28.4375H38.625C38.8984 28.4375 39.0352 28.2943 39.0352 28.0078V26.7578C39.0352 26.4844 38.8984 26.3477 38.625 26.3477H36.9844C36.6849 26.3477 36.5417 26.4844 36.5547 26.7578V28.0078ZM36.5547 19.6094C36.5547 19.7526 36.5872 19.8633 36.6523 19.9414C36.7174 20.0065 36.8281 20.0391 36.9844 20.0391H38.625C38.8984 20.0391 39.0352 19.8958 39.0352 19.6094V18.7109C39.0352 18.4375 38.8984 18.3008 38.625 18.3008H36.9844C36.6849 18.3008 36.5417 18.4375 36.5547 18.7109V19.6094ZM43.2344 21.1523C43.2344 20.931 43.3125 20.6901 43.4688 20.4297C44.3281 19.0234 44.9727 17.2201 45.4023 15.0195C45.5195 14.3945 45.806 14.082 46.2617 14.082C46.7956 14.082 47.0625 14.2969 47.0625 14.7266C47.0625 14.9219 46.8021 15.8138 46.2812 17.4023H50.6172C51.6198 17.4023 52.1211 17.7604 52.1211 18.4766C52.1211 18.6979 52.0039 19.0625 51.7695 19.5703L51.3203 20.6055C50.9557 21.4388 50.6432 22.0508 50.3828 22.4414C50.1354 22.832 49.9141 23.0273 49.7188 23.0273C49.4583 23.0273 49.2695 22.9753 49.1523 22.8711C49.0352 22.7669 48.9766 22.6042 48.9766 22.3828C48.9766 22.2396 49.0482 22.0117 49.1914 21.6992L49.9922 19.8047L50.2656 19.082V19.043C50.2656 18.9518 50.1419 18.9062 49.8945 18.9062H45.7539L44.9531 20.7617C44.6406 21.4779 44.3151 21.8359 43.9766 21.8359C43.4818 21.8359 43.2344 21.6081 43.2344 21.1523ZM59.5234 30.2148C58.4427 30.2148 57.5378 30.0195 56.8086 29.6289C56.1055 29.2643 55.5781 28.7826 55.2266 28.1836C54.888 27.5716 54.7188 26.901 54.7188 26.1719C54.7188 25.3516 54.9271 24.6224 55.3438 23.9844C55.7734 23.3464 56.3008 22.8255 56.9258 22.4219C56.5091 21.9271 56.2031 21.4648 56.0078 21.0352C55.8255 20.6055 55.7344 20.1237 55.7344 19.5898C55.7344 18.9779 55.8841 18.4049 56.1836 17.8711C56.4831 17.3372 56.9128 16.9206 57.4727 16.6211C58.0326 16.3086 58.6771 16.1523 59.4062 16.1523C60.2656 16.1523 61.138 16.4388 62.0234 17.0117C62.1146 17.0638 62.1927 17.1484 62.2578 17.2656C62.3359 17.3828 62.375 17.5 62.375 17.6172C62.375 17.8125 62.3034 17.9818 62.1602 18.125C62.0299 18.2552 61.8672 18.3203 61.6719 18.3203C61.5938 18.3203 61.4766 18.2878 61.3203 18.2227C60.6823 17.8841 60.0703 17.7148 59.4844 17.7148C58.8464 17.7148 58.3385 17.8906 57.9609 18.2422C57.5964 18.5807 57.4141 18.9974 57.4141 19.4922C57.4141 19.8828 57.4792 20.2148 57.6094 20.4883C57.7266 20.7487 57.9023 21.0156 58.1367 21.2891C58.3711 21.5495 58.7812 21.9531 59.3672 22.5L63.4297 26.3281C63.5469 26.1589 63.7552 25.7747 64.0547 25.1758C64.1198 25.0195 64.224 24.8958 64.3672 24.8047C64.5104 24.7135 64.6667 24.668 64.8359 24.668C65.0703 24.668 65.2656 24.7461 65.4219 24.9023C65.5911 25.0586 65.6758 25.2539 65.6758 25.4883C65.6758 25.5924 65.6432 25.7227 65.5781 25.8789C65.3307 26.4258 65.0182 26.9596 64.6406 27.4805L65.9492 28.7109C66.0664 28.8151 66.1445 28.9128 66.1836 29.0039C66.2357 29.0951 66.2617 29.2122 66.2617 29.3555C66.2617 29.5898 66.1836 29.7852 66.0273 29.9414C65.8711 30.0977 65.6758 30.1758 65.4414 30.1758C65.207 30.1758 64.9987 30.0977 64.8164 29.9414L63.5273 28.6914C62.9544 29.1732 62.3229 29.5508 61.6328 29.8242C60.9557 30.0846 60.2526 30.2148 59.5234 30.2148ZM56.4375 26.2305C56.4375 26.6862 56.5612 27.1029 56.8086 27.4805C57.069 27.8451 57.4206 28.138 57.8633 28.3594C58.319 28.5677 58.8203 28.6719 59.3672 28.6719C60.4609 28.6719 61.4505 28.3138 62.3359 27.5977L58.0195 23.5352C57.5508 23.8346 57.1667 24.2188 56.8672 24.6875C56.5807 25.1432 56.4375 25.6576 56.4375 26.2305ZM74.9727 31.7578C74.2956 31.7578 73.957 31.4714 73.957 30.8984C73.957 30.3385 74.2956 30.0586 74.9727 30.0586H76.1836C76.4701 30.0586 76.6914 29.9805 76.8477 29.8242C77.0039 29.668 77.0885 29.4401 77.1016 29.1406V25.4102H69.7188C69.0938 25.4102 68.7812 25.1497 68.7812 24.6289C68.7812 24.1081 69.0938 23.8477 69.7188 23.8477H77.1016V20.8984H71.3203C70.7083 20.8984 70.4023 20.6445 70.4023 20.1367C70.4023 19.6419 70.7083 19.3945 71.3203 19.3945H77.1016V16.6016L76.2812 16.6211C73.3125 16.8555 71.4896 16.9727 70.8125 16.9727C70.0964 16.9727 69.7383 16.6927 69.7383 16.1328C69.7383 15.9115 69.8359 15.7161 70.0312 15.5469C70.1354 15.4427 70.6042 15.3906 71.4375 15.3906C72.4531 15.3906 73.612 15.3385 74.9141 15.2344C76.5547 15.1042 77.8893 14.9805 78.918 14.8633C80.3372 14.707 81.444 14.5508 82.2383 14.3945C83.2148 14.1992 83.7552 14.1016 83.8594 14.1016C84.4974 14.1016 84.8164 14.4076 84.8164 15.0195C84.8164 15.1628 84.7448 15.293 84.6016 15.4102C84.4714 15.5273 84.2565 15.6315 83.957 15.7227C83.4232 15.9049 81.6719 16.1458 78.7031 16.4453V19.3945H84.0156C84.3281 19.3945 84.556 19.4596 84.6992 19.5898C84.8555 19.707 84.9336 19.8958 84.9336 20.1562C84.9336 20.651 84.6276 20.8984 84.0156 20.8984H78.7031V23.8477H85.5391C86.1901 23.8477 86.5156 24.1081 86.5156 24.6289C86.5156 25.1497 86.1901 25.4102 85.5391 25.4102H78.7031V29.4727C78.7552 30.293 78.5924 30.8854 78.2148 31.25C77.8372 31.6276 77.2448 31.7969 76.4375 31.7578H74.9727ZM90.1484 31.7188C89.5495 31.7188 89.25 31.4258 89.25 30.8398C89.25 30.306 89.5495 30.0391 90.1484 30.0391H90.7344C91.2161 30.0391 91.457 29.7917 91.457 29.2969V25.293C90.2982 25.6185 89.6536 25.7812 89.5234 25.7812C88.9896 25.7812 88.7227 25.5078 88.7227 24.9609C88.7227 24.4922 89.0742 24.1927 89.7773 24.0625L91.457 23.6523V19.3555H89.7188C89.4062 19.3555 89.1719 19.2969 89.0156 19.1797C88.8724 19.0495 88.8008 18.8542 88.8008 18.5938C88.8008 18.0859 89.1068 17.832 89.7188 17.832H91.457V15.0195C91.457 14.3945 91.724 14.082 92.2578 14.082C92.7917 14.082 93.0586 14.3945 93.0586 15.0195V17.832H94.1719C94.8099 17.832 95.1289 18.0859 95.1289 18.5938C95.1289 19.1016 94.8099 19.3555 94.1719 19.3555H93.0586V23.2422L94.0938 22.9297L94.3477 22.8906C94.5951 22.8516 94.7839 22.8971 94.9141 23.0273C95.0443 23.1576 95.1094 23.3464 95.1094 23.5938C95.1094 23.9062 94.9531 24.1341 94.6406 24.2773C94.3802 24.3945 93.8529 24.5768 93.0586 24.8242V29.7656C93.1107 30.4427 92.974 30.9375 92.6484 31.25C92.3229 31.5625 91.8021 31.7188 91.0859 31.7188H90.1484ZM95.832 15.1367C95.832 14.4987 96.0924 14.1797 96.6133 14.1797C97.1341 14.1797 97.3945 14.4987 97.3945 15.1367V16.6406C99.8815 16.1979 101.997 15.6576 103.742 15.0195C104.107 14.8763 104.367 14.8047 104.523 14.8047C104.732 14.8047 104.921 14.8958 105.09 15.0781C105.259 15.2865 105.344 15.4948 105.344 15.7031C105.344 16.0286 105.194 16.25 104.895 16.3672C103.436 16.9531 100.936 17.5 97.3945 18.0078V19.6875C97.3945 19.8568 97.4466 19.9935 97.5508 20.0977C97.6549 20.2018 97.7917 20.2604 97.9609 20.2734C98.4427 20.2995 99.1654 20.3125 100.129 20.3125L102.277 20.332C102.915 20.332 103.397 20.3255 103.723 20.3125C104.061 20.2865 104.289 20.2344 104.406 20.1562C104.68 19.974 104.829 19.6029 104.855 19.043C104.868 18.7826 104.94 18.5872 105.07 18.457C105.214 18.3138 105.409 18.2422 105.656 18.2422C106.242 18.2422 106.535 18.5091 106.535 19.043C106.535 20.1758 106.301 20.918 105.832 21.2695C105.337 21.6471 104.51 21.8424 103.352 21.8555C102.688 21.8685 101.665 21.875 100.285 21.875C99.1914 21.875 98.332 21.8685 97.707 21.8555C97.082 21.8424 96.6133 21.6992 96.3008 21.4258C95.9883 21.1523 95.832 20.7878 95.832 20.332V15.1367ZM95.9297 24.8242C95.9297 24.1992 96.0664 23.75 96.3398 23.4766C96.6133 23.1901 97.0495 23.0664 97.6484 23.1055H103.762C104.387 23.1055 104.842 23.2422 105.129 23.5156C105.415 23.7891 105.539 24.2318 105.5 24.8438V29.7461C105.5 30.3711 105.363 30.8268 105.09 31.1133C104.816 31.3997 104.374 31.5234 103.762 31.4844H97.6484C97.0365 31.4844 96.5872 31.3477 96.3008 31.0742C96.0143 30.8008 95.8906 30.3646 95.9297 29.7656V24.8242ZM97.5312 29.375C97.5312 29.8307 97.7721 30.0586 98.2539 30.0586H103.176C103.671 30.0586 103.918 29.8242 103.918 29.3555V27.9492H97.5312V29.375ZM103.918 26.5625V25.2539C103.918 25.0195 103.853 24.8438 103.723 24.7266C103.592 24.5964 103.41 24.5312 103.176 24.5312H98.2539C97.7721 24.5312 97.5312 24.7721 97.5312 25.2539V26.5625H103.918ZM117.473 31.3086C116.887 31.3086 116.464 31.1784 116.203 30.918C115.943 30.6706 115.819 30.2669 115.832 29.707V28.1445C115.832 27.6758 116.073 27.4414 116.555 27.4414C117.049 27.4414 117.297 27.6758 117.297 28.1445V29.3359C117.297 29.7135 117.499 29.9154 117.902 29.9414H120.109V26.7578H115.754C115.207 26.7578 114.934 26.5365 114.934 26.0938C114.934 25.638 115.207 25.4102 115.754 25.4102H120.109V23.3984H117.766C117.167 24.375 116.724 24.8633 116.438 24.8633C115.995 24.8633 115.773 24.6549 115.773 24.2383C115.773 24.0951 115.936 23.8216 116.262 23.418C116.665 22.9232 117.017 22.4284 117.316 21.9336L115.285 22.3633C114.855 22.3633 114.641 22.1419 114.641 21.6992C114.641 21.3737 115.038 21.1393 115.832 20.9961C116.717 20.8398 117.414 20.6966 117.922 20.5664L116.965 19.9219C116.535 19.6484 116.32 19.4336 116.32 19.2773C116.32 18.9128 116.522 18.7305 116.926 18.7305C117.238 18.7305 118.02 19.1927 119.27 20.1172L120.715 19.4922L119.035 18.5547C118.749 18.3854 118.605 18.2227 118.605 18.0664C118.605 17.6888 118.807 17.5 119.211 17.5C119.523 17.5 120.402 17.9427 121.848 18.8281C123.137 18.0078 123.781 17.5 123.781 17.3047C123.781 17.2005 123.703 17.1484 123.547 17.1484H118.293C117.03 18.125 116.21 18.6133 115.832 18.6133C115.402 18.6133 115.188 18.3724 115.188 17.8906C115.188 17.6302 115.454 17.3503 115.988 17.0508C117.173 16.3477 118.195 15.5469 119.055 14.6484C119.471 14.2318 119.784 14.0234 119.992 14.0234C120.526 14.0234 120.793 14.2253 120.793 14.6289C120.793 14.8112 120.493 15.1888 119.895 15.7617L119.855 15.8008H124.465C125.493 15.8008 126.008 16.1198 126.008 16.7578C126.008 17.1615 125.565 17.7148 124.68 18.418C123.742 19.1602 122.844 19.7591 121.984 20.2148C121.047 20.7096 120.025 21.1328 118.918 21.4844L118.605 21.9727L118.586 22.0312H124.855C125.402 22.0312 125.676 22.2591 125.676 22.7148C125.676 23.1706 125.402 23.3984 124.855 23.3984H121.555V25.4102H125.754C126.301 25.4102 126.574 25.638 126.574 26.0938C126.574 26.5365 126.301 26.7578 125.754 26.7578H121.555V29.9414H123.879C124.27 29.9414 124.478 29.7331 124.504 29.3164V28.1445C124.504 27.6497 124.751 27.4023 125.246 27.4023C125.728 27.4023 125.969 27.6497 125.969 28.1445V29.707C125.969 30.2799 125.839 30.6966 125.578 30.957C125.331 31.2174 124.934 31.3346 124.387 31.3086H117.473ZM108.684 18.2617C108.684 17.7669 108.97 17.5195 109.543 17.5195H114.211C114.797 17.5195 115.09 17.7669 115.09 18.2617C115.09 18.7565 114.797 19.0039 114.211 19.0039H109.543C108.97 19.0039 108.684 18.7565 108.684 18.2617ZM109.152 26.9141C109.048 25.7682 109.595 25.2344 110.793 25.3125H112.961C113.56 25.3125 113.996 25.4427 114.27 25.7031C114.543 25.9505 114.654 26.3542 114.602 26.9141V29.5312C114.602 30.1042 114.471 30.5208 114.211 30.7812C113.951 31.0547 113.534 31.1784 112.961 31.1523H110.793C110.194 31.1523 109.758 31.0221 109.484 30.7617C109.211 30.5013 109.1 30.0911 109.152 29.5312V26.9141ZM109.211 23.4375C109.211 22.9688 109.484 22.7344 110.031 22.7344H113.723C114.283 22.7344 114.562 22.9753 114.562 23.457C114.562 23.6784 114.491 23.8542 114.348 23.9844C114.204 24.1016 113.996 24.1602 113.723 24.1602H110.031C109.484 24.1602 109.211 23.9193 109.211 23.4375ZM109.211 20.8398C109.211 20.3711 109.484 20.1367 110.031 20.1367H113.723C113.996 20.1367 114.204 20.2018 114.348 20.332C114.491 20.4492 114.562 20.6185 114.562 20.8398C114.562 21.3216 114.283 21.5625 113.723 21.5625H110.031C109.484 21.5625 109.211 21.3216 109.211 20.8398ZM109.25 15.625C109.25 15.1302 109.543 14.8828 110.129 14.8828H113.82C114.393 14.8828 114.68 15.1302 114.68 15.625C114.68 16.1198 114.393 16.3672 113.82 16.3672H110.129C109.543 16.3672 109.25 16.1198 109.25 15.625ZM110.559 29.3555C110.559 29.5117 110.585 29.6289 110.637 29.707C110.702 29.7721 110.812 29.7982 110.969 29.7852H112.785C112.941 29.7852 113.052 29.7526 113.117 29.6875C113.195 29.6224 113.228 29.5117 113.215 29.3555V27.0898C113.215 26.9336 113.182 26.8229 113.117 26.7578C113.052 26.6927 112.941 26.6667 112.785 26.6797H110.969C110.812 26.6797 110.702 26.7122 110.637 26.7773C110.572 26.8294 110.546 26.9336 110.559 27.0898V29.3555Z" fill="white"/>
<circle cx="70" cy="75" r="25.2" fill="white"/>
<circle cx="70" cy="75" r="31.5" stroke="white" stroke-width="3"/>
<path d="M73.6949 77.5949L73.7815 77.5711L73.7841 77.5704C74.7598 77.3066 75.7677 77.8808 76.0308 78.8637C76.0994 79.1203 76.1104 79.3795 76.0715 79.627C76.5696 79.1964 77.1689 78.8792 77.83 78.7161V78.5926H78.58H78.85H81.28C84.0839 78.5926 86.35 80.8757 86.35 83.6845V84.0034C86.35 84.7905 86.1681 85.5697 85.8159 86.2778L85.8158 86.2779L82.9167 92.1021C82.4661 93.008 81.367 93.3787 80.4606 92.9233C79.9112 92.6472 79.5617 92.1323 79.4728 91.568L78.13 92.6924L78.1292 92.6931C77.3529 93.3414 76.1959 93.2396 75.5483 92.4562C74.9063 91.6796 75.0055 90.5234 75.7836 89.8732L75.7832 89.8735L76.2645 90.4481L75.784 89.8728L73.6949 77.5949ZM73.6949 77.5949L73.8126 77.4962M73.6949 77.5949L73.8126 77.4962M79.6518 90.4399L79.6399 90.4638L79.1006 91.5479H79.4698C79.4175 91.1899 79.4699 90.813 79.6426 90.4652C79.6428 90.4647 79.643 90.4643 79.6433 90.4638L79.6518 90.4399ZM79.6518 90.4399L81.0876 89.2375L79.6518 90.4399ZM73.8126 77.4962C73.8128 77.4961 73.813 77.4959 73.8132 77.4957C74.5911 76.8455 74.6903 75.6894 74.0483 74.9129C73.4007 74.1295 72.2438 74.0276 71.4674 74.676L71.4666 74.6766L70.1268 75.7986M71.2717 84.1953C71.3351 84.3058 71.4083 84.407 71.4894 84.4987C71.4083 84.5903 71.3351 84.6915 71.2717 84.802C71.1627 84.9886 70.9685 85.1055 70.75 85.1055C70.4219 85.1055 70.15 84.8377 70.15 84.4987C70.15 84.1596 70.4219 83.8918 70.75 83.8918C70.9685 83.8918 71.1627 84.0087 71.2717 84.1953ZM74.5712 86.3585C74.8079 85.7189 74.6686 85.0004 74.2229 84.4987C74.7343 83.923 74.8423 83.062 74.4418 82.3622L74.4407 82.3603C74.2366 82.0062 73.983 81.6839 73.6893 81.403L74.7437 81.1145C74.7439 81.1144 74.7442 81.1143 74.7444 81.1143C74.8431 81.0874 74.9376 81.0529 75.0275 81.0117C74.7889 81.653 74.9321 82.3703 75.377 82.8705C74.8657 83.4461 74.7577 84.3071 75.1582 85.0069L75.1593 85.0088C75.3634 85.3629 75.617 85.6851 75.9107 85.966L74.8552 86.2549L74.8534 86.2554C74.755 86.2826 74.6608 86.3172 74.5712 86.3585ZM75.9002 89.7755L77.6376 89.2987L79.0188 88.1418L77.2813 88.6187L75.9002 89.7755ZM78.11 82.871C78.1914 82.7792 78.2647 82.6778 78.3283 82.5671C78.4372 82.3805 78.6315 82.2636 78.85 82.2636C79.1781 82.2636 79.45 82.5314 79.45 82.8704C79.45 83.2095 79.1781 83.4773 78.85 83.4773C78.6311 83.4773 78.4365 83.3599 78.3277 83.1727C78.2642 83.063 78.1911 82.9623 78.11 82.871Z" stroke="#1E88E5" stroke-width="1.5"/>
<path d="M81.2798 83.64H82.1705V84.5307H81.2798V83.64Z" fill="#F44336"/>
<path d="M82.6157 84.0687C82.6157 83.8319 82.8151 83.64 83.0611 83.64C83.307 83.64 83.5064 83.8319 83.5064 84.0687V84.9761H82.6157V84.0687Z" fill="#4CAF50"/>
<path d="M81.7251 85.8668C81.9711 85.8668 82.1705 85.6674 82.1705 85.4214C82.1705 85.1755 81.9711 84.9761 81.7251 84.9761C81.4792 84.9761 81.2798 85.1755 81.2798 85.4214C81.2798 85.6674 81.4792 85.8668 81.7251 85.8668Z" fill="#FFC107"/>
<path d="M83.0612 85.1987L83.4469 85.8668H82.6755L83.0612 85.1987Z" fill="#1E88E5"/>
<path d="M57.5791 59.2476L57.5791 59.2476L57.5767 59.2483C56.8507 59.4688 56.35 60.14 56.35 60.9012V63.0948V66.9814C56.2754 66.9775 56.2003 66.9755 56.125 66.9755C54.23 66.9755 52.45 68.2795 52.45 70.1628C52.45 72.046 54.23 73.35 56.125 73.35C58.0199 73.35 59.8 72.046 59.8 70.1628V64.3779L66.1 62.4881V65.0316C66.0254 65.0277 65.9503 65.0257 65.875 65.0257C63.98 65.0257 62.2 66.3297 62.2 68.213C62.2 70.0962 63.98 71.4002 65.875 71.4002C67.7699 71.4002 69.55 70.0962 69.55 68.213V60.1701V57.9765C69.55 57.4342 69.2936 56.9182 68.8557 56.5926C68.4152 56.2622 67.8485 56.1676 67.3298 56.3227L67.3291 56.3229L57.5791 59.2476Z" fill="white" stroke="#1E88E5" stroke-width="1.5"/>
<path d="M54.76 68.96H55.8V69.9999H54.76V68.96Z" fill="#F44336"/>
<path d="M56.3201 69.4605C56.3201 69.1841 56.5529 68.96 56.8401 68.96C57.1272 68.96 57.36 69.1841 57.36 69.4605V70.52H56.3201V69.4605Z" fill="#4CAF50"/>
<path d="M55.28 71.5601C55.5672 71.5601 55.8 71.3273 55.8 71.0401C55.8 70.7529 55.5672 70.5201 55.28 70.5201C54.9928 70.5201 54.76 70.7529 54.76 71.0401C54.76 71.3273 54.9928 71.5601 55.28 71.5601Z" fill="#FFC107"/>
<path d="M56.84 70.7801L57.2903 71.5601H56.3896L56.84 70.7801Z" fill="#1E88E5"/>
</svg>
