<svg width="160" height="80" viewBox="0 0 160 80" fill="none" xmlns="http://www.w3.org/2000/svg">
<rect width="160" height="80" rx="10" fill="#4CAF50"/>
<path d="M39.7031 23.625C39.2448 23.625 38.9115 23.526 38.7031 23.3281C38.5052 23.1302 38.4219 22.8125 38.4531 22.375V19.8438C38.4531 19.3854 38.5521 19.0521 38.75 18.8438C38.9479 18.6354 39.2656 18.5469 39.7031 18.5781H40.5156V17.7969C40.5156 17.6198 40.5521 17.4948 40.625 17.4219C40.7083 17.3385 40.8281 17.2969 40.9844 17.2969C41.3073 17.2969 41.4688 17.4635 41.4688 17.7969V18.5781H42.5156V17.7969C42.5156 17.4635 42.6771 17.2969 43 17.2969C43.3125 17.2969 43.4688 17.4635 43.4688 17.7969V18.5781H44.375C44.8333 18.5781 45.1615 18.6771 45.3594 18.875C45.5677 19.0729 45.6615 19.3958 45.6406 19.8438V22.375C45.6406 22.8229 45.5365 23.151 45.3281 23.3594C45.1302 23.5677 44.8125 23.6562 44.375 23.625H39.7031ZM31.9844 22.8906C31.9844 22.5885 32.0469 22.3542 32.1719 22.1875C32.3073 22.0208 32.5 21.9271 32.75 21.9062V18.9375C32.75 18.1667 33.1406 17.7812 33.9219 17.7812H36.3594C37.1406 17.7812 37.5312 18.1667 37.5312 18.9375V21.9062C37.7708 21.9271 37.9583 22.0208 38.0938 22.1875C38.2396 22.3542 38.3177 22.5885 38.3281 22.8906V23.9844C38.3281 24.401 38.1562 24.6094 37.8125 24.6094C37.4688 24.6094 37.2969 24.401 37.2969 23.9844V23.375C37.2969 23.1146 37.1667 22.9844 36.9062 22.9844H33.4219C33.1615 22.9844 33.026 23.1146 33.0156 23.375V24.25C33.0156 24.6562 32.8438 24.8594 32.5 24.8594C32.1562 24.8594 31.9844 24.6562 31.9844 24.25V22.8906ZM33.0938 24.9219C33.0938 24.1823 33.474 23.8125 34.2344 23.8125H36.2031C36.9531 23.8125 37.3281 24.1823 37.3281 24.9219V30.125C37.3281 30.5729 37.224 30.9062 37.0156 31.125C36.8073 31.3542 36.4844 31.4688 36.0469 31.4688H35.5156C35.3281 31.4688 35.1875 31.4219 35.0938 31.3281C35 31.2448 34.9531 31.1094 34.9531 30.9219C34.9531 30.5469 35.1354 30.3594 35.5 30.3594H35.7656C35.9115 30.3594 36.026 30.3177 36.1094 30.2344C36.1927 30.151 36.2344 30.0312 36.2344 29.875V28.8281H34.2188V30.8906C34.2188 31.3073 34.0312 31.5156 33.6562 31.5156C33.4792 31.5156 33.3385 31.4635 33.2344 31.3594C33.1406 31.2552 33.0938 31.099 33.0938 30.8906V24.9219ZM34.5781 21.8906V20.7656C34.5781 20.1302 34.8906 19.8125 35.5156 19.8125H36.5469V19.2969C36.5469 19.0365 36.4115 18.901 36.1406 18.8906H34.1719C33.9115 18.8906 33.7708 19.0312 33.75 19.3125V21.8906H34.5781ZM36.2344 27.8281V26.8594H34.2188V27.8281H36.2344ZM36.2344 25.8594V25.25C36.2344 24.9792 36.099 24.8438 35.8281 24.8438H34.625C34.3542 24.8438 34.2188 24.9792 34.2188 25.25V25.8594H36.2344ZM36.5469 21.8906V20.7969H35.9531C35.7031 20.7969 35.5781 20.9167 35.5781 21.1562V21.8906H36.5469ZM37.6719 30.7344C37.6719 30.3906 37.8438 30.2188 38.1875 30.2188H40.0312L39.75 29.0156C39.3854 29.0156 39.1042 28.9375 38.9062 28.7812C38.7083 28.6146 38.6094 28.375 38.6094 28.0625V27.0625C38.6094 26.7396 38.6979 26.4948 38.875 26.3281C39.0625 26.151 39.3333 26.0625 39.6875 26.0625H44.2656C44.9948 26.0625 45.3594 26.3854 45.3594 27.0312V28.0156C45.3594 28.6823 44.9792 29.0156 44.2188 29.0156L43.9531 30.2188H45.625C45.9688 30.2188 46.1406 30.3906 46.1406 30.7344C46.1406 31.0781 45.9688 31.25 45.625 31.25H38.1875C37.8438 31.25 37.6719 31.0781 37.6719 30.7344ZM38.2344 24.8594C38.2344 24.5156 38.4167 24.3438 38.7812 24.3438H45.6406C45.974 24.3438 46.1406 24.5156 46.1406 24.8594C46.1406 25.1927 45.974 25.3594 45.6406 25.3594H38.7812C38.6042 25.3594 38.4688 25.3177 38.375 25.2344C38.2812 25.1406 38.2344 25.0156 38.2344 24.8594ZM39.5312 22.2812C39.5312 22.5104 39.651 22.6302 39.8906 22.6406H40.5312V21.5312H39.5312V22.2812ZM40.5312 20.6406V19.5781H39.8906C39.6719 19.5781 39.5521 19.6979 39.5312 19.9375V20.6406H40.5312ZM39.7656 27.7344C39.7656 27.9531 39.8802 28.0729 40.1094 28.0938H43.8594C44.0677 28.0938 44.1823 27.974 44.2031 27.7344V27.3438C44.2031 27.1146 44.0885 26.9948 43.8594 26.9844H40.1094C39.8802 26.9844 39.7656 27.1042 39.7656 27.3438V27.7344ZM41.0781 30.1094L41.0938 30.2188H42.8906L43.1094 29.0625V29.0156H40.8281L41.0781 30.1094ZM42.5312 22.6406V21.5312H41.4531V22.6406H42.5312ZM42.5312 20.6406V19.5781H41.4531V20.6406H42.5312ZM44.1875 22.6406C44.4271 22.6406 44.5469 22.5208 44.5469 22.2812V21.5312H43.4531V22.6406H44.1875ZM44.5469 20.6406V19.9375C44.5469 19.6979 44.4271 19.5781 44.1875 19.5781H43.4531V20.6406H44.5469ZM49.5156 31.5156C49.1094 31.5156 48.9062 31.3073 48.9062 30.8906V23.8125C48.9062 23.3646 49 23.0417 49.1875 22.8438C49.3854 22.6354 49.7031 22.5417 50.1406 22.5625H53.4688C53.9167 22.5625 54.2396 22.6615 54.4375 22.8594C54.6458 23.0573 54.7344 23.375 54.7031 23.8125V30C54.7031 30.5312 54.5833 30.9167 54.3438 31.1562C54.1042 31.4062 53.7292 31.5104 53.2188 31.4688H52.5469C52.099 31.4688 51.875 31.2708 51.875 30.875C51.875 30.4583 52.099 30.25 52.5469 30.25H52.9531C53.3073 30.25 53.4948 30.0625 53.5156 29.6875V28.25H50.0938V30.8906C50.0938 31.3073 49.901 31.5156 49.5156 31.5156ZM47.8906 21.2812C47.8906 20.8542 48.3281 20.6406 49.2031 20.6406H49.4531L50.1406 18.5156C50.2344 18.224 50.3177 17.9792 50.3906 17.7812C50.4635 17.5729 50.5312 17.4427 50.5938 17.3906C50.7188 17.2969 50.8854 17.25 51.0938 17.25C51.5521 17.25 51.7812 17.4427 51.7812 17.8281C51.7812 18.2448 51.3854 19.1719 50.5938 20.6094L53.5938 20.4688L53.0938 19.7656C52.875 19.4531 52.7656 19.2604 52.7656 19.1875C52.7656 18.8438 52.9688 18.6719 53.375 18.6719C53.625 18.6719 54.0625 19.1094 54.6875 19.9844C55.3125 20.8698 55.625 21.4531 55.625 21.7344C55.625 22.1302 55.4219 22.3281 55.0156 22.3281C54.7865 22.3281 54.5156 22.0417 54.2031 21.4688L48.7031 21.9219C48.4427 21.9427 48.2396 21.8958 48.0938 21.7812C47.9583 21.6667 47.8906 21.5 47.8906 21.2812ZM53.5156 27.1562V25.9844H50.0938V27.1562H53.5156ZM53.5156 24.8906V24.1875C53.5156 23.8542 53.3542 23.6875 53.0312 23.6875H50.5781C50.2552 23.6875 50.0938 23.8542 50.0938 24.1875V24.8906H53.5156ZM55.9375 25.0469C55.9375 24.7969 55.9844 24.6146 56.0781 24.5C56.1823 24.375 56.3385 24.3125 56.5469 24.3125C56.9427 24.3125 57.1406 24.5573 57.1406 25.0469V26.6719C57.7969 26.4635 58.4427 26.2292 59.0781 25.9688C59.724 25.6979 60.0938 25.5417 60.1875 25.5C60.3854 25.4167 60.5469 25.375 60.6719 25.375C61.1094 25.375 61.3281 25.5938 61.3281 26.0312C61.3281 26.2604 61.2135 26.4375 60.9844 26.5625C60.8073 26.6458 60.3177 26.8177 59.5156 27.0781C58.9635 27.2552 58.1719 27.4635 57.1406 27.7031V29.3594C57.1406 29.5365 57.2031 29.6719 57.3281 29.7656C57.4531 29.8594 57.6302 29.9115 57.8594 29.9219L58.25 29.9531L58.8906 29.9688C59.3906 29.9792 59.8333 29.9531 60.2188 29.8906C60.5521 29.8281 60.7448 29.5938 60.7969 29.1875C60.849 28.8125 61.0573 28.625 61.4219 28.625C61.8802 28.625 62.1094 28.8229 62.1094 29.2188C62.1094 30.1146 61.7917 30.6823 61.1562 30.9219C60.8021 31.0573 59.9635 31.125 58.6406 31.125C57.3906 31.125 56.6302 31.0312 56.3594 30.8438C56.0781 30.6458 55.9375 30.3333 55.9375 29.9062V25.0469ZM55.9375 18.125C55.9375 17.625 56.1406 17.375 56.5469 17.375C56.9427 17.375 57.1406 17.625 57.1406 18.125V19.7656L58.3281 19.3438L60.1719 18.5938C60.3698 18.5104 60.5312 18.4688 60.6562 18.4688C61.0729 18.4688 61.2812 18.6719 61.2812 19.0781C61.2812 19.3177 61.1562 19.5052 60.9062 19.6406C60.6667 19.7656 60.2135 19.9271 59.5469 20.125C58.724 20.3542 57.9219 20.5677 57.1406 20.7656V22.125C57.1406 22.4896 57.3802 22.6875 57.8594 22.7188L58.25 22.75L58.8906 22.7656C59.3281 22.776 59.7708 22.7448 60.2188 22.6719C60.5521 22.6094 60.7448 22.3698 60.7969 21.9531C60.849 21.5781 61.0573 21.3906 61.4219 21.3906C61.8802 21.3906 62.1094 21.5885 62.1094 21.9844C62.1094 22.8698 61.7917 23.4427 61.1562 23.7031C60.8646 23.8281 60.026 23.8906 58.6406 23.8906C57.3698 23.8906 56.6094 23.7969 56.3594 23.6094C56.0781 23.4115 55.9375 23.1042 55.9375 22.6875V18.125ZM46.2188 46.1719C45.3542 46.1719 44.6302 46.0156 44.0469 45.7031C43.4844 45.4115 43.0625 45.026 42.7812 44.5469C42.5104 44.0573 42.375 43.5208 42.375 42.9375C42.375 42.2812 42.5417 41.6979 42.875 41.1875C43.2188 40.6771 43.6406 40.2604 44.1406 39.9375C43.8073 39.5417 43.5625 39.1719 43.4062 38.8281C43.2604 38.4844 43.1875 38.099 43.1875 37.6719C43.1875 37.1823 43.3073 36.724 43.5469 36.2969C43.7865 35.8698 44.1302 35.5365 44.5781 35.2969C45.026 35.0469 45.5417 34.9219 46.125 34.9219C46.8125 34.9219 47.5104 35.151 48.2188 35.6094C48.2917 35.651 48.3542 35.7188 48.4062 35.8125C48.4688 35.9062 48.5 36 48.5 36.0938C48.5 36.25 48.4427 36.3854 48.3281 36.5C48.224 36.6042 48.0938 36.6562 47.9375 36.6562C47.875 36.6562 47.7812 36.6302 47.6562 36.5781C47.1458 36.3073 46.6562 36.1719 46.1875 36.1719C45.6771 36.1719 45.2708 36.3125 44.9688 36.5938C44.6771 36.8646 44.5312 37.1979 44.5312 37.5938C44.5312 37.9062 44.5833 38.1719 44.6875 38.3906C44.7812 38.599 44.9219 38.8125 45.1094 39.0312C45.2969 39.2396 45.625 39.5625 46.0938 40L49.3438 43.0625C49.4375 42.9271 49.6042 42.6198 49.8438 42.1406C49.8958 42.0156 49.9792 41.9167 50.0938 41.8438C50.2083 41.7708 50.3333 41.7344 50.4688 41.7344C50.6562 41.7344 50.8125 41.7969 50.9375 41.9219C51.0729 42.0469 51.1406 42.2031 51.1406 42.3906C51.1406 42.474 51.1146 42.5781 51.0625 42.7031C50.8646 43.1406 50.6146 43.5677 50.3125 43.9844L51.3594 44.9688C51.4531 45.0521 51.5156 45.1302 51.5469 45.2031C51.5885 45.276 51.6094 45.3698 51.6094 45.4844C51.6094 45.6719 51.5469 45.8281 51.4219 45.9531C51.2969 46.0781 51.1406 46.1406 50.9531 46.1406C50.7656 46.1406 50.599 46.0781 50.4531 45.9531L49.4219 44.9531C48.9635 45.3385 48.4583 45.6406 47.9062 45.8594C47.3646 46.0677 46.8021 46.1719 46.2188 46.1719ZM43.75 42.9844C43.75 43.349 43.849 43.6823 44.0469 43.9844C44.2552 44.276 44.5365 44.5104 44.8906 44.6875C45.2552 44.8542 45.6562 44.9375 46.0938 44.9375C46.9688 44.9375 47.7604 44.651 48.4688 44.0781L45.0156 40.8281C44.6406 41.0677 44.3333 41.375 44.0938 41.75C43.8646 42.1146 43.75 42.526 43.75 42.9844ZM34.375 63.5156C33.9688 63.5156 33.7656 63.2865 33.7656 62.8281V56.8125C33.1198 57.6146 32.6667 58.0156 32.4062 58.0156C32.0417 58.0156 31.8594 57.7969 31.8594 57.3594C31.8594 57.1719 32 56.9219 32.2812 56.6094C33.4583 55.3594 34.3073 54.2552 34.8281 53.2969C35.0052 52.9948 35.2135 52.8438 35.4531 52.8438C35.8802 52.8438 36.0938 53.0365 36.0938 53.4219C36.0938 53.6198 35.7344 54.2135 35.0156 55.2031V62.8281C35.0156 63.2865 34.8021 63.5156 34.375 63.5156ZM31.9062 52.2344C31.9062 51.9635 32.0729 51.724 32.4062 51.5156C33.25 50.974 34.0625 50.3281 34.8438 49.5781C35.0521 49.3698 35.2552 49.2656 35.4531 49.2656C35.8802 49.2656 36.0938 49.4635 36.0938 49.8594C36.0938 50.1615 35.5781 50.7448 34.5469 51.6094C33.526 52.4635 32.8438 52.8906 32.5 52.8906C32.1042 52.8906 31.9062 52.6719 31.9062 52.2344ZM35.4375 60.5781C35.4375 60.2031 35.6458 60.0156 36.0625 60.0156H39.9375V58.75H36.7969C36.3906 58.75 36.1875 58.5677 36.1875 58.2031C36.1875 57.849 36.3906 57.6719 36.7969 57.6719H39.9375V56.375H37.375C36.9688 56.375 36.7656 56.1979 36.7656 55.8438C36.7656 55.4896 36.9688 55.3125 37.375 55.3125H39.9375V53.9375H36.9531C36.5469 53.9375 36.3438 53.7552 36.3438 53.3906C36.3438 53.0365 36.5469 52.8594 36.9531 52.8594H39.9375V51.5312H37.3906C36.974 51.5312 36.7656 51.349 36.7656 50.9844C36.7656 50.6198 36.974 50.4375 37.3906 50.4375H39.9375V50C39.9375 49.4896 40.151 49.2344 40.5781 49.2344C40.9948 49.2344 41.2031 49.4896 41.2031 50V50.4375H43.6094C44.0677 50.4375 44.401 50.5417 44.6094 50.75C44.8281 50.9479 44.9271 51.276 44.9062 51.7344V52.8594H45.5312C45.9375 52.8594 46.1406 53.0417 46.1406 53.4062C46.1406 53.7604 45.9375 53.9375 45.5312 53.9375H44.9062V55.0781C44.9062 55.5469 44.8021 55.8854 44.5938 56.0938C44.3854 56.3021 44.0573 56.3958 43.6094 56.375H41.2031V57.6719H44.5781C44.974 57.6719 45.1719 57.8542 45.1719 58.2188C45.1719 58.5729 44.974 58.75 44.5781 58.75H41.2031V60.0156H45.4219C45.8594 60.0156 46.0781 60.2031 46.0781 60.5781C46.0781 60.9531 45.8594 61.1406 45.4219 61.1406H41.2031V62.7969C41.2031 63.3073 40.9948 63.5625 40.5781 63.5625C40.151 63.5625 39.9375 63.3073 39.9375 62.7969V61.1406H36.0625C35.6458 61.1406 35.4375 60.9531 35.4375 60.5781ZM43.1562 55.3125C43.4688 55.3125 43.6354 55.1458 43.6562 54.8125V53.9375H41.2031V55.3125H43.1562ZM43.6562 52.8594V52.0312C43.6562 51.7188 43.4896 51.5521 43.1562 51.5312H41.2031V52.8594H43.6562ZM59 63.3438C58.5417 63.3438 58.3125 63.1198 58.3125 62.6719C58.3125 62.4115 58.4115 62.2292 58.6094 62.125C58.7031 62.0729 58.9792 62.0312 59.4375 62C60.0521 61.9688 60.3906 61.4948 60.4531 60.5781C60.5781 58.9323 60.6667 57.5312 60.7188 56.375L60.7812 54.5938C60.7917 54.2083 60.599 54.0156 60.2031 54.0156H58.9531C58.8698 55.9427 58.7031 57.4896 58.4531 58.6562C58.1719 59.9583 57.7865 61.0208 57.2969 61.8438C56.7552 62.7604 56.3021 63.2188 55.9375 63.2188C55.5521 63.2188 55.3594 63.0156 55.3594 62.6094C55.3594 62.526 55.3854 62.4375 55.4375 62.3438C55.5 62.2604 55.5938 62.1458 55.7188 62C57.0417 60.5104 57.7396 57.849 57.8125 54.0156H56.7656C56.3073 54.0156 56.0781 53.8125 56.0781 53.4062C56.0781 53.1979 56.1302 53.0469 56.2344 52.9531C56.349 52.849 56.526 52.7969 56.7656 52.7969H57.8438L57.8594 51.3438C57.8594 50.7188 57.8646 50.2448 57.875 49.9219C57.8854 49.4948 58.0781 49.2812 58.4531 49.2812C58.8385 49.2812 59.0312 49.5 59.0312 49.9375L59.0156 51.3438L59 52.7969H60.5469C61.5052 52.7969 61.9688 53.1979 61.9375 54L61.8125 57.1875C61.7188 59.4062 61.5833 60.9531 61.4062 61.8281C61.3021 62.3177 61.0469 62.6927 60.6406 62.9531C60.2344 63.2135 59.6875 63.3438 59 63.3438ZM48.1719 62.2969C48.1719 61.901 48.4635 61.6875 49.0469 61.6562L51.7969 61.4688V60.3594H49.2344C48.849 60.3594 48.6562 60.1823 48.6562 59.8281C48.6562 59.474 48.849 59.2969 49.2344 59.2969H51.7969V58.4531H50.0781C49.6719 58.4531 49.3646 58.3594 49.1562 58.1719C48.9479 57.974 48.8438 57.6927 48.8438 57.3281V54.9531C48.8438 54.5781 48.9427 54.2917 49.1406 54.0938C49.349 53.8958 49.651 53.7969 50.0469 53.7969H51.7969V53H48.7656C48.3802 53 48.1875 52.8177 48.1875 52.4531C48.1875 52.099 48.3802 51.9219 48.7656 51.9219H51.7969V51.0312L51.375 51.0781L49.1875 51.2344C48.7604 51.2656 48.5469 51.0729 48.5469 50.6562C48.5469 50.3854 48.6719 50.2083 48.9219 50.125H48.9375L49.7031 50.0938C51.974 50 53.6615 49.776 54.7656 49.4219L55.0625 49.3906C55.5 49.349 55.7188 49.5625 55.7188 50.0312C55.7188 50.3229 55.4427 50.526 54.8906 50.6406C54.7448 50.6719 54.2708 50.7448 53.4688 50.8594L52.8906 50.9375V51.9219H55.5938C55.9896 51.9219 56.1875 52.1042 56.1875 52.4688C56.1875 52.6458 56.1406 52.7812 56.0469 52.875C55.9531 52.9583 55.8021 53 55.5938 53H52.8906V53.7969H54.7188C55.5208 53.7969 55.9219 54.1719 55.9219 54.9219V57.2969C55.9219 58.0677 55.5104 58.4531 54.6875 58.4531H52.8906V59.2969H55.4219C55.6406 59.2969 55.7917 59.3385 55.875 59.4219C55.9688 59.5052 56.0156 59.6406 56.0156 59.8281C56.0156 60.0156 55.9688 60.151 55.875 60.2344C55.7917 60.3177 55.6406 60.3594 55.4219 60.3594H52.8906V61.4062L55.25 61.1719C55.3958 61.1615 55.5104 61.2031 55.5938 61.2969C55.6875 61.3802 55.7344 61.5104 55.7344 61.6875C55.7344 61.9792 55.5885 62.151 55.2969 62.2031L49.2969 62.8906L48.8125 62.9219C48.3854 62.9531 48.1719 62.7448 48.1719 62.2969ZM49.9844 57.1094C49.9844 57.3594 50.1094 57.4844 50.3594 57.4844H51.7969V56.5781H49.9844V57.1094ZM51.7969 55.6406V54.7656H50.3594C50.1094 54.7656 49.9844 54.8958 49.9844 55.1562V55.6406H51.7969ZM54.4062 57.4844C54.6562 57.4844 54.7812 57.3594 54.7812 57.1094V56.5781H52.8906V57.4844H54.4062ZM54.7812 55.6406V55.1562C54.7812 55.0208 54.75 54.9219 54.6875 54.8594C54.6354 54.7969 54.5417 54.7656 54.4062 54.7656H52.8906V55.6406H54.7812Z" fill="white"/>
<circle cx="119" cy="40" r="21" fill="white"/>
<circle cx="119" cy="40" r="26.5" stroke="white" stroke-width="3"/>
<path d="M104.972 29.3574H106.014V30.3991H104.972V29.3574Z" fill="#F44336"/>
<path d="M106.535 29.8587C106.535 29.5819 106.768 29.3574 107.056 29.3574C107.343 29.3574 107.576 29.5819 107.576 29.8587V30.9199H106.535V29.8587Z" fill="#4CAF50"/>
<path d="M105.493 31.9616C105.781 31.9616 106.014 31.7284 106.014 31.4408C106.014 31.1531 105.781 30.9199 105.493 30.9199C105.205 30.9199 104.972 31.1531 104.972 31.4408C104.972 31.7284 105.205 31.9616 105.493 31.9616Z" fill="#FFC107"/>
<path d="M107.055 31.1807L107.506 31.9619H106.604L107.055 31.1807Z" fill="#1E88E5"/>
<path d="M119.491 33.2357C118.979 37.4073 115.435 40.5557 111.222 40.5557C110.888 40.5557 110.553 40.536 110.218 40.4966C108.013 40.2212 106.025 39.1193 104.666 37.368C103.288 35.6167 102.678 33.4325 102.954 31.2286C103.465 27.0571 107.009 23.889 111.222 23.889C111.557 23.889 111.892 23.9086 112.226 23.948C114.431 24.2235 116.42 25.3254 117.778 27.0767C119.156 28.8476 119.766 31.0122 119.491 33.2357ZM105.808 28.1393C105.488 28.173 105.066 28.3222 104.606 28.5869C104.45 28.6764 104.327 28.8138 104.252 28.9771C103.922 29.6969 103.69 30.4784 103.584 31.3073C103.507 31.8968 103.503 32.4864 103.569 33.0658C103.646 33.7484 104.454 34.0373 105.066 33.724C105.476 33.5138 105.979 33.2743 106.596 32.9996C107.98 32.3986 110.799 31.3426 112.459 30.7206C112.67 30.6416 112.776 30.4048 112.772 30.1794C112.768 29.9848 112.67 29.7984 112.491 29.7237C111.546 29.3317 110.216 28.7898 109.155 28.4541C107.679 28.0016 106.438 28.0802 105.808 28.1393ZM115.342 26.0309C115.323 25.8119 115.178 25.6342 114.986 25.5262C114.116 25.0354 113.156 24.721 112.148 24.5973C111.832 24.5777 111.518 24.5581 111.203 24.5581C111.111 24.5581 111.078 24.6862 111.155 24.7346C111.86 25.1755 112.613 25.8951 113.23 26.9587C113.561 27.5372 113.795 28.0323 114.001 28.4674C114.07 28.6132 114.221 28.6945 114.382 28.7074C114.571 28.7224 114.767 28.6432 114.838 28.4677C115.038 27.971 115.293 27.1771 115.357 26.4472C115.357 26.2849 115.352 26.1474 115.342 26.0309ZM113.86 30.9334C114.254 31.2483 114.825 31.2285 115.12 30.8548C115.415 30.4809 115.337 29.9299 114.943 29.6151C114.549 29.3002 113.978 29.3199 113.683 29.6937C113.368 30.048 113.447 30.6185 113.86 30.9334ZM115.475 34.6918C115.28 33.5737 115.072 32.7493 114.906 32.1633C114.85 31.9659 114.656 31.8508 114.45 31.8438C114.237 31.8365 114.013 31.931 113.929 32.1266C113.801 32.4227 113.654 32.7553 113.486 33.1174C112.758 34.731 112.069 35.9706 111.478 36.8364C110.922 37.6194 110.419 38.2137 109.982 38.6643C109.585 39.0728 109.73 39.7977 110.297 39.8471C110.612 39.8865 110.927 39.9061 111.222 39.9061C112.45 39.9061 113.61 39.6161 114.654 39.0997C114.806 39.0244 114.935 38.9076 115.017 38.7591C115.826 37.2949 115.606 35.4591 115.475 34.6918ZM118.662 30.3133C118.54 29.8447 118.06 29.5721 117.583 29.657C117.456 29.6798 117.323 29.7048 117.188 29.7331C116.908 29.789 116.598 29.8747 116.301 29.9691C116.096 30.0344 115.98 30.2496 115.974 30.4652C115.968 30.666 116.049 30.8654 116.221 30.9686C116.775 31.3001 117.407 31.7084 117.857 32.0746C118.259 32.3995 118.927 32.1728 118.888 31.6576C118.853 31.2051 118.778 30.7552 118.662 30.3133Z" fill="#4CAF50" stroke="#4CAF50" stroke-width="0.5"/>
<path d="M123.448 38.311C123.448 38.4774 123.461 38.6425 123.486 38.8051L123.484 38.8022L123.483 38.8015C122.847 37.8294 121.551 37.5688 120.589 38.2176L121.149 39.0466L120.589 38.2176C119.628 38.8665 119.388 40.1668 120.012 41.1201L120.012 41.1201L120.013 41.1227L120.673 42.1244C120.674 42.1247 120.674 42.1251 120.674 42.1254C121.262 43.0223 122.029 43.7607 122.908 44.3056V52.6091C122.908 53.7519 123.82 54.7089 124.987 54.7089C125.649 54.7089 126.228 54.4015 126.607 53.9271C126.985 54.4015 127.564 54.7089 128.226 54.7089C129.393 54.7089 130.305 53.7519 130.305 52.6091V44.3156C131.214 43.7573 132.002 42.9913 132.599 42.0611L132.6 42.0604L133.213 41.1015L133.215 41.0993C133.828 40.1355 133.564 38.8458 132.61 38.2081C131.64 37.5604 130.353 37.8471 129.727 38.8094C129.752 38.6455 129.765 38.4789 129.765 38.311C129.765 37.4684 129.437 36.6566 128.847 36.0552C128.256 35.4531 127.45 35.1113 126.607 35.1113C125.763 35.1113 124.957 35.4531 124.366 36.0552L125.08 36.7556L124.366 36.0552C123.776 36.6566 123.448 37.4684 123.448 38.311Z" fill="white" stroke="#4CAF50" stroke-width="2"/>
<path d="M125.066 44.0298H126.298V45.2616H125.066V44.0298Z" fill="#F44336"/>
<path d="M126.914 44.6226C126.914 44.2952 127.19 44.0298 127.53 44.0298C127.87 44.0298 128.146 44.2952 128.146 44.6226V45.8775H126.914V44.6226Z" fill="#4CAF50"/>
<path d="M125.682 47.1098C126.022 47.1098 126.298 46.834 126.298 46.4938C126.298 46.1537 126.022 45.8779 125.682 45.8779C125.342 45.8779 125.066 46.1537 125.066 46.4938C125.066 46.834 125.342 47.1098 125.682 47.1098Z" fill="#FFC107"/>
<path d="M127.53 46.1855L128.063 47.1094H126.996L127.53 46.1855Z" fill="#1E88E5"/>
<path d="M136.546 43.3308L136.559 43.3399C136.909 43.3482 137.195 43.6399 137.195 44.0007M136.546 43.3308L136.945 44.5753C136.945 44.7782 136.799 44.951 136.602 44.9812M136.546 43.3308L136.442 43.3476L134.793 43.6135M136.546 43.3308L134.793 43.6135M137.195 44.0007L136.945 44.0005H137.195V44.0007ZM137.195 44.0007V44.5753C137.195 44.8972 136.964 45.1782 136.641 45.2281M136.641 45.2281L136.642 45.228L136.602 44.9812M136.641 45.2281L135.198 45.4611M136.641 45.2281C136.641 45.2282 136.641 45.2282 136.64 45.2283L136.602 44.9812M136.602 44.9812L135.198 45.4611M135.198 45.4611V45.2479H134.952L134.952 45.2475L135.198 45.4611ZM135.198 45.4611L134.994 45.494L134.944 48.9071C134.946 48.9168 134.948 48.9266 134.948 48.9368C134.948 49.3853 134.41 49.749 133.747 49.749C133.083 49.749 132.545 49.3853 132.545 48.9368C132.545 48.4882 133.083 48.1245 133.747 48.1245C133.923 48.1245 134.09 48.1512 134.24 48.1982V47.938M135.198 45.4611V48.8472C135.198 48.8634 135.197 48.8782 135.195 48.8908M134.953 45.4977L134.954 45.4977C134.954 45.4977 134.954 45.4977 134.953 45.4977ZM134.953 45.4977C134.952 45.4977 134.952 45.4977 134.951 45.4977M134.953 45.4977L134.952 45.4977L134.951 45.4977M134.951 45.4977C134.951 45.4977 134.951 45.4977 134.951 45.4977M134.951 45.4977L134.951 45.4977H134.951M134.951 45.4977C134.95 45.4977 134.95 45.4977 134.95 45.4977L134.951 45.4977ZM135.195 48.8908C135.193 48.8772 135.191 48.8667 135.19 48.8612L135.19 48.8606L135.189 48.8537C135.188 48.852 135.188 48.8516 135.188 48.8516L135.189 48.8545L135.19 48.8624L134.941 48.8859L135.187 48.9261C135.187 48.9308 135.186 48.9346 135.185 48.9368C135.185 48.938 135.185 48.9387 135.185 48.9388C135.185 48.939 135.185 48.9389 135.185 48.9372L135.185 48.9368L135.187 48.9302L135.187 48.9302C135.189 48.9236 135.193 48.9096 135.195 48.8908ZM135.195 48.8908C135.197 48.9038 135.198 48.9195 135.198 48.9368C135.198 49.269 134.999 49.5407 134.736 49.7182C134.472 49.8967 134.122 49.999 133.747 49.999C133.372 49.999 133.021 49.8967 132.757 49.7182C132.494 49.5407 132.295 49.269 132.295 48.9368C132.295 48.6045 132.494 48.3328 132.757 48.1553C133.021 47.9768 133.372 47.8745 133.747 47.8745C133.92 47.8745 134.086 47.897 134.24 47.938M134.24 47.938V44.2665C134.24 43.9447 134.47 43.6638 134.793 43.6135M134.24 47.938C134.327 47.9612 134.411 47.9905 134.49 48.025V44.2665L134.793 43.6135" fill="#4CAF50" stroke="#4CAF50" stroke-width="0.5"/>
</svg>
