<svg width="140" height="120" viewBox="0 0 140 120" fill="none" xmlns="http://www.w3.org/2000/svg">
<rect width="140" height="120" rx="10" fill="#4CAF50"/>
<path d="M33.2305 21.0312C32.6576 21.0312 32.2409 20.9076 31.9805 20.6602C31.7331 20.4128 31.6289 20.0156 31.668 19.4688V16.3047C31.668 15.7318 31.7917 15.3151 32.0391 15.0547C32.2865 14.7943 32.6836 14.6836 33.2305 14.7227H34.2461V13.7461C34.2461 13.5247 34.2917 13.3685 34.3828 13.2773C34.487 13.1732 34.6367 13.1211 34.832 13.1211C35.2357 13.1211 35.4375 13.3294 35.4375 13.7461V14.7227H36.7461V13.7461C36.7461 13.3294 36.9479 13.1211 37.3516 13.1211C37.7422 13.1211 37.9375 13.3294 37.9375 13.7461V14.7227H39.0703C39.6432 14.7227 40.0534 14.8464 40.3008 15.0938C40.5612 15.3411 40.6784 15.7448 40.6523 16.3047V19.4688C40.6523 20.0286 40.5221 20.4388 40.2617 20.6992C40.0143 20.9596 39.6172 21.0703 39.0703 21.0312H33.2305ZM23.582 20.1133C23.582 19.7357 23.6602 19.4427 23.8164 19.2344C23.9857 19.026 24.2266 18.9089 24.5391 18.8828V15.1719C24.5391 14.2083 25.0273 13.7266 26.0039 13.7266H29.0508C30.0273 13.7266 30.5156 14.2083 30.5156 15.1719V18.8828C30.8151 18.9089 31.0495 19.026 31.2188 19.2344C31.401 19.4427 31.4987 19.7357 31.5117 20.1133V21.4805C31.5117 22.0013 31.2969 22.2617 30.8672 22.2617C30.4375 22.2617 30.2227 22.0013 30.2227 21.4805V20.7188C30.2227 20.3932 30.0599 20.2305 29.7344 20.2305H25.3789C25.0534 20.2305 24.8841 20.3932 24.8711 20.7188V21.8125C24.8711 22.3203 24.6562 22.5742 24.2266 22.5742C23.7969 22.5742 23.582 22.3203 23.582 21.8125V20.1133ZM24.9688 22.6523C24.9688 21.7279 25.444 21.2656 26.3945 21.2656H28.8555C29.793 21.2656 30.2617 21.7279 30.2617 22.6523V29.1562C30.2617 29.7161 30.1315 30.1328 29.8711 30.4062C29.6107 30.6927 29.207 30.8359 28.6602 30.8359H27.9961C27.7617 30.8359 27.5859 30.7773 27.4688 30.6602C27.3516 30.556 27.293 30.3867 27.293 30.1523C27.293 29.6836 27.5208 29.4492 27.9766 29.4492H28.3086C28.4909 29.4492 28.6341 29.3971 28.7383 29.293C28.8424 29.1888 28.8945 29.0391 28.8945 28.8438V27.5352H26.375V30.1133C26.375 30.6341 26.1406 30.8945 25.6719 30.8945C25.4505 30.8945 25.2747 30.8294 25.1445 30.6992C25.0273 30.569 24.9688 30.3737 24.9688 30.1133V22.6523ZM26.8242 18.8633V17.457C26.8242 16.6628 27.2148 16.2656 27.9961 16.2656H29.2852V15.6211C29.2852 15.2956 29.1159 15.1263 28.7773 15.1133H26.3164C25.9909 15.1133 25.8151 15.2891 25.7891 15.6406V18.8633H26.8242ZM28.8945 26.2852V25.0742H26.375V26.2852H28.8945ZM28.8945 23.8242V23.0625C28.8945 22.724 28.7253 22.5547 28.3867 22.5547H26.8828C26.5443 22.5547 26.375 22.724 26.375 23.0625V23.8242H28.8945ZM29.2852 18.8633V17.4961H28.543C28.2305 17.4961 28.0742 17.6458 28.0742 17.9453V18.8633H29.2852ZM30.6914 29.918C30.6914 29.4883 30.9062 29.2734 31.3359 29.2734H33.6406L33.2891 27.7695C32.8333 27.7695 32.4818 27.6719 32.2344 27.4766C31.987 27.2682 31.8633 26.9688 31.8633 26.5781V25.3281C31.8633 24.9245 31.974 24.6185 32.1953 24.4102C32.4297 24.1888 32.7682 24.0781 33.2109 24.0781H38.9336C39.8451 24.0781 40.3008 24.4818 40.3008 25.2891V26.5195C40.3008 27.3529 39.8255 27.7695 38.875 27.7695L38.543 29.2734H40.6328C41.0625 29.2734 41.2773 29.4883 41.2773 29.918C41.2773 30.3477 41.0625 30.5625 40.6328 30.5625H31.3359C30.9062 30.5625 30.6914 30.3477 30.6914 29.918ZM31.3945 22.5742C31.3945 22.1445 31.6224 21.9297 32.0781 21.9297H40.6523C41.069 21.9297 41.2773 22.1445 41.2773 22.5742C41.2773 22.9909 41.069 23.1992 40.6523 23.1992H32.0781C31.8568 23.1992 31.6875 23.1471 31.5703 23.043C31.4531 22.9258 31.3945 22.7695 31.3945 22.5742ZM33.0156 19.3516C33.0156 19.638 33.1654 19.7878 33.4648 19.8008H34.2656V18.4141H33.0156V19.3516ZM34.2656 17.3008V15.9727H33.4648C33.1914 15.9727 33.0417 16.1224 33.0156 16.4219V17.3008H34.2656ZM33.3086 26.168C33.3086 26.4414 33.4518 26.5911 33.7383 26.6172H38.4258C38.6862 26.6172 38.8294 26.4674 38.8555 26.168V25.6797C38.8555 25.3932 38.7122 25.2435 38.4258 25.2305H33.7383C33.4518 25.2305 33.3086 25.3802 33.3086 25.6797V26.168ZM34.9492 29.1367L34.9688 29.2734H37.2148L37.4883 27.8281V27.7695H34.6367L34.9492 29.1367ZM36.7656 19.8008V18.4141H35.418V19.8008H36.7656ZM36.7656 17.3008V15.9727H35.418V17.3008H36.7656ZM38.8359 19.8008C39.1354 19.8008 39.2852 19.651 39.2852 19.3516V18.4141H37.918V19.8008H38.8359ZM39.2852 17.3008V16.4219C39.2852 16.1224 39.1354 15.9727 38.8359 15.9727H37.918V17.3008H39.2852ZM45.4961 30.8945C44.9883 30.8945 44.7344 30.6341 44.7344 30.1133V21.2656C44.7344 20.7057 44.8516 20.3021 45.0859 20.0547C45.3333 19.7943 45.7305 19.6771 46.2773 19.7031H50.4375C50.9974 19.7031 51.401 19.8268 51.6484 20.0742C51.9089 20.3216 52.0195 20.7188 51.9805 21.2656V29C51.9805 29.6641 51.8307 30.1458 51.5312 30.4453C51.2318 30.7578 50.763 30.888 50.125 30.8359H49.2852C48.7253 30.8359 48.4453 30.5885 48.4453 30.0938C48.4453 29.5729 48.7253 29.3125 49.2852 29.3125H49.793C50.2357 29.3125 50.4701 29.0781 50.4961 28.6094V26.8125H46.2188V30.1133C46.2188 30.6341 45.9779 30.8945 45.4961 30.8945ZM43.4648 18.1016C43.4648 17.5677 44.0117 17.3008 45.1055 17.3008H45.418L46.2773 14.6445C46.3945 14.2799 46.4987 13.974 46.5898 13.7266C46.681 13.4661 46.7656 13.3034 46.8438 13.2383C47 13.1211 47.2083 13.0625 47.4688 13.0625C48.0417 13.0625 48.3281 13.3034 48.3281 13.7852C48.3281 14.306 47.8333 15.4648 46.8438 17.2617L50.5938 17.0859L49.9688 16.207C49.6953 15.8164 49.5586 15.5755 49.5586 15.4844C49.5586 15.0547 49.8125 14.8398 50.3203 14.8398C50.6328 14.8398 51.1797 15.3867 51.9609 16.4805C52.7422 17.5872 53.1328 18.3164 53.1328 18.668C53.1328 19.1628 52.8789 19.4102 52.3711 19.4102C52.0846 19.4102 51.7461 19.0521 51.3555 18.3359L44.4805 18.9023C44.1549 18.9284 43.901 18.8698 43.7188 18.7266C43.5495 18.5833 43.4648 18.375 43.4648 18.1016ZM50.4961 25.4453V23.9805H46.2188V25.4453H50.4961ZM50.4961 22.6133V21.7344C50.4961 21.3177 50.2943 21.1094 49.8906 21.1094H46.8242C46.4206 21.1094 46.2188 21.3177 46.2188 21.7344V22.6133H50.4961ZM53.5234 22.8086C53.5234 22.4961 53.582 22.2682 53.6992 22.125C53.8294 21.9688 54.0247 21.8906 54.2852 21.8906C54.7799 21.8906 55.0273 22.1966 55.0273 22.8086V24.8398C55.8477 24.5794 56.6549 24.2865 57.4492 23.9609C58.2565 23.6224 58.7188 23.4271 58.8359 23.375C59.0833 23.2708 59.2852 23.2188 59.4414 23.2188C59.9883 23.2188 60.2617 23.4922 60.2617 24.0391C60.2617 24.3255 60.1185 24.5469 59.832 24.7031C59.6107 24.8073 58.9987 25.0221 57.9961 25.3477C57.306 25.569 56.3164 25.8294 55.0273 26.1289V28.1992C55.0273 28.4206 55.1055 28.5898 55.2617 28.707C55.418 28.8242 55.6393 28.8893 55.9258 28.9023L56.4141 28.9414L57.2148 28.9609C57.8398 28.974 58.3932 28.9414 58.875 28.8633C59.2917 28.7852 59.5326 28.4922 59.5977 27.9844C59.6628 27.5156 59.9232 27.2812 60.3789 27.2812C60.9518 27.2812 61.2383 27.5286 61.2383 28.0234C61.2383 29.1432 60.8411 29.8529 60.0469 30.1523C59.6042 30.3216 58.556 30.4062 56.9023 30.4062C55.3398 30.4062 54.3893 30.2891 54.0508 30.0547C53.6992 29.8073 53.5234 29.4167 53.5234 28.8828V22.8086ZM53.5234 14.1562C53.5234 13.5312 53.7773 13.2188 54.2852 13.2188C54.7799 13.2188 55.0273 13.5312 55.0273 14.1562V16.207L56.5117 15.6797L58.8164 14.7422C59.0638 14.638 59.2656 14.5859 59.4219 14.5859C59.9427 14.5859 60.2031 14.8398 60.2031 15.3477C60.2031 15.6471 60.0469 15.8815 59.7344 16.0508C59.4349 16.207 58.8685 16.4089 58.0352 16.6562C57.0065 16.9427 56.0039 17.2096 55.0273 17.457V19.1562C55.0273 19.612 55.3268 19.8594 55.9258 19.8984L56.4141 19.9375L57.2148 19.957C57.7617 19.9701 58.3151 19.931 58.875 19.8398C59.2917 19.7617 59.5326 19.4622 59.5977 18.9414C59.6628 18.4727 59.9232 18.2383 60.3789 18.2383C60.9518 18.2383 61.2383 18.4857 61.2383 18.9805C61.2383 20.0872 60.8411 20.8034 60.0469 21.1289C59.6823 21.2852 58.6341 21.3633 56.9023 21.3633C55.3138 21.3633 54.3633 21.2461 54.0508 21.0117C53.6992 20.7643 53.5234 20.3802 53.5234 19.8594V14.1562ZM68.5234 29.2148C67.4427 29.2148 66.5378 29.0195 65.8086 28.6289C65.1055 28.2643 64.5781 27.7826 64.2266 27.1836C63.888 26.5716 63.7188 25.901 63.7188 25.1719C63.7188 24.3516 63.9271 23.6224 64.3438 22.9844C64.7734 22.3464 65.3008 21.8255 65.9258 21.4219C65.5091 20.9271 65.2031 20.4648 65.0078 20.0352C64.8255 19.6055 64.7344 19.1237 64.7344 18.5898C64.7344 17.9779 64.8841 17.4049 65.1836 16.8711C65.4831 16.3372 65.9128 15.9206 66.4727 15.6211C67.0326 15.3086 67.6771 15.1523 68.4062 15.1523C69.2656 15.1523 70.138 15.4388 71.0234 16.0117C71.1146 16.0638 71.1927 16.1484 71.2578 16.2656C71.3359 16.3828 71.375 16.5 71.375 16.6172C71.375 16.8125 71.3034 16.9818 71.1602 17.125C71.0299 17.2552 70.8672 17.3203 70.6719 17.3203C70.5938 17.3203 70.4766 17.2878 70.3203 17.2227C69.6823 16.8841 69.0703 16.7148 68.4844 16.7148C67.8464 16.7148 67.3385 16.8906 66.9609 17.2422C66.5964 17.5807 66.4141 17.9974 66.4141 18.4922C66.4141 18.8828 66.4792 19.2148 66.6094 19.4883C66.7266 19.7487 66.9023 20.0156 67.1367 20.2891C67.3711 20.5495 67.7812 20.9531 68.3672 21.5L72.4297 25.3281C72.5469 25.1589 72.7552 24.7747 73.0547 24.1758C73.1198 24.0195 73.224 23.8958 73.3672 23.8047C73.5104 23.7135 73.6667 23.668 73.8359 23.668C74.0703 23.668 74.2656 23.7461 74.4219 23.9023C74.5911 24.0586 74.6758 24.2539 74.6758 24.4883C74.6758 24.5924 74.6432 24.7227 74.5781 24.8789C74.3307 25.4258 74.0182 25.9596 73.6406 26.4805L74.9492 27.7109C75.0664 27.8151 75.1445 27.9128 75.1836 28.0039C75.2357 28.0951 75.2617 28.2122 75.2617 28.3555C75.2617 28.5898 75.1836 28.7852 75.0273 28.9414C74.8711 29.0977 74.6758 29.1758 74.4414 29.1758C74.207 29.1758 73.9987 29.0977 73.8164 28.9414L72.5273 27.6914C71.9544 28.1732 71.3229 28.5508 70.6328 28.8242C69.9557 29.0846 69.2526 29.2148 68.5234 29.2148ZM65.4375 25.2305C65.4375 25.6862 65.5612 26.1029 65.8086 26.4805C66.069 26.8451 66.4206 27.138 66.8633 27.3594C67.319 27.5677 67.8203 27.6719 68.3672 27.6719C69.4609 27.6719 70.4505 27.3138 71.3359 26.5977L67.0195 22.5352C66.5508 22.8346 66.1667 23.2188 65.8672 23.6875C65.5807 24.1432 65.4375 24.6576 65.4375 25.2305ZM80.8672 30.8945C80.3594 30.8945 80.1055 30.6081 80.1055 30.0352V22.5156C79.2982 23.5182 78.7318 24.0195 78.4062 24.0195C77.9505 24.0195 77.7227 23.7461 77.7227 23.1992C77.7227 22.9648 77.8984 22.6523 78.25 22.2617C79.7214 20.6992 80.7826 19.319 81.4336 18.1211C81.6549 17.7435 81.9154 17.5547 82.2148 17.5547C82.7487 17.5547 83.0156 17.7956 83.0156 18.2773C83.0156 18.5247 82.5664 19.2669 81.668 20.5039V30.0352C81.668 30.6081 81.401 30.8945 80.8672 30.8945ZM77.7812 16.793C77.7812 16.4544 77.9896 16.1549 78.4062 15.8945C79.4609 15.2174 80.4766 14.4102 81.4531 13.4727C81.7135 13.2122 81.9674 13.082 82.2148 13.082C82.7487 13.082 83.0156 13.3294 83.0156 13.8242C83.0156 14.2018 82.3711 14.931 81.082 16.0117C79.806 17.0794 78.9531 17.6133 78.5234 17.6133C78.0286 17.6133 77.7812 17.3398 77.7812 16.793ZM82.1953 27.2227C82.1953 26.7539 82.4557 26.5195 82.9766 26.5195H87.8203V24.9375H83.8945C83.3867 24.9375 83.1328 24.7096 83.1328 24.2539C83.1328 23.8112 83.3867 23.5898 83.8945 23.5898H87.8203V21.9688H84.6172C84.1094 21.9688 83.8555 21.7474 83.8555 21.3047C83.8555 20.862 84.1094 20.6406 84.6172 20.6406H87.8203V18.9219H84.0898C83.582 18.9219 83.3281 18.694 83.3281 18.2383C83.3281 17.7956 83.582 17.5742 84.0898 17.5742H87.8203V15.9141H84.6367C84.1159 15.9141 83.8555 15.6862 83.8555 15.2305C83.8555 14.7747 84.1159 14.5469 84.6367 14.5469H87.8203V14C87.8203 13.362 88.0872 13.043 88.6211 13.043C89.1419 13.043 89.4023 13.362 89.4023 14V14.5469H92.4102C92.9831 14.5469 93.3997 14.6771 93.6602 14.9375C93.9336 15.1849 94.0573 15.5951 94.0312 16.168V17.5742H94.8125C95.3203 17.5742 95.5742 17.8021 95.5742 18.2578C95.5742 18.7005 95.3203 18.9219 94.8125 18.9219H94.0312V20.3477C94.0312 20.9336 93.901 21.3568 93.6406 21.6172C93.3802 21.8776 92.9701 21.9948 92.4102 21.9688H89.4023V23.5898H93.6211C94.1159 23.5898 94.3633 23.8177 94.3633 24.2734C94.3633 24.7161 94.1159 24.9375 93.6211 24.9375H89.4023V26.5195H94.6758C95.2227 26.5195 95.4961 26.7539 95.4961 27.2227C95.4961 27.6914 95.2227 27.9258 94.6758 27.9258H89.4023V29.9961C89.4023 30.6341 89.1419 30.9531 88.6211 30.9531C88.0872 30.9531 87.8203 30.6341 87.8203 29.9961V27.9258H82.9766C82.4557 27.9258 82.1953 27.6914 82.1953 27.2227ZM91.8438 20.6406C92.2344 20.6406 92.4427 20.4323 92.4688 20.0156V18.9219H89.4023V20.6406H91.8438ZM92.4688 17.5742V16.5391C92.4688 16.1484 92.2604 15.9401 91.8438 15.9141H89.4023V17.5742H92.4688ZM111.648 30.6797C111.076 30.6797 110.789 30.3997 110.789 29.8398C110.789 29.5143 110.913 29.2865 111.16 29.1562C111.277 29.0911 111.622 29.0391 112.195 29C112.964 28.9609 113.387 28.3685 113.465 27.2227C113.621 25.1654 113.732 23.4141 113.797 21.9688L113.875 19.7422C113.888 19.2604 113.647 19.0195 113.152 19.0195H111.59C111.486 21.4284 111.277 23.362 110.965 24.8203C110.613 26.4479 110.132 27.776 109.52 28.8047C108.842 29.9505 108.276 30.5234 107.82 30.5234C107.339 30.5234 107.098 30.2695 107.098 29.7617C107.098 29.6576 107.13 29.5469 107.195 29.4297C107.273 29.3255 107.391 29.1823 107.547 29C109.201 27.138 110.073 23.8112 110.164 19.0195H108.855C108.283 19.0195 107.996 18.7656 107.996 18.2578C107.996 17.9974 108.061 17.8086 108.191 17.6914C108.335 17.5612 108.556 17.4961 108.855 17.4961H110.203L110.223 15.6797C110.223 14.8984 110.229 14.306 110.242 13.9023C110.255 13.3685 110.496 13.1016 110.965 13.1016C111.447 13.1016 111.688 13.375 111.688 13.9219L111.668 15.6797L111.648 17.4961H113.582C114.78 17.4961 115.359 17.9974 115.32 19L115.164 22.9844C115.047 25.7578 114.878 27.6914 114.656 28.7852C114.526 29.3971 114.207 29.8659 113.699 30.1914C113.191 30.5169 112.508 30.6797 111.648 30.6797ZM98.1133 29.3711C98.1133 28.8763 98.4779 28.6094 99.207 28.5703L102.645 28.3359V26.9492H99.4414C98.9596 26.9492 98.7188 26.7279 98.7188 26.2852C98.7188 25.8424 98.9596 25.6211 99.4414 25.6211H102.645V24.5664H100.496C99.9883 24.5664 99.6042 24.4492 99.3438 24.2148C99.0833 23.9674 98.9531 23.6159 98.9531 23.1602V20.1914C98.9531 19.7227 99.0768 19.3646 99.3242 19.1172C99.5846 18.8698 99.9622 18.7461 100.457 18.7461H102.645V17.75H98.8555C98.3737 17.75 98.1328 17.5221 98.1328 17.0664C98.1328 16.6237 98.3737 16.4023 98.8555 16.4023H102.645V15.2891L102.117 15.3477L99.3828 15.543C98.849 15.582 98.582 15.3411 98.582 14.8203C98.582 14.4818 98.7383 14.2604 99.0508 14.1562H99.0703L100.027 14.1172C102.866 14 104.975 13.7201 106.355 13.2773L106.727 13.2383C107.273 13.1862 107.547 13.4531 107.547 14.0391C107.547 14.4036 107.202 14.6576 106.512 14.8008C106.329 14.8398 105.737 14.931 104.734 15.0742L104.012 15.1719V16.4023H107.391C107.885 16.4023 108.133 16.6302 108.133 17.0859C108.133 17.3073 108.074 17.4766 107.957 17.5938C107.84 17.6979 107.651 17.75 107.391 17.75H104.012V18.7461H106.297C107.299 18.7461 107.801 19.2148 107.801 20.1523V23.1211C107.801 24.0846 107.286 24.5664 106.258 24.5664H104.012V25.6211H107.176C107.449 25.6211 107.638 25.6732 107.742 25.7773C107.859 25.8815 107.918 26.0508 107.918 26.2852C107.918 26.5195 107.859 26.6888 107.742 26.793C107.638 26.8971 107.449 26.9492 107.176 26.9492H104.012V28.2578L106.961 27.9648C107.143 27.9518 107.286 28.0039 107.391 28.1211C107.508 28.2253 107.566 28.388 107.566 28.6094C107.566 28.974 107.384 29.1888 107.02 29.2539L99.5195 30.1133L98.9141 30.1523C98.3802 30.1914 98.1133 29.931 98.1133 29.3711ZM100.379 22.8867C100.379 23.1992 100.535 23.3555 100.848 23.3555H102.645V22.2227H100.379V22.8867ZM102.645 21.0508V19.957H100.848C100.535 19.957 100.379 20.1198 100.379 20.4453V21.0508H102.645ZM105.906 23.3555C106.219 23.3555 106.375 23.1992 106.375 22.8867V22.2227H104.012V23.3555H105.906ZM106.375 21.0508V20.4453C106.375 20.276 106.336 20.1523 106.258 20.0742C106.193 19.9961 106.076 19.957 105.906 19.957H104.012V21.0508H106.375Z" fill="white"/>
<circle cx="69" cy="74" r="25.2" fill="white"/>
<circle cx="69" cy="74" r="31.5" stroke="white" stroke-width="3"/>
<path d="M52.1665 61.2292H53.4165V62.4792H52.1665V61.2292Z" fill="#F44336"/>
<path d="M54.0415 61.8307C54.0415 61.4985 54.3213 61.2292 54.6665 61.2292C55.0116 61.2292 55.2915 61.4985 55.2915 61.8307V63.1042H54.0415V61.8307Z" fill="#4CAF50"/>
<path d="M52.7915 64.3542C53.1367 64.3542 53.4165 64.0744 53.4165 63.7292C53.4165 63.384 53.1367 63.1042 52.7915 63.1042C52.4463 63.1042 52.1665 63.384 52.1665 63.7292C52.1665 64.0744 52.4463 64.3542 52.7915 64.3542Z" fill="#FFC107"/>
<path d="M54.6668 63.4166L55.208 64.3541H54.1255L54.6668 63.4166Z" fill="#1E88E5"/>
<path d="M69.589 65.8827C68.9748 70.8886 64.7224 74.6666 59.6667 74.6666C59.2651 74.6666 58.8635 74.6431 58.4619 74.5958C55.816 74.2652 53.4299 72.9429 51.7998 70.8414C50.1461 68.7399 49.4137 66.1188 49.7445 63.4742C50.3587 58.4683 54.6111 54.6666 59.6668 54.6666C60.0684 54.6666 60.47 54.6902 60.8716 54.7375C63.5175 55.068 65.9036 56.3903 67.5337 58.4918C69.1874 60.6169 69.9198 63.2144 69.589 65.8827ZM53.1699 59.7669C52.7744 59.8086 52.2507 59.9968 51.6793 60.3317C51.5243 60.4225 51.4019 60.5597 51.326 60.7225C50.9172 61.6 50.6299 62.5548 50.5005 63.5686C50.3964 64.3706 50.4046 65.1726 50.519 65.957C50.6182 66.6368 51.4233 66.9194 52.0304 66.598C52.5636 66.3157 53.2459 65.9867 54.115 65.5993C55.7767 64.8781 59.1584 63.611 61.1513 62.8646C61.4046 62.7697 61.5307 62.4856 61.5261 62.2152V62.2152C61.5221 61.9816 61.4046 61.7579 61.1888 61.6683C60.0552 61.1979 58.4588 60.5476 57.1862 60.1447C55.4144 59.6017 53.926 59.6961 53.1699 59.7669ZM64.6041 57.1695C64.5798 56.951 64.4333 56.7742 64.2427 56.6647C63.1831 56.0566 62.0097 55.6679 60.7771 55.5166C60.3991 55.4931 60.0212 55.4695 59.6432 55.4695V55.4695C59.5337 55.4695 59.4936 55.6233 59.5864 55.6814C60.4319 56.2104 61.3352 57.074 62.0767 58.3503C62.4734 59.0444 62.7536 59.6385 63.0011 60.1607C63.084 60.3356 63.2656 60.4332 63.4585 60.4487V60.4487C63.6848 60.4667 63.9208 60.3717 64.0055 60.1611C64.2452 59.565 64.5518 58.6123 64.6281 57.7364C64.628 57.5095 64.6212 57.3229 64.6041 57.1695ZM62.8324 63.1199C63.3049 63.4978 63.99 63.474 64.3444 63.0255C64.6987 62.5769 64.6043 61.9157 64.1318 61.5379C63.6593 61.16 62.9741 61.1838 62.6198 61.6323C62.2418 62.0574 62.3364 62.7421 62.8324 63.1199ZM64.7697 67.63C64.5363 66.2883 64.2868 65.2989 64.0873 64.5958C64.0201 64.3589 63.7867 64.2208 63.5405 64.2124V64.2124C63.285 64.2037 63.0161 64.3171 62.9148 64.5518C62.7615 64.907 62.5845 65.3061 62.3837 65.7407C61.5096 67.6771 60.6827 69.1645 59.9739 70.2035C59.306 71.1432 58.7028 71.8562 58.1779 72.3969C57.702 72.8872 57.8757 73.7571 58.5564 73.8163V73.8163C58.9344 73.8636 59.3124 73.8871 59.6667 73.8871C61.1586 73.8871 62.5666 73.5305 63.8313 72.8964C63.9829 72.8203 64.1112 72.7035 64.1949 72.5559C65.1957 70.7916 64.9284 68.5587 64.7697 67.63ZM68.5513 62.2142C68.4207 61.748 67.9423 61.4777 67.465 61.5595C67.2628 61.5941 67.0476 61.6332 66.8251 61.6795C66.4894 61.7466 66.1179 61.8495 65.7614 61.9627C65.5148 62.0411 65.3765 62.2994 65.3688 62.558V62.558C65.3616 62.799 65.4586 63.0383 65.6654 63.1622C66.3298 63.56 67.089 64.05 67.6283 64.4893V64.4893C68.1104 64.8792 68.9123 64.6072 68.8651 63.989C68.8195 63.3907 68.7143 62.7963 68.5513 62.2142Z" fill="#4CAF50" stroke="#4CAF50" stroke-width="0.5"/>
<path d="M75.0025 73.8804L75.0023 73.8801L74.213 72.6717L74.2126 72.671C73.5104 71.5979 72.0807 71.3105 71.0193 72.0266C69.9577 72.7429 69.6916 74.1799 70.3815 75.2343L70.3815 75.2343L70.3832 75.237L71.1753 76.4394C71.1755 76.4397 71.1757 76.44 71.1759 76.4403C71.8865 77.524 72.8197 78.4104 73.8896 79.0543V89.1306C73.8896 90.3951 74.8986 91.4504 76.1849 91.4504C77.0121 91.4504 77.7246 91.014 78.1279 90.3662C78.5311 91.014 79.2436 91.4504 80.0708 91.4504C81.3571 91.4504 82.3661 90.3951 82.3661 89.1306V79.0658C83.4714 78.4069 84.4301 77.4883 85.1505 76.3651L85.151 76.3644L85.8877 75.2136L85.8891 75.2115C86.5674 74.1459 86.2751 72.7201 85.2204 72.0157C84.1461 71.2983 82.7183 71.6197 82.0301 72.6952C82.0298 72.6957 82.0295 72.6961 82.0292 72.6966L81.2938 73.8411L81.2931 73.8422C80.9044 74.4491 80.3671 74.9202 79.7501 75.2199C80.089 75.046 80.4011 74.8173 80.6734 74.5399C81.3446 73.856 81.7184 72.9323 81.7184 71.973C81.7184 71.0137 81.3446 70.0899 80.6734 69.406C80.0015 68.7214 79.0863 68.3333 78.1279 68.3333C77.1695 68.3333 76.2542 68.7214 75.5823 69.406C74.9111 70.0899 74.5373 71.0137 74.5373 71.973C74.5373 72.9323 74.9111 73.856 75.5823 74.5399C75.793 74.7545 76.0275 74.94 76.2798 75.0935C75.7753 74.8012 75.3347 74.3893 75.0025 73.8804Z" fill="white" stroke="#4CAF50" stroke-width="2"/>
<path d="M76.2793 78.8361H77.7575V80.3142H76.2793V78.8361Z" fill="#F44336"/>
<path d="M78.4968 79.5473C78.4968 79.1545 78.8277 78.836 79.2359 78.836C79.6441 78.836 79.975 79.1545 79.975 79.5473V81.0533H78.4968V79.5473Z" fill="#4CAF50"/>
<path d="M77.0184 82.5315C77.4266 82.5315 77.7575 82.2006 77.7575 81.7924C77.7575 81.3842 77.4266 81.0533 77.0184 81.0533C76.6102 81.0533 76.2793 81.3842 76.2793 81.7924C76.2793 82.2006 76.6102 82.5315 77.0184 82.5315Z" fill="#FFC107"/>
<path d="M79.2353 81.4228L79.8753 82.5314H78.5952L79.2353 81.4228Z" fill="#1E88E5"/>
<path d="M90.7834 78.801C90.7837 78.3896 90.4535 78.059 90.0538 78.0579M90.7834 78.801L90.5335 78.8009H90.7834V78.801ZM90.7834 78.801V79.4906C90.7834 79.853 90.5235 80.1686 90.1618 80.2246M90.0538 78.0579L89.978 78.3136C90.2704 78.269 90.5336 78.4993 90.5334 78.8009V79.4906C90.5334 79.7341 90.3591 79.9415 90.1228 79.9776L88.1429 80.2973L88.143 80.2977H88.3881V80.5109M90.0538 78.0579L90.043 78.0498L89.9382 78.0667L87.9598 78.3857L90.0538 78.0579ZM90.1618 80.2246L90.1627 80.2244L90.1228 79.9776L90.1607 80.2247C90.161 80.2247 90.1614 80.2246 90.1618 80.2246ZM90.1618 80.2246L88.3881 80.5109M88.3881 80.5109L88.1851 80.5437L88.3766 84.6315C88.3766 84.6313 88.3766 84.6313 88.3766 84.6315M88.3881 80.5109V84.6169C88.3881 84.6366 88.3861 84.6544 88.3838 84.669M88.1429 80.5475L88.1441 80.5475C88.1437 80.5475 88.1433 80.5475 88.1429 80.5475ZM88.1429 80.5475C88.1421 80.5475 88.1414 80.5475 88.141 80.5475L88.1417 80.5475L88.1429 80.5475ZM88.3838 84.669C88.382 84.6576 88.3802 84.6488 88.3791 84.6435L88.379 84.643L88.3766 84.6315M88.3838 84.669C88.386 84.6839 88.3881 84.7031 88.3881 84.7244C88.3881 85.1015 88.1618 85.4138 87.8557 85.6207C87.5481 85.8285 87.1373 85.949 86.6959 85.949C86.2547 85.949 85.844 85.8285 85.5365 85.6206C85.2304 85.4138 85.0042 85.1015 85.0042 84.7244C85.0042 84.3472 85.2304 84.0349 85.5365 83.828C85.844 83.6201 86.2547 83.4996 86.6959 83.4996C86.9233 83.4996 87.1395 83.5326 87.3374 83.5919M88.3838 84.669C88.3811 84.6851 88.3779 84.6974 88.3762 84.7038L88.3741 84.7118L88.3735 84.7137C88.3734 84.7142 88.3734 84.7143 88.3734 84.7143L88.3736 84.7136L88.374 84.7116L88.3756 84.7035L88.1288 84.6633L88.3777 84.6398C88.3773 84.6353 88.3768 84.6323 88.3766 84.6315M88.3766 84.6315L87.3374 83.5919M87.3374 83.5919V83.8545C87.1447 83.788 86.9278 83.7496 86.6959 83.7496C85.8998 83.7496 85.2542 84.1861 85.2542 84.7244C85.2542 85.2626 85.8998 85.699 86.6959 85.699C87.4924 85.699 88.1381 85.2626 88.1381 84.7244C88.1381 84.7122 88.1356 84.7004 88.1332 84.6888L87.3374 83.5919ZM87.3374 83.5919C87.4245 83.618 87.5081 83.6492 87.5874 83.6849V79.1201C87.5874 78.8766 87.7614 78.6693 87.998 78.6327L87.9583 78.3859L87.959 78.3858C87.597 78.4422 87.3374 78.7576 87.3374 79.1201V83.5919ZM88.143 80.2977H88.1381H88.143Z" fill="#4CAF50" stroke="#4CAF50" stroke-width="0.5"/>
</svg>
