<svg width="140" height="120" viewBox="0 0 140 120" fill="none" xmlns="http://www.w3.org/2000/svg">
<rect width="140" height="120" rx="10" fill="#FFC107"/>
<path d="M37.8125 19.5078C37.3568 19.5078 37.1289 19.2669 37.1289 18.7852C37.1289 18.5378 37.3763 18.2578 37.8711 17.9453C39.6159 16.8516 40.9896 15.4062 41.9922 13.6094C42.2005 13.2318 42.474 13.043 42.8125 13.043C43.3594 13.043 43.6328 13.2188 43.6328 13.5703C43.6328 13.6094 43.6003 13.707 43.5352 13.8633C45.2279 15.6862 46.7318 16.8906 48.0469 17.4766C48.6328 17.724 48.9258 18.0234 48.9258 18.375C48.9258 18.9089 48.7109 19.1758 48.2812 19.1758C47.7995 19.1758 46.9531 18.6875 45.7422 17.7109C45.7552 17.724 45.6315 17.6198 45.3711 17.3984C45.4232 17.5286 45.4492 17.6393 45.4492 17.7305C45.4492 18.1211 45.2083 18.3164 44.7266 18.3164H41.2891C40.8073 18.3164 40.5664 18.1211 40.5664 17.7305C40.5664 17.6393 40.5729 17.5742 40.5859 17.5352C39.0885 18.8503 38.1641 19.5078 37.8125 19.5078ZM31.0352 28.3945C31.0352 28.2122 31.0938 27.9779 31.2109 27.6914C31.5495 26.8711 31.7383 25.8164 31.7773 24.5273C31.7904 23.9544 32.0182 23.668 32.4609 23.668C32.9167 23.668 33.1445 23.9154 33.1445 24.4102C33.1445 25.3086 33.0208 26.2591 32.7734 27.2617C32.5 28.4206 32.1549 29 31.7383 29C31.2695 29 31.0352 28.7982 31.0352 28.3945ZM31.0742 22.1445C31.0742 21.7148 31.3151 21.4805 31.7969 21.4414L32.5586 21.4023H32.6758L33.9844 19.4492L31.5625 17.5156C31.3151 17.3203 31.1914 17.112 31.1914 16.8906C31.1914 16.6562 31.25 16.487 31.3672 16.3828C31.4974 16.2656 31.6927 16.207 31.9531 16.207C32.1224 16.207 32.3568 16.3177 32.6562 16.5391V16.5195C33.3073 15.2826 33.7305 14.4036 33.9258 13.8828C34.1081 13.362 34.4076 13.1016 34.8242 13.1016C35.3451 13.1016 35.6055 13.3555 35.6055 13.8633C35.6055 14.2409 34.9544 15.3672 33.6523 17.2422H33.6328L34.6484 18.1406L34.7656 18.2188L35.6445 16.6562C35.8398 16.3047 36.0156 16.0443 36.1719 15.875C36.3281 15.7057 36.4974 15.6211 36.6797 15.6211C36.901 15.6211 37.0703 15.6862 37.1875 15.8164C37.3177 15.9466 37.3828 16.1354 37.3828 16.3828C37.3828 16.9427 36.3021 18.5964 34.1406 21.3438L36.3086 21.2461L36.1523 20.7578C36.1263 20.6927 36.0938 20.6016 36.0547 20.4844C36.0156 20.3672 35.9961 20.2826 35.9961 20.2305C35.9961 20.0482 36.0482 19.9049 36.1523 19.8008C36.2565 19.6966 36.4062 19.6445 36.6016 19.6445C36.875 19.6445 37.194 20.0807 37.5586 20.9531C37.9232 21.8385 38.1055 22.3789 38.1055 22.5742C38.1055 23.0039 37.8841 23.2188 37.4414 23.2188C37.1159 23.2188 36.8685 22.9388 36.6992 22.3789L35.4102 22.5156V30.1133C35.4102 30.6471 35.1758 30.9141 34.707 30.9141C34.2383 30.9141 34.0039 30.6471 34.0039 30.1133V22.6523L31.8164 22.8672C31.569 22.8932 31.3802 22.8411 31.25 22.7109C31.1328 22.5807 31.0742 22.3919 31.0742 22.1445ZM36.25 24.2344C36.237 23.8438 36.4388 23.6484 36.8555 23.6484C37.2331 23.6484 37.4609 23.9284 37.5391 24.4883L38.0859 27.6914C38.125 27.9388 38.0794 28.1276 37.9492 28.2578C37.832 28.375 37.6628 28.4336 37.4414 28.4336C37.0508 28.4336 36.8099 28.2057 36.7188 27.75L36.2891 24.7617L36.25 24.2344ZM38.418 20.6797C38.418 19.6901 38.9193 19.1953 39.9219 19.1953H46.5625C47.5521 19.1953 48.0469 19.6966 48.0469 20.6992V22.8281C48.0469 23.8438 47.5521 24.3516 46.5625 24.3516H39.9219C38.9193 24.3516 38.418 23.8568 38.418 22.8672V20.6797ZM38.9648 26.6367C38.9648 25.6211 39.4727 25.1133 40.4883 25.1133H45.918C46.9336 25.1133 47.4414 25.6276 47.4414 26.6562V28.9023C47.4414 29.918 46.9336 30.4258 45.918 30.4258H40.4883C39.4727 30.4258 38.9648 29.9245 38.9648 28.9219V26.6367ZM39.6875 22.6328C39.6875 23.0104 39.8698 23.1992 40.2344 23.1992H42.5781V20.3477H40.2344C39.8698 20.3477 39.6875 20.5299 39.6875 20.8945V22.6328ZM40.293 21.2266C40.293 21.0573 40.3385 20.9336 40.4297 20.8555C40.5339 20.7643 40.6771 20.7188 40.8594 20.7188C41.0286 20.7188 41.1849 20.8229 41.3281 21.0312C41.4844 21.2266 41.6406 21.5391 41.7969 21.9688L41.8555 22.1836C41.8555 22.5742 41.6602 22.7695 41.2695 22.7695C41.0091 22.7695 40.7747 22.5286 40.5664 22.0469C40.3841 21.6302 40.293 21.3568 40.293 21.2266ZM40.3711 28.8242C40.3711 29.1497 40.5404 29.319 40.8789 29.332H45.4492C45.8008 29.332 45.9766 29.1562 45.9766 28.8047V28.2969H40.3711V28.8242ZM45.9766 27.2227V26.7734C45.9766 26.4219 45.8008 26.2396 45.4492 26.2266H40.8789C40.6966 26.2266 40.5664 26.2721 40.4883 26.3633C40.4102 26.4414 40.3711 26.5716 40.3711 26.7539V27.2227H45.9766ZM41.1523 17.1445H44.7266C44.9089 17.1445 45.0521 17.1706 45.1562 17.2227C44.2188 16.4284 43.4505 15.6602 42.8516 14.918C42.513 15.3737 42.1745 15.8034 41.8359 16.207C41.5104 16.6107 41.2174 16.9362 40.957 17.1836L41.1523 17.1445ZM46.2109 23.1992C46.3932 23.1992 46.5299 23.1536 46.6211 23.0625C46.7253 22.9583 46.7773 22.8151 46.7773 22.6328V20.9141C46.7773 20.5365 46.5885 20.3477 46.2109 20.3477H43.7695V23.1992H46.2109ZM44.3164 22.3203C44.3164 22.2422 44.4141 21.9297 44.6094 21.3828C44.7917 20.901 45.0326 20.6602 45.332 20.6602C45.7227 20.6602 45.918 20.8359 45.918 21.1875C45.918 21.4219 45.8333 21.7214 45.6641 22.0859C45.4297 22.5938 45.1758 22.8477 44.9023 22.8477C44.5117 22.8477 44.3164 22.6719 44.3164 22.3203ZM59.9023 30.875C59.3685 30.875 59.1016 30.5495 59.1016 29.8984V27.6719H56.1523C55.5924 27.6719 55.3125 27.418 55.3125 26.9102C55.3125 26.4023 55.5924 26.1484 56.1523 26.1484H59.1016V19.7422C57.8646 21.8516 56.5234 23.6875 55.0781 25.25C53.5156 26.9557 52.4805 27.8086 51.9727 27.8086C51.3997 27.8086 51.1133 27.5091 51.1133 26.9102C51.1133 26.5586 51.3151 26.2461 51.7188 25.9727C53.112 25.0091 54.4271 23.7852 55.6641 22.3008C56.9401 20.7643 57.8516 19.4036 58.3984 18.2188H52.3047C51.6797 18.2188 51.3672 17.9648 51.3672 17.457C51.3672 16.9492 51.6797 16.6953 52.3047 16.6953H59.1016V14.1367C59.1016 13.4466 59.375 13.1016 59.9219 13.1016C60.4557 13.1016 60.7227 13.4466 60.7227 14.1367V16.6953H67.7539C68.3789 16.6953 68.6914 16.9492 68.6914 17.457C68.6914 17.9648 68.3789 18.2188 67.7539 18.2188H61.2695C61.9466 19.7161 62.9167 21.1419 64.1797 22.4961C65.5599 23.9544 66.8815 25.0547 68.1445 25.7969C68.6393 26.0833 68.8867 26.4089 68.8867 26.7734C68.8867 27.3984 68.5938 27.7109 68.0078 27.7109C67.4479 27.7109 66.3802 26.9167 64.8047 25.3281C64.0365 24.5599 63.3268 23.7526 62.6758 22.9062C62.0247 22.0469 61.3737 21.0182 60.7227 19.8203V26.1484H63.8281C64.1146 26.1484 64.3229 26.2135 64.4531 26.3438C64.5833 26.4609 64.6484 26.6562 64.6484 26.9297C64.6484 27.4245 64.375 27.6719 63.8281 27.6719H60.7227V29.8984C60.7227 30.5495 60.4492 30.875 59.9023 30.875ZM78.8477 30.7773C78.3268 30.7773 78.0664 30.4909 78.0664 29.918C78.0664 29.5404 78.3529 29.2604 78.9258 29.0781C80.5143 28.5573 81.8359 27.763 82.8906 26.6953C81.8359 25.1068 81.1654 22.8737 80.8789 19.9961H80.8398C80.1758 21.4154 79.6875 22.125 79.375 22.125C79.1146 22.125 78.9258 22.0664 78.8086 21.9492C78.6914 21.832 78.6328 21.6367 78.6328 21.3633C78.6328 21.207 78.7435 20.9531 78.9648 20.6016C79.8112 19.2474 80.5404 17.1706 81.1523 14.3711C81.2435 13.9414 81.3607 13.6224 81.5039 13.4141C81.6471 13.2057 81.8229 13.1016 82.0312 13.1016C82.6172 13.1016 82.9102 13.349 82.9102 13.8438C82.9102 14.1562 82.6172 15.1849 82.0312 16.9297H88.1445C88.6393 16.9297 88.8867 17.1901 88.8867 17.7109C88.8867 18.2188 88.6393 18.4727 88.1445 18.4727H87.3242C87.0247 22.1185 86.224 24.8724 84.9219 26.7344C85.6901 27.5286 86.7448 28.2318 88.0859 28.8438C88.3464 28.9609 88.5417 29.0977 88.6719 29.2539C88.8151 29.4102 88.8867 29.5729 88.8867 29.7422C88.8867 30.0677 88.8151 30.3021 88.6719 30.4453C88.5417 30.5885 88.3333 30.6602 88.0469 30.6602C87.8776 30.6602 87.6562 30.5885 87.3828 30.4453C87.1224 30.3151 86.7318 30.0872 86.2109 29.7617C85.3646 29.2279 84.5833 28.6159 83.8672 27.9258C82.9688 28.7331 82.0312 29.4102 81.0547 29.957C80.0781 30.5039 79.3424 30.7773 78.8477 30.7773ZM71.1133 17.5742C71.1133 17.3398 71.1784 17.1641 71.3086 17.0469C71.4388 16.9297 71.6406 16.8711 71.9141 16.8711H74.5312V13.9219C74.5312 13.6354 74.5964 13.4336 74.7266 13.3164C74.8568 13.1862 75.0521 13.1211 75.3125 13.1211C75.8203 13.1211 76.0742 13.388 76.0742 13.9219V16.8711H78.8281C79.1016 16.8711 79.3034 16.9297 79.4336 17.0469C79.5638 17.1641 79.6289 17.3398 79.6289 17.5742C79.6289 17.8216 79.5638 18.0039 79.4336 18.1211C79.3164 18.2383 79.1146 18.2969 78.8281 18.2969H76.0742V21.7344H77.1875C77.7865 21.7344 78.2227 21.8711 78.4961 22.1445C78.7695 22.418 78.8867 22.8542 78.8477 23.4531V27.418C78.8477 28.043 78.7174 28.4922 78.457 28.7656C78.1966 29.0391 77.7604 29.1562 77.1484 29.1172H73.4766C72.8516 29.1172 72.4023 28.9805 72.1289 28.707C71.8555 28.4336 71.7383 28.0039 71.7773 27.418V23.4531C71.7773 22.8281 71.9076 22.3789 72.168 22.1055C72.4414 21.819 72.8646 21.6953 73.4375 21.7344H74.5312V18.2969H71.9141C71.6276 18.2969 71.4193 18.2383 71.2891 18.1211C71.1719 18.0039 71.1133 17.8216 71.1133 17.5742ZM73.2227 26.9883C73.2227 27.4049 73.4505 27.6263 73.9062 27.6523H76.7188C77.1615 27.6523 77.3893 27.431 77.4023 26.9883V23.8633C77.4023 23.4206 77.1745 23.1992 76.7188 23.1992H73.9062C73.4635 23.1992 73.2357 23.4206 73.2227 23.8633V26.9883ZM82.1094 18.4727C82.2656 21.6758 82.8646 24.026 83.9062 25.5234C85.0781 24.0391 85.7031 21.6888 85.7812 18.4727H82.1094ZM97.4219 30.8555C96.849 30.8555 96.5625 30.6016 96.5625 30.0938C96.5625 29.5859 96.849 29.332 97.4219 29.332H98.5742C99.043 29.332 99.2773 29.0977 99.2773 28.6289V27.75H93.2422C92.7865 27.75 92.5586 27.5417 92.5586 27.125C92.5586 26.7083 92.7865 26.5 93.2422 26.5H99.2773V25.2109H91.875C91.6016 25.2109 91.3997 25.1589 91.2695 25.0547C91.1393 24.9505 91.0742 24.7878 91.0742 24.5664C91.0742 24.1367 91.3411 23.9219 91.875 23.9219H99.2773V22.7109H93.418C92.9232 22.7109 92.6758 22.5026 92.6758 22.0859C92.6758 21.6693 92.9232 21.4609 93.418 21.4609H99.2773V20.5234H94.6484C93.6458 20.5234 93.1445 20.0677 93.1445 19.1562V18.1797C93.1445 17.7109 93.2682 17.3724 93.5156 17.1641C93.763 16.9427 94.1406 16.832 94.6484 16.832H99.2773V15.875H92.3633C91.8685 15.875 91.6211 15.6602 91.6211 15.2305C91.6211 14.8008 91.8685 14.5859 92.3633 14.5859H99.2969V13.8438C99.2969 13.6094 99.3685 13.4206 99.5117 13.2773C99.6549 13.1211 99.8568 13.043 100.117 13.043C100.378 13.043 100.579 13.1211 100.723 13.2773C100.866 13.4206 100.938 13.6094 100.938 13.8438V14.5859H107.656C108.138 14.5859 108.379 14.8008 108.379 15.2305C108.379 15.6602 108.138 15.875 107.656 15.875H100.918V16.832H105.391C105.898 16.832 106.276 16.9362 106.523 17.1445C106.771 17.3529 106.895 17.6849 106.895 18.1406V19.1367C106.895 19.6185 106.771 19.9701 106.523 20.1914C106.276 20.4128 105.898 20.5234 105.391 20.5234H100.918V21.4609H105.371C105.931 21.4609 106.341 21.5911 106.602 21.8516C106.862 22.099 106.979 22.4961 106.953 23.043V23.9219H108.086C108.62 23.9219 108.887 24.1367 108.887 24.5664C108.887 24.9961 108.62 25.2109 108.086 25.2109H106.953V26.1875C106.953 26.7474 106.823 27.1576 106.562 27.418C106.315 27.6654 105.918 27.776 105.371 27.75H100.918V29.0977C100.918 29.6706 100.768 30.1068 100.469 30.4062C100.169 30.7057 99.7331 30.8555 99.1602 30.8555H97.4219ZM94.7461 18.8633C94.7461 19.1888 94.9089 19.3516 95.2344 19.3516H99.2773V18.0039H95.2344C95.0781 18.0039 94.9544 18.0495 94.8633 18.1406C94.7852 18.2188 94.7461 18.3294 94.7461 18.4727V18.8633ZM104.746 26.5C105.15 26.5 105.352 26.3047 105.352 25.9141V25.2109H100.918V26.5H104.746ZM105.352 23.9219V23.2969C105.352 22.9323 105.15 22.737 104.746 22.7109H100.918V23.9219H105.352ZM104.824 19.3516C105.137 19.3516 105.293 19.1888 105.293 18.8633V18.4727C105.293 18.1732 105.137 18.0169 104.824 18.0039H100.918V19.3516H104.824Z" fill="white"/>
<circle cx="70" cy="74" r="25.2" fill="white"/>
<circle cx="70" cy="74" r="31.5" stroke="white" stroke-width="3"/>
<path d="M86.9582 86.6421L86.961 86.6418C87.3759 86.6011 87.7 86.2455 87.7 85.8242V71.075C87.7 70.6174 87.3326 70.25 86.875 70.25H84.6735C80.6189 70.25 76.6592 71.4248 73.2625 73.6178V89.5685L74.606 88.8939L74.6108 88.8915C76.2893 88.0563 78.1141 87.5251 79.9832 87.3396L86.9582 86.6421ZM86.9582 86.6421L79.9845 87.3395L86.9582 86.6421ZM66.5918 88.9001L66.5892 88.8988C64.9111 88.0638 63.0929 87.5321 61.2149 87.3467L54.2481 86.65C54.2474 86.65 54.2466 86.6499 54.2459 86.6498C53.82 86.6043 53.5 86.2473 53.5 85.8242V71.075C53.5 70.6174 53.8674 70.25 54.325 70.25H56.5265C60.5811 70.25 64.5408 71.4248 67.9375 73.6178V89.5729L66.5918 88.9001ZM65.125 61.775C65.125 60.3229 65.7018 58.9303 66.7286 57.9036C67.7554 56.8768 69.1479 56.3 70.6 56.3C72.0521 56.3 73.4446 56.8768 74.4714 57.9036C75.4982 58.9303 76.075 60.3229 76.075 61.775C76.075 63.227 75.4982 64.6196 74.4714 65.6464C73.4446 66.6732 72.0521 67.25 70.6 67.25C69.1479 67.25 67.7554 66.6732 66.7286 65.6464C65.7018 64.6196 65.125 63.227 65.125 61.775Z" fill="white" stroke="#FFC107" stroke-width="3"/>
<path d="M78.3999 77.6H80.3075V79.5076H78.3999V77.6Z" fill="#F44336"/>
<path d="M81.2617 78.5181C81.2617 78.0111 81.6888 77.6001 82.2156 77.6001C82.7423 77.6001 83.1694 78.0111 83.1694 78.5181V80.4616H81.2617V78.5181Z" fill="#4CAF50"/>
<path d="M79.3537 82.3694C79.8805 82.3694 80.3076 81.9423 80.3076 81.4155C80.3076 80.8887 79.8805 80.4617 79.3537 80.4617C78.8269 80.4617 78.3999 80.8887 78.3999 81.4155C78.3999 81.9423 78.8269 82.3694 79.3537 82.3694Z" fill="#FFC107"/>
<path d="M82.2155 80.9387L83.0415 82.3694H81.3894L82.2155 80.9387Z" fill="#1E88E5"/>
</svg>
