<svg width="160" height="80" viewBox="0 0 160 80" fill="none" xmlns="http://www.w3.org/2000/svg">
<rect width="160" height="80" rx="10" fill="#FFC107"/>
<path d="M21.25 37.4062C20.8854 37.4062 20.7031 37.2135 20.7031 36.8281C20.7031 36.6302 20.901 36.4062 21.2969 36.1562C22.6927 35.2812 23.7917 34.125 24.5938 32.6875C24.7604 32.3854 24.9792 32.2344 25.25 32.2344C25.6875 32.2344 25.9062 32.375 25.9062 32.6562C25.9062 32.6875 25.8802 32.7656 25.8281 32.8906C27.1823 34.349 28.3854 35.3125 29.4375 35.7812C29.9062 35.9792 30.1406 36.2188 30.1406 36.5C30.1406 36.9271 29.9688 37.1406 29.625 37.1406C29.2396 37.1406 28.5625 36.75 27.5938 35.9688C27.6042 35.9792 27.5052 35.8958 27.2969 35.7188C27.3385 35.8229 27.3594 35.9115 27.3594 35.9844C27.3594 36.2969 27.1667 36.4531 26.7812 36.4531H24.0312C23.6458 36.4531 23.4531 36.2969 23.4531 35.9844C23.4531 35.9115 23.4583 35.8594 23.4688 35.8281C22.2708 36.8802 21.5312 37.4062 21.25 37.4062ZM15.8281 44.5156C15.8281 44.3698 15.875 44.1823 15.9688 43.9531C16.2396 43.2969 16.3906 42.4531 16.4219 41.4219C16.4323 40.9635 16.6146 40.7344 16.9688 40.7344C17.3333 40.7344 17.5156 40.9323 17.5156 41.3281C17.5156 42.0469 17.4167 42.8073 17.2188 43.6094C17 44.5365 16.724 45 16.3906 45C16.0156 45 15.8281 44.8385 15.8281 44.5156ZM15.8594 39.5156C15.8594 39.1719 16.0521 38.9844 16.4375 38.9531L17.0469 38.9219H17.1406L18.1875 37.3594L16.25 35.8125C16.0521 35.6562 15.9531 35.4896 15.9531 35.3125C15.9531 35.125 16 34.9896 16.0938 34.9062C16.1979 34.8125 16.3542 34.7656 16.5625 34.7656C16.6979 34.7656 16.8854 34.8542 17.125 35.0312V35.0156C17.6458 34.026 17.9844 33.3229 18.1406 32.9062C18.2865 32.4896 18.526 32.2812 18.8594 32.2812C19.276 32.2812 19.4844 32.4844 19.4844 32.8906C19.4844 33.1927 18.9635 34.0938 17.9219 35.5938H17.9062L18.7188 36.3125L18.8125 36.375L19.5156 35.125C19.6719 34.8438 19.8125 34.6354 19.9375 34.5C20.0625 34.3646 20.1979 34.2969 20.3438 34.2969C20.5208 34.2969 20.6562 34.349 20.75 34.4531C20.8542 34.5573 20.9062 34.7083 20.9062 34.9062C20.9062 35.3542 20.0417 36.6771 18.3125 38.875L20.0469 38.7969L19.9219 38.4062C19.901 38.3542 19.875 38.2812 19.8438 38.1875C19.8125 38.0938 19.7969 38.026 19.7969 37.9844C19.7969 37.8385 19.8385 37.724 19.9219 37.6406C20.0052 37.5573 20.125 37.5156 20.2812 37.5156C20.5 37.5156 20.7552 37.8646 21.0469 38.5625C21.3385 39.2708 21.4844 39.7031 21.4844 39.8594C21.4844 40.2031 21.3073 40.375 20.9531 40.375C20.6927 40.375 20.4948 40.151 20.3594 39.7031L19.3281 39.8125V45.8906C19.3281 46.3177 19.1406 46.5312 18.7656 46.5312C18.3906 46.5312 18.2031 46.3177 18.2031 45.8906V39.9219L16.4531 40.0938C16.2552 40.1146 16.1042 40.0729 16 39.9688C15.9062 39.8646 15.8594 39.7135 15.8594 39.5156ZM20 41.1875C19.9896 40.875 20.151 40.7188 20.4844 40.7188C20.7865 40.7188 20.9688 40.9427 21.0312 41.3906L21.4688 43.9531C21.5 44.151 21.4635 44.3021 21.3594 44.4062C21.2656 44.5 21.1302 44.5469 20.9531 44.5469C20.6406 44.5469 20.4479 44.3646 20.375 44L20.0312 41.6094L20 41.1875ZM21.7344 38.3438C21.7344 37.5521 22.1354 37.1562 22.9375 37.1562H28.25C29.0417 37.1562 29.4375 37.5573 29.4375 38.3594V40.0625C29.4375 40.875 29.0417 41.2812 28.25 41.2812H22.9375C22.1354 41.2812 21.7344 40.8854 21.7344 40.0938V38.3438ZM22.1719 43.1094C22.1719 42.2969 22.5781 41.8906 23.3906 41.8906H27.7344C28.5469 41.8906 28.9531 42.3021 28.9531 43.125V44.9219C28.9531 45.7344 28.5469 46.1406 27.7344 46.1406H23.3906C22.5781 46.1406 22.1719 45.7396 22.1719 44.9375V43.1094ZM22.75 39.9062C22.75 40.2083 22.8958 40.3594 23.1875 40.3594H25.0625V38.0781H23.1875C22.8958 38.0781 22.75 38.224 22.75 38.5156V39.9062ZM23.2344 38.7812C23.2344 38.6458 23.2708 38.5469 23.3438 38.4844C23.4271 38.4115 23.5417 38.375 23.6875 38.375C23.8229 38.375 23.9479 38.4583 24.0625 38.625C24.1875 38.7812 24.3125 39.0312 24.4375 39.375L24.4844 39.5469C24.4844 39.8594 24.3281 40.0156 24.0156 40.0156C23.8073 40.0156 23.6198 39.8229 23.4531 39.4375C23.3073 39.1042 23.2344 38.8854 23.2344 38.7812ZM23.2969 44.8594C23.2969 45.1198 23.4323 45.2552 23.7031 45.2656H27.3594C27.6406 45.2656 27.7812 45.125 27.7812 44.8438V44.4375H23.2969V44.8594ZM27.7812 43.5781V43.2188C27.7812 42.9375 27.6406 42.7917 27.3594 42.7812H23.7031C23.5573 42.7812 23.4531 42.8177 23.3906 42.8906C23.3281 42.9531 23.2969 43.0573 23.2969 43.2031V43.5781H27.7812ZM23.9219 35.5156H26.7812C26.9271 35.5156 27.0417 35.5365 27.125 35.5781C26.375 34.9427 25.7604 34.3281 25.2812 33.7344C25.0104 34.099 24.7396 34.4427 24.4688 34.7656C24.2083 35.0885 23.974 35.349 23.7656 35.5469L23.9219 35.5156ZM27.9688 40.3594C28.1146 40.3594 28.224 40.3229 28.2969 40.25C28.3802 40.1667 28.4219 40.0521 28.4219 39.9062V38.5312C28.4219 38.2292 28.2708 38.0781 27.9688 38.0781H26.0156V40.3594H27.9688ZM26.4531 39.6562C26.4531 39.5938 26.5312 39.3438 26.6875 38.9062C26.8333 38.5208 27.026 38.3281 27.2656 38.3281C27.5781 38.3281 27.7344 38.4688 27.7344 38.75C27.7344 38.9375 27.6667 39.1771 27.5312 39.4688C27.3438 39.875 27.1406 40.0781 26.9219 40.0781C26.6094 40.0781 26.4531 39.9375 26.4531 39.6562ZM38.9219 46.5C38.4948 46.5 38.2812 46.2396 38.2812 45.7188V43.9375H35.9219C35.474 43.9375 35.25 43.7344 35.25 43.3281C35.25 42.9219 35.474 42.7188 35.9219 42.7188H38.2812V37.5938C37.2917 39.2812 36.2188 40.75 35.0625 42C33.8125 43.3646 32.9844 44.0469 32.5781 44.0469C32.1198 44.0469 31.8906 43.8073 31.8906 43.3281C31.8906 43.0469 32.0521 42.7969 32.375 42.5781C33.4896 41.8073 34.5417 40.8281 35.5312 39.6406C36.5521 38.4115 37.2812 37.3229 37.7188 36.375H32.8438C32.3438 36.375 32.0938 36.1719 32.0938 35.7656C32.0938 35.3594 32.3438 35.1562 32.8438 35.1562H38.2812V33.1094C38.2812 32.5573 38.5 32.2812 38.9375 32.2812C39.3646 32.2812 39.5781 32.5573 39.5781 33.1094V35.1562H45.2031C45.7031 35.1562 45.9531 35.3594 45.9531 35.7656C45.9531 36.1719 45.7031 36.375 45.2031 36.375H40.0156C40.5573 37.5729 41.3333 38.7135 42.3438 39.7969C43.4479 40.9635 44.5052 41.8438 45.5156 42.4375C45.9115 42.6667 46.1094 42.9271 46.1094 43.2188C46.1094 43.7188 45.875 43.9688 45.4062 43.9688C44.9583 43.9688 44.1042 43.3333 42.8438 42.0625C42.2292 41.4479 41.6615 40.8021 41.1406 40.125C40.6198 39.4375 40.099 38.6146 39.5781 37.6562V42.7188H42.0625C42.2917 42.7188 42.4583 42.7708 42.5625 42.875C42.6667 42.9688 42.7188 43.125 42.7188 43.3438C42.7188 43.7396 42.5 43.9375 42.0625 43.9375H39.5781V45.7188C39.5781 46.2396 39.3594 46.5 38.9219 46.5ZM54.0781 46.4219C53.6615 46.4219 53.4531 46.1927 53.4531 45.7344C53.4531 45.4323 53.6823 45.2083 54.1406 45.0625C55.4115 44.6458 56.4688 44.0104 57.3125 43.1562C56.4688 41.8854 55.9323 40.099 55.7031 37.7969H55.6719C55.1406 38.9323 54.75 39.5 54.5 39.5C54.2917 39.5 54.1406 39.4531 54.0469 39.3594C53.9531 39.2656 53.9062 39.1094 53.9062 38.8906C53.9062 38.7656 53.9948 38.5625 54.1719 38.2812C54.849 37.1979 55.4323 35.5365 55.9219 33.2969C55.9948 32.9531 56.0885 32.6979 56.2031 32.5312C56.3177 32.3646 56.4583 32.2812 56.625 32.2812C57.0938 32.2812 57.3281 32.4792 57.3281 32.875C57.3281 33.125 57.0938 33.9479 56.625 35.3438H61.5156C61.9115 35.3438 62.1094 35.5521 62.1094 35.9688C62.1094 36.375 61.9115 36.5781 61.5156 36.5781H60.8594C60.6198 39.4948 59.9792 41.6979 58.9375 43.1875C59.5521 43.8229 60.3958 44.3854 61.4688 44.875C61.6771 44.9688 61.8333 45.0781 61.9375 45.2031C62.0521 45.3281 62.1094 45.4583 62.1094 45.5938C62.1094 45.8542 62.0521 46.0417 61.9375 46.1562C61.8333 46.2708 61.6667 46.3281 61.4375 46.3281C61.3021 46.3281 61.125 46.2708 60.9062 46.1562C60.6979 46.0521 60.3854 45.8698 59.9688 45.6094C59.2917 45.1823 58.6667 44.6927 58.0938 44.1406C57.375 44.7865 56.625 45.3281 55.8438 45.7656C55.0625 46.2031 54.474 46.4219 54.0781 46.4219ZM47.8906 35.8594C47.8906 35.6719 47.9427 35.5312 48.0469 35.4375C48.151 35.3438 48.3125 35.2969 48.5312 35.2969H50.625V32.9375C50.625 32.7083 50.6771 32.5469 50.7812 32.4531C50.8854 32.349 51.0417 32.2969 51.25 32.2969C51.6562 32.2969 51.8594 32.5104 51.8594 32.9375V35.2969H54.0625C54.2812 35.2969 54.4427 35.3438 54.5469 35.4375C54.651 35.5312 54.7031 35.6719 54.7031 35.8594C54.7031 36.0573 54.651 36.2031 54.5469 36.2969C54.4531 36.3906 54.2917 36.4375 54.0625 36.4375H51.8594V39.1875H52.75C53.2292 39.1875 53.5781 39.2969 53.7969 39.5156C54.0156 39.7344 54.1094 40.0833 54.0781 40.5625V43.7344C54.0781 44.2344 53.974 44.5938 53.7656 44.8125C53.5573 45.0312 53.2083 45.125 52.7188 45.0938H49.7812C49.2812 45.0938 48.9219 44.9844 48.7031 44.7656C48.4844 44.5469 48.3906 44.2031 48.4219 43.7344V40.5625C48.4219 40.0625 48.526 39.7031 48.7344 39.4844C48.9531 39.2552 49.2917 39.1562 49.75 39.1875H50.625V36.4375H48.5312C48.3021 36.4375 48.1354 36.3906 48.0312 36.2969C47.9375 36.2031 47.8906 36.0573 47.8906 35.8594ZM49.5781 43.3906C49.5781 43.724 49.7604 43.901 50.125 43.9219H52.375C52.7292 43.9219 52.9115 43.7448 52.9219 43.3906V40.8906C52.9219 40.5365 52.7396 40.3594 52.375 40.3594H50.125C49.7708 40.3594 49.5885 40.5365 49.5781 40.8906V43.3906ZM56.6875 36.5781C56.8125 39.1406 57.2917 41.0208 58.125 42.2188C59.0625 41.0312 59.5625 39.151 59.625 36.5781H56.6875ZM68.9375 46.4844C68.4792 46.4844 68.25 46.2812 68.25 45.875C68.25 45.4688 68.4792 45.2656 68.9375 45.2656H69.8594C70.2344 45.2656 70.4219 45.0781 70.4219 44.7031V44H65.5938C65.2292 44 65.0469 43.8333 65.0469 43.5C65.0469 43.1667 65.2292 43 65.5938 43H70.4219V41.9688H64.5C64.2812 41.9688 64.1198 41.9271 64.0156 41.8438C63.9115 41.7604 63.8594 41.6302 63.8594 41.4531C63.8594 41.1094 64.0729 40.9375 64.5 40.9375H70.4219V39.9688H65.7344C65.3385 39.9688 65.1406 39.8021 65.1406 39.4688C65.1406 39.1354 65.3385 38.9688 65.7344 38.9688H70.4219V38.2188H66.7188C65.9167 38.2188 65.5156 37.8542 65.5156 37.125V36.3438C65.5156 35.9688 65.6146 35.6979 65.8125 35.5312C66.0104 35.3542 66.3125 35.2656 66.7188 35.2656H70.4219V34.5H64.8906C64.4948 34.5 64.2969 34.3281 64.2969 33.9844C64.2969 33.6406 64.4948 33.4688 64.8906 33.4688H70.4375V32.875C70.4375 32.6875 70.4948 32.5365 70.6094 32.4219C70.724 32.2969 70.8854 32.2344 71.0938 32.2344C71.3021 32.2344 71.4635 32.2969 71.5781 32.4219C71.6927 32.5365 71.75 32.6875 71.75 32.875V33.4688H77.125C77.5104 33.4688 77.7031 33.6406 77.7031 33.9844C77.7031 34.3281 77.5104 34.5 77.125 34.5H71.7344V35.2656H75.3125C75.7188 35.2656 76.0208 35.349 76.2188 35.5156C76.4167 35.6823 76.5156 35.9479 76.5156 36.3125V37.1094C76.5156 37.4948 76.4167 37.776 76.2188 37.9531C76.0208 38.1302 75.7188 38.2188 75.3125 38.2188H71.7344V38.9688H75.2969C75.7448 38.9688 76.0729 39.0729 76.2812 39.2812C76.4896 39.4792 76.5833 39.7969 76.5625 40.2344V40.9375H77.4688C77.8958 40.9375 78.1094 41.1094 78.1094 41.4531C78.1094 41.7969 77.8958 41.9688 77.4688 41.9688H76.5625V42.75C76.5625 43.1979 76.4583 43.526 76.25 43.7344C76.0521 43.9323 75.7344 44.0208 75.2969 44H71.7344V45.0781C71.7344 45.5365 71.6146 45.8854 71.375 46.125C71.1354 46.3646 70.7865 46.4844 70.3281 46.4844H68.9375ZM66.7969 36.8906C66.7969 37.151 66.9271 37.2812 67.1875 37.2812H70.4219V36.2031H67.1875C67.0625 36.2031 66.9635 36.2396 66.8906 36.3125C66.8281 36.375 66.7969 36.4635 66.7969 36.5781V36.8906ZM74.7969 43C75.1198 43 75.2812 42.8438 75.2812 42.5312V41.9688H71.7344V43H74.7969ZM75.2812 40.9375V40.4375C75.2812 40.1458 75.1198 39.9896 74.7969 39.9688H71.7344V40.9375H75.2812ZM74.8594 37.2812C75.1094 37.2812 75.2344 37.151 75.2344 36.8906V36.5781C75.2344 36.3385 75.1094 36.2135 74.8594 36.2031H71.7344V37.2812H74.8594Z" fill="white"/>
<circle cx="121" cy="40" r="21" fill="white"/>
<circle cx="121" cy="40" r="26.5" stroke="white" stroke-width="3"/>
<path d="M119.031 52.5729L118.272 52.1931L118.269 52.1918C116.844 51.4829 115.3 51.0312 113.705 50.8736C113.704 50.8735 113.704 50.8735 113.704 50.8735L107.899 50.2931C107.899 50.293 107.898 50.2929 107.897 50.2928C107.669 50.2679 107.5 50.0769 107.5 49.8535V37.5625C107.5 37.3192 107.694 37.125 107.938 37.125H109.772C113.057 37.125 116.267 38.0639 119.031 39.8183V52.5729ZM124.726 52.1882L123.969 52.5685V39.8183C126.733 38.0639 129.943 37.125 133.228 37.125H135.062C135.306 37.125 135.5 37.3192 135.5 37.5625V49.8535C135.5 50.0762 135.327 50.2647 135.11 50.2861L135.107 50.2864L129.296 50.8675C127.707 51.025 126.157 51.4763 124.731 52.1858L124.726 52.1882ZM117.188 29.8125C117.188 28.6688 117.642 27.5719 118.451 26.7631C119.259 25.9544 120.356 25.5 121.5 25.5C122.644 25.5 123.741 25.9544 124.549 26.7631C125.358 27.5719 125.812 28.6688 125.812 29.8125C125.812 30.9562 125.358 32.0531 124.549 32.8619C123.741 33.6706 122.644 34.125 121.5 34.125C120.356 34.125 119.259 33.6706 118.451 32.8619C117.642 32.0531 117.188 30.9562 117.188 29.8125Z" fill="white" stroke="#FFC107" stroke-width="3"/>
<path d="M128 43.0002H129.59V44.5899H128V43.0002Z" fill="#F44336"/>
<path d="M130.385 43.7653C130.385 43.3428 130.74 43.0002 131.179 43.0002C131.618 43.0002 131.974 43.3428 131.974 43.7653V45.3849H130.385V43.7653Z" fill="#4CAF50"/>
<path d="M128.795 46.9747C129.234 46.9747 129.59 46.6189 129.59 46.1799C129.59 45.7409 129.234 45.385 128.795 45.385C128.356 45.385 128 45.7409 128 46.1799C128 46.6189 128.356 46.9747 128.795 46.9747Z" fill="#FFC107"/>
<path d="M131.179 45.7822L131.868 46.9745H130.491L131.179 45.7822Z" fill="#1E88E5"/>
</svg>
