<svg width="140" height="120" viewBox="0 0 140 120" fill="none" xmlns="http://www.w3.org/2000/svg">
<rect width="140" height="120" rx="10" fill="#1E88E5"/>
<path d="M32.0898 29.9375C31.4388 29.9375 31.1133 29.6706 31.1133 29.1367C31.1133 28.6029 31.4388 28.3359 32.0898 28.3359H39.0625V23.707H33.9062C33.2682 23.707 32.9492 23.4401 32.9492 22.9062C32.9492 22.3724 33.2682 22.1055 33.9062 22.1055H39.0625V18.082H32.7734C32.1354 18.082 31.8164 17.8151 31.8164 17.2812C31.8164 16.7474 32.1354 16.4805 32.7734 16.4805H47.207C47.8711 16.4805 48.2031 16.7474 48.2031 17.2812C48.2031 17.8151 47.8711 18.082 47.207 18.082H40.7617V22.1055H46.0156C46.6797 22.1055 47.0117 22.3724 47.0117 22.9062C47.0117 23.4401 46.6797 23.707 46.0156 23.707H40.7617V28.3359H47.8906C48.5547 28.3359 48.8867 28.6029 48.8867 29.1367C48.8867 29.6706 48.5547 29.9375 47.8906 29.9375H32.0898ZM37.5977 13.9414C37.5977 13.4076 37.8841 13.1406 38.457 13.1406C38.5612 13.1406 38.776 13.2122 39.1016 13.3555C39.4401 13.4987 39.8503 13.707 40.332 13.9805C41.3737 14.5534 41.8945 15.0026 41.8945 15.3281C41.8945 15.875 41.5951 16.1484 40.9961 16.1484C40.8398 16.1484 40.5013 15.9857 39.9805 15.6602C39.8893 15.5951 39.681 15.4648 39.3555 15.2695C39.043 15.0612 38.6654 14.8398 38.2227 14.6055C38.0143 14.5013 37.8581 14.3971 37.7539 14.293C37.6497 14.1888 37.5977 14.0716 37.5977 13.9414ZM62.6953 30.3672C59.5573 30.3281 57.3698 30.0547 56.1328 29.5469C54.9349 29.0521 54.0169 28.2578 53.3789 27.1641C52.9492 29.3255 52.4219 30.4062 51.7969 30.4062C51.3151 30.4062 51.0742 30.1328 51.0742 29.5859C51.0742 29.4948 51.1654 29.2539 51.3477 28.8633C51.9206 27.6914 52.2656 26.2266 52.3828 24.4688C52.4219 23.7396 52.6693 23.375 53.125 23.375C53.5547 23.375 53.7695 23.5703 53.7695 23.9609L53.6914 25.0352L53.6523 25.25L53.7695 25.5234C54.1081 26.3177 54.5964 26.9818 55.2344 27.5156V22.5938H51.875C51.3542 22.5938 51.0938 22.3724 51.0938 21.9297C51.0938 21.487 51.3542 21.2656 51.875 21.2656H59.1797C59.7005 21.2656 59.9609 21.487 59.9609 21.9297C59.9609 22.3724 59.7005 22.5938 59.1797 22.5938H56.6406V24.5469H58.7695C59.2773 24.5469 59.5312 24.7682 59.5312 25.2109C59.5312 25.6667 59.2773 25.8945 58.7695 25.8945H56.6406V28.2969C57.7604 28.6875 59.9609 28.8828 63.2422 28.8828L68.1445 28.7461C68.6654 28.7201 68.9258 28.987 68.9258 29.5469C68.9258 30.1328 68.5742 30.4258 67.8711 30.4258L62.6953 30.3672ZM51.8945 15.3672C51.8945 14.8203 52.0117 14.4232 52.2461 14.1758C52.4935 13.9154 52.8841 13.8047 53.418 13.8438H57.6953C58.2552 13.8438 58.6589 13.9674 58.9062 14.2148C59.1536 14.4492 59.2578 14.8333 59.2188 15.3672V18.668C59.2188 19.2148 59.0951 19.612 58.8477 19.8594C58.6133 20.1068 58.2292 20.2109 57.6953 20.1719H53.418C52.8711 20.1719 52.474 20.0547 52.2266 19.8203C51.9792 19.5859 51.8685 19.2018 51.8945 18.668V15.3672ZM53.2422 18.3945C53.2422 18.7201 53.418 18.8958 53.7695 18.9219H57.3633C57.7018 18.9219 57.8711 18.7461 57.8711 18.3945V17.5742H53.2422V18.3945ZM57.8711 16.3438V15.6211C57.8711 15.2956 57.7018 15.1198 57.3633 15.0938H53.7695C53.418 15.0938 53.2422 15.2695 53.2422 15.6211V16.3438H57.8711ZM58.9844 27.8086C58.9844 27.5742 59.1536 27.3854 59.4922 27.2422C60.3516 26.8906 61.0221 26.5586 61.5039 26.2461C61.9987 25.9206 62.3112 25.7578 62.4414 25.7578C62.9232 25.7578 63.1641 25.9857 63.1641 26.4414C63.1641 26.7148 62.6693 27.1315 61.6797 27.6914C60.6901 28.2513 60.0065 28.5312 59.6289 28.5312C59.1992 28.5312 58.9844 28.2904 58.9844 27.8086ZM59.7852 14.7812C59.7852 14.3385 60.0456 14.1172 60.5664 14.1172H68.0859C68.6068 14.1172 68.8672 14.3451 68.8672 14.8008C68.8672 15.2435 68.6068 15.4648 68.0859 15.4648H64.9219L64.4336 16.8906H66.4648C67.0247 16.8906 67.4284 17.0143 67.6758 17.2617C67.9362 17.4961 68.0534 17.8737 68.0273 18.3945V23.9609C68.0273 24.5078 67.9036 24.9049 67.6562 25.1523C67.4089 25.3997 67.0117 25.5104 66.4648 25.4844H62.0312C61.4844 25.4844 61.0872 25.3672 60.8398 25.1328C60.5924 24.8854 60.4818 24.4948 60.5078 23.9609V18.3945C60.5078 17.8607 60.625 17.4701 60.8594 17.2227C61.1068 16.9753 61.4974 16.8646 62.0312 16.8906H63.0273L63.3594 15.4648H60.5664C60.0456 15.4648 59.7852 15.237 59.7852 14.7812ZM61.8555 23.7461C61.8555 24.0846 62.0312 24.2604 62.3828 24.2734H66.0938C66.4453 24.2734 66.6211 24.0977 66.6211 23.7461V22.9258H61.8555V23.7461ZM66.6211 21.7539V20.4844H61.8555V21.7539H66.6211ZM66.6211 19.3125V18.6289C66.6211 18.2904 66.4453 18.1146 66.0938 18.1016H62.3828C62.0312 18.1016 61.8555 18.2773 61.8555 18.6289V19.3125H66.6211ZM64.8828 26.3828C64.8828 25.9531 65.1172 25.7383 65.5859 25.7383C65.625 25.7383 65.7552 25.8034 65.9766 25.9336L66.4844 26.2266C67.1354 26.5781 67.7279 26.8451 68.2617 27.0273C68.6393 27.1706 68.8281 27.3854 68.8281 27.6719C68.8281 28.1536 68.5938 28.3945 68.125 28.3945C67.8125 28.3945 67.2005 28.1341 66.2891 27.6133C65.3516 27.0794 64.8828 26.6693 64.8828 26.3828ZM79.5508 30.7773C79.2904 30.7773 79.0951 30.7122 78.9648 30.582C78.8346 30.4648 78.7695 30.263 78.7695 29.9766C78.7695 29.599 79.0169 29.306 79.5117 29.0977C81.1784 28.4076 82.4284 27.5807 83.2617 26.6172C82.819 25.901 82.4479 24.9505 82.1484 23.7656C81.849 22.5807 81.6406 21.2721 81.5234 19.8398C80.9375 20.9596 80.4883 21.5195 80.1758 21.5195C79.9154 21.5195 79.7201 21.4609 79.5898 21.3438C79.4727 21.2266 79.4141 21.0378 79.4141 20.7773C79.4141 20.6211 79.5052 20.4128 79.6875 20.1523C80.1823 19.5013 80.7227 18.5182 81.3086 17.2031C81.7513 16.1875 82.1224 15.0807 82.4219 13.8828C82.5521 13.362 82.8125 13.1016 83.2031 13.1016C83.8151 13.1016 84.1211 13.3294 84.1211 13.7852C84.1211 14.2409 83.737 15.2826 82.9688 16.9102H88.1445C88.6523 16.9102 88.9062 17.1771 88.9062 17.7109C88.9062 18.2318 88.6523 18.4922 88.1445 18.4922H87.3438C87.2135 20.4974 87.0052 22.0924 86.7188 23.2773C86.4062 24.5794 85.8854 25.7253 85.1562 26.7148C85.9245 27.5482 86.9466 28.2839 88.2227 28.9219C88.444 29.0391 88.6133 29.1693 88.7305 29.3125C88.8477 29.4688 88.9062 29.6315 88.9062 29.8008C88.9062 30.0742 88.7956 30.3021 88.5742 30.4844C88.4049 30.6406 88.2552 30.7188 88.125 30.7188C87.7734 30.7188 87.1615 30.3932 86.2891 29.7422C85.3646 29.0521 84.6615 28.4336 84.1797 27.8867C83.3464 28.694 82.4609 29.3841 81.5234 29.957C80.625 30.5039 79.9674 30.7773 79.5508 30.7773ZM71.0547 23.8242C71.0547 23.5378 71.3672 23.1862 71.9922 22.7695L72.7148 22.2812C72.6107 22.112 72.5586 21.9688 72.5586 21.8516C72.5586 21.4089 72.7995 21.1875 73.2812 21.1875H74.1406L75.7031 19.7617H71.875C71.3542 19.7617 71.0938 19.5339 71.0938 19.0781C71.0938 18.6224 71.3542 18.3945 71.875 18.3945H74.8242V16.4805H72.6367C72.1289 16.4805 71.875 16.2526 71.875 15.7969C71.875 15.3411 72.1289 15.1133 72.6367 15.1133H74.8242V14.0391C74.8242 13.4401 75.0651 13.1406 75.5469 13.1406C76.0156 13.1406 76.25 13.4401 76.25 14.0391V15.1133H77.7344C78.2552 15.1133 78.5156 15.3411 78.5156 15.7969C78.5156 16.2526 78.2552 16.4805 77.7344 16.4805H76.25V18.3945H77.0117C77.8711 17.431 78.6263 16.3828 79.2773 15.25C79.668 14.5729 80.0065 14.2344 80.293 14.2344C80.7878 14.2344 81.0352 14.4557 81.0352 14.8984C81.0352 15.3542 80.2539 16.5195 78.6914 18.3945H79.375C79.8828 18.3945 80.1367 18.6224 80.1367 19.0781C80.1367 19.5339 79.8828 19.7617 79.375 19.7617H77.4414L76.1328 21.1875H78.6523C79.3034 21.1875 79.6289 21.4479 79.6289 21.9688C79.6289 22.2812 78.8542 23.043 77.3047 24.2539C77.0703 24.4492 76.9531 24.6771 76.9531 24.9375V25.2695C77.5781 25.1654 77.9622 25.0872 78.1055 25.0352L79.4727 24.7812L80.0391 24.6836C80.2474 24.6445 80.4036 24.6966 80.5078 24.8398C80.625 24.9701 80.6836 25.1589 80.6836 25.4062C80.6836 25.7969 80.3906 26.0508 79.8047 26.168L76.9531 26.6758V29C76.9531 29.638 76.8164 30.1003 76.543 30.3867C76.2695 30.6732 75.8268 30.8034 75.2148 30.7773H74.0039C73.444 30.7773 73.1641 30.5234 73.1641 30.0156C73.1641 29.5078 73.444 29.2539 74.0039 29.2539H74.707C75.2279 29.2539 75.5013 28.987 75.5273 28.4531V26.9297C73.9388 27.1641 72.7474 27.3464 71.9531 27.4766C71.7318 27.5156 71.5625 27.4635 71.4453 27.3203C71.3281 27.1771 71.2695 26.9818 71.2695 26.7344C71.2695 26.3047 71.6797 26.0378 72.5 25.9336L75.5273 25.543C75.5273 24.8529 75.5664 24.4232 75.6445 24.2539C75.7227 24.0846 75.957 23.8633 76.3477 23.5898C76.8164 23.2513 77.194 22.9648 77.4805 22.7305C77.5326 22.6914 77.5586 22.6523 77.5586 22.6133C77.5586 22.5482 77.5065 22.5156 77.4023 22.5156H74.5898C73.7305 23.2318 73.0729 23.7526 72.6172 24.0781C72.1745 24.3906 71.8685 24.5469 71.6992 24.5469C71.2695 24.5469 71.0547 24.306 71.0547 23.8242ZM82.8125 18.4922C82.9557 21.6042 83.418 23.9023 84.1992 25.3867C85.1628 23.8503 85.6901 21.5521 85.7812 18.4922H82.8125ZM97.5 30.8945C97.1745 30.8945 96.9336 30.8359 96.7773 30.7188C96.6341 30.6016 96.5625 30.4128 96.5625 30.1523C96.5625 29.6706 96.875 29.4297 97.5 29.4297H98.2812C98.763 29.4297 99.0169 29.1758 99.043 28.668V27.5938H92.0117C91.4909 27.5938 91.2305 27.3789 91.2305 26.9492C91.2305 26.5195 91.4909 26.3047 92.0117 26.3047H99.043V25.7578C99.043 25.4583 99.1536 25.2435 99.375 25.1133C99.5833 24.9831 100.104 24.8203 100.938 24.625L102.969 24.0977V24.0586H94.3359C93.8281 24.0586 93.5742 23.8568 93.5742 23.4531C93.5742 23.2448 93.6328 23.0885 93.75 22.9844C93.8672 22.8802 94.0625 22.8281 94.3359 22.8281H104.785C105.28 22.8281 105.658 22.8867 105.918 23.0039C106.178 23.1081 106.309 23.2708 106.309 23.4922C106.309 23.7005 105.859 23.9935 104.961 24.3711C104.062 24.7487 102.806 25.1654 101.191 25.6211C100.775 25.7383 100.566 25.9271 100.566 26.1875V26.3047H107.988C108.522 26.3047 108.789 26.5195 108.789 26.9492C108.789 27.3789 108.522 27.5938 107.988 27.5938H100.566V28.9805C100.566 29.6836 100.417 30.1914 100.117 30.5039C99.8177 30.8164 99.3424 30.9466 98.6914 30.8945H97.5ZM91.4648 22.1445C91.4648 21.6107 91.569 21.2201 91.7773 20.9727C91.9857 20.7253 92.3242 20.5951 92.793 20.582H93.0664L92.6562 14.9766C92.6432 14.651 92.7148 14.3841 92.8711 14.1758C93.0404 13.9544 93.2943 13.8047 93.6328 13.7266L95.6445 13.3945L96.2695 13.2383C96.3216 13.2253 96.3932 13.2057 96.4844 13.1797C96.5885 13.1536 96.6732 13.1406 96.7383 13.1406C97.1419 13.1406 97.3438 13.3685 97.3438 13.8242C97.3438 14.0326 97.1615 14.2083 96.7969 14.3516C96.4323 14.4818 95.8203 14.599 94.9609 14.7031C94.6745 14.7422 94.4661 14.8138 94.3359 14.918C94.2188 15.0091 94.1667 15.1458 94.1797 15.3281L94.1992 15.875H96.582C97.0638 15.875 97.3047 16.0768 97.3047 16.4805C97.3047 16.8841 97.0638 17.0859 96.582 17.0859H94.2969L94.375 18.1602H96.582C97.0638 18.1602 97.3047 18.3685 97.3047 18.7852C97.3047 19.1888 97.0638 19.3906 96.582 19.3906H94.4531L94.5312 20.582H105.547L105.625 19.3906H103.281C102.839 19.3906 102.617 19.1888 102.617 18.7852C102.617 18.3685 102.839 18.1602 103.281 18.1602H105.723L105.762 17.0859H103.281C103.047 17.0859 102.878 17.0404 102.773 16.9492C102.669 16.8451 102.617 16.6888 102.617 16.4805C102.617 16.0768 102.839 15.875 103.281 15.875H105.898V15.4648C105.898 15.2435 105.859 15.0938 105.781 15.0156C105.703 14.9245 105.56 14.8789 105.352 14.8789H103.105C102.689 14.8789 102.48 14.6901 102.48 14.3125C102.48 14.1042 102.526 13.9544 102.617 13.8633C102.721 13.7591 102.884 13.707 103.105 13.707H105.879C106.895 13.707 107.402 14.0977 107.402 14.8789L106.992 20.582H107.207C108.158 20.582 108.594 21.1029 108.516 22.1445V23.7266C108.516 24.3385 108.255 24.6445 107.734 24.6445C107.474 24.6445 107.279 24.5729 107.148 24.4297C107.018 24.2865 106.953 24.0521 106.953 23.7266V22.5156C106.953 22.112 106.738 21.8971 106.309 21.8711H93.7109C93.2943 21.8711 93.0729 22.0859 93.0469 22.5156V23.668C93.0469 24.2799 92.7865 24.5859 92.2656 24.5859C91.7318 24.5859 91.4648 24.2734 91.4648 23.6484V22.1445ZM97.5391 16.2266C97.5391 16.0052 97.9232 15.6667 98.6914 15.2109L99.1211 14.9766C98.3008 14.4036 97.8906 14.0326 97.8906 13.8633C97.8906 13.707 97.9362 13.5833 98.0273 13.4922C98.1315 13.401 98.2747 13.3555 98.457 13.3555C98.6133 13.3555 99.1341 13.6615 100.02 14.2734L100.586 13.6875C100.859 13.388 101.107 13.2383 101.328 13.2383C101.523 13.2383 101.667 13.2839 101.758 13.375C101.862 13.4661 101.914 13.5898 101.914 13.7461C101.914 13.9674 101.589 14.3646 100.938 14.9375L101.152 15.0547C101.699 15.4453 101.973 15.7708 101.973 16.0312C101.973 16.2266 101.921 16.3763 101.816 16.4805C101.712 16.5846 101.569 16.6367 101.387 16.6367C101.204 16.6367 100.983 16.513 100.723 16.2656L100.039 15.6211C99.0495 16.4023 98.4049 16.793 98.1055 16.793C97.7279 16.793 97.5391 16.6042 97.5391 16.2266ZM97.5977 19.8594C97.5977 19.638 98.0078 19.2995 98.8281 18.8438L99.2188 18.6094L99.0039 18.4727C98.3398 18.043 98.0078 17.737 98.0078 17.5547C98.0078 17.2161 98.1966 17.0469 98.5742 17.0469C98.6914 17.0469 98.9062 17.1445 99.2188 17.3398L99.8242 17.6914L100.137 17.9062L100.664 17.3984C100.977 17.112 101.211 16.9688 101.367 16.9688C101.771 16.9688 101.973 17.1445 101.973 17.4961C101.973 17.7305 101.673 18.082 101.074 18.5508C101.842 19.0716 102.227 19.4622 102.227 19.7227C102.227 20.1263 102.031 20.3281 101.641 20.3281C101.484 20.3281 101.263 20.2044 100.977 19.957L100.137 19.2539C99.668 19.6185 99.2578 19.9049 98.9062 20.1133C98.5547 20.3086 98.3073 20.4062 98.1641 20.4062C97.7865 20.4062 97.5977 20.224 97.5977 19.8594Z" fill="white"/>
<circle cx="70" cy="74" r="25.2" fill="white"/>
<circle cx="70" cy="74" r="31.5" stroke="white" stroke-width="3"/>
<path d="M52.9621 74.2561C51.584 75.0422 51.712 77.1384 53.1816 77.7478L61.7368 81.3126V87.6074C61.7368 88.7103 62.6271 89.6 63.7308 89.6C64.3223 89.6 64.8833 89.338 65.2614 88.881L69.042 84.3533L76.5972 87.4977C77.7497 87.9791 79.0851 87.2235 79.2741 85.9925L83.1767 60.6427C83.2926 59.9054 82.9694 59.162 82.3535 58.7415C81.7376 58.321 80.9327 58.2845 80.2803 58.6562L52.9621 74.2561ZM56.139 75.81L76.9631 63.9212L63.5723 78.8751L63.6454 78.936L56.139 75.81ZM76.5728 84.3229L66.4139 80.0877L79.4693 65.5055L76.5728 84.3229Z" fill="#1E88E5"/>
<path d="M71.5999 77.1999H73.1998V78.7999H71.5999V77.1999Z" fill="#F44336"/>
<path d="M74 77.9699C74 77.5447 74.3582 77.2 74.8 77.2C75.2418 77.2 75.6 77.5447 75.6 77.9699V79.5999H74V77.9699Z" fill="#4CAF50"/>
<path d="M72.3998 81.2C72.8417 81.2 73.1998 80.8418 73.1998 80.4C73.1998 79.9581 72.8417 79.6 72.3998 79.6C71.958 79.6 71.5999 79.9581 71.5999 80.4C71.5999 80.8418 71.958 81.2 72.3998 81.2Z" fill="#FFC107"/>
<path d="M74.8 80L75.4928 81.2H74.1072L74.8 80Z" fill="#1E88E5"/>
</svg>
