<svg width="160" height="80" viewBox="0 0 160 80" fill="none" xmlns="http://www.w3.org/2000/svg">
<rect y="80" width="80" height="160" rx="10" transform="rotate(-90 0 80)" fill="#1E88E5"/>
<path d="M16.8052 45.75C16.2844 45.75 16.024 45.5365 16.024 45.1094C16.024 44.6823 16.2844 44.4688 16.8052 44.4688H22.3833V40.7656H18.2583C17.7479 40.7656 17.4927 40.5521 17.4927 40.125C17.4927 39.6979 17.7479 39.4844 18.2583 39.4844H22.3833V36.2656H17.3521C16.8417 36.2656 16.5865 36.0521 16.5865 35.625C16.5865 35.1979 16.8417 34.9844 17.3521 34.9844H28.899C29.4302 34.9844 29.6958 35.1979 29.6958 35.625C29.6958 36.0521 29.4302 36.2656 28.899 36.2656H23.7427V39.4844H27.9458C28.4771 39.4844 28.7427 39.6979 28.7427 40.125C28.7427 40.5521 28.4771 40.7656 27.9458 40.7656H23.7427V44.4688H29.4458C29.9771 44.4688 30.2427 44.6823 30.2427 45.1094C30.2427 45.5365 29.9771 45.75 29.4458 45.75H16.8052ZM21.2115 32.9531C21.2115 32.526 21.4406 32.3125 21.899 32.3125C21.9823 32.3125 22.1542 32.3698 22.4146 32.4844C22.6854 32.599 23.0135 32.7656 23.399 32.9844C24.2323 33.4427 24.649 33.8021 24.649 34.0625C24.649 34.5 24.4094 34.7188 23.9302 34.7188C23.8052 34.7188 23.5344 34.5885 23.1177 34.3281C23.0448 34.276 22.8781 34.1719 22.6177 34.0156C22.3677 33.849 22.0656 33.6719 21.7115 33.4844C21.5448 33.401 21.4198 33.3177 21.3365 33.2344C21.2531 33.151 21.2115 33.0573 21.2115 32.9531ZM41.2896 46.0938C38.7792 46.0625 37.0292 45.8438 36.0396 45.4375C35.0813 45.0417 34.3469 44.4062 33.8365 43.5312C33.4927 45.2604 33.0708 46.125 32.5708 46.125C32.1854 46.125 31.9927 45.9062 31.9927 45.4688C31.9927 45.3958 32.0656 45.2031 32.2115 44.8906C32.6698 43.9531 32.9458 42.7812 33.0396 41.375C33.0708 40.7917 33.2688 40.5 33.6333 40.5C33.9771 40.5 34.149 40.6562 34.149 40.9688L34.0865 41.8281L34.0552 42L34.149 42.2188C34.4198 42.8542 34.8104 43.3854 35.3208 43.8125V39.875H32.6333C32.2167 39.875 32.0083 39.6979 32.0083 39.3438C32.0083 38.9896 32.2167 38.8125 32.6333 38.8125H38.4771C38.8938 38.8125 39.1021 38.9896 39.1021 39.3438C39.1021 39.6979 38.8938 39.875 38.4771 39.875H36.4458V41.4375H38.149C38.5552 41.4375 38.7583 41.6146 38.7583 41.9688C38.7583 42.3333 38.5552 42.5156 38.149 42.5156H36.4458V44.4375C37.3417 44.75 39.1021 44.9062 41.7271 44.9062L45.649 44.7969C46.0656 44.776 46.274 44.9896 46.274 45.4375C46.274 45.9062 45.9927 46.1406 45.4302 46.1406L41.2896 46.0938ZM32.649 34.0938C32.649 33.6562 32.7427 33.3385 32.9302 33.1406C33.1281 32.9323 33.4406 32.8438 33.8677 32.875H37.2896C37.7375 32.875 38.0604 32.974 38.2583 33.1719C38.4563 33.3594 38.5396 33.6667 38.5083 34.0938V36.7344C38.5083 37.1719 38.4094 37.4896 38.2115 37.6875C38.024 37.8854 37.7167 37.9688 37.2896 37.9375H33.8677C33.4302 37.9375 33.1125 37.8438 32.9146 37.6562C32.7167 37.4688 32.6281 37.1615 32.649 36.7344V34.0938ZM33.7271 36.5156C33.7271 36.776 33.8677 36.9167 34.149 36.9375H37.024C37.2948 36.9375 37.4302 36.7969 37.4302 36.5156V35.8594H33.7271V36.5156ZM37.4302 34.875V34.2969C37.4302 34.0365 37.2948 33.8958 37.024 33.875H34.149C33.8677 33.875 33.7271 34.0156 33.7271 34.2969V34.875H37.4302ZM38.3208 44.0469C38.3208 43.8594 38.4563 43.7083 38.7271 43.5938C39.4146 43.3125 39.951 43.0469 40.3365 42.7969C40.7323 42.5365 40.9823 42.4062 41.0865 42.4062C41.4719 42.4062 41.6646 42.5885 41.6646 42.9531C41.6646 43.1719 41.2688 43.5052 40.4771 43.9531C39.6854 44.401 39.1385 44.625 38.8365 44.625C38.4927 44.625 38.3208 44.4323 38.3208 44.0469ZM38.9615 33.625C38.9615 33.2708 39.1698 33.0938 39.5865 33.0938H45.6021C46.0188 33.0938 46.2271 33.276 46.2271 33.6406C46.2271 33.9948 46.0188 34.1719 45.6021 34.1719H43.0708L42.6802 35.3125H44.3052C44.7531 35.3125 45.076 35.4115 45.274 35.6094C45.4823 35.7969 45.576 36.099 45.5552 36.5156V40.9688C45.5552 41.4062 45.4563 41.724 45.2583 41.9219C45.0604 42.1198 44.7427 42.2083 44.3052 42.1875H40.7583C40.3208 42.1875 40.0031 42.0938 39.8052 41.9062C39.6073 41.7083 39.5188 41.3958 39.5396 40.9688V36.5156C39.5396 36.0885 39.6333 35.776 39.8208 35.5781C40.0188 35.3802 40.3313 35.2917 40.7583 35.3125H41.5552L41.8208 34.1719H39.5865C39.1698 34.1719 38.9615 33.9896 38.9615 33.625ZM40.6177 40.7969C40.6177 41.0677 40.7583 41.2083 41.0396 41.2188H44.0083C44.2896 41.2188 44.4302 41.0781 44.4302 40.7969V40.1406H40.6177V40.7969ZM44.4302 39.2031V38.1875H40.6177V39.2031H44.4302ZM44.4302 37.25V36.7031C44.4302 36.4323 44.2896 36.2917 44.0083 36.2812H41.0396C40.7583 36.2812 40.6177 36.4219 40.6177 36.7031V37.25H44.4302ZM43.0396 42.9062C43.0396 42.5625 43.2271 42.3906 43.6021 42.3906C43.6333 42.3906 43.7375 42.4427 43.9146 42.5469L44.3208 42.7812C44.8417 43.0625 45.3156 43.276 45.7427 43.4219C46.0448 43.5365 46.1958 43.7083 46.1958 43.9375C46.1958 44.3229 46.0083 44.5156 45.6333 44.5156C45.3833 44.5156 44.8938 44.3073 44.1646 43.8906C43.4146 43.4635 43.0396 43.1354 43.0396 42.9062ZM54.774 46.4219C54.5656 46.4219 54.4094 46.3698 54.3052 46.2656C54.201 46.1719 54.149 46.0104 54.149 45.7812C54.149 45.4792 54.3469 45.2448 54.7427 45.0781C56.076 44.526 57.076 43.8646 57.7427 43.0938C57.3885 42.5208 57.0917 41.7604 56.8521 40.8125C56.6125 39.8646 56.4458 38.8177 56.3521 37.6719C55.8833 38.5677 55.524 39.0156 55.274 39.0156C55.0656 39.0156 54.9094 38.9688 54.8052 38.875C54.7115 38.7812 54.6646 38.6302 54.6646 38.4219C54.6646 38.2969 54.7375 38.1302 54.8833 37.9219C55.2792 37.401 55.7115 36.6146 56.1802 35.5625C56.5344 34.75 56.8313 33.8646 57.0708 32.9062C57.175 32.4896 57.3833 32.2812 57.6958 32.2812C58.1854 32.2812 58.4302 32.4635 58.4302 32.8281C58.4302 33.1927 58.1229 34.026 57.5083 35.3281H61.649C62.0552 35.3281 62.2583 35.5417 62.2583 35.9688C62.2583 36.3854 62.0552 36.5938 61.649 36.5938H61.0083C60.9042 38.1979 60.7375 39.474 60.5083 40.4219C60.2583 41.4635 59.8417 42.3802 59.2583 43.1719C59.8729 43.8385 60.6906 44.4271 61.7115 44.9375C61.8885 45.0312 62.024 45.1354 62.1177 45.25C62.2115 45.375 62.2583 45.5052 62.2583 45.6406C62.2583 45.8594 62.1698 46.0417 61.9927 46.1875C61.8573 46.3125 61.7375 46.375 61.6333 46.375C61.3521 46.375 60.8625 46.1146 60.1646 45.5938C59.425 45.0417 58.8625 44.5469 58.4771 44.1094C57.8104 44.7552 57.1021 45.3073 56.3521 45.7656C55.6333 46.2031 55.1073 46.4219 54.774 46.4219ZM47.9771 40.8594C47.9771 40.6302 48.2271 40.349 48.7271 40.0156L49.3052 39.625C49.2219 39.4896 49.1802 39.375 49.1802 39.2812C49.1802 38.9271 49.3729 38.75 49.7583 38.75H50.4458L51.6958 37.6094H48.6333C48.2167 37.6094 48.0083 37.4271 48.0083 37.0625C48.0083 36.6979 48.2167 36.5156 48.6333 36.5156H50.9927V34.9844H49.2427C48.8365 34.9844 48.6333 34.8021 48.6333 34.4375C48.6333 34.0729 48.8365 33.8906 49.2427 33.8906H50.9927V33.0312C50.9927 32.5521 51.1854 32.3125 51.5708 32.3125C51.9458 32.3125 52.1333 32.5521 52.1333 33.0312V33.8906H53.3208C53.7375 33.8906 53.9458 34.0729 53.9458 34.4375C53.9458 34.8021 53.7375 34.9844 53.3208 34.9844H52.1333V36.5156H52.7427C53.4302 35.7448 54.0344 34.9062 54.5552 34C54.8677 33.4583 55.1385 33.1875 55.3677 33.1875C55.7635 33.1875 55.9615 33.3646 55.9615 33.7188C55.9615 34.0833 55.3365 35.0156 54.0865 36.5156H54.6333C55.0396 36.5156 55.2427 36.6979 55.2427 37.0625C55.2427 37.4271 55.0396 37.6094 54.6333 37.6094H53.0865L52.0396 38.75H54.0552C54.576 38.75 54.8365 38.9583 54.8365 39.375C54.8365 39.625 54.2167 40.2344 52.9771 41.2031C52.7896 41.3594 52.6958 41.5417 52.6958 41.75V42.0156C53.1958 41.9323 53.5031 41.8698 53.6177 41.8281L54.7115 41.625L55.1646 41.5469C55.3313 41.5156 55.4563 41.5573 55.5396 41.6719C55.6333 41.776 55.6802 41.9271 55.6802 42.125C55.6802 42.4375 55.4458 42.6406 54.9771 42.7344L52.6958 43.1406V45C52.6958 45.5104 52.5865 45.8802 52.3677 46.1094C52.149 46.3385 51.7948 46.4427 51.3052 46.4219H50.3365C49.8885 46.4219 49.6646 46.2188 49.6646 45.8125C49.6646 45.4062 49.8885 45.2031 50.3365 45.2031H50.899C51.3156 45.2031 51.5344 44.9896 51.5552 44.5625V43.3438C50.2844 43.5312 49.3313 43.6771 48.6958 43.7812C48.5188 43.8125 48.3833 43.7708 48.2896 43.6562C48.1958 43.5417 48.149 43.3854 48.149 43.1875C48.149 42.8438 48.4771 42.6302 49.1333 42.5469L51.5552 42.2344C51.5552 41.6823 51.5865 41.3385 51.649 41.2031C51.7115 41.0677 51.899 40.8906 52.2115 40.6719C52.5865 40.401 52.8885 40.1719 53.1177 39.9844C53.1594 39.9531 53.1802 39.9219 53.1802 39.8906C53.1802 39.8385 53.1385 39.8125 53.0552 39.8125H50.8052C50.1177 40.3854 49.5917 40.8021 49.2271 41.0625C48.8729 41.3125 48.6281 41.4375 48.4927 41.4375C48.149 41.4375 47.9771 41.2448 47.9771 40.8594ZM57.3833 36.5938C57.4979 39.0833 57.8677 40.9219 58.4927 42.1094C59.2635 40.8802 59.6854 39.0417 59.7583 36.5938H57.3833ZM69.1333 46.5156C68.8729 46.5156 68.6802 46.4688 68.5552 46.375C68.4406 46.2812 68.3833 46.1302 68.3833 45.9219C68.3833 45.5365 68.6333 45.3438 69.1333 45.3438H69.7583C70.1438 45.3438 70.3469 45.1406 70.3677 44.7344V43.875H64.7427C64.326 43.875 64.1177 43.7031 64.1177 43.3594C64.1177 43.0156 64.326 42.8438 64.7427 42.8438H70.3677V42.4062C70.3677 42.1667 70.4563 41.9948 70.6333 41.8906C70.8 41.7865 71.2167 41.6562 71.8833 41.5L73.5083 41.0781V41.0469H66.6021C66.1958 41.0469 65.9927 40.8854 65.9927 40.5625C65.9927 40.3958 66.0396 40.2708 66.1333 40.1875C66.2271 40.1042 66.3833 40.0625 66.6021 40.0625H74.9615C75.3573 40.0625 75.6594 40.1094 75.8677 40.2031C76.076 40.2865 76.1802 40.4167 76.1802 40.5938C76.1802 40.7604 75.8208 40.9948 75.1021 41.2969C74.3833 41.599 73.3781 41.9323 72.0865 42.2969C71.7531 42.3906 71.5865 42.5417 71.5865 42.75V42.8438H77.524C77.951 42.8438 78.1646 43.0156 78.1646 43.3594C78.1646 43.7031 77.951 43.875 77.524 43.875H71.5865V44.9844C71.5865 45.5469 71.4667 45.9531 71.2271 46.2031C70.9875 46.4531 70.6073 46.5573 70.0865 46.5156H69.1333ZM64.3052 39.5156C64.3052 39.0885 64.3885 38.776 64.5552 38.5781C64.7219 38.3802 64.9927 38.276 65.3677 38.2656H65.5865L65.2583 33.7812C65.2479 33.5208 65.3052 33.3073 65.4302 33.1406C65.5656 32.9635 65.7688 32.8438 66.0396 32.7812L67.649 32.5156L68.149 32.3906C68.1906 32.3802 68.2479 32.3646 68.3208 32.3438C68.4042 32.3229 68.4719 32.3125 68.524 32.3125C68.8469 32.3125 69.0083 32.4948 69.0083 32.8594C69.0083 33.026 68.8625 33.1667 68.5708 33.2812C68.2792 33.3854 67.7896 33.4792 67.1021 33.5625C66.8729 33.5938 66.7063 33.651 66.6021 33.7344C66.5083 33.8073 66.4667 33.9167 66.4771 34.0625L66.4927 34.5H68.399C68.7844 34.5 68.9771 34.6615 68.9771 34.9844C68.9771 35.3073 68.7844 35.4688 68.399 35.4688H66.5708L66.6333 36.3281H68.399C68.7844 36.3281 68.9771 36.4948 68.9771 36.8281C68.9771 37.151 68.7844 37.3125 68.399 37.3125H66.6958L66.7583 38.2656H75.5708L75.6333 37.3125H73.7583C73.4042 37.3125 73.2271 37.151 73.2271 36.8281C73.2271 36.4948 73.4042 36.3281 73.7583 36.3281H75.7115L75.7427 35.4688H73.7583C73.5708 35.4688 73.4354 35.4323 73.3521 35.3594C73.2688 35.276 73.2271 35.151 73.2271 34.9844C73.2271 34.6615 73.4042 34.5 73.7583 34.5H75.8521V34.1719C75.8521 33.9948 75.8208 33.875 75.7583 33.8125C75.6958 33.7396 75.5813 33.7031 75.4146 33.7031H73.6177C73.2844 33.7031 73.1177 33.5521 73.1177 33.25C73.1177 33.0833 73.1542 32.9635 73.2271 32.8906C73.3104 32.8073 73.4406 32.7656 73.6177 32.7656H75.8365C76.649 32.7656 77.0552 33.0781 77.0552 33.7031L76.7271 38.2656H76.899C77.6594 38.2656 78.0083 38.6823 77.9458 39.5156V40.7812C77.9458 41.2708 77.7375 41.5156 77.3208 41.5156C77.1125 41.5156 76.9563 41.4583 76.8521 41.3438C76.7479 41.2292 76.6958 41.0417 76.6958 40.7812V39.8125C76.6958 39.4896 76.524 39.3177 76.1802 39.2969H66.1021C65.7688 39.2969 65.5917 39.4688 65.5708 39.8125V40.7344C65.5708 41.224 65.3625 41.4688 64.9458 41.4688C64.5188 41.4688 64.3052 41.2188 64.3052 40.7188V39.5156ZM69.1646 34.7812C69.1646 34.6042 69.4719 34.3333 70.0865 33.9688L70.4302 33.7812C69.774 33.3229 69.4458 33.026 69.4458 32.8906C69.4458 32.7656 69.4823 32.6667 69.5552 32.5938C69.6385 32.5208 69.7531 32.4844 69.899 32.4844C70.024 32.4844 70.4406 32.7292 71.149 33.2188L71.6021 32.75C71.8208 32.5104 72.0188 32.3906 72.1958 32.3906C72.3521 32.3906 72.4667 32.4271 72.5396 32.5C72.6229 32.5729 72.6646 32.6719 72.6646 32.7969C72.6646 32.974 72.4042 33.2917 71.8833 33.75L72.0552 33.8438C72.4927 34.1562 72.7115 34.4167 72.7115 34.625C72.7115 34.7812 72.6698 34.901 72.5865 34.9844C72.5031 35.0677 72.3885 35.1094 72.2427 35.1094C72.0969 35.1094 71.9198 35.0104 71.7115 34.8125L71.1646 34.2969C70.3729 34.9219 69.8573 35.2344 69.6177 35.2344C69.3156 35.2344 69.1646 35.0833 69.1646 34.7812ZM69.2115 37.6875C69.2115 37.5104 69.5396 37.2396 70.1958 36.875L70.5083 36.6875L70.3365 36.5781C69.8052 36.2344 69.5396 35.9896 69.5396 35.8438C69.5396 35.5729 69.6906 35.4375 69.9927 35.4375C70.0865 35.4375 70.2583 35.5156 70.5083 35.6719L70.9927 35.9531L71.2427 36.125L71.6646 35.7188C71.9146 35.4896 72.1021 35.375 72.2271 35.375C72.55 35.375 72.7115 35.5156 72.7115 35.7969C72.7115 35.9844 72.4719 36.2656 71.9927 36.6406C72.6073 37.0573 72.9146 37.3698 72.9146 37.5781C72.9146 37.901 72.7583 38.0625 72.4458 38.0625C72.3208 38.0625 72.1438 37.9635 71.9146 37.7656L71.2427 37.2031C70.8677 37.4948 70.5396 37.724 70.2583 37.8906C69.9771 38.0469 69.7792 38.125 69.6646 38.125C69.3625 38.125 69.2115 37.9792 69.2115 37.6875Z" fill="white"/>
<circle cx="121" cy="40" r="21" fill="white"/>
<circle cx="121" cy="40" r="26.5" stroke="white" stroke-width="3"/>
<path d="M106.802 40.2134C105.653 40.8685 105.76 42.6153 106.985 43.1231L114.114 46.0938V51.3395C114.114 52.2586 114.856 53 115.776 53C116.269 53 116.736 52.7816 117.051 52.4008L120.202 48.6278L126.498 51.2481C127.458 51.6492 128.571 51.0195 128.728 49.9938L131.981 28.8689C132.077 28.2545 131.808 27.635 131.295 27.2846C130.781 26.9342 130.111 26.9037 129.567 27.2135L106.802 40.2134ZM109.449 41.5083L126.803 31.6009L115.644 44.0626L115.705 44.1133L109.449 41.5083ZM126.477 48.6024L118.012 45.0731L128.891 32.9212L126.477 48.6024Z" fill="#1E88E5"/>
<path d="M122.333 42.6665H123.667V43.9998H122.333V42.6665Z" fill="#F44336"/>
<path d="M124.333 43.3081C124.333 42.9538 124.632 42.6665 125 42.6665C125.368 42.6665 125.667 42.9538 125.667 43.3081V44.6665H124.333V43.3081Z" fill="#4CAF50"/>
<path d="M123 46.0003C123.368 46.0003 123.667 45.7018 123.667 45.3337C123.667 44.9655 123.368 44.667 123 44.667C122.632 44.667 122.333 44.9655 122.333 45.3337C122.333 45.7018 122.632 46.0003 123 46.0003Z" fill="#FFC107"/>
<path d="M125 45L125.577 46H124.423L125 45Z" fill="#1E88E5"/>
</svg>
