<svg width="401" height="551" viewBox="0 0 401 551" fill="none" xmlns="http://www.w3.org/2000/svg">
<mask id="path-1-inside-1_521_2806" fill="white">
<path fill-rule="evenodd" clip-rule="evenodd" d="M213.552 5.82979C205.989 -0.852154 194.632 -0.852174 187.069 5.82977L7.10947 164.816C-6.69519 177.012 1.93093 199.805 20.3512 199.805H63.4564V530.821C63.4564 541.866 72.4107 550.821 83.4564 550.821H317.164C328.21 550.821 337.164 541.867 337.164 530.821V199.805H380.27C398.69 199.805 407.316 177.012 393.512 164.816L213.552 5.82979Z"/>
</mask>
<path fill-rule="evenodd" clip-rule="evenodd" d="M213.552 5.82979C205.989 -0.852154 194.632 -0.852174 187.069 5.82977L7.10947 164.816C-6.69519 177.012 1.93093 199.805 20.3512 199.805H63.4564V530.821C63.4564 541.866 72.4107 550.821 83.4564 550.821H317.164C328.21 550.821 337.164 541.867 337.164 530.821V199.805H380.27C398.69 199.805 407.316 177.012 393.512 164.816L213.552 5.82979Z" fill="white"/>
<path d="M187.069 5.82977L193.69 13.324L193.69 13.324L187.069 5.82977ZM213.552 5.82979L206.931 13.3241L206.931 13.3241L213.552 5.82979ZM7.10947 164.816L0.488604 157.322L0.488603 157.322L7.10947 164.816ZM63.4564 199.805H73.4564V189.805H63.4564V199.805ZM337.164 199.805V189.805H327.164V199.805H337.164ZM393.512 164.816L400.133 157.322L400.133 157.322L393.512 164.816ZM193.69 13.324C197.471 9.98308 203.15 9.98308 206.931 13.3241L220.173 -1.66448C208.828 -11.6874 191.793 -11.6874 180.448 -1.6645L193.69 13.324ZM13.7303 172.31L193.69 13.324L180.448 -1.6645L0.488604 157.322L13.7303 172.31ZM20.3512 189.805C11.1411 189.805 6.82801 178.408 13.7303 172.31L0.488603 157.322C-20.2184 175.616 -7.2792 209.805 20.3512 209.805V189.805ZM63.4564 189.805H20.3512V209.805H63.4564V189.805ZM73.4564 530.821V199.805H53.4564V530.821H73.4564ZM83.4564 540.821C77.9336 540.821 73.4564 536.344 73.4564 530.821H53.4564C53.4564 547.389 66.8879 560.821 83.4564 560.821V540.821ZM317.164 540.821H83.4564V560.821H317.164V540.821ZM327.164 530.821C327.164 536.344 322.687 540.821 317.164 540.821V560.821C333.733 560.821 347.164 547.389 347.164 530.821H327.164ZM327.164 199.805V530.821H347.164V199.805H327.164ZM380.27 189.805H337.164V209.805H380.27V189.805ZM386.891 172.31C393.793 178.408 389.48 189.805 380.27 189.805V209.805C407.9 209.805 420.84 175.616 400.133 157.322L386.891 172.31ZM206.931 13.3241L386.891 172.31L400.133 157.322L220.173 -1.66449L206.931 13.3241Z" fill="black" fill-opacity="0.8" mask="url(#path-1-inside-1_521_2806)"/>
</svg>
