<svg width="2270" height="60" viewBox="0 0 2270 60" fill="none" xmlns="http://www.w3.org/2000/svg">
<rect width="1280" height="60" fill="#4CAF50"/>
<circle cx="35" cy="30" r="20" fill="#F44336"/>
<circle cx="90" cy="30" r="20" fill="white"/>
<circle cx="145" cy="30" r="20" fill="#FFC107"/>
<circle cx="200" cy="30" r="20" fill="white"/>
<circle cx="255" cy="30" r="20" fill="#1E88E5"/>
<circle cx="310" cy="30" r="20" fill="white"/>
<circle cx="365" cy="30" r="20" fill="#F44336"/>
<circle cx="420" cy="30" r="20" fill="white"/>
<circle cx="475" cy="30" r="20" fill="#FFC107"/>
<circle cx="530" cy="30" r="20" fill="white"/>
<circle cx="585" cy="30" r="20" fill="#1E88E5"/>
<circle cx="640" cy="30" r="20" fill="white"/>
<circle cx="695" cy="30" r="20" fill="#F44336"/>
<circle cx="750" cy="30" r="20" fill="white"/>
<circle cx="805" cy="30" r="20" fill="#FFC107"/>
<circle cx="860" cy="30" r="20" fill="white"/>
<circle cx="915" cy="30" r="20" fill="#1E88E5"/>
<circle cx="970" cy="30" r="20" fill="white"/>
<circle cx="1025" cy="30" r="20" fill="#F44336"/>
<circle cx="1080" cy="30" r="20" fill="white"/>
<circle cx="1135" cy="30" r="20" fill="#FFC107"/>
<circle cx="1190" cy="30" r="20" fill="white"/>
<circle cx="1245" cy="30" r="20" fill="#1E88E5"/>
<rect x="990" width="1280" height="60" fill="#4CAF50"/>
<circle cx="1025" cy="30" r="20" fill="#F44336"/>
<circle cx="1080" cy="30" r="20" fill="white"/>
<circle cx="1135" cy="30" r="20" fill="#FFC107"/>
<circle cx="1190" cy="30" r="20" fill="white"/>
<circle cx="1245" cy="30" r="20" fill="#1E88E5"/>
<circle cx="1300" cy="30" r="20" fill="white"/>
<circle cx="1355" cy="30" r="20" fill="#F44336"/>
<circle cx="1410" cy="30" r="20" fill="white"/>
<circle cx="1465" cy="30" r="20" fill="#FFC107"/>
<circle cx="1520" cy="30" r="20" fill="white"/>
<circle cx="1575" cy="30" r="20" fill="#1E88E5"/>
<circle cx="1630" cy="30" r="20" fill="white"/>
<circle cx="1685" cy="30" r="20" fill="#F44336"/>
<circle cx="1740" cy="30" r="20" fill="white"/>
<circle cx="1795" cy="30" r="20" fill="#FFC107"/>
<circle cx="1850" cy="30" r="20" fill="white"/>
<circle cx="1905" cy="30" r="20" fill="#1E88E5"/>
<circle cx="1960" cy="30" r="20" fill="white"/>
<circle cx="2015" cy="30" r="20" fill="#F44336"/>
<circle cx="2070" cy="30" r="20" fill="white"/>
<circle cx="2125" cy="30" r="20" fill="#FFC107"/>
<circle cx="2180" cy="30" r="20" fill="white"/>
<circle cx="2235" cy="30" r="20" fill="#1E88E5"/>
</svg>
