<svg width="1037" height="200" viewBox="0 0 1037 200" fill="none" xmlns="http://www.w3.org/2000/svg">
<rect width="150" height="150" rx="30" fill="#F44336"/>
<circle cx="63.375" cy="46.875" r="13.875" fill="white"/>
<circle cx="86.625" cy="46.875" r="13.875" fill="white"/>
<path d="M85.25 91.5C85.25 95.8834 83.895 99.7019 81.8916 102.338C79.8905 104.971 77.4165 106.25 75 106.25C72.5835 106.25 70.1095 104.971 68.1084 102.338C66.105 99.7019 64.75 95.8834 64.75 91.5C64.75 87.1166 66.105 83.2981 68.1084 80.6621C70.1095 78.029 72.5835 76.75 75 76.75C77.4165 76.75 79.8905 78.029 81.8916 80.6621C83.895 83.2981 85.25 87.1166 85.25 91.5Z" stroke="white" stroke-width="8"/>
<circle cx="63.375" cy="46.875" r="5.625" fill="black" fill-opacity="0.8"/>
<circle cx="86.625" cy="46.875" r="5.625" fill="black" fill-opacity="0.8"/>
<circle cx="36.375" cy="73.125" r="13.125" fill="#FAA19B"/>
<circle cx="113.625" cy="73.125" r="13.125" fill="#FAA19B"/>
<circle cx="354" cy="75" r="75" fill="#FFC107"/>
<rect x="355" y="81" width="37" height="4" rx="2" fill="black" fill-opacity="0.8"/>
<circle cx="357" cy="51.75" r="17.25" fill="white"/>
<circle cx="390" cy="51.75" r="17.25" fill="white"/>
<circle cx="357" cy="51.75" r="5.25" fill="black" fill-opacity="0.8"/>
<circle cx="390" cy="51.75" r="5.25" fill="black" fill-opacity="0.8"/>
<circle cx="336.375" cy="81.375" r="13.125" fill="#FFE083"/>
<circle cx="408.375" cy="79.875" r="13.125" fill="#FFE083"/>
<circle cx="369.375" cy="71.625" r="1.875" fill="black" fill-opacity="0.8"/>
<circle cx="377.625" cy="71.625" r="1.875" fill="black" fill-opacity="0.8"/>
<path d="M558 75C558 33.5786 591.579 0 633 0C674.421 0 708 33.5786 708 75V150H558V75Z" fill="#4CAF50"/>
<circle cx="624.375" cy="38.625" r="9.375" fill="white"/>
<circle cx="640.875" cy="38.625" r="9.375" fill="white"/>
<circle cx="624.375" cy="38.625" r="3.375" fill="black" fill-opacity="0.8"/>
<circle cx="640.875" cy="38.625" r="3.375" fill="black" fill-opacity="0.8"/>
<circle cx="584.625" cy="53.625" r="13.125" fill="#A6D7A8"/>
<circle cx="681.375" cy="53.625" r="13.125" fill="#A6D7A8"/>
<path d="M598.717 61.0037C598.718 61.0036 598.719 61.0035 598.721 61.0034C598.688 61.0088 598.684 61.0066 598.717 61.0037ZM633 73.1152C643.118 73.1152 652.254 70.6904 658.876 67.9693C662.185 66.6094 664.921 65.1529 666.873 63.8438C667.84 63.1948 668.68 62.5386 669.309 61.9039C669.622 61.5884 669.938 61.2231 670.191 60.8159C670.419 60.4495 670.75 59.8061 670.75 58.9901C670.75 58.0146 670.277 57.1353 669.484 56.5949C668.856 56.1669 668.189 56.0614 667.804 56.0246C667.004 55.9481 666.058 56.065 665.194 56.2062C663.943 56.4105 662.286 56.773 660.379 57.1901C659.555 57.3703 658.685 57.5607 657.781 57.7529C651.645 59.057 643.222 60.615 633.75 60.615C624.271 60.615 615.468 59.0551 608.941 57.747C608.071 57.5727 607.231 57.4004 606.429 57.2362C604.284 56.7965 602.418 56.414 601.011 56.2015C600.073 56.0601 599.093 55.9516 598.28 56.0228C597.896 56.0565 597.243 56.151 596.62 56.538C595.828 57.0307 595.25 57.9074 595.25 58.9901C595.25 59.8061 595.581 60.4495 595.809 60.8159C596.062 61.2231 596.378 61.5884 596.691 61.9039C597.32 62.5386 598.16 63.1948 599.127 63.8438C601.079 65.1529 603.815 66.6094 607.124 67.9693C613.746 70.6904 622.882 73.1152 633 73.1152Z" stroke="white" stroke-width="5"/>
<path d="M919.679 30C927.377 16.6667 946.623 16.6667 954.321 30L1006.28 120C1013.98 133.333 1004.36 150 988.962 150H885.038C869.642 150 860.02 133.333 867.718 120L919.679 30Z" fill="#1E88E5"/>
<circle cx="917.5" cy="85.5" r="12.5" fill="white"/>
<circle cx="939.5" cy="85.5" r="12.5" fill="white"/>
<circle cx="917.5" cy="85.5" r="4.5" fill="black" fill-opacity="0.8"/>
<circle cx="939.5" cy="85.5" r="4.5" fill="black" fill-opacity="0.8"/>
<circle cx="884.5" cy="102.5" r="17.5" fill="#8FC4F2"/>
<circle cx="972.5" cy="102.5" r="17.5" fill="#8FC4F2"/>
<path d="M899 115C908.697 129.338 934.273 149.411 959 115" stroke="white" stroke-width="5" stroke-linecap="round"/>
</svg>
