<svg width="150" height="150" viewBox="0 0 150 150" fill="none" xmlns="http://www.w3.org/2000/svg">
<path d="M0 75C0 33.5786 33.5786 0 75 0C116.421 0 150 33.5786 150 75V150H0V75Z" fill="#4CAF50"/>
<circle cx="66.375" cy="38.625" r="9.375" fill="white"/>
<circle cx="82.875" cy="38.625" r="9.375" fill="white"/>
<circle cx="66.375" cy="38.625" r="3.375" fill="black" fill-opacity="0.8"/>
<circle cx="82.875" cy="38.625" r="3.375" fill="black" fill-opacity="0.8"/>
<circle cx="26.625" cy="53.625" r="13.125" fill="#A6D7A8"/>
<circle cx="123.375" cy="53.625" r="13.125" fill="#A6D7A8"/>
<path d="M40.7166 61.0037C40.718 61.0036 40.7195 61.0035 40.7209 61.0034C40.6881 61.0088 40.6838 61.0066 40.7166 61.0037ZM75 73.1152C85.1183 73.1152 94.2544 70.6904 100.876 67.9693C104.185 66.6094 106.921 65.1529 108.873 63.8438C109.84 63.1948 110.68 62.5386 111.309 61.9039C111.622 61.5884 111.938 61.2231 112.191 60.8159C112.419 60.4495 112.75 59.8061 112.75 58.9901C112.75 58.0146 112.277 57.1353 111.484 56.5949C110.856 56.1669 110.189 56.0614 109.804 56.0246C109.004 55.9481 108.058 56.065 107.194 56.2062C105.943 56.4105 104.286 56.773 102.379 57.1901C101.555 57.3703 100.685 57.5607 99.7808 57.7529C93.6451 59.057 85.2217 60.615 75.75 60.615C66.271 60.615 57.4678 59.0551 50.9407 57.747C50.0709 57.5727 49.2307 57.4004 48.4294 57.2362C46.284 56.7965 44.4179 56.414 43.0105 56.2015C42.0733 56.0601 41.093 55.9516 40.2801 56.0228C39.8957 56.0565 39.2426 56.151 38.6203 56.538C37.8279 57.0307 37.25 57.9074 37.25 58.9901C37.25 59.8061 37.581 60.4495 37.8088 60.8159C38.0619 61.2231 38.3781 61.5884 38.6908 61.9039C39.3201 62.5386 40.16 63.1948 41.1274 63.8438C43.0788 65.1529 45.815 66.6094 49.1242 67.9693C55.7456 70.6904 64.8817 73.1152 75 73.1152Z" stroke="white" stroke-width="5"/>
</svg>
