<svg width="150" height="150" viewBox="0 0 150 150" fill="none" xmlns="http://www.w3.org/2000/svg">
<rect width="150" height="150" rx="30" fill="#F44336"/>
<circle cx="63.375" cy="46.875" r="13.875" fill="white"/>
<circle cx="86.625" cy="46.875" r="13.875" fill="white"/>
<path d="M85.25 91.5C85.25 95.8834 83.895 99.7019 81.8916 102.338C79.8905 104.971 77.4165 106.25 75 106.25C72.5835 106.25 70.1095 104.971 68.1084 102.338C66.105 99.7019 64.75 95.8834 64.75 91.5C64.75 87.1166 66.105 83.2981 68.1084 80.6621C70.1095 78.029 72.5835 76.75 75 76.75C77.4165 76.75 79.8905 78.029 81.8916 80.6621C83.895 83.2981 85.25 87.1166 85.25 91.5Z" stroke="white" stroke-width="8"/>
<circle cx="63.375" cy="46.875" r="5.625" fill="black" fill-opacity="0.8"/>
<circle cx="86.625" cy="46.875" r="5.625" fill="black" fill-opacity="0.8"/>
<circle cx="36.375" cy="73.125" r="13.125" fill="#FAA19B"/>
<circle cx="113.625" cy="73.125" r="13.125" fill="#FAA19B"/>
</svg>
