<svg width="265" height="113" viewBox="0 0 265 113" fill="none" xmlns="http://www.w3.org/2000/svg">
<path d="M130.407 102.76C129.789 102.76 129.252 102.548 128.796 102.125C128.34 101.669 128.112 101.132 128.112 100.514V88.0625L116.442 71.7539C116.182 71.2331 116.052 70.7773 116.052 70.3867C116.052 69.7682 116.263 69.2311 116.687 68.7754C117.11 68.3197 117.631 68.0918 118.249 68.0918C119.095 68.0918 119.763 68.4661 120.251 69.2148L130.407 84.0098L140.563 69.2148C141.052 68.4661 141.719 68.0918 142.565 68.0918C143.151 68.0918 143.656 68.3197 144.079 68.7754C144.535 69.1986 144.763 69.7031 144.763 70.2891C144.763 70.6797 144.632 71.168 144.372 71.7539L132.653 88.0625V100.514C132.653 101.132 132.425 101.669 131.97 102.125C131.547 102.548 131.026 102.76 130.407 102.76ZM157.165 103.004C154.691 103.004 152.494 102.467 150.573 101.393C148.685 100.286 147.22 98.7396 146.179 96.7539C145.137 94.7682 144.616 92.5221 144.616 90.0156C144.616 87.4766 145.137 85.2142 146.179 83.2285C147.22 81.2428 148.685 79.7129 150.573 78.6387C152.494 77.5645 154.691 77.0273 157.165 77.0273C159.639 77.0273 161.82 77.5645 163.708 78.6387C165.629 79.7454 167.11 81.2917 168.151 83.2773C169.193 85.2305 169.714 87.4766 169.714 90.0156C169.714 92.5547 169.193 94.8008 168.151 96.7539C167.077 98.7721 165.58 100.318 163.659 101.393C161.771 102.467 159.606 103.004 157.165 103.004ZM149.157 89.9668C149.157 92.0501 149.548 93.7266 150.329 94.9961C151.045 96.2656 151.989 97.2259 153.161 97.877C154.366 98.528 155.7 98.8535 157.165 98.8535C158.5 98.8535 159.785 98.5443 161.022 97.9258C162.292 97.2747 163.301 96.2819 164.05 94.9473C164.799 93.5801 165.173 91.9199 165.173 89.9668C165.173 87.916 164.782 86.2559 164.001 84.9863C163.285 83.7493 162.325 82.8053 161.12 82.1543C159.948 81.5033 158.63 81.1777 157.165 81.1777C155.83 81.1777 154.545 81.4707 153.308 82.0566C152.038 82.7077 151.029 83.7005 150.28 85.0352C149.532 86.3698 149.157 88.0137 149.157 89.9668Z" fill="#F44336"/>
<path d="M177.331 90.7969C176.778 90.7969 176.306 90.6016 175.915 90.2109C175.524 89.8203 175.329 89.3483 175.329 88.7949C175.329 88.209 175.508 87.7207 175.866 87.3301C176.257 86.9395 176.745 86.7441 177.331 86.7441H186.56C187.113 86.7441 187.585 86.9557 187.976 87.3789C188.399 87.7695 188.61 88.2415 188.61 88.7949C188.61 89.3809 188.415 89.8691 188.024 90.2598C187.634 90.6178 187.146 90.7969 186.56 90.7969H177.331Z" fill="#FFC107"/>
<path d="M199.743 102.516C198.897 102.516 198.164 102.206 197.546 101.588C196.927 100.969 196.618 100.237 196.618 99.3906V70.3867C196.618 69.7682 196.83 69.2311 197.253 68.7754C197.709 68.3197 198.246 68.0918 198.864 68.0918C199.483 68.0918 200.02 68.3197 200.476 68.7754C200.931 69.2311 201.159 69.7682 201.159 70.3867V97.3887C201.159 97.7793 201.354 97.9746 201.745 97.9746H217.077C217.696 97.9746 218.233 98.2025 218.688 98.6582C219.144 99.1139 219.372 99.651 219.372 100.27C219.372 100.888 219.144 101.425 218.688 101.881C218.233 102.304 217.696 102.516 217.077 102.516H199.743ZM230.261 103.004C228.861 103.004 227.543 102.711 226.306 102.125C225.036 101.539 224.043 100.676 223.327 99.5371C222.611 98.3978 222.253 97.0957 222.253 95.6309C222.253 93.0918 223.229 91.1387 225.183 89.7715C227.168 88.3717 229.951 87.6719 233.532 87.6719H239.392V87.3301C239.392 85.2467 238.871 83.7331 237.829 82.7891C236.82 81.8125 235.176 81.3242 232.897 81.3242C231.726 81.3242 230.668 81.4219 229.724 81.6172C228.78 81.7799 227.673 82.0729 226.403 82.4961L225.769 82.5938C225.28 82.5938 224.841 82.4147 224.45 82.0566C224.092 81.666 223.913 81.2103 223.913 80.6895C223.913 79.778 224.353 79.1432 225.231 78.7852C227.966 77.6133 230.782 77.0273 233.679 77.0273C235.925 77.0273 237.845 77.4831 239.44 78.3945C240.938 79.2734 242.061 80.4453 242.81 81.9102C243.558 83.3424 243.933 84.9375 243.933 86.6953V100.514C243.933 101.132 243.705 101.669 243.249 102.125C242.793 102.548 242.256 102.76 241.638 102.76C241.019 102.76 240.482 102.548 240.026 102.125C239.603 101.669 239.392 101.132 239.392 100.514V99.3418C237.048 101.783 234.004 103.004 230.261 103.004ZM226.794 95.1426C226.794 97.7142 228.503 99 231.921 99C233.321 99 234.672 98.6745 235.974 98.0234C237.308 97.3398 238.448 96.4609 239.392 95.3867V91.334H234.118C229.235 91.334 226.794 92.6035 226.794 95.1426Z" fill="#1E88E5"/>
<path d="M254.382 93.0918C253.894 93.0918 253.487 92.9616 253.161 92.7012C252.868 92.4408 252.705 92.0827 252.673 91.627L251.794 75.5137V70.6797C251.794 69.9635 252.038 69.3613 252.526 68.873C253.047 68.3522 253.666 68.0918 254.382 68.0918C255.098 68.0918 255.7 68.3522 256.188 68.873C256.677 69.3613 256.921 69.9635 256.921 70.6797V75.5137L256.042 91.627C256.009 92.0827 255.847 92.4408 255.554 92.7012C255.261 92.9616 254.87 93.0918 254.382 93.0918ZM251.452 99.7324C251.452 98.9512 251.745 98.2676 252.331 97.6816C252.917 97.0957 253.601 96.8027 254.382 96.8027C255.196 96.8027 255.896 97.0957 256.481 97.6816C257.067 98.2676 257.36 98.9512 257.36 99.7324C257.36 100.546 257.067 101.246 256.481 101.832C255.896 102.418 255.196 102.711 254.382 102.711C253.601 102.711 252.917 102.418 252.331 101.832C251.745 101.246 251.452 100.546 251.452 99.7324Z" fill="#4CAF50"/>
<path d="M133.921 57.1992C132.619 57.1992 131.968 56.5319 131.968 55.1973C131.968 54.5462 132.587 53.765 133.824 52.8535C136.851 50.5749 139.016 47.6777 140.318 44.1621C141.522 41.0046 142.271 36.1543 142.564 29.6113L142.613 28.293H137.974C137.16 28.293 136.558 28.1465 136.167 27.8535C135.809 27.528 135.63 27.0397 135.63 26.3887C135.63 25.7376 135.809 25.2656 136.167 24.9727C136.558 24.6471 137.16 24.4844 137.974 24.4844H142.759L142.857 20.1387L142.906 18.1367C142.971 15.7279 143.052 14.4095 143.15 14.1816C143.41 13.6934 143.931 13.4492 144.712 13.4492C146.014 13.4492 146.665 14.1979 146.665 15.6953L146.568 24.4844H153.648C156.512 24.4844 157.945 25.7865 157.945 28.3906L157.261 41.1348C157.066 44.4876 156.805 47.2871 156.48 49.5332C156.154 51.7793 155.796 53.3581 155.406 54.2695C155.015 55.181 154.201 55.8809 152.964 56.3691C151.727 56.8574 150.1 57.1016 148.081 57.1016C147.17 57.1016 146.503 56.9225 146.079 56.5645C145.656 56.2064 145.445 55.653 145.445 54.9043C145.445 54.0579 145.689 53.472 146.177 53.1465C146.242 53.0814 146.503 53.0163 146.958 52.9512C147.414 52.8535 148.016 52.7884 148.765 52.7559C149.872 52.6908 150.816 52.528 151.597 52.2676C152.346 51.9746 152.932 48.6217 153.355 42.209L153.941 30.2461C154.006 28.944 153.355 28.293 151.988 28.293H146.421C146.161 34.5755 145.526 39.5397 144.517 43.1855C143.443 46.9941 141.75 50.2819 139.439 53.0488C137.128 55.8158 135.288 57.1992 133.921 57.1992ZM115.367 27.9512C115.367 27.2676 115.513 26.763 115.806 26.4375C116.132 26.112 116.636 25.9492 117.32 25.9492C117.84 25.9492 118.638 26.4375 119.712 27.4141C121.503 23.2148 122.788 19.6341 123.57 16.6719C123.993 15.0443 124.742 14.2305 125.816 14.2305C127.215 14.2305 127.915 14.7839 127.915 15.8906C127.915 17.4531 126.06 21.9779 122.349 29.4648L122.202 29.7578L126.353 34.1035L130.161 25.6562C130.617 24.6146 131.285 24.0938 132.163 24.0938C133.596 24.0938 134.312 24.6797 134.312 25.8516C134.312 26.4375 133.124 29.0579 130.747 33.7129C128.273 38.5306 126.027 42.5345 124.009 45.7246L123.326 46.9453L124.937 46.6523C125.165 46.5872 125.572 46.5221 126.158 46.457C129.413 45.806 131.366 45.3991 132.017 45.2363L130.406 41.4277L130.21 40.6465C130.21 39.6374 130.829 39.1328 132.066 39.1328C132.652 39.1328 133.156 39.4746 133.579 40.1582C134.133 41.1022 135.126 43.0716 136.558 46.0664C137.014 47.0755 137.242 47.7428 137.242 48.0684C137.242 49.2402 136.493 49.8262 134.995 49.8262C134.312 49.8262 133.71 49.2402 133.189 48.0684L127.427 49.582C124.53 50.3307 122.186 50.9004 120.396 51.291C118.638 51.6816 117.564 51.877 117.173 51.877C116.034 51.877 115.464 51.1771 115.464 49.7773C115.464 48.6055 116.262 47.9544 117.857 47.8242L119.273 47.5801H119.322C120.168 46.3105 121.893 43.0716 124.497 37.8633C121.665 34.6081 119.077 31.9714 116.734 29.9531C115.822 29.1393 115.367 28.472 115.367 27.9512ZM187.437 57.7852C186.135 57.7852 185.484 56.9876 185.484 55.3926V46.3594C182.229 49.1589 178.697 51.4701 174.888 53.293C171.112 55.1159 168.557 56.0273 167.222 56.0273C165.952 56.0273 165.318 55.3763 165.318 54.0742C165.318 53.0977 165.985 52.4141 167.32 52.0234C173.732 50.168 179.217 47.401 183.775 43.7227H168.394C166.896 43.7227 166.148 43.1204 166.148 41.916C166.148 40.7116 166.896 40.1094 168.394 40.1094H185.484V37.375H183.482C182.31 37.375 181.464 36.9193 180.943 36.0078C180.78 36.8542 180.227 37.2773 179.283 37.2773C178.469 37.2773 177.883 36.6914 177.525 35.5195L168.638 37.2773L167.71 37.375C167.157 37.4401 166.734 37.3099 166.441 36.9844C166.148 36.6263 166.001 36.138 166.001 35.5195C166.001 34.4128 166.88 33.8105 168.638 33.7129L172.007 28.4883L166.734 24.4844C166.278 24.1589 166.05 23.6706 166.05 23.0195C166.05 21.8151 166.636 21.2129 167.808 21.2129C168.133 21.2129 168.589 21.3919 169.175 21.75C170.217 19.5365 171.063 17.502 171.714 15.6465C172.137 14.5072 172.805 13.9375 173.716 13.9375C174.302 13.9375 174.758 14.084 175.083 14.377C175.409 14.6699 175.572 15.0931 175.572 15.6465C175.572 16.4928 174.27 19.097 171.665 23.459L173.863 25.2656L175.62 21.8965C176.109 20.9525 176.548 20.2689 176.939 19.8457C177.329 19.4225 177.72 19.2109 178.111 19.2109C179.315 19.2109 179.917 19.7969 179.917 20.9688C179.917 21.457 179.396 22.515 178.355 24.1426C178.192 24.403 178.046 24.6309 177.915 24.8262C177.785 25.0215 177.671 25.2005 177.574 25.3633C175.327 29.0091 173.586 31.6784 172.349 33.3711L174.595 33.127L176.695 32.834L176.06 31.0762C175.93 30.6855 175.865 30.4089 175.865 30.2461C175.865 29.3672 176.369 28.9277 177.378 28.9277C178.094 28.9277 178.745 29.6276 179.331 31.0273L179.868 32.2969C180.129 32.8177 180.324 33.306 180.454 33.7617V20.6758C180.454 18.4297 181.464 17.2578 183.482 17.1602H184.556L184.751 15.8418C184.914 14.8978 185.158 14.1979 185.484 13.7422C185.842 13.2539 186.33 13.0098 186.949 13.0098C188.251 13.0098 188.902 13.5632 188.902 14.6699C188.902 15.0605 188.706 15.8906 188.316 17.1602H191.392C192.401 17.1602 193.166 17.4694 193.687 18.0879C194.208 18.7064 194.468 19.6016 194.468 20.7734V21.8965C194.761 21.4408 195.217 21.2129 195.835 21.2129C196.226 21.2129 196.568 21.3105 196.861 21.5059C197.74 19.6178 198.553 17.6647 199.302 15.6465C199.497 15.0931 199.774 14.6699 200.132 14.377C200.49 14.084 200.881 13.9375 201.304 13.9375C201.857 13.9375 202.297 14.084 202.622 14.377C202.948 14.6699 203.111 15.0931 203.111 15.6465C203.111 16.5254 201.857 19.0482 199.351 23.2148L201.89 25.3145L203.599 22.043C204.152 21.0339 204.624 20.3014 205.015 19.8457C205.406 19.39 205.796 19.1621 206.187 19.1621C207.391 19.1621 207.993 19.748 207.993 20.9199C207.993 21.4082 207.082 23.1009 205.259 25.998C203.99 28.0488 203.046 29.5137 202.427 30.3926C201.841 31.2715 201.092 32.2969 200.181 33.4688C200.734 33.3711 201.532 33.2572 202.574 33.127C203.811 32.9967 204.738 32.8828 205.357 32.7852L204.771 31.0762L204.576 30.2949C204.576 29.3509 205.08 28.8789 206.089 28.8789C206.805 28.8789 207.456 29.5951 208.042 31.0273C209.117 33.5339 209.654 35.0801 209.654 35.666C209.654 36.7402 209.1 37.2773 207.993 37.2773C207.18 37.2773 206.594 36.6751 206.236 35.4707C200.474 36.7402 197.072 37.375 196.031 37.375C195.477 37.375 195.054 37.2122 194.761 36.8867C194.468 36.5612 194.322 36.1055 194.322 35.5195C194.322 34.9987 194.517 34.5918 194.908 34.2988C195.331 33.9733 195.9 33.778 196.617 33.7129L200.035 28.4883C199.611 28.0977 199.009 27.6257 198.228 27.0723C197.479 26.5189 196.926 26.0957 196.568 25.8027C196.079 25.5098 195.591 25.168 195.103 24.7773C194.842 24.6146 194.631 24.4193 194.468 24.1914V33.7617C194.468 34.9336 194.208 35.8288 193.687 36.4473C193.166 37.0658 192.401 37.375 191.392 37.375H189.39V40.1094H206.87C208.335 40.1094 209.068 40.7116 209.068 41.916C209.068 43.1204 208.335 43.7227 206.87 43.7227H191.001C194.68 47.1406 199.969 49.696 206.87 51.3887C208.921 51.877 209.947 52.6582 209.947 53.7324C209.947 55.1647 209.263 55.8809 207.896 55.8809C206.919 55.8809 204.641 55.1484 201.06 53.6836C195.949 51.5677 192.059 49.0775 189.39 46.2129V55.3926C189.39 56.9876 188.739 57.7852 187.437 57.7852ZM183.824 32.834C183.824 33.5501 184.214 33.9408 184.995 34.0059H189.829C190.611 34.0059 191.018 33.6152 191.05 32.834V28.6348H183.824V32.834ZM191.05 25.5098V21.6523C191.05 20.9362 190.643 20.5618 189.829 20.5293H184.995C184.279 20.5293 183.889 20.9036 183.824 21.6523V25.5098H191.05ZM222.398 57.248C220.575 57.248 219.257 56.8249 218.443 55.9785C217.629 55.1647 217.222 53.8301 217.222 51.9746V20.334C217.222 18.446 217.629 17.0951 218.443 16.2812C219.257 15.4349 220.575 15.0117 222.398 15.0117H252.964C254.787 15.0117 256.105 15.4349 256.919 16.2812C257.733 17.0951 258.14 18.446 258.14 20.334V51.9746C258.14 53.8301 257.733 55.1647 256.919 55.9785C256.105 56.8249 254.787 57.248 252.964 57.248H222.398ZM221.177 51.2422C221.177 52.8698 222.007 53.6836 223.667 53.6836H251.695C253.355 53.6836 254.185 52.8535 254.185 51.1934V20.9688C254.185 19.3411 253.355 18.5273 251.695 18.5273H223.667C222.007 18.5273 221.177 19.3411 221.177 20.9688V51.2422ZM222.642 46.2129C222.642 45.4967 223.065 45.0085 223.911 44.748C227.883 43.5111 230.845 42.3229 232.798 41.1836H229.234C228.192 41.1836 227.395 40.9069 226.841 40.3535C226.288 39.8001 226.011 39.0189 226.011 38.0098V35.7637C226.011 34.8197 226.255 34.1035 226.743 33.6152C227.264 33.0944 227.997 32.834 228.941 32.834H246.128C247.17 32.834 247.967 33.0944 248.521 33.6152C249.074 34.1361 249.351 34.9173 249.351 35.959V38.0098C249.351 40.1257 248.26 41.1836 246.079 41.1836H237.046C236.428 41.737 235.63 42.3555 234.654 43.0391V48.3613L238.413 47.6777C238.511 47.6452 238.658 47.6289 238.853 47.6289C239.309 47.6289 239.667 47.7591 239.927 48.0195C240.187 48.2799 240.318 48.638 240.318 49.0938C240.318 49.4518 240.187 49.7611 239.927 50.0215C239.699 50.2819 239.374 50.4772 238.951 50.6074C237.388 51.0632 235.63 51.4538 233.677 51.7793C231.724 52.0723 230.52 52.2513 230.064 52.3164C229.738 52.349 229.169 52.4303 228.355 52.5605C228.192 52.5931 227.98 52.6094 227.72 52.6094C226.548 52.6094 225.962 52.056 225.962 50.9492C225.962 50.0703 226.516 49.5658 227.622 49.4355C228.339 49.3379 229.592 49.1589 231.382 48.8984V44.9434C229.429 45.9525 227.346 46.8477 225.132 47.6289C224.839 47.7591 224.53 47.8242 224.204 47.8242C223.716 47.8242 223.326 47.6777 223.033 47.3848C222.772 47.0918 222.642 46.7012 222.642 46.2129ZM222.788 29.5137C222.788 28.5371 223.326 28.0488 224.4 28.0488H235.728V25.4121H226.646C225.572 25.4121 225.035 24.9238 225.035 23.9473C225.035 22.9707 225.572 22.4824 226.646 22.4824H235.728V21.0176C235.728 19.8783 236.363 19.3086 237.632 19.3086C238.251 19.3086 238.723 19.4551 239.048 19.748C239.406 20.041 239.585 20.4642 239.585 21.0176V22.4824H248.716C249.79 22.4824 250.327 22.9707 250.327 23.9473C250.327 24.9238 249.79 25.4121 248.716 25.4121H239.585V28.0488H250.913C252.053 28.0488 252.622 28.5371 252.622 29.5137C252.622 30.5228 252.053 31.0273 250.913 31.0273H224.4C223.326 31.0273 222.788 30.5228 222.788 29.5137ZM229.624 36.9844C229.624 37.8958 229.999 38.3516 230.747 38.3516H244.566C244.924 38.3516 245.201 38.2539 245.396 38.0586C245.591 37.8633 245.689 37.5052 245.689 36.9844C245.689 36.1055 245.314 35.666 244.566 35.666H230.747C229.999 35.666 229.624 36.1055 229.624 36.9844ZM237.632 43.625C237.86 43.1042 238.299 42.8438 238.951 42.8438C239.211 42.8438 239.455 42.8926 239.683 42.9902C240.985 43.4785 242.482 44.1296 244.175 44.9434C245.705 43.9017 246.991 42.9251 248.033 42.0137C248.358 41.7533 248.7 41.623 249.058 41.623C249.579 41.623 249.986 41.8346 250.279 42.2578C250.507 42.5833 250.62 42.9089 250.62 43.2344C250.62 43.7552 250.376 44.1947 249.888 44.5527C249.172 45.0736 248.212 45.6758 247.007 46.3594C247.951 46.8477 249.237 47.6452 250.865 48.752C251.581 49.2728 251.939 49.8262 251.939 50.4121C251.939 50.6725 251.857 50.9655 251.695 51.291C251.369 51.877 250.897 52.1699 250.279 52.1699C249.921 52.1699 249.53 52.0397 249.107 51.7793C245.233 49.2728 241.685 47.222 238.462 45.627C237.811 45.2689 237.486 44.8132 237.486 44.2598C237.486 44.0319 237.535 43.8203 237.632 43.625Z" fill="black" fill-opacity="0.8"/>
<rect x="15.1367" y="95.063" width="15.1364" height="3.77235" rx="1.88618" fill="#FFC107"/>
<rect x="15.1367" y="101.397" width="15.1364" height="3.77235" rx="1.88618" fill="#FFC107"/>
<rect x="11.1001" y="83.6768" width="6.83077" height="29.0308" rx="3" fill="#F44336"/>
<rect x="27.3232" y="83.6768" width="6.83077" height="29.0308" rx="3" fill="#F44336"/>
<rect x="11.1001" y="69.481" width="23.0538" height="22.0305" rx="3" fill="#1E88E5"/>
<rect x="81.4482" y="95.063" width="15.1364" height="3.77235" rx="1.88618" fill="#1E88E5"/>
<rect x="81.4482" y="101.397" width="15.1364" height="3.77235" rx="1.88618" fill="#1E88E5"/>
<rect x="76.8462" y="83.6768" width="6.83077" height="29.0308" rx="3" fill="#1E88E5"/>
<rect x="93.0693" y="83.6768" width="6.83077" height="29.0308" rx="3" fill="#1E88E5"/>
<rect x="76.8462" y="69.481" width="23.0538" height="22.0305" rx="3" fill="#F44336"/>
<rect x="43.9673" y="83.7461" width="24.5065" height="6.79023" rx="3" fill="#F44336"/>
<rect x="43.9673" y="94.8057" width="24.5065" height="6.03576" rx="3" fill="#F44336"/>
<rect x="35.8613" y="61.4771" width="11.9538" height="51.2308" rx="3" fill="#4CAF50"/>
<rect x="63.1846" y="61.4771" width="11.9538" height="51.2308" rx="3" fill="#FFC107"/>
<path d="M66.8683 4.02374e-06C68.5559 2.41563e-06 69.4849 1.96139 68.4157 3.26711L67.8039 4.01418C67.2005 4.75115 67.2005 5.81144 67.8039 6.5484L68.4157 7.29548C69.4849 8.6012 68.5559 10.5626 66.8683 10.5626H57.2339C56.1293 10.5626 55.2339 9.66715 55.2339 8.56259V2.00002C55.2339 0.895446 56.1293 1.42567e-05 57.2339 1.32041e-05L66.8683 4.02374e-06Z" fill="#FAA19B"/>
<line x1="55.7925" y1="1.50879" x2="55.7925" y2="21.125" stroke="#F44336" stroke-width="4"/>
<path d="M64.8271 4.09461e-06C66.4936 2.43099e-06 67.4291 1.91867 66.4028 3.23168L65.7635 4.04962C65.1978 4.77331 65.1978 5.78927 65.7635 6.51297L66.4028 7.33091C67.4291 8.64392 66.4936 10.5626 64.8271 10.5626H55.7925C54.6879 10.5626 53.7925 9.66715 53.7925 8.56258V2.00002C53.7925 0.895446 54.6879 1.4216e-05 55.7925 1.31134e-05L64.8271 4.09461e-06Z" fill="#F44336"/>
<rect x="35.8613" y="41.519" width="39.2769" height="37.2824" rx="3" fill="#1E88E5"/>
<path d="M45.4092 52.7944C45.4092 51.1376 46.7523 49.7944 48.4092 49.7944H62.591C64.2479 49.7944 65.591 51.1376 65.591 52.7944V67.9196C65.591 69.5765 64.2479 70.9196 62.591 70.9196H48.4092C46.7523 70.9196 45.4092 69.5765 45.4092 67.9196V52.7944Z" fill="white"/>
<path d="M95.9562 45.2539C97.0685 45.2539 97.5972 46.6236 96.7734 47.371V47.371C96.2413 47.8537 96.2413 48.6899 96.7734 49.1726V49.1726C97.5972 49.92 97.0685 51.2897 95.9562 51.2897H90.2954C89.1908 51.2897 88.2954 50.3942 88.2954 49.2897V47.2539C88.2954 46.1493 89.1908 45.2539 90.2954 45.2539L95.9562 45.2539Z" fill="#FFE083"/>
<line x1="89.0747" y1="48.272" x2="89.0747" y2="58.0801" stroke="#FFC107" stroke-width="3"/>
<path d="M94.169 45.2539C95.4734 45.2539 96.135 46.8234 95.2243 47.7572V47.7572C94.9451 48.0435 94.9451 48.5001 95.2243 48.7864V48.7864C96.135 49.7202 95.4734 51.2897 94.169 51.2897H89.5747C88.4701 51.2897 87.5747 50.3942 87.5747 49.2897V47.2539C87.5747 46.1493 88.4701 45.2539 89.5747 45.2539L94.169 45.2539Z" fill="#FFC107"/>
<path d="M86.8447 56.3265C87.9692 55.3601 89.631 55.3601 90.7555 56.3265L101.888 65.8937C103.999 67.7078 102.716 71.1689 99.9324 71.1689H77.6678C74.8846 71.1689 73.6016 67.7078 75.7125 65.8937L86.8447 56.3265Z" fill="#4CAF50"/>
<path d="M82.8892 77.6924C82.8892 76.0355 84.2323 74.6924 85.8892 74.6924H91.4216C93.0785 74.6924 94.4216 76.0355 94.4216 77.6924V83.7639C94.4216 85.4208 93.0785 86.7639 91.4216 86.7639H85.8892C84.2323 86.7639 82.8892 85.4208 82.8892 83.7639V77.6924Z" fill="white"/>
<path d="M15.0438 45.2539C13.9315 45.2539 13.4028 46.6236 14.2266 47.371V47.371C14.7587 47.8537 14.7587 48.6899 14.2266 49.1726V49.1726C13.4028 49.92 13.9315 51.2897 15.0438 51.2897H20.7046C21.8092 51.2897 22.7046 50.3942 22.7046 49.2897V47.2539C22.7046 46.1493 21.8092 45.2539 20.7046 45.2539L15.0438 45.2539Z" fill="#8FC4F2"/>
<line y1="-1.5" x2="9.80811" y2="-1.5" transform="matrix(0 1 1 0 23.4253 48.272)" stroke="#1E88E5" stroke-width="3"/>
<path d="M16.831 45.2539C15.5266 45.2539 14.865 46.8234 15.7757 47.7572V47.7572C16.0549 48.0435 16.0549 48.5001 15.7757 48.7864V48.7864C14.865 49.7202 15.5266 51.2897 16.831 51.2897H21.4253C22.5299 51.2897 23.4253 50.3942 23.4253 49.2897V47.2539C23.4253 46.1493 22.5299 45.2539 21.4253 45.2539L16.831 45.2539Z" fill="#1E88E5"/>
<path d="M20.2447 56.3263C21.3692 55.36 23.0308 55.36 24.1553 56.3263L35.2872 65.8926C37.3981 67.7067 36.1152 71.1679 33.3319 71.1679H11.0681C8.28478 71.1679 7.00188 67.7067 9.11281 65.8926L20.2447 56.3263Z" fill="#FFC107"/>
<path d="M16.5776 77.6924C16.5776 76.0355 17.9208 74.6924 19.5776 74.6924H25.1101C26.767 74.6924 28.1101 76.0355 28.1101 77.6924V83.7639C28.1101 85.4208 26.767 86.7639 25.1101 86.7639H19.5776C17.9208 86.7639 16.5776 85.4208 16.5776 83.7639V77.6924Z" fill="white"/>
<path d="M53.3514 17.4592C54.4662 16.5249 56.0907 16.5249 57.2054 17.4592L82.0387 38.2718C84.186 40.0714 82.9134 43.571 80.1117 43.571H30.4452C27.6435 43.571 26.3709 40.0714 28.5182 38.2717L53.3514 17.4592Z" fill="#F44336"/>
</svg>
