<svg width="130" height="132" viewBox="0 0 130 132" fill="none" xmlns="http://www.w3.org/2000/svg">
<rect x="17.7275" y="111.335" width="17.7273" height="4.41807" rx="2.20903" fill="#FFC107"/>
<rect x="17.7275" y="118.753" width="17.7273" height="4.41807" rx="2.20903" fill="#FFC107"/>
<rect x="13" y="98" width="8" height="34" rx="3" fill="#F44336"/>
<rect x="32" y="98" width="8" height="34" rx="3" fill="#F44336"/>
<rect x="13" y="81.374" width="27" height="25.8015" rx="3" fill="#1E88E5"/>
<rect x="95.3896" y="111.335" width="17.7273" height="4.41807" rx="2.20903" fill="#1E88E5"/>
<rect x="95.3896" y="118.753" width="17.7273" height="4.41807" rx="2.20903" fill="#1E88E5"/>
<rect x="90" y="98" width="8" height="34" rx="3" fill="#1E88E5"/>
<rect x="109" y="98" width="8" height="34" rx="3" fill="#1E88E5"/>
<rect x="90" y="81.374" width="27" height="25.8015" rx="3" fill="#F44336"/>
<rect x="51.4932" y="98.0811" width="28.7013" height="7.95253" rx="3" fill="#F44336"/>
<rect x="51.4932" y="111.034" width="28.7013" height="7.06891" rx="3" fill="#F44336"/>
<rect x="42" y="72" width="14" height="60" rx="3" fill="#4CAF50"/>
<rect x="74" y="72" width="14" height="60" rx="3" fill="#FFC107"/>
<path d="M79.0372 4.02374e-06C80.7248 2.41563e-06 81.6538 1.96139 80.5846 3.26712L79.2326 4.91819C78.6291 5.65515 78.6291 6.71545 79.2326 7.45241L80.5846 9.10348C81.6538 10.4092 80.7248 12.3706 79.0372 12.3706H66.6885C65.5839 12.3706 64.6885 11.4752 64.6885 10.3706V2.00002C64.6885 0.895448 65.5839 1.6843e-05 66.6885 1.57905e-05L79.0372 4.02374e-06Z" fill="#FAA19B"/>
<line x1="65" y1="1.76709" x2="65" y2="24.7411" stroke="#F44336" stroke-width="4"/>
<path d="M76.6255 4.0946e-06C78.292 2.43099e-06 79.2276 1.91867 78.2012 3.23168L76.8553 4.95362C76.2896 5.67732 76.2896 6.69328 76.8553 7.41697L78.2013 9.13892C79.2276 10.4519 78.292 12.3706 76.6255 12.3706H65C63.8954 12.3706 63 11.4752 63 10.3706V2.00002C63 0.895448 63.8954 1.68024e-05 65 1.56998e-05L76.6255 4.0946e-06Z" fill="#F44336"/>
<rect x="42" y="48.626" width="46" height="43.6641" rx="3" fill="#1E88E5"/>
<path d="M53.1816 61.3179C53.1816 59.661 54.5248 58.3179 56.1816 58.3179H73.818C75.4749 58.3179 76.818 59.661 76.818 61.3179V80.0591C76.818 81.7159 75.4749 83.0591 73.818 83.0591H56.1816C54.5248 83.0591 53.1816 81.7159 53.1816 80.0591V61.3179Z" fill="white"/>
<path d="M112.381 53C113.684 53 114.303 54.6042 113.338 55.4795V55.4795C112.715 56.0448 112.715 57.0242 113.338 57.5895V57.5895C114.303 58.4648 113.684 60.0689 112.381 60.0689H105.409C104.305 60.0689 103.409 59.1735 103.409 58.0689V55C103.409 53.8954 104.305 53 105.409 53L112.381 53Z" fill="#FFE083"/>
<line x1="104.065" y1="56.5347" x2="104.065" y2="68.0217" stroke="#FFC107" stroke-width="3"/>
<path d="M110.288 53C111.816 53 112.591 54.8381 111.524 55.9318V55.9318C111.197 56.267 111.197 56.8019 111.524 57.1371V57.1371C112.591 58.2308 111.816 60.0689 110.288 60.0689H104.565C103.46 60.0689 102.565 59.1735 102.565 58.0689V55C102.565 53.8954 103.46 53 104.565 53L110.288 53Z" fill="#FFC107"/>
<path d="M102.045 65.6805C103.169 64.7141 104.831 64.7141 105.955 65.6805L120.379 78.0759C122.489 79.89 121.206 83.3511 118.423 83.3511H89.5768C86.7936 83.3511 85.5106 79.89 87.6215 78.0759L102.045 65.6805Z" fill="#4CAF50"/>
<path d="M97.0776 90.4775C97.0776 88.8207 98.4208 87.4775 100.078 87.4775H107.584C109.241 87.4775 110.584 88.8207 110.584 90.4775V98.6154C110.584 100.272 109.241 101.615 107.584 101.615H100.078C98.4208 101.615 97.0776 100.272 97.0776 98.6154V90.4775Z" fill="white"/>
<path d="M17.6187 53C16.316 53 15.6968 54.6042 16.6616 55.4795V55.4795C17.2848 56.0448 17.2848 57.0242 16.6616 57.5895V57.5895C15.6968 58.4648 16.316 60.0689 17.6187 60.0689H24.5908C25.6954 60.0689 26.5908 59.1735 26.5908 58.0689V55C26.5908 53.8954 25.6954 53 24.5908 53L17.6187 53Z" fill="#8FC4F2"/>
<line y1="-1.5" x2="11.487" y2="-1.5" transform="matrix(0 1 1 0 27.4351 56.5347)" stroke="#1E88E5" stroke-width="3"/>
<path d="M19.712 53C18.1844 53 17.4095 54.8381 18.4761 55.9318V55.9318C18.8031 56.267 18.8031 56.8019 18.4761 57.1371V57.1371C17.4095 58.2308 18.1844 60.0689 19.712 60.0689H25.4351C26.5396 60.0689 27.4351 59.1735 27.4351 58.0689V55C27.4351 53.8954 26.5396 53 25.4351 53L19.712 53Z" fill="#1E88E5"/>
<path d="M24.0447 65.6803C25.1692 64.714 26.8308 64.714 27.9553 65.6803L42.3781 78.0747C44.489 79.8888 43.2061 83.35 40.4228 83.35H11.5772C8.79388 83.35 7.51098 79.8888 9.62192 78.0747L24.0447 65.6803Z" fill="#FFC107"/>
<path d="M19.4155 90.4775C19.4155 88.8207 20.7587 87.4775 22.4155 87.4775H29.922C31.5789 87.4775 32.922 88.8207 32.922 90.4775V98.6154C32.922 100.272 31.5789 101.615 29.922 101.615H22.4155C20.7587 101.615 19.4155 100.272 19.4155 98.6154V90.4775Z" fill="white"/>
<path d="M62.8133 20.1712C63.9281 19.2369 65.5525 19.2369 66.6673 20.1712L97.1634 45.7297C99.3107 47.5293 98.0381 51.029 95.2364 51.029H34.2441C31.4424 51.029 30.1698 47.5293 32.3171 45.7297L62.8133 20.1712Z" fill="#F44336"/>
</svg>
