<svg width="66" height="65" viewBox="0 0 66 65" fill="none" xmlns="http://www.w3.org/2000/svg">
<path d="M55.5434 1.01158e-05C59.7452 6.05087e-06 62.0732 4.86843 59.4353 8.139L52.2816 17.0085C50.8041 18.8404 50.8041 21.4547 52.2816 23.2865L59.4353 32.1561C62.0732 35.4267 59.7453 40.2951 55.5435 40.2951H11.4165C8.65508 40.2951 6.4165 38.0565 6.4165 35.2951V5.00005C6.4165 2.23863 8.65508 5.54769e-05 11.4165 5.28054e-05L55.5434 1.01158e-05Z" fill="#FFC107"/>
<path d="M5.96533 19.7048L5.96533 59.9999" stroke="#1E88E5" stroke-width="10" stroke-linecap="round"/>
<path d="M45.7032 1.04639e-05C49.8076 6.13218e-06 52.1638 4.67213 49.7237 7.9725L42.9199 17.175C41.6139 18.9415 41.6139 21.3536 42.9199 23.12L49.7237 32.3226C52.1638 35.6229 49.8077 40.2951 45.7032 40.2951H6C3.23858 40.2951 1 38.0565 1 35.2951V5.00005C1 2.23863 3.23857 5.528e-05 5.99999 5.23657e-05L45.7032 1.04639e-05Z" fill="#F44336"/>
</svg>
