<svg width="250" height="250" viewBox="0 0 250 250" fill="none" xmlns="http://www.w3.org/2000/svg">
<circle cx="125" cy="125" r="97.6697" transform="rotate(19.8195 125 125)" fill="#FFC107"/>
<path d="M107.215 74.7617C106.532 74.7617 106.19 74.4004 106.19 73.6777C106.19 73.3066 106.561 72.8867 107.303 72.418C109.92 70.7773 111.981 68.6094 113.485 65.9141C113.797 65.3477 114.207 65.0645 114.715 65.0645C115.535 65.0645 115.946 65.3281 115.946 65.8555C115.946 65.9141 115.897 66.0605 115.799 66.2949C118.338 69.0293 120.594 70.8359 122.567 71.7148C123.446 72.0859 123.885 72.5352 123.885 73.0625C123.885 73.8633 123.563 74.2637 122.918 74.2637C122.196 74.2637 120.926 73.5312 119.11 72.0664C119.129 72.0859 118.944 71.9297 118.553 71.5977C118.631 71.793 118.67 71.959 118.67 72.0957C118.67 72.6816 118.309 72.9746 117.586 72.9746H112.43C111.707 72.9746 111.346 72.6816 111.346 72.0957C111.346 71.959 111.356 71.8613 111.375 71.8027C109.129 73.7754 107.742 74.7617 107.215 74.7617ZM97.0491 88.0918C97.0491 87.8184 97.137 87.4668 97.3128 87.0371C97.8206 85.8066 98.1038 84.2246 98.1624 82.291C98.1819 81.4316 98.5237 81.002 99.1878 81.002C99.8714 81.002 100.213 81.373 100.213 82.1152C100.213 83.4629 100.028 84.8887 99.6565 86.3926C99.2464 88.1309 98.7288 89 98.1038 89C97.4007 89 97.0491 88.6973 97.0491 88.0918ZM97.1077 78.7168C97.1077 78.0723 97.469 77.7207 98.1917 77.6621L99.3342 77.6035H99.51L101.473 74.6738L97.8401 71.7734C97.469 71.4805 97.2835 71.168 97.2835 70.8359C97.2835 70.4844 97.3714 70.2305 97.5471 70.0742C97.7424 69.8984 98.0354 69.8105 98.426 69.8105C98.6799 69.8105 99.0315 69.9766 99.4807 70.3086V70.2793C100.457 68.4238 101.092 67.1055 101.385 66.3242C101.658 65.543 102.108 65.1523 102.733 65.1523C103.514 65.1523 103.905 65.5332 103.905 66.2949C103.905 66.8613 102.928 68.5508 100.975 71.3633H100.946L102.469 72.7109L102.645 72.8281L103.963 70.4844C104.256 69.957 104.52 69.5664 104.754 69.3125C104.989 69.0586 105.242 68.9316 105.516 68.9316C105.848 68.9316 106.102 69.0293 106.278 69.2246C106.473 69.4199 106.571 69.7031 106.571 70.0742C106.571 70.9141 104.949 73.3945 101.707 77.5156L104.959 77.3691L104.725 76.6367C104.686 76.5391 104.637 76.4023 104.578 76.2266C104.52 76.0508 104.49 75.9238 104.49 75.8457C104.49 75.5723 104.569 75.3574 104.725 75.2012C104.881 75.0449 105.106 74.9668 105.399 74.9668C105.809 74.9668 106.287 75.6211 106.834 76.9297C107.381 78.2578 107.655 79.0684 107.655 79.3613C107.655 80.0059 107.323 80.3281 106.658 80.3281C106.17 80.3281 105.799 79.9082 105.545 79.0684L103.612 79.2734V90.6699C103.612 91.4707 103.26 91.8711 102.557 91.8711C101.854 91.8711 101.502 91.4707 101.502 90.6699V79.4785L98.221 79.8008C97.8499 79.8398 97.5667 79.7617 97.3714 79.5664C97.1956 79.3711 97.1077 79.0879 97.1077 78.7168ZM104.871 81.8516C104.852 81.2656 105.155 80.9727 105.78 80.9727C106.346 80.9727 106.688 81.3926 106.805 82.2324L107.625 87.0371C107.684 87.4082 107.615 87.6914 107.42 87.8867C107.244 88.0625 106.99 88.1504 106.658 88.1504C106.073 88.1504 105.711 87.8086 105.574 87.125L104.93 82.6426L104.871 81.8516ZM108.123 76.5195C108.123 75.0352 108.875 74.293 110.379 74.293H120.34C121.824 74.293 122.567 75.0449 122.567 76.5488V79.7422C122.567 81.2656 121.824 82.0273 120.34 82.0273H110.379C108.875 82.0273 108.123 81.2852 108.123 79.8008V76.5195ZM108.944 85.4551C108.944 83.9316 109.705 83.1699 111.229 83.1699H119.373C120.897 83.1699 121.658 83.9414 121.658 85.4844V88.8535C121.658 90.377 120.897 91.1387 119.373 91.1387H111.229C109.705 91.1387 108.944 90.3867 108.944 88.8828V85.4551ZM110.028 79.4492C110.028 80.0156 110.301 80.2988 110.848 80.2988H114.364V76.0215H110.848C110.301 76.0215 110.028 76.2949 110.028 76.8418V79.4492ZM110.936 77.3398C110.936 77.0859 111.004 76.9004 111.141 76.7832C111.297 76.6465 111.512 76.5781 111.785 76.5781C112.039 76.5781 112.274 76.7344 112.489 77.0469C112.723 77.3398 112.957 77.8086 113.192 78.4531L113.28 78.7754C113.28 79.3613 112.987 79.6543 112.401 79.6543C112.01 79.6543 111.658 79.293 111.346 78.5703C111.073 77.9453 110.936 77.5352 110.936 77.3398ZM111.053 88.7363C111.053 89.2246 111.307 89.4785 111.815 89.498H118.67C119.198 89.498 119.461 89.2344 119.461 88.707V87.9453H111.053V88.7363ZM119.461 86.334V85.6602C119.461 85.1328 119.198 84.8594 118.67 84.8398H111.815C111.541 84.8398 111.346 84.9082 111.229 85.0449C111.112 85.1621 111.053 85.3574 111.053 85.6309V86.334H119.461ZM112.225 71.2168H117.586C117.86 71.2168 118.074 71.2559 118.231 71.334C116.824 70.1426 115.672 68.9902 114.774 67.877C114.266 68.5605 113.758 69.2051 113.25 69.8105C112.762 70.416 112.323 70.9043 111.932 71.2754L112.225 71.2168ZM119.813 80.2988C120.086 80.2988 120.291 80.2305 120.428 80.0938C120.584 79.9375 120.662 79.7227 120.662 79.4492V76.8711C120.662 76.3047 120.379 76.0215 119.813 76.0215H116.151V80.2988H119.813ZM116.971 78.9805C116.971 78.8633 117.117 78.3945 117.41 77.5742C117.684 76.8516 118.045 76.4902 118.494 76.4902C119.08 76.4902 119.373 76.7539 119.373 77.2812C119.373 77.6328 119.246 78.082 118.992 78.6289C118.641 79.3906 118.26 79.7715 117.85 79.7715C117.264 79.7715 116.971 79.5078 116.971 78.9805ZM131.033 73.8535C130.408 73.8535 130.096 73.6094 130.096 73.1211C130.096 72.6133 130.408 72.3594 131.033 72.3594H138.944V71.0703H128.104C127.44 71.0703 127.108 70.8066 127.108 70.2793C127.108 69.752 127.44 69.4883 128.104 69.4883H138.944V68.2578H131.033C130.369 68.2578 130.037 67.9941 130.037 67.4668C130.037 66.9395 130.369 66.6758 131.033 66.6758H138.944V66.1484C138.944 65.4062 139.344 65.0352 140.145 65.0352C140.946 65.0352 141.346 65.4062 141.346 66.1484V66.6758H148.348C149.774 66.6758 150.487 67.3008 150.487 68.5508V69.4883H152.889C153.553 69.4883 153.885 69.752 153.885 70.2793C153.885 70.8066 153.553 71.0703 152.889 71.0703H150.487V71.9199C150.487 73.209 149.774 73.8535 148.348 73.8535H141.346V75.084H150.721C151.346 75.084 151.658 75.3379 151.658 75.8457C151.658 76.334 151.346 76.5781 150.721 76.5781H141.346V77.8965H152.889C153.553 77.8965 153.885 78.1602 153.885 78.6875C153.885 79.2148 153.553 79.4785 152.889 79.4785H128.104C127.772 79.4785 127.528 79.4199 127.371 79.3027C127.215 79.166 127.137 78.9609 127.137 78.6875C127.137 78.1602 127.459 77.8965 128.104 77.8965H138.944V76.5781H130.213C129.588 76.5781 129.276 76.334 129.276 75.8457C129.276 75.3379 129.588 75.084 130.213 75.084H138.944V73.8535H131.033ZM127.108 90.2012C127.108 89.6543 127.449 89.3809 128.133 89.3809H152.86C153.543 89.3809 153.885 89.6543 153.885 90.2012C153.885 90.748 153.543 91.0215 152.86 91.0215H128.133C127.449 91.0215 127.108 90.748 127.108 90.2012ZM129.803 82.8477C129.803 81.3828 130.545 80.6504 132.03 80.6504H148.992C150.438 80.6504 151.16 81.3828 151.16 82.8477V85.9531C151.16 87.418 150.438 88.1504 148.992 88.1504H132.03C130.545 88.1504 129.803 87.418 129.803 85.9531V82.8477ZM132.176 85.8066C132.176 86.2949 132.449 86.5586 132.996 86.5977H139.032V85.0742H132.176V85.8066ZM139.032 83.6094V82.2031H132.996C132.489 82.2031 132.215 82.4668 132.176 82.9941V83.6094H139.032ZM147.498 72.3594C147.948 72.3594 148.172 72.1445 148.172 71.7148V71.0703H141.346V72.3594H147.498ZM148.172 69.4883V68.9316C148.172 68.5215 147.948 68.2969 147.498 68.2578H141.346V69.4883H148.172ZM147.996 86.5977C148.485 86.5977 148.748 86.334 148.787 85.8066V85.0742H141.375V86.5977H147.996ZM148.787 83.6094V82.9941C148.787 82.5059 148.524 82.2422 147.996 82.2031H141.375V83.6094H148.787Z" fill="white"/>
<path d="M121.03 114.368C120.826 113.876 120.352 113.547 119.823 113.547H117.245C116.716 113.547 116.228 113.876 116.038 114.368L113.23 121.436C112.796 122.529 111.249 122.529 110.815 121.436L108.007 114.368C107.804 113.876 107.329 113.547 106.8 113.547H105.511C101.917 113.547 99 116.487 99 120.11V144.171V147.233V148.546H100.302H149.788H151.091V147.233V144.171V120.11C151.091 116.487 148.174 113.547 144.579 113.547H130.268C129.739 113.547 129.25 113.876 129.061 114.368L126.253 121.436C125.818 122.529 124.272 122.529 123.838 121.436L121.03 114.368ZM99 152.921V157.295C99 162.121 102.893 166.045 107.682 166.045H116.364V174.795C116.364 179.62 120.257 183.544 125.045 183.544C129.834 183.544 133.727 179.62 133.727 174.795V166.045H142.409C147.197 166.045 151.091 162.121 151.091 157.295V152.921H99ZM125.045 172.607C125.621 172.607 126.173 172.838 126.58 173.248C126.987 173.658 127.216 174.214 127.216 174.795C127.216 175.375 126.987 175.931 126.58 176.341C126.173 176.751 125.621 176.982 125.045 176.982C124.47 176.982 123.918 176.751 123.511 176.341C123.103 175.931 122.875 175.375 122.875 174.795C122.875 174.214 123.103 173.658 123.511 173.248C123.918 172.838 124.47 172.607 125.045 172.607Z" fill="white"/>
</svg>
