<svg width="180" height="180" viewBox="0 0 180 180" fill="none" xmlns="http://www.w3.org/2000/svg">
<rect width="180" height="180" rx="15" fill="#F44336"/>
<path d="M73.4142 42.1328C73.4142 40.8242 73.8634 39.9941 74.7619 39.6426C75.1525 39.5059 75.8556 39.3789 76.8712 39.2617C79.6252 38.9297 82.1935 38.4023 84.5763 37.6797C84.9084 37.582 85.1623 37.5332 85.338 37.5332C86.1193 37.5332 86.5099 37.9531 86.5099 38.793C86.5099 39.3789 86.1877 39.7598 85.5431 39.9355C84.7033 40.1504 83.6291 40.3652 82.3205 40.5801L82.2912 42.7773C82.2912 44.1055 82.3107 45.707 82.3498 47.582H86.2755C87.1544 47.582 87.5939 47.9434 87.5939 48.666C87.5939 49.3887 87.1544 49.75 86.2755 49.75H82.4669C82.6623 52.4648 83.1017 54.9258 83.7853 57.1328C84.4298 59.2422 85.006 60.2969 85.5138 60.2969C85.6701 60.2969 85.7873 60.1113 85.8654 59.7402C85.9435 59.3496 86.0021 58.7051 86.0412 57.8066C86.0802 56.8496 86.3927 56.3711 86.9787 56.3711C87.2912 56.3711 87.5255 56.4785 87.6818 56.6934C87.838 56.9082 87.9162 57.2891 87.9162 57.8359C87.9162 59.5938 87.7306 60.9414 87.3595 61.8789C86.9884 62.8164 86.4416 63.2852 85.7189 63.2852C85.1134 63.2852 84.5177 62.9922 83.9318 62.4062C83.3459 61.8398 82.8185 61 82.3498 59.8867C81.8419 58.7148 81.4123 57.3184 81.0607 55.6973C80.7287 54.0566 80.5041 52.3086 80.3869 50.4531L80.3576 49.75H75.6994V59.916C76.9494 59.4473 77.8966 59.0566 78.5412 58.7441C79.3419 58.334 79.9181 58.1289 80.2697 58.1289C80.8556 58.1289 81.1486 58.4316 81.1486 59.0371C81.1486 59.584 80.4845 60.1602 79.1564 60.7656C77.2814 61.625 75.7287 62.2695 74.4982 62.6992C73.2873 63.1484 72.4767 63.373 72.0666 63.373C71.4025 63.373 71.0705 63.041 71.0705 62.377C71.0705 61.7324 71.6857 61.2148 72.9162 60.8242C73.1701 60.7461 73.3361 60.6973 73.4142 60.6777V42.1328ZM61.1681 60.0625C61.1681 59.8086 61.256 59.4375 61.4318 58.9492C61.881 57.7188 62.1837 56.1172 62.34 54.1445C62.3986 53.3633 62.7404 52.9727 63.3654 52.9727C63.7169 52.9727 63.9709 53.0703 64.1271 53.2656C64.3029 53.4414 64.3908 53.7344 64.3908 54.1445C64.3908 55.2383 64.2638 56.4199 64.0099 57.6895C63.8732 58.4121 63.7462 59.0273 63.6291 59.5352C63.5119 60.0234 63.4044 60.3457 63.3068 60.502C63.2091 60.6777 63.0627 60.8242 62.8673 60.9414C62.6916 61.0391 62.4962 61.0879 62.2814 61.0879C61.5392 61.0879 61.1681 60.7461 61.1681 60.0625ZM61.1681 50.7754C61.1681 50.1895 61.4611 49.8379 62.047 49.7207L63.7462 49.5742L65.797 46.7324L64.4201 45.6484L62.838 44.5059C61.9201 43.8418 61.4611 43.3242 61.4611 42.9531C61.4611 42.2305 61.8127 41.8691 62.5158 41.8691C62.8087 41.8691 63.1994 42.0449 63.6877 42.3965C64.5861 40.9121 65.299 39.5156 65.8263 38.207C66.0998 37.5039 66.549 37.1523 67.174 37.1523C67.9943 37.1523 68.4044 37.5332 68.4044 38.2949C68.4044 38.998 67.3595 40.7559 65.2697 43.5684L66.9982 44.9453L68.8439 41.8398C69.215 41.2344 69.6154 40.9316 70.0451 40.9316C70.8459 40.9316 71.2462 41.3223 71.2462 42.1035C71.2462 42.4355 70.797 43.2266 69.8986 44.4766L69.2541 45.4141C68.8634 45.9219 68.3361 46.6348 67.672 47.5527C67.0275 48.4707 66.5197 49.1445 66.1486 49.5742L69.6349 49.3398C69.3029 48.5586 69.1369 48.0117 69.1369 47.6992C69.1369 47.4453 69.2248 47.25 69.4005 47.1133C69.5763 46.957 69.8205 46.8789 70.133 46.8789C70.5822 46.8789 71.0021 47.3477 71.3927 48.2852L71.8322 49.3398C72.2619 50.375 72.4767 51.0391 72.4767 51.332C72.4767 52.0156 72.1252 52.3574 71.422 52.3574C70.8947 52.3574 70.5041 51.9082 70.2502 51.0098L68.0529 51.3027V62.7285C68.0529 63.5293 67.6623 63.9297 66.881 63.9297C66.1193 63.9297 65.7384 63.5293 65.7384 62.7285V51.5371L62.2228 51.918C61.8908 51.957 61.6271 51.8691 61.4318 51.6543C61.256 51.4395 61.1681 51.1465 61.1681 50.7754ZM69.2248 53.8516C69.2248 53.5586 69.3029 53.334 69.4591 53.1777C69.6349 53.0215 69.8693 52.9434 70.1623 52.9434C70.4357 52.9434 70.6701 53.0508 70.8654 53.2656C71.0802 53.4609 71.2072 53.7148 71.2462 54.0273L72.1252 59.0371C72.1837 59.3691 72.1056 59.6328 71.8908 59.8281C71.6955 60.0039 71.4123 60.0918 71.0412 60.0918C70.4162 60.0918 70.0255 59.418 69.8693 58.0703C69.8302 57.7773 69.713 57.0254 69.5177 55.8145C69.4787 55.5605 69.4298 55.2871 69.3712 54.9941C69.3322 54.7012 69.2931 54.3984 69.2541 54.0859L69.2248 53.8516ZM80.2404 47.582C80.1427 45.8633 80.0841 43.6562 80.0646 40.9609C79.1466 41.1172 78.1115 41.2637 76.9591 41.4004C76.1193 41.498 75.6994 41.8887 75.6994 42.5723V47.582H80.2404ZM92.8673 61.7031C91.8712 61.7031 91.3732 61.293 91.3732 60.4727C91.3732 59.6719 91.8712 59.2715 92.8673 59.2715H103.268V41.6641H94.7423C93.7462 41.6641 93.2482 41.2637 93.2482 40.4629C93.2482 39.6426 93.7462 39.2324 94.7423 39.2324H114.459C115.494 39.2324 116.012 39.6426 116.012 40.4629C116.012 41.2637 115.494 41.6641 114.459 41.6641H105.787V59.2715H116.334C117.35 59.2715 117.858 59.6719 117.858 60.4727C117.858 61.293 117.35 61.7031 116.334 61.7031H92.8673Z" fill="white"/>
<path d="M58 92.9026V98.1058C58 100.024 59.5641 101.575 61.5 101.575H63.25H68.5V92.9026C68.5 90.0301 66.1484 87.6995 63.25 87.6995C60.3516 87.6995 58 90.0301 58 92.9026ZM70.25 87.6995C71.3438 89.1521 72 90.9515 72 92.9026V125.856C72 129.682 75.1391 132.793 79 132.793C82.8609 132.793 86 129.682 86 125.856V125.281C86 121.769 88.8766 118.918 92.4203 118.918H110.5V98.1058C110.5 92.3607 105.797 87.6995 100 87.6995H70.25ZM108.75 136.262C115.52 136.262 121 130.831 121 124.121C121 123.167 120.213 122.387 119.25 122.387H92.4203C90.8125 122.387 89.5 123.677 89.5 125.281V125.856C89.5 131.601 84.7969 136.262 79 136.262H98.25H108.75Z" fill="white"/>
</svg>
