<svg width="180" height="180" viewBox="0 0 180 180" fill="none" xmlns="http://www.w3.org/2000/svg">
<rect width="180" height="180" rx="15" fill="#F44336"/>
<path d="M36.3538 48.168C35.1429 48.168 34.264 47.8945 33.7171 47.3477C33.1702 46.8203 32.8968 45.9414 32.8968 44.7109V26.9863C32.8968 25.7754 33.1605 24.8965 33.6878 24.3496C34.2347 23.8027 35.1234 23.5293 36.3538 23.5293H54.1077C55.3187 23.5293 56.1976 23.8027 56.7444 24.3496C57.2913 24.877 57.5648 25.7559 57.5648 26.9863V44.7109C57.5648 45.9219 57.2913 46.8008 56.7444 47.3477C56.2171 47.8945 55.3382 48.168 54.1077 48.168H36.3538ZM35.3577 44.0078C35.3577 45.1602 35.9339 45.7363 37.0862 45.7363H53.3753C54.5276 45.7363 55.1038 45.1602 55.1038 44.0078V27.6602C55.1038 26.5078 54.5276 25.9316 53.3753 25.9316H37.0862C35.9339 25.9316 35.3577 26.5078 35.3577 27.6602V44.0078ZM38.7855 32.4941C38.7855 31.4395 39.0198 30.668 39.4886 30.1797C39.9769 29.6719 40.7484 29.4473 41.803 29.5059H48.5706C49.6448 29.5059 50.4261 29.75 50.9144 30.2383C51.4222 30.707 51.6468 31.459 51.5882 32.4941V38.998C51.5882 41.0098 50.5823 41.9668 48.5706 41.8691H41.803C40.7288 41.8691 39.9378 41.6348 39.43 41.166C38.9417 40.6777 38.7269 39.916 38.7855 38.8809V32.4941ZM41.1585 38.2656C41.1585 39.1445 41.598 39.584 42.4769 39.584H47.9261C48.805 39.584 49.2444 39.1445 49.2444 38.2656V33.1094C49.2444 32.2305 48.805 31.791 47.9261 31.791H42.4769C41.598 31.791 41.1585 32.2305 41.1585 33.1094V38.2656ZM72.887 48.666C72.1058 48.666 71.7151 48.2168 71.7151 47.3184C71.7151 46.791 72.1448 46.3613 73.0042 46.0293C75.5237 45.0723 77.5062 43.959 78.9515 42.6895C78.0726 41.5762 77.3401 40.0723 76.7542 38.1777C76.1683 36.2832 75.7484 34.125 75.4944 31.7031C74.7523 33.2266 74.2347 34.1445 73.9417 34.457C73.6292 34.8086 73.3167 34.9844 73.0042 34.9844C72.1644 34.9844 71.7444 34.5938 71.7444 33.8125C71.7444 33.6172 71.9007 33.3242 72.2132 32.9336C73.8343 30.7852 75.1917 27.6699 76.2855 23.5879C76.5198 22.6309 76.9691 22.1523 77.6331 22.1523C78.5901 22.1523 79.0687 22.4844 79.0687 23.1484C79.0687 23.832 78.4827 25.3945 77.3109 27.8359H87.4183C88.1605 27.8359 88.5316 28.2363 88.5316 29.0371C88.5316 29.8379 88.1605 30.2383 87.4183 30.2383H85.9827C85.7679 32.7773 85.4944 34.8379 85.1624 36.4199C84.6937 38.8027 83.678 40.9219 82.1155 42.7773C83.2874 43.7734 84.6741 44.623 86.2757 45.3262C87.7796 45.9707 88.5316 46.5664 88.5316 47.1133C88.5316 47.4648 88.3948 47.8066 88.1214 48.1387C87.887 48.4121 87.5941 48.5488 87.2425 48.5488C86.637 48.5488 85.5921 48.0801 84.1077 47.1426C82.5648 46.166 81.3636 45.2676 80.5042 44.4473C79.1566 45.5996 77.7503 46.5762 76.2855 47.377C74.723 48.2363 73.5901 48.666 72.887 48.666ZM61.8128 41.752C61.8128 41.0879 62.3694 40.6289 63.4827 40.375V26.5469C63.4827 25.5703 63.8636 25.082 64.6253 25.082C65.387 25.082 65.7679 25.5703 65.7679 26.5469V39.7598L68.8441 38.7344V23.5586C68.8441 22.6016 69.2347 22.123 70.0159 22.123C70.7776 22.123 71.1585 22.6016 71.1585 23.5586V47.4355C71.1585 48.3926 70.7776 48.8711 70.0159 48.8711C69.2347 48.8711 68.8441 48.3926 68.8441 47.4355V41.1074C65.3284 42.416 63.3558 43.0703 62.9261 43.0703C62.1839 43.0703 61.8128 42.6309 61.8128 41.752ZM77.6331 30.2383C77.887 35.2578 78.8343 38.8613 80.4749 41.0488C82.3109 38.7051 83.3362 35.1016 83.5511 30.2383H77.6331ZM110.006 48.6074C109.01 48.6074 108.512 48.1973 108.512 47.377C108.512 46.5566 108.981 46.1465 109.918 46.1465H111.354C111.764 46.1465 112.086 46.0391 112.321 45.8242C112.555 45.5898 112.682 45.2578 112.701 44.8281V33.6074L112.584 33.5781C111.256 36.1172 109.498 38.5977 107.311 41.0195C106.256 42.1719 105.348 43.041 104.586 43.627C103.844 44.2129 103.268 44.5059 102.858 44.5059C102.116 44.5059 101.744 44.0957 101.744 43.2754C101.744 42.8262 102.086 42.3574 102.77 41.8691C104.567 40.5996 106.393 38.7832 108.248 36.4199C110.065 34.0957 111.393 32.0156 112.233 30.1797H105.084C104.244 30.1797 103.825 29.7891 103.825 29.0078C103.825 28.2461 104.244 27.8652 105.084 27.8652H112.672V23.4414C112.672 22.582 113.073 22.1523 113.873 22.1523C114.655 22.1523 115.045 22.582 115.045 23.4414V27.8652H117.448C118.19 27.8652 118.561 28.2559 118.561 29.0371C118.561 29.7988 118.19 30.1797 117.448 30.1797H115.075V45.4434C115.075 46.5371 114.811 47.3477 114.284 47.875C113.776 48.4023 112.994 48.6465 111.94 48.6074H110.006ZM91.9007 40.6094C91.9007 40.3164 92.1253 39.8672 92.5745 39.2617C94.4495 36.7812 95.8558 33.7148 96.7933 30.0625H93.4241C92.6429 30.0625 92.2523 29.7012 92.2523 28.9785C92.2523 28.2363 92.6429 27.8652 93.4241 27.8652H96.9984V23.4414C96.9984 22.582 97.3792 22.1523 98.1409 22.1523C98.9026 22.1523 99.2835 22.582 99.2835 23.4414V27.8652H101.95C102.731 27.8652 103.121 28.2363 103.121 28.9785C103.121 29.7012 102.731 30.0625 101.95 30.0625H99.2835V33.9883C99.3616 33.7734 99.4886 33.5977 99.6644 33.4609C99.8597 33.3047 100.045 33.2559 100.221 33.3145C100.709 33.4707 101.461 34.0762 102.477 35.1309C103.649 36.3613 104.235 37.1914 104.235 37.6211C104.235 38.3438 103.873 38.7051 103.151 38.7051C102.994 38.7051 102.809 38.6172 102.594 38.4414C102.399 38.2461 102.096 37.9141 101.686 37.4453C101.432 37.1719 101.139 36.8301 100.807 36.4199C100.221 35.7363 99.8792 35.3457 99.7816 35.248C99.5667 35.0332 99.4007 34.8086 99.2835 34.5742V47.582C99.2835 48.4219 98.9026 48.8418 98.1409 48.8418C97.3792 48.8418 96.9984 48.4219 96.9984 47.582V34.6328C96.7835 35.3359 96.471 36.1758 96.0609 37.1523C95.6507 38.1094 95.2991 38.8906 95.0062 39.4961C94.2054 41.1172 93.5413 41.9277 93.014 41.9277C92.2718 41.9277 91.9007 41.4883 91.9007 40.6094ZM143.991 48.8418C143.19 48.8418 142.789 48.334 142.789 47.3184V40.1992L136.051 42.0156C135.817 42.0742 135.612 42.1035 135.436 42.1035C135.065 42.1035 134.801 41.9863 134.645 41.752C134.489 41.5176 134.41 41.2246 134.41 40.873C134.41 40.248 134.733 39.8477 135.377 39.6719L142.789 37.7676V23.6758C142.789 22.6602 143.2 22.1523 144.02 22.1523C144.84 22.1523 145.25 22.6602 145.25 23.6758V37.123L147.008 36.625C147.184 36.5664 147.35 36.5371 147.506 36.5371C147.819 36.5371 148.063 36.6348 148.239 36.8301C148.414 37.0254 148.502 37.3086 148.502 37.6797C148.502 38.2852 148.18 38.6758 147.535 38.8516L145.25 39.5547V47.3184C145.25 47.8457 145.143 48.2266 144.928 48.4609C144.733 48.7148 144.42 48.8418 143.991 48.8418ZM121.842 42.25C121.842 41.918 122.076 41.4688 122.545 40.9023C124.616 38.5391 126.09 35.9414 126.969 33.1094H123.102C122.321 33.1094 121.93 32.7383 121.93 31.9961C121.93 31.2734 122.321 30.9121 123.102 30.9121H127.35V23.3242C127.35 22.5234 127.731 22.123 128.492 22.123C129.254 22.123 129.635 22.5234 129.635 23.3242V30.9121H132.858C133.756 30.9121 134.205 31.2734 134.205 31.9961C134.205 32.3672 134.088 32.6504 133.854 32.8457C133.619 33.0215 133.287 33.1094 132.858 33.1094H129.635V36.3906C129.869 36.1172 130.172 35.9805 130.543 35.9805C130.895 35.9805 131.393 36.4004 132.037 37.2402L132.653 38.002C133.082 38.5488 133.385 38.9785 133.561 39.291C133.737 39.584 133.825 39.8672 133.825 40.1406C133.825 40.3945 133.737 40.5996 133.561 40.7559C133.385 40.9121 133.151 40.9902 132.858 40.9902C132.467 40.9902 132.106 40.7559 131.774 40.2871L129.899 37.6211L129.635 37.2695V47.6406C129.635 48.4414 129.254 48.8418 128.492 48.8418C127.731 48.8418 127.35 48.4414 127.35 47.6406V37.1523C126.764 38.5 126.002 39.916 125.065 41.4004C124.127 42.8457 123.405 43.5684 122.897 43.5684C122.194 43.5684 121.842 43.1289 121.842 42.25ZM122.809 25.7266C122.77 25.5703 122.75 25.4629 122.75 25.4043C122.75 25.1504 122.848 24.9453 123.043 24.7891C123.258 24.6133 123.512 24.5254 123.805 24.5254C124.274 24.5254 124.606 24.7598 124.801 25.2285C124.918 25.502 125.084 25.9707 125.299 26.6348C125.514 27.2988 125.68 27.9043 125.797 28.4512C125.856 28.7637 125.797 29.0176 125.621 29.2129C125.465 29.4082 125.26 29.5352 125.006 29.5938C124.928 29.6133 124.811 29.623 124.655 29.623C124.42 29.623 124.205 29.5547 124.01 29.418C123.834 29.2812 123.717 29.0859 123.659 28.832C123.444 27.9141 123.16 26.8789 122.809 25.7266ZM131.012 28.2754C131.364 27.123 131.647 26.0879 131.862 25.1699C131.92 24.916 132.037 24.7207 132.213 24.584C132.409 24.4473 132.623 24.3789 132.858 24.3789C133.014 24.3789 133.131 24.3887 133.209 24.4082C133.463 24.4668 133.668 24.5938 133.825 24.7891C134 24.9844 134.059 25.2383 134 25.5508C133.883 26.0977 133.717 26.7031 133.502 27.3672C133.287 28.0312 133.121 28.5 133.004 28.7734C132.809 29.2422 132.477 29.4766 132.008 29.4766C131.715 29.4766 131.461 29.3984 131.246 29.2422C131.051 29.0664 130.953 28.8516 130.953 28.5977C130.953 28.5391 130.973 28.4316 131.012 28.2754ZM135.319 32.3184C135.319 31.9473 135.407 31.6641 135.582 31.4688C135.758 31.2734 136.002 31.1758 136.315 31.1758C136.588 31.1758 136.92 31.2832 137.311 31.498C137.701 31.6934 138.2 32.0156 138.805 32.4648C139.977 33.3047 140.563 33.9492 140.563 34.3984C140.563 35.2188 140.153 35.6289 139.332 35.6289C139.176 35.6289 138.922 35.5215 138.571 35.3066C138.219 35.0723 137.799 34.75 137.311 34.3398L136.403 33.6367C135.68 33.0703 135.319 32.6309 135.319 32.3184ZM136.403 25.7266C136.403 25.375 136.481 25.1016 136.637 24.9062C136.813 24.7109 137.047 24.6133 137.34 24.6133C137.672 24.6133 137.985 24.7012 138.278 24.877C138.727 25.1504 139.254 25.5312 139.86 26.0195C140.465 26.5078 140.875 26.8984 141.09 27.1914C141.305 27.4648 141.412 27.7383 141.412 28.0117C141.412 28.3438 141.315 28.6074 141.119 28.8027C140.924 28.9785 140.68 29.0664 140.387 29.0664C140.153 29.0664 139.928 29.0078 139.713 28.8906C139.498 28.7734 139.254 28.5879 138.981 28.334C138.571 27.9434 138.014 27.4648 137.311 26.8984C136.705 26.4102 136.403 26.0195 136.403 25.7266ZM63.3362 76.5234C62.5941 76.5234 62.223 76.123 62.223 75.3223C62.223 75.0488 62.4476 74.5898 62.8968 73.9453C64.0296 72.3242 64.596 69.4141 64.596 65.2148V62.8125C64.596 61.2109 65.4456 60.4102 67.1448 60.4102H75.3187C76.139 60.4102 76.7444 60.6055 77.1351 60.9961C77.5257 61.3867 77.721 61.9824 77.721 62.7832V66.2988C77.721 67.9004 76.9007 68.7012 75.2601 68.7012H66.6468C66.5882 70.5566 66.1097 72.4609 65.2112 74.4141C64.8792 75.1172 64.5569 75.6445 64.2444 75.9961C63.9515 76.3477 63.6487 76.5234 63.3362 76.5234ZM61.9886 59.1504C61.9886 58.7207 62.3304 58.291 63.014 57.8613C65.3382 56.416 67.5648 54.3848 69.6937 51.7676C70.0648 51.2988 70.5237 51.0645 71.0706 51.0645C71.3636 51.0645 71.6077 51.1426 71.803 51.2988C71.9984 51.4551 72.1058 51.6406 72.1253 51.8555V52.0605C72.1253 52.2949 72.0862 52.4902 72.0081 52.6465C75.2894 54.3652 77.3401 55.5566 78.1605 56.2207C78.6292 56.6113 78.8636 56.9824 78.8636 57.334C78.8636 57.666 78.7659 57.959 78.5706 58.2129C78.3948 58.4473 78.1605 58.5645 77.8675 58.5645C77.4378 58.5645 77.0179 58.3984 76.6077 58.0664L76.5198 57.9785V58.1543C76.5198 58.7793 76.178 59.0918 75.4944 59.0918H67.1741C66.5882 59.0918 66.2464 58.8379 66.1487 58.3301C65.2894 58.9746 64.6155 59.4531 64.1273 59.7656C63.639 60.0586 63.2776 60.2051 63.0433 60.2051C62.6722 60.2051 62.3987 60.127 62.223 59.9707C62.0667 59.8145 61.9886 59.541 61.9886 59.1504ZM66.7347 72.4805C66.7347 71.6211 66.9202 70.9961 67.2913 70.6055C67.6624 70.2148 68.2679 70.0391 69.1077 70.0781H75.2894C76.1292 70.0781 76.7444 70.2734 77.1351 70.6641C77.5452 71.0352 77.7503 71.6406 77.7503 72.4805V75.1172C77.7503 76.7969 76.93 77.5781 75.2894 77.4609H69.1077C68.2484 77.4609 67.6234 77.2754 67.2327 76.9043C66.8421 76.5332 66.6761 75.9375 66.7347 75.1172V72.4805ZM74.9378 66.8848C75.3284 66.8848 75.5237 66.6895 75.5237 66.2988V65.4199H66.7933V66.8848H74.9378ZM75.5237 63.6621V62.8125C75.5237 62.4219 75.3284 62.2266 74.9378 62.2266H67.3499C66.9984 62.2266 66.8226 62.4219 66.8226 62.8125V63.6621H75.5237ZM75.4944 57.2168C74.2054 56.2402 72.6624 55.1953 70.8655 54.082C69.6741 55.3516 68.5804 56.3965 67.5843 57.2168H75.4944ZM68.9612 74.7363C68.9612 75.3027 69.264 75.5859 69.8694 75.5859H74.6155C75.2015 75.5859 75.4944 75.3027 75.4944 74.7363V72.8906C75.4944 72.3047 75.2015 72.0117 74.6155 72.0117H69.8694C69.264 72.0117 68.9612 72.3047 68.9612 72.8906V74.7363ZM79.8304 55.0488C79.8304 54.1309 80.2112 53.6719 80.973 53.6719C81.7542 53.6719 82.1448 54.1309 82.1448 55.0488V70.459C82.1448 71.3965 81.7542 71.8652 80.973 71.8652C80.2112 71.8652 79.8304 71.3965 79.8304 70.459V55.0488ZM80.7679 76.4062C80.7679 75.625 81.2366 75.2344 82.1741 75.2344H84.137C84.7816 75.2344 85.1038 74.8828 85.1038 74.1797V53.0273C85.1038 52.0312 85.4944 51.5332 86.2757 51.5332C87.0765 51.5332 87.4769 52.0312 87.4769 53.0273V74.6484C87.4769 75.7031 87.2327 76.4648 86.7444 76.9336C86.2757 77.4023 85.5042 77.6367 84.43 77.6367H82.1741C81.2366 77.6367 80.7679 77.2266 80.7679 76.4062ZM92.9261 66.3867C92.2034 66.3867 91.8421 65.9473 91.8421 65.0684C91.8421 64.6973 92.1839 64.0039 92.8675 62.9883C94.762 60.0781 96.3636 56.6113 97.6722 52.5879C97.8284 52.0996 98.014 51.7383 98.2288 51.5039C98.4632 51.25 98.7366 51.123 99.0491 51.123C99.9671 51.123 100.426 51.5039 100.426 52.2656C100.426 52.7734 99.6839 54.5996 98.1995 57.7441V76.4062C98.1995 77.3828 97.7796 77.8711 96.9398 77.8711C96.1585 77.8711 95.7679 77.3828 95.7679 76.4062V62.6074C95.1234 63.8379 94.5569 64.7754 94.0687 65.4199C93.5804 66.0645 93.1995 66.3867 92.9261 66.3867ZM99.4007 61.8164C99.4007 61.5039 99.6155 61.084 100.045 60.5566C100.905 59.502 101.715 58.2715 102.477 56.8652C103.239 55.4395 103.912 53.9453 104.498 52.3828C104.791 51.6211 105.231 51.2402 105.817 51.2402C106.676 51.2402 107.106 51.582 107.106 52.2656C107.106 52.6562 106.725 53.6914 105.963 55.3711H117.125C117.575 55.3711 117.916 55.4688 118.151 55.6641C118.405 55.8594 118.532 56.1426 118.532 56.5137C118.532 56.8848 118.405 57.168 118.151 57.3633C117.916 57.5586 117.575 57.6562 117.125 57.6562H109.742V61.9629H115.66C116.578 61.9629 117.037 62.3438 117.037 63.1055C117.037 63.8672 116.578 64.248 115.66 64.248H109.742V68.584H116.657C117.594 68.584 118.063 68.9648 118.063 69.7266C118.063 70.4883 117.594 70.8691 116.657 70.8691H109.742V76.377C109.742 77.373 109.332 77.8711 108.512 77.8711C107.692 77.8711 107.282 77.373 107.282 76.377V57.6562H104.821C103.883 59.4531 103.053 60.8105 102.33 61.7285C101.608 62.6465 101.012 63.1055 100.543 63.1055C99.7816 63.1055 99.4007 62.6758 99.4007 61.8164Z" fill="white"/>
<path d="M81.4846 108.802C83.4364 105.714 86.8716 103.846 90.5521 103.846C94.2326 103.846 97.6678 105.714 99.6196 108.802L103.925 115.582L106.936 113.868C107.873 113.329 109.044 113.406 109.903 114.054C110.762 114.703 111.141 115.802 110.862 116.834L108.252 126.438C107.873 127.845 106.401 128.68 104.973 128.306L95.2253 125.735C94.1769 125.46 93.4073 124.592 93.2623 123.537C93.1173 122.482 93.6415 121.439 94.5784 120.911L97.7459 119.109L93.5635 112.527C92.9166 111.505 91.779 110.879 90.5521 110.879C89.3253 110.879 88.1877 111.505 87.5408 112.527L85.589 115.604C84.5629 117.23 82.3992 117.746 80.7262 116.758C79.0198 115.747 78.4733 113.549 79.5329 111.879L81.4846 108.802ZM109.903 131.526C111.576 130.537 113.739 131.053 114.766 132.68L117.487 136.976C118.535 138.635 119.093 140.536 119.115 142.492C119.149 148.327 114.353 153.085 108.431 153.085L97.6901 153.074V156.59C97.6901 157.656 97.0432 158.623 96.0394 159.03C95.0357 159.436 93.8869 159.217 93.1173 158.458L85.9793 151.426C84.931 150.393 84.931 148.723 85.9793 147.701L93.1173 140.668C93.8869 139.91 95.0357 139.69 96.0394 140.097C97.0432 140.503 97.6901 141.47 97.6901 142.536V146.052H108.419C110.382 146.052 111.977 144.47 111.966 142.536C111.966 141.888 111.776 141.251 111.431 140.701L108.709 136.405C107.65 134.734 108.185 132.537 109.903 131.526ZM69.2385 128.119L66.0153 126.284C65.0784 125.746 64.5542 124.713 64.6992 123.658C64.8442 122.603 65.6138 121.735 66.6622 121.461L76.41 118.889C77.8376 118.516 79.3098 119.351 79.689 120.757L82.2988 130.35C82.5776 131.383 82.1984 132.471 81.3397 133.13C80.4809 133.789 79.3098 133.855 78.3729 133.317L75.4174 131.636L69.6735 140.69C69.3278 141.24 69.1382 141.877 69.1382 142.525C69.127 144.459 70.7219 146.042 72.6848 146.042H76.2761C78.2502 146.042 79.8451 147.613 79.8451 149.558C79.8451 151.503 78.2502 153.074 76.2761 153.074H72.6848C66.7625 153.074 61.9667 148.327 62.0002 142.481C62.0113 140.525 62.569 138.624 63.6285 136.965L69.2385 128.119Z" fill="white"/>
</svg>
