<svg width="50" height="58" viewBox="0 0 50 58" fill="none" xmlns="http://www.w3.org/2000/svg">
<path d="M13.8088 45.0778L13.8093 45.0792C16.444 51.9427 22.8493 56.5 30.029 56.5C39.7644 56.5 47.55 48.3137 47.55 38.3333V16.9792C47.55 15.9094 47.142 14.8721 46.3982 14.0982C45.6524 13.3224 44.628 12.875 43.5467 12.875C42.4654 12.875 41.441 13.3224 40.6952 14.0982C40.642 14.1536 40.5906 14.2103 40.5408 14.2682V10.7292C40.5408 9.65938 40.1329 8.62206 39.389 7.84824L38.3076 8.88774L39.389 7.84824C38.6433 7.0724 37.6188 6.625 36.5376 6.625C35.4563 6.625 34.4319 7.0724 33.6861 7.84824C33.6329 7.90358 33.5814 7.96027 33.5317 8.01822V7.60417C33.5317 6.53438 33.1237 5.49706 32.3799 4.72324C31.6341 3.9474 30.6097 3.5 29.5284 3.5C28.4471 3.5 27.4227 3.9474 26.6769 4.72324C25.9331 5.49706 25.5251 6.53438 25.5251 7.60417V9.05988C25.4754 9.00193 25.4239 8.94524 25.3707 8.8899L24.2893 9.92941L25.3707 8.8899C24.6249 8.11407 23.6005 7.66667 22.5192 7.66667C21.4379 7.66667 20.4135 8.11407 19.6677 8.8899C18.9239 9.66372 18.516 10.701 18.516 11.7708V32.0767L17.0909 28.359L17.0904 28.3575C16.4966 26.8132 15.2494 25.5823 13.688 25.0584L12.1109 24.5184L12.108 24.5174C11.4664 24.2992 10.7763 24.2754 10.121 24.4497C9.46621 24.6238 8.88088 24.9864 8.42973 25.486C7.97908 25.985 7.67991 26.6009 7.55965 27.259C7.43943 27.917 7.50152 28.5976 7.74061 29.2231L7.74084 29.2237L13.8088 45.0778Z" fill="#8FC4F2" stroke="#8FC4F2" stroke-width="3"/>
<path d="M10.8088 43.0778L10.8093 43.0792C13.444 49.9427 19.8493 54.5 27.029 54.5C36.7644 54.5 44.55 46.3137 44.55 36.3333V14.9792C44.55 13.9094 44.142 12.8721 43.3982 12.0982C42.6524 11.3224 41.628 10.875 40.5467 10.875C39.4654 10.875 38.441 11.3224 37.6952 12.0982C37.642 12.1536 37.5906 12.2103 37.5408 12.2682V8.72917C37.5408 7.65938 37.1329 6.62206 36.389 5.84824L35.3076 6.88774L36.389 5.84824C35.6433 5.0724 34.6188 4.625 33.5376 4.625C32.4563 4.625 31.4319 5.0724 30.6861 5.84824C30.6329 5.90358 30.5814 5.96027 30.5317 6.01822V5.60417C30.5317 4.53438 30.1237 3.49706 29.3799 2.72324C28.6341 1.9474 27.6097 1.5 26.5284 1.5C25.4471 1.5 24.4227 1.9474 23.6769 2.72324C22.9331 3.49706 22.5251 4.53438 22.5251 5.60417V7.05988C22.4754 7.00193 22.4239 6.94524 22.3707 6.8899L21.2893 7.92941L22.3707 6.8899C21.6249 6.11407 20.6005 5.66667 19.5192 5.66667C18.4379 5.66667 17.4135 6.11407 16.6677 6.8899C15.9239 7.66372 15.516 8.70105 15.516 9.77083V30.0767L14.0909 26.359L14.0904 26.3575C13.4966 24.8132 12.2494 23.5823 10.688 23.0584L9.11086 22.5184L9.10802 22.5174C8.46643 22.2992 7.77626 22.2754 7.12098 22.4497C6.46621 22.6238 5.88088 22.9864 5.42973 23.486C4.97908 23.985 4.67991 24.6009 4.55965 25.259C4.43943 25.917 4.50152 26.5976 4.74061 27.2231L4.74084 27.2237L10.8088 43.0778Z" fill="white" stroke="#1E88E5" stroke-width="3"/>
<rect x="21" y="32" width="5.2" height="5.45455" fill="#F44336"/>
<path d="M28.7998 34.6C28.7998 33.1641 29.9639 32 31.3998 32C32.8357 32 33.9998 33.1641 33.9998 34.6V40.1818H28.7998V34.6Z" fill="#4CAF50"/>
<ellipse cx="23.6" cy="42.9091" rx="2.6" ry="2.72727" fill="#FFC107"/>
<path d="M31.3998 41.5455L33.6515 45.6364H29.1481L31.3998 41.5455Z" fill="#1E88E5"/>
</svg>
