<svg width="50" height="54" viewBox="0 0 50 54" fill="none" xmlns="http://www.w3.org/2000/svg">
<path d="M33.9987 11.2956C33.9987 15.786 30.3464 19.4338 25.8317 19.4338C21.317 19.4338 17.6648 15.786 17.6648 11.2956C17.6648 6.80526 21.317 3.15747 25.8317 3.15747C30.3464 3.15747 33.9987 6.80526 33.9987 11.2956Z" stroke="#8FC4F2" stroke-width="3"/>
<path d="M33.9987 43.4231C33.9987 47.9134 30.3464 51.5612 25.8317 51.5612C21.317 51.5612 17.6648 47.9134 17.6648 43.4231C17.6648 38.9327 21.317 35.2849 25.8317 35.2849C30.3464 35.2849 33.9987 38.9327 33.9987 43.4231Z" stroke="#8FC4F2" stroke-width="3"/>
<path d="M19.4999 19.3274C19.4999 23.8177 15.8477 27.4655 11.333 27.4655C6.81826 27.4655 3.16602 23.8177 3.16602 19.3274C3.16602 14.837 6.81826 11.1892 11.333 11.1892C15.8477 11.1892 19.4999 14.837 19.4999 19.3274Z" stroke="#8FC4F2" stroke-width="3"/>
<path d="M48.5001 19.3274C48.5001 23.8177 44.8479 27.4655 40.3332 27.4655C35.8185 27.4655 32.1663 23.8177 32.1663 19.3274C32.1663 14.837 35.8185 11.1892 40.3332 11.1892C44.8479 11.1892 48.5001 14.837 48.5001 19.3274Z" stroke="#8FC4F2" stroke-width="3"/>
<path d="M19.4999 35.3913C19.4999 39.8817 15.8477 43.5295 11.333 43.5295C6.81826 43.5295 3.16602 39.8817 3.16602 35.3913C3.16602 30.901 6.81826 27.2532 11.333 27.2532C15.8477 27.2532 19.4999 30.901 19.4999 35.3913Z" stroke="#8FC4F2" stroke-width="3"/>
<path d="M48.5001 35.3913C48.5001 39.8817 44.8479 43.5295 40.3332 43.5295C35.8185 43.5295 32.1663 39.8817 32.1663 35.3913C32.1663 30.901 35.8185 27.2532 40.3332 27.2532C44.8479 27.2532 48.5001 30.901 48.5001 35.3913Z" stroke="#8FC4F2" stroke-width="3"/>
<path d="M32.3327 9.63815C32.3327 14.1285 28.6804 17.7763 24.1657 17.7763C19.651 17.7763 15.9988 14.1285 15.9988 9.63815C15.9988 5.14779 19.651 1.5 24.1657 1.5C28.6804 1.5 32.3327 5.14779 32.3327 9.63815Z" stroke="#1E88E5" stroke-width="3"/>
<path d="M32.3327 41.7656C32.3327 46.256 28.6804 49.9038 24.1657 49.9038C19.651 49.9038 15.9988 46.256 15.9988 41.7656C15.9988 37.2752 19.651 33.6274 24.1657 33.6274C28.6804 33.6274 32.3327 37.2752 32.3327 41.7656Z" stroke="#1E88E5" stroke-width="3"/>
<path d="M17.8339 17.6696C17.8339 22.16 14.1816 25.8078 9.66694 25.8078C5.15224 25.8078 1.5 22.16 1.5 17.6696C1.5 13.1793 5.15224 9.53149 9.66694 9.53149C14.1816 9.53149 17.8339 13.1793 17.8339 17.6696Z" stroke="#1E88E5" stroke-width="3"/>
<path d="M46.8341 17.6699C46.8341 22.1603 43.1819 25.808 38.6672 25.808C34.1525 25.808 30.5002 22.1603 30.5002 17.6699C30.5002 13.1795 34.1525 9.53174 38.6672 9.53174C43.1819 9.53174 46.8341 13.1795 46.8341 17.6699Z" stroke="#1E88E5" stroke-width="3"/>
<path d="M17.8339 33.7331C17.8339 38.2235 14.1816 41.8713 9.66694 41.8713C5.15224 41.8713 1.5 38.2235 1.5 33.7331C1.5 29.2428 5.15224 25.595 9.66694 25.595C14.1816 25.595 17.8339 29.2428 17.8339 33.7331Z" stroke="#1E88E5" stroke-width="3"/>
<path d="M46.8341 33.7331C46.8341 38.2235 43.1819 41.8713 38.6672 41.8713C34.1525 41.8713 30.5002 38.2235 30.5002 33.7331C30.5002 29.2428 34.1525 25.595 38.6672 25.595C43.1819 25.595 46.8341 29.2428 46.8341 33.7331Z" stroke="#1E88E5" stroke-width="3"/>
<path d="M21.4285 22.449H24.2856V25.4174H21.4285V22.449Z" fill="#F44336"/>
<path d="M25.7141 23.8775C25.7141 23.0886 26.3537 22.449 27.1427 22.449C27.9317 22.449 28.5713 23.0886 28.5713 23.8775V26.9017H25.7141V23.8775Z" fill="#4CAF50"/>
<ellipse cx="22.857" cy="28.3858" rx="1.42857" ry="1.48423" fill="#FFC107"/>
<path d="M27.1427 27.6438L28.3799 29.8701H25.9055L27.1427 27.6438Z" fill="#1E88E5"/>
</svg>
