<svg width="50" height="54" viewBox="0 0 50 54" fill="none" xmlns="http://www.w3.org/2000/svg">
<path d="M33.9987 11.2956C33.9987 15.786 30.3464 19.4338 25.8317 19.4338C21.317 19.4338 17.6648 15.786 17.6648 11.2956C17.6648 6.80526 21.317 3.15747 25.8317 3.15747C30.3464 3.15747 33.9987 6.80526 33.9987 11.2956Z" stroke="#A6D7A8" stroke-width="3"/>
<path d="M33.9987 43.4231C33.9987 47.9134 30.3464 51.5612 25.8317 51.5612C21.317 51.5612 17.6648 47.9134 17.6648 43.4231C17.6648 38.9327 21.317 35.2849 25.8317 35.2849C30.3464 35.2849 33.9987 38.9327 33.9987 43.4231Z" stroke="#A6D7A8" stroke-width="3"/>
<path d="M19.4998 19.3274C19.4998 23.8177 15.8475 27.4655 11.3328 27.4655C6.81814 27.4655 3.16589 23.8177 3.16589 19.3274C3.16589 14.837 6.81814 11.1892 11.3328 11.1892C15.8475 11.1892 19.4998 14.837 19.4998 19.3274Z" stroke="#A6D7A8" stroke-width="3"/>
<path d="M48.5 19.3274C48.5 23.8177 44.8478 27.4655 40.3331 27.4655C35.8184 27.4655 32.1661 23.8177 32.1661 19.3274C32.1661 14.837 35.8184 11.1892 40.3331 11.1892C44.8478 11.1892 48.5 14.837 48.5 19.3274Z" stroke="#A6D7A8" stroke-width="3"/>
<path d="M19.4998 35.3913C19.4998 39.8817 15.8475 43.5295 11.3328 43.5295C6.81814 43.5295 3.16589 39.8817 3.16589 35.3913C3.16589 30.901 6.81814 27.2532 11.3328 27.2532C15.8475 27.2532 19.4998 30.901 19.4998 35.3913Z" stroke="#A6D7A8" stroke-width="3"/>
<path d="M48.5 35.3913C48.5 39.8817 44.8478 43.5295 40.3331 43.5295C35.8184 43.5295 32.1661 39.8817 32.1661 35.3913C32.1661 30.901 35.8184 27.2532 40.3331 27.2532C44.8478 27.2532 48.5 30.901 48.5 35.3913Z" stroke="#A6D7A8" stroke-width="3"/>
<path d="M32.3328 9.63815C32.3328 14.1285 28.6805 17.7763 24.1658 17.7763C19.6511 17.7763 15.9989 14.1285 15.9989 9.63815C15.9989 5.14779 19.6511 1.5 24.1658 1.5C28.6805 1.5 32.3328 5.14779 32.3328 9.63815Z" stroke="#4CAF50" stroke-width="3"/>
<path d="M32.3328 41.7656C32.3328 46.256 28.6805 49.9038 24.1658 49.9038C19.6511 49.9038 15.9989 46.256 15.9989 41.7656C15.9989 37.2752 19.6511 33.6274 24.1658 33.6274C28.6805 33.6274 32.3328 37.2752 32.3328 41.7656Z" stroke="#4CAF50" stroke-width="3"/>
<path d="M17.8339 17.6696C17.8339 22.16 14.1816 25.8078 9.66694 25.8078C5.15224 25.8078 1.5 22.16 1.5 17.6696C1.5 13.1793 5.15224 9.53149 9.66694 9.53149C14.1816 9.53149 17.8339 13.1793 17.8339 17.6696Z" stroke="#4CAF50" stroke-width="3"/>
<path d="M46.8341 17.6699C46.8341 22.1603 43.1819 25.808 38.6672 25.808C34.1525 25.808 30.5002 22.1603 30.5002 17.6699C30.5002 13.1795 34.1525 9.53174 38.6672 9.53174C43.1819 9.53174 46.8341 13.1795 46.8341 17.6699Z" stroke="#4CAF50" stroke-width="3"/>
<path d="M17.8339 33.7331C17.8339 38.2235 14.1816 41.8713 9.66694 41.8713C5.15224 41.8713 1.5 38.2235 1.5 33.7331C1.5 29.2428 5.15224 25.595 9.66694 25.595C14.1816 25.595 17.8339 29.2428 17.8339 33.7331Z" stroke="#4CAF50" stroke-width="3"/>
<path d="M46.8341 33.7331C46.8341 38.2235 43.1819 41.8713 38.6672 41.8713C34.1525 41.8713 30.5002 38.2235 30.5002 33.7331C30.5002 29.2428 34.1525 25.595 38.6672 25.595C43.1819 25.595 46.8341 29.2428 46.8341 33.7331Z" stroke="#4CAF50" stroke-width="3"/>
<path d="M21.4286 22.449H24.2857V25.4174H21.4286V22.449Z" fill="#F44336"/>
<path d="M25.7144 23.8775C25.7144 23.0886 26.3539 22.449 27.1429 22.449C27.9319 22.449 28.5715 23.0886 28.5715 23.8775V26.9017H25.7144V23.8775Z" fill="#4CAF50"/>
<ellipse cx="22.8572" cy="28.3858" rx="1.42857" ry="1.48423" fill="#FFC107"/>
<path d="M27.1429 27.6438L28.3801 29.8701H25.9057L27.1429 27.6438Z" fill="#1E88E5"/>
</svg>
