<svg width="50" height="54" viewBox="0 0 50 54" fill="none" xmlns="http://www.w3.org/2000/svg">
<path d="M33.9987 11.9409C33.9987 16.4313 30.3464 20.079 25.8317 20.079C21.317 20.079 17.6648 16.4313 17.6648 11.9409C17.6648 7.45052 21.317 3.80273 25.8317 3.80273C30.3464 3.80273 33.9987 7.45052 33.9987 11.9409Z" stroke="#FFE083" stroke-width="3"/>
<path d="M33.9987 44.0683C33.9987 48.5587 30.3464 52.2065 25.8317 52.2065C21.317 52.2065 17.6648 48.5587 17.6648 44.0683C17.6648 39.578 21.317 35.9302 25.8317 35.9302C30.3464 35.9302 33.9987 39.578 33.9987 44.0683Z" stroke="#FFE083" stroke-width="3"/>
<path d="M19.4998 19.9726C19.4998 24.463 15.8475 28.1108 11.3328 28.1108C6.81814 28.1108 3.16589 24.463 3.16589 19.9726C3.16589 15.4823 6.81814 11.8345 11.3328 11.8345C15.8475 11.8345 19.4998 15.4823 19.4998 19.9726Z" stroke="#FFE083" stroke-width="3"/>
<path d="M48.5 19.9726C48.5 24.463 44.8478 28.1108 40.3331 28.1108C35.8184 28.1108 32.1661 24.463 32.1661 19.9726C32.1661 15.4823 35.8184 11.8345 40.3331 11.8345C44.8478 11.8345 48.5 15.4823 48.5 19.9726Z" stroke="#FFE083" stroke-width="3"/>
<path d="M19.4998 36.0366C19.4998 40.527 15.8475 44.1747 11.3328 44.1747C6.81814 44.1747 3.16589 40.527 3.16589 36.0366C3.16589 31.5462 6.81814 27.8984 11.3328 27.8984C15.8475 27.8984 19.4998 31.5462 19.4998 36.0366Z" stroke="#FFE083" stroke-width="3"/>
<path d="M48.5 36.0366C48.5 40.527 44.8478 44.1747 40.3331 44.1747C35.8184 44.1747 32.1661 40.527 32.1661 36.0366C32.1661 31.5462 35.8184 27.8984 40.3331 27.8984C44.8478 27.8984 48.5 31.5462 48.5 36.0366Z" stroke="#FFE083" stroke-width="3"/>
<path d="M32.3328 10.2834C32.3328 14.7738 28.6805 18.4216 24.1658 18.4216C19.6511 18.4216 15.9989 14.7738 15.9989 10.2834C15.9989 5.79305 19.6511 2.14526 24.1658 2.14526C28.6805 2.14526 32.3328 5.79305 32.3328 10.2834Z" stroke="#FFC107" stroke-width="3"/>
<path d="M32.3328 42.4109C32.3328 46.9012 28.6805 50.549 24.1658 50.549C19.6511 50.549 15.9989 46.9012 15.9989 42.4109C15.9989 37.9205 19.6511 34.2727 24.1658 34.2727C28.6805 34.2727 32.3328 37.9205 32.3328 42.4109Z" stroke="#FFC107" stroke-width="3"/>
<path d="M17.8339 18.3149C17.8339 22.8053 14.1816 26.4531 9.66694 26.4531C5.15224 26.4531 1.5 22.8053 1.5 18.3149C1.5 13.8245 5.15224 10.1768 9.66694 10.1768C14.1816 10.1768 17.8339 13.8245 17.8339 18.3149Z" stroke="#FFC107" stroke-width="3"/>
<path d="M46.8341 18.3152C46.8341 22.8055 43.1819 26.4533 38.6672 26.4533C34.1525 26.4533 30.5002 22.8055 30.5002 18.3152C30.5002 13.8248 34.1525 10.177 38.6672 10.177C43.1819 10.177 46.8341 13.8248 46.8341 18.3152Z" stroke="#FFC107" stroke-width="3"/>
<path d="M17.8339 34.3784C17.8339 38.8688 14.1816 42.5165 9.66694 42.5165C5.15224 42.5165 1.5 38.8688 1.5 34.3784C1.5 29.888 5.15224 26.2402 9.66694 26.2402C14.1816 26.2402 17.8339 29.888 17.8339 34.3784Z" stroke="#FFC107" stroke-width="3"/>
<path d="M46.8341 34.3784C46.8341 38.8688 43.1819 42.5165 38.6672 42.5165C34.1525 42.5165 30.5002 38.8688 30.5002 34.3784C30.5002 29.888 34.1525 26.2402 38.6672 26.2402C43.1819 26.2402 46.8341 29.888 46.8341 34.3784Z" stroke="#FFC107" stroke-width="3"/>
<path d="M21.4286 23.0942H24.2857V26.0627H21.4286V23.0942Z" fill="#F44336"/>
<path d="M25.7144 24.5228C25.7144 23.7338 26.3539 23.0942 27.1429 23.0942C27.9319 23.0942 28.5715 23.7338 28.5715 24.5228V27.5469H25.7144V24.5228Z" fill="#4CAF50"/>
<ellipse cx="22.8572" cy="29.0311" rx="1.42857" ry="1.48423" fill="#FFC107"/>
<path d="M27.1429 28.2891L28.3801 30.5154H25.9057L27.1429 28.2891Z" fill="#1E88E5"/>
</svg>
