<svg width="54" height="48" viewBox="0 0 54 48" fill="none" xmlns="http://www.w3.org/2000/svg">
<path fill-rule="evenodd" clip-rule="evenodd" d="M15 4C13.8954 4 13 4.89543 13 6V26.6283C8.41242 27.6316 5 31.4287 5 35.9596C5 41.2563 9.66348 45.5502 15.4162 45.5502C21.1689 45.5502 25.8324 41.2563 25.8324 35.9596C25.8324 34.6239 25.5358 33.352 25 32.1966V15.6319H40V26.3298C34.8085 26.8742 30.7754 30.9327 30.7754 35.8584C30.7754 41.1552 35.4389 45.449 41.1916 45.449C46.9443 45.449 51.6078 41.1552 51.6078 35.8584C51.6078 34.7229 51.3934 33.6335 51 32.6226V6C51 4.89543 50.1046 4 49 4H46H42H23H19H15Z" fill="#8FC4F2"/>
<path d="M13 26.6283L13.3205 28.0937L14.5 27.8357V26.6283H13ZM25 32.1966H23.5V32.5275L23.6392 32.8276L25 32.1966ZM25 15.6319V14.1319H23.5V15.6319H25ZM40 15.6319H41.5V14.1319H40V15.6319ZM40 26.3298L40.1564 27.8217L41.5 27.6808V26.3298H40ZM51 32.6226H49.5V32.9042L49.6021 33.1666L51 32.6226ZM14.5 6C14.5 5.72386 14.7239 5.5 15 5.5V2.5C13.067 2.5 11.5 4.067 11.5 6H14.5ZM14.5 26.6283V6H11.5V26.6283H14.5ZM6.5 35.9596C6.5 32.2285 9.32442 28.9676 13.3205 28.0937L12.6795 25.163C7.50042 26.2956 3.5 30.6289 3.5 35.9596H6.5ZM15.4162 44.0502C10.3729 44.0502 6.5 40.3137 6.5 35.9596H3.5C3.5 42.199 8.95407 47.0502 15.4162 47.0502V44.0502ZM24.3324 35.9596C24.3324 40.3137 20.4595 44.0502 15.4162 44.0502V47.0502C21.8783 47.0502 27.3324 42.199 27.3324 35.9596H24.3324ZM23.6392 32.8276C24.0863 33.7918 24.3324 34.8489 24.3324 35.9596H27.3324C27.3324 34.3989 26.9853 32.9122 26.3608 31.5655L23.6392 32.8276ZM23.5 15.6319V32.1966H26.5V15.6319H23.5ZM40 14.1319H25V17.1319H40V14.1319ZM41.5 26.3298V15.6319H38.5V26.3298H41.5ZM39.8436 24.838C33.9977 25.451 29.2754 30.0596 29.2754 35.8584H32.2754C32.2754 31.8057 35.6192 28.2974 40.1564 27.8217L39.8436 24.838ZM29.2754 35.8584C29.2754 42.0978 34.7295 46.949 41.1916 46.949V43.949C36.1483 43.949 32.2754 40.2125 32.2754 35.8584H29.2754ZM41.1916 46.949C47.6537 46.949 53.1078 42.0978 53.1078 35.8584H50.1078C50.1078 40.2125 46.2349 43.949 41.1916 43.949V46.949ZM53.1078 35.8584C53.1078 34.5322 52.8571 33.2586 52.3979 32.0785L49.6021 33.1666C49.9297 34.0084 50.1078 34.9136 50.1078 35.8584H53.1078ZM49.5 6V32.6226H52.5V6H49.5ZM49 5.5C49.2761 5.5 49.5 5.72386 49.5 6H52.5C52.5 4.067 50.933 2.5 49 2.5V5.5ZM46 5.5H49V2.5H46V5.5ZM42 5.5H46V2.5H42V5.5ZM23 5.5H42V2.5H23V5.5ZM19 5.5H23V2.5H19V5.5ZM15 5.5H19V2.5H15V5.5Z" fill="#8FC4F2"/>
<path fill-rule="evenodd" clip-rule="evenodd" d="M12 2C10.8954 2 10 2.89543 10 4V24.6283C5.41242 25.6316 2 29.4287 2 33.9596C2 39.2563 6.66348 43.5502 12.4162 43.5502C18.1689 43.5502 22.8324 39.2563 22.8324 33.9596C22.8324 32.6239 22.5358 31.352 22 30.1966V13.6319H37V24.3298C31.8085 24.8742 27.7754 28.9327 27.7754 33.8584C27.7754 39.1552 32.4389 43.449 38.1916 43.449C43.9443 43.449 48.6078 39.1552 48.6078 33.8584C48.6078 32.7229 48.3934 31.6335 48 30.6226V4C48 2.89543 47.1046 2 46 2H43H39H20H16H12Z" fill="white"/>
<path d="M10 24.6283L10.3205 26.0937L11.5 25.8357V24.6283H10ZM22 30.1966H20.5V30.5275L20.6392 30.8276L22 30.1966ZM22 13.6319V12.1319H20.5V13.6319H22ZM37 13.6319H38.5V12.1319H37V13.6319ZM37 24.3298L37.1564 25.8217L38.5 25.6808V24.3298H37ZM48 30.6226H46.5V30.9042L46.6021 31.1666L48 30.6226ZM11.5 4C11.5 3.72386 11.7239 3.5 12 3.5V0.5C10.067 0.5 8.5 2.067 8.5 4H11.5ZM11.5 24.6283V4H8.5V24.6283H11.5ZM3.5 33.9596C3.5 30.2285 6.32442 26.9676 10.3205 26.0937L9.67953 23.163C4.50042 24.2956 0.5 28.6289 0.5 33.9596H3.5ZM12.4162 42.0502C7.37289 42.0502 3.5 38.3137 3.5 33.9596H0.5C0.5 40.199 5.95407 45.0502 12.4162 45.0502V42.0502ZM21.3324 33.9596C21.3324 38.3137 17.4595 42.0502 12.4162 42.0502V45.0502C18.8783 45.0502 24.3324 40.199 24.3324 33.9596H21.3324ZM20.6392 30.8276C21.0863 31.7918 21.3324 32.8489 21.3324 33.9596H24.3324C24.3324 32.3989 23.9853 30.9122 23.3608 29.5655L20.6392 30.8276ZM20.5 13.6319V30.1966H23.5V13.6319H20.5ZM37 12.1319H22V15.1319H37V12.1319ZM38.5 24.3298V13.6319H35.5V24.3298H38.5ZM36.8436 22.838C30.9977 23.451 26.2754 28.0596 26.2754 33.8584H29.2754C29.2754 29.8057 32.6192 26.2974 37.1564 25.8217L36.8436 22.838ZM26.2754 33.8584C26.2754 40.0978 31.7295 44.949 38.1916 44.949V41.949C33.1483 41.949 29.2754 38.2125 29.2754 33.8584H26.2754ZM38.1916 44.949C44.6537 44.949 50.1078 40.0978 50.1078 33.8584H47.1078C47.1078 38.2125 43.2349 41.949 38.1916 41.949V44.949ZM50.1078 33.8584C50.1078 32.5322 49.8571 31.2586 49.3979 30.0785L46.6021 31.1666C46.9297 32.0084 47.1078 32.9136 47.1078 33.8584H50.1078ZM46.5 4V30.6226H49.5V4H46.5ZM46 3.5C46.2761 3.5 46.5 3.72386 46.5 4H49.5C49.5 2.067 47.933 0.5 46 0.5V3.5ZM43 3.5H46V0.5H43V3.5ZM39 3.5H43V0.5H39V3.5ZM20 3.5H39V0.5H20V3.5ZM16 3.5H20V0.5H16V3.5ZM12 3.5H16V0.5H12V3.5Z" fill="#1E88E5"/>
<rect x="34" y="29" width="3.6" height="3.63636" fill="#F44336"/>
<path d="M39.3999 30.8C39.3999 29.8059 40.2058 29 41.1999 29C42.194 29 42.9999 29.8059 42.9999 30.8V34.4545H39.3999V30.8Z" fill="#4CAF50"/>
<ellipse cx="35.8" cy="36.2727" rx="1.8" ry="1.81818" fill="#FFC107"/>
<path d="M41.1999 35.3636L42.7587 38.0909H39.6411L41.1999 35.3636Z" fill="#1E88E5"/>
</svg>
