<svg width="53" height="51" viewBox="0 0 53 51" fill="none" xmlns="http://www.w3.org/2000/svg">
<mask id="path-1-outside-1_390_3335" maskUnits="userSpaceOnUse" x="3" y="2" width="50" height="49" fill="black">
<rect fill="white" x="3" y="2" width="50" height="49"/>
<path fill-rule="evenodd" clip-rule="evenodd" d="M37.7168 25.7486C39.512 23.5554 40.5914 20.738 40.5914 17.6649C40.5914 10.6703 34.9996 5 28.1019 5C21.2042 5 15.6124 10.6703 15.6124 17.6649C15.6124 20.7098 16.6721 23.5038 18.4379 25.6882L10.7505 21.25C9.55478 20.5596 8.02581 20.9693 7.33545 22.165C6.64509 23.3607 7.05478 24.8897 8.25051 25.5801L21.2955 33.1116L15.2128 44.3575C14.492 45.6901 15.4569 47.309 16.972 47.309H38.8663C40.3813 47.309 41.3462 45.6901 40.6254 44.3575L34.6429 33.2969L48.0088 25.5801C49.2045 24.8897 49.6142 23.3607 48.9238 22.165C48.2335 20.9693 46.7045 20.5596 45.5088 21.25L37.7168 25.7486Z"/>
</mask>
<path fill-rule="evenodd" clip-rule="evenodd" d="M37.7168 25.7486C39.512 23.5554 40.5914 20.738 40.5914 17.6649C40.5914 10.6703 34.9996 5 28.1019 5C21.2042 5 15.6124 10.6703 15.6124 17.6649C15.6124 20.7098 16.6721 23.5038 18.4379 25.6882L10.7505 21.25C9.55478 20.5596 8.02581 20.9693 7.33545 22.165C6.64509 23.3607 7.05478 24.8897 8.25051 25.5801L21.2955 33.1116L15.2128 44.3575C14.492 45.6901 15.4569 47.309 16.972 47.309H38.8663C40.3813 47.309 41.3462 45.6901 40.6254 44.3575L34.6429 33.2969L48.0088 25.5801C49.2045 24.8897 49.6142 23.3607 48.9238 22.165C48.2335 20.9693 46.7045 20.5596 45.5088 21.25L37.7168 25.7486Z" fill="#A6D7A8"/>
<path d="M37.7168 25.7486L35.3953 23.8484L39.2168 28.3467L37.7168 25.7486ZM18.4379 25.6882L16.9379 28.2863L20.771 23.8023L18.4379 25.6882ZM10.7505 21.25L12.2505 18.6519L12.2505 18.6519L10.7505 21.25ZM7.33545 22.165L4.73737 20.665L4.73737 20.665L7.33545 22.165ZM8.25051 25.5801L9.75051 22.982H9.75051L8.25051 25.5801ZM21.2955 33.1116L23.9343 34.5389L25.3224 31.9724L22.7955 30.5135L21.2955 33.1116ZM15.2128 44.3575L17.8515 45.7848H17.8515L15.2128 44.3575ZM40.6254 44.3575L43.2642 42.9303V42.9303L40.6254 44.3575ZM34.6429 33.2969L33.1429 30.6988L30.616 32.1577L32.0041 34.7241L34.6429 33.2969ZM48.0088 25.5801L49.5088 28.1782H49.5088L48.0088 25.5801ZM48.9238 22.165L51.5219 20.665V20.665L48.9238 22.165ZM45.5088 21.25L47.0088 23.848H47.0088L45.5088 21.25ZM37.5914 17.6649C37.5914 20.0242 36.7653 22.1748 35.3953 23.8484L40.0383 27.6488C42.2588 24.936 43.5914 21.4517 43.5914 17.6649H37.5914ZM28.1019 8C33.3035 8 37.5914 12.2875 37.5914 17.6649H43.5914C43.5914 9.05302 36.6958 2 28.1019 2V8ZM18.6124 17.6649C18.6124 12.2875 22.9003 8 28.1019 8V2C19.508 2 12.6124 9.05302 12.6124 17.6649H18.6124ZM20.771 23.8023C19.4235 22.1354 18.6124 20.0027 18.6124 17.6649H12.6124C12.6124 21.4169 13.9207 24.8722 16.1048 27.5742L20.771 23.8023ZM9.25051 23.848L16.9379 28.2863L19.9379 23.0902L12.2505 18.6519L9.25051 23.848ZM9.93353 23.665C9.79545 23.9042 9.48966 23.9861 9.25051 23.848L12.2505 18.6519C9.6199 17.1331 6.25616 18.0344 4.73737 20.665L9.93353 23.665ZM9.75051 22.982C9.98966 23.1201 10.0716 23.4259 9.93353 23.665L4.73737 20.665C3.21859 23.2956 4.1199 26.6594 6.75051 28.1782L9.75051 22.982ZM22.7955 30.5135L9.75051 22.982L6.75051 28.1782L19.7955 35.7097L22.7955 30.5135ZM17.8515 45.7848L23.9343 34.5389L18.6568 31.6844L12.5741 42.9303L17.8515 45.7848ZM16.972 44.309C17.7295 44.309 18.2119 45.1185 17.8515 45.7848L12.5741 42.9303C10.7721 46.2617 13.1844 50.309 16.972 50.309V44.309ZM38.8663 44.309H16.972V50.309H38.8663V44.309ZM37.9867 45.7848C37.6263 45.1185 38.1087 44.309 38.8663 44.309V50.309C42.6538 50.309 45.0661 46.2617 43.2642 42.9303L37.9867 45.7848ZM32.0041 34.7241L37.9867 45.7848L43.2642 42.9303L37.2816 31.8696L32.0041 34.7241ZM36.1429 35.895L49.5088 28.1782L46.5088 22.982L33.1429 30.6988L36.1429 35.895ZM49.5088 28.1782C52.1394 26.6594 53.0407 23.2956 51.5219 20.665L46.3258 23.665C46.1877 23.4259 46.2696 23.1201 46.5088 22.982L49.5088 28.1782ZM51.5219 20.665C50.0031 18.0344 46.6394 17.1331 44.0088 18.6519L47.0088 23.848C46.7696 23.9861 46.4638 23.9042 46.3258 23.665L51.5219 20.665ZM44.0088 18.6519L36.2168 23.1506L39.2168 28.3467L47.0088 23.848L44.0088 18.6519Z" fill="#A6D7A8" mask="url(#path-1-outside-1_390_3335)"/>
<mask id="path-3-outside-2_390_3335" maskUnits="userSpaceOnUse" x="-0.0854492" y="0" width="50" height="49" fill="black">
<rect fill="white" x="-0.0854492" width="50" height="49"/>
<path fill-rule="evenodd" clip-rule="evenodd" d="M34.6314 23.7486C36.4266 21.5554 37.5059 18.738 37.5059 15.6649C37.5059 8.67028 31.9142 3 25.0165 3C18.1187 3 12.527 8.67028 12.527 15.6649C12.527 18.7098 13.5867 21.5038 15.3524 23.6882L7.66506 19.25C6.46933 18.5596 4.94036 18.9693 4.25 20.165C3.55964 21.3607 3.96933 22.8897 5.16506 23.5801L18.2101 31.1116L12.1273 42.3575C11.4066 43.6901 12.3715 45.309 13.8865 45.309H35.7808C37.2958 45.309 38.2607 43.6901 37.54 42.3575L31.5574 31.2969L44.9233 23.5801C46.119 22.8897 46.5287 21.3607 45.8384 20.165C45.148 18.9693 43.619 18.5596 42.4233 19.25L34.6314 23.7486Z"/>
</mask>
<path fill-rule="evenodd" clip-rule="evenodd" d="M34.6314 23.7486C36.4266 21.5554 37.5059 18.738 37.5059 15.6649C37.5059 8.67028 31.9142 3 25.0165 3C18.1187 3 12.527 8.67028 12.527 15.6649C12.527 18.7098 13.5867 21.5038 15.3524 23.6882L7.66506 19.25C6.46933 18.5596 4.94036 18.9693 4.25 20.165C3.55964 21.3607 3.96933 22.8897 5.16506 23.5801L18.2101 31.1116L12.1273 42.3575C11.4066 43.6901 12.3715 45.309 13.8865 45.309H35.7808C37.2958 45.309 38.2607 43.6901 37.54 42.3575L31.5574 31.2969L44.9233 23.5801C46.119 22.8897 46.5287 21.3607 45.8384 20.165C45.148 18.9693 43.619 18.5596 42.4233 19.25L34.6314 23.7486Z" fill="white"/>
<path d="M34.6314 23.7486L32.3099 21.8484L36.1314 26.3467L34.6314 23.7486ZM15.3524 23.6882L13.8524 26.2863L17.6855 21.8023L15.3524 23.6882ZM7.66506 19.25L9.16506 16.6519L9.16506 16.6519L7.66506 19.25ZM4.25 20.165L1.65192 18.665L1.65192 18.665L4.25 20.165ZM5.16506 23.5801L6.66506 20.982H6.66506L5.16506 23.5801ZM18.2101 31.1116L20.8488 32.5389L22.237 29.9724L19.7101 28.5135L18.2101 31.1116ZM12.1273 42.3575L14.7661 43.7848H14.7661L12.1273 42.3575ZM37.54 42.3575L40.1787 40.9303V40.9303L37.54 42.3575ZM31.5574 31.2969L30.0574 28.6988L27.5306 30.1577L28.9187 32.7241L31.5574 31.2969ZM44.9233 23.5801L46.4233 26.1782H46.4233L44.9233 23.5801ZM45.8384 20.165L48.4365 18.665V18.665L45.8384 20.165ZM42.4233 19.25L43.9233 21.848H43.9233L42.4233 19.25ZM34.5059 15.6649C34.5059 18.0242 33.6798 20.1748 32.3099 21.8484L36.9529 25.6488C39.1734 22.936 40.5059 19.4517 40.5059 15.6649H34.5059ZM25.0165 6C30.218 6 34.5059 10.2875 34.5059 15.6649H40.5059C40.5059 7.05302 33.6104 0 25.0165 0V6ZM15.527 15.6649C15.527 10.2875 19.8149 6 25.0165 6V0C16.4225 0 9.52699 7.05302 9.52699 15.6649H15.527ZM17.6855 21.8023C16.3381 20.1354 15.527 18.0027 15.527 15.6649H9.52699C9.52699 19.4169 10.8352 22.8722 13.0193 25.5742L17.6855 21.8023ZM6.16506 21.848L13.8524 26.2863L16.8524 21.0902L9.16506 16.6519L6.16506 21.848ZM6.84808 21.665C6.71 21.9042 6.40421 21.9861 6.16506 21.848L9.16506 16.6519C6.53445 15.1331 3.17071 16.0344 1.65192 18.665L6.84808 21.665ZM6.66506 20.982C6.90421 21.1201 6.98615 21.4259 6.84808 21.665L1.65192 18.665C0.133142 21.2956 1.03445 24.6594 3.66506 26.1782L6.66506 20.982ZM19.7101 28.5135L6.66506 20.982L3.66506 26.1782L16.7101 33.7097L19.7101 28.5135ZM14.7661 43.7848L20.8488 32.5389L15.5713 29.6844L9.48861 40.9303L14.7661 43.7848ZM13.8865 42.309C14.644 42.309 15.1265 43.1185 14.7661 43.7848L9.48861 40.9303C7.68669 44.2617 10.099 48.309 13.8865 48.309V42.309ZM35.7808 42.309H13.8865V48.309H35.7808V42.309ZM34.9012 43.7848C34.5408 43.1185 35.0233 42.309 35.7808 42.309V48.309C39.5683 48.309 41.9806 44.2617 40.1787 40.9303L34.9012 43.7848ZM28.9187 32.7241L34.9012 43.7848L40.1787 40.9303L34.1962 29.8696L28.9187 32.7241ZM33.0574 33.895L46.4233 26.1782L43.4233 20.982L30.0574 28.6988L33.0574 33.895ZM46.4233 26.1782C49.0539 24.6594 49.9552 21.2956 48.4365 18.665L43.2403 21.665C43.1022 21.4259 43.1842 21.1201 43.4233 20.982L46.4233 26.1782ZM48.4365 18.665C46.9177 16.0344 43.5539 15.1331 40.9233 16.6519L43.9233 21.848C43.6842 21.9861 43.3784 21.9042 43.2403 21.665L48.4365 18.665ZM40.9233 16.6519L33.1314 21.1506L36.1314 26.3467L43.9233 21.848L40.9233 16.6519Z" fill="#4CAF50" mask="url(#path-3-outside-2_390_3335)"/>
<rect x="20" y="32" width="3.767" height="3.91377" fill="#F44336"/>
<path d="M25.6504 33.8835C25.6504 32.8433 26.4937 32 27.5339 32C28.5741 32 29.4174 32.8433 29.4174 33.8835V37.8707H25.6504V33.8835Z" fill="#4CAF50"/>
<ellipse cx="21.8835" cy="39.8275" rx="1.8835" ry="1.95688" fill="#FFC107"/>
<path d="M27.5339 38.8491L29.1651 41.7844H25.9027L27.5339 38.8491Z" fill="#1E88E5"/>
</svg>
