<svg width="46" height="59" viewBox="0 0 46 59" fill="none" xmlns="http://www.w3.org/2000/svg">
<path d="M11 4.5C7.96243 4.5 5.5 6.96244 5.5 10V50.08C5.5 53.1176 7.96243 55.58 11 55.58H37.1111C40.1487 55.58 42.6111 53.1176 42.6111 50.08V10C42.6111 6.96243 40.1487 4.5 37.1111 4.5H11Z" fill="#FFE083" stroke="#FFE083" stroke-width="5"/>
<rect x="2.5" y="2.5" width="37.1111" height="51.08" rx="5.5" fill="white" stroke="#FFC107" stroke-width="5"/>
<rect x="15" y="22" width="5.2" height="5.45455" fill="#F44336"/>
<path d="M22.7998 24.6C22.7998 23.1641 23.9639 22 25.3998 22C26.8357 22 27.9998 23.1641 27.9998 24.6V30.1818H22.7998V24.6Z" fill="#4CAF50"/>
<ellipse cx="17.6" cy="32.9091" rx="2.6" ry="2.72727" fill="#FFC107"/>
<path d="M25.3998 31.5454L27.6515 35.6363H23.1481L25.3998 31.5454Z" fill="#1E88E5"/>
</svg>
