<svg width="48" height="47" viewBox="0 0 48 47" fill="none" xmlns="http://www.w3.org/2000/svg">
<path d="M29.7071 3.5H21C19.067 3.5 17.5 5.067 17.5 7V15.2133C17.5 17.1463 19.067 18.7133 21 18.7133H29.7071C31.6401 18.7133 33.2071 17.1463 33.2071 15.2133V7C33.2071 5.067 31.6401 3.5 29.7071 3.5Z" fill="#8FC4F2" stroke="#8FC4F2" stroke-width="3"/>
<rect x="10.5" y="16.5" width="15.7071" height="15.2133" rx="3.5" fill="#8FC4F2" stroke="#8FC4F2" stroke-width="3"/>
<rect x="24.5" y="16.5" width="15.7071" height="15.2133" rx="3.5" fill="#8FC4F2" stroke="#8FC4F2" stroke-width="3"/>
<rect x="4.5" y="29.5" width="15.7071" height="15.2133" rx="3.5" fill="#8FC4F2" stroke="#8FC4F2" stroke-width="3"/>
<rect x="17.2063" y="29.5" width="15.7071" height="15.2133" rx="3.5" fill="#8FC4F2" stroke="#8FC4F2" stroke-width="3"/>
<rect x="29.9165" y="29.5" width="15.7071" height="15.2133" rx="3.5" fill="#8FC4F2" stroke="#8FC4F2" stroke-width="3"/>
<path d="M21 9C21 7.34314 22.3431 6 24 6H31.6659C33.3227 6 34.6658 7.34315 34.6658 9V16.104C34.6658 17.7608 33.3227 19.104 31.6658 19.104H24C22.3431 19.104 21 17.7608 21 16.104V9Z" fill="#8FC4F2"/>
<rect x="13" y="19" width="13.6658" height="13.104" rx="2" fill="#8FC4F2"/>
<rect x="28" y="19" width="13.6659" height="13.104" rx="3" fill="#8FC4F2"/>
<rect x="6" y="31.896" width="13.6658" height="13.104" rx="2" fill="#8FC4F2"/>
<rect x="19.665" y="32" width="13.6658" height="13.104" rx="2" fill="#8FC4F2"/>
<rect x="33.3342" y="31.896" width="13.6658" height="13.104" rx="2" fill="#8FC4F2"/>
<path d="M18 7C18 5.34314 19.3431 4 21 4H28.6659C30.3227 4 31.6658 5.34315 31.6658 7V14.104C31.6658 15.7608 30.3227 17.104 28.6658 17.104H21C19.3431 17.104 18 15.7608 18 14.104V7Z" fill="#8FC4F2"/>
<rect x="10" y="17" width="13.6658" height="13.104" rx="2" fill="#8FC4F2"/>
<rect x="25" y="17" width="13.6659" height="13.104" rx="3" fill="#8FC4F2"/>
<rect x="3" y="29.896" width="13.6658" height="13.104" rx="2" fill="#8FC4F2"/>
<rect x="16.665" y="30" width="13.6658" height="13.104" rx="2" fill="#8FC4F2"/>
<rect x="30.3342" y="29.896" width="13.6658" height="13.104" rx="2" fill="#8FC4F2"/>
<path d="M26.7071 1.5H18C16.067 1.5 14.5 3.067 14.5 5V13.2133C14.5 15.1463 16.067 16.7133 18 16.7133H26.7071C28.6401 16.7133 30.2071 15.1463 30.2071 13.2133V5C30.2071 3.067 28.6401 1.5 26.7071 1.5Z" fill="white" stroke="#1E88E5" stroke-width="3"/>
<rect x="7.5" y="14.5" width="15.7071" height="15.2133" rx="3.5" fill="white" stroke="#1E88E5" stroke-width="3"/>
<rect x="21.5" y="14.5" width="15.7071" height="15.2133" rx="3.5" fill="white" stroke="#1E88E5" stroke-width="3"/>
<rect x="1.5" y="27.5" width="15.7071" height="15.2133" rx="3.5" fill="white" stroke="#1E88E5" stroke-width="3"/>
<rect x="14.2063" y="27.5" width="15.7071" height="15.2133" rx="3.5" fill="white" stroke="#1E88E5" stroke-width="3"/>
<rect x="26.9165" y="27.5" width="15.7071" height="15.2133" rx="3.5" fill="white" stroke="#1E88E5" stroke-width="3"/>
<rect x="12" y="18" width="2.4" height="2.54545" fill="#F44336"/>
<path d="M15.6001 19C15.6001 18.4477 16.0478 18 16.6001 18H17.0001C17.5524 18 18.0001 18.4477 18.0001 19V21.8182H15.6001V19Z" fill="#4CAF50"/>
<ellipse cx="13.2" cy="23.0909" rx="1.2" ry="1.27273" fill="#FFC107"/>
<path d="M16.8001 22.4546L17.8393 24.3637H15.7609L16.8001 22.4546Z" fill="#1E88E5"/>
</svg>
