<svg width="200" height="200" viewBox="0 0 200 200" fill="none" xmlns="http://www.w3.org/2000/svg">
<rect x="27.2732" y="171.285" width="27.2727" height="6.79703" rx="3" fill="#FFC107"/>
<rect x="27.2732" y="183.519" width="27.2727" height="6.79703" rx="3" fill="#FFC107"/>
<rect x="20" y="145.038" width="12.987" height="53.0168" rx="3" fill="#F44336"/>
<rect x="47.6924" y="145.038" width="13.8462" height="53.4351" rx="3" fill="#F44336"/>
<rect x="20" y="125.191" width="41.5385" height="39.6947" rx="3" fill="#1E88E5"/>
<rect x="146.753" y="171.285" width="27.2727" height="6.79703" rx="3" fill="#1E88E5"/>
<rect x="146.753" y="183.519" width="27.2727" height="6.79703" rx="3" fill="#1E88E5"/>
<rect x="138.461" y="148.092" width="12.3077" height="51.9084" rx="3" fill="#1E88E5"/>
<rect x="167.692" y="148.092" width="12.3077" height="51.9084" rx="3" fill="#1E88E5"/>
<rect x="138.461" y="125.191" width="41.5385" height="39.6947" rx="3" fill="#F44336"/>
<rect x="79.2202" y="150.894" width="44.1558" height="12.2346" rx="3" fill="#F44336"/>
<rect x="79.2202" y="172.644" width="44.1558" height="10.8753" rx="3" fill="#F44336"/>
<rect x="64.6155" y="108.397" width="22.0779" height="91.0802" rx="3" fill="#4CAF50"/>
<rect x="113.846" y="108.397" width="21.5385" height="91.6031" rx="3" fill="#FFC107"/>
<path d="M123.869 4.02374e-06C125.557 2.41563e-06 126.486 1.96139 125.417 3.26711L121.338 8.24873C120.734 8.98569 120.734 10.046 121.338 10.783L125.417 15.7646C126.486 17.0703 125.557 19.0317 123.869 19.0317H101.521C100.416 19.0317 99.5208 18.1363 99.5208 17.0317V2.00002C99.5208 0.895455 100.416 2.63718e-05 101.521 2.53193e-05L123.869 4.02374e-06Z" fill="#FAA19B"/>
<line x1="98.9231" y1="2.71863" x2="98.9231" y2="38.0632" stroke="#F44336" stroke-width="4"/>
<path d="M120.094 4.09461e-06C121.761 2.43099e-06 122.696 1.91867 121.67 3.23168L117.721 8.28417C117.155 9.00786 117.155 10.0238 117.721 10.7475L121.67 15.8C122.696 17.113 121.761 19.0317 120.094 19.0317H98.9231C97.8185 19.0317 96.9231 18.1363 96.9231 17.0317V2.00002C96.9231 0.895455 97.8185 2.63312e-05 98.9231 2.52285e-05L120.094 4.09461e-06Z" fill="#F44336"/>
<rect x="64.6155" y="74.8092" width="70.7692" height="67.1756" rx="3" fill="#1E88E5"/>
<path d="M81.8179 92.72C81.8179 91.0631 83.161 89.72 84.8179 89.72H115.182C116.838 89.72 118.182 91.0631 118.182 92.72V124.783C118.182 126.44 116.838 127.783 115.182 127.783H84.8179C83.161 127.783 81.8179 126.44 81.8179 124.783V92.72Z" fill="white"/>
<path d="M173.39 81.5638C175.219 81.5638 176.089 83.8162 174.734 85.0451L174.21 85.5202C173.335 86.3139 173.335 87.689 174.21 88.4828L174.734 88.9578C176.089 90.1868 175.219 92.4391 173.39 92.4391H161.091C159.986 92.4391 159.091 91.5437 159.091 90.4391V83.5639C159.091 82.4593 159.986 81.5639 161.091 81.5639L173.39 81.5638Z" fill="#FFE083"/>
<line x1="159.292" y1="87.002" x2="159.292" y2="104.674" stroke="#FFC107" stroke-width="3"/>
<path d="M171.23 81.5638C173 81.5638 173.897 83.6932 172.662 84.9602L171.352 86.3033C170.973 86.6917 170.973 87.3113 171.352 87.6997L172.662 89.0427C173.897 90.3097 173 92.4391 171.23 92.4391H159.792C158.688 92.4391 157.792 91.5437 157.792 90.4391V83.5639C157.792 82.4593 158.688 81.5639 159.792 81.5639L171.23 81.5638Z" fill="#FFC107"/>
<path d="M158.045 100.917C159.169 99.9506 160.831 99.9506 161.955 100.917L188.503 123.732C190.614 125.546 189.331 129.008 186.548 129.008H133.452C130.669 129.008 129.386 125.546 131.497 123.732L158.045 100.917Z" fill="#4CAF50"/>
<path d="M149.35 137.581C149.35 135.924 150.693 134.581 152.35 134.581H167.129C168.786 134.581 170.129 135.924 170.129 137.581V153.331C170.129 154.988 168.786 156.331 167.129 156.331H152.35C150.693 156.331 149.35 154.988 149.35 153.331V137.581Z" fill="white"/>
<path d="M26.6097 82.9243C24.7806 82.9243 23.9112 85.1766 25.2659 86.4056L25.7896 86.8807C26.6645 87.6744 26.6645 89.0495 25.7896 89.8432L25.2659 90.3183C23.9112 91.5472 24.7806 93.7996 26.6097 93.7996H38.9089C40.0135 93.7996 40.9089 92.9041 40.9089 91.7996V84.9243C40.9089 83.8198 40.0135 82.9243 38.9089 82.9243L26.6097 82.9243Z" fill="#8FC4F2"/>
<line y1="-1.5" x2="17.6723" y2="-1.5" transform="matrix(0 1 1 0 42.2078 88.3621)" stroke="#1E88E5" stroke-width="3"/>
<path d="M28.7701 82.9243C27.0003 82.9243 26.1026 85.0537 27.3383 86.3207L28.6481 87.6638C29.0269 88.0521 29.0269 88.6717 28.6481 89.0601L27.3383 90.4032C26.1026 91.6702 27.0003 93.7996 28.7701 93.7996H40.2078C41.3123 93.7996 42.2078 92.9041 42.2078 91.7996V84.9243C42.2078 83.8198 41.3123 82.9243 40.2078 82.9243L28.7701 82.9243Z" fill="#1E88E5"/>
<path d="M38.2813 99.6125C39.4133 98.6195 41.1061 98.6195 42.2381 99.6125L69.1352 123.208C71.2162 125.034 69.925 128.464 67.1568 128.464H13.3626C10.5944 128.464 9.30328 125.034 11.3842 123.208L38.2813 99.6125Z" fill="#FFC107"/>
<path d="M29.8701 137.581C29.8701 135.924 31.2133 134.581 32.8701 134.581H47.6493C49.3062 134.581 50.6493 135.924 50.6493 137.581V153.331C50.6493 154.988 49.3062 156.331 47.6493 156.331H32.8701C31.2133 156.331 29.8701 154.988 29.8701 153.331V137.581Z" fill="white"/>
<path d="M98.0731 30.1627C99.1879 29.2284 100.812 29.2284 101.927 30.1627L153.287 73.2066C155.434 75.0063 154.161 78.5059 151.36 78.5059H48.6406C45.8389 78.5059 44.5663 75.0063 46.7136 73.2066L98.0731 30.1627Z" fill="#F44336"/>
</svg>
