<svg width="171" height="80" viewBox="0 0 171 80" fill="none" xmlns="http://www.w3.org/2000/svg">
<path d="M89.8457 70.1758C89.4746 70.1758 89.1523 70.0488 88.8789 69.7949C88.6055 69.5215 88.4688 69.1992 88.4688 68.8281V61.3574L81.4668 51.5723C81.3105 51.2598 81.2324 50.9863 81.2324 50.752C81.2324 50.3809 81.3594 50.0586 81.6133 49.7852C81.8672 49.5117 82.1797 49.375 82.5508 49.375C83.0586 49.375 83.459 49.5996 83.752 50.0488L89.8457 58.9258L95.9395 50.0488C96.2324 49.5996 96.6328 49.375 97.1406 49.375C97.4922 49.375 97.7949 49.5117 98.0488 49.7852C98.3223 50.0391 98.459 50.3418 98.459 50.6934C98.459 50.9277 98.3809 51.2207 98.2246 51.5723L91.1934 61.3574V68.8281C91.1934 69.1992 91.0566 69.5215 90.7832 69.7949C90.5293 70.0488 90.2168 70.1758 89.8457 70.1758ZM108.098 70.3223C106.613 70.3223 105.295 70 104.143 69.3555C103.01 68.6914 102.131 67.7637 101.506 66.5723C100.881 65.3809 100.568 64.0332 100.568 62.5293C100.568 61.0059 100.881 59.6484 101.506 58.457C102.131 57.2656 103.01 56.3477 104.143 55.7031C105.295 55.0586 106.613 54.7363 108.098 54.7363C109.582 54.7363 110.891 55.0586 112.023 55.7031C113.176 56.3672 114.064 57.2949 114.689 58.4863C115.314 59.6582 115.627 61.0059 115.627 62.5293C115.627 64.0527 115.314 65.4004 114.689 66.5723C114.045 67.7832 113.146 68.7109 111.994 69.3555C110.861 70 109.562 70.3223 108.098 70.3223ZM103.293 62.5C103.293 63.75 103.527 64.7559 103.996 65.5176C104.426 66.2793 104.992 66.8555 105.695 67.2461C106.418 67.6367 107.219 67.832 108.098 67.832C108.898 67.832 109.67 67.6465 110.412 67.2754C111.174 66.8848 111.779 66.2891 112.229 65.4883C112.678 64.668 112.902 63.6719 112.902 62.5C112.902 61.2695 112.668 60.2734 112.199 59.5117C111.77 58.7695 111.193 58.2031 110.471 57.8125C109.768 57.4219 108.977 57.2266 108.098 57.2266C107.297 57.2266 106.525 57.4023 105.783 57.7539C105.021 58.1445 104.416 58.7402 103.967 59.541C103.518 60.3418 103.293 61.3281 103.293 62.5Z" fill="#F44336"/>
<path d="M120.197 62.998C119.865 62.998 119.582 62.8809 119.348 62.6465C119.113 62.4121 118.996 62.1289 118.996 61.7969C118.996 61.4453 119.104 61.1523 119.318 60.918C119.553 60.6836 119.846 60.5664 120.197 60.5664H125.734C126.066 60.5664 126.35 60.6934 126.584 60.9473C126.838 61.1816 126.965 61.4648 126.965 61.7969C126.965 62.1484 126.848 62.4414 126.613 62.6758C126.379 62.8906 126.086 62.998 125.734 62.998H120.197Z" fill="#FFC107"/>
<path d="M133.645 70.0293C133.137 70.0293 132.697 69.8438 132.326 69.4727C131.955 69.1016 131.77 68.6621 131.77 68.1543V50.752C131.77 50.3809 131.896 50.0586 132.15 49.7852C132.424 49.5117 132.746 49.375 133.117 49.375C133.488 49.375 133.811 49.5117 134.084 49.7852C134.357 50.0586 134.494 50.3809 134.494 50.752V66.9531C134.494 67.1875 134.611 67.3047 134.846 67.3047H144.045C144.416 67.3047 144.738 67.4414 145.012 67.7148C145.285 67.9883 145.422 68.3105 145.422 68.6816C145.422 69.0527 145.285 69.375 145.012 69.6484C144.738 69.9023 144.416 70.0293 144.045 70.0293H133.645ZM151.955 70.3223C151.115 70.3223 150.324 70.1465 149.582 69.7949C148.82 69.4434 148.225 68.9258 147.795 68.2422C147.365 67.5586 147.15 66.7773 147.15 65.8984C147.15 64.375 147.736 63.2031 148.908 62.3828C150.1 61.543 151.77 61.123 153.918 61.123H157.434V60.918C157.434 59.668 157.121 58.7598 156.496 58.1934C155.891 57.6074 154.904 57.3145 153.537 57.3145C152.834 57.3145 152.199 57.373 151.633 57.4902C151.066 57.5879 150.402 57.7637 149.641 58.0176L149.26 58.0762C148.967 58.0762 148.703 57.9688 148.469 57.7539C148.254 57.5195 148.146 57.2461 148.146 56.9336C148.146 56.3867 148.41 56.0059 148.938 55.791C150.578 55.0879 152.268 54.7363 154.006 54.7363C155.354 54.7363 156.506 55.0098 157.463 55.5566C158.361 56.084 159.035 56.7871 159.484 57.666C159.934 58.5254 160.158 59.4824 160.158 60.5371V68.8281C160.158 69.1992 160.021 69.5215 159.748 69.7949C159.475 70.0488 159.152 70.1758 158.781 70.1758C158.41 70.1758 158.088 70.0488 157.814 69.7949C157.561 69.5215 157.434 69.1992 157.434 68.8281V68.125C156.027 69.5898 154.201 70.3223 151.955 70.3223ZM149.875 65.6055C149.875 67.1484 150.9 67.9199 152.951 67.9199C153.791 67.9199 154.602 67.7246 155.383 67.334C156.184 66.9238 156.867 66.3965 157.434 65.752V63.3203H154.27C151.34 63.3203 149.875 64.082 149.875 65.6055Z" fill="#1E88E5"/>
<path d="M166.428 64.375C166.135 64.375 165.891 64.2969 165.695 64.1406C165.52 63.9844 165.422 63.7695 165.402 63.4961L164.875 53.8281V50.9277C164.875 50.498 165.021 50.1367 165.314 49.8438C165.627 49.5312 165.998 49.375 166.428 49.375C166.857 49.375 167.219 49.5312 167.512 49.8438C167.805 50.1367 167.951 50.498 167.951 50.9277V53.8281L167.424 63.4961C167.404 63.7695 167.307 63.9844 167.131 64.1406C166.955 64.2969 166.721 64.375 166.428 64.375ZM164.67 68.3594C164.67 67.8906 164.846 67.4805 165.197 67.1289C165.549 66.7773 165.959 66.6016 166.428 66.6016C166.916 66.6016 167.336 66.7773 167.688 67.1289C168.039 67.4805 168.215 67.8906 168.215 68.3594C168.215 68.8477 168.039 69.2676 167.688 69.6191C167.336 69.9707 166.916 70.1465 166.428 70.1465C165.959 70.1465 165.549 69.9707 165.197 69.6191C164.846 69.2676 164.67 68.8477 164.67 68.3594Z" fill="#4CAF50"/>
<path d="M92.7734 42.5195C91.9922 42.5195 91.6016 42.1191 91.6016 41.3184C91.6016 40.9277 91.9727 40.459 92.7148 39.9121C94.5312 38.5449 95.8301 36.8066 96.6113 34.6973C97.334 32.8027 97.7832 29.8926 97.959 25.9668L97.9883 25.1758H95.2051C94.7168 25.1758 94.3555 25.0879 94.1211 24.9121C93.9062 24.7168 93.7988 24.4238 93.7988 24.0332C93.7988 23.6426 93.9062 23.3594 94.1211 23.1836C94.3555 22.9883 94.7168 22.8906 95.2051 22.8906H98.0762L98.1348 20.2832L98.1641 19.082C98.2031 17.6367 98.252 16.8457 98.3105 16.709C98.4668 16.416 98.7793 16.2695 99.248 16.2695C100.029 16.2695 100.42 16.7188 100.42 17.6172L100.361 22.8906H104.609C106.328 22.8906 107.188 23.6719 107.188 25.2344L106.777 32.8809C106.66 34.8926 106.504 36.5723 106.309 37.9199C106.113 39.2676 105.898 40.2148 105.664 40.7617C105.43 41.3086 104.941 41.7285 104.199 42.0215C103.457 42.3145 102.48 42.4609 101.27 42.4609C100.723 42.4609 100.322 42.3535 100.068 42.1387C99.8145 41.9238 99.6875 41.5918 99.6875 41.1426C99.6875 40.6348 99.834 40.2832 100.127 40.0879C100.166 40.0488 100.322 40.0098 100.596 39.9707C100.869 39.9121 101.23 39.873 101.68 39.8535C102.344 39.8145 102.91 39.7168 103.379 39.5605C103.828 39.3848 104.18 37.373 104.434 33.5254L104.785 26.3477C104.824 25.5664 104.434 25.1758 103.613 25.1758H100.273C100.117 28.9453 99.7363 31.9238 99.1309 34.1113C98.4863 36.3965 97.4707 38.3691 96.084 40.0293C94.6973 41.6895 93.5938 42.5195 92.7734 42.5195ZM81.6406 24.9707C81.6406 24.5605 81.7285 24.2578 81.9043 24.0625C82.0996 23.8672 82.4023 23.7695 82.8125 23.7695C83.125 23.7695 83.6035 24.0625 84.248 24.6484C85.3223 22.1289 86.0938 19.9805 86.5625 18.2031C86.8164 17.2266 87.2656 16.7383 87.9102 16.7383C88.75 16.7383 89.1699 17.0703 89.1699 17.7344C89.1699 18.6719 88.0566 21.3867 85.8301 25.8789L85.7422 26.0547L88.2324 28.6621L90.5176 23.5938C90.791 22.9688 91.1914 22.6562 91.7188 22.6562C92.5781 22.6562 93.0078 23.0078 93.0078 23.7109C93.0078 24.0625 92.2949 25.6348 90.8691 28.4277C89.3848 31.3184 88.0371 33.7207 86.8262 35.6348L86.416 36.3672L87.3828 36.1914C87.5195 36.1523 87.7637 36.1133 88.1152 36.0742C90.0684 35.6836 91.2402 35.4395 91.6309 35.3418L90.6641 33.0566L90.5469 32.5879C90.5469 31.9824 90.918 31.6797 91.6602 31.6797C92.0117 31.6797 92.3145 31.8848 92.5684 32.2949C92.9004 32.8613 93.4961 34.043 94.3555 35.8398C94.6289 36.4453 94.7656 36.8457 94.7656 37.041C94.7656 37.7441 94.3164 38.0957 93.418 38.0957C93.0078 38.0957 92.6465 37.7441 92.334 37.041L88.877 37.9492C87.1387 38.3984 85.7324 38.7402 84.6582 38.9746C83.6035 39.209 82.959 39.3262 82.7246 39.3262C82.041 39.3262 81.6992 38.9062 81.6992 38.0664C81.6992 37.3633 82.1777 36.9727 83.1348 36.8945L83.9844 36.748H84.0137C84.5215 35.9863 85.5566 34.043 87.1191 30.918C85.4199 28.9648 83.8672 27.3828 82.4609 26.1719C81.9141 25.6836 81.6406 25.2832 81.6406 24.9707ZM124.883 42.8711C124.102 42.8711 123.711 42.3926 123.711 41.4355V36.0156C121.758 37.6953 119.639 39.082 117.354 40.1758C115.088 41.2695 113.555 41.8164 112.754 41.8164C111.992 41.8164 111.611 41.4258 111.611 40.6445C111.611 40.0586 112.012 39.6484 112.812 39.4141C116.66 38.3008 119.951 36.6406 122.686 34.4336H113.457C112.559 34.4336 112.109 34.0723 112.109 33.3496C112.109 32.627 112.559 32.2656 113.457 32.2656H123.711V30.625H122.51C121.807 30.625 121.299 30.3516 120.986 29.8047C120.889 30.3125 120.557 30.5664 119.99 30.5664C119.502 30.5664 119.15 30.2148 118.936 29.5117L113.604 30.5664L113.047 30.625C112.715 30.6641 112.461 30.5859 112.285 30.3906C112.109 30.1758 112.021 29.8828 112.021 29.5117C112.021 28.8477 112.549 28.4863 113.604 28.4277L115.625 25.293L112.461 22.8906C112.188 22.6953 112.051 22.4023 112.051 22.0117C112.051 21.2891 112.402 20.9277 113.105 20.9277C113.301 20.9277 113.574 21.0352 113.926 21.25C114.551 19.9219 115.059 18.7012 115.449 17.5879C115.703 16.9043 116.104 16.5625 116.65 16.5625C117.002 16.5625 117.275 16.6504 117.471 16.8262C117.666 17.002 117.764 17.2559 117.764 17.5879C117.764 18.0957 116.982 19.6582 115.42 22.2754L116.738 23.3594L117.793 21.3379C118.086 20.7715 118.35 20.3613 118.584 20.1074C118.818 19.8535 119.053 19.7266 119.287 19.7266C120.01 19.7266 120.371 20.0781 120.371 20.7812C120.371 21.0742 120.059 21.709 119.434 22.6855C119.336 22.8418 119.248 22.9785 119.17 23.0957C119.092 23.2129 119.023 23.3203 118.965 23.418C117.617 25.6055 116.572 27.207 115.83 28.2227L117.178 28.0762L118.438 27.9004L118.057 26.8457C117.979 26.6113 117.939 26.4453 117.939 26.3477C117.939 25.8203 118.242 25.5566 118.848 25.5566C119.277 25.5566 119.668 25.9766 120.02 26.8164L120.342 27.5781C120.498 27.8906 120.615 28.1836 120.693 28.457V20.6055C120.693 19.2578 121.299 18.5547 122.51 18.4961H123.154L123.271 17.7051C123.369 17.1387 123.516 16.7188 123.711 16.4453C123.926 16.1523 124.219 16.0059 124.59 16.0059C125.371 16.0059 125.762 16.3379 125.762 17.002C125.762 17.2363 125.645 17.7344 125.41 18.4961H127.256C127.861 18.4961 128.32 18.6816 128.633 19.0527C128.945 19.4238 129.102 19.9609 129.102 20.6641V21.3379C129.277 21.0645 129.551 20.9277 129.922 20.9277C130.156 20.9277 130.361 20.9863 130.537 21.1035C131.064 19.9707 131.553 18.7988 132.002 17.5879C132.119 17.2559 132.285 17.002 132.5 16.8262C132.715 16.6504 132.949 16.5625 133.203 16.5625C133.535 16.5625 133.799 16.6504 133.994 16.8262C134.189 17.002 134.287 17.2559 134.287 17.5879C134.287 18.1152 133.535 19.6289 132.031 22.1289L133.555 23.3887L134.58 21.4258C134.912 20.8203 135.195 20.3809 135.43 20.1074C135.664 19.834 135.898 19.6973 136.133 19.6973C136.855 19.6973 137.217 20.0488 137.217 20.752C137.217 21.0449 136.67 22.0605 135.576 23.7988C134.814 25.0293 134.248 25.9082 133.877 26.4355C133.525 26.9629 133.076 27.5781 132.529 28.2812C132.861 28.2227 133.34 28.1543 133.965 28.0762C134.707 27.998 135.264 27.9297 135.635 27.8711L135.283 26.8457L135.166 26.377C135.166 25.8105 135.469 25.5273 136.074 25.5273C136.504 25.5273 136.895 25.957 137.246 26.8164C137.891 28.3203 138.213 29.248 138.213 29.5996C138.213 30.2441 137.881 30.5664 137.217 30.5664C136.729 30.5664 136.377 30.2051 136.162 29.4824C132.705 30.2441 130.664 30.625 130.039 30.625C129.707 30.625 129.453 30.5273 129.277 30.332C129.102 30.1367 129.014 29.8633 129.014 29.5117C129.014 29.1992 129.131 28.9551 129.365 28.7793C129.619 28.584 129.961 28.4668 130.391 28.4277L132.441 25.293C132.188 25.0586 131.826 24.7754 131.357 24.4434C130.908 24.1113 130.576 23.8574 130.361 23.6816C130.068 23.5059 129.775 23.3008 129.482 23.0664C129.326 22.9688 129.199 22.8516 129.102 22.7148V28.457C129.102 29.1602 128.945 29.6973 128.633 30.0684C128.32 30.4395 127.861 30.625 127.256 30.625H126.055V32.2656H136.543C137.422 32.2656 137.861 32.627 137.861 33.3496C137.861 34.0723 137.422 34.4336 136.543 34.4336H127.021C129.229 36.4844 132.402 38.0176 136.543 39.0332C137.773 39.3262 138.389 39.7949 138.389 40.4395C138.389 41.2988 137.979 41.7285 137.158 41.7285C136.572 41.7285 135.205 41.2891 133.057 40.4102C129.99 39.1406 127.656 37.6465 126.055 35.9277V41.4355C126.055 42.3926 125.664 42.8711 124.883 42.8711ZM122.715 27.9004C122.715 28.3301 122.949 28.5645 123.418 28.6035H126.318C126.787 28.6035 127.031 28.3691 127.051 27.9004V25.3809H122.715V27.9004ZM127.051 23.5059V21.1914C127.051 20.7617 126.807 20.5371 126.318 20.5176H123.418C122.988 20.5176 122.754 20.7422 122.715 21.1914V23.5059H127.051ZM145.859 42.5488C144.766 42.5488 143.975 42.2949 143.486 41.7871C142.998 41.2988 142.754 40.498 142.754 39.3848V20.4004C142.754 19.2676 142.998 18.457 143.486 17.9688C143.975 17.4609 144.766 17.207 145.859 17.207H164.199C165.293 17.207 166.084 17.4609 166.572 17.9688C167.061 18.457 167.305 19.2676 167.305 20.4004V39.3848C167.305 40.498 167.061 41.2988 166.572 41.7871C166.084 42.2949 165.293 42.5488 164.199 42.5488H145.859ZM145.127 38.9453C145.127 39.9219 145.625 40.4102 146.621 40.4102H163.438C164.434 40.4102 164.932 39.9121 164.932 38.916V20.7812C164.932 19.8047 164.434 19.3164 163.438 19.3164H146.621C145.625 19.3164 145.127 19.8047 145.127 20.7812V38.9453ZM146.006 35.9277C146.006 35.498 146.26 35.2051 146.768 35.0488C149.15 34.3066 150.928 33.5938 152.1 32.9102H149.961C149.336 32.9102 148.857 32.7441 148.525 32.4121C148.193 32.0801 148.027 31.6113 148.027 31.0059V29.6582C148.027 29.0918 148.174 28.6621 148.467 28.3691C148.779 28.0566 149.219 27.9004 149.785 27.9004H160.098C160.723 27.9004 161.201 28.0566 161.533 28.3691C161.865 28.6816 162.031 29.1504 162.031 29.7754V31.0059C162.031 32.2754 161.377 32.9102 160.068 32.9102H154.648C154.277 33.2422 153.799 33.6133 153.213 34.0234V37.2168L155.469 36.8066C155.527 36.7871 155.615 36.7773 155.732 36.7773C156.006 36.7773 156.221 36.8555 156.377 37.0117C156.533 37.168 156.611 37.3828 156.611 37.6562C156.611 37.8711 156.533 38.0566 156.377 38.2129C156.24 38.3691 156.045 38.4863 155.791 38.5645C154.854 38.8379 153.799 39.0723 152.627 39.2676C151.455 39.4434 150.732 39.5508 150.459 39.5898C150.264 39.6094 149.922 39.6582 149.434 39.7363C149.336 39.7559 149.209 39.7656 149.053 39.7656C148.35 39.7656 147.998 39.4336 147.998 38.7695C147.998 38.2422 148.33 37.9395 148.994 37.8613C149.424 37.8027 150.176 37.6953 151.25 37.5391V35.166C150.078 35.7715 148.828 36.3086 147.5 36.7773C147.324 36.8555 147.139 36.8945 146.943 36.8945C146.65 36.8945 146.416 36.8066 146.24 36.6309C146.084 36.4551 146.006 36.2207 146.006 35.9277ZM146.094 25.9082C146.094 25.3223 146.416 25.0293 147.061 25.0293H153.857V23.4473H148.408C147.764 23.4473 147.441 23.1543 147.441 22.5684C147.441 21.9824 147.764 21.6895 148.408 21.6895H153.857V20.8105C153.857 20.127 154.238 19.7852 155 19.7852C155.371 19.7852 155.654 19.873 155.85 20.0488C156.064 20.2246 156.172 20.4785 156.172 20.8105V21.6895H161.65C162.295 21.6895 162.617 21.9824 162.617 22.5684C162.617 23.1543 162.295 23.4473 161.65 23.4473H156.172V25.0293H162.969C163.652 25.0293 163.994 25.3223 163.994 25.9082C163.994 26.5137 163.652 26.8164 162.969 26.8164H147.061C146.416 26.8164 146.094 26.5137 146.094 25.9082ZM150.195 30.3906C150.195 30.9375 150.42 31.2109 150.869 31.2109H159.16C159.375 31.2109 159.541 31.1523 159.658 31.0352C159.775 30.918 159.834 30.7031 159.834 30.3906C159.834 29.8633 159.609 29.5996 159.16 29.5996H150.869C150.42 29.5996 150.195 29.8633 150.195 30.3906ZM155 34.375C155.137 34.0625 155.4 33.9062 155.791 33.9062C155.947 33.9062 156.094 33.9355 156.23 33.9941C157.012 34.2871 157.91 34.6777 158.926 35.166C159.844 34.541 160.615 33.9551 161.24 33.4082C161.436 33.252 161.641 33.1738 161.855 33.1738C162.168 33.1738 162.412 33.3008 162.588 33.5547C162.725 33.75 162.793 33.9453 162.793 34.1406C162.793 34.4531 162.646 34.7168 162.354 34.9316C161.924 35.2441 161.348 35.6055 160.625 36.0156C161.191 36.3086 161.963 36.7871 162.939 37.4512C163.369 37.7637 163.584 38.0957 163.584 38.4473C163.584 38.6035 163.535 38.7793 163.438 38.9746C163.242 39.3262 162.959 39.502 162.588 39.502C162.373 39.502 162.139 39.4238 161.885 39.2676C159.561 37.7637 157.432 36.5332 155.498 35.5762C155.107 35.3613 154.912 35.0879 154.912 34.7559C154.912 34.6191 154.941 34.4922 155 34.375Z" fill="black" fill-opacity="0.8"/>
<rect x="10.9092" y="68.5139" width="10.9091" height="2.71882" rx="1.35941" fill="#FFC107"/>
<rect x="10.9092" y="73.4077" width="10.9091" height="2.71881" rx="1.35941" fill="#FFC107"/>
<rect x="8" y="58.0151" width="5.19481" height="21.2067" rx="2.5974" fill="#F44336"/>
<rect x="19.0771" y="58.0151" width="5.53846" height="21.374" rx="2.76923" fill="#F44336"/>
<rect x="8" y="50.0764" width="16.6154" height="15.8779" rx="3" fill="#1E88E5"/>
<rect x="58.7012" y="68.5139" width="10.9091" height="2.71882" rx="1.35941" fill="#1E88E5"/>
<rect x="58.7012" y="73.4077" width="10.9091" height="2.71881" rx="1.35941" fill="#1E88E5"/>
<rect x="55.3848" y="59.2366" width="4.92308" height="20.7634" rx="2.46154" fill="#1E88E5"/>
<rect x="67.0771" y="59.2366" width="4.92308" height="20.7634" rx="2.46154" fill="#1E88E5"/>
<rect x="55.3848" y="50.0764" width="16.6154" height="15.8779" rx="3" fill="#F44336"/>
<rect x="31.688" y="60.3574" width="17.6623" height="4.89386" rx="2.44693" fill="#F44336"/>
<rect x="31.688" y="69.0576" width="17.6623" height="4.3501" rx="2.17505" fill="#F44336"/>
<rect x="25.8462" y="43.3589" width="8.83117" height="36.4321" rx="3" fill="#4CAF50"/>
<rect x="45.5386" y="43.3589" width="8.61539" height="36.6412" rx="3" fill="#FFC107"/>
<path d="M46.9228 3.3778e-06C48.3395 2.02785e-06 49.1193 1.64653 48.2218 2.74264V2.74264C47.7152 3.36129 47.7152 4.25138 48.2218 4.87004V4.87004C49.1193 5.96615 48.3395 7.61267 46.9228 7.61267H41.0391C39.9345 7.61267 39.0391 6.71724 39.0391 5.61267V2.00001C39.0391 0.895442 39.9345 1.00368e-05 41.0391 8.98427e-06L46.9228 3.3778e-06Z" fill="#FAA19B"/>
<path d="M40 2V16.1378" stroke="#F44336" stroke-width="4" stroke-linecap="round"/>
<path d="M45.4111 3.49187e-06C46.8323 2.07315e-06 47.6301 1.63623 46.7549 2.75597V2.75597C46.2725 3.37313 46.2725 4.23954 46.7549 4.85671V4.85671C47.6301 5.97644 46.8323 7.61267 45.4111 7.61267H40C38.8954 7.61267 38 6.71724 38 5.61267V2.00001C38 0.895442 38.8954 9.99615e-06 40 8.89352e-06L45.4111 3.49187e-06Z" fill="#F44336"/>
<rect x="25.8462" y="29.9236" width="28.3077" height="26.8702" rx="3" fill="#1E88E5"/>
<path d="M32.7271 38.8879C32.7271 37.2311 34.0702 35.8879 35.7271 35.8879H44.2725C45.9294 35.8879 47.2725 37.2311 47.2725 38.8879V48.1133C47.2725 49.7701 45.9294 51.1133 44.2725 51.1133H35.7271C34.0702 51.1133 32.7271 49.7701 32.7271 48.1133V38.8879Z" fill="white"/>
<path d="M68.5408 32C69.3425 32 69.7236 32.9872 69.1298 33.5258V33.5258C68.7463 33.8737 68.7463 34.4764 69.1298 34.8243V34.8243C69.7236 35.3629 69.3425 36.3501 68.5408 36.3501H65.0195C63.915 36.3501 63.0195 35.4547 63.0195 34.3501V34C63.0195 32.8954 63.915 32 65.0195 32L68.5408 32Z" fill="#FFE083"/>
<line x1="64" y1="34.1753" x2="64" y2="41.2442" stroke="#FFC107" stroke-width="3"/>
<path d="M67.2526 32C68.1927 32 68.6696 33.1311 68.0132 33.8042V33.8042C67.812 34.0105 67.812 34.3396 68.0132 34.5459V34.5459C68.6696 35.219 68.1927 36.3501 67.2526 36.3501H64.5C63.3954 36.3501 62.5 35.4547 62.5 34.3501V34C62.5 32.8954 63.3954 32 64.5 32L67.2526 32Z" fill="#FFC107"/>
<path d="M62.6964 40.8149C63.4461 40.1706 64.5539 40.1706 65.3036 40.8149L73.7643 48.0862C75.1715 49.2956 74.3163 51.603 72.4607 51.603H55.5393C53.6837 51.603 52.8285 49.2956 54.2357 48.0862L62.6964 40.8149Z" fill="#4CAF50"/>
<path d="M59.5 56C59.5 54.8954 60.3954 54 61.5 54H65.8117C66.9163 54 67.8117 54.8954 67.8117 56V60.7002C67.8117 61.8048 66.9163 62.7002 65.8117 62.7002H61.5C60.3954 62.7002 59.5 61.8048 59.5 60.7002V56Z" fill="white"/>
<path d="M11.4592 32C10.6575 32 10.2764 32.9872 10.8702 33.5258V33.5258C11.2537 33.8737 11.2537 34.4764 10.8702 34.8243V34.8243C10.2764 35.3629 10.6575 36.3501 11.4592 36.3501H14.9805C16.085 36.3501 16.9805 35.4547 16.9805 34.3501V34C16.9805 32.8954 16.085 32 14.9805 32L11.4592 32Z" fill="#8FC4F2"/>
<line y1="-1.5" x2="7.06891" y2="-1.5" transform="matrix(0 1 1 0 17.5 34.175)" stroke="#1E88E5" stroke-width="3"/>
<path d="M12.7474 32C11.8073 32 11.3304 33.1311 11.9868 33.8042V33.8042C12.188 34.0105 12.188 34.3396 11.9868 34.5459V34.5459C11.3304 35.219 11.8073 36.3501 12.7474 36.3501H15.5C16.6046 36.3501 17.5 35.4547 17.5 34.3501V34C17.5 32.8954 16.6046 32 15.5 32L12.7474 32Z" fill="#1E88E5"/>
<path d="M14.785 40.1571C15.5396 39.495 16.6682 39.495 17.4228 40.1571L26.0566 47.7312C27.4439 48.9482 26.5832 51.2347 24.7377 51.2347H7.47008C5.62461 51.2347 4.76384 48.9482 6.15114 47.7312L14.785 40.1571Z" fill="#FFC107"/>
<path d="M12 56C12 54.8954 12.8954 54 14 54H18.3117C19.4163 54 20.3117 54.8954 20.3117 56V60.7002C20.3117 61.8048 19.4163 62.7002 18.3117 62.7002H14C12.8954 62.7002 12 61.8048 12 60.7002V56Z" fill="white"/>
<path d="M38.0732 13.0339C39.188 12.0996 40.8124 12.0996 41.9272 13.0339L57.521 26.1029C59.6683 27.9026 58.3957 31.4022 55.594 31.4022H24.4065C21.6047 31.4022 20.3322 27.9026 22.4795 26.1029L38.0732 13.0339Z" fill="#F44336"/>
</svg>
