<svg width="500" height="300" viewBox="0 0 500 300" fill="none" xmlns="http://www.w3.org/2000/svg">
<rect x="5" y="5" width="490" height="290" rx="25" fill="white" stroke="#1E88E5" stroke-width="10"/>
<rect x="313.5" y="57" width="45" height="45" rx="5" fill="white"/>
<path d="M341.868 73.2188V81.154C341.868 81.3549 341.712 81.5112 341.511 81.5112H340.239C340.116 81.5112 340.004 81.4442 339.949 81.3661L336.31 76.4554V81.1652C336.31 81.3661 336.154 81.5223 335.953 81.5223H334.681C334.48 81.5223 334.324 81.3661 334.324 81.1652V73.2299C334.324 73.029 334.48 72.8728 334.681 72.8728H335.942C336.054 72.8728 336.176 72.9286 336.232 73.029L339.871 77.9397V73.2299C339.871 73.029 340.027 72.8728 340.228 72.8728H341.5C341.701 72.8616 341.868 73.029 341.868 73.2188ZM332.717 72.8616H331.444C331.243 72.8616 331.087 73.0179 331.087 73.2188V81.154C331.087 81.3549 331.243 81.5112 331.444 81.5112H332.717C332.917 81.5112 333.074 81.3549 333.074 81.154V73.2188C333.074 73.029 332.917 72.8616 332.717 72.8616ZM329.647 79.5134H326.176V73.2188C326.176 73.0179 326.02 72.8616 325.819 72.8616H324.547C324.346 72.8616 324.19 73.0179 324.19 73.2188V81.154C324.19 81.2545 324.223 81.3326 324.29 81.3996C324.357 81.4554 324.435 81.5 324.536 81.5H329.636C329.837 81.5 329.993 81.3437 329.993 81.1429V79.8705C329.993 79.6808 329.837 79.5134 329.647 79.5134ZM348.565 72.8616H343.464C343.275 72.8616 343.107 73.0179 343.107 73.2188V81.154C343.107 81.3437 343.263 81.5112 343.464 81.5112H348.565C348.766 81.5112 348.922 81.3549 348.922 81.154V79.8817C348.922 79.6808 348.766 79.5246 348.565 79.5246H345.094V78.1853H348.565C348.766 78.1853 348.922 78.029 348.922 77.8281V76.5446C348.922 76.3438 348.766 76.1875 348.565 76.1875H345.094V74.8482H348.565C348.766 74.8482 348.922 74.692 348.922 74.4911V73.2188C348.911 73.029 348.754 72.8616 348.565 72.8616ZM361.5 63.1183V94.9598C361.489 99.9598 357.393 104.011 352.382 104H320.54C315.54 103.989 311.489 99.8817 311.5 94.8817V63.0402C311.511 58.0402 315.618 53.9889 320.618 54H352.46C357.46 54.0112 361.511 58.1072 361.5 63.1183ZM354.625 76.8013C354.625 68.654 346.455 62.0246 336.422 62.0246C326.388 62.0246 318.219 68.654 318.219 76.8013C318.219 84.1004 324.692 90.2165 333.442 91.3772C335.574 91.8348 335.328 92.6161 334.848 95.4844C334.77 95.9419 334.48 97.2812 336.422 96.4665C338.364 95.6518 346.902 90.2946 350.73 85.8973C353.364 82.9955 354.625 80.0603 354.625 76.8013Z" fill="#4CAF50"/>
<path d="M246.967 153.529C246.459 153.529 246.02 153.344 245.648 152.973C245.277 152.602 245.092 152.162 245.092 151.654V134.252C245.092 133.881 245.219 133.559 245.473 133.285C245.746 133.012 246.068 132.875 246.439 132.875C246.811 132.875 247.133 133.012 247.406 133.285C247.68 133.559 247.816 133.881 247.816 134.252V150.453C247.816 150.688 247.934 150.805 248.168 150.805H257.367C257.738 150.805 258.061 150.941 258.334 151.215C258.607 151.488 258.744 151.811 258.744 152.182C258.744 152.553 258.607 152.875 258.334 153.148C258.061 153.402 257.738 153.529 257.367 153.529H246.967ZM263.314 153.676C262.943 153.676 262.621 153.549 262.348 153.295C262.094 153.021 261.967 152.699 261.967 152.328V134.252C261.967 133.881 262.094 133.559 262.348 133.285C262.621 133.012 262.943 132.875 263.314 132.875C263.686 132.875 264.008 133.012 264.281 133.285C264.555 133.559 264.691 133.881 264.691 134.252V152.328C264.691 152.699 264.555 153.021 264.281 153.295C264.008 153.549 263.686 153.676 263.314 153.676ZM271.664 153.676C271.293 153.676 270.971 153.549 270.697 153.295C270.443 153.021 270.316 152.699 270.316 152.328V134.838C270.316 134.311 270.502 133.852 270.873 133.461C271.264 133.07 271.723 132.875 272.25 132.875H272.631C273.256 132.875 273.803 133.168 274.271 133.754L285.082 149.369C285.18 149.486 285.258 149.545 285.316 149.545C285.355 149.545 285.395 149.516 285.434 149.457C285.473 149.398 285.492 149.33 285.492 149.252V134.252C285.492 133.881 285.619 133.559 285.873 133.285C286.146 133.012 286.469 132.875 286.84 132.875C287.211 132.875 287.533 133.012 287.807 133.285C288.08 133.559 288.217 133.881 288.217 134.252V151.742C288.217 152.27 288.021 152.729 287.631 153.119C287.24 153.49 286.781 153.676 286.254 153.676H285.902C285.59 153.676 285.287 153.607 284.994 153.471C284.721 153.314 284.496 153.119 284.32 152.885L273.451 137.182C273.373 137.064 273.295 137.006 273.217 137.006C273.178 137.006 273.139 137.035 273.1 137.094C273.061 137.152 273.041 137.221 273.041 137.299V152.328C273.041 152.699 272.904 153.021 272.631 153.295C272.357 153.549 272.035 153.676 271.664 153.676ZM295.189 153.529C294.818 153.529 294.496 153.402 294.223 153.148C293.969 152.875 293.842 152.553 293.842 152.182V134.398C293.842 134.027 293.969 133.705 294.223 133.432C294.496 133.158 294.818 133.021 295.189 133.021H306.938C307.289 133.021 307.592 133.148 307.846 133.402C308.1 133.656 308.227 133.959 308.227 134.311C308.227 134.662 308.1 134.965 307.846 135.219C307.592 135.453 307.289 135.57 306.938 135.57H296.918C296.684 135.57 296.566 135.688 296.566 135.922V141.986H305.883C306.234 141.986 306.537 142.113 306.791 142.367C307.045 142.621 307.172 142.924 307.172 143.275C307.172 143.627 307.045 143.93 306.791 144.184C306.537 144.418 306.234 144.535 305.883 144.535H296.566V150.629C296.566 150.863 296.684 150.98 296.918 150.98H306.938C307.289 150.98 307.592 151.107 307.846 151.361C308.1 151.615 308.227 151.918 308.227 152.27C308.227 152.621 308.1 152.924 307.846 153.178C307.592 153.412 307.289 153.529 306.938 153.529H295.189ZM318.891 155.404C317.816 155.404 317.035 155.199 316.547 154.789C316.078 154.398 315.883 153.764 315.961 152.885V139.291C315.961 138.393 316.195 137.738 316.664 137.328C317.133 136.918 317.875 136.732 318.891 136.771H330.814C331.811 136.771 332.533 136.986 332.982 137.416C333.432 137.826 333.627 138.461 333.568 139.32V141.957C333.568 142.875 333.344 143.549 332.895 143.979C332.465 144.389 331.771 144.564 330.814 144.506H318.393V147.025H332.338C333.334 147.025 334.047 147.23 334.477 147.641C334.926 148.051 335.131 148.695 335.092 149.574V152.826C335.092 153.744 334.857 154.408 334.389 154.818C333.92 155.248 333.178 155.443 332.162 155.404H318.891ZM311.977 135.248C311.977 134.193 312.23 133.451 312.738 133.021C313.324 132.533 314.047 132.299 314.906 132.318H323.256V131.088C323.256 130.131 323.715 129.652 324.633 129.652C325.082 129.652 325.414 129.77 325.629 130.004C325.863 130.238 325.98 130.6 325.98 131.088V132.318H334.652C335.57 132.318 336.293 132.553 336.82 133.021C337.367 133.529 337.621 134.271 337.582 135.248V137.533C337.582 138.451 337.172 138.91 336.352 138.91C335.551 138.91 335.15 138.451 335.15 137.533V135.6C335.15 134.857 334.76 134.467 333.979 134.428H315.58C315.209 134.428 314.926 134.535 314.73 134.75C314.535 134.945 314.438 135.229 314.438 135.6V137.533C314.438 138.451 314.027 138.91 313.207 138.91C312.387 138.91 311.977 138.451 311.977 137.533V135.248ZM318.393 152.24C318.393 152.865 318.725 153.197 319.389 153.236H331.635C332.26 153.236 332.592 152.904 332.631 152.24V150.16C332.631 149.516 332.299 149.184 331.635 149.164H318.393V152.24ZM330.111 142.367C330.756 142.367 331.098 142.035 331.137 141.371V139.906C331.137 139.281 330.795 138.949 330.111 138.91H319.389C318.744 138.91 318.412 139.242 318.393 139.906V142.367H330.111ZM356.566 155.844C355.57 155.844 355.072 155.395 355.072 154.496C355.072 154.066 355.229 153.744 355.541 153.529C355.873 153.334 356.371 153.236 357.035 153.236C358.383 153.236 359.262 153.158 359.672 153.002C360.336 152.768 360.805 152.182 361.078 151.244C361.371 150.639 361.625 148.939 361.84 146.146L361.986 144.242C362.006 143.891 361.898 143.617 361.664 143.422C361.43 143.227 361.088 143.129 360.639 143.129H351.996C351.234 147.738 349.232 151.352 345.99 153.969C344.662 155.062 343.666 155.609 343.002 155.609C342.709 155.609 342.406 155.463 342.094 155.17C341.859 154.955 341.742 154.633 341.742 154.203C341.742 153.695 342.162 153.178 343.002 152.65C345.971 150.717 347.982 148.188 349.037 145.062C349.643 143.246 350.004 140.346 350.121 136.361H343.09C342.582 136.361 342.211 136.273 341.977 136.098C341.742 135.902 341.625 135.6 341.625 135.189C341.625 134.408 342.113 134.018 343.09 134.018H352.846V130.941C352.846 130.102 353.266 129.682 354.105 129.682C354.945 129.682 355.365 130.102 355.365 130.941V134.018H366.293C366.801 134.018 367.172 134.115 367.406 134.311C367.66 134.506 367.787 134.809 367.787 135.219C367.787 135.98 367.289 136.361 366.293 136.361H352.582C352.543 137.865 352.445 139.34 352.289 140.785H361.898C363.695 140.785 364.594 141.566 364.594 143.129C364.594 144.887 364.398 146.938 364.008 149.281C363.617 151.664 363.168 153.266 362.66 154.086C362.309 154.652 361.615 155.082 360.58 155.375C359.545 155.688 358.207 155.844 356.566 155.844ZM382.084 155.932C381.303 155.932 380.912 155.502 380.912 154.643C380.912 153.979 381.508 153.529 382.699 153.295L383.988 152.943V145.004H383.227C382.523 145.004 382.172 144.643 382.172 143.92C382.172 143.217 382.523 142.865 383.227 142.865H384.018V133.285C384.018 131.586 384.877 130.736 386.596 130.736H395.824C396.645 130.736 397.055 131.098 397.055 131.82C397.055 132.543 396.645 132.904 395.824 132.904H387.064C386.576 132.904 386.312 133.168 386.273 133.695V134.896H394.916C395.639 134.896 396 135.219 396 135.863C396 136.508 395.639 136.83 394.916 136.83H386.273V138.852H394.916C395.639 138.852 396 139.174 396 139.818C396 140.463 395.639 140.785 394.916 140.785H386.273V142.865H396.967C397.787 142.865 398.197 143.217 398.197 143.92C398.197 144.643 397.787 145.004 396.967 145.004H390.902C391.059 146.527 391.508 147.885 392.25 149.076C392.855 148.529 393.422 147.973 393.949 147.406L394.535 146.791C395.199 146.127 395.717 145.795 396.088 145.795C396.908 145.795 397.318 146.176 397.318 146.938C397.318 147.523 396.02 148.734 393.422 150.57C394.301 151.547 395.492 152.387 396.996 153.09C397.836 153.5 398.256 153.969 398.256 154.496C398.256 155.375 397.836 155.814 396.996 155.814C395.863 155.814 394.301 154.779 392.309 152.709C390.316 150.6 389.135 148.031 388.764 145.004H386.244V152.328L389.701 151.156L389.906 151.127C390.238 151.088 390.492 151.176 390.668 151.391C390.844 151.605 390.932 151.908 390.932 152.299C390.932 152.748 390.639 153.109 390.053 153.383C389.604 153.598 387.396 154.34 383.432 155.609C382.748 155.824 382.299 155.932 382.084 155.932ZM372.387 136.332C372.387 135.473 372.582 134.848 372.973 134.457C373.363 134.047 373.979 133.861 374.818 133.9H375.961V131.029C375.961 130.092 376.361 129.623 377.162 129.623C377.943 129.623 378.334 130.092 378.334 131.029V133.9H379.623C380.482 133.9 381.107 134.096 381.498 134.486C381.908 134.877 382.094 135.492 382.055 136.332V147.992C382.055 148.793 381.859 149.389 381.469 149.779C381.098 150.17 380.473 150.365 379.594 150.365C378.773 150.365 378.363 149.984 378.363 149.223C378.363 148.461 378.656 148.08 379.242 148.08C379.711 148.08 379.955 147.865 379.975 147.436V136.83C379.975 136.439 379.76 136.234 379.33 136.215H378.217V155.258C378.217 156.059 377.865 156.459 377.162 156.459C376.459 156.459 376.107 156.059 376.107 155.258V136.215H375.111C374.701 136.215 374.486 136.42 374.467 136.83V149.311C374.467 150.092 374.125 150.482 373.441 150.482C372.738 150.482 372.387 150.092 372.387 149.311V136.332ZM410.824 155.99C410.043 155.99 409.652 155.609 409.652 154.848C409.652 154.672 409.799 154.32 410.092 153.793C410.873 152.406 411.439 150.668 411.791 148.578C412.064 147.016 412.201 144.174 412.201 140.053V138.5C412.201 137.953 412.221 137.523 412.26 137.211C412.299 136.898 412.377 136.645 412.494 136.449C412.904 135.766 413.627 135.453 414.662 135.512H418.09V130.648C418.09 129.926 418.471 129.564 419.232 129.564C420.014 129.564 420.404 129.926 420.404 130.648V131.469H425.678C426.459 131.469 426.85 131.811 426.85 132.494C426.85 133.178 426.459 133.52 425.678 133.52H420.404V135.512H425.297C426.195 135.512 426.84 135.707 427.23 136.098C427.641 136.488 427.816 137.104 427.758 137.943V140.023C427.758 140.785 427.396 141.166 426.674 141.166C425.951 141.166 425.59 140.785 425.59 140.023V138.471C425.59 137.924 425.297 137.631 424.711 137.592H419.848V139.936L424.066 139.555C424.496 139.516 424.799 139.584 424.975 139.76C425.17 139.936 425.268 140.18 425.268 140.492C425.268 141.098 424.896 141.439 424.154 141.518L419.848 141.898V143.598C419.848 144.105 420.189 144.389 420.873 144.447C421.615 144.506 422.406 144.535 423.246 144.535C424.262 144.535 424.887 144.418 425.121 144.184C425.18 144.125 425.238 143.969 425.297 143.715C425.355 143.461 425.385 143.246 425.385 143.07C425.385 142.699 425.473 142.416 425.648 142.221C425.844 142.025 426.107 141.928 426.439 141.928C427.104 141.928 427.436 142.26 427.436 142.924C427.436 143.744 427.348 144.408 427.172 144.916C427.016 145.404 426.752 145.756 426.381 145.971C425.834 146.264 424.418 146.41 422.133 146.41C420.609 146.41 419.477 146.303 418.734 146.088C418.441 145.99 418.207 145.795 418.031 145.502C417.875 145.189 417.797 144.789 417.797 144.301V142.045L416.01 142.221C415.229 142.299 414.838 141.977 414.838 141.254C414.838 140.961 414.936 140.727 415.131 140.551C415.326 140.375 415.609 140.277 415.98 140.258L417.797 140.082V137.592H415.277C415.004 137.592 414.789 137.66 414.633 137.797C414.477 137.934 414.398 138.139 414.398 138.412C414.398 142.553 414.301 145.629 414.105 147.641C413.891 149.887 413.471 151.801 412.846 153.383C412.162 155.121 411.488 155.99 410.824 155.99ZM401.273 140.932C401.273 140.229 401.635 139.877 402.357 139.877H410.736C411.459 139.877 411.82 140.238 411.82 140.961C411.82 141.645 411.459 141.986 410.736 141.986H406.225L405.609 144.242L405.521 144.74V144.828C405.521 145.023 405.697 145.121 406.049 145.121H408.275C409.838 145.121 410.619 145.746 410.619 146.996C410.619 147.641 410.424 148.939 410.033 150.893C409.643 152.924 409.086 154.242 408.363 154.848C407.719 155.375 406.615 155.639 405.053 155.639C404.018 155.639 403.5 155.219 403.5 154.379C403.5 153.617 403.861 153.236 404.584 153.236L406.195 153.266C406.82 153.266 407.26 152.885 407.514 152.123C407.807 151.322 408.041 150.062 408.217 148.344L408.305 147.729V147.641C408.305 147.367 408.08 147.23 407.631 147.23H404.994C403.764 147.23 403.148 146.762 403.148 145.824C403.148 145.512 403.275 144.945 403.529 144.125L404.057 141.986H402.357C401.635 141.986 401.273 141.635 401.273 140.932ZM402.094 132.816C402.094 131.312 402.855 130.561 404.379 130.561H408.832C410.355 130.561 411.117 131.312 411.117 132.816V135.922C411.117 137.426 410.375 138.178 408.891 138.178H404.379C402.855 138.178 402.094 137.426 402.094 135.922V132.816ZM404.232 135.424C404.232 135.893 404.467 136.127 404.936 136.127H408.217C408.666 136.127 408.891 135.893 408.891 135.424V133.314C408.891 132.846 408.666 132.611 408.217 132.611H404.936C404.467 132.611 404.232 132.846 404.232 133.314V135.424ZM413.402 154.994C413.402 154.564 413.686 154.184 414.252 153.852C415.053 153.383 415.648 152.748 416.039 151.947C416.43 151.127 416.625 150.092 416.625 148.842C416.625 148.275 416.713 147.865 416.889 147.611C417.064 147.357 417.328 147.23 417.68 147.23C418.383 147.23 418.734 147.621 418.734 148.402C418.734 151.879 417.758 154.242 415.805 155.492C415.473 155.688 415.209 155.834 415.014 155.932C414.818 156.029 414.623 156.078 414.428 156.078C413.744 156.078 413.402 155.717 413.402 154.994ZM420.814 148.432C420.814 147.65 421.166 147.26 421.869 147.26C422.572 147.26 422.924 147.65 422.924 148.432V152.533C422.924 153.1 423.207 153.383 423.773 153.383C424.398 153.383 424.848 153.373 425.121 153.354C425.414 153.334 425.6 153.285 425.678 153.207C425.795 153.109 425.873 152.943 425.912 152.709C425.951 152.455 425.98 152.074 426 151.566L426.029 150.775C426.049 150.482 426.127 150.258 426.264 150.102C426.42 149.945 426.684 149.867 427.055 149.867C427.758 149.867 428.109 150.355 428.109 151.332C428.109 152.191 428.08 152.855 428.021 153.324C427.982 153.793 427.855 154.193 427.641 154.525C427.406 154.916 426.996 155.199 426.41 155.375C425.824 155.57 425.023 155.668 424.008 155.668C421.879 155.668 420.814 155.053 420.814 153.822V148.432Z" fill="black" fill-opacity="0.8"/>
<path d="M264.018 194.672C263.119 194.672 262.67 194.271 262.67 193.471C262.67 192.67 263.119 192.27 264.018 192.27H267.299V180.141C267.299 179.105 267.719 178.588 268.559 178.588C269.398 178.588 269.818 179.105 269.818 180.141V192.27H275.766V173.725H265.043C264.066 173.725 263.578 173.324 263.578 172.523C263.578 171.723 264.066 171.322 265.043 171.322H286.898C287.895 171.322 288.393 171.723 288.393 172.523C288.393 173.324 287.895 173.725 286.898 173.725H278.227V180.873H285.639C286.635 180.873 287.133 181.273 287.133 182.074C287.133 182.875 286.635 183.275 285.639 183.275H278.227V192.27H287.836C288.832 192.27 289.33 192.67 289.33 193.471C289.33 194.271 288.832 194.672 287.836 194.672H264.018ZM316.518 195.99C315.443 195.99 314.184 195.014 312.738 193.061C311.273 191.049 310.16 188.734 309.398 186.117C308.559 183.246 308.051 180.121 307.875 176.742H294.252C293.314 176.742 292.846 176.352 292.846 175.57C292.846 174.809 293.314 174.428 294.252 174.428H307.758L307.67 171.088C307.65 170.17 308.061 169.711 308.9 169.711C309.701 169.711 310.102 170.297 310.102 171.469V174.428H317.572C318.568 174.428 319.066 174.818 319.066 175.6C319.066 176.361 318.568 176.742 317.572 176.742H310.248C310.463 180.316 311 183.402 311.859 186C312.719 188.617 313.832 190.678 315.199 192.182C315.57 192.611 315.863 192.826 316.078 192.826C316.312 192.826 316.508 192.572 316.664 192.064C316.82 191.537 316.947 190.707 317.045 189.574C317.064 189.223 317.162 188.969 317.338 188.812C317.533 188.656 317.807 188.578 318.158 188.578C318.9 188.578 319.271 188.979 319.271 189.779C319.271 191.303 319.008 192.729 318.48 194.057C317.973 195.346 317.318 195.99 316.518 195.99ZM292.729 193.178C292.729 192.689 292.875 192.357 293.168 192.182C293.402 192.045 293.93 191.928 294.75 191.83C295.512 191.752 296.918 191.576 298.969 191.303V183.51H295.072C294.135 183.51 293.666 183.129 293.666 182.367C293.666 181.605 294.135 181.225 295.072 181.225H305.238C306.176 181.225 306.645 181.605 306.645 182.367C306.645 183.129 306.176 183.51 305.238 183.51H301.312V190.98L306.938 190.072C307.289 190.014 307.553 190.092 307.729 190.307C307.924 190.502 308.021 190.805 308.021 191.215C308.021 191.527 307.885 191.791 307.611 192.006C307.377 192.182 306.762 192.357 305.766 192.533L301.371 193.383L294.75 194.379L293.93 194.467C293.539 194.506 293.236 194.408 293.021 194.174C292.826 193.959 292.729 193.627 292.729 193.178ZM312.885 171.029C312.885 170.346 313.285 170.004 314.086 170.004C314.438 170.004 314.945 170.375 315.609 171.117C316.234 171.801 316.547 172.309 316.547 172.641C316.547 173.324 316.146 173.666 315.346 173.666C314.994 173.666 314.467 173.236 313.764 172.377C313.178 171.654 312.885 171.205 312.885 171.029ZM323.812 195.756C323.617 195.795 323.48 195.814 323.402 195.814C323.109 195.814 322.875 195.707 322.699 195.492C322.523 195.297 322.436 195.062 322.436 194.789C322.436 194.438 322.582 193.969 322.875 193.383C323.637 191.859 324.164 189.867 324.457 187.406C324.77 184.926 324.926 181.996 324.926 178.617V177.182C324.926 175.697 325.707 174.955 327.27 174.955H334.066C335.609 174.955 336.381 175.736 336.381 177.299V180.99L336.527 180.697C337.309 179.252 337.992 177.826 338.578 176.42C339.164 175.014 339.652 173.275 340.043 171.205C340.141 170.697 340.297 170.307 340.512 170.033C340.746 169.74 341.02 169.594 341.332 169.594C341.742 169.594 342.045 169.682 342.24 169.857C342.455 170.033 342.562 170.316 342.562 170.707C342.562 171.195 342.113 172.729 341.215 175.307H348.246C348.617 175.307 348.9 175.404 349.096 175.6C349.311 175.775 349.418 176.049 349.418 176.42C349.418 176.791 349.311 177.074 349.096 177.27C348.9 177.465 348.617 177.562 348.246 177.562H347.221C347.143 180.258 346.898 182.562 346.488 184.477C346.078 186.391 345.434 188.09 344.555 189.574C345.57 190.883 346.879 192.104 348.48 193.236C349.242 193.783 349.623 194.271 349.623 194.701C349.623 195.111 349.535 195.414 349.359 195.609C349.184 195.805 348.891 195.902 348.48 195.902C348.266 195.902 348.002 195.814 347.689 195.639C347.396 195.463 346.996 195.18 346.488 194.789C345.16 193.734 344.057 192.641 343.178 191.508C342.221 192.68 340.932 193.832 339.311 194.965C338.744 195.355 338.285 195.639 337.934 195.814C337.582 196.01 337.279 196.107 337.025 196.107C336.342 196.107 336 195.717 336 194.936C336 194.467 336.293 194.086 336.879 193.793C339.047 192.719 340.736 191.352 341.947 189.691C341.166 188.363 340.561 186.908 340.131 185.326C339.721 183.725 339.447 181.947 339.311 179.994C338.451 181.674 337.797 182.543 337.348 182.602C337.113 182.641 336.889 182.611 336.674 182.514C336.479 182.396 336.342 182.23 336.264 182.016C335.99 182.973 335.258 183.451 334.066 183.451H327.211C327.211 185.111 327.035 186.879 326.684 188.754C326.332 190.609 325.893 192.201 325.365 193.529C324.857 194.857 324.34 195.6 323.812 195.756ZM323.52 171.996C323.52 171.254 323.949 170.883 324.809 170.883H336.41C337.289 170.883 337.729 171.254 337.729 171.996C337.729 172.738 337.289 173.109 336.41 173.109H324.809C323.949 173.109 323.52 172.738 323.52 171.996ZM327.27 188.139C327.27 187.24 327.484 186.586 327.914 186.176C328.344 185.746 329.018 185.551 329.936 185.59H333.568C334.525 185.59 335.219 185.795 335.648 186.205C336.098 186.615 336.293 187.26 336.234 188.139V192.27C336.234 193.188 336.02 193.852 335.59 194.262C335.18 194.672 334.506 194.857 333.568 194.818H329.936C328.979 194.818 328.275 194.613 327.826 194.203C327.377 193.793 327.191 193.148 327.27 192.27V188.139ZM333.188 181.254C333.734 181.254 334.008 180.98 334.008 180.434V177.973C334.008 177.426 333.734 177.152 333.188 177.152H328.119C327.846 177.152 327.631 177.23 327.475 177.387C327.338 177.543 327.27 177.748 327.27 178.002V181.254H333.188ZM329.525 191.742C329.525 192.055 329.613 192.299 329.789 192.475C329.965 192.65 330.229 192.738 330.58 192.738H332.953C333.266 192.738 333.51 192.65 333.686 192.475C333.861 192.299 333.949 192.055 333.949 191.742V188.666C333.949 188.002 333.617 187.67 332.953 187.67H330.58C330.229 187.67 329.965 187.758 329.789 187.934C329.613 188.109 329.525 188.354 329.525 188.666V191.742ZM341.039 177.562C341.098 179.652 341.293 181.508 341.625 183.129C341.977 184.75 342.504 186.215 343.207 187.523C343.793 186.254 344.223 184.818 344.496 183.217C344.77 181.596 344.945 179.711 345.023 177.562H341.039ZM373.5 196.02C372.641 196.02 372.211 195.6 372.211 194.76C372.211 194.271 372.396 193.93 372.768 193.734C372.943 193.637 373.461 193.559 374.32 193.5C375.473 193.441 376.107 192.553 376.225 190.834C376.459 187.748 376.625 185.121 376.723 182.953L376.84 179.613C376.859 178.891 376.498 178.529 375.756 178.529H373.412C373.256 182.143 372.943 185.043 372.475 187.23C371.947 189.672 371.225 191.664 370.307 193.207C369.291 194.926 368.441 195.785 367.758 195.785C367.035 195.785 366.674 195.404 366.674 194.643C366.674 194.486 366.723 194.32 366.82 194.145C366.938 193.988 367.113 193.773 367.348 193.5C369.828 190.707 371.137 185.717 371.273 178.529H369.311C368.451 178.529 368.021 178.148 368.021 177.387C368.021 176.996 368.119 176.713 368.314 176.537C368.529 176.342 368.861 176.244 369.311 176.244H371.332L371.361 173.52C371.361 172.348 371.371 171.459 371.391 170.854C371.41 170.053 371.771 169.652 372.475 169.652C373.197 169.652 373.559 170.062 373.559 170.883L373.529 173.52L373.5 176.244H376.4C378.197 176.244 379.066 176.996 379.008 178.5L378.773 184.477C378.598 188.637 378.344 191.537 378.012 193.178C377.816 194.096 377.338 194.799 376.576 195.287C375.814 195.775 374.789 196.02 373.5 196.02ZM353.197 194.057C353.197 193.314 353.744 192.914 354.838 192.855L359.994 192.504V190.424H355.189C354.467 190.424 354.105 190.092 354.105 189.428C354.105 188.764 354.467 188.432 355.189 188.432H359.994V186.85H356.771C356.01 186.85 355.434 186.674 355.043 186.322C354.652 185.951 354.457 185.424 354.457 184.74V180.287C354.457 179.584 354.643 179.047 355.014 178.676C355.404 178.305 355.971 178.119 356.713 178.119H359.994V176.625H354.311C353.588 176.625 353.227 176.283 353.227 175.6C353.227 174.936 353.588 174.604 354.311 174.604H359.994V172.934L359.203 173.021L355.102 173.314C354.301 173.373 353.9 173.012 353.9 172.23C353.9 171.723 354.135 171.391 354.604 171.234H354.633L356.068 171.176C360.326 171 363.49 170.58 365.561 169.916L366.117 169.857C366.938 169.779 367.348 170.18 367.348 171.059C367.348 171.605 366.83 171.986 365.795 172.201C365.521 172.26 364.633 172.396 363.129 172.611L362.045 172.758V174.604H367.113C367.855 174.604 368.227 174.945 368.227 175.629C368.227 175.961 368.139 176.215 367.963 176.391C367.787 176.547 367.504 176.625 367.113 176.625H362.045V178.119H365.473C366.977 178.119 367.729 178.822 367.729 180.229V184.682C367.729 186.127 366.957 186.85 365.414 186.85H362.045V188.432H366.791C367.201 188.432 367.484 188.51 367.641 188.666C367.816 188.822 367.904 189.076 367.904 189.428C367.904 189.779 367.816 190.033 367.641 190.189C367.484 190.346 367.201 190.424 366.791 190.424H362.045V192.387L366.469 191.947C366.742 191.928 366.957 192.006 367.113 192.182C367.289 192.338 367.377 192.582 367.377 192.914C367.377 193.461 367.104 193.783 366.557 193.881L355.307 195.17L354.398 195.229C353.598 195.287 353.197 194.896 353.197 194.057ZM356.596 184.33C356.596 184.799 356.83 185.033 357.299 185.033H359.994V183.334H356.596V184.33ZM359.994 181.576V179.936H357.299C356.83 179.936 356.596 180.18 356.596 180.668V181.576H359.994ZM364.887 185.033C365.355 185.033 365.59 184.799 365.59 184.33V183.334H362.045V185.033H364.887ZM365.59 181.576V180.668C365.59 180.414 365.531 180.229 365.414 180.111C365.316 179.994 365.141 179.936 364.887 179.936H362.045V181.576H365.59ZM396 188.959C395.238 188.959 394.848 188.549 394.828 187.729L394.213 172.729C394.213 171.576 394.809 171 396 171C397.172 171 397.758 171.586 397.758 172.758V173.314L397.113 187.729C397.094 188.549 396.723 188.959 396 188.959ZM394.037 193.002C394.037 192.494 394.232 192.025 394.623 191.596C395.014 191.225 395.492 191.039 396.059 191.039C396.547 191.039 396.996 191.225 397.406 191.596C397.777 191.986 397.963 192.455 397.963 193.002C397.963 193.607 397.768 194.076 397.377 194.408C396.986 194.799 396.527 194.994 396 194.994C395.453 194.994 394.984 194.789 394.594 194.379C394.223 193.969 394.037 193.51 394.037 193.002Z" fill="black" fill-opacity="0.8"/>
<path d="M297.906 224.453C297.438 224.453 297.099 224.354 296.891 224.156C296.682 223.958 296.589 223.635 296.609 223.188V219.094C296.609 218.625 296.708 218.292 296.906 218.094C297.115 217.885 297.448 217.797 297.906 217.828H298.672V211.438C298.672 210.99 298.875 210.766 299.281 210.766C299.688 210.766 299.891 210.99 299.891 211.438V213.672H302.344C302.865 213.672 303.125 213.885 303.125 214.312C303.125 214.719 302.865 214.922 302.344 214.922H299.891V217.828H301.312C301.781 217.828 302.12 217.932 302.328 218.141C302.536 218.339 302.63 218.661 302.609 219.109V223.172C302.609 223.641 302.505 223.979 302.297 224.188C302.089 224.396 301.76 224.484 301.312 224.453H297.906ZM288.797 220.781C288.797 220.354 289.115 220.141 289.75 220.141C290.531 220.141 291.349 220.115 292.203 220.062V218.969H289.922C289.464 218.969 289.234 218.776 289.234 218.391C289.234 218.016 289.464 217.828 289.922 217.828H292.203V216.844H290.562C290.177 216.844 289.885 216.745 289.688 216.547C289.49 216.339 289.391 216.042 289.391 215.656V212.484C289.391 212.089 289.49 211.792 289.688 211.594C289.885 211.385 290.177 211.281 290.562 211.281H295.031C295.417 211.281 295.708 211.385 295.906 211.594C296.104 211.792 296.203 212.089 296.203 212.484V215.656C296.203 216.042 296.104 216.339 295.906 216.547C295.708 216.745 295.417 216.844 295.031 216.844H293.25V217.828H295.375C295.833 217.828 296.062 218.016 296.062 218.391C296.062 218.776 295.833 218.969 295.375 218.969H293.25V220L295.625 219.875C295.823 219.865 295.974 219.911 296.078 220.016C296.182 220.12 296.234 220.266 296.234 220.453C296.234 220.818 295.932 221.016 295.328 221.047L289.516 221.406C289.286 221.417 289.109 221.37 288.984 221.266C288.859 221.151 288.797 220.99 288.797 220.781ZM289.422 222.531C289.484 222.323 289.557 222.167 289.641 222.062C289.724 221.958 289.844 221.906 290 221.906C290.177 221.906 290.312 221.958 290.406 222.062C290.51 222.156 290.552 222.286 290.531 222.453C290.458 222.964 290.359 223.406 290.234 223.781C290.13 224.104 290.021 224.339 289.906 224.484C289.802 224.63 289.672 224.703 289.516 224.703C289.141 224.703 288.953 224.516 288.953 224.141L289.422 222.531ZM290.453 215.344C290.453 215.469 290.479 215.562 290.531 215.625C290.594 215.677 290.688 215.708 290.812 215.719H292.203V212.422H290.812C290.688 212.422 290.599 212.453 290.547 212.516C290.495 212.578 290.464 212.672 290.453 212.797V215.344ZM290.703 213.344C290.682 213.219 290.714 213.12 290.797 213.047C290.891 212.974 291.01 212.938 291.156 212.938C291.281 212.938 291.391 213.021 291.484 213.188C291.578 213.354 291.672 213.615 291.766 213.969L291.891 214.484L291.922 214.719C291.932 214.854 291.896 214.964 291.812 215.047C291.729 215.13 291.609 215.172 291.453 215.172C291.318 215.172 291.203 215.083 291.109 214.906C291.016 214.729 290.927 214.453 290.844 214.078L290.703 213.344ZM291.188 222.469C291.177 222.427 291.172 222.375 291.172 222.312C291.172 222.156 291.219 222.042 291.312 221.969C291.406 221.885 291.526 221.844 291.672 221.844C291.839 221.844 291.979 221.969 292.094 222.219C292.208 222.458 292.323 222.859 292.438 223.422L292.562 224.125C292.594 224.302 292.552 224.443 292.438 224.547C292.333 224.651 292.188 224.703 292 224.703C291.667 224.703 291.474 224.464 291.422 223.984C291.391 223.693 291.312 223.188 291.188 222.469ZM292.953 222.125C292.922 221.979 292.958 221.865 293.062 221.781C293.167 221.698 293.302 221.656 293.469 221.656C293.625 221.656 293.771 221.76 293.906 221.969C294.042 222.177 294.182 222.505 294.328 222.953L294.531 223.641L294.578 223.953C294.599 224.12 294.557 224.245 294.453 224.328C294.359 224.411 294.219 224.453 294.031 224.453C293.781 224.453 293.62 224.354 293.547 224.156C293.443 223.875 293.323 223.51 293.188 223.062L293.016 222.422L292.953 222.125ZM294.781 215.719C294.906 215.719 294.995 215.688 295.047 215.625C295.099 215.562 295.13 215.469 295.141 215.344V212.797C295.141 212.672 295.109 212.583 295.047 212.531C294.995 212.469 294.906 212.432 294.781 212.422H293.25V215.719H294.781ZM293.859 213.469C293.943 213.115 294.104 212.938 294.344 212.938C294.49 212.938 294.604 212.979 294.688 213.062C294.771 213.135 294.812 213.245 294.812 213.391L294.766 213.641L294.609 214.219C294.432 214.875 294.234 215.203 294.016 215.203C293.703 215.203 293.547 215.052 293.547 214.75L293.859 213.469ZM294.766 221.953C294.766 221.807 294.807 221.698 294.891 221.625C294.984 221.542 295.109 221.5 295.266 221.5C295.516 221.5 295.781 221.844 296.062 222.531C296.323 223.156 296.453 223.542 296.453 223.688C296.453 223.854 296.406 223.979 296.312 224.062C296.219 224.146 296.083 224.188 295.906 224.188C295.771 224.188 295.646 224.109 295.531 223.953C295.417 223.807 295.302 223.573 295.188 223.25L294.875 222.359C294.802 222.172 294.766 222.036 294.766 221.953ZM297.812 222.797C297.812 222.964 297.859 223.094 297.953 223.188C298.047 223.271 298.172 223.312 298.328 223.312H300.891C301.057 223.312 301.182 223.266 301.266 223.172C301.359 223.078 301.406 222.953 301.406 222.797V219.484C301.406 219.318 301.359 219.193 301.266 219.109C301.172 219.016 301.047 218.969 300.891 218.969H298.328C298.161 218.969 298.031 219.016 297.938 219.109C297.854 219.203 297.812 219.328 297.812 219.484V222.797ZM305.391 223.031C305.005 223.031 304.812 222.859 304.812 222.516C304.812 222.182 305.005 222.016 305.391 222.016H311.438V221.281H306.438C306.073 221.281 305.891 221.12 305.891 220.797C305.891 220.474 306.073 220.312 306.438 220.312H311.438V219.641C309.896 219.661 308.219 219.672 306.406 219.672C305.958 219.672 305.734 219.505 305.734 219.172C305.734 219.026 305.792 218.906 305.906 218.812C306.021 218.719 306.177 218.672 306.375 218.672L307.328 218.688C307.484 218.688 307.604 218.693 307.688 218.703H308.047C311.276 218.703 313.724 218.62 315.391 218.453L316.891 218.281C317.161 218.271 317.349 218.307 317.453 218.391C317.568 218.464 317.625 218.599 317.625 218.797C317.625 219.161 317.422 219.365 317.016 219.406C315.745 219.521 314.286 219.594 312.641 219.625V220.312H317.562C317.927 220.312 318.109 220.474 318.109 220.797C318.109 220.953 318.062 221.073 317.969 221.156C317.875 221.24 317.74 221.281 317.562 221.281H312.641V222.016H318.594C318.979 222.016 319.172 222.188 319.172 222.531C319.172 222.865 318.979 223.031 318.594 223.031H312.641V223.953C312.641 224.297 312.547 224.557 312.359 224.734C312.182 224.922 311.922 225.016 311.578 225.016H310.031C309.625 225.016 309.422 224.833 309.422 224.469C309.422 224.104 309.625 223.922 310.031 223.922H310.906C311.25 223.922 311.427 223.745 311.438 223.391V223.031H305.391ZM304.859 216.203C304.859 215.953 305.005 215.828 305.297 215.828H307.828V215.453H306.156C305.844 215.453 305.615 215.391 305.469 215.266C305.333 215.13 305.266 214.927 305.266 214.656V213.375C305.266 213.104 305.344 212.896 305.5 212.75C305.656 212.604 305.891 212.531 306.203 212.531H307.828V212.125H305.406C305.25 212.125 305.135 212.094 305.062 212.031C305 211.969 304.969 211.87 304.969 211.734C304.969 211.589 305 211.484 305.062 211.422C305.135 211.359 305.25 211.328 305.406 211.328H307.828V211.25C307.828 210.854 308 210.656 308.344 210.656C308.677 210.656 308.844 210.854 308.844 211.25V211.328H311.219C311.375 211.328 311.484 211.359 311.547 211.422C311.62 211.484 311.656 211.589 311.656 211.734C311.656 211.87 311.62 211.969 311.547 212.031C311.484 212.094 311.375 212.125 311.219 212.125H308.844V212.531H310.578C311.193 212.531 311.5 212.807 311.5 213.359V214.625C311.5 215.177 311.177 215.453 310.531 215.453H308.844V215.828H311.375C311.531 215.828 311.646 215.859 311.719 215.922C311.792 215.974 311.828 216.068 311.828 216.203C311.828 216.474 311.677 216.609 311.375 216.609H308.844V217.531H309.875C310.125 217.531 310.292 217.521 310.375 217.5C310.469 217.469 310.516 217.401 310.516 217.297C310.516 216.953 310.672 216.781 310.984 216.781C311.151 216.781 311.276 216.833 311.359 216.938C311.443 217.031 311.484 217.188 311.484 217.406C311.484 217.729 311.385 217.964 311.188 218.109C311 218.255 310.703 218.328 310.297 218.328H306.547C306.13 218.328 305.823 218.255 305.625 218.109C305.438 217.964 305.344 217.724 305.344 217.391C305.344 217.172 305.385 217.016 305.469 216.922C305.562 216.828 305.693 216.781 305.859 216.781C306.172 216.781 306.328 216.948 306.328 217.281C306.328 217.385 306.365 217.453 306.438 217.484C306.51 217.505 306.646 217.521 306.844 217.531H307.828V216.609H305.297C305.005 216.609 304.859 216.474 304.859 216.203ZM306.219 214.562C306.219 214.708 306.292 214.781 306.438 214.781H307.844V214.297H306.219V214.562ZM307.844 213.672V213.219H306.438C306.292 213.219 306.219 213.286 306.219 213.422V213.672H307.844ZM310.312 214.766C310.458 214.766 310.531 214.693 310.531 214.547V214.297H308.828V214.766H310.312ZM310.531 213.672V213.422C310.531 213.286 310.458 213.219 310.312 213.219H308.828V213.672H310.531ZM311.609 217.781C311.609 217.469 311.859 217.276 312.359 217.203C312.807 217.13 313.354 216.995 314 216.797C313.469 216.37 313.203 216.062 313.203 215.875C313.203 215.771 313.24 215.693 313.312 215.641C313.396 215.578 313.495 215.547 313.609 215.547C313.849 215.547 314.057 215.656 314.234 215.875C314.391 216.062 314.62 216.255 314.922 216.453C315.807 216.109 316.5 215.734 317 215.328H312.641C312.484 215.328 312.365 215.286 312.281 215.203C312.198 215.12 312.156 215.005 312.156 214.859C312.156 214.714 312.198 214.599 312.281 214.516C312.365 214.432 312.484 214.391 312.641 214.391H317.438C318.01 214.391 318.297 214.599 318.297 215.016C318.297 215.516 317.516 216.156 315.953 216.938C316.016 216.948 316.188 216.99 316.469 217.062C316.76 217.135 317.068 217.198 317.391 217.25C317.724 217.302 318.062 217.339 318.406 217.359C318.625 217.38 318.797 217.432 318.922 217.516C319.047 217.599 319.109 217.719 319.109 217.875C319.109 218.208 318.885 218.375 318.438 218.375C318.052 218.375 317.542 218.292 316.906 218.125C316.281 217.958 315.62 217.719 314.922 217.406C313.484 217.979 312.531 218.266 312.062 218.266C311.76 218.266 311.609 218.104 311.609 217.781ZM311.938 213.781C311.938 213.698 311.974 213.604 312.047 213.5C312.12 213.385 312.219 213.292 312.344 213.219C312.635 212.927 312.807 212.479 312.859 211.875C312.901 211.385 313.208 211.141 313.781 211.141H315.938C316.562 211.141 316.875 211.484 316.875 212.172V212.656C316.875 212.885 317.021 213 317.312 213H317.609C317.755 213 317.87 212.958 317.953 212.875C318.036 212.792 318.083 212.672 318.094 212.516C318.115 212.297 318.161 212.135 318.234 212.031C318.318 211.927 318.443 211.875 318.609 211.875C318.953 211.875 319.125 212.094 319.125 212.531C319.125 213.51 318.677 214.005 317.781 214.016H317.156C316.75 214.016 316.438 213.953 316.219 213.828C316.01 213.693 315.901 213.484 315.891 213.203V212.641C315.891 212.391 315.766 212.24 315.516 212.188H314.047C313.859 212.188 313.76 212.271 313.75 212.438C313.688 213.01 313.505 213.469 313.203 213.812C312.901 214.167 312.646 214.344 312.438 214.344C312.104 214.344 311.938 214.156 311.938 213.781ZM324.781 224.703C324.208 224.703 323.922 224.453 323.922 223.953C323.922 223.495 324.156 223.266 324.625 223.266H325.094C325.594 223.266 325.906 223.089 326.031 222.734C326.188 222.307 326.297 221.51 326.359 220.344L326.5 217.594C326.573 216.135 326.615 215.307 326.625 215.109C326.646 214.776 326.438 214.609 326 214.609H324.609C324.536 216.328 324.401 217.786 324.203 218.984C324.016 220.182 323.75 221.208 323.406 222.062C322.719 223.75 322.068 224.594 321.453 224.594C321.005 224.594 320.781 224.354 320.781 223.875C320.781 223.677 320.901 223.443 321.141 223.172C321.786 222.453 322.297 221.422 322.672 220.078C323.016 218.828 323.224 217.005 323.297 214.609H321.672C321.141 214.609 320.875 214.38 320.875 213.922C320.875 213.484 321.151 213.266 321.703 213.266H323.328L323.344 212.688C323.365 212.188 323.375 211.807 323.375 211.547C323.375 211.036 323.599 210.781 324.047 210.781C324.505 210.781 324.734 211 324.734 211.438C324.734 211.688 324.724 212.052 324.703 212.531C324.682 212.865 324.672 213.109 324.672 213.266H326.391C326.911 213.266 327.302 213.385 327.562 213.625C327.833 213.854 327.958 214.198 327.938 214.656L327.812 217.406C327.792 217.99 327.75 218.906 327.688 220.156C327.646 221.062 327.578 221.828 327.484 222.453C327.391 223.068 327.286 223.51 327.172 223.781C326.922 224.396 326.125 224.703 324.781 224.703ZM328.828 214.141C328.828 213.63 328.943 213.26 329.172 213.031C329.401 212.802 329.76 212.703 330.25 212.734H333.078C333.589 212.734 333.958 212.849 334.188 213.078C334.417 213.297 334.516 213.656 334.484 214.156V222.734C334.484 223.245 334.37 223.615 334.141 223.844C333.922 224.083 333.568 224.188 333.078 224.156H330.25C329.74 224.156 329.365 224.042 329.125 223.812C328.896 223.594 328.797 223.24 328.828 222.75V214.141ZM330.125 222.25C330.125 222.604 330.312 222.792 330.688 222.812H332.609C332.974 222.812 333.161 222.625 333.172 222.25V214.625C333.172 214.26 332.984 214.073 332.609 214.062H330.688C330.333 214.062 330.146 214.25 330.125 214.625V222.25ZM337.531 224.672C337.135 224.672 336.938 224.438 336.938 223.969C336.938 223.802 337.01 223.641 337.156 223.484L338.172 222.734C340.797 220.797 342.635 217.943 343.688 214.172L343.656 213.469C343.635 213.198 343.573 212.995 343.469 212.859C343.375 212.724 343.219 212.651 343 212.641H340.953C340.432 212.641 340.172 212.422 340.172 211.984C340.172 211.557 340.432 211.344 340.953 211.344H343.516C343.974 211.344 344.307 211.474 344.516 211.734C344.734 211.995 344.849 212.406 344.859 212.969C344.891 215.167 345.406 217.104 346.406 218.781C347.51 220.635 348.891 222.083 350.547 223.125C350.891 223.344 351.062 223.594 351.062 223.875C351.062 224.365 350.844 224.609 350.406 224.609C350.01 224.609 349.234 224.089 348.078 223.047C346.255 221.38 344.948 219.203 344.156 216.516C343.875 217.161 343.547 217.839 343.172 218.547C342.807 219.255 342.531 219.76 342.344 220.062C341.698 221.104 340.844 222.13 339.781 223.141C338.708 224.161 337.958 224.672 337.531 224.672ZM360.594 224.922C360.042 224.922 359.766 224.698 359.766 224.25C359.766 223.812 360.042 223.594 360.594 223.594H361.484C361.911 223.594 362.135 223.365 362.156 222.906V218.562H359.234C358.734 218.562 358.484 218.359 358.484 217.953C358.484 217.547 358.734 217.344 359.234 217.344H362.156V215.703C362.156 215.38 362.229 215.13 362.375 214.953C362.531 214.766 362.958 214.432 363.656 213.953C364.375 213.464 364.734 213.146 364.734 213C364.734 212.948 364.714 212.906 364.672 212.875C364.63 212.844 364.583 212.828 364.531 212.828H359.469C358.969 212.828 358.719 212.635 358.719 212.25C358.719 212.042 358.776 211.891 358.891 211.797C359.016 211.693 359.208 211.641 359.469 211.641H365.484C366.328 211.641 366.75 211.896 366.75 212.406C366.75 212.833 365.875 213.667 364.125 214.906C363.677 215.24 363.443 215.568 363.422 215.891V217.344H366.328C366.839 217.344 367.094 217.547 367.094 217.953C367.094 218.359 366.839 218.562 366.328 218.562H363.422V223.234C363.422 223.828 363.276 224.25 362.984 224.5C362.661 224.781 362.24 224.922 361.719 224.922H360.594ZM352.844 224C352.844 223.781 353.062 223.536 353.5 223.266C354.406 222.724 355.109 222.099 355.609 221.391L354.203 220.328C353.797 220.016 353.594 219.688 353.594 219.344C353.594 219.156 353.656 218.786 353.781 218.234C353.854 217.901 353.995 217.094 354.203 215.812L354.312 215.141L353.469 215.156C353.052 215.167 352.844 214.958 352.844 214.531C352.844 214.135 353.089 213.927 353.578 213.906H354.5L354.766 211.469C354.786 211.26 354.854 211.104 354.969 211C355.083 210.885 355.234 210.828 355.422 210.828C355.828 210.828 356.031 211.042 356.031 211.469L355.734 213.875L357.156 213.859C357.969 213.849 358.375 214.25 358.375 215.062C358.375 215.719 358.271 216.776 358.062 218.234C357.896 219.349 357.594 220.323 357.156 221.156C358.146 222.052 358.641 222.667 358.641 223C358.641 223.458 358.417 223.688 357.969 223.688C357.76 223.688 357.411 223.38 356.922 222.766L356.5 222.266C355.906 223.036 355.354 223.615 354.844 224C354.24 224.458 353.776 224.688 353.453 224.688C353.047 224.688 352.844 224.458 352.844 224ZM354.844 219.016C354.844 219.245 355.068 219.516 355.516 219.828L356.219 220.328C356.604 219.443 356.875 218.307 357.031 216.922L357.172 215.5C357.203 215.229 357.036 215.094 356.672 215.094L355.547 215.125C355.411 216.021 355.245 216.938 355.047 217.875C354.911 218.531 354.844 218.911 354.844 219.016ZM369.578 224.141C369.38 224.141 369.224 224.089 369.109 223.984C369.005 223.88 368.953 223.74 368.953 223.562C368.953 223.344 369.13 223.047 369.484 222.672C370.516 221.62 371.349 220.396 371.984 219C372.62 217.604 373.052 215.979 373.281 214.125H369.766C369.255 214.125 369 213.922 369 213.516C369 213.109 369.255 212.906 369.766 212.906H373.391L373.5 211.484C373.531 211.016 373.76 210.781 374.188 210.781C374.406 210.781 374.568 210.839 374.672 210.953C374.776 211.057 374.823 211.203 374.812 211.391C374.771 212.016 374.734 212.521 374.703 212.906H382.25C382.75 212.906 383 213.109 383 213.516C383 213.922 382.75 214.125 382.25 214.125H374.609C374.526 214.979 374.432 215.625 374.328 216.062H380.062C380.948 216.062 381.391 216.37 381.391 216.984C381.391 217.224 381.328 217.516 381.203 217.859C381.047 218.307 380.849 218.745 380.609 219.172C380.089 220.141 379.474 220.99 378.766 221.719C379.453 222.156 380.042 222.5 380.531 222.75C381.031 223 381.542 223.203 382.062 223.359C382.74 223.568 383.078 223.818 383.078 224.109C383.078 224.62 382.859 224.875 382.422 224.875C382.099 224.875 381.458 224.651 380.5 224.203C379.438 223.703 378.521 223.188 377.75 222.656C377.073 223.198 376.193 223.724 375.109 224.234C374.13 224.693 373.396 224.922 372.906 224.922C372.469 224.922 372.25 224.708 372.25 224.281C372.25 224.062 372.333 223.896 372.5 223.781C372.677 223.677 372.984 223.557 373.422 223.422C374.807 222.974 375.917 222.453 376.75 221.859C376.24 221.401 375.74 220.781 375.25 220C374.781 219.26 374.547 218.703 374.547 218.328C374.547 218.151 374.594 218.016 374.688 217.922C374.792 217.818 374.927 217.766 375.094 217.766C375.292 217.766 375.438 217.807 375.531 217.891C375.625 217.974 375.714 218.125 375.797 218.344C376.141 219.365 376.776 220.26 377.703 221.031C378.286 220.469 378.776 219.844 379.172 219.156C379.557 218.5 379.792 217.969 379.875 217.562V217.516C379.875 217.453 379.849 217.406 379.797 217.375C379.755 217.333 379.693 217.312 379.609 217.312H374C373.479 219.052 372.724 220.63 371.734 222.047C371.266 222.724 370.839 223.24 370.453 223.594C370.068 223.958 369.776 224.141 369.578 224.141ZM276.719 244.609C274.812 244.609 273.568 244.495 272.984 244.266C272.359 244.026 271.844 243.656 271.438 243.156C270.333 244.104 269.656 244.578 269.406 244.578C269.01 244.578 268.812 244.349 268.812 243.891C268.812 243.776 268.885 243.656 269.031 243.531C269.177 243.417 269.427 243.25 269.781 243.031L270.812 242.391V239.516C270.812 239.37 270.766 239.266 270.672 239.203C270.589 239.13 270.448 239.094 270.25 239.094C270 239.094 269.818 239.047 269.703 238.953C269.599 238.859 269.547 238.719 269.547 238.531C269.547 238.156 269.766 237.969 270.203 237.969H270.797C271.557 237.969 271.938 238.359 271.938 239.141V242.312C272.198 242.688 272.635 242.979 273.25 243.188C273.802 243.375 274.802 243.469 276.25 243.469L278.562 243.406C278.969 243.385 279.172 243.583 279.172 244C279.172 244.406 278.708 244.609 277.781 244.609H276.719ZM265.469 232.719C265.469 232.24 265.573 231.885 265.781 231.656C266 231.427 266.333 231.323 266.781 231.344H268.609C269.349 231.344 269.719 231.604 269.719 232.125C269.719 232.438 269.292 233.505 268.438 235.328C268.25 235.724 268.156 236.005 268.156 236.172C268.156 236.203 268.177 236.25 268.219 236.312C268.26 236.365 268.297 236.411 268.328 236.453C269.12 237.516 269.516 238.547 269.516 239.547C269.516 240.964 268.818 241.672 267.422 241.672C267.026 241.672 266.828 241.448 266.828 241C266.828 240.646 267.021 240.453 267.406 240.422C267.708 240.401 267.938 240.307 268.094 240.141C268.25 239.964 268.328 239.724 268.328 239.422C268.328 238.578 268.005 237.714 267.359 236.828C267.182 236.589 267.094 236.391 267.094 236.234C267.094 236.057 267.219 235.682 267.469 235.109C267.521 234.974 267.568 234.849 267.609 234.734C267.661 234.62 267.708 234.51 267.75 234.406C267.833 234.146 267.927 233.906 268.031 233.688L268.203 233.297L268.359 232.75V232.703C268.359 232.63 268.323 232.578 268.25 232.547C268.188 232.505 268.099 232.484 267.984 232.484H267.109C266.807 232.484 266.646 232.646 266.625 232.969V244.344C266.625 244.802 266.427 245.031 266.031 245.031C265.833 245.031 265.688 244.974 265.594 244.859C265.51 244.755 265.469 244.583 265.469 244.344V232.719ZM269.375 235.328C269.375 234.953 269.573 234.766 269.969 234.766C270.104 234.766 270.385 234.911 270.812 235.203C271.24 235.505 271.453 235.771 271.453 236C271.453 236.406 271.26 236.609 270.875 236.609C270.729 236.609 270.573 236.536 270.406 236.391L270.047 236.094C269.807 235.896 269.635 235.74 269.531 235.625C269.427 235.51 269.375 235.411 269.375 235.328ZM270.047 231.969C270.047 231.625 270.245 231.453 270.641 231.453C270.828 231.453 271.109 231.615 271.484 231.938C271.891 232.281 272.094 232.557 272.094 232.766C272.094 233.172 271.906 233.375 271.531 233.375C271.354 233.375 271.188 233.281 271.031 233.094L270.562 232.703C270.219 232.422 270.047 232.177 270.047 231.969ZM271.734 235.422C271.734 235.245 271.844 235.068 272.062 234.891C272.812 234.255 273.406 233.573 273.844 232.844H273C272.833 232.844 272.703 232.802 272.609 232.719C272.516 232.635 272.469 232.521 272.469 232.375C272.469 232.229 272.516 232.115 272.609 232.031C272.703 231.948 272.833 231.906 273 231.906H274.328L274.562 231.266C274.688 230.911 274.896 230.734 275.188 230.734C275.562 230.734 275.75 230.896 275.75 231.219C275.75 231.344 275.661 231.573 275.484 231.906H278.547C278.724 231.906 278.854 231.948 278.938 232.031C279.031 232.115 279.078 232.229 279.078 232.375C279.078 232.688 278.901 232.844 278.547 232.844H275.031L274.562 233.578H278.109C278.432 233.578 278.594 233.724 278.594 234.016C278.594 234.307 278.432 234.453 278.109 234.453H276.422V235.359H278.578C278.922 235.359 279.094 235.516 279.094 235.828C279.094 236.12 278.922 236.266 278.578 236.266H273.734C273.578 236.266 273.453 236.229 273.359 236.156C273.276 236.073 273.234 235.964 273.234 235.828C273.234 235.516 273.411 235.359 273.766 235.359H275.344V234.453H273.906C273.125 235.464 272.578 235.969 272.266 235.969C271.911 235.969 271.734 235.786 271.734 235.422ZM272.938 237.891C272.938 237.193 273.302 236.844 274.031 236.844H277.344C278.062 236.844 278.422 237.193 278.422 237.891V241.656C278.422 242.125 278.318 242.464 278.109 242.672C277.911 242.88 277.583 242.969 277.125 242.938H276.422C276.057 242.938 275.875 242.766 275.875 242.422C275.875 242.068 276.047 241.891 276.391 241.891H276.891C277.193 241.891 277.344 241.719 277.344 241.375V240.859H274.016V242.344C274.016 242.729 273.839 242.922 273.484 242.922C273.297 242.922 273.156 242.875 273.062 242.781C272.979 242.688 272.938 242.542 272.938 242.344V237.891ZM277.344 239.969V239.297H274.016V239.969H277.344ZM277.344 238.406V238.188C277.344 237.927 277.219 237.797 276.969 237.797H274.406C274.146 237.797 274.016 237.927 274.016 238.188V238.406H277.344ZM282.766 242.938C281.849 242.938 281.411 242.479 281.453 241.562V233.266C281.453 232.776 281.557 232.417 281.766 232.188C281.984 231.958 282.318 231.854 282.766 231.875H284.469C284.927 231.875 285.26 231.99 285.469 232.219C285.688 232.438 285.786 232.786 285.766 233.266V241.562C285.766 242.521 285.333 242.979 284.469 242.938H282.766ZM282.672 241.344C282.672 241.635 282.818 241.781 283.109 241.781H284.109C284.391 241.781 284.536 241.635 284.547 241.344V237.719H282.672V241.344ZM284.547 236.562V233.484C284.547 233.193 284.401 233.036 284.109 233.016H283.109C282.839 233.016 282.693 233.172 282.672 233.484V236.562H284.547ZM286.125 239.141C286.125 238.755 286.365 238.562 286.844 238.562H291.828V236.844H286.844C286.365 236.844 286.125 236.656 286.125 236.281C286.125 235.885 286.365 235.688 286.844 235.688H289.938V233.844H287.422C287.172 233.844 286.99 233.802 286.875 233.719C286.771 233.625 286.719 233.479 286.719 233.281C286.719 233.073 286.771 232.922 286.875 232.828C286.99 232.734 287.172 232.688 287.422 232.688H289.938V231.516C289.938 231.005 290.146 230.75 290.562 230.75C290.979 230.75 291.188 231.005 291.188 231.516V232.688H293.641C293.891 232.688 294.068 232.734 294.172 232.828C294.286 232.922 294.344 233.073 294.344 233.281C294.344 233.479 294.286 233.625 294.172 233.719C294.068 233.802 293.891 233.844 293.641 233.844H291.188V235.688H294.422C294.901 235.688 295.141 235.885 295.141 236.281C295.141 236.656 294.901 236.844 294.422 236.844H293.078V238.562H294.406C294.875 238.562 295.109 238.755 295.109 239.141C295.109 239.526 294.875 239.719 294.406 239.719H293.078V243.297C293.078 243.87 292.943 244.292 292.672 244.562C292.391 244.833 291.964 244.969 291.391 244.969H290.219C289.698 244.969 289.438 244.766 289.438 244.359C289.438 243.922 289.672 243.703 290.141 243.703H291.25C291.646 243.703 291.839 243.51 291.828 243.125V239.719H286.844C286.365 239.719 286.125 239.526 286.125 239.141ZM286.922 240.875C286.922 240.729 286.969 240.609 287.062 240.516C287.167 240.422 287.307 240.375 287.484 240.375C287.797 240.375 288.182 240.635 288.641 241.156C288.943 241.5 289.156 241.776 289.281 241.984C289.417 242.182 289.484 242.354 289.484 242.5C289.484 242.656 289.427 242.786 289.312 242.891C289.208 242.995 289.062 243.047 288.875 243.047C288.74 243.047 288.599 242.99 288.453 242.875C288.318 242.76 288.135 242.568 287.906 242.297L287.109 241.328C287.036 241.245 286.984 241.172 286.953 241.109C286.932 241.047 286.922 240.969 286.922 240.875ZM298.406 244.891C297.896 244.891 297.641 244.651 297.641 244.172C297.641 243.693 297.885 243.453 298.375 243.453H298.875C299.323 243.453 299.625 243.135 299.781 242.5C299.927 241.896 300 240.995 300 239.797L299.922 238.125V238.078C298.703 240.057 297.865 241.047 297.406 241.047C297.219 241.047 297.078 240.995 296.984 240.891C296.901 240.786 296.859 240.62 296.859 240.391C296.859 240.161 297.089 239.818 297.547 239.359C298.307 238.62 299.036 237.651 299.734 236.453C299.63 235.859 299.458 235.276 299.219 234.703C298.271 235.641 297.672 236.109 297.422 236.109C297.057 236.109 296.875 235.911 296.875 235.516C296.875 235.307 297.005 235.094 297.266 234.875C297.714 234.521 298.177 234.094 298.656 233.594C298.365 233.135 297.953 232.646 297.422 232.125C297.214 231.917 297.109 231.74 297.109 231.594C297.109 231.188 297.292 230.984 297.656 230.984C298.052 230.984 298.656 231.547 299.469 232.672C299.729 232.37 300.01 231.974 300.312 231.484C300.531 231.12 300.76 230.938 301 230.938C301.396 230.938 301.594 231.125 301.594 231.5C301.594 231.792 301.099 232.542 300.109 233.75C300.807 235.146 301.156 237.135 301.156 239.719C301.156 241.75 300.984 243.115 300.641 243.812C300.286 244.531 299.542 244.891 298.406 244.891ZM300.828 244.359C300.828 244.182 300.891 244.052 301.016 243.969C301.151 243.885 301.359 243.839 301.641 243.828C302.422 243.818 303.443 243.661 304.703 243.359C303.88 242.859 303.469 242.484 303.469 242.234C303.469 241.964 303.661 241.828 304.047 241.828C304.234 241.828 304.401 241.885 304.547 242C305.099 242.427 305.589 242.734 306.016 242.922C306.349 242.797 306.901 242.521 307.672 242.094C307.828 242.01 307.953 241.938 308.047 241.875C308.151 241.812 308.203 241.771 308.203 241.75C308.203 241.698 308.172 241.672 308.109 241.672H302.312C301.958 241.672 301.781 241.516 301.781 241.203C301.781 240.891 301.958 240.734 302.312 240.734H309.203C309.516 240.734 309.745 240.781 309.891 240.875C310.047 240.958 310.125 241.099 310.125 241.297C310.125 241.516 309.781 241.859 309.094 242.328C308.375 242.807 307.802 243.156 307.375 243.375C307.927 243.552 308.87 243.646 310.203 243.656C310.828 243.656 311.141 243.859 311.141 244.266C311.141 244.672 310.922 244.875 310.484 244.875C309.047 244.875 307.547 244.573 305.984 243.969C304.266 244.594 302.76 244.906 301.469 244.906C301.042 244.906 300.828 244.724 300.828 244.359ZM300.969 236.266C300.969 236.099 301.109 235.885 301.391 235.625C301.943 235.094 302.391 234.526 302.734 233.922C302.859 233.714 303.021 233.609 303.219 233.609C303.552 233.609 303.719 233.755 303.719 234.047C303.719 234.151 303.599 234.375 303.359 234.719H305.672L306.062 233.984C306.208 233.714 306.396 233.578 306.625 233.578C306.969 233.578 307.141 233.724 307.141 234.016C307.141 234.089 307.005 234.323 306.734 234.719H310.281C310.604 234.719 310.766 234.865 310.766 235.156C310.766 235.458 310.604 235.609 310.281 235.609H306.953V236.25H309.766C310.036 236.25 310.172 236.385 310.172 236.656C310.172 236.927 310.036 237.062 309.766 237.062H306.953V237.719H309.766C310.036 237.719 310.172 237.854 310.172 238.125C310.172 238.396 310.036 238.531 309.766 238.531H306.953V239.234H310.422C310.734 239.234 310.891 239.385 310.891 239.688C310.891 239.979 310.734 240.125 310.422 240.125H303.469C302.688 240.125 302.297 239.724 302.297 238.922V236.047C301.911 236.547 301.62 236.797 301.422 236.797C301.12 236.797 300.969 236.62 300.969 236.266ZM301.453 232.469C301.453 232.125 301.651 231.953 302.047 231.953H303.891V231.344C303.891 230.958 304.068 230.766 304.422 230.766C304.786 230.766 304.969 230.958 304.969 231.344V231.953H307.312V231.359C307.312 230.964 307.495 230.766 307.859 230.766C308.224 230.766 308.406 230.964 308.406 231.359V231.953H310.547C310.943 231.953 311.141 232.125 311.141 232.469C311.141 232.812 310.943 232.984 310.547 232.984H308.406V233.562C308.406 233.969 308.224 234.172 307.859 234.172C307.495 234.172 307.312 233.969 307.312 233.562V232.984H304.969V233.578C304.969 233.974 304.786 234.172 304.422 234.172C304.068 234.172 303.891 233.974 303.891 233.578V232.984H302.047C301.651 232.984 301.453 232.812 301.453 232.469ZM303.359 238.859C303.359 239.099 303.495 239.224 303.766 239.234H305.922V238.531H303.359V238.859ZM305.922 237.719V237.062H303.359V237.719H305.922ZM305.922 236.25V235.609H303.672C303.464 235.609 303.359 235.703 303.359 235.891V236.25H305.922ZM313.5 243.281C313.073 243.281 312.859 243.042 312.859 242.562C312.859 242.26 313 242.062 313.281 241.969L314.344 241.719V232.562H313.562C313.094 232.562 312.859 232.365 312.859 231.969C312.859 231.583 313.094 231.391 313.562 231.391H320.656C321.135 231.391 321.375 231.583 321.375 231.969C321.375 232.365 321.135 232.562 320.656 232.562H319.469V244.156C319.469 244.406 319.411 244.599 319.297 244.734C319.193 244.87 319.036 244.938 318.828 244.938C318.63 244.938 318.474 244.87 318.359 244.734C318.255 244.599 318.203 244.406 318.203 244.156V241.922L314.016 243.188C313.818 243.25 313.646 243.281 313.5 243.281ZM318.203 240.766V238.969H315.578V241.453L318.203 240.766ZM318.203 237.875V235.734H315.578V237.875H318.203ZM318.203 234.641V232.562H315.578V234.641H318.203ZM319.859 244C319.859 243.781 320.099 243.51 320.578 243.188C321.38 242.656 322.052 242.062 322.594 241.406C322.01 240.469 321.547 239.396 321.203 238.188C320.932 237.208 320.797 236.365 320.797 235.656C320.797 235.271 321.005 235.078 321.422 235.078C321.776 235.078 321.979 235.318 322.031 235.797C322.219 237.724 322.677 239.245 323.406 240.359C323.906 239.495 324.344 238.484 324.719 237.328C325.062 236.255 325.234 235.427 325.234 234.844C325.234 234.594 325.094 234.469 324.812 234.469H320.891C320.38 234.469 320.125 234.26 320.125 233.844C320.125 233.438 320.38 233.234 320.891 233.234H325.328C326.193 233.234 326.625 233.531 326.625 234.125C326.625 234.812 326.406 235.917 325.969 237.438C325.531 238.958 324.938 240.276 324.188 241.391C324.792 242.057 325.609 242.677 326.641 243.25C326.974 243.438 327.141 243.661 327.141 243.922C327.141 244.422 326.932 244.672 326.516 244.672C326.182 244.672 325.693 244.422 325.047 243.922C324.391 243.422 323.839 242.917 323.391 242.406C321.984 243.938 321.005 244.703 320.453 244.703C320.057 244.703 319.859 244.469 319.859 244ZM334.938 245.031C334.552 245.031 334.359 244.797 334.359 244.328V243.266L334.188 243.312C331.708 244.125 330.177 244.531 329.594 244.531C329.198 244.531 329 244.323 329 243.906C329 243.594 329.156 243.401 329.469 243.328L330.297 243.141V237.391H329.469C329.26 237.391 329.104 237.349 329 237.266C328.906 237.172 328.859 237.031 328.859 236.844C328.859 236.5 329.062 236.328 329.469 236.328H342.516C342.932 236.328 343.141 236.505 343.141 236.859C343.141 237.214 342.932 237.391 342.516 237.391H335.516V244.328C335.516 244.797 335.323 245.031 334.938 245.031ZM330.594 232.453C330.594 232.005 330.693 231.682 330.891 231.484C331.099 231.276 331.422 231.182 331.859 231.203H340.109C340.578 231.203 340.917 231.302 341.125 231.5C341.333 231.698 341.422 232.016 341.391 232.453V234.312C341.391 234.771 341.286 235.104 341.078 235.312C340.88 235.521 340.557 235.615 340.109 235.594H331.859C331.411 235.594 331.083 235.495 330.875 235.297C330.667 235.089 330.573 234.76 330.594 234.312V232.453ZM331.453 242.906C332.495 242.698 333.464 242.474 334.359 242.234V241.312H331.453V242.906ZM334.359 240.375V239.312H331.453V240.375H334.359ZM334.359 238.375V237.391H331.453V238.375H334.359ZM331.828 234.188C331.828 234.49 331.984 234.651 332.297 234.672H339.641C339.953 234.672 340.109 234.51 340.109 234.188V233.812H331.828V234.188ZM340.109 232.938V232.594C340.109 232.292 339.953 232.135 339.641 232.125H332.297C332.005 232.125 331.849 232.281 331.828 232.594V232.938H340.109ZM335.875 244.375C335.875 244.24 335.922 244.12 336.016 244.016C336.109 243.911 336.255 243.818 336.453 243.734C337.203 243.411 337.839 243.052 338.359 242.656C337.37 241.667 336.875 240.844 336.875 240.188C336.875 239.865 337.073 239.703 337.469 239.703C337.74 239.703 337.953 239.891 338.109 240.266C338.328 240.828 338.688 241.359 339.188 241.859L339.219 241.891C339.719 241.391 340.12 240.859 340.422 240.297L340.719 239.734C340.729 239.703 340.75 239.656 340.781 239.594C340.823 239.531 340.844 239.479 340.844 239.438C340.844 239.323 340.771 239.266 340.625 239.266H336.828C336.391 239.266 336.172 239.089 336.172 238.734C336.172 238.38 336.391 238.203 336.828 238.203H341.328C341.661 238.203 341.911 238.255 342.078 238.359C342.245 238.464 342.328 238.63 342.328 238.859C342.328 239.078 342.193 239.443 341.922 239.953C341.609 240.536 341.333 241.01 341.094 241.375C340.875 241.698 340.542 242.104 340.094 242.594C340.677 242.99 341.443 243.312 342.391 243.562C342.891 243.688 343.141 243.917 343.141 244.25C343.141 244.698 342.922 244.922 342.484 244.922C342.151 244.922 341.635 244.75 340.938 244.406C340.135 244.01 339.568 243.682 339.234 243.422C338.005 244.464 337.089 244.984 336.484 244.984C336.078 244.984 335.875 244.781 335.875 244.375ZM356.859 245C356.432 245 356.219 244.745 356.219 244.234V237.109H354.141L354.109 238.203C354.047 240.401 353.745 242.052 353.203 243.156C352.672 244.24 352.198 244.781 351.781 244.781C351.333 244.781 351.109 244.552 351.109 244.094C351.109 243.938 351.276 243.661 351.609 243.266C351.964 242.849 352.24 242.344 352.438 241.75C352.656 241.094 352.802 240.354 352.875 239.531C352.948 238.688 352.995 237.583 353.016 236.219L353 233.25C353 232.802 353.089 232.464 353.266 232.234C353.443 232.016 353.854 231.849 354.5 231.734C355.208 231.609 355.766 231.495 356.172 231.391C356.474 231.318 356.646 231.276 356.688 231.266C356.615 231.276 356.839 231.219 357.359 231.094C357.641 231.01 357.807 230.969 357.859 230.969C358.328 230.969 358.562 231.219 358.562 231.719C358.562 231.979 358.37 232.156 357.984 232.25C356.661 232.573 355.62 232.792 354.859 232.906C354.401 232.969 354.172 233.328 354.172 233.984V235.875H358.547C358.932 235.875 359.125 236.083 359.125 236.5C359.125 236.906 358.932 237.109 358.547 237.109H357.5V244.234C357.5 244.745 357.286 245 356.859 245ZM344.859 243.141C344.859 243.026 344.911 242.906 345.016 242.781C345.13 242.646 345.307 242.484 345.547 242.297C346.693 241.391 347.495 240.49 347.953 239.594H345.766C345.297 239.594 345.062 239.401 345.062 239.016C345.062 238.641 345.297 238.453 345.766 238.453H348.125V236.984H345.562C345.323 236.984 345.146 236.943 345.031 236.859C344.927 236.766 344.875 236.62 344.875 236.422C344.875 236.036 345.104 235.844 345.562 235.844H346.562C346.51 235.292 346.385 234.578 346.188 233.703L346.172 233.578H345.625C345.25 233.578 345.062 233.385 345.062 233C345.062 232.625 345.25 232.438 345.625 232.438H348.078V231.547C348.078 231.016 348.297 230.75 348.734 230.75C349.172 230.75 349.391 231.016 349.391 231.547V232.438H351.828C352.193 232.438 352.375 232.625 352.375 233C352.375 233.385 352.193 233.578 351.828 233.578H351.125L350.688 235.844H351.891C352.349 235.844 352.578 236.036 352.578 236.422C352.578 236.62 352.521 236.766 352.406 236.859C352.302 236.943 352.13 236.984 351.891 236.984H349.344V238.453H351.688C352.156 238.453 352.391 238.646 352.391 239.031C352.391 239.406 352.156 239.594 351.688 239.594H349.344V240.734C349.458 240.526 349.641 240.422 349.891 240.422C350.068 240.422 350.417 240.62 350.938 241.016C351.458 241.411 351.719 241.714 351.719 241.922C351.719 242.307 351.531 242.5 351.156 242.5C351 242.5 350.797 242.391 350.547 242.172L349.344 241.125V244.297C349.344 244.786 349.141 245.031 348.734 245.031C348.328 245.031 348.125 244.786 348.125 244.297V240.891C347.74 241.62 347.24 242.292 346.625 242.906C346.021 243.51 345.62 243.812 345.422 243.812C345.047 243.812 344.859 243.589 344.859 243.141ZM347.266 233.578C347.391 234.099 347.521 234.844 347.656 235.812V235.844H349.594L350 233.656V233.578H347.266ZM363.938 243.016C362.896 243.089 362.411 242.604 362.484 241.562V238.188C362.411 237.135 362.896 236.651 363.938 236.734H372.062C373.115 236.651 373.599 237.135 373.516 238.188V241.562C373.599 242.604 373.115 243.089 372.062 243.016H363.938ZM360.969 236.484C360.969 236.286 361.24 235.979 361.781 235.562C362.458 235.042 362.943 234.651 363.234 234.391C363.432 234.203 363.625 234.109 363.812 234.109C364.219 234.109 364.422 234.297 364.422 234.672C364.422 234.901 364.005 235.37 363.172 236.078C362.349 236.797 361.812 237.156 361.562 237.156C361.167 237.156 360.969 236.932 360.969 236.484ZM360.984 244.391C360.984 244.182 361.042 244.047 361.156 243.984C361.229 243.953 361.422 243.922 361.734 243.891C362.047 243.859 362.25 243.839 362.344 243.828C362.99 243.766 363.766 243.63 364.672 243.422L366.047 243.141C366.443 243.141 366.641 243.333 366.641 243.719C366.641 243.99 366.401 244.182 365.922 244.297C364.016 244.776 362.542 245.016 361.5 245.016C361.156 245.016 360.984 244.807 360.984 244.391ZM361.875 231.516C361.875 231.13 362.078 230.938 362.484 230.938C362.609 230.938 362.99 231.109 363.625 231.453C364.271 231.786 364.594 232.078 364.594 232.328C364.594 232.557 364.542 232.724 364.438 232.828C364.333 232.932 364.172 232.984 363.953 232.984C363.828 232.984 363.49 232.802 362.938 232.438L362.312 232.062C362.021 231.896 361.875 231.714 361.875 231.516ZM363.734 241.562C363.734 241.917 363.911 242.094 364.266 242.094H371.734C372.078 242.094 372.25 241.917 372.25 241.562V241.188H363.734V241.562ZM372.25 240.312V239.406H363.734V240.312H372.25ZM372.25 238.531V238.188C372.25 237.833 372.078 237.656 371.734 237.656H364.266C363.911 237.656 363.734 237.833 363.734 238.188V238.531H372.25ZM364.406 236.062C364.406 235.75 364.573 235.573 364.906 235.531C366.052 235.354 366.948 235.052 367.594 234.625C368.25 234.188 368.635 233.625 368.75 232.938H366.734L366.578 233.109C366.016 233.734 365.599 234.047 365.328 234.047C364.964 234.047 364.781 233.859 364.781 233.484C364.781 233.328 364.901 233.146 365.141 232.938C365.203 232.885 365.307 232.797 365.453 232.672C365.599 232.547 365.729 232.422 365.844 232.297C366.229 231.849 366.5 231.531 366.656 231.344C366.969 230.969 367.224 230.781 367.422 230.781C367.839 230.781 368.047 230.927 368.047 231.219C368.047 231.375 367.896 231.625 367.594 231.969H373.406C374.115 231.969 374.469 232.203 374.469 232.672C374.469 232.87 374.141 233.286 373.484 233.922C373.193 234.214 372.932 234.443 372.703 234.609C372.484 234.766 372.328 234.844 372.234 234.844C372.047 234.844 371.906 234.802 371.812 234.719C371.729 234.635 371.688 234.5 371.688 234.312C371.688 234.167 371.797 234.01 372.016 233.844C372.516 233.438 372.766 233.182 372.766 233.078C372.766 233.036 372.75 233.005 372.719 232.984C372.688 232.953 372.651 232.938 372.609 232.938H369.891L369.781 233.406C370.677 234.635 372.229 235.401 374.438 235.703C374.812 235.745 375 235.932 375 236.266C375 236.682 374.797 236.891 374.391 236.891L374.047 236.844C371.724 236.438 370.151 235.635 369.328 234.438H369.297C368.88 235.073 368.219 235.589 367.312 235.984C366.406 236.391 365.615 236.594 364.938 236.594C364.75 236.594 364.615 236.552 364.531 236.469C364.448 236.375 364.406 236.24 364.406 236.062ZM369.422 243.734C369.422 243.359 369.63 243.172 370.047 243.172L370.344 243.234C371.312 243.505 372.578 243.719 374.141 243.875C374.453 243.906 374.682 243.964 374.828 244.047C374.974 244.13 375.047 244.255 375.047 244.422C375.047 244.818 374.854 245.016 374.469 245.016C373.354 245.016 372.052 244.818 370.562 244.422C370.198 244.328 369.917 244.219 369.719 244.094C369.521 243.979 369.422 243.859 369.422 243.734ZM385.016 245.047C384.505 245.047 384.25 244.839 384.25 244.422C384.25 243.995 384.458 243.781 384.875 243.781H385.422C385.589 243.781 385.714 243.734 385.797 243.641C385.88 243.547 385.922 243.417 385.922 243.25V240.094H384.312C383.854 240.094 383.521 239.99 383.312 239.781C383.104 239.573 383.01 239.25 383.031 238.812V235.438C383.031 234.979 383.135 234.646 383.344 234.438C383.552 234.229 383.875 234.135 384.312 234.156H385.594L385.984 232.719H382.781C382.448 232.719 382.255 232.854 382.203 233.125L382.156 234.594L382.109 236.625C382.089 238.042 382.052 239.031 382 239.594C381.885 240.781 381.641 241.891 381.266 242.922C380.911 243.901 380.5 244.391 380.031 244.391C379.594 244.391 379.375 244.156 379.375 243.688C379.375 243.521 379.458 243.318 379.625 243.078C380.375 241.995 380.797 240.276 380.891 237.922L380.922 233.125C380.922 232.042 381.427 231.5 382.438 231.5H390.406C390.896 231.5 391.141 231.703 391.141 232.109C391.141 232.516 390.896 232.719 390.406 232.719H387.281L386.812 234.156H389.078C389.536 234.156 389.87 234.26 390.078 234.469C390.286 234.677 390.38 235 390.359 235.438V238.812C390.359 239.26 390.255 239.594 390.047 239.812C389.839 240.021 389.516 240.115 389.078 240.094H387.125V243.531C387.125 244.031 387.016 244.406 386.797 244.656C386.589 244.906 386.25 245.036 385.781 245.047H385.016ZM377.078 235.828C377.078 235.391 377.302 235.172 377.75 235.172C377.958 235.172 378.333 235.281 378.875 235.5C379.406 235.708 379.672 235.979 379.672 236.312C379.672 236.771 379.479 237 379.094 237C378.948 237 378.573 236.87 377.969 236.609C377.375 236.339 377.078 236.078 377.078 235.828ZM377.109 244.109C377.109 243.943 377.208 243.63 377.406 243.172C377.51 242.953 377.729 242.328 378.062 241.297L378.375 240.328L378.562 239.766C378.615 239.589 378.667 239.438 378.719 239.312C378.771 239.177 378.812 239.094 378.844 239.062C378.938 238.969 379.062 238.922 379.219 238.922C379.635 238.922 379.844 239.13 379.844 239.547C379.844 239.891 379.5 241.12 378.812 243.234C378.49 244.266 378.151 244.781 377.797 244.781C377.339 244.781 377.109 244.557 377.109 244.109ZM377.75 231.797C377.75 231.359 377.974 231.141 378.422 231.141C378.682 231.141 379.068 231.276 379.578 231.547C380.068 231.818 380.312 232.089 380.312 232.359C380.312 232.818 380.099 233.047 379.672 233.047C379.568 233.047 379.12 232.854 378.328 232.469C377.943 232.271 377.75 232.047 377.75 231.797ZM381.734 243.656C381.734 243.51 381.943 243.203 382.359 242.734C382.745 242.297 383.094 241.771 383.406 241.156C383.583 240.802 383.792 240.625 384.031 240.625C384.417 240.625 384.609 240.807 384.609 241.172C384.609 241.505 384.302 242.104 383.688 242.969C383.062 243.854 382.609 244.297 382.328 244.297C381.932 244.297 381.734 244.083 381.734 243.656ZM384.188 238.594C384.188 238.885 384.344 239.042 384.656 239.062H388.672C388.964 239.062 389.12 238.906 389.141 238.594V237.578H384.188V238.594ZM389.141 236.578V235.656C389.141 235.354 388.984 235.198 388.672 235.188H384.656C384.365 235.188 384.208 235.344 384.188 235.656V236.578H389.141ZM388.125 241.188C388.125 240.833 388.333 240.656 388.75 240.656C389.021 240.656 389.245 240.823 389.422 241.156C389.745 241.729 390.141 242.229 390.609 242.656C390.786 242.812 390.917 242.969 391 243.125C391.094 243.271 391.141 243.396 391.141 243.5C391.141 243.948 390.927 244.172 390.5 244.172C390.198 244.172 389.729 243.745 389.094 242.891C388.448 242.005 388.125 241.438 388.125 241.188ZM400 241.078C399.594 241.078 399.385 240.859 399.375 240.422L399.047 232.422C399.047 231.807 399.365 231.5 400 231.5C400.625 231.5 400.938 231.812 400.938 232.438V232.734L400.594 240.422C400.583 240.859 400.385 241.078 400 241.078ZM398.953 243.234C398.953 242.964 399.057 242.714 399.266 242.484C399.474 242.286 399.729 242.188 400.031 242.188C400.292 242.188 400.531 242.286 400.75 242.484C400.948 242.693 401.047 242.943 401.047 243.234C401.047 243.557 400.943 243.807 400.734 243.984C400.526 244.193 400.281 244.297 400 244.297C399.708 244.297 399.458 244.188 399.25 243.969C399.052 243.75 398.953 243.505 398.953 243.234Z" fill="black" fill-opacity="0.8"/>
<rect x="61.7616" y="273.668" width="15.5114" height="3.86581" rx="1.9329" fill="#FFC107"/>
<rect x="61.7616" y="280.626" width="15.5114" height="3.86581" rx="1.9329" fill="#FFC107"/>
<rect x="57.625" y="258.74" width="7.38636" height="30.1533" rx="3" fill="#F44336"/>
<rect x="73.375" y="258.74" width="7.875" height="30.3912" rx="3" fill="#F44336"/>
<rect x="57.625" y="247.452" width="23.625" height="22.5763" rx="3" fill="#1E88E5"/>
<rect x="129.716" y="273.668" width="15.5114" height="3.86581" rx="1.9329" fill="#1E88E5"/>
<rect x="129.716" y="280.626" width="15.5114" height="3.86581" rx="1.9329" fill="#1E88E5"/>
<rect x="125" y="260.477" width="7" height="29.5229" rx="3" fill="#1E88E5"/>
<rect x="141.625" y="260.477" width="7" height="29.5229" rx="3" fill="#1E88E5"/>
<rect x="125" y="247.452" width="23.625" height="22.5763" rx="3" fill="#F44336"/>
<rect x="91.3065" y="262.071" width="25.1136" height="6.95846" rx="3" fill="#F44336"/>
<rect x="91.3065" y="274.441" width="25.1136" height="6.1853" rx="3" fill="#F44336"/>
<rect x="83" y="237.901" width="12.5568" height="51.8019" rx="3" fill="#4CAF50"/>
<rect x="111" y="237.901" width="12.25" height="52.0992" rx="3" fill="#FFC107"/>
<path d="M114.88 176.25C116.567 176.25 117.496 178.211 116.427 179.517L115.708 180.395C115.105 181.132 115.105 182.192 115.708 182.929L116.427 183.807C117.496 185.113 116.567 187.074 114.88 187.074H104.852C103.748 187.074 102.852 186.179 102.852 185.074V178.25C102.852 177.145 103.748 176.25 104.852 176.25L114.88 176.25Z" fill="#FAA19B"/>
<line x1="103.375" y1="177.796" x2="103.375" y2="197.898" stroke="#F44336" stroke-width="4"/>
<path d="M112.785 176.25C114.451 176.25 115.387 178.169 114.36 179.482L113.619 180.43C113.053 181.154 113.053 182.17 113.619 182.894L114.36 183.843C115.387 185.156 114.451 187.074 112.785 187.074H103.375C102.27 187.074 101.375 186.179 101.375 185.074V178.25C101.375 177.145 102.27 176.25 103.375 176.25L112.785 176.25Z" fill="#F44336"/>
<rect x="83" y="218.798" width="40.25" height="38.2061" rx="3" fill="#1E88E5"/>
<path d="M92.7839 230.278C92.7839 228.621 94.1271 227.278 95.7839 227.278H110.466C112.123 227.278 113.466 228.621 113.466 230.278V245.927C113.466 247.584 112.123 248.927 110.466 248.927H95.7839C94.1271 248.927 92.7839 247.584 92.7839 245.927V230.278Z" fill="white"/>
<path d="M144.584 222.639C145.724 222.639 146.265 224.043 145.421 224.809V224.809C144.876 225.304 144.876 226.161 145.421 226.655V226.655C146.265 227.421 145.724 228.825 144.584 228.825H138.733C137.629 228.825 136.733 227.929 136.733 226.825V224.639C136.733 223.535 137.629 222.639 138.733 222.639L144.584 222.639Z" fill="#FFE083"/>
<line x1="137.494" y1="225.732" x2="137.494" y2="235.784" stroke="#FFC107" stroke-width="3"/>
<path d="M142.752 222.639C144.089 222.639 144.767 224.248 143.833 225.205V225.205C143.547 225.498 143.547 225.966 143.833 226.259V226.259C144.767 227.216 144.089 228.825 142.752 228.825H137.994C136.89 228.825 135.994 227.929 135.994 226.825V224.639C135.994 223.535 136.89 222.639 137.994 222.639L142.752 222.639Z" fill="#FFC107"/>
<path d="M135.295 234.371C136.419 233.405 138.081 233.405 139.205 234.371L150.814 244.348C152.925 246.162 151.642 249.623 148.859 249.623H125.641C122.858 249.623 121.575 246.162 123.686 244.348L135.295 234.371Z" fill="#4CAF50"/>
<path d="M131.193 255.793C131.193 254.136 132.536 252.793 134.193 252.793H140.011C141.668 252.793 143.011 254.136 143.011 255.793V262.163C143.011 263.82 141.668 265.163 140.011 265.163H134.193C132.536 265.163 131.193 263.82 131.193 262.163V255.793Z" fill="white"/>
<path d="M61.6662 223.413C60.5264 223.413 59.9846 224.817 60.8288 225.583V225.583C61.3741 226.077 61.3741 226.934 60.8288 227.429V227.429C59.9846 228.195 60.5264 229.598 61.6662 229.598H67.5168C68.6214 229.598 69.5168 228.703 69.5168 227.598V225.413C69.5168 224.309 68.6214 223.413 67.5168 223.413L61.6662 223.413Z" fill="#8FC4F2"/>
<line y1="-1.5" x2="10.0511" y2="-1.5" transform="matrix(0 1 1 0 70.2556 226.506)" stroke="#1E88E5" stroke-width="3"/>
<path d="M63.498 223.413C62.1613 223.413 61.4832 225.021 62.4165 225.978V225.978C62.7026 226.272 62.7026 226.74 62.4165 227.033V227.033C61.4832 227.99 62.1613 229.598 63.498 229.598H68.2556C69.3602 229.598 70.2556 228.703 70.2556 227.598V225.413C70.2556 224.309 69.3602 223.413 68.2556 223.413L63.498 223.413Z" fill="#1E88E5"/>
<path d="M67.1693 233.653C68.3013 232.66 69.9941 232.66 71.1261 233.653L82.9873 244.058C85.0682 245.884 83.7771 249.314 81.0089 249.314H57.2866C54.5184 249.314 53.2272 245.884 55.3082 244.058L67.1693 233.653Z" fill="#FFC107"/>
<path d="M63.2385 255.793C63.2385 254.136 64.5817 252.793 66.2385 252.793H72.0567C73.7136 252.793 75.0567 254.136 75.0567 255.793V262.163C75.0567 263.82 73.7136 265.163 72.0567 265.163H66.2385C64.5817 265.163 63.2385 263.82 63.2385 262.163V255.793Z" fill="white"/>
<path d="M101.198 194.102C102.313 193.167 103.937 193.167 105.052 194.102L130.705 215.601C132.852 217.401 131.58 220.9 128.778 220.9H77.4721C74.6704 220.9 73.3978 217.401 75.5451 215.601L101.198 194.102Z" fill="#F44336"/>
<path d="M70.625 41.25L70.6321 78.0887L84.7365 44.0569L70.6455 78.0944L96.6995 52.0505L70.6556 78.1045L104.693 64.0135L70.6613 78.1179L107.5 78.125L70.6613 78.1321L104.693 92.2365L70.6556 78.1455L96.6995 104.199L70.6455 78.1556L84.7365 112.193L70.6321 78.1613L70.625 115L70.6179 78.1613L56.5135 112.193L70.6045 78.1556L44.5505 104.199L70.5944 78.1455L36.5569 92.2365L70.5887 78.1321L33.75 78.125L70.5887 78.1179L36.5569 64.0135L70.5944 78.1045L44.5505 52.0505L70.6045 78.0944L56.5135 44.0569L70.6179 78.0887L70.625 41.25Z" fill="#FAA19B" stroke="#F44336"/>
<path d="M135.625 88.75L135.63 116.847L146.388 90.8909L135.641 116.852L155.512 96.9876L135.648 116.859L161.609 106.112L135.653 116.87L163.75 116.875L135.653 116.88L161.609 127.638L135.648 116.891L155.512 136.762L135.641 116.898L146.388 142.859L135.63 116.903L135.625 145L135.62 116.903L124.862 142.859L135.609 116.898L115.738 136.762L135.602 116.891L109.641 127.638L135.597 116.88L107.5 116.875L135.597 116.87L109.641 106.112L135.602 116.859L115.738 96.9876L135.609 116.852L124.862 90.8909L135.62 116.847L135.625 88.75Z" fill="#FAA19B" stroke="#FFC107"/>
<path d="M78.125 133.75L78.1285 151.857L85.0612 135.13L78.1351 151.86L90.9413 139.059L78.1401 151.865L94.8703 144.939L78.1428 151.871L96.25 151.875L78.1428 151.879L94.8703 158.811L78.1401 151.885L90.9413 164.691L78.1351 151.89L85.0612 168.62L78.1285 151.893L78.125 170L78.1215 151.893L71.1888 168.62L78.1149 151.89L65.3087 164.691L78.1099 151.885L61.3797 158.811L78.1072 151.879L60 151.875L78.1072 151.871L61.3797 144.939L78.1099 151.865L65.3087 139.059L78.1149 151.86L71.1888 135.13L78.1215 151.857L78.125 133.75Z" fill="#FAA19B" stroke="#4CAF50"/>
</svg>
