<svg width="500" height="300" viewBox="0 0 500 300" fill="none" xmlns="http://www.w3.org/2000/svg">
<rect x="5" y="5" width="490" height="290" rx="25" fill="white" stroke="#4CAF50" stroke-width="10"/>
<rect x="61.7616" y="273.668" width="15.5114" height="3.86581" rx="1.9329" fill="#FFC107"/>
<rect x="61.7616" y="280.626" width="15.5114" height="3.86581" rx="1.9329" fill="#FFC107"/>
<rect x="57.625" y="258.74" width="7.38636" height="30.1533" rx="3" fill="#F44336"/>
<rect x="73.375" y="258.74" width="7.875" height="30.3912" rx="3" fill="#F44336"/>
<rect x="57.625" y="247.452" width="23.625" height="22.5763" rx="3" fill="#1E88E5"/>
<rect x="129.716" y="273.668" width="15.5114" height="3.86581" rx="1.9329" fill="#1E88E5"/>
<rect x="129.716" y="280.626" width="15.5114" height="3.86581" rx="1.9329" fill="#1E88E5"/>
<rect x="125" y="260.477" width="7" height="29.5229" rx="3" fill="#1E88E5"/>
<rect x="141.625" y="260.477" width="7" height="29.5229" rx="3" fill="#1E88E5"/>
<rect x="125" y="247.452" width="23.625" height="22.5763" rx="3" fill="#F44336"/>
<rect x="91.3065" y="262.071" width="25.1136" height="6.95846" rx="3" fill="#F44336"/>
<rect x="91.3065" y="274.441" width="25.1136" height="6.1853" rx="3" fill="#F44336"/>
<rect x="83" y="237.901" width="12.5568" height="51.8019" rx="3" fill="#4CAF50"/>
<rect x="111" y="237.901" width="12.25" height="52.0992" rx="3" fill="#FFC107"/>
<path d="M114.88 176.25C116.567 176.25 117.496 178.211 116.427 179.517L115.708 180.395C115.105 181.132 115.105 182.192 115.708 182.929L116.427 183.807C117.496 185.113 116.567 187.074 114.88 187.074H104.852C103.748 187.074 102.852 186.179 102.852 185.074V178.25C102.852 177.145 103.748 176.25 104.852 176.25L114.88 176.25Z" fill="#FAA19B"/>
<line x1="103.375" y1="177.796" x2="103.375" y2="197.898" stroke="#F44336" stroke-width="4"/>
<path d="M112.785 176.25C114.451 176.25 115.387 178.169 114.36 179.482L113.619 180.43C113.053 181.154 113.053 182.17 113.619 182.894L114.36 183.843C115.387 185.156 114.451 187.074 112.785 187.074H103.375C102.27 187.074 101.375 186.179 101.375 185.074V178.25C101.375 177.145 102.27 176.25 103.375 176.25L112.785 176.25Z" fill="#F44336"/>
<rect x="83" y="218.798" width="40.25" height="38.2061" rx="3" fill="#1E88E5"/>
<path d="M92.7839 230.278C92.7839 228.621 94.1271 227.278 95.7839 227.278H110.466C112.123 227.278 113.466 228.621 113.466 230.278V245.927C113.466 247.584 112.123 248.927 110.466 248.927H95.7839C94.1271 248.927 92.7839 247.584 92.7839 245.927V230.278Z" fill="white"/>
<path d="M144.584 222.639C145.724 222.639 146.265 224.043 145.421 224.809C144.876 225.304 144.876 226.161 145.421 226.655C146.265 227.421 145.724 228.825 144.584 228.825H138.733C137.629 228.825 136.733 227.929 136.733 226.825V224.639C136.733 223.535 137.629 222.639 138.733 222.639L144.584 222.639Z" fill="#FFE083"/>
<line x1="137.494" y1="225.732" x2="137.494" y2="235.784" stroke="#FFC107" stroke-width="3"/>
<path d="M142.752 222.639C144.089 222.639 144.767 224.248 143.833 225.205C143.547 225.498 143.547 225.966 143.833 226.259C144.767 227.216 144.089 228.825 142.752 228.825H137.994C136.89 228.825 135.994 227.929 135.994 226.825V224.639C135.994 223.535 136.89 222.639 137.994 222.639L142.752 222.639Z" fill="#FFC107"/>
<path d="M135.295 234.371C136.419 233.405 138.081 233.405 139.205 234.371L150.814 244.348C152.925 246.162 151.642 249.623 148.859 249.623H125.641C122.858 249.623 121.575 246.162 123.686 244.348L135.295 234.371Z" fill="#4CAF50"/>
<path d="M131.193 255.793C131.193 254.136 132.536 252.793 134.193 252.793H140.011C141.668 252.793 143.011 254.136 143.011 255.793V262.163C143.011 263.82 141.668 265.163 140.011 265.163H134.193C132.536 265.163 131.193 263.82 131.193 262.163V255.793Z" fill="white"/>
<path d="M61.6662 223.413C60.5264 223.413 59.9846 224.817 60.8288 225.583C61.3741 226.077 61.3741 226.934 60.8288 227.429C59.9846 228.195 60.5264 229.598 61.6662 229.598H67.5168C68.6214 229.598 69.5168 228.703 69.5168 227.598V225.413C69.5168 224.309 68.6214 223.413 67.5168 223.413L61.6662 223.413Z" fill="#8FC4F2"/>
<line y1="-1.5" x2="10.0511" y2="-1.5" transform="matrix(0 1 1 0 70.2556 226.506)" stroke="#1E88E5" stroke-width="3"/>
<path d="M63.498 223.413C62.1613 223.413 61.4832 225.021 62.4165 225.978C62.7026 226.272 62.7026 226.74 62.4165 227.033C61.4832 227.99 62.1613 229.598 63.498 229.598H68.2556C69.3602 229.598 70.2556 228.703 70.2556 227.598V225.413C70.2556 224.309 69.3602 223.413 68.2556 223.413L63.498 223.413Z" fill="#1E88E5"/>
<path d="M67.1693 233.653C68.3013 232.66 69.9941 232.66 71.1261 233.653L82.9873 244.058C85.0682 245.884 83.7771 249.314 81.0089 249.314H57.2866C54.5184 249.314 53.2272 245.884 55.3082 244.058L67.1693 233.653Z" fill="#FFC107"/>
<path d="M63.2385 255.793C63.2385 254.136 64.5817 252.793 66.2385 252.793H72.0567C73.7136 252.793 75.0567 254.136 75.0567 255.793V262.163C75.0567 263.82 73.7136 265.163 72.0567 265.163H66.2385C64.5817 265.163 63.2385 263.82 63.2385 262.163V255.793Z" fill="white"/>
<path d="M101.198 194.102C102.313 193.167 103.937 193.167 105.052 194.102L130.705 215.601C132.852 217.401 131.58 220.9 128.778 220.9H77.4721C74.6704 220.9 73.3978 217.401 75.5451 215.601L101.198 194.102Z" fill="#F44336"/>
<path d="M70.625 41.25L70.6321 78.0887L84.7365 44.0569L70.6455 78.0944L96.6995 52.0505L70.6556 78.1045L104.693 64.0135L70.6613 78.1179L107.5 78.125L70.6613 78.1321L104.693 92.2365L70.6556 78.1455L96.6995 104.199L70.6455 78.1556L84.7365 112.193L70.6321 78.1613L70.625 115L70.6179 78.1613L56.5135 112.193L70.6045 78.1556L44.5505 104.199L70.5944 78.1455L36.5569 92.2365L70.5887 78.1321L33.75 78.125L70.5887 78.1179L36.5569 64.0135L70.5944 78.1045L44.5505 52.0505L70.6045 78.0944L56.5135 44.0569L70.6179 78.0887L70.625 41.25Z" fill="#FAA19B" stroke="#F44336"/>
<path d="M135.625 88.75L135.63 116.847L146.388 90.8909L135.641 116.852L155.512 96.9876L135.648 116.859L161.609 106.112L135.653 116.87L163.75 116.875L135.653 116.88L161.609 127.638L135.648 116.891L155.512 136.762L135.641 116.898L146.388 142.859L135.63 116.903L135.625 145L135.62 116.903L124.862 142.859L135.609 116.898L115.738 136.762L135.602 116.891L109.641 127.638L135.597 116.88L107.5 116.875L135.597 116.87L109.641 106.112L135.602 116.859L115.738 96.9876L135.609 116.852L124.862 90.8909L135.62 116.847L135.625 88.75Z" fill="#FAA19B" stroke="#FFC107"/>
<path d="M78.125 133.75L78.1285 151.857L85.0612 135.13L78.1351 151.86L90.9413 139.059L78.1401 151.865L94.8703 144.939L78.1428 151.871L96.25 151.875L78.1428 151.879L94.8703 158.811L78.1401 151.885L90.9413 164.691L78.1351 151.89L85.0612 168.62L78.1285 151.893L78.125 170L78.1215 151.893L71.1888 168.62L78.1149 151.89L65.3087 164.691L78.1099 151.885L61.3797 158.811L78.1072 151.879L60 151.875L78.1072 151.871L61.3797 144.939L78.1099 151.865L65.3087 139.059L78.1149 151.86L71.1888 135.13L78.1215 151.857L78.125 133.75Z" fill="#FAA19B" stroke="#4CAF50"/>
<rect x="302.5" y="215" width="150" height="50" rx="25" fill="#4CAF50"/>
<path d="M349.883 248.441C349.297 248.441 348.874 248.318 348.613 248.07C348.353 247.823 348.236 247.419 348.262 246.859V241.742C348.262 241.156 348.385 240.74 348.633 240.492C348.893 240.232 349.31 240.121 349.883 240.16H350.84V232.172C350.84 231.612 351.094 231.332 351.602 231.332C352.109 231.332 352.363 231.612 352.363 232.172V234.965H355.43C356.081 234.965 356.406 235.232 356.406 235.766C356.406 236.273 356.081 236.527 355.43 236.527H352.363V240.16H354.141C354.727 240.16 355.15 240.29 355.41 240.551C355.671 240.798 355.788 241.202 355.762 241.762V246.84C355.762 247.426 355.632 247.849 355.371 248.109C355.111 248.37 354.701 248.48 354.141 248.441H349.883ZM338.496 243.852C338.496 243.318 338.893 243.051 339.688 243.051C340.664 243.051 341.686 243.018 342.754 242.953V241.586H339.902C339.329 241.586 339.043 241.345 339.043 240.863C339.043 240.395 339.329 240.16 339.902 240.16H342.754V238.93H340.703C340.221 238.93 339.857 238.806 339.609 238.559C339.362 238.298 339.238 237.927 339.238 237.445V233.48C339.238 232.986 339.362 232.615 339.609 232.367C339.857 232.107 340.221 231.977 340.703 231.977H346.289C346.771 231.977 347.135 232.107 347.383 232.367C347.63 232.615 347.754 232.986 347.754 233.48V237.445C347.754 237.927 347.63 238.298 347.383 238.559C347.135 238.806 346.771 238.93 346.289 238.93H344.062V240.16H346.719C347.292 240.16 347.578 240.395 347.578 240.863C347.578 241.345 347.292 241.586 346.719 241.586H344.062V242.875L347.031 242.719C347.279 242.706 347.467 242.764 347.598 242.895C347.728 243.025 347.793 243.207 347.793 243.441C347.793 243.897 347.415 244.145 346.66 244.184L339.395 244.633C339.108 244.646 338.887 244.587 338.73 244.457C338.574 244.314 338.496 244.112 338.496 243.852ZM339.277 246.039C339.355 245.779 339.447 245.583 339.551 245.453C339.655 245.323 339.805 245.258 340 245.258C340.221 245.258 340.391 245.323 340.508 245.453C340.638 245.57 340.69 245.733 340.664 245.941C340.573 246.579 340.449 247.133 340.293 247.602C340.163 248.005 340.026 248.298 339.883 248.48C339.753 248.663 339.59 248.754 339.395 248.754C338.926 248.754 338.691 248.52 338.691 248.051L339.277 246.039ZM340.566 237.055C340.566 237.211 340.599 237.328 340.664 237.406C340.742 237.471 340.859 237.51 341.016 237.523H342.754V233.402H341.016C340.859 233.402 340.749 233.441 340.684 233.52C340.618 233.598 340.579 233.715 340.566 233.871V237.055ZM340.879 234.555C340.853 234.398 340.892 234.275 340.996 234.184C341.113 234.092 341.263 234.047 341.445 234.047C341.602 234.047 341.738 234.151 341.855 234.359C341.973 234.568 342.09 234.893 342.207 235.336L342.363 235.98L342.402 236.273C342.415 236.443 342.37 236.579 342.266 236.684C342.161 236.788 342.012 236.84 341.816 236.84C341.647 236.84 341.504 236.729 341.387 236.508C341.27 236.286 341.159 235.941 341.055 235.473L340.879 234.555ZM341.484 245.961C341.471 245.909 341.465 245.844 341.465 245.766C341.465 245.57 341.523 245.427 341.641 245.336C341.758 245.232 341.908 245.18 342.09 245.18C342.298 245.18 342.474 245.336 342.617 245.648C342.76 245.948 342.904 246.449 343.047 247.152L343.203 248.031C343.242 248.253 343.19 248.428 343.047 248.559C342.917 248.689 342.734 248.754 342.5 248.754C342.083 248.754 341.842 248.454 341.777 247.855C341.738 247.491 341.641 246.859 341.484 245.961ZM343.691 245.531C343.652 245.349 343.698 245.206 343.828 245.102C343.958 244.997 344.128 244.945 344.336 244.945C344.531 244.945 344.714 245.076 344.883 245.336C345.052 245.596 345.228 246.007 345.41 246.566L345.664 247.426L345.723 247.816C345.749 248.025 345.697 248.181 345.566 248.285C345.449 248.389 345.273 248.441 345.039 248.441C344.727 248.441 344.525 248.318 344.434 248.07C344.303 247.719 344.154 247.263 343.984 246.703L343.77 245.902L343.691 245.531ZM345.977 237.523C346.133 237.523 346.243 237.484 346.309 237.406C346.374 237.328 346.413 237.211 346.426 237.055V233.871C346.426 233.715 346.387 233.604 346.309 233.539C346.243 233.461 346.133 233.415 345.977 233.402H344.062V237.523H345.977ZM344.824 234.711C344.928 234.268 345.13 234.047 345.43 234.047C345.612 234.047 345.755 234.099 345.859 234.203C345.964 234.294 346.016 234.431 346.016 234.613L345.957 234.926L345.762 235.648C345.54 236.469 345.293 236.879 345.02 236.879C344.629 236.879 344.434 236.69 344.434 236.312L344.824 234.711ZM345.957 245.316C345.957 245.134 346.009 244.997 346.113 244.906C346.23 244.802 346.387 244.75 346.582 244.75C346.895 244.75 347.227 245.18 347.578 246.039C347.904 246.82 348.066 247.302 348.066 247.484C348.066 247.693 348.008 247.849 347.891 247.953C347.773 248.057 347.604 248.109 347.383 248.109C347.214 248.109 347.057 248.012 346.914 247.816C346.771 247.634 346.628 247.341 346.484 246.938L346.094 245.824C346.003 245.59 345.957 245.421 345.957 245.316ZM349.766 246.371C349.766 246.579 349.824 246.742 349.941 246.859C350.059 246.964 350.215 247.016 350.41 247.016H353.613C353.822 247.016 353.978 246.957 354.082 246.84C354.199 246.723 354.258 246.566 354.258 246.371V242.23C354.258 242.022 354.199 241.866 354.082 241.762C353.965 241.645 353.809 241.586 353.613 241.586H350.41C350.202 241.586 350.039 241.645 349.922 241.762C349.818 241.879 349.766 242.035 349.766 242.23V246.371ZM361.367 249.008C360.742 249.008 360.43 248.734 360.43 248.188C360.43 247.628 360.742 247.348 361.367 247.348H362.285C362.754 247.348 363.001 247.1 363.027 246.605V243.148C362.077 243.409 360.898 243.676 359.492 243.949C359.44 243.962 359.368 243.969 359.277 243.969C359.056 243.969 358.887 243.897 358.77 243.754C358.652 243.598 358.594 243.396 358.594 243.148C358.594 242.914 358.672 242.725 358.828 242.582C358.984 242.439 359.238 242.335 359.59 242.27C360.996 242.009 362.142 241.788 363.027 241.605V238.266H359.59C358.965 238.266 358.652 238.005 358.652 237.484C358.652 236.977 358.965 236.723 359.59 236.723H363.027V234.008C362.819 234.034 362.454 234.086 361.934 234.164C361.165 234.268 360.553 234.34 360.098 234.379C359.538 234.418 359.258 234.158 359.258 233.598C359.258 233.324 359.362 233.129 359.57 233.012C359.727 232.908 360.143 232.829 360.82 232.777C362.995 232.621 364.681 232.315 365.879 231.859C366.217 231.729 366.465 231.664 366.621 231.664C367.155 231.664 367.422 231.931 367.422 232.465C367.422 232.595 367.389 232.706 367.324 232.797C367.259 232.888 367.155 232.979 367.012 233.07C366.868 233.161 366.621 233.253 366.27 233.344C365.931 233.435 365.378 233.559 364.609 233.715V236.723H368.848C368.73 234.887 368.672 233.422 368.672 232.328C368.672 231.677 368.939 231.352 369.473 231.352C369.759 231.352 369.967 231.436 370.098 231.605C370.241 231.775 370.312 232.035 370.312 232.387C370.312 233.637 370.352 235.082 370.43 236.723H375.254C375.892 236.723 376.211 236.983 376.211 237.504C376.211 238.012 375.892 238.266 375.254 238.266H370.566C370.71 239.724 370.983 241.085 371.387 242.348C371.947 241.723 372.428 241.104 372.832 240.492C373.249 239.867 373.607 239.555 373.906 239.555C374.193 239.555 374.401 239.607 374.531 239.711C374.661 239.815 374.727 239.978 374.727 240.199C374.727 240.72 373.822 241.964 372.012 243.93C372.454 244.932 372.852 245.681 373.203 246.176C373.568 246.658 373.9 246.898 374.199 246.898C374.486 246.898 374.72 246.306 374.902 245.121C374.941 244.874 375.02 244.698 375.137 244.594C375.254 244.477 375.417 244.418 375.625 244.418C376.133 244.418 376.387 244.691 376.387 245.238C376.387 246.124 376.191 246.964 375.801 247.758C375.423 248.539 374.954 248.93 374.395 248.93C374.121 248.93 373.828 248.839 373.516 248.656C373.203 248.487 372.891 248.227 372.578 247.875C371.927 247.146 371.328 246.234 370.781 245.141C370.378 245.544 370.007 245.883 369.668 246.156C369.342 246.43 368.9 246.755 368.34 247.133C367.806 247.497 367.396 247.758 367.109 247.914C366.836 248.083 366.634 248.168 366.504 248.168C365.996 248.168 365.742 247.895 365.742 247.348C365.742 247.009 366.022 246.69 366.582 246.391C367.598 245.857 368.789 244.939 370.156 243.637C369.583 242.087 369.186 240.297 368.965 238.266H364.609V241.234C364.792 241.182 365.221 241.065 365.898 240.883C366.029 240.844 366.165 240.805 366.309 240.766C366.465 240.714 366.628 240.668 366.797 240.629C366.901 240.603 366.973 240.59 367.012 240.59C367.181 240.59 367.318 240.655 367.422 240.785C367.526 240.915 367.578 241.104 367.578 241.352C367.578 241.729 367.279 241.996 366.68 242.152L364.609 242.719V247.113C364.609 247.79 364.44 248.285 364.102 248.598C363.776 248.91 363.255 249.047 362.539 249.008H361.367ZM371.816 233.031C371.816 232.862 371.882 232.719 372.012 232.602C372.155 232.484 372.311 232.426 372.48 232.426C372.819 232.426 373.294 232.771 373.906 233.461C374.531 234.164 374.844 234.639 374.844 234.887C374.844 235.421 374.564 235.688 374.004 235.688C373.887 235.688 373.73 235.596 373.535 235.414C373.34 235.232 373.086 234.945 372.773 234.555C372.409 234.099 372.155 233.767 372.012 233.559C371.882 233.35 371.816 233.174 371.816 233.031ZM380.566 249.184C380.02 249.184 379.746 248.884 379.746 248.285V238.598C379.746 238.025 379.87 237.608 380.117 237.348C380.378 237.087 380.794 236.97 381.367 236.996H385.527C386.113 236.996 386.536 237.126 386.797 237.387C387.07 237.634 387.188 238.038 387.148 238.598V247.074C387.24 248.428 386.615 249.079 385.273 249.027H384.336C383.711 249.027 383.398 248.76 383.398 248.227C383.398 247.693 383.665 247.426 384.199 247.426H384.883C385.299 247.426 385.521 247.198 385.547 246.742V244.633H381.328V248.207C381.328 248.858 381.074 249.184 380.566 249.184ZM378.574 234.828C378.574 234.307 378.887 234.047 379.512 234.047H383.281L382.812 232.992L382.617 232.562C382.461 232.211 382.383 232.016 382.383 231.977C382.383 231.56 382.663 231.352 383.223 231.352C383.691 231.352 384.108 231.768 384.473 232.602L385.098 234.047H389.473L390.234 231.996C390.404 231.54 390.723 231.312 391.191 231.312C391.803 231.312 392.109 231.56 392.109 232.055C392.109 232.328 391.934 232.777 391.582 233.402L391.23 234.047H395.469C396.107 234.047 396.426 234.307 396.426 234.828C396.426 235.349 396.107 235.609 395.469 235.609H379.512C378.887 235.609 378.574 235.349 378.574 234.828ZM385.547 243.246V241.586H381.328V243.246H385.547ZM385.547 240.18V239.066C385.547 238.689 385.352 238.487 384.961 238.461H381.914C381.549 238.461 381.354 238.663 381.328 239.066V240.18H385.547ZM389.121 238.188C389.121 237.641 389.388 237.367 389.922 237.367C390.456 237.367 390.723 237.641 390.723 238.188V245.023C390.723 245.544 390.456 245.805 389.922 245.805C389.388 245.805 389.121 245.544 389.121 245.023V238.188ZM390.781 248.168C390.781 247.608 391.087 247.328 391.699 247.328H392.617C393.125 247.328 393.385 247.055 393.398 246.508V237.68C393.398 237.081 393.672 236.781 394.219 236.781C394.753 236.781 395.02 237.081 395.02 237.68V246.996C395.02 247.725 394.857 248.253 394.531 248.578C394.206 248.917 393.691 249.066 392.988 249.027H391.699C391.087 249.027 390.781 248.741 390.781 248.168ZM401.816 249.125C401.53 249.125 401.322 249.047 401.191 248.891C401.061 248.734 400.996 248.487 400.996 248.148V240.922C400.618 241.326 400.273 241.645 399.961 241.879C399.753 242.048 399.538 242.133 399.316 242.133C399.134 242.133 398.978 242.074 398.848 241.957C398.73 241.84 398.672 241.69 398.672 241.508C398.672 241.339 398.698 241.189 398.75 241.059C398.815 240.928 398.926 240.798 399.082 240.668C400.345 239.574 401.484 238.181 402.5 236.488C402.721 236.111 402.982 235.922 403.281 235.922C403.49 235.922 403.665 235.987 403.809 236.117C403.952 236.247 404.023 236.417 404.023 236.625C404.023 236.833 403.952 237.048 403.809 237.27C403.561 237.673 403.158 238.259 402.598 239.027V248.148C402.598 248.799 402.337 249.125 401.816 249.125ZM398.652 235.375C398.652 235.219 398.691 235.082 398.77 234.965C398.848 234.835 398.984 234.704 399.18 234.574C400.13 233.91 401.146 232.992 402.227 231.82C402.487 231.534 402.76 231.391 403.047 231.391C403.255 231.391 403.438 231.456 403.594 231.586C403.763 231.703 403.848 231.879 403.848 232.113C403.848 232.309 403.757 232.517 403.574 232.738C403.04 233.35 402.467 233.923 401.855 234.457C401.243 234.991 400.651 235.44 400.078 235.805C399.831 235.974 399.577 236.059 399.316 236.059C399.108 236.059 398.945 236 398.828 235.883C398.711 235.766 398.652 235.596 398.652 235.375ZM403.926 247.68C403.926 247.172 404.238 246.918 404.863 246.918H409.375V242.172H405.918C405.605 242.172 405.371 242.113 405.215 241.996C405.072 241.879 405 241.69 405 241.43C405 240.935 405.306 240.688 405.918 240.688H409.375V236.664H405.449C404.85 236.664 404.551 236.417 404.551 235.922C404.551 235.427 404.85 235.18 405.449 235.18H415.02C415.632 235.18 415.938 235.427 415.938 235.922C415.938 236.417 415.632 236.664 415.02 236.664H411.016V240.688H414.375C414.974 240.688 415.273 240.935 415.273 241.43C415.273 241.924 414.974 242.172 414.375 242.172H411.016V246.918H415.391C416.016 246.918 416.328 247.172 416.328 247.68C416.328 248.161 416.016 248.402 415.391 248.402H404.863C404.238 248.402 403.926 248.161 403.926 247.68ZM407.871 232.094C407.871 231.638 408.112 231.41 408.594 231.41C408.776 231.41 409.01 231.495 409.297 231.664C409.583 231.833 409.987 232.12 410.508 232.523C410.977 232.901 411.302 233.201 411.484 233.422C411.667 233.63 411.758 233.832 411.758 234.027C411.758 234.262 411.686 234.451 411.543 234.594C411.413 234.737 411.25 234.809 411.055 234.809C410.885 234.809 410.703 234.757 410.508 234.652C410.326 234.535 410.065 234.333 409.727 234.047C409.284 233.682 408.763 233.233 408.164 232.699C407.969 232.53 407.871 232.328 407.871 232.094Z" fill="white"/>
<path d="M217.109 89.2988C216.016 89.2988 215.225 89.0449 214.736 88.5371C214.248 88.0488 214.004 87.248 214.004 86.1348V67.1504C214.004 66.0176 214.248 65.207 214.736 64.7188C215.225 64.2109 216.016 63.957 217.109 63.957H235.449C236.543 63.957 237.334 64.2109 237.822 64.7188C238.311 65.207 238.555 66.0176 238.555 67.1504V86.1348C238.555 87.248 238.311 88.0488 237.822 88.5371C237.334 89.0449 236.543 89.2988 235.449 89.2988H217.109ZM216.377 85.6953C216.377 86.6719 216.875 87.1602 217.871 87.1602H234.688C235.684 87.1602 236.182 86.6621 236.182 85.666V67.5312C236.182 66.5547 235.684 66.0664 234.688 66.0664H217.871C216.875 66.0664 216.377 66.5547 216.377 67.5312V85.6953ZM217.256 82.6777C217.256 82.248 217.51 81.9551 218.018 81.7988C220.4 81.0566 222.178 80.3438 223.35 79.6602H221.211C220.586 79.6602 220.107 79.4941 219.775 79.1621C219.443 78.8301 219.277 78.3613 219.277 77.7559V76.4082C219.277 75.8418 219.424 75.4121 219.717 75.1191C220.029 74.8066 220.469 74.6504 221.035 74.6504H231.348C231.973 74.6504 232.451 74.8066 232.783 75.1191C233.115 75.4316 233.281 75.9004 233.281 76.5254V77.7559C233.281 79.0254 232.627 79.6602 231.318 79.6602H225.898C225.527 79.9922 225.049 80.3633 224.463 80.7734V83.9668L226.719 83.5566C226.777 83.5371 226.865 83.5273 226.982 83.5273C227.256 83.5273 227.471 83.6055 227.627 83.7617C227.783 83.918 227.861 84.1328 227.861 84.4062C227.861 84.6211 227.783 84.8066 227.627 84.9629C227.49 85.1191 227.295 85.2363 227.041 85.3145C226.104 85.5879 225.049 85.8223 223.877 86.0176C222.705 86.1934 221.982 86.3008 221.709 86.3398C221.514 86.3594 221.172 86.4082 220.684 86.4863C220.586 86.5059 220.459 86.5156 220.303 86.5156C219.6 86.5156 219.248 86.1836 219.248 85.5195C219.248 84.9922 219.58 84.6895 220.244 84.6113C220.674 84.5527 221.426 84.4453 222.5 84.2891V81.916C221.328 82.5215 220.078 83.0586 218.75 83.5273C218.574 83.6055 218.389 83.6445 218.193 83.6445C217.9 83.6445 217.666 83.5566 217.49 83.3809C217.334 83.2051 217.256 82.9707 217.256 82.6777ZM217.344 72.6582C217.344 72.0723 217.666 71.7793 218.311 71.7793H225.107V70.1973H219.658C219.014 70.1973 218.691 69.9043 218.691 69.3184C218.691 68.7324 219.014 68.4395 219.658 68.4395H225.107V67.5605C225.107 66.877 225.488 66.5352 226.25 66.5352C226.621 66.5352 226.904 66.623 227.1 66.7988C227.314 66.9746 227.422 67.2285 227.422 67.5605V68.4395H232.9C233.545 68.4395 233.867 68.7324 233.867 69.3184C233.867 69.9043 233.545 70.1973 232.9 70.1973H227.422V71.7793H234.219C234.902 71.7793 235.244 72.0723 235.244 72.6582C235.244 73.2637 234.902 73.5664 234.219 73.5664H218.311C217.666 73.5664 217.344 73.2637 217.344 72.6582ZM221.445 77.1406C221.445 77.6875 221.67 77.9609 222.119 77.9609H230.41C230.625 77.9609 230.791 77.9023 230.908 77.7852C231.025 77.668 231.084 77.4531 231.084 77.1406C231.084 76.6133 230.859 76.3496 230.41 76.3496H222.119C221.67 76.3496 221.445 76.6133 221.445 77.1406ZM226.25 81.125C226.387 80.8125 226.65 80.6562 227.041 80.6562C227.197 80.6562 227.344 80.6855 227.48 80.7441C228.262 81.0371 229.16 81.4277 230.176 81.916C231.094 81.291 231.865 80.7051 232.49 80.1582C232.686 80.002 232.891 79.9238 233.105 79.9238C233.418 79.9238 233.662 80.0508 233.838 80.3047C233.975 80.5 234.043 80.6953 234.043 80.8906C234.043 81.2031 233.896 81.4668 233.604 81.6816C233.174 81.9941 232.598 82.3555 231.875 82.7656C232.441 83.0586 233.213 83.5371 234.189 84.2012C234.619 84.5137 234.834 84.8457 234.834 85.1973C234.834 85.3535 234.785 85.5293 234.688 85.7246C234.492 86.0762 234.209 86.252 233.838 86.252C233.623 86.252 233.389 86.1738 233.135 86.0176C230.811 84.5137 228.682 83.2832 226.748 82.3262C226.357 82.1113 226.162 81.8379 226.162 81.5059C226.162 81.3691 226.191 81.2422 226.25 81.125ZM247.139 88.4785C246.123 88.4785 245.381 88.2539 244.912 87.8047C244.463 87.3555 244.268 86.6426 244.326 85.666V66.8281C244.326 65.832 244.551 65.1094 245 64.6602C245.449 64.1914 246.162 63.9863 247.139 64.0449H267.705C268.604 64.0449 269.053 64.416 269.053 65.1582C269.053 65.8809 268.604 66.2422 267.705 66.2422H247.959C247.256 66.2422 246.885 66.623 246.846 67.3848V85.1387C246.846 85.8613 247.217 86.2422 247.959 86.2812H268.262C269.18 86.2812 269.639 86.6523 269.639 87.3945C269.639 88.1172 269.18 88.4785 268.262 88.4785H247.139ZM248.34 79.1035C248.34 77.6191 249.092 76.877 250.596 76.877H255.166C256.65 76.877 257.393 77.6191 257.393 79.1035V82.4727C257.393 83.957 256.65 84.6992 255.166 84.6992H250.596C249.092 84.6992 248.34 83.957 248.34 82.4727V79.1035ZM250.449 81.8867C250.449 82.4336 250.723 82.7168 251.27 82.7363H254.492C255 82.7363 255.273 82.4531 255.312 81.8867V79.6895C255.312 79.1816 255.039 78.9082 254.492 78.8691H251.27C250.742 78.8691 250.469 79.1426 250.449 79.6895V81.8867ZM250.479 70.2559C250.479 69.416 250.654 68.8105 251.006 68.4395C251.377 68.0684 251.963 67.9023 252.764 67.9414H263.193C264.033 67.9414 264.639 68.127 265.01 68.498C265.381 68.8691 265.547 69.4648 265.508 70.2852V73.0098C265.508 73.8496 265.322 74.4551 264.951 74.8262C264.58 75.1973 263.994 75.3633 263.193 75.3242H252.764C251.943 75.3242 251.348 75.1484 250.977 74.7969C250.605 74.4258 250.439 73.8398 250.479 73.0391V70.2559ZM252.705 72.4824C252.705 73.0098 252.988 73.293 253.555 73.332H262.314C262.861 73.332 263.154 73.0391 263.193 72.4531V70.8125C263.193 70.2656 262.9 69.9727 262.314 69.9336H253.555C253.027 69.9336 252.744 70.2168 252.705 70.7832V72.4824ZM258.711 79.1035C258.711 77.6191 259.453 76.877 260.938 76.877H265.801C267.266 76.877 267.998 77.6289 267.998 79.1328V82.4434C267.998 83.9473 267.266 84.6992 265.801 84.6992H260.938C259.453 84.6992 258.711 83.957 258.711 82.4727V79.1035ZM260.82 81.8867C260.82 82.4141 261.094 82.6973 261.641 82.7363H265.039C265.586 82.7363 265.859 82.4531 265.859 81.8867V79.6895C265.859 79.416 265.791 79.2207 265.654 79.1035C265.518 78.9668 265.312 78.8887 265.039 78.8691H261.641C261.094 78.8691 260.82 79.1426 260.82 79.6895V81.8867ZM282.998 89.3867C282.236 89.3867 281.855 88.9766 281.855 88.1562C281.855 87.5703 282.334 87.1113 283.291 86.7793C286.162 85.7637 288.428 84.4844 290.088 82.9414C288.389 80.5195 287.363 77.3066 287.012 73.3027C286.387 74.5332 285.83 75.4707 285.342 76.1152C284.854 76.7598 284.473 77.082 284.199 77.082C283.457 77.082 283.086 76.6719 283.086 75.8516C283.086 75.5977 283.203 75.3047 283.438 74.9727C285.195 72.3359 286.641 68.752 287.773 64.2207C287.891 63.7715 288.047 63.4395 288.242 63.2246C288.457 63.0098 288.73 62.9023 289.062 62.9023C289.902 62.9023 290.322 63.2344 290.322 63.8984C290.322 64.0938 290.264 64.3867 290.146 64.7773L288.887 68.5566H298.438C299.199 68.5566 299.58 68.9473 299.58 69.7285C299.58 70.5293 299.199 70.9297 298.438 70.9297H296.973C296.777 73.7617 296.406 76.0957 295.859 77.9316C295.312 79.7871 294.395 81.5449 293.105 83.2051C294.258 84.416 295.908 85.4707 298.057 86.3691C299.072 86.7793 299.58 87.2969 299.58 87.9219C299.58 88.8008 299.16 89.2402 298.32 89.2402C297.793 89.2402 296.777 88.752 295.273 87.7754C293.73 86.7988 292.5 85.8223 291.582 84.8457C290.391 85.9395 288.857 86.9648 286.982 87.9219C285.088 88.8984 283.76 89.3867 282.998 89.3867ZM273.271 65.7734C273.271 65.0508 273.73 64.6895 274.648 64.6895H281.123C282.041 64.6895 282.705 64.8945 283.115 65.3047C283.545 65.6953 283.74 66.3398 283.701 67.2383V72.3652C283.701 73.2246 283.516 73.8691 283.145 74.2988C282.773 74.709 282.168 74.9141 281.328 74.9141H277.549C276.807 74.9141 276.416 75.3047 276.377 76.0859V82.707C276.377 83.1758 276.543 83.4688 276.875 83.5859C277.305 83.7422 278.145 83.8203 279.395 83.8203C280.762 83.8203 281.572 83.6836 281.826 83.4102C282.061 83.1367 282.207 82.4727 282.266 81.418C282.324 80.4805 282.725 80.0117 283.467 80.0117C284.268 80.0117 284.668 80.4023 284.668 81.1836L284.639 81.7988L284.551 82.5312C284.375 83.8984 284.033 84.8457 283.525 85.373C282.881 85.8613 281.26 86.1055 278.662 86.1055C277.803 86.1055 277.051 86.0566 276.406 85.959C275.781 85.8613 275.312 85.7246 275 85.5488C274.375 85.2168 274.062 84.582 274.062 83.6445V75.2363C274.062 74.377 274.248 73.7422 274.619 73.332C275.01 72.9023 275.615 72.6875 276.436 72.6875H280.273C281.016 72.6875 281.406 72.2969 281.445 71.5156V68.0586C281.445 67.3164 281.055 66.9258 280.273 66.8867H274.648C273.73 66.8867 273.271 66.5156 273.271 65.7734ZM288.711 70.9297C288.926 75.2461 289.873 78.7129 291.553 81.3301C293.33 79.084 294.336 75.6172 294.57 70.9297H288.711ZM317.949 89.2695C317.188 89.2695 316.807 88.8691 316.807 88.0684C316.807 87.6387 317.148 87.2285 317.832 86.8379C319.57 85.8613 320.918 84.8262 321.875 83.7324C320.957 82.248 320.273 80.7637 319.824 79.2793C319.316 77.5605 319.062 76.2617 319.062 75.3828C319.062 75.0508 319.15 74.8066 319.326 74.6504C319.502 74.4746 319.775 74.3867 320.146 74.3867C320.732 74.3867 321.084 74.7578 321.201 75.5C321.67 78.1953 322.373 80.3047 323.311 81.8281C323.975 80.7148 324.6 79.3184 325.186 77.6387C325.693 76.1934 325.947 75.002 325.947 74.0645C325.947 73.5371 325.645 73.2734 325.039 73.2734H317.656V73.8008C317.656 76.0469 317.539 78.0684 317.305 79.8652C317.07 81.6426 316.768 83.1465 316.396 84.377C315.557 87.0918 314.727 88.4492 313.906 88.4492C313.164 88.4492 312.793 88.0293 312.793 87.1895C312.793 86.9355 312.998 86.4277 313.408 85.666C314.15 84.3379 314.697 82.6191 315.049 80.5098C315.361 78.7129 315.518 74.8945 315.518 69.0547L315.488 67.2383C315.469 65.2461 316.318 64.25 318.037 64.25H328.174C329.111 64.25 329.58 64.6309 329.58 65.3926C329.58 66.1543 329.111 66.5352 328.174 66.5352H318.682C317.998 66.5352 317.656 67.0137 317.656 67.9707L317.715 71.0762H326.152C327.715 71.0762 328.496 71.6816 328.496 72.8926C328.496 74.0254 328.135 75.7344 327.412 78.0195C326.709 80.2266 325.82 82.1211 324.746 83.7031C325.508 84.4648 326.514 85.2363 327.764 86.0176C328.975 86.7793 329.58 87.3848 329.58 87.834C329.58 88.7324 329.17 89.1816 328.35 89.1816C327.354 89.1816 325.664 87.9707 323.281 85.5488C322.422 86.4863 321.445 87.3359 320.352 88.0977C319.258 88.8789 318.457 89.2695 317.949 89.2695ZM302.92 87.5117C302.92 87.3359 303.047 86.9258 303.301 86.2812C304.375 83.4492 304.912 78.4883 304.912 71.3984L304.824 65.0117C304.824 64.543 304.912 64.2012 305.088 63.9863C305.264 63.7715 305.537 63.6641 305.908 63.6641C306.279 63.6641 306.543 63.791 306.699 64.0449C306.875 64.2988 306.963 64.6992 306.963 65.2461V70.1387H309.629V64.2207C309.629 63.3418 309.98 62.9023 310.684 62.9023C311.406 62.9023 311.768 63.3418 311.768 64.2207V70.1387H313.555C314.238 70.1387 314.58 70.5 314.58 71.2227C314.58 71.9258 314.238 72.2773 313.555 72.2773H306.934L306.904 76.2617H310.215C311.035 76.2617 311.631 76.4473 312.002 76.8184C312.393 77.1895 312.578 77.7754 312.559 78.5762V88.0098C312.559 88.9082 312.197 89.3574 311.475 89.3574C311.104 89.3574 310.83 89.25 310.654 89.0352C310.479 88.8203 310.391 88.4785 310.391 88.0098V79.3965C310.391 78.7715 310.068 78.4395 309.424 78.4004H306.846C306.787 81.2715 306.494 83.6836 305.967 85.6367C305.42 87.6875 304.805 88.7129 304.121 88.7129C303.32 88.7129 302.92 88.3125 302.92 87.5117ZM334.092 89.3867C333.311 89.3867 332.92 88.9668 332.92 88.127C332.92 87.502 333.35 87.1309 334.209 87.0137C337.744 86.584 340.332 85.8125 341.973 84.6992C339.707 83.1367 338.574 81.916 338.574 81.0371C338.574 80.4902 338.945 80.2168 339.688 80.2168C340.078 80.2168 340.615 80.5586 341.299 81.2422C342.061 82.0234 342.803 82.668 343.525 83.1758C344.229 82.1797 344.658 80.9883 344.814 79.6016H338.252C336.416 79.7383 335.566 78.8887 335.703 77.0527V71.1055C335.566 69.25 336.416 68.4004 338.252 68.5566H345.049L345.02 66.2715H334.414C333.535 66.2715 333.096 65.9102 333.096 65.1875C333.096 64.4453 333.535 64.0742 334.414 64.0742H358.027C358.945 64.0742 359.404 64.4453 359.404 65.1875C359.404 65.9102 358.945 66.2715 358.027 66.2715H347.334V68.5566H354.482C356.338 68.4004 357.188 69.25 357.031 71.1055V77.0527C357.188 78.8887 356.338 79.7383 354.482 79.6016H347.041C346.787 81.4766 346.221 83.0293 345.342 84.2598C346.846 85.002 348.809 85.5879 351.23 86.0176C353.809 86.4863 356.025 86.7305 357.881 86.75C359.014 86.7891 359.58 87.1992 359.58 87.9805C359.58 88.8594 359.102 89.2988 358.145 89.2988C356.797 89.2988 354.59 89.0254 351.523 88.4785C348.672 87.9707 346.094 87.1016 343.789 85.8711C342.637 86.8281 341.074 87.668 339.102 88.3906C337.324 89.0547 335.654 89.3867 334.092 89.3867ZM337.9 76.584C337.9 77.3262 338.262 77.6875 338.984 77.668H344.961L345.02 74.8848H337.9V76.584ZM345.049 73.0684V70.4609H338.984C338.242 70.4609 337.881 70.8223 337.9 71.5449V73.0684H345.049ZM353.662 77.668C354.404 77.668 354.766 77.3066 354.746 76.584V74.8848H347.305L347.217 77.668H353.662ZM354.746 73.0684V71.5449C354.746 70.8223 354.385 70.4609 353.662 70.4609H347.334V73.0684H354.746ZM385.361 89.5625C384.561 89.5625 384.16 89.084 384.16 88.127V74.7676H380.264L380.205 76.8184C380.088 80.9395 379.521 84.0352 378.506 86.1055C377.51 88.1367 376.621 89.1523 375.84 89.1523C375 89.1523 374.58 88.7227 374.58 87.8633C374.58 87.5703 374.893 87.0527 375.518 86.3105C376.182 85.5293 376.699 84.582 377.07 83.4688C377.48 82.2383 377.754 80.8516 377.891 79.3086C378.027 77.7266 378.115 75.6562 378.154 73.0977L378.125 67.5312C378.125 66.6914 378.291 66.0566 378.623 65.627C378.955 65.2168 379.727 64.9043 380.938 64.6895C382.266 64.4551 383.311 64.2402 384.072 64.0449C384.639 63.9082 384.961 63.8301 385.039 63.8105C384.902 63.8301 385.322 63.7227 386.299 63.4883C386.826 63.332 387.139 63.2539 387.236 63.2539C388.115 63.2539 388.555 63.7227 388.555 64.6602C388.555 65.1484 388.193 65.4805 387.471 65.6562C384.99 66.2617 383.037 66.6719 381.611 66.8867C380.752 67.0039 380.322 67.6777 380.322 68.9082V72.4531H388.525C389.248 72.4531 389.609 72.8438 389.609 73.625C389.609 74.3867 389.248 74.7676 388.525 74.7676H386.562V88.127C386.562 89.084 386.162 89.5625 385.361 89.5625ZM362.861 86.0762C362.861 85.8613 362.959 85.6367 363.154 85.4023C363.369 85.1484 363.701 84.8457 364.15 84.4941C366.299 82.7949 367.803 81.1055 368.662 79.4258H364.561C363.682 79.4258 363.242 79.0645 363.242 78.3418C363.242 77.6387 363.682 77.2871 364.561 77.2871H368.984V74.5332H364.18C363.73 74.5332 363.398 74.4551 363.184 74.2988C362.988 74.123 362.891 73.8496 362.891 73.4785C362.891 72.7559 363.32 72.3945 364.18 72.3945H366.055C365.957 71.3594 365.723 70.0215 365.352 68.3809L365.322 68.1465H364.297C363.594 68.1465 363.242 67.7852 363.242 67.0625C363.242 66.3594 363.594 66.0078 364.297 66.0078H368.896V64.3379C368.896 63.3418 369.307 62.8438 370.127 62.8438C370.947 62.8438 371.357 63.3418 371.357 64.3379V66.0078H375.928C376.611 66.0078 376.953 66.3594 376.953 67.0625C376.953 67.7852 376.611 68.1465 375.928 68.1465H374.609L373.789 72.3945H376.045C376.904 72.3945 377.334 72.7559 377.334 73.4785C377.334 73.8496 377.227 74.123 377.012 74.2988C376.816 74.4551 376.494 74.5332 376.045 74.5332H371.27V77.2871H375.664C376.543 77.2871 376.982 77.6484 376.982 78.3711C376.982 79.0742 376.543 79.4258 375.664 79.4258H371.27V81.5645C371.484 81.1738 371.826 80.9785 372.295 80.9785C372.627 80.9785 373.281 81.3496 374.258 82.0918C375.234 82.834 375.723 83.4004 375.723 83.791C375.723 84.5137 375.371 84.875 374.668 84.875C374.375 84.875 373.994 84.6699 373.525 84.2598L371.27 82.2969V88.2441C371.27 89.1621 370.889 89.6211 370.127 89.6211C369.365 89.6211 368.984 89.1621 368.984 88.2441V81.8574C368.262 83.2246 367.324 84.4844 366.172 85.6367C365.039 86.7695 364.287 87.3359 363.916 87.3359C363.213 87.3359 362.861 86.916 362.861 86.0762ZM367.373 68.1465C367.607 69.123 367.852 70.5195 368.105 72.3359V72.3945H371.738L372.5 68.293V68.1465H367.373ZM406.25 82.209C405.488 82.209 405.098 81.7988 405.078 80.9785L404.463 65.9785C404.463 64.8262 405.059 64.25 406.25 64.25C407.422 64.25 408.008 64.8359 408.008 66.0078V66.5645L407.363 80.9785C407.344 81.7988 406.973 82.209 406.25 82.209ZM404.287 86.252C404.287 85.7441 404.482 85.2754 404.873 84.8457C405.264 84.4746 405.742 84.2891 406.309 84.2891C406.797 84.2891 407.246 84.4746 407.656 84.8457C408.027 85.2363 408.213 85.7051 408.213 86.252C408.213 86.8574 408.018 87.3262 407.627 87.6582C407.236 88.0488 406.777 88.2441 406.25 88.2441C405.703 88.2441 405.234 88.0391 404.844 87.6289C404.473 87.2188 404.287 86.7598 404.287 86.252Z" fill="black" fill-opacity="0.8"/>
<path d="M255.078 138.98C254.831 138.98 254.648 138.922 254.531 138.805C254.427 138.688 254.375 138.505 254.375 138.258C254.375 137.802 254.609 137.574 255.078 137.574H256.758V124.625C256.758 124.013 256.888 123.57 257.148 123.297C257.409 123.01 257.839 122.893 258.438 122.945H262.402C263.04 122.945 263.503 123.082 263.789 123.355C264.089 123.616 264.219 124.046 264.18 124.645V137.574H264.98C265.449 137.574 265.684 137.809 265.684 138.277C265.684 138.746 265.449 138.98 264.98 138.98H255.078ZM247.91 137.047C247.91 136.917 248.001 136.624 248.184 136.168C248.535 135.309 248.757 134.293 248.848 133.121C248.887 132.652 249.115 132.418 249.531 132.418C249.779 132.418 249.954 132.477 250.059 132.594C250.176 132.698 250.234 132.867 250.234 133.102C250.234 133.896 250.091 134.84 249.805 135.934C249.492 137.158 249.115 137.77 248.672 137.77C248.164 137.77 247.91 137.529 247.91 137.047ZM247.969 130.875C247.969 130.458 248.229 130.211 248.75 130.133L249.98 130.055L251.133 128.434L250.977 128.297L248.457 126.402C248.21 126.207 248.086 125.986 248.086 125.738C248.086 125.257 248.307 125.016 248.75 125.016C248.919 125.016 249.219 125.172 249.648 125.484C250.143 124.69 250.677 123.694 251.25 122.496C251.432 122.118 251.686 121.93 252.012 121.93C252.559 121.93 252.832 122.19 252.832 122.711C252.832 123.154 252.122 124.332 250.703 126.246L251.973 127.223C252.65 126.194 253.138 125.4 253.438 124.84C253.698 124.358 253.984 124.117 254.297 124.117C254.805 124.117 255.059 124.391 255.059 124.938C255.059 125.159 254.694 125.79 253.965 126.832C253.21 127.913 252.415 128.961 251.582 129.977L254.219 129.781C253.984 129.195 253.867 128.863 253.867 128.785C253.867 128.603 253.919 128.46 254.023 128.355C254.141 128.251 254.303 128.199 254.512 128.199C254.876 128.199 255.228 128.642 255.566 129.527C255.918 130.439 256.094 130.992 256.094 131.188C256.094 131.643 255.859 131.871 255.391 131.871C255.065 131.871 254.805 131.572 254.609 130.973L252.773 131.246V138.844C252.773 139.417 252.52 139.703 252.012 139.703C251.517 139.703 251.27 139.417 251.27 138.844V131.383C249.85 131.5 249.089 131.578 248.984 131.617L248.711 131.637C248.216 131.676 247.969 131.422 247.969 130.875ZM253.789 132.965C253.776 132.77 253.822 132.626 253.926 132.535C254.043 132.431 254.212 132.379 254.434 132.379C254.967 132.379 255.41 133.408 255.762 135.465L255.859 136.012C255.898 136.233 255.846 136.402 255.703 136.52C255.573 136.637 255.378 136.695 255.117 136.695C254.688 136.695 254.427 136.376 254.336 135.738C254.232 135.048 254.062 134.228 253.828 133.277L253.789 132.965ZM262.656 137.574V133.766H258.242V137.574H262.656ZM262.656 132.359V129H258.242V132.359H262.656ZM262.656 127.594V125.016C262.656 124.586 262.441 124.371 262.012 124.371H258.906C258.698 124.371 258.535 124.43 258.418 124.547C258.301 124.651 258.242 124.807 258.242 125.016V127.594H262.656ZM268.75 129.645C268.49 129.645 268.301 129.579 268.184 129.449C268.066 129.306 268.008 129.085 268.008 128.785C268.008 128.473 268.118 128.264 268.34 128.16L269.707 127.457C271.999 126.285 273.984 124.664 275.664 122.594C276.042 122.112 276.432 121.871 276.836 121.871C277.122 121.871 277.331 121.923 277.461 122.027C277.604 122.118 277.676 122.268 277.676 122.477C277.676 122.529 277.643 122.639 277.578 122.809L277.754 122.984C278.652 123.883 279.701 124.723 280.898 125.504C282.109 126.298 283.451 126.962 284.922 127.496C285.469 127.691 285.742 127.991 285.742 128.395C285.742 129.02 285.462 129.332 284.902 129.332C284.199 129.332 282.982 128.74 281.25 127.555C279.414 126.305 277.91 125.094 276.738 123.922C276.061 124.716 275.15 125.582 274.004 126.52C272.949 127.392 271.875 128.134 270.781 128.746C269.714 129.345 269.036 129.645 268.75 129.645ZM270.078 133.961C270.078 133.193 270.241 132.633 270.566 132.281C270.905 131.93 271.452 131.78 272.207 131.832H281.523C282.292 131.78 282.852 131.93 283.203 132.281C283.568 132.633 283.724 133.193 283.672 133.961V136.812C283.776 138.323 283.06 139.033 281.523 138.941H272.207C270.71 139.033 270 138.323 270.078 136.812V133.961ZM271.504 128.961C271.504 128.479 271.771 128.238 272.305 128.238H281.523C282.07 128.238 282.344 128.479 282.344 128.961C282.344 129.43 282.07 129.664 281.523 129.664H272.305C271.771 129.664 271.504 129.43 271.504 128.961ZM271.738 136.422C271.738 137.125 272.09 137.477 272.793 137.477H280.957C281.66 137.477 282.012 137.125 282.012 136.422V134.352C282.012 133.648 281.66 133.297 280.957 133.297H272.793C272.09 133.297 271.738 133.648 271.738 134.352V136.422ZM299.336 137.242C298.841 137.242 298.594 137.001 298.594 136.52V134.996H294.434C293.939 134.996 293.691 134.768 293.691 134.312C293.691 133.857 293.939 133.629 294.434 133.629H298.594V132.34H295.352C294.844 132.34 294.59 132.118 294.59 131.676C294.59 131.233 294.844 131.012 295.352 131.012H298.594V129.84H295.703C295.234 129.84 295 129.618 295 129.176C295 128.746 295.234 128.531 295.703 128.531H298.594V127.203H294.551C294.056 127.203 293.809 126.982 293.809 126.539C293.809 126.096 294.056 125.875 294.551 125.875H298.594V124.605H295.527C295.28 124.605 295.085 124.547 294.941 124.43C294.811 124.312 294.746 124.143 294.746 123.922C294.746 123.701 294.811 123.531 294.941 123.414C295.085 123.297 295.28 123.238 295.527 123.238H298.594V122.477C298.594 122.034 298.841 121.812 299.336 121.812C299.831 121.812 300.078 122.034 300.078 122.477V123.238H302.656C303.268 123.186 303.717 123.31 304.004 123.609C304.29 123.896 304.408 124.339 304.355 124.938V125.875H305.234C305.612 125.875 305.801 126.096 305.801 126.539C305.801 126.982 305.612 127.203 305.234 127.203H304.355V128.16C304.408 128.759 304.29 129.202 304.004 129.488C303.717 129.775 303.268 129.892 302.656 129.84H300.078V131.012H303.965C304.46 131.012 304.707 131.233 304.707 131.676C304.707 132.118 304.46 132.34 303.965 132.34H300.078V133.629H304.98C305.514 133.629 305.781 133.857 305.781 134.312C305.781 134.534 305.71 134.703 305.566 134.82C305.436 134.938 305.241 134.996 304.98 134.996H300.078V136.52C300.078 137.001 299.831 137.242 299.336 137.242ZM288.027 138.668C288.027 138.421 288.268 138.141 288.75 137.828C289.167 137.542 289.531 137.255 289.844 136.969C290.156 136.669 290.462 136.331 290.762 135.953C289.499 134.352 288.867 132.861 288.867 131.48C288.867 131.09 289.089 130.895 289.531 130.895C289.896 130.895 290.117 131.096 290.195 131.5C290.456 132.828 290.866 133.909 291.426 134.742C291.699 134.26 291.901 133.772 292.031 133.277C292.174 132.77 292.298 132.118 292.402 131.324L292.52 130.328C292.533 130.172 292.48 130.048 292.363 129.957C292.259 129.866 292.109 129.82 291.914 129.82H290.059C289.342 129.82 288.984 129.534 288.984 128.961C288.984 128.766 289.251 128.284 289.785 127.516L291.211 125.191C291.497 124.71 291.641 124.43 291.641 124.352C291.641 124.26 291.608 124.195 291.543 124.156C291.478 124.104 291.393 124.078 291.289 124.078H288.945C288.398 124.078 288.125 123.837 288.125 123.355C288.125 122.887 288.385 122.652 288.906 122.652H292.383C293.177 122.652 293.574 122.932 293.574 123.492C293.574 123.583 293.496 123.772 293.34 124.059C293.197 124.332 293.014 124.664 292.793 125.055C292.702 125.198 292.578 125.413 292.422 125.699C292.148 126.155 291.855 126.669 291.543 127.242C291.217 127.841 291.055 128.154 291.055 128.18C291.055 128.375 291.185 128.473 291.445 128.473H292.598C293.053 128.473 293.385 128.57 293.594 128.766C293.815 128.948 293.926 129.228 293.926 129.605L293.887 130.289L293.809 130.875C293.548 132.984 293.112 134.645 292.5 135.855C293.555 136.65 294.935 137.158 296.641 137.379C297.839 137.535 299.525 137.613 301.699 137.613C302.975 137.613 303.867 137.587 304.375 137.535L304.922 137.516C305.456 137.503 305.723 137.75 305.723 138.258C305.723 138.661 305.592 138.902 305.332 138.98C305.046 139.059 304.062 139.111 302.383 139.137H301.973C298.9 139.137 296.595 138.948 295.059 138.57C293.783 138.258 292.689 137.717 291.777 136.949C291.27 137.548 290.755 138.056 290.234 138.473C289.492 139.072 288.971 139.371 288.672 139.371C288.242 139.371 288.027 139.137 288.027 138.668ZM302.227 128.531C302.63 128.531 302.826 128.336 302.812 127.945V127.203H300.078V128.531H302.227ZM302.812 125.875V125.191C302.812 124.788 302.617 124.592 302.227 124.605H300.078V125.875H302.812ZM315.566 139.703C315.072 139.703 314.824 139.436 314.824 138.902V136.363H314.043C313.574 136.363 313.34 136.155 313.34 135.738C313.34 135.296 313.574 135.074 314.043 135.074H314.824V132.008C314.824 131.422 314.954 130.999 315.215 130.738C315.475 130.465 315.892 130.348 316.465 130.387H318.906V129.469H314.336C313.854 129.469 313.613 129.254 313.613 128.824C313.613 128.382 313.854 128.16 314.336 128.16H316.758V127.027H315.312C314.844 127.027 314.609 126.819 314.609 126.402C314.609 125.999 314.844 125.797 315.312 125.797H316.758V124.762H314.648C314.154 124.762 313.906 124.54 313.906 124.098C313.906 123.668 314.154 123.453 314.648 123.453H316.758V122.496C316.758 122.027 316.999 121.793 317.48 121.793C317.975 121.793 318.223 122.027 318.223 122.496V123.453H321.152V122.496C321.152 122.027 321.4 121.793 321.895 121.793C322.389 121.793 322.637 122.027 322.637 122.496V123.453H324.766C325.26 123.453 325.508 123.674 325.508 124.117C325.508 124.547 325.26 124.762 324.766 124.762H322.637V125.797H324.141C324.609 125.797 324.844 125.999 324.844 126.402C324.844 126.819 324.609 127.027 324.141 127.027H322.637V128.16H325.117C325.599 128.16 325.84 128.382 325.84 128.824C325.84 129.254 325.599 129.469 325.117 129.469H320.332V130.387H322.969C323.568 130.387 323.997 130.517 324.258 130.777C324.531 131.025 324.642 131.435 324.59 132.008V135.074H325.137C325.605 135.074 325.84 135.296 325.84 135.738C325.84 136.155 325.605 136.363 325.137 136.363H324.59V137.867C324.59 138.492 324.447 138.948 324.16 139.234C323.887 139.534 323.438 139.664 322.812 139.625H321.621C321.061 139.625 320.781 139.384 320.781 138.902C320.781 138.368 321.061 138.102 321.621 138.102H322.461C322.656 138.102 322.806 138.043 322.91 137.926C323.027 137.809 323.092 137.652 323.105 137.457V136.363H316.309V138.902C316.309 139.436 316.061 139.703 315.566 139.703ZM307.949 134.254C307.949 134.046 308.027 133.818 308.184 133.57C309.225 131.904 310 129.794 310.508 127.242H308.75C308.255 127.242 308.008 126.995 308.008 126.5C308.008 126.018 308.255 125.777 308.75 125.777H310.664V122.633C310.664 122.099 310.905 121.832 311.387 121.832C311.634 121.832 311.81 121.897 311.914 122.027C312.031 122.158 312.09 122.359 312.09 122.633V125.777H313.438C313.932 125.777 314.18 126.018 314.18 126.5C314.18 126.995 313.932 127.242 313.438 127.242H312.09V129.898C312.207 129.768 312.35 129.703 312.52 129.703C312.741 129.703 313.092 130.126 313.574 130.973C314.056 131.819 314.297 132.346 314.297 132.555C314.297 132.958 314.076 133.16 313.633 133.16C313.411 133.16 313.242 133.01 313.125 132.711L312.695 131.734L312.09 130.582V138.863C312.09 139.384 311.849 139.645 311.367 139.645C310.898 139.645 310.664 139.384 310.664 138.863V130.133C309.883 133.388 309.186 135.016 308.574 135.016C308.158 135.016 307.949 134.762 307.949 134.254ZM318.906 135.074V133.863H316.309V135.074H318.906ZM318.906 132.73V131.617H316.777C316.491 131.617 316.335 131.78 316.309 132.105V132.73H318.906ZM321.152 128.16V127.027H318.223V128.16H321.152ZM321.152 125.797V124.762H318.223V125.797H321.152ZM323.105 135.074V133.863H320.332V135.074H323.105ZM323.105 132.73V132.125C323.105 131.799 322.943 131.63 322.617 131.617H320.332V132.73H323.105ZM330.801 138.902C330.124 138.902 329.629 138.753 329.316 138.453C329.017 138.154 328.887 137.678 328.926 137.027V124.469C328.926 123.805 329.076 123.323 329.375 123.023C329.674 122.711 330.15 122.574 330.801 122.613H344.512C345.111 122.613 345.41 122.861 345.41 123.355C345.41 123.837 345.111 124.078 344.512 124.078H331.348C330.879 124.078 330.632 124.332 330.605 124.84V136.676C330.605 137.158 330.853 137.411 331.348 137.438H344.883C345.495 137.438 345.801 137.685 345.801 138.18C345.801 138.661 345.495 138.902 344.883 138.902H330.801ZM331.602 132.652C331.602 131.663 332.103 131.168 333.105 131.168H336.152C337.142 131.168 337.637 131.663 337.637 132.652V134.898C337.637 135.888 337.142 136.383 336.152 136.383H333.105C332.103 136.383 331.602 135.888 331.602 134.898V132.652ZM333.008 134.508C333.008 134.872 333.19 135.061 333.555 135.074H335.703C336.042 135.074 336.224 134.885 336.25 134.508V133.043C336.25 132.704 336.068 132.522 335.703 132.496H333.555C333.203 132.496 333.021 132.678 333.008 133.043V134.508ZM333.027 126.754C333.027 126.194 333.145 125.79 333.379 125.543C333.626 125.296 334.017 125.185 334.551 125.211H341.504C342.064 125.211 342.467 125.335 342.715 125.582C342.962 125.829 343.073 126.227 343.047 126.773V128.59C343.047 129.15 342.923 129.553 342.676 129.801C342.428 130.048 342.038 130.159 341.504 130.133H334.551C334.004 130.133 333.607 130.016 333.359 129.781C333.112 129.534 333.001 129.143 333.027 128.609V126.754ZM334.512 128.238C334.512 128.59 334.701 128.779 335.078 128.805H340.918C341.283 128.805 341.478 128.609 341.504 128.219V127.125C341.504 126.76 341.309 126.565 340.918 126.539H335.078C334.727 126.539 334.538 126.728 334.512 127.105V128.238ZM338.516 132.652C338.516 131.663 339.01 131.168 340 131.168H343.242C344.219 131.168 344.707 131.669 344.707 132.672V134.879C344.707 135.882 344.219 136.383 343.242 136.383H340C339.01 136.383 338.516 135.888 338.516 134.898V132.652ZM339.922 134.508C339.922 134.859 340.104 135.048 340.469 135.074H342.734C343.099 135.074 343.281 134.885 343.281 134.508V133.043C343.281 132.861 343.236 132.73 343.145 132.652C343.053 132.561 342.917 132.509 342.734 132.496H340.469C340.104 132.496 339.922 132.678 339.922 133.043V134.508ZM362.949 139.625C362.415 139.625 362.148 139.306 362.148 138.668V129.762H359.551L359.512 131.129C359.434 133.876 359.056 135.94 358.379 137.32C357.715 138.674 357.122 139.352 356.602 139.352C356.042 139.352 355.762 139.065 355.762 138.492C355.762 138.297 355.97 137.952 356.387 137.457C356.829 136.936 357.174 136.305 357.422 135.562C357.695 134.742 357.878 133.818 357.969 132.789C358.06 131.734 358.118 130.354 358.145 128.648L358.125 124.938C358.125 124.378 358.236 123.954 358.457 123.668C358.678 123.395 359.193 123.186 360 123.043C360.885 122.887 361.582 122.743 362.09 122.613C362.467 122.522 362.682 122.47 362.734 122.457C362.643 122.47 362.923 122.398 363.574 122.242C363.926 122.138 364.134 122.086 364.199 122.086C364.785 122.086 365.078 122.398 365.078 123.023C365.078 123.349 364.837 123.57 364.355 123.688C362.702 124.091 361.4 124.365 360.449 124.508C359.876 124.586 359.59 125.035 359.59 125.855V128.219H365.059C365.54 128.219 365.781 128.479 365.781 129C365.781 129.508 365.54 129.762 365.059 129.762H363.75V138.668C363.75 139.306 363.483 139.625 362.949 139.625ZM347.949 137.301C347.949 137.158 348.014 137.008 348.145 136.852C348.288 136.682 348.509 136.48 348.809 136.246C350.241 135.113 351.243 133.987 351.816 132.867H349.082C348.496 132.867 348.203 132.626 348.203 132.145C348.203 131.676 348.496 131.441 349.082 131.441H352.031V129.605H348.828C348.529 129.605 348.307 129.553 348.164 129.449C348.034 129.332 347.969 129.15 347.969 128.902C347.969 128.421 348.255 128.18 348.828 128.18H350.078C350.013 127.49 349.857 126.598 349.609 125.504L349.59 125.348H348.906C348.438 125.348 348.203 125.107 348.203 124.625C348.203 124.156 348.438 123.922 348.906 123.922H351.973V122.809C351.973 122.145 352.246 121.812 352.793 121.812C353.34 121.812 353.613 122.145 353.613 122.809V123.922H356.66C357.116 123.922 357.344 124.156 357.344 124.625C357.344 125.107 357.116 125.348 356.66 125.348H355.781L355.234 128.18H356.738C357.311 128.18 357.598 128.421 357.598 128.902C357.598 129.15 357.526 129.332 357.383 129.449C357.253 129.553 357.038 129.605 356.738 129.605H353.555V131.441H356.484C357.07 131.441 357.363 131.682 357.363 132.164C357.363 132.633 357.07 132.867 356.484 132.867H353.555V134.293C353.698 134.033 353.926 133.902 354.238 133.902C354.46 133.902 354.896 134.15 355.547 134.645C356.198 135.139 356.523 135.517 356.523 135.777C356.523 136.259 356.289 136.5 355.82 136.5C355.625 136.5 355.371 136.363 355.059 136.09L353.555 134.781V138.746C353.555 139.358 353.301 139.664 352.793 139.664C352.285 139.664 352.031 139.358 352.031 138.746V134.488C351.549 135.4 350.924 136.24 350.156 137.008C349.401 137.763 348.9 138.141 348.652 138.141C348.184 138.141 347.949 137.861 347.949 137.301ZM350.957 125.348C351.113 125.999 351.276 126.93 351.445 128.141V128.18H353.867L354.375 125.445V125.348H350.957ZM368.711 136.598C368.203 136.65 367.949 136.37 367.949 135.758C367.949 135.367 368.145 135.1 368.535 134.957L370.293 134.527V128.121H368.887C368.314 128.121 368.027 127.861 368.027 127.34C368.027 126.832 368.314 126.578 368.887 126.578H370.293V122.887C370.293 122.249 370.547 121.93 371.055 121.93C371.576 121.93 371.836 122.249 371.836 122.887V126.578H372.695C373.268 126.578 373.555 126.832 373.555 127.34C373.555 127.861 373.268 128.121 372.695 128.121H371.836V134.117L372.344 133.98C372.891 133.824 373.229 133.746 373.359 133.746C373.841 133.746 374.082 133.993 374.082 134.488C374.082 134.84 373.861 135.107 373.418 135.289C373.066 135.445 372.409 135.654 371.445 135.914L369.062 136.559L368.711 136.598ZM373.613 127.066C373.613 126.832 373.848 126.461 374.316 125.953C374.863 125.367 375.397 124.612 375.918 123.688C376.217 123.167 376.497 122.9 376.758 122.887C377.292 122.848 377.559 123.062 377.559 123.531C377.559 123.622 377.507 123.779 377.402 124C377.298 124.221 377.174 124.469 377.031 124.742C376.758 125.25 376.426 125.745 376.035 126.227H383.223C382.624 125.536 382.174 124.794 381.875 124C381.758 123.701 381.556 123.551 381.27 123.551H379.727C379.206 123.551 378.945 123.323 378.945 122.867C378.945 122.411 379.206 122.184 379.727 122.184H381.562C381.914 122.184 382.207 122.268 382.441 122.438C382.689 122.594 382.871 122.854 382.988 123.219C383.105 123.57 383.242 123.863 383.398 124.098C383.555 124.332 383.75 124.579 383.984 124.84C384.362 125.257 384.818 125.66 385.352 126.051C385.677 126.298 385.84 126.572 385.84 126.871C385.84 127.132 385.775 127.34 385.645 127.496C385.527 127.639 385.345 127.711 385.098 127.711C384.915 127.711 384.707 127.633 384.473 127.477C384.486 127.919 384.492 128.961 384.492 130.602C384.492 131.565 383.997 132.047 383.008 132.047H376.328C375.352 132.047 374.863 131.565 374.863 130.602V127.496C374.629 127.704 374.427 127.809 374.258 127.809C373.828 127.809 373.613 127.561 373.613 127.066ZM375.352 134.469C375.352 133.466 375.859 132.965 376.875 132.965H382.48C383.496 132.965 384.004 133.46 384.004 134.449V137.75C384.004 138.779 383.496 139.293 382.48 139.293H376.875C375.859 139.293 375.352 138.785 375.352 137.77V134.469ZM376.27 130.387C376.27 130.673 376.419 130.823 376.719 130.836H378.867V127.438H376.719C376.419 127.438 376.27 127.6 376.27 127.926V130.387ZM376.777 128.473C376.725 128.316 376.758 128.18 376.875 128.062C377.005 127.932 377.168 127.867 377.363 127.867C377.611 127.867 377.806 128.056 377.949 128.434C378.249 129.202 378.398 129.684 378.398 129.879C378.398 130.243 378.19 130.426 377.773 130.426C377.656 130.426 377.546 130.393 377.441 130.328C377.35 130.25 377.285 130.139 377.246 129.996C377.116 129.488 376.96 128.98 376.777 128.473ZM376.875 137.574C376.875 137.861 377.025 138.01 377.324 138.023H382.031C382.318 138.023 382.467 137.874 382.48 137.574V136.715H376.875V137.574ZM382.48 135.504V134.684C382.48 134.384 382.331 134.228 382.031 134.215H377.324C377.025 134.215 376.875 134.365 376.875 134.664V135.504H382.48ZM382.578 130.836C382.865 130.836 383.014 130.68 383.027 130.367V127.926C383.027 127.626 382.878 127.464 382.578 127.438H380.234V130.836H382.578ZM380.938 129.469L381.328 128.297C381.419 128.01 381.595 127.867 381.855 127.867C382.272 127.867 382.48 128.049 382.48 128.414C382.48 128.609 382.331 129.091 382.031 129.859C381.888 130.237 381.693 130.426 381.445 130.426C381.25 130.426 381.087 130.367 380.957 130.25C380.827 130.133 380.788 129.99 380.84 129.82L380.938 129.469ZM237.842 167.018C237.24 167.018 236.938 166.684 236.938 166.017V149.293C236.938 148.788 237.142 148.333 237.549 147.926C237.923 147.551 238.363 147.364 238.867 147.364H244.556C245.239 147.364 245.581 147.665 245.581 148.268C245.581 148.87 245.239 149.171 244.556 149.171H239.893C239.128 149.171 238.745 149.545 238.745 150.294V166.017C238.745 166.684 238.444 167.018 237.842 167.018ZM254.346 169.63C253.451 169.63 253.003 169.239 253.003 168.458C253.003 167.742 253.369 167.384 254.102 167.384H254.834C255.615 167.384 256.104 167.107 256.299 166.554C256.543 165.886 256.714 164.641 256.812 162.818L257.031 158.521C257.145 156.243 257.21 154.949 257.227 154.64C257.259 154.119 256.934 153.858 256.25 153.858H254.077C253.963 156.544 253.752 158.823 253.442 160.694C253.149 162.566 252.734 164.169 252.197 165.504C251.123 168.141 250.106 169.459 249.146 169.459C248.446 169.459 248.096 169.085 248.096 168.336C248.096 168.027 248.283 167.66 248.657 167.237C249.666 166.114 250.464 164.503 251.05 162.403C251.587 160.45 251.912 157.602 252.026 153.858H249.487C248.657 153.858 248.242 153.5 248.242 152.784C248.242 152.101 248.674 151.759 249.536 151.759H252.075L252.1 150.855C252.132 150.074 252.148 149.48 252.148 149.073C252.148 148.276 252.498 147.877 253.198 147.877C253.914 147.877 254.272 148.219 254.272 148.902C254.272 149.293 254.256 149.863 254.224 150.611C254.191 151.132 254.175 151.515 254.175 151.759H256.86C257.674 151.759 258.285 151.946 258.691 152.32C259.115 152.678 259.31 153.215 259.277 153.932L259.082 158.229C259.049 159.14 258.984 160.572 258.887 162.525C258.822 163.941 258.716 165.138 258.569 166.114C258.423 167.075 258.26 167.766 258.081 168.189C257.69 169.15 256.445 169.63 254.346 169.63ZM260.669 153.126C260.669 152.328 260.848 151.751 261.206 151.393C261.564 151.035 262.126 150.88 262.891 150.929H267.31C268.107 150.929 268.685 151.108 269.043 151.466C269.401 151.808 269.556 152.369 269.507 153.15V166.554C269.507 167.351 269.328 167.929 268.97 168.287C268.628 168.661 268.075 168.824 267.31 168.775H262.891C262.093 168.775 261.507 168.596 261.133 168.238C260.775 167.896 260.62 167.343 260.669 166.578V153.126ZM262.695 165.797C262.695 166.35 262.988 166.643 263.574 166.676H266.577C267.147 166.676 267.44 166.383 267.456 165.797V153.883C267.456 153.313 267.163 153.02 266.577 153.004H263.574C263.021 153.004 262.728 153.297 262.695 153.883V165.797ZM279.346 169.63C278.451 169.63 278.003 169.239 278.003 168.458C278.003 167.742 278.369 167.384 279.102 167.384H279.834C280.615 167.384 281.104 167.107 281.299 166.554C281.543 165.886 281.714 164.641 281.812 162.818L282.031 158.521C282.145 156.243 282.21 154.949 282.227 154.64C282.259 154.119 281.934 153.858 281.25 153.858H279.077C278.963 156.544 278.752 158.823 278.442 160.694C278.149 162.566 277.734 164.169 277.197 165.504C276.123 168.141 275.106 169.459 274.146 169.459C273.446 169.459 273.096 169.085 273.096 168.336C273.096 168.027 273.283 167.66 273.657 167.237C274.666 166.114 275.464 164.503 276.05 162.403C276.587 160.45 276.912 157.602 277.026 153.858H274.487C273.657 153.858 273.242 153.5 273.242 152.784C273.242 152.101 273.674 151.759 274.536 151.759H277.075L277.1 150.855C277.132 150.074 277.148 149.48 277.148 149.073C277.148 148.276 277.498 147.877 278.198 147.877C278.914 147.877 279.272 148.219 279.272 148.902C279.272 149.293 279.256 149.863 279.224 150.611C279.191 151.132 279.175 151.515 279.175 151.759H281.86C282.674 151.759 283.285 151.946 283.691 152.32C284.115 152.678 284.31 153.215 284.277 153.932L284.082 158.229C284.049 159.14 283.984 160.572 283.887 162.525C283.822 163.941 283.716 165.138 283.569 166.114C283.423 167.075 283.26 167.766 283.081 168.189C282.69 169.15 281.445 169.63 279.346 169.63ZM285.669 153.126C285.669 152.328 285.848 151.751 286.206 151.393C286.564 151.035 287.126 150.88 287.891 150.929H292.31C293.107 150.929 293.685 151.108 294.043 151.466C294.401 151.808 294.556 152.369 294.507 153.15V166.554C294.507 167.351 294.328 167.929 293.97 168.287C293.628 168.661 293.075 168.824 292.31 168.775H287.891C287.093 168.775 286.507 168.596 286.133 168.238C285.775 167.896 285.62 167.343 285.669 166.578V153.126ZM287.695 165.797C287.695 166.35 287.988 166.643 288.574 166.676H291.577C292.147 166.676 292.44 166.383 292.456 165.797V153.883C292.456 153.313 292.163 153.02 291.577 153.004H288.574C288.021 153.004 287.728 153.297 287.695 153.883V165.797ZM302.808 170.143C302.205 170.143 301.904 169.776 301.904 169.044V159.425C300.83 162.989 299.862 164.771 298.999 164.771C298.706 164.771 298.494 164.706 298.364 164.576C298.25 164.446 298.193 164.202 298.193 163.844C298.193 163.567 298.34 163.225 298.633 162.818C299.984 160.898 300.977 158.57 301.611 155.836H299.414C298.796 155.836 298.486 155.543 298.486 154.957C298.486 154.355 298.796 154.054 299.414 154.054H301.904V150.855C300.667 151.018 299.797 151.1 299.292 151.1C298.706 151.1 298.413 150.815 298.413 150.245C298.413 150.034 298.47 149.871 298.584 149.757C298.698 149.627 298.893 149.545 299.17 149.513C300.098 149.399 301.082 149.252 302.124 149.073C303.166 148.878 303.971 148.707 304.541 148.561C304.915 148.463 305.2 148.414 305.396 148.414C305.705 148.414 305.941 148.487 306.104 148.634C306.283 148.764 306.372 148.951 306.372 149.195C306.372 149.505 306.16 149.773 305.737 150.001C305.314 150.213 304.647 150.4 303.735 150.562V154.054H305.42C306.022 154.054 306.323 154.355 306.323 154.957C306.323 155.543 306.022 155.836 305.42 155.836H303.735V158.888C303.882 158.692 304.061 158.595 304.272 158.595C304.598 158.595 305.078 159.042 305.713 159.938C306.348 160.865 306.665 161.427 306.665 161.622C306.665 162.143 306.421 162.403 305.933 162.403C305.656 162.403 305.387 162.2 305.127 161.793L303.735 159.718V169.044C303.735 169.776 303.426 170.143 302.808 170.143ZM305.054 169.166C305.054 168.727 305.265 168.458 305.688 168.36L306.543 168.189C307.422 168.027 308.073 167.88 308.496 167.75C308.919 167.636 309.448 167.457 310.083 167.213C310.229 167.148 310.449 167.066 310.742 166.969L310.913 166.944C311.19 166.912 311.401 166.977 311.548 167.14C311.694 167.302 311.768 167.53 311.768 167.823C311.768 168.23 310.962 168.702 309.351 169.239C307.772 169.76 306.616 170.021 305.884 170.021C305.33 170.021 305.054 169.736 305.054 169.166ZM306.128 155.934C306.128 155.462 306.413 155.226 306.982 155.226H312.109V153.858H308.057C307.536 153.858 307.275 153.622 307.275 153.15C307.275 152.678 307.536 152.442 308.057 152.442H312.109V151.148H307.3C306.746 151.148 306.47 150.904 306.47 150.416C306.47 149.944 306.746 149.708 307.3 149.708H312.109V148.731C312.109 148.113 312.419 147.804 313.037 147.804C313.672 147.804 313.989 148.113 313.989 148.731V149.708H319.214C319.784 149.708 320.068 149.952 320.068 150.44C320.068 150.912 319.784 151.148 319.214 151.148H313.989V152.442H318.018C318.555 152.442 318.823 152.678 318.823 153.15C318.823 153.622 318.555 153.858 318.018 153.858H313.989V155.226H319.58C320.133 155.226 320.41 155.47 320.41 155.958C320.41 156.43 320.133 156.666 319.58 156.666H306.982C306.689 156.666 306.47 156.609 306.323 156.495C306.193 156.381 306.128 156.194 306.128 155.934ZM307.202 159.645C307.202 158.375 307.837 157.74 309.106 157.74H317.188C318.49 157.74 319.141 158.375 319.141 159.645V164.771C319.141 166.057 318.49 166.7 317.188 166.7H309.106C307.837 166.7 307.202 166.082 307.202 164.845V159.645ZM309.058 164.674C309.058 165.097 309.261 165.309 309.668 165.309H316.675C317.098 165.309 317.31 165.097 317.31 164.674V164.039H309.058V164.674ZM317.31 162.745V161.549H309.058V162.745H317.31ZM317.31 160.255V159.767C317.31 159.343 317.098 159.132 316.675 159.132H309.668C309.261 159.132 309.058 159.343 309.058 159.767V160.255H317.31ZM314.307 167.774C314.307 167.237 314.608 166.969 315.21 166.969C315.34 166.969 315.552 167.034 315.845 167.164C317.017 167.685 318.213 168.051 319.434 168.263C320.117 168.393 320.459 168.678 320.459 169.117C320.459 169.703 320.142 169.996 319.507 169.996C319.084 169.996 318.14 169.728 316.675 169.19C315.096 168.604 314.307 168.132 314.307 167.774ZM334.277 170.069C333.577 170.069 333.228 169.646 333.228 168.8V157.032C332.544 158.22 331.665 159.514 330.591 160.914C329.533 162.314 328.451 163.591 327.344 164.747C325.96 166.196 324.967 166.92 324.365 166.92C323.991 166.92 323.714 166.83 323.535 166.651C323.372 166.472 323.291 166.179 323.291 165.772C323.291 165.317 323.568 164.894 324.121 164.503C327.702 161.866 330.526 158.611 332.593 154.737H324.854C324.023 154.737 323.608 154.404 323.608 153.736C323.608 153.069 324.023 152.735 324.854 152.735H333.228V149.195C333.228 148.333 333.577 147.901 334.277 147.901C334.945 147.901 335.278 148.333 335.278 149.195V152.735H343.896C344.727 152.735 345.142 153.069 345.142 153.736C345.142 154.404 344.727 154.737 343.896 154.737H335.913C336.743 156.576 337.931 158.359 339.478 160.084C340.975 161.76 342.586 163.144 344.312 164.234C345.076 164.723 345.459 165.178 345.459 165.602C345.459 166.415 345.085 166.822 344.336 166.822C343.571 166.822 342.228 165.838 340.308 163.868C339.51 163.054 338.656 162.029 337.744 160.792C336.833 159.539 336.011 158.277 335.278 157.008V168.8C335.278 169.239 335.197 169.557 335.034 169.752C334.871 169.964 334.619 170.069 334.277 170.069ZM349.194 170.631C348.494 170.631 348.145 170.33 348.145 169.728C348.145 169.418 348.226 169.19 348.389 169.044C348.568 168.897 348.836 168.824 349.194 168.824H353.857C354.606 168.824 354.98 168.442 354.98 167.677V152.003C354.98 151.303 355.282 150.953 355.884 150.953C356.486 150.953 356.787 151.303 356.787 152.003V168.702C356.787 169.256 356.576 169.728 356.152 170.118C355.794 170.46 355.363 170.631 354.858 170.631H349.194ZM378.711 168.824C378.555 168.824 378.372 168.74 378.164 168.57C377.956 168.414 377.741 168.173 377.52 167.848L377.168 167.438C376.973 167.203 376.875 167.014 376.875 166.871C376.875 166.402 377.129 166.168 377.637 166.168C377.949 166.168 378.346 166.428 378.828 166.949C379.31 167.47 379.551 167.841 379.551 168.062C379.551 168.57 379.271 168.824 378.711 168.824ZM373.066 165.289C373.066 164.833 373.333 164.605 373.867 164.605H385V163.277C381.341 163.486 377.721 163.655 374.141 163.785C373.854 163.798 373.633 163.746 373.477 163.629C373.333 163.512 373.262 163.342 373.262 163.121C373.262 162.665 373.516 162.431 374.023 162.418C374.818 162.392 376.061 162.366 377.754 162.34C378.444 162.314 379.492 162.288 380.898 162.262V161.227H376.211C375.612 161.227 375.176 161.096 374.902 160.836C374.642 160.576 374.531 160.159 374.57 159.586V156.988C374.57 156.402 374.701 155.979 374.961 155.719C375.221 155.445 375.638 155.328 376.211 155.367H380.898V154.508H373.848C373.587 154.508 373.392 154.456 373.262 154.352C373.145 154.247 373.086 154.078 373.086 153.844C373.086 153.401 373.34 153.18 373.848 153.18H380.898V152.477C380.898 151.982 381.159 151.734 381.68 151.734C382.201 151.734 382.461 151.982 382.461 152.477V153.18H389.688C390.195 153.18 390.449 153.401 390.449 153.844C390.449 154.286 390.195 154.508 389.688 154.508H382.461V155.367H387.305C387.891 155.367 388.314 155.497 388.574 155.758C388.835 156.005 388.952 156.415 388.926 156.988V159.586C388.926 160.172 388.796 160.602 388.535 160.875C388.288 161.135 387.878 161.253 387.305 161.227H387.285C387.663 161.409 388.079 161.637 388.535 161.91C389.004 162.171 389.408 162.405 389.746 162.613C390.085 162.822 390.254 163.056 390.254 163.316C390.254 163.551 390.189 163.733 390.059 163.863C389.928 163.993 389.759 164.059 389.551 164.059C389.447 164.059 389.303 164.007 389.121 163.902C388.939 163.785 388.542 163.525 387.93 163.121C387.617 163.147 387.161 163.173 386.562 163.199V164.605H389.961C390.469 164.605 390.723 164.833 390.723 165.289C390.723 165.745 390.469 165.973 389.961 165.973H386.562V168.141C386.562 168.609 386.432 168.967 386.172 169.215C385.924 169.475 385.566 169.605 385.098 169.605H382.832C382.259 169.605 381.973 169.365 381.973 168.883C381.973 168.622 382.038 168.427 382.168 168.297C382.311 168.18 382.533 168.121 382.832 168.121H384.512C384.837 168.121 385 167.958 385 167.633V165.973H373.867C373.333 165.973 373.066 165.745 373.066 165.289ZM376.133 159.488C376.133 159.814 376.296 159.977 376.621 159.977H380.898V158.883H376.133V159.488ZM380.898 157.672V156.617H376.621C376.296 156.617 376.133 156.78 376.133 157.105V157.672H380.898ZM386.406 162.145C386.146 161.949 386.016 161.754 386.016 161.559C386.016 161.533 386.029 161.467 386.055 161.363C386.081 161.298 386.107 161.253 386.133 161.227H382.461V162.223L386.406 162.145ZM386.875 159.977C387.201 159.977 387.363 159.814 387.363 159.488V158.883H382.461V159.977H386.875ZM387.363 157.672V157.105C387.363 156.78 387.201 156.617 386.875 156.617H382.461V157.672H387.363ZM395.801 168.902C395.124 168.902 394.629 168.753 394.316 168.453C394.017 168.154 393.887 167.678 393.926 167.027V154.469C393.926 153.805 394.076 153.323 394.375 153.023C394.674 152.711 395.15 152.574 395.801 152.613H409.512C410.111 152.613 410.41 152.861 410.41 153.355C410.41 153.837 410.111 154.078 409.512 154.078H396.348C395.879 154.078 395.632 154.332 395.605 154.84V166.676C395.605 167.158 395.853 167.411 396.348 167.438H409.883C410.495 167.438 410.801 167.685 410.801 168.18C410.801 168.661 410.495 168.902 409.883 168.902H395.801ZM396.602 162.652C396.602 161.663 397.103 161.168 398.105 161.168H401.152C402.142 161.168 402.637 161.663 402.637 162.652V164.898C402.637 165.888 402.142 166.383 401.152 166.383H398.105C397.103 166.383 396.602 165.888 396.602 164.898V162.652ZM398.008 164.508C398.008 164.872 398.19 165.061 398.555 165.074H400.703C401.042 165.074 401.224 164.885 401.25 164.508V163.043C401.25 162.704 401.068 162.522 400.703 162.496H398.555C398.203 162.496 398.021 162.678 398.008 163.043V164.508ZM398.027 156.754C398.027 156.194 398.145 155.79 398.379 155.543C398.626 155.296 399.017 155.185 399.551 155.211H406.504C407.064 155.211 407.467 155.335 407.715 155.582C407.962 155.829 408.073 156.227 408.047 156.773V158.59C408.047 159.15 407.923 159.553 407.676 159.801C407.428 160.048 407.038 160.159 406.504 160.133H399.551C399.004 160.133 398.607 160.016 398.359 159.781C398.112 159.534 398.001 159.143 398.027 158.609V156.754ZM399.512 158.238C399.512 158.59 399.701 158.779 400.078 158.805H405.918C406.283 158.805 406.478 158.609 406.504 158.219V157.125C406.504 156.76 406.309 156.565 405.918 156.539H400.078C399.727 156.539 399.538 156.728 399.512 157.105V158.238ZM403.516 162.652C403.516 161.663 404.01 161.168 405 161.168H408.242C409.219 161.168 409.707 161.669 409.707 162.672V164.879C409.707 165.882 409.219 166.383 408.242 166.383H405C404.01 166.383 403.516 165.888 403.516 164.898V162.652ZM404.922 164.508C404.922 164.859 405.104 165.048 405.469 165.074H407.734C408.099 165.074 408.281 164.885 408.281 164.508V163.043C408.281 162.861 408.236 162.73 408.145 162.652C408.053 162.561 407.917 162.509 407.734 162.496H405.469C405.104 162.496 404.922 162.678 404.922 163.043V164.508Z" fill="black" fill-opacity="0.8"/>
</svg>
