<svg width="50" height="59" viewBox="0 0 50 59" fill="none" xmlns="http://www.w3.org/2000/svg">
<path d="M13.8088 46.0778L13.8093 46.0792C16.444 52.9427 22.8493 57.5 30.029 57.5C39.7644 57.5 47.55 49.3137 47.55 39.3333V17.9792C47.55 16.9094 47.1421 15.8721 46.3982 15.0982C45.6524 14.3224 44.628 13.875 43.5467 13.875C42.4654 13.875 41.441 14.3224 40.6952 15.0982C40.642 15.1536 40.5906 15.2103 40.5408 15.2682V11.7292C40.5408 10.6594 40.1329 9.62206 39.389 8.84824C38.6433 8.0724 37.6188 7.625 36.5376 7.625C35.4563 7.625 34.4319 8.0724 33.6861 8.84824C33.6329 8.90358 33.5814 8.96027 33.5317 9.01822V8.60417C33.5317 7.53438 33.1237 6.49706 32.3799 5.72324C31.6341 4.9474 30.6097 4.5 29.5284 4.5C28.4471 4.5 27.4227 4.9474 26.6769 5.72324C25.9331 6.49706 25.5251 7.53438 25.5251 8.60417V10.0599C25.4754 10.0019 25.4239 9.94524 25.3707 9.8899C24.6249 9.11407 23.6005 8.66667 22.5192 8.66667C21.4379 8.66667 20.4135 9.11407 19.6677 9.8899C18.9239 10.6637 18.516 11.701 18.516 12.7708V33.0767L17.0909 29.359L17.0904 29.3575C16.4966 27.8133 15.2495 26.5824 13.6883 26.0585L12.1109 25.5184L12.108 25.5174C11.4664 25.2992 10.7763 25.2754 10.121 25.4497C9.46621 25.6238 8.88088 25.9864 8.42973 26.486C7.97908 26.985 7.67991 27.6009 7.55965 28.259C7.43943 28.917 7.50152 29.5976 7.74061 30.2231L7.74084 30.2237L13.8088 46.0778Z" fill="#8FC4F2" stroke="#8FC4F2" stroke-width="3"/>
<path d="M10.3418 44.2566L10.3425 44.2584C13.0477 51.3056 19.6322 56 27.029 56C37.0589 56 45.05 47.571 45.05 37.3333V15.9792C45.05 14.783 44.594 13.6207 43.7587 12.7517C42.9208 11.8801 41.7671 11.375 40.5467 11.375C39.6407 11.375 38.7714 11.6534 38.0408 12.1535V9.72917C38.0408 8.53301 37.5848 7.37071 36.7495 6.50174C35.9116 5.63008 34.758 5.125 33.5376 5.125C32.6117 5.125 31.7243 5.41568 30.9841 5.93655C30.8473 4.98242 30.419 4.08276 29.7403 3.37674C28.9025 2.50508 27.7488 2 26.5284 2C25.308 2 24.1543 2.50508 23.3164 3.37674C22.4811 4.2457 22.0251 5.408 22.0251 6.60417V6.94517C21.2946 6.44506 20.4253 6.16667 19.5192 6.16667C18.2988 6.16667 17.1452 6.67175 16.3073 7.5434C15.472 8.41237 15.016 9.57467 15.016 10.7708V28.3753L14.5578 27.18L14.5571 27.1781C13.9122 25.501 12.5565 24.1586 10.8489 23.5849L9.27283 23.0453L9.26904 23.044C8.53416 22.7941 7.74325 22.7668 6.99246 22.9665C6.24234 23.166 5.5733 23.5809 5.05864 24.1509C4.54463 24.7201 4.20445 25.4213 4.0678 26.1692C3.93119 26.9169 4.00166 27.6903 4.27357 28.4016L4.27387 28.4024L10.3418 44.2566Z" fill="white" stroke="#1E88E5" stroke-width="4"/>
<rect x="21" y="33" width="5.2" height="5.45455" fill="#F44336"/>
<path d="M28.7998 35.6C28.7998 34.1641 29.9639 33 31.3998 33V33C32.8357 33 33.9998 34.1641 33.9998 35.6V41.1818H28.7998V35.6Z" fill="#4CAF50"/>
<ellipse cx="23.6" cy="43.9091" rx="2.6" ry="2.72727" fill="#FFC107"/>
<path d="M31.3998 42.5455L33.6515 46.6364H29.1481L31.3998 42.5455Z" fill="#1E88E5"/>
</svg>
