<svg width="54" height="51" viewBox="0 0 54 51" fill="none" xmlns="http://www.w3.org/2000/svg">
<path d="M47.7665 35.7266L33.5014 20.5993C31.3305 18.2972 27.6695 18.2972 25.4986 20.5993L11.2335 35.7266C7.92483 39.2352 10.4123 45 15.2349 45H43.7651C48.5877 45 51.0752 39.2352 47.7665 35.7266Z" fill="#FAA19B" stroke="#FAA19B" stroke-width="5"/>
<path d="M42.7665 36.7266L28.5014 21.5993C26.3305 19.2972 22.6695 19.2972 20.4986 21.5993L6.23346 36.7266C2.92483 40.2352 5.41229 46 10.2349 46H38.7651C43.5877 46 46.0752 40.2352 42.7665 36.7266Z" fill="white" stroke="#F44336" stroke-width="5"/>
<rect x="18" y="29" width="4.8" height="4.72727" fill="#F44336"/>
<path d="M25.2 31.4C25.2 30.0745 26.2745 29 27.6 29C28.9254 29 30 30.0745 30 31.4V36.0909H25.2V31.4Z" fill="#4CAF50"/>
<ellipse cx="20.4" cy="38.4546" rx="2.4" ry="2.36364" fill="#FFC107"/>
<path d="M27.6 37.2727L29.6784 40.8182H25.5215L27.6 37.2727Z" fill="#1E88E5"/>
<path d="M40.9037 4.098e-06C42.5693 2.43176e-06 43.5051 1.91671 42.4807 3.23003L40.4594 5.82161C39.8955 6.54467 39.8955 7.55861 40.4594 8.28166L42.4807 10.8732C43.5051 12.1866 42.5693 14.1033 40.9037 14.1033H26.8334C25.7288 14.1033 24.8334 13.2078 24.8334 12.1033V2.00002C24.8334 0.895452 25.7288 1.92791e-05 26.8334 1.81741e-05L40.9037 4.098e-06Z" fill="#FAA19B"/>
<path d="M38.0484 4.19596e-06C39.6875 2.45551e-06 40.6306 1.86348 39.66 3.18431L37.6885 5.86733C37.1707 6.57197 37.1707 7.5313 37.6885 8.23594L39.66 10.919C40.6306 12.2398 39.6875 14.1033 38.0484 14.1033H25C23.8954 14.1033 23 13.2078 23 12.1033V2.00002C23 0.895452 23.8954 1.92241e-05 25 1.80512e-05L38.0484 4.19596e-06Z" fill="#F44336"/>
<path d="M25 9V19" stroke="#F44336" stroke-width="4" stroke-linecap="round"/>
</svg>
