<svg width="60" height="60" viewBox="0 0 60 60" fill="none" xmlns="http://www.w3.org/2000/svg">
<circle cx="30" cy="30" r="21" fill="white" stroke="#F44336" stroke-width="3"/>
<circle cx="30" cy="30" r="27.5" stroke="#F44336" stroke-width="5"/>
<path d="M43.5977 28.8669H41.9922C41.8398 28.8669 41.7227 28.9841 41.7227 29.1365V31.0115H39.5781V20.5642C39.5781 20.4119 39.4609 20.2947 39.3086 20.2947H37.7031C37.5508 20.2947 37.4336 20.4119 37.4336 20.5642V22.4392H35.2891V20.5642C35.2891 20.4119 35.1719 20.2947 35.0195 20.2947H33.4141C33.2617 20.2947 33.1445 20.4119 33.1445 20.5642V22.4392H31V20.5642C31 20.2126 30.5313 20.2947 30.3145 20.2947V18.0681C30.8008 17.9509 31.3164 17.8689 31.8203 17.8689C32.459 17.8689 33.0449 18.1209 33.6602 18.1209C33.9297 18.1209 35.2832 18.0564 35.2832 17.6521V14.1365C35.2832 13.9841 35.166 13.8669 35.0137 13.8669C34.7148 13.8669 34.1289 14.1189 33.6074 14.1189C33.0391 14.1189 32.3828 13.8669 31.6973 13.8669C31.2285 13.8669 30.7598 13.9314 30.3086 14.0369V13.7498C30.625 13.5974 30.8418 13.2634 30.8418 12.9119C30.8418 11.699 29.002 11.6931 29.002 12.9119C29.002 13.2634 29.2188 13.5974 29.5352 13.7498V20.2947C29.3184 20.2947 28.8496 20.2126 28.8496 20.5642V22.4392H26.7051V20.5642C26.7051 20.4119 26.5879 20.2947 26.4355 20.2947H24.8301C24.6777 20.2947 24.5605 20.4119 24.5605 20.5642V22.4392H22.4336V20.5642C22.4336 20.4119 22.3164 20.2947 22.1641 20.2947H20.5586C20.4063 20.2947 20.2891 20.4119 20.2891 20.5642V31.0115H18.1445V29.1365C18.1445 28.9841 18.0273 28.8669 17.875 28.8669H16.2695C16.1172 28.8669 16 28.9841 16 29.1365V41.9978H26.7168V36.3728C26.7168 32.1189 33.1445 32.1189 33.1445 36.3728V41.9978H43.8613V29.1365C43.8672 28.9841 43.75 28.8669 43.5977 28.8669ZM26.7168 28.6033C26.7168 28.7556 26.5996 28.8728 26.4473 28.8728H24.8418C24.6895 28.8728 24.5723 28.7556 24.5723 28.6033V24.8533C24.5723 24.7009 24.6895 24.5837 24.8418 24.5837H26.4473C26.5996 24.5837 26.7168 24.7009 26.7168 24.8533V28.6033ZM35.2949 28.6033C35.2949 28.7556 35.1777 28.8728 35.0254 28.8728H33.4199C33.2676 28.8728 33.1504 28.7556 33.1504 28.6033V24.8533C33.1504 24.7009 33.2676 24.5837 33.4199 24.5837H35.0254C35.1777 24.5837 35.2949 24.7009 35.2949 24.8533V28.6033Z" fill="#F44336"/>
<circle cx="32.8889" cy="16" r="1.5" fill="white"/>
<path d="M31.9889 15.1001H32.7185V15.8297H31.9889V15.1001Z" fill="#F44336"/>
<path d="M33.0831 15.4512C33.0831 15.2573 33.2465 15.1001 33.4479 15.1001C33.6494 15.1001 33.8127 15.2573 33.8127 15.4512V16.1945H33.0831V15.4512Z" fill="#4CAF50"/>
<path d="M32.3537 16.9239C32.5552 16.9239 32.7185 16.7606 32.7185 16.5591C32.7185 16.3577 32.5552 16.1943 32.3537 16.1943C32.1522 16.1943 31.9889 16.3577 31.9889 16.5591C31.9889 16.7606 32.1522 16.9239 32.3537 16.9239Z" fill="#FFC107"/>
<path d="M33.448 16.377L33.7639 16.9241H33.1321L33.448 16.377Z" fill="#1E88E5"/>
</svg>
