<svg width="51" height="45" viewBox="0 0 51 45" fill="none" xmlns="http://www.w3.org/2000/svg">
<mask id="path-1-outside-1_390_3336" maskUnits="userSpaceOnUse" x="21" y="2" width="30" height="43" fill="black">
<rect fill="white" x="21" y="2" width="30" height="43"/>
<path fill-rule="evenodd" clip-rule="evenodd" d="M40.3281 27.2167C44.3475 25.3951 47.1449 21.3356 47.1449 16.62C47.1449 10.2025 41.9637 5 35.5724 5C29.1812 5 24 10.2025 24 16.62C24 21.3349 26.7966 25.3939 30.815 27.2159L24.5999 38.0249C23.8333 39.3583 24.7957 41.0219 26.3338 41.0219H44.8088C46.3469 41.0219 47.3093 39.3583 46.5427 38.0249L40.3281 27.2167Z"/>
</mask>
<path fill-rule="evenodd" clip-rule="evenodd" d="M40.3281 27.2167C44.3475 25.3951 47.1449 21.3356 47.1449 16.62C47.1449 10.2025 41.9637 5 35.5724 5C29.1812 5 24 10.2025 24 16.62C24 21.3349 26.7966 25.3939 30.815 27.2159L24.5999 38.0249C23.8333 39.3583 24.7957 41.0219 26.3338 41.0219H44.8088C46.3469 41.0219 47.3093 39.3583 46.5427 38.0249L40.3281 27.2167Z" fill="#A6D7A8"/>
<path d="M40.3281 27.2167L39.0897 24.4842L36.0805 25.8479L37.7273 28.7121L40.3281 27.2167ZM30.815 27.2159L33.4157 28.7112L35.0623 25.8476L32.0538 24.4836L30.815 27.2159ZM24.5999 38.0249L27.2007 39.5203L27.2007 39.5203L24.5999 38.0249ZM46.5427 38.0249L43.9419 39.5203L46.5427 38.0249ZM44.1449 16.62C44.1449 20.1205 42.071 23.1331 39.0897 24.4842L41.5664 29.9492C46.6239 27.6571 50.1449 22.5507 50.1449 16.62H44.1449ZM35.5724 8C40.2953 8 44.1449 11.8477 44.1449 16.62H50.1449C50.1449 8.55723 43.6322 2 35.5724 2V8ZM27 16.62C27 11.8477 30.8496 8 35.5724 8V2C27.5127 2 21 8.55723 21 16.62H27ZM32.0538 24.4836C29.0732 23.1322 27 20.1199 27 16.62H21C21 22.5498 24.5199 27.6556 29.5762 29.9481L32.0538 24.4836ZM27.2007 39.5203L33.4157 28.7112L28.2143 25.7205L21.9992 36.5295L27.2007 39.5203ZM26.3338 38.0219C27.1028 38.0219 27.584 38.8536 27.2007 39.5203L21.9992 36.5295C20.0826 39.8629 22.4887 44.0219 26.3338 44.0219V38.0219ZM44.8088 38.0219H26.3338V44.0219H44.8088V38.0219ZM43.9419 39.5203C43.5586 38.8536 44.0398 38.0219 44.8088 38.0219V44.0219C48.6539 44.0219 51.06 39.8629 49.1434 36.5295L43.9419 39.5203ZM37.7273 28.7121L43.9419 39.5203L49.1434 36.5295L42.9288 25.7213L37.7273 28.7121Z" fill="#A6D7A8" mask="url(#path-1-outside-1_390_3336)"/>
<mask id="path-3-outside-2_390_3336" maskUnits="userSpaceOnUse" x="18" y="0" width="30" height="43" fill="black">
<rect fill="white" x="18" width="30" height="43"/>
<path fill-rule="evenodd" clip-rule="evenodd" d="M37.3281 25.2167C41.3475 23.3951 44.1449 19.3356 44.1449 14.62C44.1449 8.20246 38.9637 3 32.5724 3C26.1812 3 21 8.20246 21 14.62C21 19.3349 23.7966 23.3939 27.815 25.2159L21.5999 36.0249C20.8333 37.3583 21.7957 39.0219 23.3338 39.0219H41.8088C43.3469 39.0219 44.3093 37.3583 43.5427 36.0249L37.3281 25.2167Z"/>
</mask>
<path fill-rule="evenodd" clip-rule="evenodd" d="M37.3281 25.2167C41.3475 23.3951 44.1449 19.3356 44.1449 14.62C44.1449 8.20246 38.9637 3 32.5724 3C26.1812 3 21 8.20246 21 14.62C21 19.3349 23.7966 23.3939 27.815 25.2159L21.5999 36.0249C20.8333 37.3583 21.7957 39.0219 23.3338 39.0219H41.8088C43.3469 39.0219 44.3093 37.3583 43.5427 36.0249L37.3281 25.2167Z" fill="white"/>
<path d="M37.3281 25.2167L36.0897 22.4842L33.0805 23.8479L34.7273 26.7121L37.3281 25.2167ZM27.815 25.2159L30.4157 26.7112L32.0623 23.8476L29.0538 22.4836L27.815 25.2159ZM21.5999 36.0249L24.2007 37.5203L24.2007 37.5203L21.5999 36.0249ZM43.5427 36.0249L40.9419 37.5203L43.5427 36.0249ZM41.1449 14.62C41.1449 18.1205 39.071 21.1331 36.0897 22.4842L38.5664 27.9492C43.6239 25.6571 47.1449 20.5507 47.1449 14.62H41.1449ZM32.5724 6C37.2953 6 41.1449 9.8477 41.1449 14.62H47.1449C47.1449 6.55723 40.6322 3.09944e-06 32.5724 3.09944e-06V6ZM24 14.62C24 9.8477 27.8496 6 32.5724 6V3.09944e-06C24.5127 3.09944e-06 18 6.55723 18 14.62H24ZM29.0538 22.4836C26.0732 21.1322 24 18.1199 24 14.62H18C18 20.5498 21.5199 25.6556 26.5762 27.9481L29.0538 22.4836ZM24.2007 37.5203L30.4157 26.7112L25.2143 23.7205L18.9992 34.5295L24.2007 37.5203ZM23.3338 36.0219C24.1028 36.0219 24.584 36.8536 24.2007 37.5203L18.9992 34.5295C17.0826 37.8629 19.4887 42.0219 23.3338 42.0219V36.0219ZM41.8088 36.0219H23.3338V42.0219H41.8088V36.0219ZM40.9419 37.5203C40.5586 36.8536 41.0398 36.0219 41.8088 36.0219V42.0219C45.6539 42.0219 48.06 37.8629 46.1434 34.5295L40.9419 37.5203ZM34.7273 26.7121L40.9419 37.5203L46.1434 34.5295L39.9288 23.7213L34.7273 26.7121Z" fill="#4CAF50" mask="url(#path-3-outside-2_390_3336)"/>
<ellipse cx="9.96315" cy="26" rx="8.96315" ry="9" fill="#A6D7A8"/>
<path d="M16.4263 25C16.4263 29.1479 13.0791 32.5 8.96314 32.5C4.84716 32.5 1.5 29.1479 1.5 25C1.5 20.8521 4.84716 17.5 8.96314 17.5C13.0791 17.5 16.4263 20.8521 16.4263 25Z" fill="white" stroke="#4CAF50" stroke-width="3"/>
<rect x="6" y="22" width="2.4" height="2.54545" fill="#F44336"/>
<path d="M9.6001 23.2C9.6001 22.5373 10.1374 22 10.8001 22C11.4628 22 12.0001 22.5373 12.0001 23.2V25.8182H9.6001V23.2Z" fill="#4CAF50"/>
<ellipse cx="7.2" cy="27.0909" rx="1.2" ry="1.27273" fill="#FFC107"/>
<path d="M10.8001 26.4546L11.8393 28.3637H9.76087L10.8001 26.4546Z" fill="#1E88E5"/>
</svg>
