<svg width="58" height="58" viewBox="0 0 58 58" fill="none" xmlns="http://www.w3.org/2000/svg">
<circle cx="29" cy="29" r="20.0226" transform="rotate(16.9927 29 29)" fill="white" stroke="#FFC107" stroke-width="3"/>
<circle cx="28.9999" cy="29" r="26.3364" stroke="#FFC107" stroke-width="5"/>
<path d="M26.6406 38.4729L26.3631 38.3342L26.3605 38.3329C25.144 37.7276 23.825 37.3416 22.4616 37.2069C22.4612 37.2068 22.4609 37.2068 22.4605 37.2068L17.6125 36.722C17.612 36.7219 17.6115 36.7219 17.611 36.7218C17.5446 36.7142 17.5 36.6595 17.5 36.6002V26.3313C17.5 26.2643 17.5518 26.2125 17.6187 26.2125H19.1515C21.8038 26.2125 24.3962 26.9578 26.6406 28.3524V38.4729ZM31.5347 38.3302L31.2594 38.4685V28.3524C33.5038 26.9578 36.0962 26.2125 38.7485 26.2125H40.2812C40.3482 26.2125 40.4 26.2643 40.4 26.3313V36.6002C40.4 36.6281 40.3904 36.6547 40.369 36.6783C40.3476 36.7019 40.3228 36.7134 40.2966 36.716L40.2939 36.7163L35.4389 37.2018C34.0814 37.3364 32.757 37.722 31.5395 38.3278L31.5347 38.3302ZM25.5938 19.8562C25.5938 18.9661 25.9474 18.1124 26.5768 17.483C27.2062 16.8536 28.0599 16.5 28.95 16.5C29.8401 16.5 30.6938 16.8536 31.3232 17.483C31.9526 18.1124 32.3062 18.9661 32.3062 19.8562C32.3062 20.7464 31.9526 21.6001 31.3232 22.2295C30.6938 22.8589 29.8401 23.2125 28.95 23.2125C28.0599 23.2125 27.2062 22.8589 26.5768 22.2295C25.9474 21.6001 25.5938 20.7464 25.5938 19.8562Z" fill="white" stroke="#FFC107" stroke-width="3"/>
<path d="M34.3806 30.8743H35.7088V32.2024H34.3806V30.8743Z" fill="#F44336"/>
<path d="M36.3729 31.5134C36.3729 31.1604 36.6702 30.8743 37.037 30.8743C37.4037 30.8743 37.701 31.1604 37.701 31.5134V32.8666H36.3729V31.5134Z" fill="#4CAF50"/>
<path d="M35.0446 34.1949C35.4114 34.1949 35.7087 33.8976 35.7087 33.5308C35.7087 33.164 35.4114 32.8667 35.0446 32.8667C34.6779 32.8667 34.3806 33.164 34.3806 33.5308C34.3806 33.8976 34.6779 34.1949 35.0446 34.1949Z" fill="#FFC107"/>
<path d="M37.037 33.1987L37.6121 34.1949H36.4619L37.037 33.1987Z" fill="#1E88E5"/>
</svg>
