<svg width="2275" height="60" viewBox="0 0 2275 60" fill="none" xmlns="http://www.w3.org/2000/svg">
<rect width="1280" height="60" fill="#1E88E5"/>
<rect x="15" y="10" width="40" height="40" rx="5" fill="white"/>
<path d="M86.4645 13.5355C88.4171 11.5829 91.5829 11.5829 93.5355 13.5355L106.464 26.4645C108.417 28.4171 108.417 31.5829 106.464 33.5355L93.5355 46.4645C91.5829 48.4171 88.4171 48.4171 86.4645 46.4645L73.5355 33.5355C71.5829 31.5829 71.5829 28.4171 73.5355 26.4645L86.4645 13.5355Z" fill="#F44336"/>
<rect x="125" y="10" width="40" height="40" rx="5" fill="white"/>
<path d="M196.464 13.5355C198.417 11.5829 201.583 11.5829 203.536 13.5355L216.464 26.4645C218.417 28.4171 218.417 31.5829 216.464 33.5355L203.536 46.4645C201.583 48.4171 198.417 48.4171 196.464 46.4645L183.536 33.5355C181.583 31.5829 181.583 28.4171 183.536 26.4645L196.464 13.5355Z" fill="#FFC107"/>
<rect x="235" y="10" width="40" height="40" rx="5" fill="white"/>
<path d="M306.464 13.5355C308.417 11.5829 311.583 11.5829 313.536 13.5355L326.464 26.4645C328.417 28.4171 328.417 31.5829 326.464 33.5355L313.536 46.4645C311.583 48.4171 308.417 48.4171 306.464 46.4645L293.536 33.5355C291.583 31.5829 291.583 28.4171 293.536 26.4645L306.464 13.5355Z" fill="#4CAF50"/>
<rect x="345" y="10" width="40" height="40" rx="5" fill="white"/>
<path d="M416.464 13.5355C418.417 11.5829 421.583 11.5829 423.536 13.5355L436.464 26.4645C438.417 28.4171 438.417 31.5829 436.464 33.5355L423.536 46.4645C421.583 48.4171 418.417 48.4171 416.464 46.4645L403.536 33.5355C401.583 31.5829 401.583 28.4171 403.536 26.4645L416.464 13.5355Z" fill="#F44336"/>
<rect x="455" y="10" width="40" height="40" rx="5" fill="white"/>
<path d="M526.464 13.5355C528.417 11.5829 531.583 11.5829 533.536 13.5355L546.464 26.4645C548.417 28.4171 548.417 31.5829 546.464 33.5355L533.536 46.4645C531.583 48.4171 528.417 48.4171 526.464 46.4645L513.536 33.5355C511.583 31.5829 511.583 28.4171 513.536 26.4645L526.464 13.5355Z" fill="#FFC107"/>
<rect x="565" y="10" width="40" height="40" rx="5" fill="white"/>
<path d="M636.464 13.5355C638.417 11.5829 641.583 11.5829 643.536 13.5355L656.464 26.4645C658.417 28.4171 658.417 31.5829 656.464 33.5355L643.536 46.4645C641.583 48.4171 638.417 48.4171 636.464 46.4645L623.536 33.5355C621.583 31.5829 621.583 28.4171 623.536 26.4645L636.464 13.5355Z" fill="#4CAF50"/>
<rect x="675" y="10" width="40" height="40" rx="5" fill="white"/>
<path d="M746.464 13.5355C748.417 11.5829 751.583 11.5829 753.536 13.5355L766.464 26.4645C768.417 28.4171 768.417 31.5829 766.464 33.5355L753.536 46.4645C751.583 48.4171 748.417 48.4171 746.464 46.4645L733.536 33.5355C731.583 31.5829 731.583 28.4171 733.536 26.4645L746.464 13.5355Z" fill="#F44336"/>
<rect x="785" y="10" width="40" height="40" rx="5" fill="white"/>
<path d="M856.464 13.5355C858.417 11.5829 861.583 11.5829 863.536 13.5355L876.464 26.4645C878.417 28.4171 878.417 31.5829 876.464 33.5355L863.536 46.4645C861.583 48.4171 858.417 48.4171 856.464 46.4645L843.536 33.5355C841.583 31.5829 841.583 28.4171 843.536 26.4645L856.464 13.5355Z" fill="#FFC107"/>
<rect x="895" y="10" width="40" height="40" rx="5" fill="white"/>
<path d="M966.464 13.5355C968.417 11.5829 971.583 11.5829 973.536 13.5355L986.464 26.4645C988.417 28.4171 988.417 31.5829 986.464 33.5355L973.536 46.4645C971.583 48.4171 968.417 48.4171 966.464 46.4645L953.536 33.5355C951.583 31.5829 951.583 28.4171 953.536 26.4645L966.464 13.5355Z" fill="#4CAF50"/>
<rect x="1005" y="10" width="40" height="40" rx="5" fill="white"/>
<path d="M1076.46 13.5355C1078.42 11.5829 1081.58 11.5829 1083.54 13.5355L1096.46 26.4645C1098.42 28.4171 1098.42 31.5829 1096.46 33.5355L1083.54 46.4645C1081.58 48.4171 1078.42 48.4171 1076.46 46.4645L1063.54 33.5355C1061.58 31.5829 1061.58 28.4171 1063.54 26.4645L1076.46 13.5355Z" fill="#F44336"/>
<rect x="1115" y="10" width="40" height="40" rx="5" fill="white"/>
<path d="M1186.46 13.5355C1188.42 11.5829 1191.58 11.5829 1193.54 13.5355L1206.46 26.4645C1208.42 28.4171 1208.42 31.5829 1206.46 33.5355L1193.54 46.4645C1191.58 48.4171 1188.42 48.4171 1186.46 46.4645L1173.54 33.5355C1171.58 31.5829 1171.58 28.4171 1173.54 26.4645L1186.46 13.5355Z" fill="#FFC107"/>
<rect x="1225" y="10" width="40" height="40" rx="5" fill="white"/>
<rect x="995" width="1280" height="60" fill="#1E88E5"/>
<rect x="1010" y="10" width="40" height="40" rx="5" fill="white"/>
<path d="M1081.46 13.5355C1083.42 11.5829 1086.58 11.5829 1088.54 13.5355L1101.46 26.4645C1103.42 28.4171 1103.42 31.5829 1101.46 33.5355L1088.54 46.4645C1086.58 48.4171 1083.42 48.4171 1081.46 46.4645L1068.54 33.5355C1066.58 31.5829 1066.58 28.4171 1068.54 26.4645L1081.46 13.5355Z" fill="#F44336"/>
<rect x="1120" y="10" width="40" height="40" rx="5" fill="white"/>
<path d="M1191.46 13.5355C1193.42 11.5829 1196.58 11.5829 1198.54 13.5355L1211.46 26.4645C1213.42 28.4171 1213.42 31.5829 1211.46 33.5355L1198.54 46.4645C1196.58 48.4171 1193.42 48.4171 1191.46 46.4645L1178.54 33.5355C1176.58 31.5829 1176.58 28.4171 1178.54 26.4645L1191.46 13.5355Z" fill="#FFC107"/>
<rect x="1230" y="10" width="40" height="40" rx="5" fill="white"/>
<path d="M1301.46 13.5355C1303.42 11.5829 1306.58 11.5829 1308.54 13.5355L1321.46 26.4645C1323.42 28.4171 1323.42 31.5829 1321.46 33.5355L1308.54 46.4645C1306.58 48.4171 1303.42 48.4171 1301.46 46.4645L1288.54 33.5355C1286.58 31.5829 1286.58 28.4171 1288.54 26.4645L1301.46 13.5355Z" fill="#4CAF50"/>
<rect x="1340" y="10" width="40" height="40" rx="5" fill="white"/>
<path d="M1411.46 13.5355C1413.42 11.5829 1416.58 11.5829 1418.54 13.5355L1431.46 26.4645C1433.42 28.4171 1433.42 31.5829 1431.46 33.5355L1418.54 46.4645C1416.58 48.4171 1413.42 48.4171 1411.46 46.4645L1398.54 33.5355C1396.58 31.5829 1396.58 28.4171 1398.54 26.4645L1411.46 13.5355Z" fill="#F44336"/>
<rect x="1450" y="10" width="40" height="40" rx="5" fill="white"/>
<path d="M1521.46 13.5355C1523.42 11.5829 1526.58 11.5829 1528.54 13.5355L1541.46 26.4645C1543.42 28.4171 1543.42 31.5829 1541.46 33.5355L1528.54 46.4645C1526.58 48.4171 1523.42 48.4171 1521.46 46.4645L1508.54 33.5355C1506.58 31.5829 1506.58 28.4171 1508.54 26.4645L1521.46 13.5355Z" fill="#FFC107"/>
<rect x="1560" y="10" width="40" height="40" rx="5" fill="white"/>
<path d="M1631.46 13.5355C1633.42 11.5829 1636.58 11.5829 1638.54 13.5355L1651.46 26.4645C1653.42 28.4171 1653.42 31.5829 1651.46 33.5355L1638.54 46.4645C1636.58 48.4171 1633.42 48.4171 1631.46 46.4645L1618.54 33.5355C1616.58 31.5829 1616.58 28.4171 1618.54 26.4645L1631.46 13.5355Z" fill="#4CAF50"/>
<rect x="1670" y="10" width="40" height="40" rx="5" fill="white"/>
<path d="M1741.46 13.5355C1743.42 11.5829 1746.58 11.5829 1748.54 13.5355L1761.46 26.4645C1763.42 28.4171 1763.42 31.5829 1761.46 33.5355L1748.54 46.4645C1746.58 48.4171 1743.42 48.4171 1741.46 46.4645L1728.54 33.5355C1726.58 31.5829 1726.58 28.4171 1728.54 26.4645L1741.46 13.5355Z" fill="#F44336"/>
<rect x="1780" y="10" width="40" height="40" rx="5" fill="white"/>
<path d="M1851.46 13.5355C1853.42 11.5829 1856.58 11.5829 1858.54 13.5355L1871.46 26.4645C1873.42 28.4171 1873.42 31.5829 1871.46 33.5355L1858.54 46.4645C1856.58 48.4171 1853.42 48.4171 1851.46 46.4645L1838.54 33.5355C1836.58 31.5829 1836.58 28.4171 1838.54 26.4645L1851.46 13.5355Z" fill="#FFC107"/>
<rect x="1890" y="10" width="40" height="40" rx="5" fill="white"/>
<path d="M1961.46 13.5355C1963.42 11.5829 1966.58 11.5829 1968.54 13.5355L1981.46 26.4645C1983.42 28.4171 1983.42 31.5829 1981.46 33.5355L1968.54 46.4645C1966.58 48.4171 1963.42 48.4171 1961.46 46.4645L1948.54 33.5355C1946.58 31.5829 1946.58 28.4171 1948.54 26.4645L1961.46 13.5355Z" fill="#4CAF50"/>
<rect x="2000" y="10" width="40" height="40" rx="5" fill="white"/>
<path d="M2071.46 13.5355C2073.42 11.5829 2076.58 11.5829 2078.54 13.5355L2091.46 26.4645C2093.42 28.4171 2093.42 31.5829 2091.46 33.5355L2078.54 46.4645C2076.58 48.4171 2073.42 48.4171 2071.46 46.4645L2058.54 33.5355C2056.58 31.5829 2056.58 28.4171 2058.54 26.4645L2071.46 13.5355Z" fill="#F44336"/>
<rect x="2110" y="10" width="40" height="40" rx="5" fill="white"/>
<path d="M2181.46 13.5355C2183.42 11.5829 2186.58 11.5829 2188.54 13.5355L2201.46 26.4645C2203.42 28.4171 2203.42 31.5829 2201.46 33.5355L2188.54 46.4645C2186.58 48.4171 2183.42 48.4171 2181.46 46.4645L2168.54 33.5355C2166.58 31.5829 2166.58 28.4171 2168.54 26.4645L2181.46 13.5355Z" fill="#FFC107"/>
<rect x="2220" y="10" width="40" height="40" rx="5" fill="white"/>
</svg>
