<svg width="180" height="180" viewBox="0 0 180 180" fill="none" xmlns="http://www.w3.org/2000/svg">
<circle cx="90" cy="90" r="90" fill="white"/>
<rect x="64.5454" y="143.949" width="9.54542" height="2.37895" rx="1.18948" fill="#FFC107"/>
<rect x="64.5454" y="147.944" width="9.54542" height="2.37895" rx="1.18948" fill="#FFC107"/>
<rect x="62" y="136.769" width="4.30768" height="18.3076" rx="2.15384" fill="#F44336"/>
<rect x="72.231" y="136.769" width="4.30768" height="18.3076" rx="2.15384" fill="#F44336"/>
<rect x="62" y="127.817" width="14.5384" height="13.8931" rx="3" fill="#1E88E5"/>
<rect x="106.363" y="143.949" width="9.54542" height="2.37895" rx="1.18948" fill="#1E88E5"/>
<rect x="106.363" y="147.944" width="9.54542" height="2.37895" rx="1.18948" fill="#1E88E5"/>
<rect x="103.461" y="136.769" width="4.30768" height="18.3076" rx="2.15384" fill="#1E88E5"/>
<rect x="113.692" y="136.769" width="4.30768" height="18.3076" rx="2.15384" fill="#1E88E5"/>
<rect x="103.461" y="127.817" width="14.5384" height="13.8931" rx="3" fill="#F44336"/>
<rect x="82.7271" y="136.812" width="15.4545" height="4.28211" rx="2.14106" fill="#F44336"/>
<rect x="82.7271" y="143.787" width="15.4545" height="3.80632" rx="1.90316" fill="#F44336"/>
<rect x="77.6152" y="122.769" width="7.53843" height="32.3076" rx="3" fill="#4CAF50"/>
<rect x="94.8457" y="122.769" width="7.53843" height="32.3076" rx="3" fill="#FFC107"/>
<path d="M96.7298 84C97.9694 84 98.6518 85.4407 97.8664 86.3998V86.3998C97.4231 86.9411 97.4231 87.7199 97.8664 88.2613V88.2613C98.6518 89.2204 97.9694 90.6611 96.7298 90.6611H91.8315C90.727 90.6611 89.8315 89.7656 89.8315 88.6611V86C89.8315 84.8954 90.727 84 91.8315 84L96.7298 84Z" fill="#FAA19B"/>
<line x1="90.9229" y1="84.9517" x2="90.9229" y2="97.3222" stroke="#F44336" stroke-width="4"/>
<path d="M95.4075 84C96.6511 84 97.3492 85.4317 96.5834 86.4115V86.4115C96.1613 86.9515 96.1613 87.7096 96.5834 88.2496V88.2496C97.3492 89.2294 96.6511 90.6611 95.4075 90.6611H90.9229C89.8183 90.6611 88.9229 89.7656 88.9229 88.6611V86C88.9229 84.8954 89.8183 84 90.9228 84L95.4075 84Z" fill="#F44336"/>
<rect x="77.6152" y="110.183" width="24.7691" height="23.5114" rx="3" fill="#1E88E5"/>
<path d="M83.6367 118.402C83.6367 116.745 84.9799 115.402 86.6367 115.402H93.3639C95.0208 115.402 96.3639 116.745 96.3639 118.402V125.724C96.3639 127.381 95.0208 128.724 93.3639 128.724H86.6367C84.9799 128.724 83.6367 127.381 83.6367 125.724V118.402Z" fill="white"/>
<path d="M115.513 112.539C116.214 112.539 116.548 113.402 116.028 113.874V113.874C115.693 114.178 115.693 114.705 116.028 115.01V115.01C116.548 115.481 116.214 116.345 115.513 116.345H112.581C111.532 116.345 110.682 115.49 110.682 114.442V114.442C110.682 113.393 111.532 112.539 112.581 112.539L115.513 112.539Z" fill="#FFE083"/>
<line x1="111.727" y1="114.442" x2="111.727" y2="120.627" stroke="#FFC107" stroke-width="3"/>
<path d="M114.386 112.539C115.208 112.539 115.625 113.528 115.051 114.117V114.117C114.875 114.298 114.875 114.586 115.051 114.766V114.766C115.625 115.355 115.208 116.345 114.386 116.345H112.114C111.072 116.345 110.227 115.484 110.227 114.442V114.442C110.227 113.399 111.072 112.539 112.114 112.539L114.386 112.539Z" fill="#FFC107"/>
<path d="M109.696 119.582C110.446 118.937 111.554 118.937 112.304 119.582L119.032 125.364C120.439 126.574 119.584 128.881 117.729 128.881H104.271C102.416 128.881 101.561 126.574 102.968 125.364L109.696 119.582Z" fill="#4CAF50"/>
<path d="M107.272 134.103C107.272 132.446 108.616 131.103 110.272 131.103H111.545C113.202 131.103 114.545 132.446 114.545 134.103V135.716C114.545 137.373 113.202 138.716 111.545 138.716H110.272C108.616 138.716 107.272 137.373 107.272 135.716V134.103Z" fill="white"/>
<path d="M64.4868 112.539C63.7853 112.539 63.4519 113.402 63.9714 113.874V113.874C64.3069 114.178 64.3069 114.705 63.9714 115.01V115.01C63.4519 115.481 63.7853 116.345 64.4868 116.345H67.419C68.4677 116.345 69.3179 115.49 69.3179 114.442V114.442C69.3179 113.393 68.4677 112.539 67.419 112.539L64.4868 112.539Z" fill="#8FC4F2"/>
<line y1="-1.5" x2="6.18527" y2="-1.5" transform="matrix(0 1 1 0 69.7725 114.442)" stroke="#1E88E5" stroke-width="3"/>
<path d="M65.6139 112.539C64.7913 112.539 64.3741 113.528 64.9484 114.117V114.117C65.1245 114.298 65.1245 114.586 64.9484 114.766V114.766C64.3741 115.355 64.7913 116.345 65.6139 116.345H67.8853C68.9276 116.345 69.7725 115.484 69.7725 114.442V114.442C69.7725 113.399 68.9276 112.539 67.8853 112.539L65.6139 112.539Z" fill="#1E88E5"/>
<path d="M67.6964 119.582C68.4461 118.937 69.5538 118.937 70.3035 119.582L77.0319 125.364C78.4392 126.573 77.5839 128.881 75.7284 128.881H62.2716C60.416 128.881 59.5607 126.573 60.968 125.364L67.6964 119.582Z" fill="#FFC107"/>
<path d="M65.4541 134.103C65.4541 132.446 66.7972 131.103 68.4541 131.103H69.7268C71.3837 131.103 72.7268 132.446 72.7268 134.103V135.716C72.7268 137.373 71.3837 138.716 69.7268 138.716H68.4541C66.7972 138.716 65.4541 137.373 65.4541 135.716V134.103Z" fill="white"/>
<path d="M87.9333 95.6067C89.0481 94.6724 90.6726 94.6724 91.7874 95.6067L104.401 106.178C106.548 107.977 105.275 111.477 102.474 111.477H77.2471C74.4454 111.477 73.1728 107.977 75.3201 106.178L87.9333 95.6067Z" fill="#F44336"/>
<path d="M45.3711 74.418C44.6224 74.418 44.069 74.2715 43.7109 73.9785C43.3529 73.7181 43.1738 73.2949 43.1738 72.709C43.1738 71.5371 43.9062 70.9512 45.3711 70.9512H55.625L54.3555 65.2383H52.207C50.7747 65.2383 49.7331 64.929 49.082 64.3105C48.431 63.6595 48.1706 62.6504 48.3008 61.2832V56.8398C48.3008 55.4401 48.61 54.431 49.2285 53.8125C49.847 53.1615 50.8398 52.8685 52.207 52.9336H77.793C79.2253 52.9336 80.2507 53.2428 80.8691 53.8613C81.5202 54.4798 81.7806 55.4727 81.6504 56.8398V61.2832C81.6504 62.7155 81.3411 63.7572 80.7227 64.4082C80.1367 65.0267 79.1602 65.3034 77.793 65.2383H75.5957L73.9844 70.9512H84.6289C86.0612 70.9512 86.7773 71.5371 86.7773 72.709C86.7773 73.8483 86.0612 74.418 84.6289 74.418H45.3711ZM42.9297 50.4922C42.8646 50.2318 42.832 50.0365 42.832 49.9062C42.832 49.0599 43.4668 48.4251 44.7363 48.002C47.7311 46.9603 50.3678 45.5931 52.6465 43.9004C51.2467 42.8587 49.8796 41.8984 48.5449 41.0195C47.9264 40.6289 47.6172 40.1569 47.6172 39.6035C47.6172 39.3431 47.7148 39.0664 47.9102 38.7734C48.2682 38.2852 48.6914 38.041 49.1797 38.041C49.5378 38.041 49.8958 38.1549 50.2539 38.3828C52.207 39.5221 53.8672 40.6289 55.2344 41.7031C56.8294 40.1732 58.2943 38.334 59.6289 36.1855L59.7266 35.9414C59.7266 35.7786 59.6126 35.6973 59.3848 35.6973H48.1543C47.4056 35.6973 46.8359 35.5508 46.4453 35.2578C46.0547 34.9648 45.8594 34.5417 45.8594 33.9883C45.8594 33.4349 46.0547 33.0117 46.4453 32.7188C46.8685 32.4258 47.4382 32.2793 48.1543 32.2793H61.1426C62.054 32.2793 62.7865 32.4909 63.3398 32.9141C63.9258 33.3372 64.2188 33.9069 64.2188 34.623C64.2188 34.9811 64.1211 35.388 63.9258 35.8438C61.9727 39.8802 59.0104 43.3796 55.0391 46.3418C55.1367 46.3092 55.2995 46.293 55.5273 46.293H74.5703H74.9121C74.2936 45.8698 73.6751 45.3978 73.0566 44.877C71.2337 43.3796 69.5736 41.6706 68.0762 39.75C66.5788 37.8294 65.4395 35.9251 64.6582 34.0371C64.4954 33.5488 64.4141 33.1745 64.4141 32.9141C64.4141 32.263 64.7884 31.791 65.5371 31.498C65.8301 31.4004 66.0905 31.3516 66.3184 31.3516C67.002 31.3516 67.5716 31.8236 68.0273 32.7676C68.8411 34.4277 69.7689 35.974 70.8105 37.4062C72.1777 35.974 73.4798 34.3789 74.7168 32.6211C75.2051 31.9375 75.7422 31.5957 76.3281 31.5957C76.7188 31.5957 77.1094 31.7422 77.5 32.0352C78.0534 32.4258 78.3301 32.8652 78.3301 33.3535C78.3301 33.7767 78.1185 34.2487 77.6953 34.7695C76.1328 36.5599 74.4564 38.1712 72.666 39.6035C73.3496 40.3522 74.1146 41.0684 74.9609 41.752C77.0117 40.3522 78.9323 38.7572 80.7227 36.9668C81.3411 36.3483 81.9108 36.0391 82.4316 36.0391C82.8548 36.0391 83.2617 36.2344 83.6523 36.625C84.043 37.0156 84.2383 37.4225 84.2383 37.8457C84.2383 38.3665 83.9128 38.9036 83.2617 39.457C81.3737 41.0521 79.4694 42.4355 77.5488 43.6074C79.4043 44.7142 81.9922 45.8372 85.3125 46.9766C86.6146 47.3997 87.2656 48.0996 87.2656 49.0762C87.2656 49.4017 87.2005 49.7109 87.0703 50.0039C86.7448 50.8828 86.0775 51.3223 85.0684 51.3223C84.6126 51.3223 84.1081 51.2246 83.5547 51.0293C81.0156 50.0853 78.6393 48.8646 76.4258 47.3672C76.4909 47.6276 76.5234 47.8392 76.5234 48.002C76.5234 48.5553 76.3444 48.9785 75.9863 49.2715C75.6608 49.5645 75.1888 49.7109 74.5703 49.7109H55.5273C54.9089 49.7109 54.4206 49.5645 54.0625 49.2715C53.737 48.9785 53.5742 48.5553 53.5742 48.002C53.5742 47.709 53.623 47.4648 53.7207 47.2695C51.5723 48.7344 48.8379 50.1992 45.5176 51.6641C45.127 51.8268 44.8014 51.9082 44.541 51.9082C43.7598 51.9082 43.2227 51.4362 42.9297 50.4922ZM52.2559 60.2578C52.2559 61.2995 52.7767 61.8203 53.8184 61.8203H76.1816C76.6699 61.8203 77.0443 61.6901 77.3047 61.4297C77.5977 61.1693 77.7441 60.7786 77.7441 60.2578V57.9141C77.7441 56.8724 77.2233 56.3516 76.1816 56.3516H53.8184C52.7767 56.3516 52.2559 56.8724 52.2559 57.9141V60.2578ZM59.6289 70.9512H70.0781L71.4941 65.2383H58.3594L59.6289 70.9512ZM94.7852 74.6621C93.5482 74.6621 92.9297 73.9297 92.9297 72.4648C92.9297 71.944 93.1576 71.4395 93.6133 70.9512L96.7871 68.6074C104.99 62.5527 110.736 53.6335 114.023 41.8496L113.926 39.6523C113.861 38.806 113.665 38.1712 113.34 37.748C113.047 37.3249 112.559 37.097 111.875 37.0645H105.479C103.851 37.0645 103.037 36.3809 103.037 35.0137C103.037 33.679 103.851 33.0117 105.479 33.0117H113.486C114.919 33.0117 115.96 33.4186 116.611 34.2324C117.295 35.0462 117.653 36.332 117.686 38.0898C117.783 44.9583 119.395 51.013 122.52 56.2539C125.97 62.0482 130.283 66.5729 135.459 69.8281C136.533 70.5117 137.07 71.293 137.07 72.1719C137.07 73.7018 136.387 74.4668 135.02 74.4668C133.783 74.4668 131.357 72.8392 127.744 69.584C122.048 64.3757 117.962 57.5723 115.488 49.1738C114.609 51.1921 113.584 53.3079 112.412 55.5215C111.273 57.735 110.41 59.3138 109.824 60.2578C107.806 63.513 105.137 66.7194 101.816 69.877C98.4635 73.0671 96.1198 74.6621 94.7852 74.6621Z" fill="black" fill-opacity="0.8"/>
</svg>
