<svg width="297" height="89" viewBox="0 0 297 89" fill="none" xmlns="http://www.w3.org/2000/svg">
<rect x="11.8638" y="74.5088" width="11.8636" height="2.95671" rx="1.47835" fill="#FFC107"/>
<rect x="11.8638" y="79.4731" width="11.8636" height="2.95671" rx="1.47835" fill="#FFC107"/>
<rect x="8.7002" y="65.5845" width="5.35384" height="22.7538" rx="2.67692" fill="#F44336"/>
<rect x="21.4155" y="65.5845" width="5.35384" height="22.7538" rx="2.67692" fill="#F44336"/>
<rect x="8.7002" y="54.458" width="18.0692" height="17.2672" rx="3" fill="#1E88E5"/>
<rect x="63.8374" y="74.5088" width="11.8636" height="2.95671" rx="1.47835" fill="#1E88E5"/>
<rect x="63.8374" y="79.4731" width="11.8636" height="2.95671" rx="1.47835" fill="#1E88E5"/>
<rect x="60.2305" y="65.5845" width="5.35384" height="22.7538" rx="2.67692" fill="#1E88E5"/>
<rect x="72.9463" y="65.5845" width="5.35384" height="22.7538" rx="2.67692" fill="#1E88E5"/>
<rect x="60.2305" y="54.458" width="18.0692" height="17.2672" rx="3" fill="#F44336"/>
<rect x="34.4609" y="65.6387" width="19.2078" height="5.32207" rx="2.66104" fill="#F44336"/>
<rect x="34.4609" y="74.3071" width="19.2078" height="4.73073" rx="2.36536" fill="#F44336"/>
<rect x="28.1074" y="48.1846" width="9.36922" height="40.1538" rx="3" fill="#4CAF50"/>
<rect x="49.5229" y="48.1846" width="9.36922" height="40.1538" rx="3" fill="#FFC107"/>
<path d="M51.8646 3.67336e-06C53.4052 2.20528e-06 54.2533 1.7906 53.2772 2.98262V2.98262C52.7263 3.6554 52.7263 4.62337 53.2772 5.29616V5.29616C54.2533 6.48818 53.4052 8.27878 51.8646 8.27878H45.291C44.1864 8.27878 43.291 7.38334 43.291 6.27878V2.00001C43.291 0.895441 44.1864 1.09896e-05 45.291 9.93713e-06L51.8646 3.67336e-06Z" fill="#FAA19B"/>
<line x1="44.1616" y1="1.18262" x2="44.1616" y2="16.5575" stroke="#F44336" stroke-width="4"/>
<path d="M50.2212 3.7974e-06C51.7668 2.25454e-06 52.6344 1.7794 51.6826 2.99711V2.99711C51.158 3.66828 51.158 4.6105 51.6826 5.28166V5.28166C52.6344 6.49937 51.7668 8.27878 50.2212 8.27878H44.1616C43.0571 8.27878 42.1616 7.38334 42.1616 6.27877V2.00001C42.1616 0.89544 43.0571 1.0949e-05 44.1616 9.84638e-06L50.2212 3.7974e-06Z" fill="#F44336"/>
<rect x="28.1074" y="32.542" width="30.7846" height="29.2213" rx="3" fill="#1E88E5"/>
<path d="M35.5913 42.0283C35.5913 40.3715 36.9345 39.0283 38.5913 39.0283H48.4095C50.0663 39.0283 51.4095 40.3715 51.4095 42.0283V52.5859C51.4095 54.2427 50.0663 55.5859 48.4095 55.5859H38.5913C36.9345 55.5859 35.5913 54.2427 35.5913 52.5859V42.0283Z" fill="white"/>
<path d="M75.209 35.4692C76.0808 35.4692 76.4952 36.5428 75.8495 37.1286V37.1286C75.4325 37.5069 75.4325 38.1623 75.8495 38.5406V38.5406C76.4952 39.1264 76.0808 40.2 75.209 40.2H71.2046C70.1 40.2 69.2046 39.3045 69.2046 38.2V37.4692C69.2046 36.3647 70.1 35.4692 71.2046 35.4692L75.209 35.4692Z" fill="#FFE083"/>
<line x1="70.1396" y1="37.835" x2="70.1396" y2="45.5224" stroke="#FFC107" stroke-width="3"/>
<path d="M73.8081 35.4692C74.8305 35.4692 75.3491 36.6994 74.6353 37.4313V37.4313C74.4164 37.6556 74.4164 38.0136 74.6353 38.2379V38.2379C75.3491 38.9699 74.8305 40.2 73.8081 40.2H70.6396C69.5351 40.2 68.6396 39.3045 68.6396 38.2V37.4692C68.6396 36.3647 69.5351 35.4692 70.6396 35.4692L73.8081 35.4692Z" fill="#FFC107"/>
<path d="M67.6448 44.511C68.7693 43.5446 70.4311 43.5446 71.5555 44.511L78.5309 50.5057C80.6417 52.3198 79.3588 55.7809 76.5755 55.7809H62.6249C59.8416 55.7809 58.5586 52.3198 60.6695 50.5057L67.6448 44.511Z" fill="#4CAF50"/>
<path d="M64.9673 61.5425C64.9673 59.8856 66.3104 58.5425 67.9673 58.5425H71.0062C72.6631 58.5425 74.0062 59.8856 74.0062 61.5425V65.0039C74.0062 66.6608 72.6631 68.0039 71.0062 68.0039H67.9673C66.3104 68.0039 64.9673 66.6608 64.9673 65.0039V61.5425Z" fill="white"/>
<path d="M11.791 35.4692C10.9192 35.4692 10.5048 36.5428 11.1505 37.1286V37.1286C11.5675 37.5069 11.5675 38.1623 11.1505 38.5406V38.5406C10.5048 39.1264 10.9192 40.2 11.791 40.2H15.7954C16.9 40.2 17.7954 39.3045 17.7954 38.2V37.4692C17.7954 36.3647 16.9 35.4692 15.7954 35.4692L11.791 35.4692Z" fill="#8FC4F2"/>
<line y1="-1.5" x2="7.68743" y2="-1.5" transform="matrix(0 1 1 0 18.3604 37.835)" stroke="#1E88E5" stroke-width="3"/>
<path d="M13.1919 35.4692C12.1695 35.4692 11.6509 36.6994 12.3647 37.4313V37.4313C12.5836 37.6556 12.5836 38.0136 12.3647 38.2379V38.2379C11.6509 38.9699 12.1695 40.2 13.1919 40.2H16.3604C17.4649 40.2 18.3604 39.3045 18.3604 38.2V37.4692C18.3604 36.3647 17.4649 35.4692 16.3604 35.4692L13.1919 35.4692Z" fill="#1E88E5"/>
<path d="M15.4447 44.5109C16.5691 43.5446 18.2308 43.5446 19.3553 44.5109L26.3302 50.5049C28.4412 52.319 27.1583 55.7802 24.375 55.7802H10.425C7.64171 55.7802 6.3588 52.319 8.46973 50.5049L15.4447 44.5109Z" fill="#FFC107"/>
<path d="M12.9932 61.5425C12.9932 59.8856 14.3363 58.5425 15.9932 58.5425H19.0321C20.689 58.5425 22.0321 59.8856 22.0321 61.5425V65.0039C22.0321 66.6608 20.689 68.0039 19.0321 68.0039H15.9932C14.3363 68.0039 12.9932 66.6608 12.9932 65.0039V61.5425Z" fill="white"/>
<path d="M41.3993 14.0335C42.5141 13.0992 44.1385 13.0992 45.2533 14.0335L62.9334 28.851C65.0807 30.6506 63.8081 34.1502 61.0064 34.1502H25.6462C22.8445 34.1502 21.5719 30.6506 23.7192 28.851L41.3993 14.0335Z" fill="#F44336"/>
<path d="M101.639 42.2188C100.337 42.2188 99.6855 41.4375 99.6855 39.875C99.6855 39.4518 99.8483 39.0775 100.174 38.752C100.499 38.4264 100.988 38.1823 101.639 38.0195C108.572 36.1315 114.383 33.2832 119.07 29.4746C119.754 28.9212 120.324 28.5143 120.779 28.2539C121.268 27.9935 121.707 27.8633 122.098 27.8633C122.651 27.8633 123.139 28.026 123.562 28.3516C124.018 28.6445 124.246 29.0026 124.246 29.4258C124.246 29.7513 124.132 30.0443 123.904 30.3047L124.637 30.793C126.427 31.9974 129.048 33.2669 132.498 34.6016C136.307 36.0664 139.301 36.9779 141.482 37.3359C143.37 37.6289 144.314 38.2799 144.314 39.2891C144.314 40.8516 143.647 41.6328 142.312 41.6328C140.75 41.6328 137.885 40.7702 133.719 39.0449L133.572 38.9961C133.605 39.7122 133.475 40.2168 133.182 40.5098C132.889 40.8027 132.433 40.9492 131.814 40.9492H112.088C110.916 40.9492 110.33 40.4284 110.33 39.3867L110.379 38.9961C105.691 41.1445 102.778 42.2188 101.639 42.2188ZM103.348 46.8574C103.348 45.4577 103.657 44.4486 104.275 43.8301C104.894 43.2116 105.87 42.9349 107.205 43H136.746C138.146 43 139.155 43.3092 139.773 43.9277C140.392 44.5137 140.669 45.4902 140.604 46.8574V51.0078C140.604 52.375 140.294 53.3841 139.676 54.0352C139.09 54.6536 138.113 54.9303 136.746 54.8652H107.205C105.838 54.8652 104.845 54.556 104.227 53.9375C103.608 53.319 103.315 52.3424 103.348 51.0078V46.8574ZM105.496 60.7734C105.496 59.3737 105.805 58.3483 106.424 57.6973C107.075 57.0462 108.1 56.737 109.5 56.7695H134.451C135.883 56.7695 136.925 57.0951 137.576 57.7461C138.227 58.3971 138.52 59.4062 138.455 60.7734V67.3652C138.455 68.765 138.13 69.7904 137.479 70.4414C136.86 71.0924 135.851 71.3854 134.451 71.3203H109.5C108.035 71.3203 106.977 70.9948 106.326 70.3438C105.708 69.7253 105.431 68.7324 105.496 67.3652V60.7734ZM107.059 50.2754C107.059 51.252 107.563 51.7728 108.572 51.8379H120.047V46.0273H108.572C107.563 46.0273 107.059 46.5482 107.059 47.5898V50.2754ZM109.402 66.9258C109.402 67.8372 109.891 68.3255 110.867 68.3906H133.133C133.589 68.3906 133.93 68.2604 134.158 68C134.419 67.7396 134.565 67.3815 134.598 66.9258V65.3145H109.402V66.9258ZM134.598 62.6777V61.3105C134.598 60.8223 134.467 60.4642 134.207 60.2363C133.947 59.9759 133.589 59.8294 133.133 59.7969H110.867C109.956 59.7969 109.467 60.3014 109.402 61.3105V62.6777H134.598ZM111.453 47.9805C111.453 47.1667 111.941 46.7598 112.918 46.7598C113.504 46.7598 114.09 47.1829 114.676 48.0293C115.262 48.8431 115.555 49.4128 115.555 49.7383C115.555 50.6823 115.018 51.1543 113.943 51.1543C113.455 51.1543 112.967 50.8125 112.479 50.1289C111.795 49.1523 111.453 48.4362 111.453 47.9805ZM131.082 37.8242C127.339 36.1315 124.132 34.3411 121.463 32.4531C119.087 34.276 116.173 36.0664 112.723 37.8242H131.082ZM135.33 51.8379C136.307 51.8379 136.827 51.3171 136.893 50.2754V47.5898C136.893 46.5807 136.372 46.0599 135.33 46.0273H123.514V51.8379H135.33ZM128.006 49.9824C128.006 49.3639 128.299 48.6478 128.885 47.834C129.438 47.0527 129.992 46.6621 130.545 46.6621C131.652 46.6621 132.205 47.0853 132.205 47.9316C132.205 48.5501 131.945 49.2337 131.424 49.9824C130.838 50.8288 130.219 51.252 129.568 51.252C128.527 51.252 128.006 50.8288 128.006 49.9824ZM158.084 64.875C156.619 64.875 155.545 64.5495 154.861 63.8984C154.21 63.2474 153.885 62.1895 153.885 60.7246V47.6387C153.885 46.1738 154.21 45.1159 154.861 44.4648C155.545 43.8138 156.619 43.4883 158.084 43.4883H186.502C187.967 43.4883 189.025 43.8138 189.676 44.4648C190.327 45.1159 190.652 46.1738 190.652 47.6387V60.7246C190.652 62.1895 190.327 63.2474 189.676 63.8984C189.025 64.5495 187.967 64.875 186.502 64.875H158.084ZM149.93 70.6855C149.93 69.6113 150.467 68.9928 151.541 68.8301C157.27 68.0163 161.876 66.9258 165.359 65.5586C165.62 65.4609 165.848 65.4121 166.043 65.4121C166.661 65.4121 167.15 65.7051 167.508 66.291C167.671 66.6165 167.752 66.9258 167.752 67.2188C167.752 67.5443 167.671 67.8372 167.508 68.0977C167.345 68.3906 167.101 68.6185 166.775 68.7812C164.855 69.7578 162.609 70.5553 160.037 71.1738C157.498 71.8249 154.926 72.2806 152.322 72.541C150.727 72.6712 149.93 72.0527 149.93 70.6855ZM155.838 33.5273C155.838 32.1276 156.147 31.1348 156.766 30.5488C157.417 29.9303 158.458 29.6211 159.891 29.6211H184.793C186.225 29.6211 187.251 29.9303 187.869 30.5488C188.488 31.1673 188.797 32.1602 188.797 33.5273V36.8477C188.797 38.2474 188.488 39.2565 187.869 39.875C187.251 40.4935 186.225 40.8027 184.793 40.8027H159.891C158.458 40.8027 157.417 40.4935 156.766 39.875C156.147 39.2565 155.838 38.2474 155.838 36.8477V33.5273ZM157.986 60.1387C157.986 61.1478 158.475 61.6523 159.451 61.6523H185.037C186.046 61.6523 186.551 61.1478 186.551 60.1387V58.5762H157.986V60.1387ZM186.551 55.5488V52.668H157.986V55.5488H186.551ZM186.551 49.6406V48.1758C186.551 47.1992 186.046 46.7109 185.037 46.7109H159.451C158.475 46.7109 157.986 47.1992 157.986 48.1758V49.6406H186.551ZM160.037 36.0664C160.037 37.0755 160.542 37.5801 161.551 37.5801H183.133C184.142 37.5801 184.646 37.0755 184.646 36.0664V34.4062C184.646 33.3646 184.142 32.8438 183.133 32.8438H161.551C160.542 32.8438 160.037 33.3646 160.037 34.4062V36.0664ZM176.98 67.1699C176.98 66.7467 177.127 66.3724 177.42 66.0469C177.713 65.7214 178.12 65.5586 178.641 65.5586C178.966 65.5586 179.227 65.5911 179.422 65.6562C183.523 66.8932 187.771 67.8861 192.166 68.6348C193.501 68.8952 194.168 69.4974 194.168 70.4414C194.168 71.8086 193.501 72.4922 192.166 72.4922C191.092 72.4922 188.846 72.0202 185.428 71.0762C181.489 70.002 179.129 69.2533 178.348 68.8301C177.859 68.5697 177.501 68.3092 177.273 68.0488C177.078 67.821 176.98 67.528 176.98 67.1699ZM202.371 71.418C201.622 71.418 201.069 71.2715 200.711 70.9785C200.353 70.7181 200.174 70.2949 200.174 69.709C200.174 68.5371 200.906 67.9512 202.371 67.9512H212.625L211.355 62.2383H209.207C207.775 62.2383 206.733 61.929 206.082 61.3105C205.431 60.6595 205.171 59.6504 205.301 58.2832V53.8398C205.301 52.4401 205.61 51.431 206.229 50.8125C206.847 50.1615 207.84 49.8685 209.207 49.9336H234.793C236.225 49.9336 237.251 50.2428 237.869 50.8613C238.52 51.4798 238.781 52.4727 238.65 53.8398V58.2832C238.65 59.7155 238.341 60.7572 237.723 61.4082C237.137 62.0267 236.16 62.3034 234.793 62.2383H232.596L230.984 67.9512H241.629C243.061 67.9512 243.777 68.5371 243.777 69.709C243.777 70.8483 243.061 71.418 241.629 71.418H202.371ZM199.93 47.4922C199.865 47.2318 199.832 47.0365 199.832 46.9062C199.832 46.0599 200.467 45.4251 201.736 45.002C204.731 43.9603 207.368 42.5931 209.646 40.9004C208.247 39.8587 206.88 38.8984 205.545 38.0195C204.926 37.6289 204.617 37.1569 204.617 36.6035C204.617 36.3431 204.715 36.0664 204.91 35.7734C205.268 35.2852 205.691 35.041 206.18 35.041C206.538 35.041 206.896 35.1549 207.254 35.3828C209.207 36.5221 210.867 37.6289 212.234 38.7031C213.829 37.1732 215.294 35.334 216.629 33.1855L216.727 32.9414C216.727 32.7786 216.613 32.6973 216.385 32.6973H205.154C204.406 32.6973 203.836 32.5508 203.445 32.2578C203.055 31.9648 202.859 31.5417 202.859 30.9883C202.859 30.4349 203.055 30.0117 203.445 29.7188C203.868 29.4258 204.438 29.2793 205.154 29.2793H218.143C219.054 29.2793 219.786 29.4909 220.34 29.9141C220.926 30.3372 221.219 30.9069 221.219 31.623C221.219 31.9811 221.121 32.388 220.926 32.8438C218.973 36.8802 216.01 40.3796 212.039 43.3418C212.137 43.3092 212.299 43.293 212.527 43.293H231.57H231.912C231.294 42.8698 230.675 42.3978 230.057 41.877C228.234 40.3796 226.574 38.6706 225.076 36.75C223.579 34.8294 222.439 32.9251 221.658 31.0371C221.495 30.5488 221.414 30.1745 221.414 29.9141C221.414 29.263 221.788 28.791 222.537 28.498C222.83 28.4004 223.09 28.3516 223.318 28.3516C224.002 28.3516 224.572 28.8236 225.027 29.7676C225.841 31.4277 226.769 32.974 227.811 34.4062C229.178 32.974 230.48 31.3789 231.717 29.6211C232.205 28.9375 232.742 28.5957 233.328 28.5957C233.719 28.5957 234.109 28.7422 234.5 29.0352C235.053 29.4258 235.33 29.8652 235.33 30.3535C235.33 30.7767 235.118 31.2487 234.695 31.7695C233.133 33.5599 231.456 35.1712 229.666 36.6035C230.35 37.3522 231.115 38.0684 231.961 38.752C234.012 37.3522 235.932 35.7572 237.723 33.9668C238.341 33.3483 238.911 33.0391 239.432 33.0391C239.855 33.0391 240.262 33.2344 240.652 33.625C241.043 34.0156 241.238 34.4225 241.238 34.8457C241.238 35.3665 240.913 35.9036 240.262 36.457C238.374 38.0521 236.469 39.4355 234.549 40.6074C236.404 41.7142 238.992 42.8372 242.312 43.9766C243.615 44.3997 244.266 45.0996 244.266 46.0762C244.266 46.4017 244.201 46.7109 244.07 47.0039C243.745 47.8828 243.077 48.3223 242.068 48.3223C241.613 48.3223 241.108 48.2246 240.555 48.0293C238.016 47.0853 235.639 45.8646 233.426 44.3672C233.491 44.6276 233.523 44.8392 233.523 45.002C233.523 45.5553 233.344 45.9785 232.986 46.2715C232.661 46.5645 232.189 46.7109 231.57 46.7109H212.527C211.909 46.7109 211.421 46.5645 211.062 46.2715C210.737 45.9785 210.574 45.5553 210.574 45.002C210.574 44.709 210.623 44.4648 210.721 44.2695C208.572 45.7344 205.838 47.1992 202.518 48.6641C202.127 48.8268 201.801 48.9082 201.541 48.9082C200.76 48.9082 200.223 48.4362 199.93 47.4922ZM209.256 57.2578C209.256 58.2995 209.777 58.8203 210.818 58.8203H233.182C233.67 58.8203 234.044 58.6901 234.305 58.4297C234.598 58.1693 234.744 57.7786 234.744 57.2578V54.9141C234.744 53.8724 234.223 53.3516 233.182 53.3516H210.818C209.777 53.3516 209.256 53.8724 209.256 54.9141V57.2578ZM216.629 67.9512H227.078L228.494 62.2383H215.359L216.629 67.9512ZM251.785 71.6621C250.548 71.6621 249.93 70.9297 249.93 69.4648C249.93 68.944 250.158 68.4395 250.613 67.9512L253.787 65.6074C261.99 59.5527 267.736 50.6335 271.023 38.8496L270.926 36.6523C270.861 35.806 270.665 35.1712 270.34 34.748C270.047 34.3249 269.559 34.097 268.875 34.0645H262.479C260.851 34.0645 260.037 33.3809 260.037 32.0137C260.037 30.679 260.851 30.0117 262.479 30.0117H270.486C271.919 30.0117 272.96 30.4186 273.611 31.2324C274.295 32.0462 274.653 33.332 274.686 35.0898C274.783 41.9583 276.395 48.013 279.52 53.2539C282.97 59.0482 287.283 63.5729 292.459 66.8281C293.533 67.5117 294.07 68.293 294.07 69.1719C294.07 70.7018 293.387 71.4668 292.02 71.4668C290.783 71.4668 288.357 69.8392 284.744 66.584C279.048 61.3757 274.962 54.5723 272.488 46.1738C271.609 48.1921 270.584 50.3079 269.412 52.5215C268.273 54.735 267.41 56.3138 266.824 57.2578C264.806 60.513 262.137 63.7194 258.816 66.877C255.464 70.0671 253.12 71.6621 251.785 71.6621Z" fill="black" fill-opacity="0.8"/>
</svg>
