<svg width="98" height="94" viewBox="0 0 98 94" fill="none" xmlns="http://www.w3.org/2000/svg">
<path d="M27.75 60C21.8901 60 16.8829 58.0312 12.7282 54.0937C8.57348 50.1562 6.49743 45.3437 6.5 39.6562C6.5 34.7813 8.01326 30.4375 11.0398 26.625C14.0663 22.8125 18.0265 20.375 22.9205 19.3125C24.5303 13.5625 27.75 8.90625 32.5795 5.34375C37.4091 1.78125 42.8826 0 49 0C56.5341 0 62.9258 2.54751 68.1752 7.6425C73.4246 12.7375 76.048 18.94 76.0455 26.25C80.4886 26.75 84.1758 28.61 87.1071 31.83C90.0383 35.05 91.5026 38.815 91.5 43.125C91.5 47.8125 89.809 51.7975 86.427 55.08C83.0451 58.3625 78.9406 60.0025 74.1136 60H27.75Z" fill="#ADB5BD"/>
<path d="M38.1027 27.3684L59.8975 48.421" stroke="white" stroke-width="5" stroke-linecap="round"/>
<path d="M59.8973 27.3684L38.1026 48.421" stroke="white" stroke-width="5" stroke-linecap="round"/>
<path d="M11.9834 93.3223C10.0303 93.3223 8.28223 92.8926 6.73926 92.0332C5.15723 91.1738 3.91699 89.9434 3.01855 88.3418C2.13965 86.7402 1.7002 84.8848 1.7002 82.7754C1.7002 80.6465 2.14941 78.7812 3.04785 77.1797C3.92676 75.5977 5.1377 74.377 6.68066 73.5176C8.24316 72.6582 10.0107 72.2285 11.9834 72.2285C13.2725 72.2285 14.4346 72.375 15.4697 72.668C16.5049 72.9609 17.5693 73.4199 18.6631 74.0449C19.1123 74.2598 19.3369 74.6406 19.3369 75.1875C19.3369 75.4805 19.2197 75.7441 18.9854 75.9785C18.7705 76.2129 18.4873 76.3301 18.1357 76.3301C17.9209 76.3301 17.7451 76.291 17.6084 76.2129C16.71 75.7441 15.8506 75.4023 15.0303 75.1875C14.21 74.9531 13.2822 74.8359 12.2471 74.8359C10.5674 74.8359 9.15137 75.1777 7.99902 75.8613C6.84668 76.5449 5.95801 77.4824 5.33301 78.6738C4.72754 79.8457 4.4248 81.2129 4.4248 82.7754C4.4248 84.3379 4.72754 85.6953 5.33301 86.8477C5.93848 88.0781 6.83691 89.0352 8.02832 89.7188C9.21973 90.3828 10.626 90.7148 12.2471 90.7148C13.2822 90.7148 14.21 90.6074 15.0303 90.3926C15.8506 90.1582 16.71 89.8066 17.6084 89.3379C17.7451 89.2598 17.9209 89.2207 18.1357 89.2207C18.4873 89.2207 18.7705 89.3379 18.9854 89.5723C19.2197 89.7871 19.3369 90.0508 19.3369 90.3633C19.3369 90.8906 19.1123 91.2715 18.6631 91.5059C17.5693 92.1309 16.5049 92.5898 15.4697 92.8828C14.4346 93.1758 13.2725 93.3223 11.9834 93.3223ZM25.167 93.0293C24.6592 93.0293 24.2197 92.8438 23.8486 92.4727C23.4775 92.1016 23.292 91.6621 23.292 91.1543V73.752C23.292 73.3809 23.4189 73.0586 23.6729 72.7852C23.9463 72.5117 24.2686 72.375 24.6396 72.375C25.0107 72.375 25.333 72.5117 25.6064 72.7852C25.8799 73.0586 26.0166 73.3809 26.0166 73.752V89.9531C26.0166 90.1875 26.1338 90.3047 26.3682 90.3047H35.5674C35.9385 90.3047 36.2607 90.4414 36.5342 90.7148C36.8076 90.9883 36.9443 91.3105 36.9443 91.6816C36.9443 92.0527 36.8076 92.375 36.5342 92.6484C36.2607 92.9023 35.9385 93.0293 35.5674 93.0293H25.167ZM49.249 93.3223C47.1982 93.3223 45.3916 92.873 43.8291 91.9746C42.3057 91.0762 41.1143 89.8359 40.2549 88.2539C39.415 86.6523 38.9756 84.8262 38.9365 82.7754C38.9756 80.7246 39.415 78.9082 40.2549 77.3262C41.0947 75.7246 42.2959 74.4746 43.8584 73.5762C45.4209 72.6777 47.2178 72.2285 49.249 72.2285C51.2998 72.2285 53.1064 72.6777 54.6689 73.5762C56.1924 74.4746 57.374 75.7246 58.2139 77.3262C59.0732 78.9277 59.5225 80.7441 59.5615 82.7754C59.5225 84.8066 59.083 86.6133 58.2432 88.1953C57.3838 89.8164 56.1729 91.0762 54.6104 91.9746C53.0674 92.873 51.2803 93.3223 49.249 93.3223ZM41.6611 82.7754C41.6611 84.2988 41.9639 85.666 42.5693 86.877C43.1943 88.127 44.0732 89.0938 45.2061 89.7773C46.3584 90.4414 47.7061 90.7734 49.249 90.7734C50.8311 90.7734 52.1787 90.4219 53.292 89.7188C54.4248 89.0352 55.2939 88.0977 55.8994 86.9062C56.5244 85.6953 56.8369 84.3184 56.8369 82.7754C56.8369 81.252 56.5342 79.8848 55.9287 78.6738C55.3037 77.4434 54.415 76.4863 53.2627 75.8027C52.1104 75.1191 50.7725 74.7773 49.249 74.7773C47.667 74.7773 46.3193 75.1289 45.2061 75.832C44.0732 76.5156 43.1943 77.4629 42.5693 78.6738C41.9639 79.8652 41.6611 81.2324 41.6611 82.7754ZM70.4307 93.3223C67.9502 93.3223 65.626 92.8535 63.458 91.916C63.2236 91.8184 63.0186 91.6523 62.8428 91.418C62.6865 91.1836 62.6084 90.9395 62.6084 90.6855C62.6084 90.334 62.7256 90.041 62.96 89.8066C63.1943 89.5527 63.4873 89.4258 63.8389 89.4258C64.0537 89.4258 64.2393 89.4648 64.3955 89.543C66.2119 90.3438 68.1357 90.7441 70.167 90.7441C73.5654 90.7441 75.2646 89.6309 75.2646 87.4043C75.2646 86.8184 75.0498 86.3398 74.6201 85.9688C74.2295 85.5977 73.7412 85.3047 73.1553 85.0898C72.5693 84.875 71.6025 84.5918 70.2549 84.2402C68.7119 83.8496 67.4326 83.4492 66.417 83.0391C65.2256 82.5898 64.3271 81.9648 63.7217 81.1641C63.1162 80.3438 62.8135 79.377 62.8135 78.2637C62.8135 77.1504 63.1064 76.125 63.6924 75.1875C64.2979 74.2305 65.1865 73.498 66.3584 72.9902C67.5498 72.4824 68.9072 72.2285 70.4307 72.2285C72.5986 72.2285 74.542 72.5508 76.2607 73.1953C76.8271 73.4102 77.1104 73.8105 77.1104 74.3965C77.1104 74.709 76.9932 75.002 76.7588 75.2754C76.5244 75.5293 76.2412 75.6562 75.9092 75.6562C75.7725 75.6562 75.6162 75.6172 75.4404 75.5391C73.917 75.0117 72.3447 74.748 70.7236 74.748C69.1611 74.748 67.9014 75.041 66.9443 75.627C66.0068 76.2129 65.5381 77.0234 65.5381 78.0586C65.5381 78.7617 65.7725 79.3184 66.2412 79.7285C66.6709 80.1387 67.208 80.4707 67.8525 80.7246C68.4971 80.9785 69.4639 81.252 70.7529 81.5449C72.3936 81.9355 73.6436 82.3066 74.5029 82.6582C75.5381 83.0488 76.3682 83.6543 76.9932 84.4746C77.6377 85.2949 77.96 86.3301 77.96 87.5801C77.96 88.6543 77.6475 89.6406 77.0225 90.5391C76.3779 91.4375 75.4795 92.1309 74.3271 92.6191C73.1943 93.0879 71.8955 93.3223 70.4307 93.3223ZM83.3506 93.0293C82.9795 93.0293 82.6572 92.9023 82.3838 92.6484C82.1299 92.375 82.0029 92.0527 82.0029 91.6816V73.8984C82.0029 73.5273 82.1299 73.2051 82.3838 72.9316C82.6572 72.6582 82.9795 72.5215 83.3506 72.5215H95.0986C95.4502 72.5215 95.7529 72.6484 96.0068 72.9023C96.2607 73.1562 96.3877 73.459 96.3877 73.8105C96.3877 74.1621 96.2607 74.4648 96.0068 74.7188C95.7529 74.9531 95.4502 75.0703 95.0986 75.0703H85.0791C84.8447 75.0703 84.7275 75.1875 84.7275 75.4219V81.4863H94.0439C94.3955 81.4863 94.6982 81.6133 94.9521 81.8672C95.2061 82.1211 95.333 82.4238 95.333 82.7754C95.333 83.127 95.2061 83.4297 94.9521 83.6836C94.6982 83.918 94.3955 84.0352 94.0439 84.0352H84.7275V90.1289C84.7275 90.3633 84.8447 90.4805 85.0791 90.4805H95.0986C95.4502 90.4805 95.7529 90.6074 96.0068 90.8613C96.2607 91.1152 96.3877 91.418 96.3877 91.7695C96.3877 92.1211 96.2607 92.4238 96.0068 92.6777C95.7529 92.9121 95.4502 93.0293 95.0986 93.0293H83.3506Z" fill="#4CAF50"/>
<path d="M6.73926 92.0332L6.98256 91.5964L6.97792 91.5938L6.73926 92.0332ZM3.01855 88.3418L2.5802 88.5824L2.58248 88.5864L3.01855 88.3418ZM3.04785 77.1797L3.48393 77.4243L3.48493 77.4225L3.04785 77.1797ZM6.68066 73.5176L6.4397 73.0795L6.43737 73.0808L6.68066 73.5176ZM18.6631 74.0449L18.415 74.479L18.4309 74.4881L18.4474 74.496L18.6631 74.0449ZM18.9854 75.9785L18.6318 75.625L18.6241 75.6326L18.6168 75.6407L18.9854 75.9785ZM17.6084 76.2129L17.8565 75.7788L17.8482 75.774L17.8397 75.7696L17.6084 76.2129ZM15.0303 75.1875L14.8929 75.6684L14.9036 75.6712L15.0303 75.1875ZM5.33301 78.6738L4.89023 78.4415L4.88879 78.4443L5.33301 78.6738ZM5.33301 86.8477L5.78179 86.6268L5.77563 86.6151L5.33301 86.8477ZM8.02832 89.7188L7.77947 90.1525L7.78489 90.1555L8.02832 89.7188ZM15.0303 90.3926L15.157 90.8764L15.1676 90.8733L15.0303 90.3926ZM17.6084 89.3379L17.8397 89.7812L17.8482 89.7768L17.8565 89.772L17.6084 89.3379ZM18.9854 89.5723L18.6168 89.9101L18.6315 89.9262L18.6475 89.9408L18.9854 89.5723ZM18.6631 91.5059L18.4318 91.0626L18.4233 91.067L18.415 91.0717L18.6631 91.5059ZM11.9834 92.8223C10.1062 92.8223 8.44347 92.4101 6.98255 91.5964L6.49597 92.47C8.12099 93.3751 9.95434 93.8223 11.9834 93.8223V92.8223ZM6.97792 91.5938C5.48047 90.7804 4.30791 89.6182 3.45463 88.0972L2.58248 88.5864C3.52607 90.2685 4.83398 91.5672 6.50059 92.4726L6.97792 91.5938ZM3.45689 88.1012C2.62431 86.5841 2.2002 84.8138 2.2002 82.7754H1.2002C1.2002 84.9557 1.65499 86.8964 2.58022 88.5823L3.45689 88.1012ZM2.2002 82.7754C2.2002 80.7184 2.63366 78.94 3.48392 77.4243L2.61178 76.9351C1.66517 78.6225 1.2002 80.5746 1.2002 82.7754H2.2002ZM3.48493 77.4225C4.31976 75.9198 5.46449 74.7673 6.92395 73.9544L6.43737 73.0808C4.8109 73.9866 3.53376 75.2755 2.61077 76.9369L3.48493 77.4225ZM6.92162 73.9557C8.40269 73.1411 10.0859 72.7285 11.9834 72.7285V71.7285C9.93563 71.7285 8.08364 72.1753 6.4397 73.0795L6.92162 73.9557ZM11.9834 72.7285C13.2352 72.7285 14.3504 72.8708 15.3336 73.1491L15.6059 72.1869C14.5187 71.8792 13.3097 71.7285 11.9834 71.7285V72.7285ZM15.3336 73.1491C16.3237 73.4293 17.3507 73.8709 18.415 74.479L18.9112 73.6108C17.788 72.969 16.6861 72.4926 15.6059 72.1869L15.3336 73.1491ZM18.4474 74.496C18.594 74.5661 18.6822 74.6514 18.7378 74.7457C18.7951 74.8429 18.8369 74.9824 18.8369 75.1875H19.8369C19.8369 74.8457 19.7664 74.5214 19.5991 74.2377C19.4301 73.9511 19.1814 73.7385 18.8788 73.5939L18.4474 74.496ZM18.8369 75.1875C18.8369 75.33 18.7858 75.4709 18.6318 75.625L19.3389 76.3321C19.6536 76.0173 19.8369 75.6309 19.8369 75.1875H18.8369ZM18.6168 75.6407C18.5072 75.7602 18.3636 75.8301 18.1357 75.8301V76.8301C18.611 76.8301 19.0338 76.6656 19.3539 76.3164L18.6168 75.6407ZM18.1357 75.8301C17.9775 75.8301 17.895 75.8008 17.8565 75.7788L17.3603 76.647C17.5952 76.7812 17.8643 76.8301 18.1357 76.8301V75.8301ZM17.8397 75.7696C16.9142 75.2868 16.0198 74.9298 15.157 74.7038L14.9036 75.6712C15.6814 75.8749 16.5057 76.2015 17.3771 76.6562L17.8397 75.7696ZM15.1676 74.7067C14.2943 74.4572 13.3192 74.3359 12.2471 74.3359V75.3359C13.2453 75.3359 14.1256 75.449 14.8929 75.6683L15.1676 74.7067ZM12.2471 74.3359C10.5001 74.3359 8.99079 74.6916 7.74392 75.4313L8.25412 76.2914C9.31194 75.6638 10.6346 75.3359 12.2471 75.3359V74.3359ZM7.74392 75.4313C6.51156 76.1624 5.55808 77.1685 4.89023 78.4416L5.77578 78.9061C6.35794 77.7964 7.1818 76.9275 8.25412 76.2914L7.74392 75.4313ZM4.88879 78.4443C4.24048 79.6991 3.9248 81.1477 3.9248 82.7754H4.9248C4.9248 81.2781 5.2146 79.9923 5.77722 78.9033L4.88879 78.4443ZM3.9248 82.7754C3.9248 84.4028 4.24038 85.8431 4.89039 87.0802L5.77563 86.6151C5.21469 85.5475 4.9248 84.273 4.9248 82.7754H3.9248ZM4.88438 87.0684C5.53385 88.3883 6.50193 89.4194 7.77949 90.1524L8.27716 89.2851C7.1719 88.6509 6.3431 87.7679 5.78164 86.6269L4.88438 87.0684ZM7.78489 90.1555C9.06361 90.8682 10.5568 91.2148 12.2471 91.2148V90.2148C10.6951 90.2148 9.37584 89.8974 8.27175 89.282L7.78489 90.1555ZM12.2471 91.2148C13.3159 91.2148 14.2874 91.104 15.157 90.8763L14.9036 89.9089C14.1325 90.1108 13.2485 90.2148 12.2471 90.2148V91.2148ZM15.1676 90.8733C16.0258 90.6281 16.9167 90.2627 17.8397 89.7812L17.3771 88.8946C16.5032 89.3505 15.6754 89.6883 14.8929 89.9118L15.1676 90.8733ZM17.8565 89.772C17.895 89.75 17.9775 89.7207 18.1357 89.7207V88.7207C17.8643 88.7207 17.5952 88.7696 17.3603 88.9038L17.8565 89.772ZM18.1357 89.7207C18.3636 89.7207 18.5072 89.7906 18.6168 89.9101L19.3539 89.2344C19.0338 88.8852 18.611 88.7207 18.1357 88.7207V89.7207ZM18.6475 89.9408C18.7806 90.0629 18.8369 90.1937 18.8369 90.3633H19.8369C19.8369 89.9079 19.6589 89.5114 19.3232 89.2037L18.6475 89.9408ZM18.8369 90.3633C18.8369 90.5549 18.7967 90.6906 18.7378 90.7904C18.6796 90.8892 18.5859 90.9822 18.4318 91.0626L18.8944 91.9492C19.1895 91.7952 19.4327 91.5806 19.5991 91.2984C19.7649 91.0174 19.8369 90.699 19.8369 90.3633H18.8369ZM18.415 91.0717C17.3507 91.6799 16.3237 92.1215 15.3336 92.4017L15.6059 93.3639C16.6861 93.0582 17.788 92.5818 18.9112 91.94L18.415 91.0717ZM15.3336 92.4017C14.3504 92.68 13.2352 92.8223 11.9834 92.8223V93.8223C13.3097 93.8223 14.5187 93.6716 15.6059 93.3639L15.3336 92.4017ZM23.6729 72.7852L23.3193 72.4316L23.3128 72.4381L23.3065 72.4449L23.6729 72.7852ZM36.5342 90.7148L36.8877 90.3613L36.5342 90.7148ZM36.5342 92.6484L36.8744 93.0148L36.8812 93.0085L36.8877 93.002L36.5342 92.6484ZM25.167 92.5293C24.7967 92.5293 24.483 92.3999 24.2022 92.1191L23.4951 92.8262C23.9564 93.2876 24.5217 93.5293 25.167 93.5293V92.5293ZM24.2022 92.1191C23.9214 91.8383 23.792 91.5246 23.792 91.1543H22.792C22.792 91.7996 23.0337 92.3649 23.4951 92.8262L24.2022 92.1191ZM23.792 91.1543V73.752H22.792V91.1543H23.792ZM23.792 73.752C23.792 73.5078 23.8707 73.3069 24.0392 73.1254L23.3065 72.4449C22.9672 72.8103 22.792 73.2539 22.792 73.752H23.792ZM24.0264 73.1387C24.2105 72.9546 24.4073 72.875 24.6396 72.875V71.875C24.1299 71.875 23.6821 72.0688 23.3193 72.4316L24.0264 73.1387ZM24.6396 72.875C24.872 72.875 25.0688 72.9546 25.2529 73.1387L25.96 72.4316C25.5972 72.0688 25.1494 71.875 24.6396 71.875V72.875ZM25.2529 73.1387C25.437 73.3228 25.5166 73.5196 25.5166 73.752H26.5166C26.5166 73.2422 26.3228 72.7944 25.96 72.4316L25.2529 73.1387ZM25.5166 73.752V89.9531H26.5166V73.752H25.5166ZM25.5166 89.9531C25.5166 90.1474 25.5655 90.3849 25.7509 90.5704C25.9364 90.7558 26.1739 90.8047 26.3682 90.8047V89.8047C26.328 89.8047 26.3898 89.795 26.458 89.8632C26.5263 89.9315 26.5166 89.9932 26.5166 89.9531H25.5166ZM26.3682 90.8047H35.5674V89.8047H26.3682V90.8047ZM35.5674 90.8047C35.7998 90.8047 35.9966 90.8843 36.1806 91.0684L36.8877 90.3613C36.5249 89.9985 36.0772 89.8047 35.5674 89.8047V90.8047ZM36.1806 91.0684C36.3647 91.2525 36.4443 91.4492 36.4443 91.6816H37.4443C37.4443 91.1718 37.2505 90.7241 36.8877 90.3613L36.1806 91.0684ZM36.4443 91.6816C36.4443 91.914 36.3647 92.1108 36.1806 92.2949L36.8877 93.002C37.2505 92.6392 37.4443 92.1914 37.4443 91.6816H36.4443ZM36.194 92.282C36.0124 92.4506 35.8115 92.5293 35.5674 92.5293V93.5293C36.0655 93.5293 36.5091 93.3541 36.8744 93.0148L36.194 92.282ZM35.5674 92.5293H25.167V93.5293H35.5674V92.5293ZM43.8291 91.9746L43.5751 92.4053L43.5799 92.4081L43.8291 91.9746ZM40.2549 88.2539L39.812 88.4861L39.8155 88.4926L40.2549 88.2539ZM38.9365 82.7754L38.4366 82.7659L38.4364 82.7754L38.4366 82.7849L38.9365 82.7754ZM40.2549 77.3262L40.6965 77.5606L40.6977 77.5584L40.2549 77.3262ZM54.6689 73.5762L54.923 73.1455L54.9182 73.1427L54.6689 73.5762ZM58.2139 77.3262L57.771 77.5584L57.7733 77.5626L58.2139 77.3262ZM59.5615 82.7754L60.0614 82.785L60.0616 82.7754L60.0614 82.7658L59.5615 82.7754ZM58.2432 88.1953L57.8015 87.9609L57.8014 87.9611L58.2432 88.1953ZM54.6104 91.9746L54.3611 91.5411L54.3588 91.5425L54.6104 91.9746ZM45.2061 89.7773L44.9477 90.2055L44.9564 90.2106L45.2061 89.7773ZM53.292 89.7188L53.0336 89.2906L53.025 89.296L53.292 89.7188ZM55.8994 86.9062L55.4551 86.6769L55.4537 86.6797L55.8994 86.9062ZM55.9287 78.6738L56.3759 78.4502L56.3745 78.4474L55.9287 78.6738ZM45.2061 75.832L45.4644 76.2602L45.4731 76.2548L45.2061 75.832ZM42.5693 78.6738L42.125 78.4445L42.1236 78.4473L42.5693 78.6738ZM49.249 92.8223C47.2735 92.8223 45.555 92.3903 44.0783 91.5412L43.5799 92.4081C45.2282 93.3558 47.123 93.8223 49.249 93.8223V92.8223ZM44.0831 91.5439C42.6392 90.6924 41.5112 89.5192 40.6942 88.0152L39.8155 88.4926C40.7173 90.1527 41.9722 91.46 43.5751 92.4053L44.0831 91.5439ZM40.6977 88.0217C39.8985 86.4977 39.4742 84.7495 39.4364 82.7659L38.4366 82.7849C38.477 84.9029 38.9316 86.807 39.8121 88.4861L40.6977 88.0217ZM39.4364 82.7849C39.4742 80.8012 39.8985 79.0638 40.6965 77.5606L39.8133 77.0917C38.9316 78.7526 38.477 80.648 38.4366 82.7659L39.4364 82.7849ZM40.6977 77.5584C41.4936 76.0406 42.6278 74.8606 44.1076 74.0096L43.6092 73.1427C41.964 74.0887 40.6959 75.4086 39.8121 77.094L40.6977 77.5584ZM44.1076 74.0096C45.5851 73.1601 47.2939 72.7285 49.249 72.7285V71.7285C47.1416 71.7285 45.2567 72.1954 43.6092 73.1427L44.1076 74.0096ZM49.249 72.7285C51.2246 72.7285 52.943 73.1605 54.4197 74.0096L54.9182 73.1427C53.2699 72.195 51.375 71.7285 49.249 71.7285V72.7285ZM54.415 74.0069C55.8563 74.8569 56.9734 76.0373 57.7711 77.5584L58.6567 77.094C57.7746 75.4119 56.5284 74.0923 54.9229 73.1455L54.415 74.0069ZM57.7733 77.5626C58.591 79.0864 59.0239 80.8235 59.0616 82.785L60.0614 82.7658C60.021 80.6647 59.5555 78.769 58.6544 77.0898L57.7733 77.5626ZM59.0616 82.7658C59.0239 84.7292 58.5999 86.457 57.8015 87.9609L58.6848 88.4298C59.5661 86.7696 60.0211 84.8841 60.0614 82.785L59.0616 82.7658ZM57.8014 87.9611C56.9853 89.5006 55.8404 90.6906 54.3611 91.5412L54.8596 92.4081C56.5053 91.4618 57.7823 90.1322 58.6849 88.4295L57.8014 87.9611ZM54.3588 91.5425C52.9022 92.3906 51.2043 92.8223 49.249 92.8223V93.8223C51.3563 93.8223 53.2326 93.3555 54.8619 92.4067L54.3588 91.5425ZM41.1611 82.7754C41.1611 84.3666 41.4778 85.8119 42.1221 87.1006L43.0165 86.6533C42.4499 85.5201 42.1611 84.231 42.1611 82.7754H41.1611ZM42.1221 87.1006C42.787 88.4302 43.7292 89.4701 44.9477 90.2054L45.4644 89.3492C44.4173 88.7174 43.6017 87.8237 43.0165 86.6533L42.1221 87.1006ZM44.9564 90.2106C46.1961 90.925 47.6326 91.2734 49.249 91.2734V90.2734C47.7795 90.2734 46.5207 89.9579 45.4557 89.3441L44.9564 90.2106ZM49.249 91.2734C50.9064 91.2734 52.351 90.9044 53.559 90.1415L53.025 89.296C52.0064 89.9393 50.7558 90.2734 49.249 90.2734V91.2734ZM53.5503 90.1468C54.7641 89.4144 55.6978 88.4067 56.3452 87.1328L55.4537 86.6797C54.8901 87.7886 54.0855 88.6559 53.0337 89.2907L53.5503 90.1468ZM56.3437 87.1356C57.0099 85.8448 57.3369 84.3875 57.3369 82.7754H56.3369C56.3369 84.2492 56.0389 85.5458 55.4551 86.6769L56.3437 87.1356ZM57.3369 82.7754C57.3369 81.1841 57.0202 79.7389 56.3759 78.4502L55.4815 78.8974C56.0481 80.0307 56.3369 81.3198 56.3369 82.7754H57.3369ZM56.3745 78.4474C55.7079 77.135 54.7543 76.1062 53.5178 75.3727L53.0076 76.2328C54.0758 76.8664 54.8995 77.7517 55.4829 78.9003L56.3745 78.4474ZM53.5178 75.3727C52.2781 74.6373 50.8497 74.2773 49.249 74.2773V75.2773C50.6952 75.2773 51.9426 75.601 53.0076 76.2328L53.5178 75.3727ZM49.249 74.2773C47.5917 74.2773 46.1471 74.6463 44.9391 75.4093L45.4731 76.2548C46.4916 75.6115 47.7423 75.2773 49.249 75.2773V74.2773ZM44.9477 75.4039C43.7333 76.1368 42.7911 77.154 42.125 78.4445L43.0136 78.9031C43.5976 77.7718 44.4132 76.8945 45.4644 76.2601L44.9477 75.4039ZM42.1236 78.4473C41.4773 79.719 41.1611 81.1659 41.1611 82.7754H42.1611C42.1611 81.299 42.4504 80.0115 43.0151 78.9004L42.1236 78.4473ZM63.458 91.916L63.6565 91.457L63.6503 91.4545L63.458 91.916ZM62.8428 91.418L62.4267 91.6953L62.4344 91.7069L62.4428 91.718L62.8428 91.418ZM62.96 89.8066L63.3135 90.1602L63.3206 90.1531L63.3274 90.1458L62.96 89.8066ZM64.3955 89.543L64.1719 89.9902L64.1827 89.9956L64.1938 90.0005L64.3955 89.543ZM74.6201 85.9688L74.2757 86.3312L74.2843 86.3394L74.2933 86.3472L74.6201 85.9688ZM73.1553 85.0898L72.9831 85.5593L73.1553 85.0898ZM70.2549 84.2402L70.3811 83.7564L70.3776 83.7555L70.2549 84.2402ZM66.417 83.0391L66.6043 82.5753L66.5934 82.5712L66.417 83.0391ZM63.7217 81.1641L63.3194 81.461L63.3229 81.4656L63.7217 81.1641ZM63.6924 75.1875L63.2698 74.9202L63.2684 74.9225L63.6924 75.1875ZM66.3584 72.9902L66.1623 72.5303L66.1596 72.5315L66.3584 72.9902ZM76.2607 73.1953L76.4381 72.7278L76.4363 72.7271L76.2607 73.1953ZM76.7588 75.2754L77.1262 75.6145L77.1324 75.6078L77.1384 75.6008L76.7588 75.2754ZM75.4404 75.5391L75.6435 75.0822L75.6241 75.0735L75.604 75.0666L75.4404 75.5391ZM66.9443 75.627L66.6832 75.2005L66.6793 75.203L66.9443 75.627ZM66.2412 79.7285L66.5864 79.3668L66.5786 79.3594L66.5705 79.3522L66.2412 79.7285ZM70.7529 81.5449L70.8687 81.0585L70.8637 81.0574L70.7529 81.5449ZM74.5029 82.6582L74.3135 83.1212L74.3264 83.126L74.5029 82.6582ZM76.9932 84.4746L76.5954 84.7777L76.6 84.7835L76.9932 84.4746ZM77.0225 90.5391L77.4288 90.8305L77.4329 90.8246L77.0225 90.5391ZM74.3271 92.6191L74.5183 93.0812L74.5222 93.0795L74.3271 92.6191ZM70.4307 92.8223C68.015 92.8223 65.7587 92.3661 63.6565 91.4571L63.2596 92.3749C65.4933 93.3409 67.8854 93.8223 70.4307 93.8223V92.8223ZM63.6503 91.4545C63.5103 91.3962 63.3734 91.2921 63.2428 91.118L62.4428 91.718C62.6638 92.0126 62.9369 92.2406 63.2657 92.3776L63.6503 91.4545ZM63.2588 91.1406C63.1511 90.979 63.1084 90.8301 63.1084 90.6855H62.1084C62.1084 91.0488 62.222 91.3881 62.4267 91.6953L63.2588 91.1406ZM63.1084 90.6855C63.1084 90.4577 63.179 90.2947 63.3135 90.1602L62.6064 89.4531C62.2721 89.7874 62.1084 90.2103 62.1084 90.6855H63.1084ZM63.3274 90.1458C63.4652 89.9964 63.6241 89.9258 63.8389 89.9258V88.9258C63.3505 88.9258 62.9234 89.109 62.5926 89.4675L63.3274 90.1458ZM63.8389 89.9258C63.9936 89.9258 64.0992 89.9538 64.1719 89.9902L64.6191 89.0958C64.3793 88.9758 64.1138 88.9258 63.8389 88.9258V89.9258ZM64.1938 90.0005C66.0753 90.8299 68.0679 91.2441 70.167 91.2441V90.2441C68.2035 90.2441 66.3486 89.8576 64.5972 89.0855L64.1938 90.0005ZM70.167 91.2441C71.9049 91.2441 73.2951 90.9624 74.2642 90.3274C75.2702 89.6683 75.7646 88.667 75.7646 87.4043H74.7646C74.7646 88.3682 74.4095 89.0367 73.7162 89.4909C72.9862 89.9693 71.8275 90.2441 70.167 90.2441V91.2441ZM75.7646 87.4043C75.7646 86.6784 75.4906 86.0598 74.9469 85.5903L74.2933 86.3472C74.609 86.6198 74.7646 86.9583 74.7646 87.4043H75.7646ZM74.9645 85.6063C74.5171 85.1813 73.9674 84.8551 73.3274 84.6204L72.9831 85.5593C73.515 85.7543 73.9418 86.014 74.2757 86.3312L74.9645 85.6063ZM73.3274 84.6204C72.7171 84.3966 71.7302 84.1084 70.3811 83.7564L70.1287 84.724C71.4749 85.0752 72.4216 85.3534 72.9831 85.5593L73.3274 84.6204ZM70.3776 83.7555C68.8477 83.3682 67.5918 82.9743 66.6042 82.5754L66.2298 83.5027C67.2735 83.9242 68.5761 84.331 70.1322 84.7249L70.3776 83.7555ZM66.5934 82.5712C65.4668 82.1464 64.6556 81.5702 64.1205 80.8625L63.3229 81.4656C63.9987 82.3595 64.9843 83.0332 66.2406 83.5069L66.5934 82.5712ZM64.124 80.8671C63.5879 80.1408 63.3135 79.2804 63.3135 78.2637H62.3135C62.3135 79.4735 62.6446 80.5467 63.3194 81.461L64.124 80.8671ZM63.3135 78.2637C63.3135 77.2434 63.5805 76.3099 64.1164 75.4525L63.2684 74.9225C62.6324 75.9401 62.3135 77.0574 62.3135 78.2637H63.3135ZM64.1149 75.4548C64.66 74.5932 65.4652 73.9222 66.5572 73.449L66.1596 72.5315C64.9078 73.0739 63.9357 73.8677 63.2698 74.9202L64.1149 75.4548ZM66.5544 73.4502C67.6739 72.973 68.9629 72.7285 70.4307 72.7285V71.7285C68.8516 71.7285 67.4257 71.9918 66.1623 72.5303L66.5544 73.4502ZM70.4307 72.7285C72.5493 72.7285 74.4317 73.0434 76.0852 73.6635L76.4363 72.7271C74.6523 72.0581 72.648 71.7285 70.4307 71.7285V72.7285ZM76.0834 73.6628C76.2956 73.7433 76.4178 73.8438 76.4897 73.9455C76.5607 74.0458 76.6104 74.1863 76.6104 74.3965H77.6104C77.6104 74.0207 77.5184 73.668 77.3062 73.368C77.0949 73.0693 76.7923 72.8622 76.4381 72.7278L76.0834 73.6628ZM76.6104 74.3965C76.6104 74.5717 76.5484 74.7525 76.3792 74.95L77.1384 75.6008C77.4379 75.2514 77.6104 74.8463 77.6104 74.3965H76.6104ZM76.3914 74.9363C76.2473 75.0923 76.0954 75.1562 75.9092 75.1562V76.1562C76.3871 76.1562 76.8015 75.9663 77.1262 75.6145L76.3914 74.9363ZM75.9092 75.1562C75.8648 75.1562 75.7796 75.1426 75.6435 75.0822L75.2374 75.996C75.4529 76.0917 75.6801 76.1562 75.9092 76.1562V75.1562ZM75.604 75.0666C74.0276 74.5209 72.4001 74.248 70.7236 74.248V75.248C72.2894 75.248 73.8063 75.5025 75.2769 76.0116L75.604 75.0666ZM70.7236 74.248C69.1036 74.248 67.7439 74.5511 66.6833 75.2005L67.2054 76.0534C68.0588 75.5309 69.2187 75.248 70.7236 75.248V74.248ZM66.6793 75.203C65.6076 75.8728 65.0381 76.8374 65.0381 78.0586H66.0381C66.0381 77.2095 66.4061 76.553 67.2093 76.051L66.6793 75.203ZM65.0381 78.0586C65.0381 78.8852 65.32 79.5869 65.912 80.1048L66.5705 79.3522C66.2249 79.0499 66.0381 78.6382 66.0381 78.0586H65.0381ZM65.896 80.0902C66.3795 80.5518 66.9744 80.9161 67.6693 81.1898L68.0358 80.2594C67.4416 80.0253 66.9622 79.7256 66.5864 79.3668L65.896 80.0902ZM67.6693 81.1898C68.3498 81.4579 69.3463 81.738 70.6421 82.0325L70.8637 81.0574C69.5815 80.7659 68.6443 80.4991 68.0358 80.2594L67.6693 81.1898ZM70.6371 82.0313C72.2694 82.42 73.49 82.784 74.3136 83.121L74.6922 82.1954C73.7971 81.8292 72.5177 81.4511 70.8687 81.0585L70.6371 82.0313ZM74.3264 83.126C75.2805 83.486 76.0314 84.0374 76.5954 84.7776L77.3909 84.1716C76.7049 83.2712 75.7957 82.6116 74.6795 82.1904L74.3264 83.126ZM76.6 84.7835C77.1623 85.4992 77.46 86.4191 77.46 87.5801H78.46C78.46 86.241 78.113 85.0906 77.3863 84.1657L76.6 84.7835ZM77.46 87.5801C77.46 88.5502 77.1799 89.4372 76.612 90.2535L77.4329 90.8246C78.115 89.844 78.46 88.7584 78.46 87.5801H77.46ZM76.6162 90.2476C76.032 91.0619 75.2113 91.7015 74.1321 92.1588L74.5222 93.0795C75.7477 92.5602 76.7239 91.8131 77.4287 90.8305L76.6162 90.2476ZM74.136 92.1571C73.0744 92.5964 71.8424 92.8223 70.4307 92.8223V93.8223C71.9486 93.8223 73.3143 93.5794 74.5183 93.0811L74.136 92.1571ZM82.3838 92.6484L82.0174 92.9887L82.03 93.0022L82.0436 93.0148L82.3838 92.6484ZM82.3838 72.9316L82.0302 72.5781L82.0237 72.5846L82.0174 72.5914L82.3838 72.9316ZM96.0068 74.7188L96.346 75.0862L96.3533 75.0794L96.3604 75.0723L96.0068 74.7188ZM84.7275 81.4863H84.2275V81.9863H84.7275V81.4863ZM94.9521 81.8672L94.5986 82.2207L94.9521 81.8672ZM94.9521 83.6836L95.2913 84.051L95.2986 84.0442L95.3057 84.0371L94.9521 83.6836ZM84.7275 84.0352V83.5352H84.2275V84.0352H84.7275ZM96.0068 92.6777L96.346 93.0451L96.3533 93.0384L96.3604 93.0313L96.0068 92.6777ZM83.3506 92.5293C83.1065 92.5293 82.9055 92.4506 82.724 92.282L82.0436 93.0148C82.4089 93.3541 82.8525 93.5293 83.3506 93.5293V92.5293ZM82.7502 92.3082C82.5816 92.1267 82.5029 91.9258 82.5029 91.6816H81.5029C81.5029 92.1797 81.6781 92.6233 82.0174 92.9887L82.7502 92.3082ZM82.5029 91.6816V73.8984H81.5029V91.6816H82.5029ZM82.5029 73.8984C82.5029 73.6543 82.5816 73.4534 82.7502 73.2719L82.0174 72.5914C81.6781 72.9568 81.5029 73.4004 81.5029 73.8984H82.5029ZM82.7373 73.2852C82.9214 73.1011 83.1182 73.0215 83.3506 73.0215V72.0215C82.8408 72.0215 82.393 72.2153 82.0302 72.5781L82.7373 73.2852ZM83.3506 73.0215H95.0986V72.0215H83.3506V73.0215ZM95.0986 73.0215C95.3144 73.0215 95.4909 73.0935 95.6533 73.2559L96.3604 72.5488C96.015 72.2034 95.5859 72.0215 95.0986 72.0215V73.0215ZM95.6533 73.2559C95.8157 73.4183 95.8877 73.5947 95.8877 73.8105H96.8877C96.8877 73.3232 96.7058 72.8942 96.3604 72.5488L95.6533 73.2559ZM95.8877 73.8105C95.8877 74.0264 95.8157 74.2028 95.6533 74.3652L96.3604 75.0723C96.7058 74.7269 96.8877 74.2979 96.8877 73.8105H95.8877ZM95.6677 74.3513C95.5079 74.4988 95.3269 74.5703 95.0986 74.5703V75.5703C95.5735 75.5703 95.9979 75.4074 96.346 75.0862L95.6677 74.3513ZM95.0986 74.5703H85.0791V75.5703H95.0986V74.5703ZM85.0791 74.5703C84.8848 74.5703 84.6473 74.6192 84.4619 74.8046C84.2764 74.9901 84.2275 75.2276 84.2275 75.4219H85.2275C85.2275 75.3818 85.2372 75.4435 85.169 75.5118C85.1007 75.58 85.039 75.5703 85.0791 75.5703V74.5703ZM84.2275 75.4219V81.4863H85.2275V75.4219H84.2275ZM84.7275 81.9863H94.0439V80.9863H84.7275V81.9863ZM94.0439 81.9863C94.2598 81.9863 94.4362 82.0584 94.5986 82.2207L95.3057 81.5136C94.9603 81.1682 94.5313 80.9863 94.0439 80.9863V81.9863ZM94.5986 82.2207C94.761 82.3831 94.833 82.5596 94.833 82.7754H95.833C95.833 82.2881 95.6511 81.8591 95.3057 81.5136L94.5986 82.2207ZM94.833 82.7754C94.833 82.9912 94.761 83.1677 94.5986 83.33L95.3057 84.0371C95.6511 83.6917 95.833 83.2627 95.833 82.7754H94.833ZM94.613 83.3162C94.4532 83.4637 94.2722 83.5352 94.0439 83.5352V84.5352C94.5188 84.5352 94.9433 84.3723 95.2913 84.051L94.613 83.3162ZM94.0439 83.5352H84.7275V84.5352H94.0439V83.5352ZM84.2275 84.0352V90.1289H85.2275V84.0352H84.2275ZM84.2275 90.1289C84.2275 90.3232 84.2764 90.5607 84.4619 90.7461C84.6473 90.9316 84.8848 90.9805 85.0791 90.9805V89.9805C85.039 89.9805 85.1007 89.9708 85.169 90.039C85.2372 90.1073 85.2275 90.169 85.2275 90.1289H84.2275ZM85.0791 90.9805H95.0986V89.9805H85.0791V90.9805ZM95.0986 90.9805C95.3144 90.9805 95.4909 91.0525 95.6533 91.2149L96.3604 90.5078C96.015 90.1623 95.5859 89.9805 95.0986 89.9805V90.9805ZM95.6533 91.2149C95.8157 91.3773 95.8877 91.5537 95.8877 91.7695H96.8877C96.8877 91.2822 96.7058 90.8532 96.3604 90.5078L95.6533 91.2149ZM95.8877 91.7695C95.8877 91.9853 95.8157 92.1618 95.6533 92.3242L96.3604 93.0313C96.7058 92.6859 96.8877 92.2568 96.8877 91.7695H95.8877ZM95.6677 92.3103C95.5079 92.4578 95.3269 92.5293 95.0986 92.5293V93.5293C95.5735 93.5293 95.9979 93.3664 96.346 93.0451L95.6677 92.3103ZM95.0986 92.5293H83.3506V93.5293H95.0986V92.5293Z" fill="#4CAF50"/>
</svg>
