<svg width="93" height="94" viewBox="0 0 93 94" fill="none" xmlns="http://www.w3.org/2000/svg">
<path d="M68.5437 1.01158e-05C72.7455 6.05087e-06 75.0734 4.86843 72.4355 8.139L65.2818 17.0085C63.8043 18.8404 63.8043 21.4547 65.2818 23.2865L72.4355 32.1561C75.0734 35.4267 72.7455 40.2951 68.5437 40.2951H24.4167C21.6553 40.2951 19.4167 38.0565 19.4167 35.2951V5.00005C19.4167 2.23863 21.6553 5.54769e-05 24.4167 5.28054e-05L68.5437 1.01158e-05Z" fill="#FFC107"/>
<path d="M18.9653 19.7048L18.9653 59.9999" stroke="#1E88E5" stroke-width="10" stroke-linecap="round"/>
<path d="M58.7032 1.04639e-05C62.8076 6.13218e-06 65.1638 4.67213 62.7237 7.9725L55.9199 17.175C54.6139 18.9415 54.6139 21.3536 55.9199 23.12L62.7237 32.3226C65.1638 35.6229 62.8077 40.2951 58.7032 40.2951H19C16.2386 40.2951 14 38.0565 14 35.2951V5.00005C14 2.23863 16.2386 5.528e-05 19 5.23657e-05L58.7032 1.04639e-05Z" fill="#F44336"/>
<path d="M4.29785 93.1758C3.92676 93.1758 3.60449 93.0488 3.33105 92.7949C3.07715 92.5215 2.9502 92.1992 2.9502 91.8281V74.3379C2.9502 73.8105 3.13574 73.3516 3.50684 72.9609C3.89746 72.5703 4.35645 72.375 4.88379 72.375H5.85059C6.22168 72.375 6.57324 72.4922 6.90527 72.7266C7.2373 72.9414 7.49121 73.2441 7.66699 73.6348L14.0537 89.5723C14.1123 89.709 14.1904 89.7773 14.2881 89.7773C14.3857 89.7773 14.4639 89.709 14.5225 89.5723L20.9092 73.6348C21.085 73.2441 21.3389 72.9414 21.6709 72.7266C22.0029 72.4922 22.3545 72.375 22.7256 72.375H23.6924C24.2197 72.375 24.6689 72.5703 25.04 72.9609C25.4307 73.3516 25.626 73.8105 25.626 74.3379V91.8281C25.626 92.1992 25.4893 92.5215 25.2158 92.7949C24.9619 93.0488 24.6494 93.1758 24.2783 93.1758C23.9072 93.1758 23.585 93.0488 23.3115 92.7949C23.0381 92.5215 22.9014 92.1992 22.9014 91.8281V76.3594C22.9014 76.1836 22.8428 76.0957 22.7256 76.0957C22.6475 76.0957 22.5791 76.1543 22.5205 76.2715L16.1924 91.916C16.0361 92.2871 15.7822 92.5898 15.4307 92.8242C15.0791 93.0586 14.6982 93.1758 14.2881 93.1758C13.8779 93.1758 13.4971 93.0586 13.1455 92.8242C12.7939 92.5898 12.54 92.2871 12.3838 91.916L6.05566 76.2715C5.99707 76.1543 5.92871 76.0957 5.85059 76.0957C5.7334 76.0957 5.6748 76.1836 5.6748 76.3594V91.8281C5.6748 92.1992 5.53809 92.5215 5.26465 92.7949C4.99121 93.0488 4.66895 93.1758 4.29785 93.1758ZM32.5986 93.0293C32.2275 93.0293 31.9053 92.9023 31.6318 92.6484C31.3779 92.375 31.251 92.0527 31.251 91.6816V73.8984C31.251 73.5273 31.3779 73.2051 31.6318 72.9316C31.9053 72.6582 32.2275 72.5215 32.5986 72.5215H44.3467C44.6982 72.5215 45.001 72.6484 45.2549 72.9023C45.5088 73.1562 45.6357 73.459 45.6357 73.8105C45.6357 74.1621 45.5088 74.4648 45.2549 74.7188C45.001 74.9531 44.6982 75.0703 44.3467 75.0703H34.3271C34.0928 75.0703 33.9756 75.1875 33.9756 75.4219V81.4863H43.292C43.6436 81.4863 43.9463 81.6133 44.2002 81.8672C44.4541 82.1211 44.5811 82.4238 44.5811 82.7754C44.5811 83.127 44.4541 83.4297 44.2002 83.6836C43.9463 83.918 43.6436 84.0352 43.292 84.0352H33.9756V90.1289C33.9756 90.3633 34.0928 90.4805 34.3271 90.4805H44.3467C44.6982 90.4805 45.001 90.6074 45.2549 90.8613C45.5088 91.1152 45.6357 91.418 45.6357 91.7695C45.6357 92.1211 45.5088 92.4238 45.2549 92.6777C45.001 92.9121 44.6982 93.0293 44.3467 93.0293H32.5986ZM51.29 93.1758C50.9189 93.1758 50.5967 93.0488 50.3232 92.7949C50.0693 92.5215 49.9424 92.1992 49.9424 91.8281V74.3379C49.9424 73.8105 50.1279 73.3516 50.499 72.9609C50.8896 72.5703 51.3486 72.375 51.876 72.375H52.2568C52.8818 72.375 53.4287 72.668 53.8975 73.2539L64.708 88.8691C64.8057 88.9863 64.8838 89.0449 64.9424 89.0449C64.9814 89.0449 65.0205 89.0156 65.0596 88.957C65.0986 88.8984 65.1182 88.8301 65.1182 88.752V73.752C65.1182 73.3809 65.2451 73.0586 65.499 72.7852C65.7725 72.5117 66.0947 72.375 66.4658 72.375C66.8369 72.375 67.1592 72.5117 67.4326 72.7852C67.7061 73.0586 67.8428 73.3809 67.8428 73.752V91.2422C67.8428 91.7695 67.6475 92.2285 67.2568 92.6191C66.8662 92.9902 66.4072 93.1758 65.8799 93.1758H65.5283C65.2158 93.1758 64.9131 93.1074 64.6201 92.9707C64.3467 92.8145 64.1221 92.6191 63.9463 92.3848L53.0771 76.6816C52.999 76.5645 52.9209 76.5059 52.8428 76.5059C52.8037 76.5059 52.7646 76.5352 52.7256 76.5938C52.6865 76.6523 52.667 76.7207 52.667 76.7988V91.8281C52.667 92.1992 52.5303 92.5215 52.2568 92.7949C51.9834 93.0488 51.6611 93.1758 51.29 93.1758ZM81.7588 93.3223C80.3525 93.3223 79.0146 93.0293 77.7451 92.4434C76.3975 91.8379 75.3232 90.9199 74.5225 89.6895C73.7217 88.459 73.3213 87.0039 73.3213 85.3242V73.752C73.3213 73.3809 73.4482 73.0586 73.7021 72.7852C73.9756 72.5117 74.2979 72.375 74.6689 72.375C75.04 72.375 75.3623 72.5117 75.6357 72.7852C75.9092 73.0586 76.0459 73.3809 76.0459 73.752V85.4121C76.0459 86.6035 76.3193 87.5898 76.8662 88.3711C77.374 89.1719 78.0576 89.7871 78.917 90.2168C79.7959 90.627 80.7432 90.832 81.7588 90.832C82.7549 90.832 83.6924 90.627 84.5713 90.2168C85.4893 89.7871 86.2021 89.1621 86.71 88.3418C87.2178 87.502 87.4717 86.5254 87.4717 85.4121V73.752C87.4717 73.3809 87.5986 73.0586 87.8525 72.7852C88.126 72.5117 88.4482 72.375 88.8193 72.375C89.1904 72.375 89.5127 72.5117 89.7861 72.7852C90.0596 73.0586 90.1963 73.3809 90.1963 73.752V85.3242C90.1963 87.043 89.7861 88.5176 88.9658 89.748C88.165 90.9199 87.1201 91.8086 85.8311 92.4141C84.5615 93.0195 83.2041 93.3223 81.7588 93.3223Z" fill="#4CAF50"/>
<path d="M3.33105 92.7949L2.96466 93.1351L2.97726 93.1487L2.99083 93.1613L3.33105 92.7949ZM3.50684 72.9609L3.15317 72.6073L3.14434 72.6166L3.50684 72.9609ZM6.90527 72.7266L6.61693 73.135L6.62518 73.1409L6.63365 73.1463L6.90527 72.7266ZM7.66699 73.6348L8.13111 73.4488L8.12723 73.4391L8.12295 73.4296L7.66699 73.6348ZM14.0537 89.5723L13.5895 89.7583L13.5941 89.7692L14.0537 89.5723ZM14.5225 89.5723L14.9822 89.7693L14.9866 89.7583L14.5225 89.5723ZM20.9092 73.6348L20.4532 73.4296L20.4489 73.4391L20.4451 73.4488L20.9092 73.6348ZM21.6709 72.7266L21.9425 73.1463L21.951 73.1409L21.9592 73.135L21.6709 72.7266ZM25.04 72.9609L24.6774 73.3054L24.6865 73.3145L25.04 72.9609ZM23.3115 92.7949L22.958 93.1485L22.9645 93.155L22.9713 93.1613L23.3115 92.7949ZM22.5205 76.2715L22.0733 76.0479L22.0644 76.0656L22.057 76.084L22.5205 76.2715ZM16.1924 91.916L16.6532 92.1101L16.6559 92.1035L16.1924 91.916ZM12.3838 91.916L11.9202 92.1035L11.923 92.11L12.3838 91.916ZM6.05566 76.2715L6.51918 76.084L6.51175 76.0656L6.50288 76.0479L6.05566 76.2715ZM5.26465 92.7949L5.60487 93.1613L5.61166 93.155L5.6182 93.1485L5.26465 92.7949ZM4.29785 92.6758C4.05374 92.6758 3.8528 92.5971 3.67128 92.4285L2.99083 93.1613C3.35618 93.5006 3.79978 93.6758 4.29785 93.6758V92.6758ZM3.69745 92.4547C3.52889 92.2732 3.4502 92.0722 3.4502 91.8281H2.4502C2.4502 92.3262 2.6254 92.7698 2.96466 93.1351L3.69745 92.4547ZM3.4502 91.8281V74.3379H2.4502V91.8281H3.4502ZM3.4502 74.3379C3.4502 73.9418 3.58439 73.6053 3.86934 73.3053L3.14434 72.6166C2.6871 73.0979 2.4502 73.6793 2.4502 74.3379H3.4502ZM3.86039 73.3145C4.16221 73.0127 4.49592 72.875 4.88379 72.875V71.875C4.21697 71.875 3.63271 72.128 3.15328 72.6074L3.86039 73.3145ZM4.88379 72.875H5.85059V71.875H4.88379V72.875ZM5.85059 72.875C6.10857 72.875 6.36083 72.9543 6.61693 73.135L7.19362 72.3181C6.78565 72.0301 6.33479 71.875 5.85059 71.875V72.875ZM6.63365 73.1463C6.87812 73.3045 7.07133 73.5295 7.21103 73.8399L8.12295 73.4296C7.91109 72.9588 7.59648 72.5783 7.1769 72.3068L6.63365 73.1463ZM7.20287 73.8208L13.5896 89.7583L14.5178 89.3863L8.13111 73.4488L7.20287 73.8208ZM13.5941 89.7692C13.6845 89.9801 13.8934 90.2773 14.2881 90.2773V89.2773C14.3234 89.2773 14.3619 89.2838 14.3997 89.2985C14.4371 89.3131 14.4657 89.3324 14.4855 89.3498C14.5217 89.3815 14.525 89.4025 14.5133 89.3753L13.5941 89.7692ZM14.2881 90.2773C14.6828 90.2773 14.8917 89.9801 14.982 89.7692L14.0629 89.3753C14.0512 89.4025 14.0545 89.3815 14.0907 89.3498C14.1105 89.3324 14.139 89.3131 14.1764 89.2985C14.2143 89.2838 14.2527 89.2773 14.2881 89.2773V90.2773ZM14.9866 89.7583L21.3733 73.8208L20.4451 73.4488L14.0583 89.3863L14.9866 89.7583ZM21.3651 73.8399C21.5048 73.5295 21.698 73.3045 21.9425 73.1463L21.3993 72.3068C20.9797 72.5783 20.6651 72.9588 20.4532 73.4296L21.3651 73.8399ZM21.9592 73.135C22.2153 72.9543 22.4676 72.875 22.7256 72.875V71.875C22.2414 71.875 21.7905 72.0301 21.3826 72.3181L21.9592 73.135ZM22.7256 72.875H23.6924V71.875H22.7256V72.875ZM23.6924 72.875C24.0793 72.875 24.3985 73.0116 24.6775 73.3053L25.4025 72.6166C24.9394 72.129 24.3601 71.875 23.6924 71.875V72.875ZM24.6865 73.3145C24.9883 73.6163 25.126 73.95 25.126 74.3379H26.126C26.126 73.6711 25.873 73.0868 25.3936 72.6074L24.6865 73.3145ZM25.126 74.3379V91.8281H26.126V74.3379H25.126ZM25.126 91.8281C25.126 92.0605 25.0463 92.2573 24.8623 92.4414L25.5694 93.1485C25.9322 92.7857 26.126 92.3379 26.126 91.8281H25.126ZM24.8623 92.4414C24.7056 92.5981 24.5218 92.6758 24.2783 92.6758V93.6758C24.7771 93.6758 25.2182 93.4996 25.5694 93.1485L24.8623 92.4414ZM24.2783 92.6758C24.0342 92.6758 23.8333 92.5971 23.6517 92.4285L22.9713 93.1613C23.3366 93.5006 23.7802 93.6758 24.2783 93.6758V92.6758ZM23.6651 92.4414C23.481 92.2573 23.4014 92.0605 23.4014 91.8281H22.4014C22.4014 92.3379 22.5952 92.7857 22.958 93.1485L23.6651 92.4414ZM23.4014 91.8281V76.3594H22.4014V91.8281H23.4014ZM23.4014 76.3594C23.4014 76.2317 23.383 76.0485 23.2734 75.8843C23.1401 75.6842 22.9298 75.5957 22.7256 75.5957V76.5957C22.6921 76.5957 22.6385 76.5892 22.5789 76.5594C22.5172 76.5286 22.4713 76.4838 22.4414 76.439C22.3905 76.3626 22.4014 76.3112 22.4014 76.3594H23.4014ZM22.7256 75.5957C22.3523 75.5957 22.1557 75.8832 22.0733 76.0479L22.9677 76.4951C22.9797 76.4712 22.9751 76.4902 22.9411 76.5193C22.8993 76.5551 22.8238 76.5957 22.7256 76.5957V75.5957ZM22.057 76.084L15.7289 91.7285L16.6559 92.1035L22.984 76.459L22.057 76.084ZM15.7316 91.722C15.6153 91.9981 15.4275 92.2254 15.1533 92.4082L15.708 93.2402C16.1369 92.9543 16.457 92.5761 16.6532 92.11L15.7316 91.722ZM15.1533 92.4082C14.8813 92.5896 14.5964 92.6758 14.2881 92.6758V93.6758C14.8001 93.6758 15.2769 93.5276 15.708 93.2402L15.1533 92.4082ZM14.2881 92.6758C13.9798 92.6758 13.6949 92.5896 13.4229 92.4082L12.8682 93.2402C13.2992 93.5276 13.7761 93.6758 14.2881 93.6758V92.6758ZM13.4229 92.4082C13.1487 92.2254 12.9609 91.9981 12.8446 91.722L11.923 92.11C12.1192 92.5761 12.4392 92.9543 12.8682 93.2402L13.4229 92.4082ZM12.8473 91.7285L6.51918 76.084L5.59215 76.459L11.9203 92.1035L12.8473 91.7285ZM6.50288 76.0479C6.42052 75.8832 6.22391 75.5957 5.85059 75.5957V76.5957C5.75234 76.5957 5.67686 76.5551 5.63505 76.5193C5.60111 76.4902 5.59652 76.4712 5.60845 76.4951L6.50288 76.0479ZM5.85059 75.5957C5.64634 75.5957 5.43609 75.6842 5.30272 75.8843C5.19321 76.0485 5.1748 76.2317 5.1748 76.3594H6.1748C6.1748 76.3112 6.18569 76.3626 6.13478 76.439C6.10489 76.4838 6.05896 76.5286 5.99729 76.5594C5.93769 76.5892 5.88409 76.5957 5.85059 76.5957V75.5957ZM5.1748 76.3594V91.8281H6.1748V76.3594H5.1748ZM5.1748 91.8281C5.1748 92.0605 5.09516 92.2573 4.9111 92.4414L5.6182 93.1485C5.98101 92.7857 6.1748 92.3379 6.1748 91.8281H5.1748ZM4.92442 92.4285C4.7429 92.5971 4.54197 92.6758 4.29785 92.6758V93.6758C4.79592 93.6758 5.23952 93.5006 5.60487 93.1613L4.92442 92.4285ZM31.6318 92.6484L31.2654 92.9887L31.278 93.0022L31.2916 93.0148L31.6318 92.6484ZM31.6318 72.9316L31.2783 72.5781L31.2717 72.5846L31.2654 72.5914L31.6318 72.9316ZM45.2549 74.7188L45.594 75.0862L45.6014 75.0794L45.6084 75.0723L45.2549 74.7188ZM33.9756 81.4863H33.4756V81.9863H33.9756V81.4863ZM44.2002 81.8672L43.8466 82.2207L44.2002 81.8672ZM44.2002 83.6836L44.5393 84.051L44.5467 84.0442L44.5537 84.0371L44.2002 83.6836ZM33.9756 84.0352V83.5352H33.4756V84.0352H33.9756ZM45.2549 92.6777L45.594 93.0451L45.6014 93.0384L45.6084 93.0313L45.2549 92.6777ZM32.5986 92.5293C32.3545 92.5293 32.1536 92.4506 31.9721 92.282L31.2916 93.0148C31.657 93.3541 32.1006 93.5293 32.5986 93.5293V92.5293ZM31.9982 92.3082C31.8297 92.1267 31.751 91.9258 31.751 91.6816H30.751C30.751 92.1797 30.9262 92.6233 31.2654 92.9887L31.9982 92.3082ZM31.751 91.6816V73.8984H30.751V91.6816H31.751ZM31.751 73.8984C31.751 73.6543 31.8297 73.4534 31.9982 73.2719L31.2654 72.5914C30.9262 72.9568 30.751 73.4004 30.751 73.8984H31.751ZM31.9854 73.2852C32.1695 73.1011 32.3662 73.0215 32.5986 73.0215V72.0215C32.0888 72.0215 31.6411 72.2153 31.2783 72.5781L31.9854 73.2852ZM32.5986 73.0215H44.3467V72.0215H32.5986V73.0215ZM44.3467 73.0215C44.5625 73.0215 44.7389 73.0935 44.9013 73.2559L45.6084 72.5488C45.263 72.2034 44.834 72.0215 44.3467 72.0215V73.0215ZM44.9013 73.2559C45.0637 73.4183 45.1357 73.5947 45.1357 73.8105H46.1357C46.1357 73.3232 45.9539 72.8942 45.6084 72.5488L44.9013 73.2559ZM45.1357 73.8105C45.1357 74.0264 45.0637 74.2028 44.9013 74.3652L45.6084 75.0723C45.9539 74.7269 46.1357 74.2979 46.1357 73.8105H45.1357ZM44.9157 74.3513C44.756 74.4988 44.575 74.5703 44.3467 74.5703V75.5703C44.8215 75.5703 45.246 75.4074 45.594 75.0862L44.9157 74.3513ZM44.3467 74.5703H34.3271V75.5703H44.3467V74.5703ZM34.3271 74.5703C34.1329 74.5703 33.8954 74.6192 33.7099 74.8046C33.5245 74.9901 33.4756 75.2276 33.4756 75.4219H34.4756C34.4756 75.3818 34.4853 75.4435 34.417 75.5118C34.3488 75.58 34.287 75.5703 34.3271 75.5703V74.5703ZM33.4756 75.4219V81.4863H34.4756V75.4219H33.4756ZM33.9756 81.9863H43.292V80.9863H33.9756V81.9863ZM43.292 81.9863C43.5078 81.9863 43.6843 82.0584 43.8466 82.2207L44.5537 81.5136C44.2083 81.1682 43.7793 80.9863 43.292 80.9863V81.9863ZM43.8466 82.2207C44.009 82.3831 44.0811 82.5596 44.0811 82.7754H45.0811C45.0811 82.2881 44.8992 81.8591 44.5537 81.5136L43.8466 82.2207ZM44.0811 82.7754C44.0811 82.9912 44.009 83.1677 43.8466 83.33L44.5537 84.0371C44.8992 83.6917 45.0811 83.2627 45.0811 82.7754H44.0811ZM43.8611 83.3162C43.7013 83.4637 43.5203 83.5352 43.292 83.5352V84.5352C43.7668 84.5352 44.1913 84.3723 44.5393 84.051L43.8611 83.3162ZM43.292 83.5352H33.9756V84.5352H43.292V83.5352ZM33.4756 84.0352V90.1289H34.4756V84.0352H33.4756ZM33.4756 90.1289C33.4756 90.3232 33.5245 90.5607 33.7099 90.7461C33.8954 90.9316 34.1329 90.9805 34.3271 90.9805V89.9805C34.287 89.9805 34.3488 89.9708 34.417 90.039C34.4853 90.1073 34.4756 90.169 34.4756 90.1289H33.4756ZM34.3271 90.9805H44.3467V89.9805H34.3271V90.9805ZM44.3467 90.9805C44.5625 90.9805 44.7389 91.0525 44.9013 91.2149L45.6084 90.5078C45.263 90.1623 44.834 89.9805 44.3467 89.9805V90.9805ZM44.9013 91.2149C45.0637 91.3773 45.1357 91.5537 45.1357 91.7695H46.1357C46.1357 91.2822 45.9539 90.8532 45.6084 90.5078L44.9013 91.2149ZM45.1357 91.7695C45.1357 91.9853 45.0637 92.1618 44.9013 92.3242L45.6084 93.0313C45.9539 92.6859 46.1357 92.2568 46.1357 91.7695H45.1357ZM44.9157 92.3103C44.756 92.4578 44.575 92.5293 44.3467 92.5293V93.5293C44.8215 93.5293 45.246 93.3664 45.594 93.0451L44.9157 92.3103ZM44.3467 92.5293H32.5986V93.5293H44.3467V92.5293ZM50.3232 92.7949L49.9568 93.1351L49.9694 93.1487L49.983 93.1613L50.3232 92.7949ZM50.499 72.9609L50.1454 72.6073L50.1365 72.6166L50.499 72.9609ZM53.8975 73.2539L54.3086 72.9693L54.2987 72.9551L54.2879 72.9416L53.8975 73.2539ZM64.708 88.8691L64.2969 89.1537L64.3096 89.1721L64.3239 89.1892L64.708 88.8691ZM65.499 72.7852L65.1455 72.4316L65.1389 72.4381L65.1326 72.4449L65.499 72.7852ZM67.2568 92.6191L67.6013 92.9818L67.6104 92.9727L67.2568 92.6191ZM64.6201 92.9707L64.372 93.4048L64.39 93.4151L64.4087 93.4238L64.6201 92.9707ZM63.9463 92.3848L63.5352 92.6693L63.5406 92.6772L63.5463 92.6848L63.9463 92.3848ZM53.0771 76.6816L52.6611 76.959L52.666 76.9662L53.0771 76.6816ZM52.2568 92.7949L52.5971 93.1613L52.6038 93.155L52.6104 93.1485L52.2568 92.7949ZM51.29 92.6758C51.0459 92.6758 50.845 92.5971 50.6635 92.4285L49.983 93.1613C50.3484 93.5006 50.792 93.6758 51.29 93.6758V92.6758ZM50.6896 92.4547C50.5211 92.2732 50.4424 92.0722 50.4424 91.8281H49.4424C49.4424 92.3262 49.6176 92.7698 49.9568 93.1351L50.6896 92.4547ZM50.4424 91.8281V74.3379H49.4424V91.8281H50.4424ZM50.4424 74.3379C50.4424 73.9418 50.5766 73.6053 50.8615 73.3053L50.1365 72.6166C49.6793 73.0979 49.4424 73.6793 49.4424 74.3379H50.4424ZM50.8526 73.3145C51.1544 73.0127 51.4881 72.875 51.876 72.875V71.875C51.2092 71.875 50.6249 72.128 50.1455 72.6074L50.8526 73.3145ZM51.876 72.875H52.2568V71.875H51.876V72.875ZM52.2568 72.875C52.699 72.875 53.112 73.0725 53.507 73.5663L54.2879 72.9416C53.7454 72.2634 53.0646 71.875 52.2568 71.875V72.875ZM53.4864 73.5385L64.2969 89.1537L65.1191 88.5845L54.3086 72.9693L53.4864 73.5385ZM64.3239 89.1892C64.3854 89.263 64.4575 89.3392 64.5398 89.401C64.6129 89.4558 64.7538 89.5449 64.9424 89.5449V88.5449C65.011 88.5449 65.0627 88.5619 65.0917 88.5744C65.1206 88.5867 65.1368 88.5987 65.1398 88.601C65.1441 88.6041 65.1283 88.5925 65.0921 88.549L64.3239 89.1892ZM64.9424 89.5449C65.2469 89.5449 65.4164 89.3232 65.4756 89.2344L64.6435 88.6797C64.6442 88.6787 64.6483 88.6726 64.6566 88.6633C64.6647 88.6542 64.6792 88.6393 64.701 88.6229C64.746 88.5892 64.8292 88.5449 64.9424 88.5449V89.5449ZM65.4756 89.2344C65.5753 89.0848 65.6182 88.9176 65.6182 88.752H64.6182C64.6182 88.7491 64.6186 88.7391 64.6228 88.7245C64.6271 88.7094 64.6341 88.6938 64.6435 88.6797L65.4756 89.2344ZM65.6182 88.752V73.752H64.6182V88.752H65.6182ZM65.6182 73.752C65.6182 73.5078 65.6969 73.3069 65.8654 73.1254L65.1326 72.4449C64.7934 72.8103 64.6182 73.2539 64.6182 73.752H65.6182ZM65.8526 73.1387C66.0366 72.9546 66.2334 72.875 66.4658 72.875V71.875C65.956 71.875 65.5083 72.0688 65.1455 72.4316L65.8526 73.1387ZM66.4658 72.875C66.6982 72.875 66.895 72.9546 67.0791 73.1387L67.7862 72.4316C67.4234 72.0688 66.9756 71.875 66.4658 71.875V72.875ZM67.0791 73.1387C67.2631 73.3228 67.3428 73.5196 67.3428 73.752H68.3428C68.3428 73.2422 68.149 72.7944 67.7862 72.4316L67.0791 73.1387ZM67.3428 73.752V91.2422H68.3428V73.752H67.3428ZM67.3428 91.2422C67.3428 91.6301 67.2051 91.9638 66.9033 92.2656L67.6104 92.9727C68.0898 92.4933 68.3428 91.909 68.3428 91.2422H67.3428ZM66.9125 92.2566C66.6125 92.5416 66.276 92.6758 65.8799 92.6758V93.6758C66.5385 93.6758 67.1199 93.4389 67.6012 92.9816L66.9125 92.2566ZM65.8799 92.6758H65.5283V93.6758H65.8799V92.6758ZM65.5283 92.6758C65.2914 92.6758 65.0607 92.6245 64.8316 92.5176L64.4087 93.4238C64.7655 93.5903 65.1402 93.6758 65.5283 93.6758V92.6758ZM64.8682 92.5366C64.6495 92.4116 64.4781 92.2605 64.3463 92.0848L63.5463 92.6848C63.766 92.9777 64.0438 93.2173 64.372 93.4048L64.8682 92.5366ZM64.3574 92.1002L53.4883 76.3971L52.666 76.9662L63.5352 92.6693L64.3574 92.1002ZM53.4932 76.4043C53.3949 76.2569 53.1863 76.0059 52.8428 76.0059V77.0059C52.7491 77.0059 52.6855 76.9689 52.66 76.9498C52.6384 76.9336 52.6408 76.9285 52.6611 76.959L53.4932 76.4043ZM52.8428 76.0059C52.5383 76.0059 52.3688 76.2276 52.3096 76.3164L53.1416 76.8711C53.141 76.8721 53.1368 76.8782 53.1286 76.8875C53.1205 76.8966 53.106 76.9115 53.0842 76.9278C53.0391 76.9616 52.956 77.0059 52.8428 77.0059V76.0059ZM52.3096 76.3164C52.2098 76.466 52.167 76.6332 52.167 76.7988H53.167C53.167 76.8017 53.1666 76.8117 53.1624 76.8263C53.1581 76.8414 53.151 76.8569 53.1416 76.8711L52.3096 76.3164ZM52.167 76.7988V91.8281H53.167V76.7988H52.167ZM52.167 91.8281C52.167 92.0605 52.0873 92.2573 51.9033 92.4414L52.6104 93.1485C52.9732 92.7857 53.167 92.3379 53.167 91.8281H52.167ZM51.9166 92.4285C51.7351 92.5971 51.5342 92.6758 51.29 92.6758V93.6758C51.7881 93.6758 52.2317 93.5006 52.5971 93.1613L51.9166 92.4285ZM77.7451 92.4434L77.9547 91.9894L77.95 91.9873L77.7451 92.4434ZM73.7021 72.7852L73.3486 72.4316L73.3421 72.4381L73.3358 72.4449L73.7021 72.7852ZM76.8662 88.3711L77.2885 88.1033L77.2824 88.0937L77.2758 88.0844L76.8662 88.3711ZM78.917 90.2168L78.6933 90.6642L78.7055 90.6699L78.917 90.2168ZM84.5713 90.2168L84.7827 90.6699L84.7833 90.6696L84.5713 90.2168ZM86.71 88.3418L87.1351 88.605L87.1378 88.6005L86.71 88.3418ZM87.8525 72.7852L87.499 72.4316L87.4924 72.4381L87.4861 72.4449L87.8525 72.7852ZM88.9658 89.748L89.3787 90.0302L89.3818 90.0254L88.9658 89.748ZM85.8311 92.4141L85.6185 91.9615L85.6158 91.9628L85.8311 92.4141ZM81.7588 92.8223C80.4245 92.8223 79.1581 92.5448 77.9546 91.9894L77.5356 92.8973C78.8712 93.5138 80.2806 93.8223 81.7588 93.8223V92.8223ZM77.95 91.9873C76.6893 91.4209 75.6896 90.5663 74.9415 89.4167L74.1034 89.9622C74.9568 91.2736 76.1056 92.2549 77.5402 92.8994L77.95 91.9873ZM74.9415 89.4167C74.2009 88.2786 73.8213 86.9214 73.8213 85.3242H72.8213C72.8213 87.0864 73.2425 88.6393 74.1034 89.9622L74.9415 89.4167ZM73.8213 85.3242V73.752H72.8213V85.3242H73.8213ZM73.8213 73.752C73.8213 73.5078 73.9 73.3069 74.0685 73.1254L73.3358 72.4449C72.9965 72.8103 72.8213 73.2539 72.8213 73.752H73.8213ZM74.0557 73.1387C74.2398 72.9546 74.4366 72.875 74.6689 72.875V71.875C74.1592 71.875 73.7114 72.0688 73.3486 72.4316L74.0557 73.1387ZM74.6689 72.875C74.9013 72.875 75.0981 72.9546 75.2822 73.1387L75.9893 72.4316C75.6265 72.0688 75.1787 71.875 74.6689 71.875V72.875ZM75.2822 73.1387C75.4663 73.3228 75.5459 73.5196 75.5459 73.752H76.5459C76.5459 73.2422 76.3521 72.7944 75.9893 72.4316L75.2822 73.1387ZM75.5459 73.752V85.4121H76.5459V73.752H75.5459ZM75.5459 85.4121C75.5459 86.6803 75.8377 87.7736 76.4566 88.6578L77.2758 88.0844C76.801 87.406 76.5459 86.5267 76.5459 85.4121H75.5459ZM76.444 88.6389C77.0011 89.5175 77.7539 90.1942 78.6934 90.664L79.1406 89.7696C78.3614 89.38 77.7469 88.8263 77.2885 88.1033L76.444 88.6389ZM78.7055 90.6699C79.6538 91.1124 80.6736 91.332 81.7588 91.332V90.332C80.8127 90.332 79.938 90.1415 79.1284 89.7637L78.7055 90.6699ZM81.7588 91.332C82.8259 91.332 83.8358 91.1118 84.7827 90.6699L84.3598 89.7637C83.549 90.1421 82.6839 90.332 81.7588 90.332V91.332ZM84.7833 90.6696C85.7845 90.201 86.5735 89.5122 87.1351 88.605L86.2848 88.0786C85.8308 88.8121 85.194 89.3732 84.3593 89.764L84.7833 90.6696ZM87.1378 88.6005C87.6989 87.6726 87.9717 86.6041 87.9717 85.4121H86.9717C86.9717 86.4467 86.7366 87.3314 86.2821 88.0831L87.1378 88.6005ZM87.9717 85.4121V73.752H86.9717V85.4121H87.9717ZM87.9717 73.752C87.9717 73.5078 88.0504 73.3069 88.2189 73.1254L87.4861 72.4449C87.1469 72.8103 86.9717 73.2539 86.9717 73.752H87.9717ZM88.2061 73.1387C88.3902 72.9546 88.5869 72.875 88.8193 72.875V71.875C88.3095 71.875 87.8618 72.0688 87.499 72.4316L88.2061 73.1387ZM88.8193 72.875C89.0517 72.875 89.2485 72.9546 89.4326 73.1387L90.1397 72.4316C89.7769 72.0688 89.3291 71.875 88.8193 71.875V72.875ZM89.4326 73.1387C89.6166 73.3228 89.6963 73.5196 89.6963 73.752H90.6963C90.6963 73.2422 90.5025 72.7944 90.1397 72.4316L89.4326 73.1387ZM89.6963 73.752V85.3242H90.6963V73.752H89.6963ZM89.6963 85.3242C89.6963 86.9607 89.3069 88.335 88.5498 89.4707L89.3818 90.0254C90.2654 88.7001 90.6963 87.1253 90.6963 85.3242H89.6963ZM88.553 89.466C87.8027 90.5639 86.8271 91.3938 85.6185 91.9615L86.0436 92.8666C87.4132 92.2234 88.5273 91.276 89.3786 90.0301L88.553 89.466ZM85.6158 91.9628C84.4154 92.5353 83.1317 92.8223 81.7588 92.8223V93.8223C83.2765 93.8223 84.7077 93.5038 86.0463 92.8654L85.6158 91.9628Z" fill="#4CAF50"/>
</svg>
