<svg width="1280" height="200" viewBox="0 0 1280 200" fill="none" xmlns="http://www.w3.org/2000/svg">
<rect y="140" width="1280" height="60" fill="#FFC107"/>
<path d="M20.3175 140H60.9524L40.6349 200H0L20.3175 140Z" fill="#F44336"/>
<path d="M182.857 140H223.492L203.175 200H162.54L182.857 140Z" fill="#1E88E5"/>
<path d="M345.397 140H386.031L365.714 200H325.079L345.397 140Z" fill="#4CAF50"/>
<path d="M507.937 140H548.572L528.254 200H487.619L507.937 140Z" fill="#F44336"/>
<path d="M670.476 140H711.111L690.793 200H650.158L670.476 140Z" fill="#1E88E5"/>
<path d="M833.016 140H873.651L853.333 200H812.698L833.016 140Z" fill="#4CAF50"/>
<path d="M995.556 140H1036.19L1015.87 200H975.238L995.556 140Z" fill="#F44336"/>
<path d="M1158.09 140H1198.73L1178.41 200H1137.78L1158.09 140Z" fill="#1E88E5"/>
<path d="M101.587 140H142.222L121.904 200H81.2695L101.587 140Z" fill="#4CAF50"/>
<path d="M264.127 140H304.762L284.444 200H243.81L264.127 140Z" fill="#F44336"/>
<path d="M426.667 140H467.302L446.985 200H406.35L426.667 140Z" fill="#1E88E5"/>
<path d="M589.206 140H629.841L609.524 200H568.889L589.206 140Z" fill="#4CAF50"/>
<path d="M751.746 140H792.381L772.064 200H731.429L751.746 140Z" fill="#F44336"/>
<path d="M914.286 140H954.921L934.604 200H893.969L914.286 140Z" fill="#1E88E5"/>
<path d="M1076.83 140H1117.46L1097.14 200H1056.51L1076.83 140Z" fill="#4CAF50"/>
<path d="M1239.37 140H1280L1259.68 200H1219.05L1239.37 140Z" fill="#F44336"/>
<path d="M60.9522 140H101.587L81.2697 200H40.6348L60.9522 140Z" fill="#FFC107"/>
<path d="M223.492 140H264.127L243.81 200H203.175L223.492 140Z" fill="#FFC107"/>
<path d="M386.031 140H426.666L406.349 200H365.714L386.031 140Z" fill="#FFC107"/>
<path d="M548.571 140H589.206L568.889 200H528.254L548.571 140Z" fill="#FFC107"/>
<path d="M711.111 140H751.746L731.429 200H690.794L711.111 140Z" fill="#FFC107"/>
<path d="M873.65 140H914.285L893.968 200H853.333L873.65 140Z" fill="#FFC107"/>
<path d="M1036.19 140H1076.83L1056.51 200H1015.87L1036.19 140Z" fill="#FFC107"/>
<path d="M1198.73 140H1239.36L1219.05 200H1178.41L1198.73 140Z" fill="#FFC107"/>
<path d="M142.222 140H182.857L162.539 200H121.904L142.222 140Z" fill="#FFC107"/>
<path d="M304.762 140H345.397L325.079 200H284.444L304.762 140Z" fill="#FFC107"/>
<path d="M467.302 140H507.937L487.619 200H446.984L467.302 140Z" fill="#FFC107"/>
<path d="M629.841 140H670.476L650.158 200H609.523L629.841 140Z" fill="#FFC107"/>
<path d="M792.381 140H833.016L812.698 200H772.063L792.381 140Z" fill="#FFC107"/>
<path d="M954.921 140H995.556L975.238 200H934.604L954.921 140Z" fill="#FFC107"/>
<path d="M1117.46 140H1158.09L1137.78 200H1097.14L1117.46 140Z" fill="#FFC107"/>
<path d="M133.321 30C125.623 16.6667 106.377 16.6667 98.6795 30L46.718 120C39.02 133.333 48.6425 150 64.0385 150H167.962C183.358 150 192.98 133.333 185.282 120L133.321 30Z" fill="#1E88E5"/>
<circle cx="12.5" cy="12.5" r="12.5" transform="matrix(-1 0 0 1 148 73)" fill="white"/>
<circle cx="12.5" cy="12.5" r="12.5" transform="matrix(-1 0 0 1 126 73)" fill="white"/>
<circle cx="4.5" cy="4.5" r="4.5" transform="matrix(-1 0 0 1 140 81)" fill="black" fill-opacity="0.8"/>
<circle cx="4.5" cy="4.5" r="4.5" transform="matrix(-1 0 0 1 118 81)" fill="black" fill-opacity="0.8"/>
<circle cx="17.5" cy="17.5" r="17.5" transform="matrix(-1 0 0 1 186 85)" fill="#8FC4F2"/>
<circle cx="17.5" cy="17.5" r="17.5" transform="matrix(-1 0 0 1 98 85)" fill="#8FC4F2"/>
<path d="M154 115C144.303 129.338 118.727 149.411 94 115" stroke="white" stroke-width="5" stroke-linecap="round"/>
<rect x="1097" y="2" width="150" height="150" rx="30" fill="#F44336"/>
<circle cx="1160.38" cy="48.875" r="13.875" fill="white"/>
<circle cx="1183.62" cy="48.875" r="13.875" fill="white"/>
<path d="M1182.25 93.5C1182.25 97.8834 1180.89 101.702 1178.89 104.338C1176.89 106.971 1174.42 108.25 1172 108.25C1169.58 108.25 1167.11 106.971 1165.11 104.338C1163.11 101.702 1161.75 97.8834 1161.75 93.5C1161.75 89.1166 1163.11 85.2981 1165.11 82.6621C1167.11 80.029 1169.58 78.75 1172 78.75C1174.42 78.75 1176.89 80.029 1178.89 82.6621C1180.89 85.2981 1182.25 89.1166 1182.25 93.5Z" stroke="white" stroke-width="8"/>
<circle cx="1160.38" cy="48.875" r="5.625" fill="black" fill-opacity="0.8"/>
<circle cx="1183.62" cy="48.875" r="5.625" fill="black" fill-opacity="0.8"/>
<circle cx="1133.38" cy="75.125" r="13.125" fill="#FAA19B"/>
<circle cx="1210.62" cy="75.125" r="13.125" fill="#FAA19B"/>
</svg>
