<svg width="2499" height="60" viewBox="0 0 2499 60" fill="none" xmlns="http://www.w3.org/2000/svg">
<rect width="1280" height="60" fill="#FFC107"/>
<path d="M20.3175 0H60.9524L40.6349 60H0L20.3175 0Z" fill="#F44336"/>
<path d="M182.857 0H223.492L203.175 60H162.54L182.857 0Z" fill="#1E88E5"/>
<path d="M345.397 0H386.031L365.714 60H325.079L345.397 0Z" fill="#4CAF50"/>
<path d="M507.937 0H548.572L528.254 60H487.619L507.937 0Z" fill="#F44336"/>
<path d="M670.476 0H711.111L690.793 60H650.158L670.476 0Z" fill="#1E88E5"/>
<path d="M833.016 0H873.651L853.333 60H812.698L833.016 0Z" fill="#4CAF50"/>
<path d="M995.556 0H1036.19L1015.87 60H975.238L995.556 0Z" fill="#F44336"/>
<path d="M1158.09 0H1198.73L1178.41 60H1137.78L1158.09 0Z" fill="#1E88E5"/>
<path d="M101.587 0H142.222L121.904 60H81.2695L101.587 0Z" fill="#4CAF50"/>
<path d="M264.127 0H304.762L284.444 60H243.81L264.127 0Z" fill="#F44336"/>
<path d="M426.667 0H467.302L446.985 60H406.35L426.667 0Z" fill="#1E88E5"/>
<path d="M589.206 0H629.841L609.524 60H568.889L589.206 0Z" fill="#4CAF50"/>
<path d="M751.746 0H792.381L772.064 60H731.429L751.746 0Z" fill="#F44336"/>
<path d="M914.286 0H954.921L934.604 60H893.969L914.286 0Z" fill="#1E88E5"/>
<path d="M1076.83 0H1117.46L1097.14 60H1056.51L1076.83 0Z" fill="#4CAF50"/>
<path d="M1239.37 0H1280L1259.68 60H1219.05L1239.37 0Z" fill="#F44336"/>
<path d="M60.9522 0H101.587L81.2697 60H40.6348L60.9522 0Z" fill="#FFC107"/>
<path d="M223.492 0H264.127L243.81 60H203.175L223.492 0Z" fill="#FFC107"/>
<path d="M386.031 0H426.666L406.349 60H365.714L386.031 0Z" fill="#FFC107"/>
<path d="M548.571 0H589.206L568.889 60H528.254L548.571 0Z" fill="#FFC107"/>
<path d="M711.111 0H751.746L731.429 60H690.794L711.111 0Z" fill="#FFC107"/>
<path d="M873.65 0H914.285L893.968 60H853.333L873.65 0Z" fill="#FFC107"/>
<path d="M1036.19 0H1076.83L1056.51 60H1015.87L1036.19 0Z" fill="#FFC107"/>
<path d="M1198.73 0H1239.36L1219.05 60H1178.41L1198.73 0Z" fill="#FFC107"/>
<path d="M142.222 0H182.857L162.539 60H121.904L142.222 0Z" fill="#FFC107"/>
<path d="M304.762 0H345.397L325.079 60H284.444L304.762 0Z" fill="#FFC107"/>
<path d="M467.302 0H507.937L487.619 60H446.984L467.302 0Z" fill="#FFC107"/>
<path d="M629.841 0H670.476L650.158 60H609.523L629.841 0Z" fill="#FFC107"/>
<path d="M792.381 0H833.016L812.698 60H772.063L792.381 0Z" fill="#FFC107"/>
<path d="M954.921 0H995.556L975.238 60H934.604L954.921 0Z" fill="#FFC107"/>
<path d="M1117.46 0H1158.09L1137.78 60H1097.14L1117.46 0Z" fill="#FFC107"/>
<rect x="1219" width="1280" height="60" fill="#FFC107"/>
<path d="M1239.32 0H1279.95L1259.63 60H1219L1239.32 0Z" fill="#F44336"/>
<path d="M1401.86 0H1442.49L1422.17 60H1381.54L1401.86 0Z" fill="#1E88E5"/>
<path d="M1564.4 0H1605.03L1584.71 60H1544.08L1564.4 0Z" fill="#4CAF50"/>
<path d="M1726.94 0H1767.57L1747.25 60H1706.62L1726.94 0Z" fill="#F44336"/>
<path d="M1889.48 0H1930.11L1909.79 60H1869.16L1889.48 0Z" fill="#1E88E5"/>
<path d="M2052.02 0H2092.65L2072.33 60H2031.7L2052.02 0Z" fill="#4CAF50"/>
<path d="M2214.56 0H2255.19L2234.87 60H2194.24L2214.56 0Z" fill="#F44336"/>
<path d="M2377.09 0H2417.73L2397.41 60H2356.78L2377.09 0Z" fill="#1E88E5"/>
<path d="M1320.59 0H1361.22L1340.9 60H1300.27L1320.59 0Z" fill="#4CAF50"/>
<path d="M1483.13 0H1523.76L1503.44 60H1462.81L1483.13 0Z" fill="#F44336"/>
<path d="M1645.67 0H1686.3L1665.98 60H1625.35L1645.67 0Z" fill="#1E88E5"/>
<path d="M1808.21 0H1848.84L1828.52 60H1787.89L1808.21 0Z" fill="#4CAF50"/>
<path d="M1970.75 0H2011.38L1991.06 60H1950.43L1970.75 0Z" fill="#F44336"/>
<path d="M2133.29 0H2173.92L2153.6 60H2112.97L2133.29 0Z" fill="#1E88E5"/>
<path d="M2295.83 0H2336.46L2316.14 60H2275.51L2295.83 0Z" fill="#4CAF50"/>
<path d="M2458.37 0H2499L2478.68 60H2438.05L2458.37 0Z" fill="#F44336"/>
<path d="M1279.95 0H1320.59L1300.27 60H1259.63L1279.95 0Z" fill="#FFC107"/>
<path d="M1442.49 0H1483.13L1462.81 60H1422.17L1442.49 0Z" fill="#FFC107"/>
<path d="M1605.03 0H1645.67L1625.35 60H1584.71L1605.03 0Z" fill="#FFC107"/>
<path d="M1767.57 0H1808.21L1787.89 60H1747.25L1767.57 0Z" fill="#FFC107"/>
<path d="M1930.11 0H1970.75L1950.43 60H1909.79L1930.11 0Z" fill="#FFC107"/>
<path d="M2092.65 0H2133.29L2112.97 60H2072.33L2092.65 0Z" fill="#FFC107"/>
<path d="M2255.19 0H2295.83L2275.51 60H2234.87L2255.19 0Z" fill="#FFC107"/>
<path d="M2417.73 0H2458.36L2438.05 60H2397.41L2417.73 0Z" fill="#FFC107"/>
<path d="M1361.22 0H1401.86L1381.54 60H1340.9L1361.22 0Z" fill="#FFC107"/>
<path d="M1523.76 0H1564.4L1544.08 60H1503.44L1523.76 0Z" fill="#FFC107"/>
<path d="M1686.3 0H1726.94L1706.62 60H1665.98L1686.3 0Z" fill="#FFC107"/>
<path d="M1848.84 0H1889.48L1869.16 60H1828.52L1848.84 0Z" fill="#FFC107"/>
<path d="M2011.38 0H2052.02L2031.7 60H1991.06L2011.38 0Z" fill="#FFC107"/>
<path d="M2173.92 0H2214.56L2194.24 60H2153.6L2173.92 0Z" fill="#FFC107"/>
<path d="M2336.46 0H2377.09L2356.78 60H2316.14L2336.46 0Z" fill="#FFC107"/>
</svg>
