<svg width="58" height="58" viewBox="0 0 58 58" fill="none" xmlns="http://www.w3.org/2000/svg">
<circle cx="29" cy="29" r="20.0226" transform="rotate(16.9927 29 29)" fill="white" stroke="#FFC107" stroke-width="3"/>
<circle cx="28.9999" cy="29" r="26.3364" stroke="#FFC107" stroke-width="5"/>
<path d="M19.8184 27.654L19.8198 27.6564L21.39 30.3749C21.3902 30.3753 21.3904 30.3756 21.3906 30.376C21.3917 30.3778 21.3927 30.3796 21.3937 30.3813H19.2032C17.5055 30.3813 16.1316 31.7552 16.1316 33.453V36.5962C16.1316 38.294 17.5055 39.6679 19.2032 39.6679H22.3465C23.294 39.6679 24.1407 39.2399 24.7039 38.5665C25.2672 39.2399 26.1138 39.6679 27.0614 39.6679H30.2046C31.1522 39.6679 31.9988 39.2399 32.5621 38.5665C33.1253 39.2399 33.972 39.6679 34.9195 39.6679H38.0628C39.7605 39.6679 41.1344 38.294 41.1344 36.5962V33.453C41.1344 31.7552 39.7605 30.3813 38.0628 30.3813H37.5158C37.8169 29.9063 37.9911 29.3427 37.9911 28.7381V25.5948C37.9911 23.8971 36.6173 22.5232 34.9195 22.5232H34.3725C34.6736 22.0481 34.8479 21.4846 34.8479 20.8799V17.7367C34.8479 16.0389 33.474 14.665 31.7763 14.665H28.633C26.9353 14.665 25.5614 16.0389 25.5614 17.7367V20.8799C25.5614 21.0952 25.5835 21.3052 25.6255 21.5079C24.9703 21.4163 24.2813 21.5343 23.6663 21.888L23.6639 21.8894L20.9454 23.4596C20.9449 23.4599 20.9444 23.4602 20.9438 23.4605C19.4693 24.3098 18.977 26.1912 19.8184 27.654ZM27.5244 30.3813L28.3053 29.9303C28.3059 29.9299 28.3065 29.9296 28.3071 29.9293C28.4926 29.8224 28.6626 29.6992 28.8163 29.5625C28.8976 29.8554 29.0211 30.1307 29.18 30.3813H27.5244ZM29.18 23.9516C29.0333 24.1829 28.9168 24.4353 28.8358 24.7032L28.3965 23.9426C28.4745 23.9485 28.5534 23.9516 28.633 23.9516H29.18Z" fill="white" stroke="#FFC107" stroke-width="3"/>
<path d="M34.4341 32.967H36.0342V34.5672H34.4341V32.967Z" fill="#F44336"/>
<path d="M36.8342 33.7371C36.8342 33.3118 37.1924 32.967 37.6343 32.967C38.0762 32.967 38.4344 33.3118 38.4344 33.7371V35.3673H36.8342V33.7371Z" fill="#4CAF50"/>
<path d="M35.2341 36.9674C35.676 36.9674 36.0342 36.6092 36.0342 36.1673C36.0342 35.7254 35.676 35.3672 35.2341 35.3672C34.7922 35.3672 34.434 35.7254 34.434 36.1673C34.434 36.6092 34.7922 36.9674 35.2341 36.9674Z" fill="#FFC107"/>
<path d="M37.6342 35.7673L38.3271 36.9675H36.9413L37.6342 35.7673Z" fill="#1E88E5"/>
</svg>
