<svg width="50" height="54" viewBox="0 0 50 54" fill="none" xmlns="http://www.w3.org/2000/svg">
<path d="M33.9987 11.2957C33.9987 15.786 30.3464 19.4338 25.8317 19.4338C21.317 19.4338 17.6648 15.786 17.6648 11.2957C17.6648 6.80532 21.317 3.15753 25.8317 3.15753C30.3464 3.15753 33.9987 6.80532 33.9987 11.2957Z" stroke="#FAA19B" stroke-width="3"/>
<path d="M33.9987 43.4231C33.9987 47.9134 30.3464 51.5612 25.8317 51.5612C21.317 51.5612 17.6648 47.9134 17.6648 43.4231C17.6648 38.9327 21.317 35.2849 25.8317 35.2849C30.3464 35.2849 33.9987 38.9327 33.9987 43.4231Z" stroke="#FAA19B" stroke-width="3"/>
<path d="M19.4998 19.3274C19.4998 23.8177 15.8475 27.4655 11.3328 27.4655C6.81814 27.4655 3.16589 23.8177 3.16589 19.3274C3.16589 14.837 6.81814 11.1892 11.3328 11.1892C15.8475 11.1892 19.4998 14.837 19.4998 19.3274Z" stroke="#FAA19B" stroke-width="3"/>
<path d="M48.5 19.3274C48.5 23.8177 44.8477 27.4655 40.333 27.4655C35.8183 27.4655 32.1661 23.8177 32.1661 19.3274C32.1661 14.837 35.8183 11.1892 40.333 11.1892C44.8477 11.1892 48.5 14.837 48.5 19.3274Z" stroke="#FAA19B" stroke-width="3"/>
<path d="M19.4998 35.3914C19.4998 39.8818 15.8475 43.5295 11.3328 43.5295C6.81814 43.5295 3.16589 39.8818 3.16589 35.3914C3.16589 30.901 6.81814 27.2532 11.3328 27.2532C15.8475 27.2532 19.4998 30.901 19.4998 35.3914Z" stroke="#FAA19B" stroke-width="3"/>
<path d="M48.5 35.3914C48.5 39.8818 44.8477 43.5295 40.333 43.5295C35.8183 43.5295 32.1661 39.8818 32.1661 35.3914C32.1661 30.901 35.8183 27.2532 40.333 27.2532C44.8477 27.2532 48.5 30.901 48.5 35.3914Z" stroke="#FAA19B" stroke-width="3"/>
<path d="M32.3328 9.63815C32.3328 14.1285 28.6805 17.7763 24.1658 17.7763C19.6511 17.7763 15.9989 14.1285 15.9989 9.63815C15.9989 5.14779 19.6511 1.5 24.1658 1.5C28.6805 1.5 32.3328 5.14779 32.3328 9.63815Z" stroke="#F44336" stroke-width="3"/>
<path d="M32.3328 41.7655C32.3328 46.2559 28.6805 49.9037 24.1658 49.9037C19.6511 49.9037 15.9989 46.2559 15.9989 41.7655C15.9989 37.2752 19.6511 33.6274 24.1658 33.6274C28.6805 33.6274 32.3328 37.2752 32.3328 41.7655Z" stroke="#F44336" stroke-width="3"/>
<path d="M17.8339 17.6696C17.8339 22.16 14.1816 25.8078 9.66694 25.8078C5.15224 25.8078 1.5 22.16 1.5 17.6696C1.5 13.1793 5.15224 9.53149 9.66694 9.53149C14.1816 9.53149 17.8339 13.1793 17.8339 17.6696Z" stroke="#F44336" stroke-width="3"/>
<path d="M46.8341 17.6698C46.8341 22.1602 43.1818 25.808 38.6671 25.808C34.1524 25.808 30.5002 22.1602 30.5002 17.6698C30.5002 13.1795 34.1524 9.53168 38.6671 9.53168C43.1818 9.53168 46.8341 13.1795 46.8341 17.6698Z" stroke="#F44336" stroke-width="3"/>
<path d="M17.8339 33.7332C17.8339 38.2236 14.1816 41.8714 9.66694 41.8714C5.15224 41.8714 1.5 38.2236 1.5 33.7332C1.5 29.2429 5.15224 25.5951 9.66694 25.5951C14.1816 25.5951 17.8339 29.2429 17.8339 33.7332Z" stroke="#F44336" stroke-width="3"/>
<path d="M46.8341 33.7332C46.8341 38.2236 43.1818 41.8714 38.6671 41.8714C34.1524 41.8714 30.5002 38.2236 30.5002 33.7332C30.5002 29.2429 34.1524 25.5951 38.6671 25.5951C43.1818 25.5951 46.8341 29.2429 46.8341 33.7332Z" stroke="#F44336" stroke-width="3"/>
<path d="M21.4286 22.449H24.2857V25.4174H21.4286V22.449Z" fill="#F44336"/>
<path d="M25.7143 23.8775C25.7143 23.0886 26.3539 22.449 27.1429 22.449C27.9318 22.449 28.5714 23.0886 28.5714 23.8775V26.9017H25.7143V23.8775Z" fill="#4CAF50"/>
<ellipse cx="22.8572" cy="28.3859" rx="1.42857" ry="1.48423" fill="#FFC107"/>
<path d="M27.1429 27.6438L28.38 29.8701H25.9057L27.1429 27.6438Z" fill="#1E88E5"/>
</svg>
