<svg width="2485" height="20" viewBox="0 0 2485 20" fill="none" xmlns="http://www.w3.org/2000/svg">
<path d="M0 19C0 8.50659 8.50659 0 19 0V0C29.4934 0 38 8.50659 38 19V20H0V19Z" fill="#F44336"/>
<path d="M301 19C301 8.50659 309.507 0 320 0V0C330.493 0 339 8.50659 339 19V20H301V19Z" fill="#F44336"/>
<path d="M602 19C602 8.50659 610.507 0 621 0V0C631.493 0 640 8.50659 640 19V20H602V19Z" fill="#F44336"/>
<path d="M904 18.5C904 8.28273 912.283 0 922.5 0V0C932.717 0 941 8.28273 941 18.5V20H904V18.5Z" fill="#F44336"/>
<path d="M151 18.5C151 8.28273 159.283 0 169.5 0V0C179.717 0 188 8.28273 188 18.5V20H151V18.5Z" fill="#F44336"/>
<path d="M452 18.5C452 8.28273 460.283 0 470.5 0V0C480.717 0 489 8.28273 489 18.5V20H452V18.5Z" fill="#F44336"/>
<path d="M753 19C753 8.50659 761.507 0 772 0V0C782.493 0 791 8.50659 791 19V20H753V19Z" fill="#F44336"/>
<path d="M1054 19C1054 8.50659 1062.51 0 1073 0V0C1083.49 0 1092 8.50659 1092 19V20H1054V19Z" fill="#F44336"/>
<path d="M75 19C75 8.50659 83.5066 0 94 0V0C104.493 0 113 8.50659 113 19V20H75V19Z" fill="#F44336"/>
<path d="M376 19C376 8.50659 384.507 0 395 0V0C405.493 0 414 8.50659 414 19V20H376V19Z" fill="#F44336"/>
<path d="M678 18.5C678 8.28273 686.283 0 696.5 0V0C706.717 0 715 8.28273 715 18.5V20H678V18.5Z" fill="#F44336"/>
<path d="M979 18.5C979 8.28273 987.283 0 997.5 0V0C1007.72 0 1016 8.28273 1016 18.5V20H979V18.5Z" fill="#F44336"/>
<path d="M226 19C226 8.50659 234.507 0 245 0V0C255.493 0 264 8.50659 264 19V20H226V19Z" fill="#F44336"/>
<path d="M527 19C527 8.50659 535.507 0 546 0V0C556.493 0 565 8.50659 565 19V20H527V19Z" fill="#F44336"/>
<path d="M828 19C828 8.50659 836.507 0 847 0V0C857.493 0 866 8.50659 866 19V20H828V19Z" fill="#F44336"/>
<path d="M1129 19C1129 8.50659 1137.51 0 1148 0V0C1158.49 0 1167 8.50659 1167 19V20H1129V19Z" fill="#F44336"/>
<path d="M38 18.5C38 8.28273 46.2827 0 56.5 0V0C66.7173 0 75 8.28273 75 18.5V20H38V18.5Z" fill="#FFC107"/>
<path d="M339 18.5C339 8.28273 347.283 0 357.5 0V0C367.717 0 376 8.28273 376 18.5V20H339V18.5Z" fill="#FFC107"/>
<path d="M640 19C640 8.50659 648.507 0 659 0V0C669.493 0 678 8.50659 678 19V20H640V19Z" fill="#FFC107"/>
<path d="M941 19C941 8.50659 949.507 0 960 0V0C970.493 0 979 8.50659 979 19V20H941V19Z" fill="#FFC107"/>
<path d="M188 19C188 8.50659 196.507 0 207 0V0C217.493 0 226 8.50659 226 19V20H188V19Z" fill="#FFC107"/>
<path d="M489 19C489 8.50659 497.507 0 508 0V0C518.493 0 527 8.50659 527 19V20H489V19Z" fill="#FFC107"/>
<path d="M791 18.5C791 8.28273 799.283 0 809.5 0V0C819.717 0 828 8.28273 828 18.5V20H791V18.5Z" fill="#FFC107"/>
<path d="M1092 18.5C1092 8.28273 1100.28 0 1110.5 0V0C1120.72 0 1129 8.28273 1129 18.5V20H1092V18.5Z" fill="#FFC107"/>
<path d="M113 19C113 8.50659 121.507 0 132 0V0C142.493 0 151 8.50659 151 19V20H113V19Z" fill="#4CAF50"/>
<path d="M414 19C414 8.50659 422.507 0 433 0V0C443.493 0 452 8.50659 452 19V20H414V19Z" fill="#4CAF50"/>
<path d="M715 19C715 8.50659 723.507 0 734 0V0C744.493 0 753 8.50659 753 19V20H715V19Z" fill="#4CAF50"/>
<path d="M1016 19C1016 8.50659 1024.51 0 1035 0V0C1045.49 0 1054 8.50659 1054 19V20H1016V19Z" fill="#4CAF50"/>
<path d="M264 18.5C264 8.28273 272.283 0 282.5 0V0C292.717 0 301 8.28273 301 18.5V20H264V18.5Z" fill="#4CAF50"/>
<path d="M565 18.5C565 8.28273 573.283 0 583.5 0V0C593.717 0 602 8.28273 602 18.5V20H565V18.5Z" fill="#4CAF50"/>
<path d="M866 19C866 8.50659 874.507 0 885 0V0C895.493 0 904 8.50659 904 19V20H866V19Z" fill="#4CAF50"/>
<path d="M1167 19C1167 8.50659 1175.51 0 1186 0V0C1196.49 0 1205 8.50659 1205 19V20H1167V19Z" fill="#4CAF50"/>
<path d="M1205 19C1205 8.50659 1213.51 0 1224 0V0C1234.49 0 1243 8.50659 1243 19V20H1205V19Z" fill="#F44336"/>
<path d="M1506 19C1506 8.50659 1514.51 0 1525 0V0C1535.49 0 1544 8.50659 1544 19V20H1506V19Z" fill="#F44336"/>
<path d="M1807 19C1807 8.50659 1815.51 0 1826 0V0C1836.49 0 1845 8.50659 1845 19V20H1807V19Z" fill="#F44336"/>
<path d="M2109 18.5C2109 8.28273 2117.28 0 2127.5 0V0C2137.72 0 2146 8.28273 2146 18.5V20H2109V18.5Z" fill="#F44336"/>
<path d="M1356 18.5C1356 8.28273 1364.28 0 1374.5 0V0C1384.72 0 1393 8.28273 1393 18.5V20H1356V18.5Z" fill="#F44336"/>
<path d="M1657 18.5C1657 8.28273 1665.28 0 1675.5 0V0C1685.72 0 1694 8.28273 1694 18.5V20H1657V18.5Z" fill="#F44336"/>
<path d="M1958 19C1958 8.50659 1966.51 0 1977 0V0C1987.49 0 1996 8.50659 1996 19V20H1958V19Z" fill="#F44336"/>
<path d="M2259 19C2259 8.50659 2267.51 0 2278 0V0C2288.49 0 2297 8.50659 2297 19V20H2259V19Z" fill="#F44336"/>
<path d="M2410 18.5C2410 8.28273 2418.28 0 2428.5 0V0C2438.72 0 2447 8.28273 2447 18.5V20H2410V18.5Z" fill="#F44336"/>
<path d="M1280 19C1280 8.50659 1288.51 0 1299 0V0C1309.49 0 1318 8.50659 1318 19V20H1280V19Z" fill="#F44336"/>
<path d="M1581 19C1581 8.50659 1589.51 0 1600 0V0C1610.49 0 1619 8.50659 1619 19V20H1581V19Z" fill="#F44336"/>
<path d="M1883 18.5C1883 8.28273 1891.28 0 1901.5 0V0C1911.72 0 1920 8.28273 1920 18.5V20H1883V18.5Z" fill="#F44336"/>
<path d="M2184 18.5C2184 8.28273 2192.28 0 2202.5 0V0C2212.72 0 2221 8.28273 2221 18.5V20H2184V18.5Z" fill="#F44336"/>
<path d="M1431 19C1431 8.50659 1439.51 0 1450 0V0C1460.49 0 1469 8.50659 1469 19V20H1431V19Z" fill="#F44336"/>
<path d="M1732 19C1732 8.50659 1740.51 0 1751 0V0C1761.49 0 1770 8.50659 1770 19V20H1732V19Z" fill="#F44336"/>
<path d="M2033 19C2033 8.50659 2041.51 0 2052 0V0C2062.49 0 2071 8.50659 2071 19V20H2033V19Z" fill="#F44336"/>
<path d="M2334 19C2334 8.50659 2342.51 0 2353 0V0C2363.49 0 2372 8.50659 2372 19V20H2334V19Z" fill="#F44336"/>
<path d="M1243 18.5C1243 8.28273 1251.28 0 1261.5 0V0C1271.72 0 1280 8.28273 1280 18.5V20H1243V18.5Z" fill="#FFC107"/>
<path d="M1544 18.5C1544 8.28273 1552.28 0 1562.5 0V0C1572.72 0 1581 8.28273 1581 18.5V20H1544V18.5Z" fill="#FFC107"/>
<path d="M1845 19C1845 8.50659 1853.51 0 1864 0V0C1874.49 0 1883 8.50659 1883 19V20H1845V19Z" fill="#FFC107"/>
<path d="M2146 19C2146 8.50659 2154.51 0 2165 0V0C2175.49 0 2184 8.50659 2184 19V20H2146V19Z" fill="#FFC107"/>
<path d="M1393 19C1393 8.50659 1401.51 0 1412 0V0C1422.49 0 1431 8.50659 1431 19V20H1393V19Z" fill="#FFC107"/>
<path d="M1694 19C1694 8.50659 1702.51 0 1713 0V0C1723.49 0 1732 8.50659 1732 19V20H1694V19Z" fill="#FFC107"/>
<path d="M1996 18.5C1996 8.28273 2004.28 0 2014.5 0V0C2024.72 0 2033 8.28273 2033 18.5V20H1996V18.5Z" fill="#FFC107"/>
<path d="M2297 18.5C2297 8.28273 2305.28 0 2315.5 0V0C2325.72 0 2334 8.28273 2334 18.5V20H2297V18.5Z" fill="#FFC107"/>
<path d="M2447 19C2447 8.50659 2455.51 0 2466 0V0C2476.49 0 2485 8.50659 2485 19V20H2447V19Z" fill="#FFC107"/>
<path d="M1318 19C1318 8.50659 1326.51 0 1337 0V0C1347.49 0 1356 8.50659 1356 19V20H1318V19Z" fill="#4CAF50"/>
<path d="M1619 19C1619 8.50659 1627.51 0 1638 0V0C1648.49 0 1657 8.50659 1657 19V20H1619V19Z" fill="#4CAF50"/>
<path d="M1920 19C1920 8.50659 1928.51 0 1939 0V0C1949.49 0 1958 8.50659 1958 19V20H1920V19Z" fill="#4CAF50"/>
<path d="M2221 19C2221 8.50659 2229.51 0 2240 0V0C2250.49 0 2259 8.50659 2259 19V20H2221V19Z" fill="#4CAF50"/>
<path d="M1469 18.5C1469 8.28273 1477.28 0 1487.5 0V0C1497.72 0 1506 8.28273 1506 18.5V20H1469V18.5Z" fill="#4CAF50"/>
<path d="M1770 18.5C1770 8.28273 1778.28 0 1788.5 0V0C1798.72 0 1807 8.28273 1807 18.5V20H1770V18.5Z" fill="#4CAF50"/>
<path d="M2071 19C2071 8.50659 2079.51 0 2090 0V0C2100.49 0 2109 8.50659 2109 19V20H2071V19Z" fill="#4CAF50"/>
<path d="M2372 19C2372 8.50659 2380.51 0 2391 0V0C2401.49 0 2410 8.50659 2410 19V20H2372V19Z" fill="#4CAF50"/>
</svg>
