<svg width="60" height="60" viewBox="0 0 60 60" fill="none" xmlns="http://www.w3.org/2000/svg">
<circle cx="30" cy="30" r="21" fill="white" stroke="#1E88E5" stroke-width="3"/>
<circle cx="30" cy="30" r="27.5" stroke="#1E88E5" stroke-width="5"/>
<path d="M30.85 40.8469V40.8554H30.625H30.1H28.6C26.6116 40.8554 25 39.2357 25 37.2371V36.9742C25 36.4117 25.1294 35.8576 25.3797 35.3545L30.85 40.8469ZM30.85 40.8469H31.6V40.8554V41.474M30.85 40.8469L30.8507 40.8554L30.9076 41.5947C31.1457 41.5764 31.3772 41.5354 31.6 41.474M30.85 40.8469C31.84 40.7706 32.6894 40.2024 33.1591 39.3855C33.3447 39.0611 33.3088 38.6684 33.0978 38.3873L30.85 40.8469ZM31.6 41.474C32.0375 41.3535 32.4418 41.1543 32.797 40.8928C32.8 41.0232 32.8184 41.1553 32.8536 41.2868C33.0594 42.0554 33.7704 42.5469 34.5293 42.5085C34.0263 43.111 34.0127 44.0041 34.5273 44.6265C35.1113 45.333 36.1546 45.4247 36.8545 44.8402L36.8553 44.8395L37.8171 44.0341C37.9412 44.4589 38.2342 44.8332 38.661 45.0477C39.4785 45.4585 40.4695 45.1241 40.8758 44.3076C40.8758 44.3075 40.8758 44.3075 40.8759 44.3074L43.2917 39.454L43.2918 39.4538C43.594 38.8464 43.75 38.178 43.75 37.5028V37.2371C43.75 34.8279 41.8062 32.8688 39.4 32.8688H37.375H37.15H36.4V33.0002C35.9624 33.1207 35.5581 33.32 35.2028 33.5816C35.1999 33.451 35.1815 33.3189 35.1464 33.1875L34.4219 33.3814L35.1464 33.1875C34.9404 32.4178 34.2278 31.9261 33.4678 31.9658C33.9708 31.3634 33.9845 30.4702 33.4699 29.8477C32.8859 29.1412 31.8426 29.0496 31.1427 29.634L31.1419 29.6347L30.1823 30.4383C30.0579 30.0142 29.7652 29.6407 29.339 29.4265C28.5215 29.0157 27.5305 29.3501 27.1242 30.1667C27.1242 30.1667 27.1242 30.1668 27.1241 30.1668L24.7083 35.0203L24.7082 35.0204C24.4059 35.6281 24.25 36.2966 24.25 36.9742V37.2371C24.25 39.6463 26.1938 41.6054 28.6 41.6054H30.625H30.85H31.6V41.474ZM31.0789 37.9155C31.238 38.1209 31.4389 38.2799 31.6622 38.3876C31.6402 38.417 31.6197 38.4481 31.6009 38.4809M31.0789 37.9155C31.238 37.7102 31.4389 37.5512 31.6622 37.4435C31.6402 37.4141 31.6197 37.3829 31.6009 37.3502M31.0789 37.9155C31.0328 37.975 30.9902 38.0384 30.9516 38.1056M31.0789 37.9155C31.0328 37.856 30.9902 37.7926 30.9516 37.7254C30.951 37.7245 30.9505 37.7236 30.95 37.7227L31.6009 37.3502M31.6009 37.3502C31.4041 37.011 31.0412 36.7848 30.625 36.7848C30.0034 36.7848 29.5 37.2908 29.5 37.9155C29.5 38.5403 30.0034 39.0463 30.625 39.0463C31.0412 39.0463 31.4041 38.8201 31.6009 38.4809M31.6009 37.3502L30.9516 38.1056M31.6009 38.4809L30.95 38.1084C30.9505 38.1075 30.9511 38.1065 30.9516 38.1056M31.6009 38.4809L30.9523 38.1044C30.952 38.1048 30.9518 38.1052 30.9516 38.1056M37.0485 36.3686C37.0097 36.4359 36.967 36.4995 36.9208 36.5591C36.9668 36.6183 37.0093 36.6813 37.048 36.748M37.0485 36.3686C37.0482 36.369 37.048 36.3694 37.0477 36.3698L36.3991 35.9933L37.05 36.3658C37.0495 36.3667 37.049 36.3676 37.0485 36.3686ZM37.0485 36.3686C37.118 36.2497 37.2397 36.178 37.375 36.178C37.5788 36.178 37.75 36.3446 37.75 36.5587C37.75 36.7728 37.5788 36.9394 37.375 36.9394C37.2394 36.9394 37.1174 36.8673 37.048 36.748M37.048 36.748C37.0479 36.7478 37.0478 36.7477 37.0477 36.7476L36.3991 37.124L37.0482 36.7484C37.0481 36.7482 37.048 36.7481 37.048 36.748ZM31.862 32.3665L33.1182 32.022L33.1208 32.0213C33.1228 32.0208 33.1247 32.0203 33.1267 32.0198L32.7766 31.6005M31.862 32.3665L33.1275 32.0195L32.7766 31.6005M31.862 32.3665L32.7766 31.6005M31.862 32.3665L32.7766 31.6005M34.0112 39.259C34.0063 39.2604 34.0013 39.2618 33.9964 39.2632C34.0922 38.7902 33.9766 38.2954 33.6816 37.9155C34.0826 37.3992 34.152 36.6707 33.81 36.0731L33.8089 36.0711C33.6692 35.8288 33.5026 35.6037 33.3132 35.4001L33.9859 35.216L33.7891 34.4923L33.987 35.2157L33.9864 35.2159C33.9917 35.2144 33.997 35.213 34.0023 35.2115C33.9058 35.6855 34.0235 36.1798 34.3183 36.5588C33.9174 37.0751 33.848 37.8035 34.19 38.4011L34.1911 38.4031C34.3308 38.6454 34.4974 38.8705 34.6868 39.0741L34.013 39.2585L34.0112 39.259ZM33.0978 37.4438C33.3088 37.1627 33.3447 36.77 33.1591 36.4456C32.9794 36.1339 32.7438 35.8581 32.4662 35.6319L33.0978 37.4438ZM34.7395 42.2984L34.7391 42.2988L34.8702 42.4553C34.8704 42.4552 34.8707 42.4552 34.871 42.4551L34.7395 42.2984ZM33.2573 32.1761C33.2575 32.176 33.2577 32.1758 33.2579 32.1756L32.2181 33.0465L33.1786 32.2421L33.1801 32.2408L33.2573 32.1761Z" stroke="#1E88E5" stroke-width="1.5"/>
<path d="M39.4 37.2H40.1423V37.9422H39.4V37.2Z" fill="#F44336"/>
<path d="M40.5134 37.5571C40.5134 37.3599 40.6795 37.2 40.8845 37.2C41.0895 37.2 41.2556 37.3599 41.2556 37.5571V38.3134H40.5134V37.5571Z" fill="#4CAF50"/>
<path d="M39.7712 39.0555C39.9761 39.0555 40.1423 38.8893 40.1423 38.6844C40.1423 38.4794 39.9761 38.3132 39.7712 38.3132C39.5662 38.3132 39.4 38.4794 39.4 38.6844C39.4 38.8893 39.5662 39.0555 39.7712 39.0555Z" fill="#FFC107"/>
<path d="M40.8844 38.4988L41.2058 39.0555H40.563L40.8844 38.4988Z" fill="#1E88E5"/>
<path d="M19.6134 16.7532L19.6134 16.7532L19.611 16.754C18.9535 16.9536 18.5 17.5614 18.5 18.251V20.079V23.1885C18.4792 23.1881 18.4584 23.1879 18.4375 23.1879C16.8117 23.1879 15.25 24.3101 15.25 25.969C15.25 27.6278 16.8117 28.75 18.4375 28.75C20.0633 28.75 21.625 27.6278 21.625 25.969V21.2412L26.625 19.7414V21.5636C26.6042 21.5633 26.5834 21.5631 26.5625 21.5631C24.9367 21.5631 23.375 22.6853 23.375 24.3441C23.375 26.003 24.9367 27.1252 26.5625 27.1252C28.1883 27.1252 29.75 26.003 29.75 24.3441V17.6417V15.8138C29.75 15.3228 29.5181 14.8555 29.1213 14.5604C28.722 14.2609 28.2085 14.1755 27.7391 14.3158L27.7384 14.316L19.6134 16.7532Z" fill="white" stroke="#1E88E5" stroke-width="1.5"/>
<path d="M17.3 24.9666H18.1667V25.8332H17.3V24.9666Z" fill="#F44336"/>
<path d="M18.6 25.3836C18.6 25.1533 18.794 24.9666 19.0334 24.9666C19.2727 24.9666 19.4667 25.1533 19.4667 25.3836V26.2665H18.6V25.3836Z" fill="#4CAF50"/>
<path d="M17.7334 27.1333C17.9727 27.1333 18.1667 26.9393 18.1667 26.6999C18.1667 26.4606 17.9727 26.2666 17.7334 26.2666C17.4941 26.2666 17.3 26.4606 17.3 26.6999C17.3 26.9393 17.4941 27.1333 17.7334 27.1333Z" fill="#FFC107"/>
<path d="M19.0332 26.4834L19.4085 27.1334H18.658L19.0332 26.4834Z" fill="#1E88E5"/>
</svg>
