<svg width="60" height="60" viewBox="0 0 60 60" fill="none" xmlns="http://www.w3.org/2000/svg">
<circle cx="30" cy="30" r="21" fill="white" stroke="#4CAF50" stroke-width="3"/>
<circle cx="30" cy="30" r="27.5" stroke="#4CAF50" stroke-width="5"/>
<path d="M16.875 20.9219H17.8125V21.8594H16.875V20.9219Z" fill="#F44336"/>
<path d="M18.2812 21.373C18.2812 21.1239 18.4911 20.9219 18.75 20.9219C19.0089 20.9219 19.2187 21.1239 19.2187 21.373V22.3281H18.2812V21.373Z" fill="#4CAF50"/>
<path d="M17.3437 23.2656C17.6026 23.2656 17.8125 23.0558 17.8125 22.7969C17.8125 22.538 17.6026 22.3281 17.3437 22.3281C17.0849 22.3281 16.875 22.538 16.875 22.7969C16.875 23.0558 17.0849 23.2656 17.3437 23.2656Z" fill="#FFC107"/>
<path d="M18.7499 22.5625L19.1559 23.2656H18.344L18.7499 22.5625Z" fill="#1E88E5"/>
<path d="M29.9417 24.412C29.4811 28.1665 26.2917 31 22.5 31C22.1988 31 21.8976 30.9823 21.5964 30.9469C19.6119 30.699 17.8223 29.7072 16.5998 28.1311C15.3595 26.5549 14.8102 24.5892 15.0583 22.6057C15.5189 18.8512 18.7083 16 22.5 16C22.8012 16 23.1024 16.0177 23.4036 16.0531C25.3881 16.301 27.1777 17.2928 28.4002 18.8689C29.6405 20.4627 30.1898 22.4108 29.9417 24.412ZM17.6274 19.8252C17.3445 19.855 16.9742 19.9847 16.5688 20.2145C16.4125 20.3031 16.2901 20.4407 16.2158 20.6042C15.9244 21.2452 15.7193 21.9401 15.6253 22.6765C15.5626 23.1598 15.5542 23.6431 15.5979 24.1196C15.6605 24.8037 16.4708 25.0965 17.0845 24.7879C17.4296 24.6143 17.8428 24.4195 18.3362 24.1995C19.5825 23.6586 22.1187 22.7083 23.6134 22.1485C23.8034 22.0773 23.898 21.8643 23.8945 21.6614C23.8915 21.4862 23.8034 21.3184 23.6415 21.2513C22.7913 20.8984 21.594 20.4107 20.6396 20.1086C19.3107 19.7013 18.1945 19.7721 17.6274 19.8252ZM26.2108 17.9615C26.1946 17.7423 26.0502 17.5639 25.8582 17.4569C25.083 17.0247 24.2287 16.7474 23.3328 16.6375C23.0492 16.6198 22.7658 16.6022 22.4823 16.6022C22.4002 16.6022 22.3702 16.7175 22.4398 16.7611C23.0739 17.1579 23.7513 17.8055 24.3074 18.7627C24.605 19.2834 24.8152 19.7289 25.0008 20.1206C25.063 20.2518 25.1991 20.325 25.3438 20.3365C25.5135 20.3501 25.6905 20.2788 25.754 20.1209C25.9339 19.6738 26.1638 18.9593 26.221 18.3024C26.221 18.1717 26.218 18.0589 26.2108 17.9615ZM24.8742 22.34C25.2286 22.6234 25.7425 22.6056 26.0082 22.2692C26.2739 21.9327 26.2031 21.4368 25.8488 21.1534C25.4944 20.8701 24.9805 20.8879 24.7148 21.2242C24.4313 21.5431 24.5022 22.0566 24.8742 22.34ZM26.3272 25.7225C26.1522 24.7163 25.9651 23.9742 25.8154 23.4469C25.765 23.2692 25.59 23.1656 25.4053 23.1593C25.2137 23.1528 25.012 23.2378 24.936 23.4139C24.821 23.6803 24.6883 23.9796 24.5377 24.3056C23.8821 25.7578 23.262 26.8734 22.7304 27.6527C22.2294 28.3574 21.777 28.8922 21.3834 29.2977C21.0265 29.6654 21.1567 30.3178 21.6672 30.3623C21.9507 30.3977 22.2343 30.4154 22.5 30.4154C23.5962 30.4154 24.632 30.1587 25.5655 29.701C25.7178 29.6263 25.8465 29.5095 25.9275 29.3605C26.641 28.0464 26.4446 26.4091 26.3272 25.7225ZM29.2136 21.8501C29.098 21.3878 28.6245 21.118 28.1557 21.2038C28.0625 21.2208 27.9666 21.2393 27.8688 21.2597C27.617 21.31 27.3384 21.3872 27.071 21.4721C26.8861 21.5308 26.7823 21.7246 26.7765 21.9185C26.7711 22.0993 26.8439 22.2788 26.999 22.3717C27.4973 22.67 28.0667 23.0375 28.4712 23.367C28.8327 23.6595 29.4342 23.4554 29.3988 22.9918C29.3695 22.6077 29.3075 22.2259 29.2136 21.8501Z" fill="#4CAF50" stroke="#4CAF50" stroke-width="0.5"/>
<path d="M31.1637 31.0151C30.8662 30.5604 30.9846 29.9448 31.4339 29.6417C31.8832 29.3386 32.4843 29.4592 32.7818 29.9139L31.1637 31.0151ZM31.1637 31.0151L31.7588 31.9184L31.1637 31.0151ZM33.403 28.9797C33.403 29.018 33.4037 29.0563 33.4051 29.0944C32.7567 28.4019 31.6889 28.2633 30.8746 28.8127C29.9628 29.428 29.7362 30.6598 30.3269 31.5626L30.3269 31.5626L30.3286 31.5653L30.9224 32.4666C30.9226 32.4669 30.9228 32.4672 30.9231 32.4676C31.4498 33.2709 32.1337 33.9353 32.9172 34.4303V41.848C32.9172 42.93 33.7815 43.8378 34.8887 43.8378C35.4722 43.8378 35.9883 43.5857 36.3459 43.1888C36.7035 43.5857 37.2196 43.8378 37.8031 43.8378C38.9103 43.8378 39.7746 42.93 39.7746 41.848V34.4395C40.5853 33.9318 41.2886 33.2424 41.8233 32.4088L41.8238 32.4081L42.3763 31.545L42.3777 31.5429C42.9589 30.6299 42.7091 29.4083 41.8041 28.8039C40.9847 28.2567 39.9272 28.4129 39.2865 29.0976C39.2881 29.0584 39.2888 29.0191 39.2888 28.9797C39.2888 28.1954 38.9832 27.4396 38.4335 26.8794C37.8831 26.3186 37.1325 26 36.3459 26C35.5593 26 34.8087 26.3186 34.2583 26.8794C33.7086 27.4396 33.403 28.1954 33.403 28.9797Z" fill="white" stroke="#4CAF50" stroke-width="2"/>
<path d="M34.9595 34.127H36.0681V35.2356H34.9595V34.127Z" fill="#F44336"/>
<path d="M36.6226 34.6605C36.6226 34.3658 36.8707 34.127 37.1769 34.127C37.483 34.127 37.7312 34.3658 37.7312 34.6605V35.7899H36.6226V34.6605Z" fill="#4CAF50"/>
<path d="M35.5138 36.8987C35.8199 36.8987 36.0681 36.6505 36.0681 36.3444C36.0681 36.0382 35.8199 35.79 35.5138 35.79C35.2076 35.79 34.9595 36.0382 34.9595 36.3444C34.9595 36.6505 35.2076 36.8987 35.5138 36.8987Z" fill="#FFC107"/>
<path d="M37.1767 36.0671L37.6567 36.8986H36.6966L37.1767 36.0671Z" fill="#1E88E5"/>
<path d="M45.9001 34.1007C45.9003 33.7656 45.6367 33.4935 45.312 33.4813M45.9001 34.1007L45.6501 34.1006H45.9001V34.1007ZM45.9001 34.1007V34.6179C45.9001 34.9194 45.6838 35.1832 45.3811 35.2301M45.312 33.4813L45.6501 34.6179C45.6501 34.8005 45.5193 34.956 45.3421 34.9831M45.312 33.4813L45.2988 33.4713L45.1937 33.4883L43.7094 33.7275M45.312 33.4813L43.7094 33.7275M45.3811 35.2301L45.382 35.2299L45.3421 34.9831M45.3811 35.2301L44.1036 35.4363M45.3811 35.2301C45.3807 35.2301 45.3803 35.2302 45.3799 35.2303L45.3421 34.9831M45.3421 34.9831L44.1036 35.4363M44.1036 35.4363V35.2232H43.8572L43.8572 35.2229L44.1036 35.4363ZM44.1036 35.4363L43.8991 35.4694L43.8499 38.5165C43.8517 38.5252 43.8536 38.534 43.8536 38.5432C43.8536 38.9469 43.3693 39.2742 42.7719 39.2742C42.1748 39.2742 41.6906 38.9469 41.6906 38.5432C41.6906 38.1395 42.1748 37.8121 42.7719 37.8121C42.9212 37.8121 43.0622 37.8333 43.1906 37.8709V37.6121M44.1036 35.4363V38.4626C44.1036 38.477 44.1025 38.4903 44.1009 38.5019M43.8583 35.473L43.8592 35.473C43.8589 35.473 43.8586 35.473 43.8583 35.473ZM43.8583 35.473C43.8574 35.473 43.8566 35.473 43.856 35.473M43.8583 35.473L43.8565 35.473L43.856 35.473M43.856 35.473C43.8559 35.473 43.8557 35.473 43.8556 35.473M43.856 35.473L43.8556 35.473H43.8556M43.8556 35.473C43.8552 35.473 43.855 35.473 43.8552 35.473L43.8556 35.473ZM44.1009 38.5019C44.0991 38.4871 44.0968 38.4758 44.0956 38.4702L44.0955 38.4696L44.0942 38.4633C44.0941 38.463 44.0941 38.4628 44.094 38.4626C44.0938 38.4618 44.0938 38.4617 44.0939 38.4618L44.0939 38.4619C44.0939 38.462 44.0939 38.4622 44.094 38.4626C44.0943 38.4642 44.095 38.4683 44.0955 38.4739L43.8466 38.4974L44.0934 38.5376C44.093 38.5396 44.0927 38.5415 44.0924 38.5432C44.0915 38.5477 44.0907 38.5507 44.0905 38.5513L44.0905 38.5513L44.0905 38.5515C44.0905 38.5514 44.0906 38.551 44.0908 38.5502L44.0926 38.5437L44.0926 38.5436C44.0927 38.5435 44.0927 38.5433 44.0927 38.5432C44.0945 38.5364 44.0983 38.5216 44.1009 38.5019ZM44.1009 38.5019C44.1024 38.5138 44.1036 38.5279 44.1036 38.5432C44.1036 38.853 43.9176 39.1044 43.6768 39.2672C43.4345 39.431 43.1138 39.5242 42.7719 39.5242C42.4302 39.5242 42.1096 39.431 41.8674 39.2672C41.6265 39.1044 41.4406 38.853 41.4406 38.5432C41.4406 38.2333 41.6265 37.982 41.8673 37.8192C42.1096 37.6554 42.4302 37.5621 42.7719 37.5621C42.9182 37.5621 43.0588 37.5797 43.1906 37.6121M43.1906 37.6121V34.34C43.1906 34.0384 43.4066 33.7748 43.7094 33.7275M43.1906 37.6121C43.2781 37.6336 43.3618 37.6616 43.4406 37.6953V34.34L43.7094 33.7275" fill="#4CAF50" stroke="#4CAF50" stroke-width="0.5"/>
</svg>
