<svg width="60" height="60" viewBox="0 0 60 60" fill="none" xmlns="http://www.w3.org/2000/svg">
<circle cx="30" cy="30" r="21" fill="white" stroke="#1E88E5" stroke-width="3"/>
<circle cx="30" cy="30" r="27.5" stroke="#1E88E5" stroke-width="5"/>
<path d="M15.8017 30.2134C14.6533 30.8685 14.76 32.6153 15.9847 33.1231L23.114 36.0938V41.3395C23.114 42.2586 23.8559 43 24.7757 43C25.2686 43 25.7361 42.7816 26.0511 42.4008L29.2017 38.6278L35.4977 41.2481C36.4581 41.6492 37.5709 41.0195 37.7284 39.9938L40.9806 18.8689C41.0772 18.2545 40.8078 17.635 40.2946 17.2846C39.7814 16.9342 39.1106 16.9037 38.5669 17.2135L15.8017 30.2134ZM18.4492 31.5083L35.8025 21.6009L24.6436 34.0626L24.7045 34.1133L18.4492 31.5083ZM35.4773 38.6024L27.0115 35.0731L37.891 22.9212L35.4773 38.6024Z" fill="#1E88E5"/>
<path d="M31.3333 32.6665H32.6666V33.9998H31.3333V32.6665Z" fill="#F44336"/>
<path d="M33.3333 33.3081C33.3333 32.9538 33.6317 32.6665 33.9999 32.6665C34.3681 32.6665 34.6666 32.9538 34.6666 33.3081V34.6665H33.3333V33.3081Z" fill="#4CAF50"/>
<path d="M31.9999 35.9998C32.3681 35.9998 32.6666 35.7014 32.6666 35.3332C32.6666 34.965 32.3681 34.6665 31.9999 34.6665C31.6317 34.6665 31.3333 34.965 31.3333 35.3332C31.3333 35.7014 31.6317 35.9998 31.9999 35.9998Z" fill="#FFC107"/>
<path d="M34 35L34.5773 36H33.4226L34 35Z" fill="#1E88E5"/>
</svg>
