<svg width="260" height="260" viewBox="0 0 260 260" fill="none" xmlns="http://www.w3.org/2000/svg">
<path d="M117.01 22.5C122.783 12.5 137.217 12.5 142.99 22.5L229.593 172.5C235.366 182.5 228.15 195 216.603 195H43.3975C31.8505 195 24.6336 182.5 30.4071 172.5L117.01 22.5Z" fill="#1E88E5"/>
<path d="M103.545 100.666C102.744 100.666 102.344 100.256 102.344 99.4355C102.344 98.6152 102.744 98.2051 103.545 98.2051H104.541C105.244 98.2051 105.615 97.834 105.654 97.0918V90.8223L102.812 91.6133C102.012 91.6133 101.611 91.2031 101.611 90.3828C101.611 89.6992 102.148 89.2402 103.223 89.0059L105.654 88.3906V82.0332H102.988C102.109 82.0332 101.67 81.6523 101.67 80.8906C101.67 80.1289 102.109 79.748 102.988 79.748H105.654V75.3242C105.654 74.5234 106.035 74.123 106.797 74.123C107.559 74.123 107.939 74.5234 107.939 75.3242V79.748H109.785C110.684 79.748 111.133 80.1289 111.133 80.8906C111.133 81.6523 110.684 82.0332 109.785 82.0332H107.939V87.7461L108.379 87.5996L109.375 87.3066L110.137 87.1309C110.82 87.1309 111.162 87.4922 111.162 88.2148C111.162 88.7617 110.859 89.1523 110.254 89.3867L107.939 90.1484V97.7363C108.076 99.7871 107.09 100.764 104.98 100.666H103.545ZM109.551 98.7617C109.551 98.0195 109.951 97.6484 110.752 97.6484H117.93V93.9277H112.48C111.68 93.9277 111.279 93.5566 111.279 92.8145C111.279 92.0723 111.68 91.7012 112.48 91.7012H117.93V89.7676C117.93 88.8887 118.33 88.4492 119.131 88.4492C119.971 88.4492 120.391 88.8887 120.391 89.7676V91.7012H125.664C126.465 91.7012 126.865 92.0723 126.865 92.8145C126.865 93.5566 126.465 93.9277 125.664 93.9277H120.391V97.6484H127.07C127.891 97.6484 128.301 98.0195 128.301 98.7617C128.301 99.4844 127.891 99.8457 127.07 99.8457H110.752C109.951 99.8457 109.551 99.4844 109.551 98.7617ZM112.07 77.5801C111.992 76.7402 112.158 76.1152 112.568 75.7051C112.979 75.2949 113.633 75.0898 114.531 75.0898H124.082C125.84 75.0898 126.65 75.9199 126.514 77.5801V85.2852C126.592 86.125 126.426 86.75 126.016 87.1602C125.605 87.5508 124.961 87.7461 124.082 87.7461H114.531C113.633 87.7461 112.979 87.5508 112.568 87.1602C112.158 86.75 111.992 86.125 112.07 85.2852V77.5801ZM114.385 84.7285C114.385 85.2949 114.688 85.5977 115.293 85.6367H123.291C123.896 85.6367 124.199 85.334 124.199 84.7285V82.4141H114.385V84.7285ZM124.199 80.334V78.1074C124.199 77.541 123.896 77.2383 123.291 77.1992H115.293C114.727 77.1992 114.424 77.502 114.385 78.1074V80.334H124.199ZM133.955 92.9609C133.604 93.0195 133.33 92.9414 133.135 92.7266C132.939 92.5117 132.842 92.209 132.842 91.8184C132.842 91.2324 133.301 90.8223 134.219 90.5879C136.367 90.041 137.686 88.9766 138.174 87.3945H135.654C134.092 87.3945 133.311 86.6133 133.311 85.0508V81.8574C133.311 81.1152 133.672 80.7441 134.395 80.7441C135.098 80.7441 135.449 81.1152 135.449 81.8574V84.6406C135.449 85.1484 135.703 85.4023 136.211 85.4023H138.438L138.555 81.0371L138.525 79.9531H132.959C132.158 79.9531 131.758 79.5918 131.758 78.8691C131.758 78.1855 132.158 77.8438 132.959 77.8438H141.221L142.217 75.0898C142.354 74.7383 142.51 74.4844 142.686 74.3281C142.881 74.1719 143.115 74.0938 143.389 74.0938C144.268 74.0938 144.707 74.4746 144.707 75.2363C144.707 75.627 144.268 76.4961 143.389 77.8438H145.879C146.68 77.8438 147.08 78.1953 147.08 78.8984C147.08 79.6016 146.68 79.9531 145.879 79.9531H140.723L140.635 85.4023H142.979C143.467 85.4023 143.721 85.1484 143.74 84.6406V81.8867C143.74 81.125 144.102 80.7441 144.824 80.7441C145.547 80.7441 145.908 81.125 145.908 81.8867V85.1094C145.908 86.6328 145.156 87.3945 143.652 87.3945H140.4C139.775 90.168 137.793 91.9941 134.453 92.873L133.955 92.9609ZM131.875 98.8496C131.875 98.166 132.275 97.8242 133.076 97.8242H143.652V95.1582H135.508C134.727 95.1582 134.336 94.8164 134.336 94.1328C134.336 93.4492 134.727 93.1074 135.508 93.1074H143.652V91.6719C143.652 90.7344 144.053 90.2656 144.854 90.2656C145.088 90.2656 145.303 90.3145 145.498 90.4121C145.459 90.2168 145.439 90.0508 145.439 89.9141C145.439 89.6797 145.674 89.2402 146.143 88.5957C147.119 87.2676 147.607 84.1621 147.607 79.2793L147.578 77.2578C147.539 75.7539 148.34 75.002 149.98 75.002H154.609C156.211 75.002 157.012 75.8027 157.012 77.4043V89.2402C157.012 90.2363 156.787 90.9688 156.338 91.4375C155.908 91.8867 155.215 92.082 154.258 92.0234H152.822C152.002 92.0234 151.592 91.6328 151.592 90.8516C151.592 90.0312 152.012 89.6211 152.852 89.6211H153.848C154.414 89.6211 154.717 89.3184 154.756 88.7129V86.1641H149.482C149.268 87.2773 148.955 88.2441 148.545 89.0645C147.881 90.4121 147.236 91.0859 146.611 91.0859C146.377 91.0859 146.162 91.0371 145.967 90.9395C146.045 91.1152 146.084 91.3594 146.084 91.6719V93.1074H154.697C155.498 93.1074 155.898 93.4492 155.898 94.1328C155.898 94.8164 155.498 95.1582 154.697 95.1582H146.084V97.8242H156.924C157.744 97.8242 158.154 98.166 158.154 98.8496C158.154 99.5527 157.744 99.9043 156.924 99.9043H133.076C132.275 99.9043 131.875 99.5527 131.875 98.8496ZM134.482 75.0898C134.482 74.4648 134.883 74.1523 135.684 74.1523C136.133 74.1523 136.592 74.5332 137.061 75.2949C137.432 75.8809 137.617 76.3105 137.617 76.584C137.617 77.3066 137.188 77.668 136.328 77.668C136.074 77.668 135.83 77.5508 135.596 77.3164C135.361 77.0625 135.107 76.6523 134.834 76.0859C134.6 75.6172 134.482 75.2852 134.482 75.0898ZM154.756 84.2012V81.5938H149.775L149.658 84.2012H154.756ZM154.756 79.6309V77.8145C154.756 77.3066 154.492 77.0332 153.965 76.9941H150.625C150.078 76.9941 149.805 77.2676 149.805 77.8145V79.6309H154.756Z" fill="white"/>
<g clip-path="url(#clip0_75_3049)">
<path d="M143.837 133.729C143.939 133.177 144 132.612 144 132.032C144 126.807 139.694 122.558 134.4 122.558C131.547 122.558 128.989 123.799 127.229 125.754C121.884 126.116 117.564 130.188 116.899 135.377C116.35 135.26 115.784 135.189 115.2 135.189C110.789 135.189 107.2 138.731 107.2 143.084V152.558C107.2 160.394 113.659 166.768 121.6 166.768H137.6C145.541 166.768 152 160.394 152 152.558V143.084C152 138.343 148.45 134.417 143.837 133.729ZM137.6 163.611H121.6C115.425 163.611 110.4 158.652 110.4 152.558V143.084C110.4 140.472 112.553 138.347 115.2 138.347C117.847 138.347 120 140.472 120 143.084C120 143.957 120.716 144.663 121.6 144.663C122.484 144.663 123.2 143.957 123.2 143.084C123.2 140.512 121.928 138.245 119.993 136.803C119.993 136.791 120 136.781 120 136.768C120 133.397 122.163 130.534 125.183 129.405C124.938 130.24 124.8 131.12 124.8 132.032C124.8 132.904 125.516 133.611 126.4 133.611C127.284 133.611 128 132.904 128 132.032C128 128.548 130.87 125.716 134.4 125.716C137.93 125.716 140.8 128.548 140.8 132.032C140.8 135.515 137.93 138.347 134.4 138.347C133.516 138.347 132.8 139.054 132.8 139.926C132.8 140.799 133.516 141.505 134.4 141.505C137.932 141.505 141.017 139.608 142.684 136.797C146.079 136.947 148.8 139.697 148.8 143.084C148.8 146.567 145.93 149.4 142.4 149.4C141.516 149.4 140.8 150.106 140.8 150.979C140.8 151.852 141.516 152.558 142.4 152.558C144.86 152.558 147.099 151.632 148.8 150.126V152.558C148.8 158.652 143.775 163.611 137.6 163.611Z" fill="white"/>
</g>
<defs>
<clipPath id="clip0_75_3049">
<rect width="51.2" height="63.1579" fill="white" transform="translate(104 119.4)"/>
</clipPath>
</defs>
</svg>
