<svg width="190" height="190" viewBox="0 0 190 190" fill="none" xmlns="http://www.w3.org/2000/svg">
<path d="M0 95C0 42.533 42.533 0 95 0C147.467 0 190 42.533 190 95V180C190 185.523 185.523 190 180 190H10C4.47715 190 0 185.523 0 180V95Z" fill="#4CAF50"/>
<path d="M38.8402 60.8418C38.391 60.8613 38.0395 60.7637 37.7856 60.5488C37.5317 60.334 37.4047 60.0117 37.4047 59.582C37.4047 58.8203 37.9516 58.4199 39.0453 58.3809C43.0883 58.2246 46.8676 57.5215 50.3832 56.2715C49.6606 55.666 48.5863 54.8359 47.1606 53.7812C46.7113 53.4688 46.4867 53.166 46.4867 52.873C46.4867 52.5215 46.5844 52.2578 46.7797 52.082C46.975 51.8867 47.2094 51.7891 47.4828 51.7891C47.9906 51.7891 48.6645 52.0625 49.5043 52.6094C50.3637 53.1562 51.4672 54.0059 52.8149 55.1582C54.8656 54.123 56.5942 53.0391 58.0004 51.9062L58.8207 51.2617C59.5824 50.6758 59.9633 50.3242 59.9633 50.207C59.9633 50.0508 59.8559 49.9727 59.641 49.9727H48.8598C47.5121 50.793 45.9203 51.5938 44.0844 52.375C42.307 53.1367 41.1156 53.5176 40.5102 53.5176C40.1391 53.5176 39.8559 53.4199 39.6606 53.2246C39.4848 53.0098 39.3969 52.7168 39.3969 52.3457C39.3969 51.7988 39.8949 51.3887 40.891 51.1152C44.9926 49.9629 48.2738 48.2344 50.7348 45.9297C51.0277 45.6562 51.2817 45.4512 51.4965 45.3145C51.7113 45.1777 51.9457 45.0801 52.1996 45.0215C52.4926 44.9434 52.766 45.0117 53.0199 45.2266C53.2934 45.4219 53.4301 45.6562 53.4301 45.9297C53.4301 46.1836 53.2934 46.4766 53.0199 46.8086C52.7465 47.1211 52.3461 47.4434 51.8188 47.7754H61.2817C61.8676 47.7754 62.3266 47.9121 62.6586 48.1855C62.9906 48.4395 63.1567 48.7812 63.1567 49.2109C63.1567 49.7383 62.932 50.2559 62.4828 50.7637C61.4477 51.9551 60.4906 52.9023 59.6117 53.6055C57.2289 55.5586 54.436 57.1699 51.2328 58.4395C48.2445 59.6113 44.436 60.3926 39.807 60.7832L38.8402 60.8418ZM37.5805 47.2773C37.5805 46.8867 37.7758 46.584 38.1664 46.3691C38.5766 46.1348 39.2113 45.9688 40.0707 45.8711C42.4731 45.5781 45.1293 44.9531 48.0395 43.9961L45.6078 42.0625C45.3344 41.8477 45.1488 41.6816 45.0512 41.5645C44.9535 41.4473 44.9047 41.3008 44.9047 41.125C44.9047 40.8516 44.9926 40.6367 45.1684 40.4805C45.3637 40.3242 45.5785 40.2461 45.8129 40.2461C46.2035 40.2461 46.7113 40.4414 47.3363 40.832C47.9809 41.2227 48.8793 41.8574 50.0317 42.7363L50.3832 43.0879C51.2426 42.7363 52.434 42.1113 53.9574 41.2129C55.4809 40.2949 56.4672 39.5918 56.9164 39.1035C56.975 39.0449 57.0043 38.9961 57.0043 38.957C57.0043 38.8398 56.9164 38.7812 56.7406 38.7812H45.9887C44.8168 39.4648 43.557 40.1191 42.2094 40.7441C40.9203 41.3301 40.0707 41.623 39.6606 41.623C38.8793 41.623 38.4887 41.2227 38.4887 40.4219C38.4887 40.168 38.6059 39.9043 38.8402 39.6309C38.9379 39.5332 39.2992 39.377 39.9242 39.1621L40.7738 38.8691C43.1176 38.0293 45.2758 36.7598 47.2485 35.0605L47.8344 34.5625C47.9125 34.4648 48.0785 34.3086 48.3324 34.0938C48.5473 33.918 48.7817 33.8301 49.0356 33.8301C49.3676 33.8301 49.6606 33.9375 49.9145 34.1523C50.1879 34.3672 50.3246 34.6113 50.3246 34.8848C50.3246 35.1582 50.2172 35.4219 50.0024 35.6758C49.7875 35.9297 49.4652 36.2324 49.0356 36.584H58.7035C59.3481 36.584 59.8559 36.7207 60.227 36.9941C60.6176 37.2676 60.8129 37.6191 60.8129 38.0488C60.8129 38.498 60.5785 38.9473 60.1098 39.3965C58.8988 40.5098 57.4828 41.5742 55.8617 42.5898C54.2602 43.5859 52.6195 44.4551 50.9399 45.1973C48.3422 46.3496 44.768 47.4043 40.2172 48.3613C39.5336 48.498 39.0746 48.5664 38.8402 48.5664C38.0004 48.5664 37.5805 48.1367 37.5805 47.2773ZM68.5473 60.4316C67.727 60.4316 67.3168 59.9922 67.3168 59.1133C67.3168 58.8203 67.4731 58.5566 67.7856 58.3223C68.1176 58.0879 68.6254 57.8535 69.309 57.6191C71.3402 56.9355 72.8344 55.7441 73.7914 54.0449C74.768 52.3066 75.266 49.6699 75.2856 46.1348H68.9281C67.9516 46.1348 67.4633 45.7539 67.4633 44.9922C67.4633 44.2109 67.9516 43.8203 68.9281 43.8203H91.8676C92.8051 43.8203 93.2738 44.2012 93.2738 44.9629C93.2738 45.7441 92.8051 46.1348 91.8676 46.1348H84.4555V56.2715C84.4555 56.916 84.7094 57.3066 85.2172 57.4434C85.6664 57.5605 86.516 57.6191 87.766 57.6191C89.2895 57.6191 90.2074 57.4336 90.5199 57.0625C90.8129 56.75 90.9692 56.125 90.9887 55.1875C91.0277 54.25 91.4477 53.7812 92.2485 53.7812C92.6781 53.7812 93.0004 53.8789 93.2152 54.0742C93.4301 54.2695 93.5375 54.5918 93.5375 55.041C93.5375 56.7988 93.2152 58.0781 92.5707 58.8789C91.8481 59.5625 90.0805 59.9043 87.268 59.9043C85.2367 59.9043 83.9184 59.7871 83.3129 59.5527C82.5121 59.2402 82.1117 58.498 82.1117 57.3262V46.1348H77.6293L77.6 47.4238C77.5414 50.0801 77.0922 52.3945 76.2524 54.3672C75.4711 56.2422 74.2602 57.7168 72.6195 58.791C70.9594 59.8848 69.602 60.4316 68.5473 60.4316ZM70.3051 36.7305C70.3051 35.9492 70.7934 35.5586 71.7699 35.5586H89.0258C89.9828 35.5586 90.4613 35.9492 90.4613 36.7305C90.4613 37.4922 89.9828 37.873 89.0258 37.873H71.7699C70.7934 37.873 70.3051 37.4922 70.3051 36.7305ZM115.188 60.6074C114.192 60.6074 113.694 60.1973 113.694 59.377C113.694 58.5566 114.163 58.1465 115.1 58.1465H116.536C116.946 58.1465 117.268 58.0391 117.502 57.8242C117.737 57.5898 117.864 57.2578 117.883 56.8281V45.6074L117.766 45.5781C116.438 48.1172 114.68 50.5977 112.493 53.0195C111.438 54.1719 110.53 55.041 109.768 55.627C109.026 56.2129 108.45 56.5059 108.039 56.5059C107.297 56.5059 106.926 56.0957 106.926 55.2754C106.926 54.8262 107.268 54.3574 107.952 53.8691C109.748 52.5996 111.575 50.7832 113.43 48.4199C115.246 46.0957 116.575 44.0156 117.414 42.1797H110.266C109.426 42.1797 109.006 41.7891 109.006 41.0078C109.006 40.2461 109.426 39.8652 110.266 39.8652H117.854V35.4414C117.854 34.582 118.254 34.1523 119.055 34.1523C119.836 34.1523 120.227 34.582 120.227 35.4414V39.8652H122.629C123.371 39.8652 123.743 40.2559 123.743 41.0371C123.743 41.7988 123.371 42.1797 122.629 42.1797H120.256V57.4434C120.256 58.5371 119.993 59.3477 119.465 59.875C118.957 60.4023 118.176 60.6465 117.121 60.6074H115.188ZM97.0824 52.6094C97.0824 52.3164 97.307 51.8672 97.7563 51.2617C99.6313 48.7812 101.038 45.7148 101.975 42.0625H98.6059C97.8246 42.0625 97.434 41.7012 97.434 40.9785C97.434 40.2363 97.8246 39.8652 98.6059 39.8652H102.18V35.4414C102.18 34.582 102.561 34.1523 103.323 34.1523C104.084 34.1523 104.465 34.582 104.465 35.4414V39.8652H107.131C107.913 39.8652 108.303 40.2363 108.303 40.9785C108.303 41.7012 107.913 42.0625 107.131 42.0625H104.465V45.9883C104.543 45.7734 104.67 45.5977 104.846 45.4609C105.041 45.3047 105.227 45.2559 105.403 45.3145C105.891 45.4707 106.643 46.0762 107.659 47.1309C108.83 48.3613 109.416 49.1914 109.416 49.6211C109.416 50.3438 109.055 50.7051 108.332 50.7051C108.176 50.7051 107.991 50.6172 107.776 50.4414C107.58 50.2461 107.278 49.9141 106.868 49.4453C106.614 49.1719 106.321 48.8301 105.989 48.4199C105.403 47.7363 105.061 47.3457 104.963 47.248C104.748 47.0332 104.582 46.8086 104.465 46.5742V59.582C104.465 60.4219 104.084 60.8418 103.323 60.8418C102.561 60.8418 102.18 60.4219 102.18 59.582V46.6328C101.965 47.3359 101.653 48.1758 101.243 49.1523C100.832 50.1094 100.481 50.8906 100.188 51.4961C99.3871 53.1172 98.7231 53.9277 98.1957 53.9277C97.4535 53.9277 97.0824 53.4883 97.0824 52.6094ZM149.172 60.8418C148.371 60.8418 147.971 60.334 147.971 59.3184V52.1992L141.233 54.0156C140.998 54.0742 140.793 54.1035 140.618 54.1035C140.246 54.1035 139.983 53.9863 139.827 53.752C139.67 53.5176 139.592 53.2246 139.592 52.873C139.592 52.248 139.914 51.8477 140.559 51.6719L147.971 49.7676V35.6758C147.971 34.6602 148.381 34.1523 149.202 34.1523C150.022 34.1523 150.432 34.6602 150.432 35.6758V49.123L152.19 48.625C152.366 48.5664 152.532 48.5371 152.688 48.5371C153 48.5371 153.245 48.6348 153.42 48.8301C153.596 49.0254 153.684 49.3086 153.684 49.6797C153.684 50.2852 153.362 50.6758 152.717 50.8516L150.432 51.5547V59.3184C150.432 59.8457 150.325 60.2266 150.11 60.4609C149.914 60.7148 149.602 60.8418 149.172 60.8418ZM127.024 54.25C127.024 53.918 127.258 53.4688 127.727 52.9023C129.797 50.5391 131.272 47.9414 132.151 45.1094H128.284C127.502 45.1094 127.112 44.7383 127.112 43.9961C127.112 43.2734 127.502 42.9121 128.284 42.9121H132.532V35.3242C132.532 34.5234 132.913 34.123 133.674 34.123C134.436 34.123 134.817 34.5234 134.817 35.3242V42.9121H138.039C138.938 42.9121 139.387 43.2734 139.387 43.9961C139.387 44.3672 139.27 44.6504 139.036 44.8457C138.801 45.0215 138.469 45.1094 138.039 45.1094H134.817V48.3906C135.051 48.1172 135.354 47.9805 135.725 47.9805C136.077 47.9805 136.575 48.4004 137.219 49.2402L137.834 50.002C138.264 50.5488 138.567 50.9785 138.743 51.291C138.918 51.584 139.006 51.8672 139.006 52.1406C139.006 52.3945 138.918 52.5996 138.743 52.7559C138.567 52.9121 138.332 52.9902 138.039 52.9902C137.649 52.9902 137.288 52.7559 136.955 52.2871L135.08 49.6211L134.817 49.2695V59.6406C134.817 60.4414 134.436 60.8418 133.674 60.8418C132.913 60.8418 132.532 60.4414 132.532 59.6406V49.1523C131.946 50.5 131.184 51.916 130.246 53.4004C129.309 54.8457 128.586 55.5684 128.079 55.5684C127.375 55.5684 127.024 55.1289 127.024 54.25ZM127.991 37.7266C127.952 37.5703 127.932 37.4629 127.932 37.4043C127.932 37.1504 128.03 36.9453 128.225 36.7891C128.44 36.6133 128.694 36.5254 128.987 36.5254C129.455 36.5254 129.788 36.7598 129.983 37.2285C130.1 37.502 130.266 37.9707 130.481 38.6348C130.696 39.2988 130.862 39.9043 130.979 40.4512C131.038 40.7637 130.979 41.0176 130.803 41.2129C130.647 41.4082 130.442 41.5352 130.188 41.5938C130.11 41.6133 129.993 41.623 129.836 41.623C129.602 41.623 129.387 41.5547 129.192 41.418C129.016 41.2812 128.899 41.0859 128.84 40.832C128.625 39.9141 128.342 38.8789 127.991 37.7266ZM136.194 40.2754C136.545 39.123 136.829 38.0879 137.043 37.1699C137.102 36.916 137.219 36.7207 137.395 36.584C137.59 36.4473 137.805 36.3789 138.039 36.3789C138.196 36.3789 138.313 36.3887 138.391 36.4082C138.645 36.4668 138.85 36.5938 139.006 36.7891C139.182 36.9844 139.241 37.2383 139.182 37.5508C139.065 38.0977 138.899 38.7031 138.684 39.3672C138.469 40.0312 138.303 40.5 138.186 40.7734C137.991 41.2422 137.659 41.4766 137.19 41.4766C136.897 41.4766 136.643 41.3984 136.428 41.2422C136.233 41.0664 136.135 40.8516 136.135 40.5977C136.135 40.5391 136.155 40.4316 136.194 40.2754ZM140.5 44.3184C140.5 43.9473 140.588 43.6641 140.764 43.4688C140.94 43.2734 141.184 43.1758 141.496 43.1758C141.77 43.1758 142.102 43.2832 142.493 43.498C142.883 43.6934 143.381 44.0156 143.987 44.4648C145.159 45.3047 145.745 45.9492 145.745 46.3984C145.745 47.2188 145.334 47.6289 144.514 47.6289C144.358 47.6289 144.104 47.5215 143.752 47.3066C143.401 47.0723 142.981 46.75 142.493 46.3398L141.584 45.6367C140.862 45.0703 140.5 44.6309 140.5 44.3184ZM141.584 37.7266C141.584 37.375 141.663 37.1016 141.819 36.9062C141.995 36.7109 142.229 36.6133 142.522 36.6133C142.854 36.6133 143.166 36.7012 143.459 36.877C143.909 37.1504 144.436 37.5312 145.041 38.0195C145.647 38.5078 146.057 38.8984 146.272 39.1914C146.487 39.4648 146.594 39.7383 146.594 40.0117C146.594 40.3438 146.496 40.6074 146.301 40.8027C146.106 40.9785 145.862 41.0664 145.569 41.0664C145.334 41.0664 145.11 41.0078 144.895 40.8906C144.68 40.7734 144.436 40.5879 144.163 40.334C143.752 39.9434 143.196 39.4648 142.493 38.8984C141.887 38.4102 141.584 38.0195 141.584 37.7266ZM68.518 88.5234C67.7758 88.5234 67.4047 88.123 67.4047 87.3223C67.4047 87.0488 67.6293 86.5898 68.0785 85.9453C69.2113 84.3242 69.7777 81.4141 69.7777 77.2148V74.8125C69.7777 73.2109 70.6274 72.4102 72.3266 72.4102H80.5004C81.3207 72.4102 81.9262 72.6055 82.3168 72.9961C82.7074 73.3867 82.9027 73.9824 82.9027 74.7832V78.2988C82.9027 79.9004 82.0824 80.7012 80.4418 80.7012H71.8285C71.7699 82.5566 71.2914 84.4609 70.393 86.4141C70.061 87.1172 69.7387 87.6445 69.4262 87.9961C69.1332 88.3477 68.8305 88.5234 68.518 88.5234ZM67.1703 71.1504C67.1703 70.7207 67.5121 70.291 68.1957 69.8613C70.5199 68.416 72.7465 66.3848 74.8754 63.7676C75.2465 63.2988 75.7055 63.0645 76.2524 63.0645C76.5453 63.0645 76.7895 63.1426 76.9848 63.2988C77.1801 63.4551 77.2875 63.6406 77.307 63.8555V64.0605C77.307 64.2949 77.268 64.4902 77.1899 64.6465C80.4711 66.3652 82.5219 67.5566 83.3422 68.2207C83.811 68.6113 84.0453 68.9824 84.0453 69.334C84.0453 69.666 83.9477 69.959 83.7524 70.2129C83.5766 70.4473 83.3422 70.5645 83.0492 70.5645C82.6195 70.5645 82.1996 70.3984 81.7895 70.0664L81.7016 69.9785V70.1543C81.7016 70.7793 81.3598 71.0918 80.6762 71.0918H72.3559C71.7699 71.0918 71.4281 70.8379 71.3305 70.3301C70.4711 70.9746 69.7973 71.4531 69.309 71.7656C68.8207 72.0586 68.4594 72.2051 68.225 72.2051C67.8539 72.2051 67.5805 72.127 67.4047 71.9707C67.2485 71.8145 67.1703 71.541 67.1703 71.1504ZM71.9164 84.4805C71.9164 83.6211 72.102 82.9961 72.4731 82.6055C72.8442 82.2148 73.4496 82.0391 74.2895 82.0781H80.4711C81.311 82.0781 81.9262 82.2734 82.3168 82.6641C82.727 83.0352 82.932 83.6406 82.932 84.4805V87.1172C82.932 88.7969 82.1117 89.5781 80.4711 89.4609H74.2895C73.4301 89.4609 72.8051 89.2754 72.4145 88.9043C72.0238 88.5332 71.8578 87.9375 71.9164 87.1172V84.4805ZM80.1195 78.8848C80.5102 78.8848 80.7055 78.6895 80.7055 78.2988V77.4199H71.975V78.8848H80.1195ZM80.7055 75.6621V74.8125C80.7055 74.4219 80.5102 74.2266 80.1195 74.2266H72.5317C72.1801 74.2266 72.0043 74.4219 72.0043 74.8125V75.6621H80.7055ZM80.6762 69.2168C79.3871 68.2402 77.8442 67.1953 76.0473 66.082C74.8559 67.3516 73.7621 68.3965 72.766 69.2168H80.6762ZM74.143 86.7363C74.143 87.3027 74.4457 87.5859 75.0512 87.5859H79.7973C80.3832 87.5859 80.6762 87.3027 80.6762 86.7363V84.8906C80.6762 84.3047 80.3832 84.0117 79.7973 84.0117H75.0512C74.4457 84.0117 74.143 84.3047 74.143 84.8906V86.7363ZM85.0121 67.0488C85.0121 66.1309 85.393 65.6719 86.1547 65.6719C86.936 65.6719 87.3266 66.1309 87.3266 67.0488V82.459C87.3266 83.3965 86.936 83.8652 86.1547 83.8652C85.393 83.8652 85.0121 83.3965 85.0121 82.459V67.0488ZM85.9496 88.4062C85.9496 87.625 86.4184 87.2344 87.3559 87.2344H89.3188C89.9633 87.2344 90.2856 86.8828 90.2856 86.1797V65.0273C90.2856 64.0312 90.6762 63.5332 91.4574 63.5332C92.2582 63.5332 92.6586 64.0312 92.6586 65.0273V86.6484C92.6586 87.7031 92.4145 88.4648 91.9262 88.9336C91.4574 89.4023 90.686 89.6367 89.6117 89.6367H87.3559C86.4184 89.6367 85.9496 89.2266 85.9496 88.4062ZM98.1078 78.3867C97.3852 78.3867 97.0238 77.9473 97.0238 77.0684C97.0238 76.6973 97.3656 76.0039 98.0492 74.9883C99.9438 72.0781 101.545 68.6113 102.854 64.5879C103.01 64.0996 103.196 63.7383 103.411 63.5039C103.645 63.25 103.918 63.123 104.231 63.123C105.149 63.123 105.608 63.5039 105.608 64.2656C105.608 64.7734 104.866 66.5996 103.381 69.7441V88.4062C103.381 89.3828 102.961 89.8711 102.121 89.8711C101.34 89.8711 100.95 89.3828 100.95 88.4062V74.6074C100.305 75.8379 99.7387 76.7754 99.2504 77.4199C98.7621 78.0645 98.3813 78.3867 98.1078 78.3867ZM104.582 73.8164C104.582 73.5039 104.797 73.084 105.227 72.5566C106.086 71.502 106.897 70.2715 107.659 68.8652C108.42 67.4395 109.094 65.9453 109.68 64.3828C109.973 63.6211 110.413 63.2402 110.998 63.2402C111.858 63.2402 112.288 63.582 112.288 64.2656C112.288 64.6562 111.907 65.6914 111.145 67.3711H122.307C122.756 67.3711 123.098 67.4688 123.332 67.6641C123.586 67.8594 123.713 68.1426 123.713 68.5137C123.713 68.8848 123.586 69.168 123.332 69.3633C123.098 69.5586 122.756 69.6562 122.307 69.6562H114.924V73.9629H120.842C121.76 73.9629 122.219 74.3438 122.219 75.1055C122.219 75.8672 121.76 76.248 120.842 76.248H114.924V80.584H121.838C122.776 80.584 123.245 80.9648 123.245 81.7266C123.245 82.4883 122.776 82.8691 121.838 82.8691H114.924V88.377C114.924 89.373 114.514 89.8711 113.694 89.8711C112.873 89.8711 112.463 89.373 112.463 88.377V69.6562H110.002C109.065 71.4531 108.235 72.8105 107.512 73.7285C106.789 74.6465 106.194 75.1055 105.725 75.1055C104.963 75.1055 104.582 74.6758 104.582 73.8164Z" fill="white"/>
<path d="M118.073 118.851L120.569 121.348C123.237 124.016 123.237 128.338 120.569 131.006L114.552 137.024L102.389 124.87L108.407 118.851C111.074 116.184 115.395 116.184 118.062 118.851H118.073ZM72.7939 154.482L99.9783 127.282L112.141 139.447L84.9458 166.636C84.2309 167.351 83.3347 167.874 82.3639 168.152L71.2682 171.321C70.372 171.577 69.4118 171.331 68.7503 170.67C68.0889 170.008 67.8435 169.048 68.0995 168.152L71.2682 157.054C71.5456 156.072 72.0684 155.186 72.7832 154.471L72.7939 154.482ZM94.6118 127.826L79.0352 143.405L69.7105 134.068C67.7155 132.073 67.7155 128.829 69.7105 126.823L78.043 118.499C80.0381 116.504 83.2814 116.504 85.2872 118.499L87.3996 120.612C87.3676 120.644 87.3249 120.676 87.2929 120.708L80.4648 127.538C79.8033 128.199 79.8033 129.288 80.4648 129.949C81.1263 130.611 82.2145 130.611 82.876 129.949L89.7041 123.12C89.7361 123.088 89.7681 123.045 89.8001 123.013L94.6118 127.826ZM111.597 144.814L116.408 149.627C116.376 149.659 116.334 149.691 116.302 149.723L109.474 156.552C108.812 157.214 108.812 158.302 109.474 158.964C110.135 159.625 111.223 159.625 111.885 158.964L118.713 152.134C118.745 152.102 118.777 152.06 118.809 152.028L120.921 154.151C122.916 156.147 122.916 159.391 120.921 161.397L112.589 169.72C110.594 171.716 107.35 171.716 105.345 169.72L96.0201 160.394L111.597 144.814Z" fill="white"/>
</svg>
