<svg width="250" height="250" viewBox="0 0 250 250" fill="none" xmlns="http://www.w3.org/2000/svg">
<ellipse cx="125" cy="125" rx="97.6697" ry="97.6697" transform="rotate(19.8195 125 125)" fill="#FFC107"/>
<path d="M106.948 90.1387C106.167 90.1387 105.777 89.7969 105.777 89.1133C105.777 88.8984 105.952 88.4688 106.304 87.8242C107.691 85.3633 108.413 81.6426 108.472 76.6621L108.443 71.7988C108.443 70.1777 109.253 69.3672 110.874 69.3672H120.513C121.353 69.3672 121.958 69.5527 122.329 69.9238C122.72 70.2949 122.896 70.8906 122.857 71.7109V73.7324C122.857 74.5723 122.671 75.1875 122.3 75.5781C121.929 75.9492 121.333 76.1152 120.513 76.0762H110.552C110.493 80.5879 109.976 84.2012 108.999 86.916C108.238 89.0645 107.554 90.1387 106.948 90.1387ZM97.2805 87.0039C97.2805 86.75 97.3684 86.4082 97.5442 85.9785C98.052 84.6895 98.3352 83.127 98.3938 81.291C98.4133 80.4316 98.7551 80.002 99.4192 80.002C100.064 80.002 100.386 80.3633 100.386 81.0859C100.386 82.1016 100.21 83.4883 99.8587 85.2461C99.6829 86.1641 99.468 86.8477 99.2141 87.2969C98.9797 87.7461 98.6868 87.9707 98.3352 87.9707C97.6321 87.9707 97.2805 87.6484 97.2805 87.0039ZM97.3098 77.7168C97.3098 77.0918 97.6712 76.75 98.3938 76.6914L99.7122 76.6328L101.704 73.6445H101.734C100.816 72.7656 99.7122 71.877 98.4231 70.9785C97.8762 70.6074 97.6028 70.2363 97.6028 69.8652C97.6028 69.1621 97.9641 68.8105 98.6868 68.8105C98.9602 68.8105 99.302 68.9766 99.7122 69.3086C100.63 67.6875 101.275 66.3594 101.646 65.3242C101.919 64.5234 102.368 64.123 102.993 64.123C103.775 64.123 104.165 64.4844 104.165 65.207C104.165 65.832 103.198 67.5801 101.265 70.4512L102.847 71.8281L104.575 68.7812C104.947 68.1367 105.366 67.8145 105.835 67.8145C106.597 67.8145 106.978 68.166 106.978 68.8691C106.978 69.2207 106.372 70.3145 105.161 72.1504C103.853 74.1035 102.798 75.5684 101.997 76.5449L105.279 76.3691L104.898 75.168L104.839 74.7871C104.8 74.5332 104.859 74.3379 105.015 74.2012C105.171 74.0449 105.396 73.9668 105.689 73.9668C105.904 73.9668 106.118 74.1328 106.333 74.4648C106.548 74.7773 106.792 75.2656 107.066 75.9297C107.593 77.2188 107.857 78.0195 107.857 78.332C107.857 78.9961 107.515 79.3281 106.831 79.3281C106.382 79.3281 106.04 78.9082 105.806 78.0684L103.843 78.2734V89.6699C103.843 90.4707 103.491 90.8711 102.788 90.8711C102.085 90.8711 101.734 90.4707 101.734 89.6699V78.5078L98.4817 78.8594C98.0911 78.8984 97.7981 78.8203 97.6028 78.625C97.4075 78.4102 97.3098 78.1074 97.3098 77.7168ZM104.927 80.8223C104.868 80.3145 105.2 80.0605 105.923 80.0605C106.333 80.0605 106.597 80.3438 106.714 80.9102C107.144 83.0781 107.359 84.3281 107.359 84.6602C107.359 85.3047 107.007 85.627 106.304 85.627C105.738 85.627 105.396 84.9922 105.279 83.7227L104.927 80.8223ZM106.773 66.3203C106.773 65.6172 107.193 65.2656 108.032 65.2656H122.827C123.687 65.2656 124.116 65.6172 124.116 66.3203C124.116 67.0234 123.687 67.375 122.827 67.375H108.032C107.193 67.375 106.773 67.0234 106.773 66.3203ZM119.81 74.1133C120.083 74.1133 120.288 74.0352 120.425 73.8789C120.581 73.7227 120.659 73.5078 120.659 73.2344V72.209C120.659 71.9355 120.581 71.7207 120.425 71.5645C120.288 71.4082 120.083 71.3301 119.81 71.3301H111.49C110.884 71.3301 110.581 71.6035 110.581 72.1504L110.611 73.6445L110.581 74.1133H119.81ZM110.611 79.9434C110.611 78.459 111.333 77.7168 112.779 77.7168H121.04C122.525 77.7168 123.267 78.459 123.267 79.9434V88.4688C123.267 89.8945 122.554 90.627 121.128 90.666H120.366C119.683 90.666 119.341 90.3145 119.341 89.6113C119.341 88.9277 119.634 88.5859 120.22 88.5859H120.513C121.021 88.5859 121.275 88.3125 121.275 87.7656V84.748H119.253V89.4648C119.253 90.0312 118.97 90.3145 118.404 90.3145C117.837 90.3145 117.554 90.0312 117.554 89.4648V84.748H115.855V89.4648C115.855 90.0312 115.572 90.3145 115.005 90.3145C114.458 90.3145 114.185 90.0312 114.185 89.4648V84.748H112.486V89.8457C112.486 90.5098 112.173 90.8418 111.548 90.8418C111.216 90.8418 110.972 90.7637 110.816 90.6074C110.679 90.4512 110.611 90.1973 110.611 89.8457V79.9434ZM114.185 82.9023V79.5625H113.159C112.945 79.5625 112.779 79.6211 112.661 79.7383C112.544 79.8555 112.486 80.0215 112.486 80.2363V82.9023H114.185ZM117.554 82.9023V79.5625H115.855V82.9023H117.554ZM121.275 82.9023V80.2363C121.275 79.8262 121.04 79.6016 120.572 79.5625H119.253V82.9023H121.275ZM143.775 90.7246C143.189 90.7246 142.896 90.3926 142.896 89.7285C142.896 89.3379 143.159 88.9961 143.687 88.7031C145.269 87.8047 146.665 86.5645 147.876 84.9824C147.368 83.0684 147.017 80.0117 146.822 75.8125H137.329C136.607 75.8125 136.245 75.4707 136.245 74.7871C136.245 74.1035 136.607 73.7617 137.329 73.7617H138.618C138.521 72.3164 138.365 70.832 138.15 69.3086H137.622C136.958 69.3086 136.626 68.9668 136.626 68.2832C136.626 67.6191 136.958 67.2871 137.622 67.2871H140.493V65.4707C140.493 64.6309 140.845 64.2109 141.548 64.2109C142.271 64.2109 142.632 64.6309 142.632 65.4707V67.2871H145.445C146.089 67.2871 146.411 67.6289 146.411 68.3125C146.411 68.9766 146.089 69.3086 145.445 69.3086H144.8L144.361 73.5273L144.302 73.7617H146.763L146.704 67.375C146.685 65.832 146.743 64.9141 146.88 64.6211C147.036 64.2695 147.339 64.0938 147.788 64.0938C148.511 64.0938 148.872 64.5234 148.872 65.3828L148.902 73.7617H152.769C153.57 73.7617 153.97 74.1035 153.97 74.7871C153.97 75.4707 153.57 75.8125 152.769 75.8125H148.931V76.6621C148.931 78.6738 149.087 80.6367 149.4 82.5508C150.005 81.3789 150.484 80.0703 150.835 78.625C151.05 77.8047 151.441 77.3945 152.007 77.3945C152.671 77.3945 153.003 77.6973 153.003 78.3027C153.003 78.791 152.661 79.7969 151.978 81.3203C151.255 82.8828 150.591 84.1328 149.986 85.0703C150.611 86.9453 151.157 87.8828 151.626 87.8828C151.958 87.8828 152.154 87.2871 152.212 86.0957C152.271 84.6895 152.593 83.9863 153.179 83.9863C153.804 83.9863 154.116 84.3281 154.116 85.0117C154.116 86.7305 153.892 88.1172 153.443 89.1719C153.032 90.168 152.476 90.666 151.773 90.666C150.523 90.666 149.439 89.4648 148.521 87.0625C147.779 87.9609 146.929 88.791 145.972 89.5527C144.995 90.334 144.263 90.7246 143.775 90.7246ZM127.281 87.1504C127.281 86.9941 127.31 86.8086 127.368 86.5938C127.447 86.3594 127.495 86.1934 127.515 86.0957C127.71 85.4121 127.876 84.6504 128.013 83.8105C128.169 82.9707 128.267 82.1992 128.306 81.4961C128.365 80.4805 128.687 79.9727 129.273 79.9727C129.878 79.9727 130.181 80.3535 130.181 81.1152C130.181 82.6777 130.005 84.2402 129.654 85.8027C129.302 87.3848 128.843 88.1758 128.277 88.1758C127.613 88.1758 127.281 87.834 127.281 87.1504ZM127.339 77.7461C127.339 77.4141 127.486 77.1602 127.779 76.9844C128.091 76.7891 128.531 76.6816 129.097 76.6621L129.507 76.6328L131.265 73.7617C130.347 72.8242 129.351 71.9258 128.277 71.0664C127.749 70.6562 127.486 70.2559 127.486 69.8652C127.486 69.1621 127.798 68.8105 128.423 68.8105C128.677 68.8105 129.019 68.957 129.448 69.25C129.722 68.6836 130.171 67.6191 130.796 66.0566C131.05 65.4121 131.294 64.9434 131.529 64.6504C131.782 64.3379 132.046 64.1816 132.32 64.1816C133.12 64.1816 133.521 64.5527 133.521 65.2949C133.521 65.9785 132.661 67.7461 130.943 70.5977L131.851 71.418L132.349 71.8281L133.872 68.9277C134.048 68.5762 134.224 68.3223 134.4 68.166C134.595 68.0098 134.829 67.9316 135.103 67.9316C135.825 67.9316 136.187 68.2637 136.187 68.9277C136.187 69.709 134.663 72.2578 131.616 76.5742L134.575 76.3691C134.243 75.5098 134.077 74.9922 134.077 74.8164C134.077 74.25 134.38 73.9668 134.986 73.9668C135.454 73.9668 135.913 74.5918 136.363 75.8418L137.154 78.0098L137.212 78.3613C137.271 78.6934 137.202 78.957 137.007 79.1523C136.831 79.3281 136.558 79.416 136.187 79.416C135.738 79.416 135.386 78.9961 135.132 78.1562L133.433 78.332V89.7285C133.433 90.4902 133.091 90.8711 132.407 90.8711C131.724 90.8711 131.382 90.4902 131.382 89.7285V78.5664L128.423 78.8887C128.072 78.9277 127.798 78.8398 127.603 78.625C127.427 78.4102 127.339 78.1172 127.339 77.7461ZM134.37 80.793C134.331 80.5195 134.4 80.3145 134.575 80.1777C134.751 80.041 134.986 79.9727 135.279 79.9727C135.669 79.9727 135.943 80.1777 136.099 80.5879L136.304 81.4961L137.124 86.5059C137.183 86.8379 137.115 87.1016 136.919 87.2969C136.743 87.4922 136.48 87.5898 136.128 87.5898C135.523 87.5898 135.161 86.9746 135.044 85.7441L134.37 80.793ZM137.886 79.4453C137.886 78.0781 138.54 77.3945 139.849 77.3945H143.57C144.878 77.3945 145.532 78.0781 145.532 79.4453V85.832C145.532 87.2383 144.771 87.9609 143.247 88H140.083C138.657 88 137.925 87.3164 137.886 85.9492V79.4453ZM139.907 85.3926C139.907 85.9004 140.171 86.1543 140.698 86.1543H142.72C143.228 86.1543 143.482 85.9004 143.482 85.3926V83.5469H139.907V85.3926ZM143.482 81.7305V80.0312C143.482 79.5234 143.228 79.2695 142.72 79.2695H140.698C140.171 79.2695 139.907 79.5234 139.907 80.0312V81.7305H143.482ZM139.995 69.3086C140.269 71.3789 140.425 72.8633 140.464 73.7617H142.456L142.866 69.3086H139.995ZM149.956 68.3418C149.917 68.0684 149.986 67.8633 150.161 67.7266C150.337 67.5703 150.591 67.4922 150.923 67.4922C151.314 67.4922 151.704 67.8926 152.095 68.6934C152.798 70.1191 153.15 71.0078 153.15 71.3594C153.15 72.0039 152.808 72.3262 152.124 72.3262C151.656 72.3262 151.226 71.8086 150.835 70.7734L150.015 68.6641L149.956 68.3418Z" fill="white"/>
<path d="M151.711 156.908C150.119 155.662 149.613 153.389 150.553 151.63L152.94 146.793C153.302 146.133 153.012 145.253 152.289 144.96C151.638 144.594 150.77 144.887 150.481 145.62L148.094 150.458C146.647 153.463 147.443 157.128 150.047 159.18C151.132 160.059 151.783 161.379 151.783 162.845C151.783 165.41 149.758 167.462 147.226 167.462C144.622 167.462 142.09 166.73 139.92 165.337L137.895 164.018C141.005 159.986 142.886 154.929 142.886 149.505C142.886 143.714 140.788 138.437 137.389 134.332L141.439 130.228C143.32 131.327 145.779 131.034 147.371 129.421C149.324 127.442 149.324 124.217 147.371 122.238C145.418 120.259 142.235 120.259 140.282 122.238C138.691 123.851 138.401 126.343 139.486 128.322L135.436 132.427C133.266 130.374 130.734 128.688 127.841 127.589L128.781 122.605C130.951 122.385 132.832 120.846 133.266 118.573C133.772 115.861 132.036 113.149 129.36 112.636C126.683 112.123 124.007 113.882 123.501 116.594C123.067 118.867 124.224 121.065 126.177 122.092L125.237 126.783C123.428 126.343 121.476 126.05 119.523 126.05C106.72 126.05 96.2314 136.604 96.2314 149.651C96.2314 155.882 98.6184 161.525 102.597 165.777L97.8951 170.541C97.3888 171.054 97.3888 171.934 97.8951 172.52C98.4014 173.033 99.2694 173.033 99.8481 172.52L104.55 167.756C107.805 170.541 111.855 172.447 116.268 173.033L114.821 180.583C114.676 181.316 115.183 182.049 115.906 182.195C116.629 182.342 117.353 181.829 117.497 181.096L119.016 173.253C119.161 173.253 119.378 173.253 119.523 173.253C125.96 173.253 131.747 170.614 135.942 166.363L138.329 167.902C140.933 169.588 143.971 170.468 147.081 170.468C151.132 170.468 154.387 167.169 154.387 163.065C154.531 160.426 153.519 158.3 151.711 156.908ZM142.307 123.997C143.175 123.118 144.622 123.118 145.49 123.997C146.358 124.877 146.358 126.343 145.49 127.222C144.622 128.102 143.175 128.102 142.307 127.222C141.439 126.416 141.439 124.95 142.307 123.997ZM126.322 116.888C126.539 115.642 127.768 114.835 128.998 115.055C130.228 115.275 131.023 116.521 130.806 117.767C130.589 119.013 129.36 119.819 128.13 119.6C126.828 119.38 126.032 118.134 126.322 116.888ZM139.486 144.594C139.559 144.594 139.631 144.667 139.631 144.74C139.92 146.06 140.065 147.379 140.137 148.772C140.137 148.845 140.065 148.918 139.993 148.992C139.92 148.992 139.92 148.992 139.848 148.992C139.776 148.992 139.776 148.992 139.703 148.992C138.98 148.552 138.184 148.185 137.389 147.746C137.316 147.746 137.316 147.672 137.244 147.599C137.244 147.526 137.244 147.452 137.244 147.452C137.75 146.426 138.329 145.473 139.125 144.667C139.269 144.594 139.414 144.594 139.486 144.594ZM138.474 141.589C136.882 142.908 135.653 144.594 134.857 146.426C134.785 146.5 134.712 146.573 134.64 146.573H134.568C133.483 146.206 132.398 145.84 131.313 145.547C131.24 145.547 131.168 145.473 131.168 145.4C131.168 145.327 131.168 145.253 131.168 145.18C131.53 144.227 131.891 143.494 132.325 142.908C133.41 141.076 134.857 139.463 136.593 138.07C136.665 137.997 136.738 137.997 136.81 137.997C136.882 137.997 136.955 138.07 136.955 138.07C137.606 139.17 138.184 140.196 138.618 141.222C138.618 141.442 138.546 141.515 138.474 141.589ZM132.108 133.086C132.181 133.013 132.325 133.013 132.398 133.086C133.266 133.819 134.134 134.625 134.929 135.505C135.002 135.578 135.002 135.652 135.002 135.652C135.002 135.725 134.929 135.798 134.929 135.798C132.904 137.337 131.24 139.316 129.938 141.369C129.287 142.395 128.781 143.494 128.347 144.667C128.347 144.74 128.202 144.814 128.13 144.814C127.117 144.667 125.96 144.521 124.658 144.521C124.586 144.521 124.513 144.447 124.441 144.447C124.369 144.374 124.369 144.301 124.441 144.227C124.803 143.128 125.164 142.175 125.598 141.369C127.117 138.217 129.36 135.358 132.108 133.086ZM129.721 131.4C129.721 131.474 129.721 131.547 129.649 131.62C126.973 133.966 124.73 136.971 123.139 140.123C122.488 141.515 121.91 142.908 121.476 144.374C121.476 144.447 121.331 144.521 121.259 144.521C120.029 144.594 118.872 144.74 117.642 144.887C117.642 144.887 117.642 144.887 117.57 144.887C117.497 144.887 117.425 144.887 117.425 144.814C117.353 144.74 117.353 144.667 117.353 144.594C118.799 138.877 121.693 133.746 125.888 129.715C125.96 129.641 126.032 129.641 126.105 129.641C127.334 130.081 128.492 130.594 129.504 131.18C129.649 131.254 129.721 131.327 129.721 131.4ZM116.846 128.762C118.944 128.468 120.318 128.468 122.488 128.762C122.56 128.762 122.633 128.835 122.705 128.908C122.705 128.982 122.705 129.055 122.633 129.128C121.91 129.861 121.259 130.741 120.535 131.767C120.463 131.84 120.463 131.84 120.391 131.84C120.318 131.84 120.246 131.84 120.246 131.767C119.161 130.814 118.004 129.934 116.846 129.128C116.774 129.055 116.702 128.982 116.774 128.908C116.702 128.835 116.774 128.762 116.846 128.762ZM108.166 132.06C109.396 131.254 110.77 130.521 112.217 129.934C112.289 129.934 112.362 129.934 112.434 129.934C114.676 131.034 116.774 132.427 118.655 134.186C118.727 134.259 118.727 134.406 118.727 134.479C118.148 135.505 117.57 136.531 117.063 137.631C117.063 137.704 116.991 137.777 116.919 137.777C116.919 137.777 116.919 137.777 116.846 137.777C116.774 137.777 116.702 137.777 116.702 137.704C114.387 135.285 111.494 133.526 108.311 132.5C108.239 132.5 108.166 132.427 108.166 132.28C108.094 132.207 108.094 132.133 108.166 132.06ZM102.524 137.924C103.32 136.751 104.116 135.652 105.128 134.699C105.128 134.625 105.201 134.625 105.273 134.625C109.324 135.358 113.013 137.484 115.617 140.636C115.689 140.709 115.689 140.782 115.689 140.856C115.255 142.175 114.821 143.568 114.532 145.034C114.532 145.107 114.459 145.18 114.315 145.253C114.315 145.253 114.315 145.253 114.242 145.253C114.17 145.253 114.098 145.18 114.025 145.107C111.566 141.002 107.371 138.437 102.669 138.217C102.597 138.217 102.524 138.144 102.452 138.07C102.452 138.07 102.452 137.997 102.524 137.924ZM100.716 141.222C100.716 141.149 100.788 141.076 100.933 141.076C101.367 141.002 101.801 141.002 102.163 141.002C105.996 141.002 109.468 142.981 111.566 146.206C111.638 146.28 111.638 146.353 111.566 146.426C111.566 146.5 111.494 146.573 111.421 146.573C110.336 146.939 109.251 147.452 108.239 147.965H108.166C108.094 147.965 108.022 147.965 107.949 147.892C106.575 146.06 104.405 144.96 102.163 144.96C101.367 144.96 100.571 145.107 99.8481 145.327C99.7757 145.327 99.7034 145.327 99.6311 145.253C99.5587 145.18 99.5587 145.107 99.5587 145.034C99.7757 143.714 100.21 142.468 100.716 141.222ZM99.7757 153.829C99.7034 153.829 99.7034 153.829 99.7757 153.829C99.6311 153.756 99.5587 153.756 99.5587 153.609C99.2694 152.217 99.1247 150.751 99.1247 149.358C99.1247 149.285 99.1247 149.212 99.1247 149.212C99.1247 149.138 99.1247 149.138 99.1247 149.065C99.1247 148.992 99.1247 148.918 99.1971 148.918C100.065 148.185 101.078 147.746 102.163 147.746C103.392 147.746 104.622 148.259 105.49 149.212C105.562 149.285 105.562 149.358 105.562 149.431C105.562 149.505 105.49 149.578 105.418 149.578C103.465 150.824 101.584 152.217 99.9204 153.829C99.8481 153.829 99.8481 153.829 99.7757 153.829ZM102.452 160.573C102.38 160.573 102.307 160.499 102.235 160.499C101.584 159.4 101.005 158.3 100.571 157.201C100.571 157.128 100.571 156.981 100.644 156.981C106.503 150.751 114.604 147.233 122.994 147.233C128.998 147.233 134.785 148.992 139.776 152.29C139.848 152.363 139.92 152.437 139.848 152.51C139.631 153.756 139.342 154.929 138.98 156.101C138.98 156.175 138.908 156.248 138.835 156.248C138.763 156.248 138.691 156.248 138.618 156.248C135.653 154.122 132.325 152.656 128.853 151.85C126.9 151.41 124.947 151.191 122.922 151.191C118.799 151.191 114.749 152.143 111.06 153.976C107.877 155.515 104.984 157.787 102.597 160.499C102.597 160.499 102.524 160.573 102.452 160.573ZM127.19 168.635C124.73 169.588 122.199 170.101 119.595 170.101C118.655 170.101 117.714 170.028 116.557 169.881C116.485 169.881 116.412 169.808 116.34 169.735C116.34 169.661 116.34 169.515 116.412 169.515C119.45 167.316 123.428 166.73 127.117 168.269C127.19 168.342 127.262 168.415 127.262 168.489C127.334 168.562 127.262 168.635 127.19 168.635ZM133.555 164.531C132.687 165.41 131.747 166.143 130.734 166.803C130.662 166.876 130.589 166.876 130.445 166.803C128.202 165.337 125.598 164.604 122.922 164.604C119.161 164.604 115.617 166.143 112.94 168.928C112.868 169.002 112.868 169.002 112.796 169.002H112.723C111.566 168.562 110.481 168.049 109.396 167.462C109.324 167.462 109.324 167.389 109.251 167.316C109.251 167.243 109.251 167.169 109.324 167.096C110.77 165.41 112.434 163.944 114.315 162.918C118.293 160.646 123.356 160.059 127.696 161.379C129.721 161.965 131.674 162.918 133.483 164.237C133.555 164.311 133.555 164.311 133.555 164.384C133.627 164.457 133.627 164.531 133.555 164.531ZM137.678 159.18C137.172 160.133 136.521 161.159 135.725 162.112C135.653 162.185 135.508 162.258 135.363 162.185C133.266 160.573 130.879 159.327 128.419 158.667C123.356 157.201 117.642 157.861 112.94 160.499C110.698 161.745 108.673 163.504 107.009 165.557C106.937 165.63 106.864 165.63 106.864 165.63C106.792 165.63 106.792 165.63 106.72 165.557C105.852 164.824 104.984 164.018 104.188 163.138C104.116 163.065 104.116 162.918 104.188 162.845C106.43 160.206 109.179 158.007 112.217 156.468C115.544 154.855 119.161 153.976 122.922 153.976C124.73 153.976 126.539 154.196 128.275 154.562C131.602 155.295 134.857 156.834 137.606 158.887C137.75 158.96 137.75 159.107 137.678 159.18Z" fill="white"/>
</svg>
