<svg width="1280" height="20" viewBox="0 0 1280 20" fill="none" xmlns="http://www.w3.org/2000/svg">
<path d="M0 19C0 8.50659 8.50659 0 19 0V0C29.4934 0 38 8.50659 38 19V20H0V19Z" fill="#F44336"/>
<path d="M301 19C301 8.50659 309.507 0 320 0V0C330.493 0 339 8.50659 339 19V20H301V19Z" fill="#F44336"/>
<path d="M602 19C602 8.50659 610.507 0 621 0V0C631.493 0 640 8.50659 640 19V20H602V19Z" fill="#F44336"/>
<path d="M904 18.5C904 8.28273 912.283 0 922.5 0V0C932.717 0 941 8.28273 941 18.5V20H904V18.5Z" fill="#F44336"/>
<path d="M151 18.5C151 8.28273 159.283 0 169.5 0V0C179.717 0 188 8.28273 188 18.5V20H151V18.5Z" fill="#F44336"/>
<path d="M452 18.5C452 8.28273 460.283 0 470.5 0V0C480.717 0 489 8.28273 489 18.5V20H452V18.5Z" fill="#F44336"/>
<path d="M753 19C753 8.50659 761.507 0 772 0V0C782.493 0 791 8.50659 791 19V20H753V19Z" fill="#F44336"/>
<path d="M1054 19C1054 8.50659 1062.51 0 1073 0V0C1083.49 0 1092 8.50659 1092 19V20H1054V19Z" fill="#F44336"/>
<path d="M1205 18.5C1205 8.28273 1213.28 0 1223.5 0V0C1233.72 0 1242 8.28273 1242 18.5V20H1205V18.5Z" fill="#F44336"/>
<path d="M75 19C75 8.50659 83.5066 0 94 0V0C104.493 0 113 8.50659 113 19V20H75V19Z" fill="#F44336"/>
<path d="M376 19C376 8.50659 384.507 0 395 0V0C405.493 0 414 8.50659 414 19V20H376V19Z" fill="#F44336"/>
<path d="M678 18.5C678 8.28273 686.283 0 696.5 0V0C706.717 0 715 8.28273 715 18.5V20H678V18.5Z" fill="#F44336"/>
<path d="M979 18.5C979 8.28273 987.283 0 997.5 0V0C1007.72 0 1016 8.28273 1016 18.5V20H979V18.5Z" fill="#F44336"/>
<path d="M226 19C226 8.50659 234.507 0 245 0V0C255.493 0 264 8.50659 264 19V20H226V19Z" fill="#F44336"/>
<path d="M527 19C527 8.50659 535.507 0 546 0V0C556.493 0 565 8.50659 565 19V20H527V19Z" fill="#F44336"/>
<path d="M828 19C828 8.50659 836.507 0 847 0V0C857.493 0 866 8.50659 866 19V20H828V19Z" fill="#F44336"/>
<path d="M1129 19C1129 8.50659 1137.51 0 1148 0V0C1158.49 0 1167 8.50659 1167 19V20H1129V19Z" fill="#F44336"/>
<path d="M38 18.5C38 8.28273 46.2827 0 56.5 0V0C66.7173 0 75 8.28273 75 18.5V20H38V18.5Z" fill="#FFC107"/>
<path d="M339 18.5C339 8.28273 347.283 0 357.5 0V0C367.717 0 376 8.28273 376 18.5V20H339V18.5Z" fill="#FFC107"/>
<path d="M640 19C640 8.50659 648.507 0 659 0V0C669.493 0 678 8.50659 678 19V20H640V19Z" fill="#FFC107"/>
<path d="M941 19C941 8.50659 949.507 0 960 0V0C970.493 0 979 8.50659 979 19V20H941V19Z" fill="#FFC107"/>
<path d="M188 19C188 8.50659 196.507 0 207 0V0C217.493 0 226 8.50659 226 19V20H188V19Z" fill="#FFC107"/>
<path d="M489 19C489 8.50659 497.507 0 508 0V0C518.493 0 527 8.50659 527 19V20H489V19Z" fill="#FFC107"/>
<path d="M791 18.5C791 8.28273 799.283 0 809.5 0V0C819.717 0 828 8.28273 828 18.5V20H791V18.5Z" fill="#FFC107"/>
<path d="M1092 18.5C1092 8.28273 1100.28 0 1110.5 0V0C1120.72 0 1129 8.28273 1129 18.5V20H1092V18.5Z" fill="#FFC107"/>
<path d="M1242 19C1242 8.50659 1250.51 0 1261 0V0C1271.49 0 1280 8.50659 1280 19V20H1242V19Z" fill="#FFC107"/>
<path d="M113 19C113 8.50659 121.507 0 132 0V0C142.493 0 151 8.50659 151 19V20H113V19Z" fill="#4CAF50"/>
<path d="M414 19C414 8.50659 422.507 0 433 0V0C443.493 0 452 8.50659 452 19V20H414V19Z" fill="#4CAF50"/>
<path d="M715 19C715 8.50659 723.507 0 734 0V0C744.493 0 753 8.50659 753 19V20H715V19Z" fill="#4CAF50"/>
<path d="M1016 19C1016 8.50659 1024.51 0 1035 0V0C1045.49 0 1054 8.50659 1054 19V20H1016V19Z" fill="#4CAF50"/>
<path d="M264 18.5C264 8.28273 272.283 0 282.5 0V0C292.717 0 301 8.28273 301 18.5V20H264V18.5Z" fill="#4CAF50"/>
<path d="M565 18.5C565 8.28273 573.283 0 583.5 0V0C593.717 0 602 8.28273 602 18.5V20H565V18.5Z" fill="#4CAF50"/>
<path d="M866 19C866 8.50659 874.507 0 885 0V0C895.493 0 904 8.50659 904 19V20H866V19Z" fill="#4CAF50"/>
<path d="M1167 19C1167 8.50659 1175.51 0 1186 0V0C1196.49 0 1205 8.50659 1205 19V20H1167V19Z" fill="#4CAF50"/>
</svg>
